<?xml version="1.0" encoding="utf-8"?>
<!-- Generator: Adobe Illustrator 21.0.0, SVG Export Plug-In . SVG Version: 6.00 Build 0)  -->
<svg version="1.1" id="Слой_1" xmlns="http://www.w3.org/2000/svg" xmlns:xlink="http://www.w3.org/1999/xlink" x="0px" y="0px"
	 viewBox="0 0 125 125" style="enable-background:new 0 0 125 125;" xml:space="preserve">
<style type="text/css">
	.st0{fill:#3F8CCB;}
	.st1{fill:#034EA1;}
	.st2{fill:#F05A22;}
	.st3{fill:#3EBEB8;}
	.st4{fill:#F9A51A;}
</style>
<path class="st1" d="M105,43.1c0,0,0-0.1,0-0.2c0-0.1-0.1-0.2-0.1-0.2l-0.5,0.3c0,0,0.2,0,0.3,0.1C104.9,43.1,105,43.1,105,43.1z
	 M62.2,37c-0.5-0.1-0.4,0.6-0.4,0.7C62.6,37.6,62.2,36.9,62.2,37z M107.4,42.4c-0.1-0.2-0.3-0.3-0.4-0.5
	C106.7,42.1,107.1,42.2,107.4,42.4z M106.4,45.9c0,0,0.6,0.7,0.6,0.7c-0.2-0.4-0.1-0.6-0.1-0.8C106.7,45.8,106.6,46.1,106.4,45.9z
	 M108.1,43.9c0.5-0.4,0-0.9-0.6-1.4c0,0,0.1,0.1,0.1,0.1C106.8,43,107.5,43.4,108.1,43.9z M108.9,51.2c0.1-0.4-0.8-0.1-0.6-0.3
	C107.5,50.7,109.5,53,108.9,51.2z M103.8,41.4c-0.2-0.1-0.4-0.1-0.4-0.1l-0.6,0.4c0,0,0.3,0,0.6-0.1c0.3,0,0.6-0.1,0.6-0.1
	S104,41.5,103.8,41.4z M112.8,63.2c-1,0.1-0.6,2.3-0.6,3.4c-0.6-0.2-1.1-0.7-1.5-1.6c-0.4-0.9-0.6-2-0.7-3.2c0-1.9,0.9-0.7,0.8-1
	c0.4-1.7-0.1-2.5-0.5-3.2c-0.4-0.7-0.7-1.3-0.3-2.7c0.8-1.1,1.6-0.1,2.2-0.3c0.3,1.6-0.6,2.4-0.6,3.4l0.5-1.3
	c0.2,0.5,0.4,1.6,0.1,2.1c0.4-0.5,0.6-2,0.7-3.8c0.1-1.8-0.1-3.8,0-5.2c-0.4-0.5-0.8-1.2-1-0.8l0.3,0.8c-0.5,0.9-1.2-1.4-1.3-0.3
	c-0.7-1-1.6-2-1.8-3.5l0.7-0.6c-0.2,0.1-0.1,1.1,0.3,1.5c-0.3-0.2-0.2-0.9-0.2-1.5c0-0.6-0.3-1.3-0.9-1.3l-0.1,1.2
	c-0.9-0.8-2.3-1.3-2.8-2.4c-0.4,1,0.3,0.2-0.1,1.4c0.3-0.7,0.8,0,1.1,0.6c0.3,0.6,0.6,1.2,1,0.4c-0.3,0.7-0.3,1.1-0.3,1.5
	c0.1,0.4,0.1,0.9-0.2,1.6c0.3-0.1,0.5-0.6,0.6,0.5c0.1,0,0.2,0.1,0.3,0.2c0,0,0,0,0,0.1c0,0,0,0,0-0.1c0.1,0,0.1,0,0,0
	c0.1-0.3,0.2-0.5,0.3-0.6c0.4,0.2,0.7,0.7,0.9,1.2c0.2,0.6,0.4,1.1,0.6,1.4c-0.1,0.7-0.4-0.2-0.6,0.2l0.6,0.8
	c-0.6,0.2-1,1.8-1.5,0.3c0,0,0,0.3,0,0.7c0,0.3,0,0.7,0,0.7c-0.2,0.4-0.3,0.9-0.4,1.4c0,0.5,0,0.9,0.1,1.3c-0.2,0.6,0.6,1.7,0.1,1.1
	c0,0,0.1,0.6,0.1,1.1c0,0.6,0.1,1.1,0.1,1.1l-0.2,0c-0.4,2.2,0.2,4.8-1.6,7.1c-0.1,0.8-0.1,1.7-0.6,2.9l-0.6,0.1
	c-0.1,1-1.5,2.7-1,3.3c-1.8,0.5-2,4.5-2.9,6l0.7,0.3c-0.5,1.1-0.8,2.3-1.1,3.8l0.6,0.2c0,1.4-1.8,2.9-2.7,4.7
	c-0.2-0.2,0.1-0.7,0.4-0.9c-1.2,0.8-1.6,2-1.9,3.3c-0.3,1.3-0.7,2.5-1.7,3.2c-0.1,0.6-0.4,0.9-0.7,1.1c0,0,0-0.1,0-0.1
	c0,0-0.1,0.1-0.1,0.2c-0.2,0.1-0.5,0.3-0.7,0.5c0.3-0.1,0.5-0.2,0.6-0.4c-0.2,0.4-0.5,1-0.7,1.6l-0.7-0.2c0,0,0,0.1-0.1,0.1
	c-0.6,0.4,0,0.6,0.6,0.6c-0.1,0.3-0.1,0.7-0.1,0.9c-1.2-0.2-0.7,1.6-2.1,1.4c0.2,0.7-1.3,2.5-1,3.6c-0.6,0.4-1.1,0.9-1.3,1.6
	l-0.9-0.4l-0.2,2c-1.1,0.3-1.5,0.4-1.4-0.8c-0.4,1.2-0.7,1.6-0.9,1.9c-0.2,0.4-0.4,0.7-0.8,1.7l-0.3-0.5c-0.5,0.5-0.8,1.8-1.5,1.7
	c-0.5,0-1.1,0.3-1.8,0.8c-0.7,0.4-1.5,1-2.5,1.6c-1.8,1.2-4,2.3-6,2.6c1.4,1.3-1.9-0.1-1.6,1.2c-0.3-0.3-0.9-0.3-0.5-0.9
	c-0.8,0.5-1.6,0.6-2.2,0.7c-0.6,0.1-1.2,0.2-1.7,1c-0.3-0.3,0.3-0.7,0-0.9c-0.1,0.1-0.5,0.5-0.7,0.3c-0.2-0.2,0.2-0.4,0.4-0.6
	c-1.8,0.5-1.8,1.7-1.8,2.9c-1.1-0.4-1.6-0.3-2.3,0.6c-0.4-0.3-1-0.7,0.2-1c-0.2,0-0.5,0-1,0c-0.4,0-1,0-1.4,0c-1,0-1.9,0.1-1.9,0.6
	c-0.2-0.2-1-0.1-1.2,0c-1.6-0.1-1.7-0.3-3.3-0.3l0.4,0.2c-0.8,1.1-1.4,0-2.7,0l0.1-0.1c-1.4-0.6-1.7-0.6-2.1-0.6
	c-0.3,0-0.7,0.1-2-0.7l0,0.7c-0.6,1.4-2.3-1.5-4.1-1.4c0,0,0.1,0.1,0.2,0.3c0.1,0.1,0.2,0.3,0.2,0.3c-1.1,0.2-1.8-2.8-2.5-3.3
	c-0.1-0.2,0.4-0.1,0.6-0.1c-1.9-1.6-0.6,0.8-2.3,0.4c-0.1-0.6,0.9-1-0.1-1.6c-0.2-0.3-1.1-0.3-2.1-0.4c-1-0.1-2.1-0.5-2.5-1.3
	c0.1,0.5,0.2,1-0.6,0.9c-0.6-0.3-1.1-1-1.6-1.7c-0.5-0.7-1.1-1.2-1.9-1.1c-0.1-0.2,0-0.3,0-0.4c-0.2-0.1-0.5-0.2-0.8-0.4
	c-0.3-0.2-0.6-0.4-0.9-0.6c-0.6-0.4-1.3-0.7-1.7-0.6c0.5-1.1-0.7-2-1.8-2.9c-1.2-0.8-2.1-1.7-1.2-2.3c0,0-0.5-0.6-0.9-1.2
	c-0.2-0.3-0.5-0.6-0.6-0.8c-0.2-0.2-0.3-0.4-0.3-0.4l0.2-0.1c-0.8-1.7-1.7-2-2.5-2.3c-0.1-0.5,0.3-0.3,0.4-0.3
	c-0.4-1.4-0.7-2.1-1.1-2.7c-0.4-0.6-0.9-1.1-1.9-1.9l0.6-0.5c-0.3-0.2-0.5-1.3-0.7-2.6c-0.3-1.3-0.6-2.8-1.5-4c0.1,0,0.2,0,0.4,0.2
	c-1.9-2.7-0.3-7.8-3.2-8.2L13,75.8c0.5,2.7-1.2-0.1-1.3,1.1c-0.4-1,0-2.9,0.5-1.7l-0.1,0.2c1.4,0.1-0.4-3.4,0.6-3.5
	c-1.3-5.1-1.1-10.3-1.2-15.1l-1.1,0.6c0,0,0-0.4,0-0.9c0-0.4,0-0.9,0-0.9c0.3-0.4,0.9-0.6,0.8,0.6c0.6-0.6-0.5-2-0.7-2.1
	c0.5-2.3,1.2,1,1.3,0.2l0-1l-0.1,0.2c-0.4-0.8-0.9-0.9-0.7-2.3c0.3-0.9,0.7-0.4,0.8-0.8c0.1,0,0.1-0.1,0.1-0.5c0,0,0.1-0.5,0.2-1
	c0.1-0.5,0.2-1,0.2-1l-1,0.7c-0.3-1,0.4-2-0.7-1.1c0.8-0.6,1.3-2.5,1.9-4.3c0.5-1.8,1.2-3.5,1.5-3.7c0-1.4,0.6-2.5,1.6-3.7
	c-0.4,0.2-1.3-0.1-0.4-1.2c0.6,0.8,1.2,0.5,1.8,0c0.6-0.5,1.4-1.1,2.2-0.9c-0.6-0.1,0-0.7,0.6-1.3c0.6-0.6,1.2-1.1,0.2-1.3
	c1-0.4,0.5,0.6,1.4,0.6c0.9-1,2.3-1.4,3.7-1.6c1.5-0.3,3-0.2,4.7-0.5c0-0.3-0.6-0.6,0.1-1.1c0,0,0.5,0.3,1,0.6
	c0.5,0.3,0.9,0.6,0.9,0.6c0.7-0.2,0.5-1.5,1.8-0.7c-0.2-0.2-0.5-0.5,0-0.6c3.4,0.5,6.8,0.4,10.2,0.9c3.4,0.4,6.8,1.4,9.6,3.7
	c-0.7-0.8-0.1-0.6,0.6-0.4c-0.4-0.3,0.2-0.6,0.3-1c0,0,0.6,0.5,1.1,1c0.6,0.5,1.1,1,1.1,1c0.9-0.7,2.7,1.3,3.4,0.6L58.9,34
	c0.8-0.2,0.7-0.9,0.5-1.8c-0.2-0.8-0.6-1.8-0.2-2.4c-0.9,0.2-1.6-0.6-2.4-1.3c-0.4-0.4-0.9-0.8-1.4-1c-0.5-0.2-1.2-0.3-1.9-0.1
	c-0.4-0.4,0.6-0.3,0.4-0.7c-0.8,0.4-1.5,0.3-2.7-0.4l0.2-0.1c-0.9-0.3-1.7-0.4-2.5-0.7c-0.7-0.2-1.4-0.5-2.1-0.7
	c-0.7-0.2-1.4-0.5-2.2-0.7c-0.8-0.2-1.7-0.5-2.8-0.7l0.2,0.7c-0.9-0.2-1.1-0.4-1.5-0.6c-0.6,0.5,0.1,0.6,0.7,0.6
	c0.7,0.1,1.3,0.2,0.8,0.8c-0.5-0.8-2.2-0.9-3.7-1.1c-1.6-0.1-3.1-0.2-3.5-1c-1.4,0,0.4,0.8-1,0.8l-0.4-0.4l-0.3,0.6
	c-0.9-0.1-1.4-0.6-1.5-1c0.2,0,0.7-0.1,0.9-0.2c-1.3-0.5-3.5,0.4-3.9,0.3l1.4,0.1c-1,0.2-2,0.3-3.1,0.5c-1.1,0.2-2.3,0.4-3.4,0.7
	c-2.3,0.6-4.5,1.7-6,3.2c0,0,0.1,0,0.2,0.1c0.1,0,0.2,0.1,0.2,0.1c-1.1,1.1-1.6,1.4-2.2,1.7c-0.6,0.3-1.3,0.6-2.3,2l0-0.1
	c-0.2,0.7-0.7,1.5-1.2,2.2c0.2-0.9-1.6,0.9-1.2-0.3c-0.7,1.6-0.7,2-0.7,2.3c0,0.3,0.2,0.6,0.3,1.8l-0.7,0.2c0.2,0.9,0.3,1-0.1,2.5
	c0-1.4-1.1,0.7-1.2-1c-1.2,1.4-1.3,2.7-1.3,3.8c0,1.1-0.1,1.8-1.1,2.4c0.6,0.9,0.9,0.2,1.2-0.5c0.2-0.8,0.4-1.7,0.4-1.2
	C8.5,43,8.6,45.1,8.3,46c-0.1,0.5-0.7,0.8-1.2,1.4c-0.6,0.6-1.2,1.4-1.3,2.7c0-0.3-0.1-0.3,0-0.6c-0.5,1,0.3,2-0.4,3.2
	c0.9,0.7-0.1,1.6,1,1.8c0,0,0-0.6-0.1-1.2c0-0.6-0.1-1.2-0.1-1.2c0.2,1.4,1.5,2.7,0.9,4.9c-0.2-0.2-0.6-0.8-0.7-1.3
	C6,56.4,6.6,57,6.3,57.7c-1.2-0.2-0.3-2.9-1.1-4.4C4.6,54,6,56.1,4.7,55.3c0.8,0.5,0.7,1.2,0.7,1.9c-0.1,0.7-0.2,1.6,0.5,2.5
	l-0.7-0.1C5.3,60,5.6,60.5,5.7,61c0,0-0.2-0.2-0.5-0.4c-0.2-0.2-0.5-0.4-0.5-0.4c0.9,1.4-0.5,2.9,0.1,4.2c-0.3-2.9,0.8-0.7,1.1-2
	c1.3,3.4-1.5,2.3-0.7,6c-0.1-0.6,0.2-1.7,0.6-1c0,0.8-0.1,1.8-0.4,2.4c0.7,2.6,0.6-0.5,1.3,0.5c-0.7,1.1,0.6,1.2,1.1,2.3l-0.7,0.2
	c0.2,3.1,1.6,0.4,1.7,3.2c0,0-0.3-0.2-0.6-0.4C7.9,75.2,7.6,75,7.6,75s0.1,0.3,0.3,0.7c0.2,0.3,0.3,0.7,0.3,0.7l-0.9-0.1
	c1,1.4,1,1.8,1.2,3.3c0.4-0.5,1.3-0.2,1.7,1.1c-0.2,1-0.8-0.3-0.2,1.5c-0.6-0.3-1.2-0.6-0.8-1.5c-0.2,0-0.5-0.3-0.8-0.3
	c-0.2,1.1,0.6,2.4,0.8,3c-0.1-0.3-0.1-0.6-0.1-0.7l1.7,2.3c-0.1,0.5-0.4,0.2-0.7,0c0.2,0.5,0.7,0.8,1,1.5c-0.6,0-1.2,0.2-1.8-0.8
	c0,0,0.3,0.6,0.7,1.1c0.4,0.6,0.7,1.1,0.7,1.1c-0.2,0.2-0.2,1.5-0.5,1.2c0.1,0.7,0.7,1.5,1.2,2.3c0.6,0.8,1.2,1.7,1.4,2.6
	c0.1,0.1,0.3,0.2,0.6,0.5c0.3,0.9,0.5,1.7,0.7,2.6c0.3,0.9,0.8,1.7,1.6,2.5l-0.3,1.6c1.1,1.4,0.3-2.1,2.1,0.2
	c1.3,1.6-0.4,1.1-0.2,1.9c0.9,0.6,2.9,1.5,3.3,3.5c-0.5-0.4-0.7-0.9-1.1-1.3l0.4,1.5c-1.8-0.9-2.3-2.2-2.2-0.5
	c0.9-0.5,1.8,0.7,2.7,1.8c1,1.1,2,2.1,2.8,1.5l0.3,1c-0.2-0.2-0.3-0.2-0.5-0.4c0.3,1.1,0.8,1,1.4,1c0.6,0,1.3-0.1,2.1,0.8
	c0.5,0.7,0.8,1.3,0.2,1.1c0,0,0.1,0.1,0.3,0.1c0.2,0.1,0.4,0.2,0.6,0.3c0.4,0.2,0.9,0.4,0.9,0.4c0.3,0.3,0.2,0.5-0.1,0.3
	c0.2,0.1,0.6,0.4,1,0.7c0.3,0.2,0.6,0.4,0.8,0.5c0.2,0.2,0.4,0.2,0.4,0.2l-0.1,0c0.5,0,1.6,0,2,0.1c0.5,0.6-0.4,0-0.4,0.3l1.6,0.4
	c0.3,0.8-1.1,0.6-2-0.1c0.1,1.2,0.5,1.3,1,1.4c0.6,0.1,1.4,0.2,2.5,1.4l-1.5-0.4c0.3,1.4,1.6,1.6,2.9,3c-0.3-0.5-2.3-3.1-0.6-2.8
	c0.4,0.3,0.9,0.7,1.9,0.7c-0.1,0.3,0,0.6,0.3,0.7c0.3,0.2,0.8,0.3,1.4,0.4l-0.4,0.9c1.3,0.2,1.3-0.3,2.1-0.5c1.2,0.5,1.3,1.3,1.4,2
	c2,0.7-1.1-1.5,1.4-1c0.8,0.4,1.5,0.6,2.3,0.6c0.8,0.1,1.7,0.1,2.7,0c1.1,0.5-0.3,0.5,0.1,0.9l1.2-0.6c0.3,0.1,0.1,0.3,0.1,0.4
	c0.9-0.1,0.2-0.9,1.7-0.9c0.3-0.5,0.9,0,1.8,0.5c0.9,0.5,1.9,0.9,2.9,0.4c0.4,0.3-0.2,0.6-0.1,0.9c1.3-0.3,1.8-0.5,2.3-0.6
	c0.5-0.2,0.9-0.3,1.9-0.9l1.7,0.5c-0.7-0.3-0.6-0.7-0.2-1.1c0.4-0.4,1.1-0.9,1.7-1.3c-0.5-0.3-0.8-0.6-1.1-0.7c0,0,0.5-0.2,1-0.4
	c0.5-0.2,1-0.4,1-0.4c0.3,0.1,0.1,0.5-0.2,0.9c0.1-0.1,0.3-0.2,0.4-0.3c0.8,0.2,0.5,0.8,0,1.4c-0.3-0.1-0.6-0.3-0.9-0.5
	c-0.5,0.6-0.9,1.3-0.7,1.9c0.1-0.1,0.4-0.2,0.7-0.3c-0.1,0.2-0.2,0.3-0.1,0.4c0.1,0.1,0.3-0.1,0.6-0.4l0.7,1l0.1-0.4
	c0,0,0.8,0,1.5,0.1c0.4,0,0.8,0,1.1,0c0.3,0,0.5,0,0.5,0c0.9-0.8,1.7-1.6,2.6-2.5c0.4-0.5,0.9-0.9,1.5-1.3c0.5-0.5,1.1-0.9,1.8-1.3
	c-0.4,1,0.3,1.2,0.6,2.1c-0.6-0.3-1.2,0.1-1.8,0.5c-0.6,0.5-1.4,1-2.2,1.2c0.9-0.2,0.8,0.3,0.7,0.5c0,0,0.7-0.5,1.4-0.9
	c0.7-0.5,1.3-1,1.3-1c0.2,0.7,0.8,0.3,1.7,0.2c-0.6-0.5-0.1-1,0.5-1.5c0.3-0.2,0.7-0.4,1.1-0.7c0.4-0.2,0.7-0.5,0.9-0.7
	c0.3,0.4,0.3,1-1.1,1.6c1,0.1,1.3-0.6,1.6-1.2c0.3-0.7,0.5-1.3,1.4-1.3c-0.3,0.2-0.5,0.3-0.5,0.5c0.5-0.8,2.5-1.7,2.3-1l-0.3,0.2
	c1.1-0.6,2.6-1.7,3.8-2.9c1.2-1.1,1.9-2.3,1.6-2.9c0.1,0.1,0.8,1.3,0.8,1.6c0,0,0.1-1.5,0.2-3c0-0.7,0-1.5,0-2c0-0.6,0-0.9,0-0.9
	c0.5,1,3.4,1.7,2.4,3.6c0.5-0.3,1.2-0.7,1.7-1.9c-0.4,0.2-1.8-0.3-1.5-0.8c1.9-0.3,1.2-0.3,3.1-1c-0.6,0.3-1.4-1.3-0.8-2
	c0.1,0.3,1.3,1,1.3,1.4c0,0,0-0.7,0.1-1.4c0-0.7,0.1-1.4,0.1-1.4c-0.1,0.6,1,0.9,1.8,0.8c-0.4,0,1.2-1.6,1.5-2.2l-0.9,0.6
	c0.9-1,0.8-1.9,0.6-2.7c-0.1-0.9-0.3-1.7,0.4-2.8c0.1,0.4,1.4,1.8,2.3,0.8c-0.4-1-2.1-4.4-1.6-6.6l0.6-0.1c0,0,0.1-0.4,0.2-0.9
	c0.1-0.4,0.1-0.9,0.1-0.9c0.7,1.5,1.6,5.4,1.6,7.5c0.8-0.7,0.6,0.1,1.3-1.2c0.7-0.2,0.2,1,0,1.4c0,0,0.5-0.7,1-1.4
	c0.5-0.7,1-1.5,1-1.5c-0.5-0.2-0.4-0.9-0.3-1.6c0.1-0.7,0.2-1.4-0.2-1.5c0,0-0.2,1-0.4,1.9c-0.2,0.9-0.4,1.9-0.4,1.9
	c-0.9-0.4-1.4-3.2-0.2-5.3c0.6-0.4,1.4,1.2,1.7,1.3c-0.1-0.4,0.4-2.3,0.7-2.4l0,1.2c0.9-1.1-0.2-2.5,1.3-3.6c0.3-0.5,1.9-1,1.3-1.3
	c-1.4,0.4-4.7-0.9-5.2-1.7c0.1-0.1,2.1-2.2,2.8-2.6c1.2-0.5,1.5,2,2.5,1.6c-0.2-0.1-0.4-0.7-0.4-1c0.4-0.5,0.7,0.5,1-0.7
	c-0.9-0.6,1-2.4-0.6-0.9c0.2-1.2,0.6-1.2,1.1-2.5c-0.8,0.2-1.7-2-1.6-3.2c0.2,0.1,0.6,0,0.8-0.1c0.9-2.3,1.7-3.5,2.3-5.7
	c0.3-0.1,0.9-1.2,1.2-0.6c-0.1-0.4-0.3-0.8-0.2-1.5c1.2-1.2-0.3,1.6,1,0.8C112.8,66.1,113,64.3,112.8,63.2z M11.5,50.4l-0.2,0.3
	C11.1,50,11.3,50.2,11.5,50.4z M34.8,118.5c0.8-0.5,0.9,0,1.5,0.5C35.8,119,34.9,119,34.8,118.5z M66.3,122c0.4-0.1,0.8-0.2,1.3-0.1
	C67.4,122.2,66.9,122.2,66.3,122z M91.2,103.2c0,0.1,0.1,0.2,0.1,0.2C91.1,103.4,91,103.4,91.2,103.2z M109.2,54.8
	C109.2,54.8,109.2,54.9,109.2,54.8C108.9,55.6,109,55.4,109.2,54.8z M106.1,82.2l0.1-0.3l-1.4-0.5L106.1,82.2z M70.2,35.7l1.1-0.7
	l-1,0.4L70.2,35.7z M64.4,121.1c0.1,0.1,0.2,0.1,0.3,0.2c0.2-0.2,0.3-0.5,0.5-0.7C64.9,120.7,64.7,120.9,64.4,121.1z M58.4,35.9
	l-0.3-0.7l-0.4,0L58.4,35.9z M59.9,35.1c0,0-0.1,0.2-0.1,0.5c-0.1,0.2-0.2,0.5-0.2,0.5s0.9-0.5,0.9-0.5
	C60.4,35.5,59.9,35.4,59.9,35.1z M111.2,63.3c0.2,0.2,0.4-0.2,0.5-0.7c-0.1-0.4-0.1-0.9-0.4-0.7c0,0,0,0.4,0,0.7
	C111.2,62.9,111.2,63.3,111.2,63.3z M113.5,62.1c0.2,0.2,0.3,2.2,0.6,0.4C113.9,62.3,113.9,60.8,113.5,62.1z M110.9,45.1
	c0,0-0.1-0.3-0.2-0.6c-0.1-0.3-0.2-0.6-0.2-0.6l0,0.4c0,0,0.1,0.2,0.2,0.4C110.8,44.9,110.9,45.1,110.9,45.1z M73.7,35.1l-0.2-0.2
	l-0.5,0.9c1.6-0.2,3.6-0.9,4.8-0.7C76.9,34,75,35.3,73.7,35.1z M110.4,47.1c-0.2,0-0.3,0-0.4-0.1C110.1,47.1,110.2,47.2,110.4,47.1z
	 M95.4,37.2c0,0,0.1,0,0.1,0C95.4,37.1,95.4,37.1,95.4,37.2z M95.6,37.4C95.6,37.4,95.5,37.4,95.6,37.4
	C95.6,37.6,95.6,37.5,95.6,37.4z M113.8,57.9c-0.2,0.4-0.4,0.4-0.6,0.6l0.9,0.1c0,0-0.1-0.2-0.1-0.4
	C113.9,58.1,113.8,57.9,113.8,57.9z M83.1,36.3c-0.6-0.2-1.3-0.3-0.3-0.7C80.9,35.8,81.2,36.5,83.1,36.3z M78,33.9l-0.8-0.3L76.6,34
	C76.9,33.8,78.1,34.2,78,33.9z M95.5,37.2c0,0.1,0.1,0.1,0.1,0.2c0.2,0,0.5-0.1,0.7-0.2C96,37.1,95.7,37.1,95.5,37.2z M109.4,42.4
	L109,43l0.7,0.1L109.4,42.4z M110.9,46.8c-0.1-0.4-0.2-0.7-0.5-0.9C110.5,46.1,110.7,46.6,110.9,46.8z M111.4,48.4
	c0,0,0-0.3-0.1-0.6c0-0.3-0.1-0.6-0.1-0.6c-0.1,0.1-0.2-0.1-0.3-0.2C111.1,47.6,111.2,48.4,111.4,48.4z M28.5,114.4
	c-0.1-0.1-0.2-0.1-0.2-0.1C28.4,114.3,28.4,114.4,28.5,114.4z M91.2,110.3C91.2,110.3,91.2,110.3,91.2,110.3
	C91.2,110.3,91.2,110.3,91.2,110.3L91.2,110.3z M64.2,123.5c-0.1-0.1-0.2-0.2-0.2-0.4C63.8,123.2,63.8,123.4,64.2,123.5z
	 M109.2,81.1c-0.2,0.3-0.4,0.5-0.6,0.5C108.8,81.7,109,81.6,109.2,81.1z M62.9,123.5c0.3,0.1,0.7,0.2,1.2,0.3L62.9,123.5z
	 M30.4,116.1l0.3-0.2C30.4,115.9,30.2,115.9,30.4,116.1z M94.6,95.4c-0.9,0.4-2.1,0.6-1.5,0.9l0.7,0.2C94,96,94.3,95.7,94.6,95.4z
	 M25.3,113.2l0.2-1l-0.4,0.8L25.3,113.2z M109,73.3C109,73.3,109,73.3,109,73.3C109.2,73.2,109.2,73.3,109,73.3z M37.8,121.3
	c0,0,0.2,0.2,0.3,0.4c0.2,0.2,0.3,0.4,0.3,0.4l0.2-0.2C38.6,121.6,38.3,121.6,37.8,121.3z M15.8,103.1c0.3,0.5,0.8,0.9,1,1.4
	C16,103.6,16.6,102.4,15.8,103.1z M99.9,99.2c-0.3,1.1-0.8,1.4,0.3,1.6c1.3-1.3-0.5-0.8,0.7-1.9C100.9,98.3,100,99.7,99.9,99.2z
	 M99.9,99.2c0-0.2,0.1-0.4,0.1-0.6C100,98.9,99.9,99,99.9,99.2z M89.7,110.7c0.2,0.7,0.3,1.3,0.3,1.3c0.1-1.2,0.5-1.4,1.1-1.8
	l-1.8-0.9C89.4,109.4,89.5,110.1,89.7,110.7z M108.3,49.2c0,0.2-0.1,0.4,0,0.6C108.3,49.7,108.3,49.5,108.3,49.2z M32.4,109
	c-0.3-0.1-0.5-0.1-0.6,0C32.1,109.2,32.4,109.2,32.4,109z M108.2,49.9C108,49.5,108.1,49.8,108.2,49.9L108.2,49.9z M106.7,67.2
	c0.1-0.1,0.2-0.2,0.2-0.3c0-0.5,0.1-1,0.3-1.6C106.8,65.8,106.5,66.4,106.7,67.2z M108,49.3c0-0.2,0-0.3,0-0.4
	C107.9,48.9,107.8,49,108,49.3z M108.2,49.9c0,0.1,0.1,0.3,0.1,0.6c-0.1-0.2-0.1-0.5-0.1-0.7C108.2,49.8,108.2,49.9,108.2,49.9z
	 M12.9,94L12.9,94c-0.1-0.1-0.1-0.1-0.2-0.1L12.9,94z M12.7,93.9l-0.9-0.4C12.3,94.5,12.4,94,12.7,93.9z M53.9,32.7
	c0.1,0.1,0.4,0.2,0.9,0.3C54.5,32.9,54.2,32.8,53.9,32.7z M26.8,113.3l-0.6-0.3C26.5,113.2,26.7,113.3,26.8,113.3z M32.5,22.7
	c0.1,0,0.1,0,0.2,0.1C32.7,22.7,32.6,22.7,32.5,22.7z M6.4,55.8c0,0,0-0.1,0.1-0.1C6.2,55.1,6.2,55.3,6.4,55.8z M108,63.7
	c-0.4,0.6-0.6,1.1-0.8,1.5C107.8,64.6,108.5,64.1,108,63.7z M90.3,32.8c0.1,0.1,0.1,0.1,0.1,0.2C90.5,32.9,90.6,32.9,90.3,32.8z
	 M88.3,35.4c0.6-0.3,2-0.7,0.7-1.2C88.5,34.5,89.3,34.9,88.3,35.4z M96.1,35.5c0,0,0.5,0.1,0.9,0.1c0.5,0.1,0.9,0.1,0.9,0.1
	l-0.7-0.8l0,0.3C96.2,34.8,96.3,35.3,96.1,35.5z M89.2,36.7c0.4,0.1,1,0.4,1,0.7c0.1-0.2-0.2-0.6-0.3-0.9c0,0-0.2,0-0.3,0.1
	C89.4,36.6,89.2,36.7,89.2,36.7z M92,34.8c0,0.1,0,0.1,0,0.1C92.1,35,92.1,34.9,92,34.8z M89.9,36.5l1-0.3
	C90.1,36.1,89.9,36.2,89.9,36.5z M93,36.6L93,36.6c0.4,0.1,0.7,0.2,0.9,0.2C93.8,36.8,93.5,36.7,93,36.6z M92,34.8
	c-0.2-0.5-0.3-0.9-0.8-1.5c-0.2,0.1-0.3,0.3-0.9,0.2c-0.4-0.2,0-0.3,0-0.5c-0.3,0.1-1.1,0.3-0.2,0.7l0.2-0.1
	C91.1,33.9,91.8,34.5,92,34.8z M92.5,36.5c0,0,0.1,0,0.1,0C92.6,36.4,92.6,36.4,92.5,36.5z M93.3,37.3L93,36.6
	c-0.1,0-0.3-0.1-0.4-0.1C92.7,36.7,92.8,37,93.3,37.3z M92.7,35.5l-0.6,0.1l0.4,0.1L92.7,35.5z M91,36l1.2-0.3l-1.1-0.3
	C91.1,35.6,91.3,35.8,91,36z M84.4,36.7l-1,0.4c0.2,0.2,1.1,0.3,0.8,0.5C85.2,37.3,85,37.1,84.4,36.7z M104.8,40.8
	c0-0.5-1.3-2.1-0.3-1.9c1.3,0.7,0.8,0.9,1.1,1.6c0.1-1,2.1,0.6,2.6-0.3c0,0-0.3-0.2-0.6-0.4c-0.3-0.2-0.6-0.4-0.6-0.4
	c0.1-0.1,0.6,0,0.5-0.3c-0.5,0.3-1.8-0.2-2.3-1.4c-1.2-0.3-1.6,1.7-1.7,3C103.7,40.6,103.9,40.4,104.8,40.8z M80.8,37
	c0.1,0,0.1,0.1,0.2,0.1c0.2,0,0.4,0,0.7,0C81.4,36.7,82.5,36.7,80.8,37z M103.5,40.8L103.5,40.8l0,0.1L103.5,40.8z M84.3,36.2
	c0.1-0.3-0.1,0-0.6,0.2l1.1-0.4C84.6,35.9,84.6,35.6,84.3,36.2z M85.5,34.7l-1.8,0.9l2.1-0.9L85.5,34.7z M94.4,37.8L93.9,38
	l-0.7,0.4c0,0,0.3-0.1,0.6-0.3C94.1,37.9,94.4,37.8,94.4,37.8z M85.3,35.9l-0.5,0.2C84.9,36.2,85,36.2,85.3,35.9z M80.9,37.1
	C80.2,37.1,81.4,37.4,80.9,37.1L80.9,37.1z M97.9,39.3c0.3,0,0.6,0,0.9-0.1C98.6,39.2,98.3,39.3,97.9,39.3z M102.9,37.5
	c-0.1-0.1-0.1-0.2-0.1-0.3C102.9,37.3,102.9,37.4,102.9,37.5z M88,45.4L87.6,44l0.3,1.5L88,45.4z M103.6,37.7
	c-0.1,0.1-0.3,0.2-0.4,0.3C103.4,37.9,103.6,37.8,103.6,37.7z M73.2,8.4l0-0.8C72.7,8,73.1,8.1,73.2,8.4z M92.8,8.2
	C92.8,8.2,92.8,8.2,92.8,8.2C93.2,8,93,8.1,92.8,8.2z M96.7,41.7c0.1-0.2,0.3-0.4,0.1-0.6l-0.5,0.5C96.3,41.8,96.5,41.9,96.7,41.7z
	 M97.7,43.1c0,0.3-0.6,1.1,0.2,0.7C97.8,43.5,98.4,43.1,97.7,43.1z M106,34.2c0.3,0.2,1.4,0,1.3,0.7c-0.5,0.6-0.6,0.1-1.1,0
	c0.6,0.5-0.3,1.4,0.4,2.2l0.4-0.6c0.1,0.1,0,0.5,0.3,0.5c-0.3-0.5,0-1.3,0.8-1.1c0.2-0.7-1.1-2.1-2-2.8
	C106.2,33.5,106.3,33.7,106,34.2z M107.3,31.6c0.2,0,0.3,0.1,0.5,0.1C107.6,31.6,107.2,31.5,107.3,31.6z M106.1,33.2L106.1,33.2
	L106.1,33.2C106,33.2,106,33.2,106.1,33.2z M65.1,18l0-0.4C65.1,17.8,65.1,17.9,65.1,18z M79.9,49.5c0.1-0.1,0.2-0.1,0.2-0.2
	C80,49.3,79.9,49.4,79.9,49.5z M102.6,38.4l0.6-0.1c-0.1-0.1,0-0.2,0-0.3C102.9,38.2,102.5,38.2,102.6,38.4z M73.2,8.6
	C73.2,8.6,73.2,8.5,73.2,8.6c0-0.1,0-0.1,0-0.1L73.2,8.6z M79.4,50.6c0.9,0.3,0.1-0.9,1-0.6c0.2-0.4-0.7-0.3-0.5-0.6
	C79.4,49.9,79.1,49.7,79.4,50.6z M98.9,41.7l0.4,0.8l0.1-0.5C99.2,42,99.1,41.9,98.9,41.7z M105.1,35.7c0.1-0.1,0.2-0.2,0.3-0.2
	C105.3,35.2,105.2,35.6,105.1,35.7z M122.8,24.5l-0.5-0.1c1.1-0.6,0.6-2.5,1.4-3.7c-1.2,0.7-0.6-2.5-2.4-1.5
	c-0.1-0.4,0.4-0.3,0.5-0.6c-0.5,0.4-0.9,0.3-1.3-0.2l0.1-0.1c-1.6-0.7-2-1.6-3.6-2.9l-0.2,0.7c-0.3-0.3-0.3-0.5-0.4-0.8
	c-0.9,0.7,1,0.6,0.1,1.4c0.1-1.5-2.7-1.3-2.3-3c-0.6-0.3-0.2,0.8-0.8,0.5l0-0.5l-0.4,0.4c-0.4-0.3-0.3-0.8-0.2-1.2
	c0.1,0.1,0.3,0,0.4,0c-0.3-0.7-1.5-0.5-1.6-0.7l0.5,0.5c-1.8-0.4-3.6-1.8-5.6-1.6l0,0.4c-1.4,0.1-0.9-0.7-2.3-1l0.1-0.1
	c-0.4,0.2-0.8,0.2-1.2,0.1c0.5-0.3-0.4-0.9,0.2-1.2c-1.6,0.2-0.8,0.3-2.1,1.1l0-0.6c-0.5,0.4-0.6,0.6-1.3,0.5
	c0.7-0.3-0.2-0.9,0.6-1.3C99.4,7.8,98,9.9,97.8,8c-1.1,1.3,1.1,1.1,0.6,1.4c0.2,0.6-0.8,0.9-1.3,0.7C96.7,10,96.8,8,95.6,7.8
	c0.1,0,0.2-0.1,0.3,0c-0.4-0.5-1,0.3-1.5-0.4c-0.5,0.8-0.7-0.2-1,0.9l1.2-0.1c-0.7,0.2-1.5,1.4-2.4,0.6c0.1-0.2,0.5-0.5,0.7-0.6
	c-0.3-0.4-0.6,0.1-0.9-0.3c0.1-0.6,0.5-0.6,0.9-0.6c0.4,0.1,0.9,0.2,1.3-0.2c-0.2-0.6-1.5,0.6-0.9-0.6C92.5,8,92.1,6.2,91,7.3
	l0.1-0.7C91,6.7,90.7,7,90.5,6.9L91,6.1c-0.8,0.7-1.3-0.8-2-0.5c1.5,0.1,0.3,0.9,0.8,1.4C88,7.8,88.9,5.2,87,5.4
	c0.3,0.1,0.8,0.5,0.4,0.8c-0.4-0.2-0.9-0.4-1.1-0.8C85,5.5,86.6,6,86,6.5c-0.5-0.9-0.6,0.4-1.2,0.6l0-0.7c-1.6-0.3-0.3,1.5-1.7,1.1
	l0.5-1l-0.7,0.3l0.1-0.8c-0.7,0.7-1,0.5-1.8,0.4c0.3,0.5,0.1,1.3-0.5,1.4c-0.5-0.3,0.1-0.7-0.8-0.4c0.1-0.5,0.3-1.1,0.8-0.5
	c0-0.2,0.1-0.5,0.1-0.7c-0.6-0.4-1.3,0.1-1.7,0.2c0.1,0,0.3,0,0.4,0.1c0,0-0.1,0.1-0.2,0.2c-0.1,0.1-0.3,0.3-0.4,0.5
	c-0.3,0.3-0.6,0.7-0.6,0.7c-0.3-0.2-0.2-0.4-0.1-0.7c-0.3,0.2-0.4,0.5-0.8,0.7c-0.1-0.6-0.3-1.1,0.2-1.6l-1.2,1
	c-0.2-0.2-0.9-0.4-0.8-0.6c-0.4,0-0.8,0.5-1.2,0.9c-0.4,0.5-0.8,0.9-1.3,1c0,0.1,0,0.3-0.2,0.5c-0.9,0.4-2.1,0.3-2.6,1.7
	c0,0-0.3-0.1-0.6-0.2c-0.3-0.1-0.6-0.2-0.6-0.2c-0.6,0.8,1.6,0.4,0.6,1.7c-0.3,0.5-0.5,0.4-0.7,0.2c-0.2-0.2-0.4-0.5-0.7-0.5
	c0,0.8,0.2,2.2-1.1,2.4c0.1-0.4,0.4-0.5,0.5-0.8l-1,0.2c-0.1-1.3,0.6-1.7-0.5-1.6c0.7,0.7,0.2,1.3-0.2,1.9c-0.4,0.7-0.8,1.3,0.1,1.9
	L65.8,16c0.1-0.1,0-0.2,0.1-0.3c-0.7,0.2-0.5,0.5-0.2,0.9c0.3,0.4,0.6,0.9,0.2,1.3c-0.3,0.3-0.7,0.4-0.8,0.1l0,1
	c-0.2,0.2-0.4,0-0.3-0.2c0,0-0.1,0.2-0.2,0.5c-0.5,0-1.1,0.1-1.6,0.1c0.5-0.2,0.5-0.2-0.3-0.2c0.4-0.1,0.8-0.2,0.9-0.1
	c0-0.1,0.5-0.6-0.4-0.4c0.2-0.1,0.1-0.1-0.1-0.1c0-0.2,0.1-0.2,0-0.4L63,18.3c-1.1,0.1-0.3-0.1-0.4-0.2l0.1,0
	c0.8-0.4-0.4-0.1,0.5-0.5l-0.7,0.1c-1.5,0.2,0.9-0.4,0.2-0.5l-0.4,0.1c-0.5,0,2-0.6,2.2-0.7c0.1,0,0.2,0,0.3,0
	c0.8-0.4-0.9,0.1-1.2,0c0.5-0.1,1.3-0.2,1.3-0.3c0.4-0.1-1.7-0.1-0.8-0.5c-0.4,0.1-0.7,0.2-1,0.2c-0.2-0.1,1.4-0.6,0.1-0.5
	c0.1,0,0.2-0.1,0.3-0.1c-0.3,0-0.6-0.2-1.2-0.2c2.4-0.6-1.3-0.4,0.9-0.9L63.1,14l0.2,0c0.1-0.2-0.4-0.2-1-0.1
	c0.1-0.1,0.4-0.1,0.5-0.1c0.4-0.4,0.3-0.4-0.9-0.4l0.7-0.2c-0.4,0,1-0.7,0.1-0.8c0.1,0,0.2,0,0.3,0c-0.9-0.1,1.8-1.3-0.9-0.8l-0.7,0
	c-0.1,0.3-1.1,0.3-1.5,0.5c-0.2-0.1,0.7-0.5,0.9-0.4l-0.1,0.1c1.4-0.3,0.4-0.5,1.3-0.7c-0.2-0.5,0.4-1.3,0.3-1.8l-1,0.4l0-0.2
	c0.2-0.1,0.8-0.3,0.8-0.2c0.6-0.3-0.6-0.1-0.8,0c0.3-0.4,1.2-0.3,1.2-0.4l-0.1-0.1l-0.1,0.1c-0.4,0-0.9,0.2-0.9,0
	c0.2-0.2,0.6-0.3,0.6-0.3c0.1,0,0.1,0,0-0.1l0-0.3l-0.8,0.4c-0.4,0,0-0.2-0.9,0.2c1.4-0.6,0.2-1,0.6-1.2c-0.6,0.1-0.7-0.1-0.7-0.3
	c-0.2,0.1-1,0.4-1,0.3c1.9-0.6,0.7-0.6,2-1.2c-0.8,0.4-0.4-0.3-1.6,0.3C60,6.3,60.5,6.2,60.9,6c-0.8,0,0.2-0.8-0.2-1.1
	c-0.2,0.1-0.6,0.3-1,0.4l1.1-0.7c-0.1,0-1.4,0.5-0.6,0c-0.2,0.1-0.5,0.3-0.6,0.2c0.9-1.2-1.5-1,0.3-2.7c-0.4,0.3-0.5,0.3-0.5,0.2
	c-0.1,0.1-0.6,0.3-0.9,0.4l0.7-0.7c-0.9,0.4-0.2-0.3-1.1,0.1l0.2,0c-1,0.4-2.1,1.3-3.4,1.9c1.2-0.4-1.5,1.1,0.2,0.5
	c-0.2,0.2-0.4,0.2-0.7,0.3c0.6-0.2,0.7-0.2,0.5,0l-0.1,0c0.3,0.3-0.2,0.6-0.4,1.2l0.6-0.3c-0.1,0.1-0.2,0.2-0.4,0.3
	c1-0.3,0-0.2,1.1-0.6c-1.3,0.7,0.2,0.6-1.2,1.3c0,0.1,0.7-0.3,0.8-0.2l-0.4,0.2l0.5-0.2c-0.1,0.1-0.5,0.4-0.9,0.5c0,0-0.1,0-0.2,0
	c-0.4,0.3,0.3,0.2,0.1,0.3l0.2-0.2C55.3,7.4,54.9,8,55.9,8l0.3-0.1c0.7,0-0.3,0.3,0.1,0.5l-0.1,0c0.3-0.1,0.5,0,0.5,0
	c-0.4,0.1-0.7,0.4-1.1,0.4c0.7,0,0.5,0,1.8-0.3l-0.5,0.2c0.5-0.1,0.7-0.2,0.9-0.1c-0.5,0-0.8,0.4-1.4,0.4c-1,0.7,1.3,0-0.3,0.7
	c1.5-0.3,0.7-0.5,1-0.5c0.4-0.2,1.1-0.2,1-0.1c0,0.1-1.8,0.8-1.7,1c0,0-0.1,0-0.1,0c-0.3,0.2,0.6,0,0,0.3c0.9-0.2,0,0.2,1.1-0.2
	l-0.3-0.1c0.3,0,1.7-0.3,1.1,0.1c-0.2,0.1-0.5,0.1-0.7,0.1c-0.3,0.2,0.3,0-0.1,0.2c-1.1,0.3-0.3-0.2-1.2,0c-0.5,0.2,0.9,0-0.3,0.3
	c1.6-0.4-0.1,0.3,1.1,0.1l-0.7,0.2c0.1,0,0.4-0.1,0.4,0l-0.9,0.2c0.8-0.1-0.6,0.4-0.1,0.4c-0.1-0.2,0.8-0.3,1.3-0.6
	c1,0.1-1.7,0.7-1.3,1c-0.1,0,0.4-0.3,0.7-0.3c-0.1,0.1-0.4,0.3-0.7,0.4c0.2,0.2,0.7-0.2,1.1-0.3c-0.8,0.3,0.4,0,0.7,0.1l-0.7,0.2
	c-0.4,0.4,1.5-0.3,1,0.1l-1,0.2l0.3,0.1l-0.8,0.2c0.6,0,0.5,0.1,0.3,0.3c0.5-0.2,1.3-0.3,1.3-0.2c-0.4,0.2-0.7,0.1-0.5,0.3
	c-0.4,0.1-1,0.2-0.4-0.1c-0.2,0-0.4,0.1-0.7,0.1c-0.4,0.2,0,0.2,0,0.3c0,0,0-0.1,0.1-0.1l1,0c-0.3,0.1-0.5,0.1-0.7,0.2
	c0.1,0,0.4,0,0.5,0c-0.6,0.1-1.1,0.3-1.4,0.2l0.7,0.1c-0.2,0.1-0.6,0.3-0.9,0.3c-0.3,0.2,1.2,0,0.8,0.3c0.1,0,0.2,0,0.3,0
	c-0.1,0.2-0.7,0.5,0.1,0.5l-1,0.3c0.3,0.1,1.2-0.4,1.7-0.3c0.4,0.1-0.8,0.3-1.1,0.4c0.5,0,1.6-0.1,0.8,0.2c-0.2,0-0.1-0.1-0.1-0.1
	l-0.5,0.2c-1,0-0.7-0.1-1.4,0.2c2-0.4,0.3,0.4,2.3,0l-0.4,0.2c0,0-0.1,0-0.1,0c-0.9,0.3,1.4-0.2,1.2,0.1c-0.1,0.1-0.4,0.2-0.7,0.2
	l0.5,0.1c0,0.1-0.4,0.1-0.3,0.1l0.2,0.2l-0.1,0c0.3,0,0.8,0,1,0c-0.3,0.1-0.2,0-0.5,0.1l0.5,0c-0.5,0.1-1,0.1-1,0
	c-1.9,0.5,0.5,0-0.6,0.5l-0.3-0.1c-1.1,0.3-0.7,0.3-1.4,0.6c0.4-0.1,1.7-0.6,2.2-0.5c-0.1,0.1-0.2,0.1,0.2,0.1
	c-0.7,0.1-0.5,0.2-0.5,0.3l-0.9,0.1c0.3,0.1,0.8,0,1.2,0c-0.1,0.1-0.8,0.3-1.4,0.4c-0.1,0.2,1.1-0.3,1.3-0.1
	c-0.3,0.2,0.1,0.3,0.6,0.4c-0.3,0.2-0.6,0.1-0.8,0.1l0.8,0c0,0-0.2,0.1-0.4,0.1c0.3,0,0.9-0.1,1.2,0c1-0.1-1.5,0.5-0.3,0.5
	c-0.3,0.1-0.6,0.1-0.9,0.1c0.8,0.1,0.6,0.1,1.6,0.2L59,19.6c0.7-0.2,1.5-0.2,2.2-0.1c0.3-0.1,0.6-0.2,0.8-0.2l0.5,0.2
	c-0.2,0-0.5,0.1-0.9,0.1c0.1,0,0.2,0,0.2,0c-0.3,0.1-0.9,0.1-1.4,0.1c0.2,0,0.4-0.1,0.6-0.1c-0.6,0-1.2,0-1.8,0.1c0.1,0,0.2,0,0.3,0
	c-0.2,0-0.3,0-0.4,0c-0.1,0,0.1,0,0.4,0l-1,0.2l0.4,0l-0.6,0.3c1.1,0.1,2.6,0.1,3.1,0.4c-0.8,0-1.3,0.1-2.2,0.2
	c1-0.2-0.4-0.2-0.2-0.4c-0.1,0.1-0.5,0.1-0.7,0.1l0.9,0.2c-0.7,0.1-0.6,0.1-0.9,0.2c1.5-0.2,1,0.1,1.5,0.2c-0.5,0.1-1,0.1-0.9-0.1
	c-1.1,0.3,1.7,0,0.8,0.3c0,0,0.1-0.1-0.2,0c0.4,0,0.1,0.3-0.3,0.3l0,0c-0.2,0.2,0,0.7,1.3,0.6c-0.2,0-1.5,0.1-1.8,0.1l3.2,0.1
	c0,0-0.1,0.1-0.1,0.1c-1.2,0.1-2.6,0.2-3.1,0.1c-0.1,0.1-0.3,0.1,0.1,0.2c0.1,0,1.5-0.2,1.7-0.1c-1.2,0.2-0.6,0.1-1.7,0.4
	c0.2-0.1,1.9-0.1,1.9,0c-0.3,0-1.7,0.1-1.8,0.1l1.7,0.1c-0.3,0-1.4,0.1-1.9,0.1c0.3,0,0,0.2,0.1,0.2l0.4-0.1
	c-0.2,0.3,2.3,0.2,2.3,0.4c-0.3,0-2.1,0-2.3,0.1c0.4,0,1.3,0,2.3,0.1l-0.2,0.1l0.2,0.1c0.2,0,0.2-0.1,0.3-0.2c0.4,0,0.8,0.1,1.1,0.1
	c-0.1,0.1-0.1,0.2-0.1,0.3c-1.3-0.1-3-0.3-3.8-0.4c-0.4,0.1-0.6,0-0.5,0.2c-0.5,0.1-0.7-0.1-0.7-0.1l-0.3,0.3c1,0,1,0.2,1.8,0.2
	l-1-0.3c1,0,2.8,0.1,2.7,0.4c-0.4,0.1-1.8,0-2.1,0c0.3,0,0.7,0.2,0.4,0.2l-0.5-0.1c-0.4,0.1,1.3,0.2,0.4,0.3
	c-0.1,0.1-1.3,0.2-0.7,0.2c0.7-0.1,2.5-0.1,3.8-0.1c0.1,0.1,0.2,0.1,0.3,0.2l-1,0l0,0l1,0c0,0,0.1,0.1,0.1,0.1c-0.1,0-0.3,0-0.4,0.1
	c-0.9,0.1-2.1-0.2-2.9-0.1c0.3,0,0.6,0.1,0.7,0.1c-0.2,0.1-0.8,0-0.7,0.1c1,0-0.1,0.2,0.8,0.1c0.3,0.1-0.2,0.1-0.2,0.3
	c0.5,0,1.6,0.1,2.2,0.2c-0.3,0.1-0.7,0.1-1,0.1c-0.1,0.3,0,0.4,0.2,0.4C61.1,26.9,61,27,61,27c-0.2,0-0.5,0.1-1,0
	c0.2,0,0.5,0.1,0.5,0.2c-0.9,0.1-0.1-0.2-1.2-0.1c0.6,0,0.8,0.2,1.2,0.3c0.9,0,0.2-0.2-0.2-0.3c0.6,0,1.2,0.1,1.8,0.2
	c0,0.1-0.1,0.1-0.1,0.2c-0.2,0-0.4,0-0.3,0.1c0.1,0,0.2,0,0.2,0.1C62,27.8,62,28,62,28.2c-0.2-0.1-0.4-0.2-0.2-0.2
	c-0.7,0.1-0.1,0.6-0.8,0.8c0.3,0.1,0.5,0.2,0.8,0.2l-0.1-0.1c0.2,0,0.3,0,0.4,0c0.1,0.2,0.2,0.5,0.3,0.8c-0.4,0.5-0.6-0.2-0.9,0
	L62,30c-0.2-0.1-0.5-0.1-0.8-0.1l0.4,0.2c-0.2,0-0.4-0.1-0.6-0.1c0.6,0.1,1.1,0.3,0.5,0.3c0.1,0,0.3,0.1,0.6,0.1
	c0.3,0.3,0.9,0.1,1.1,0.8c0.5,0.1,0.2,0.4-0.2,0.8c-0.3,0-0.7-0.1-1-0.1c0.1,0,0.3,0.1,0.3,0.1c-0.2,0-0.3,0-0.5-0.1
	c0.2,0.1,0.4,0.2,0.8,0.1l-0.1,0c0.1,0,0.3,0,0.6-0.1c-0.4,0.4-0.8,1-0.2,1.4c-0.2,0.1-0.3,0.1-0.5,0c0.1,0,0.2-0.1,0-0.1l-0.3,0
	l0.1,0c-0.1,0-0.1,0-0.2,0c0.8,1.2,0.6,1.1,1.7,2c0,0-0.1,0.2-0.3,0.4c-0.1,0.2-0.3,0.5-0.3,0.5c0.6-0.7,1.5,0,2.3,0.5
	c0.3-0.2,0.6-0.4,0.7-0.6c0,0,0.1,0.2,0.3,0.4c0.2,0.2,0.3,0.4,0.3,0.4c-0.1,0.1-0.5,0.1-0.9,0c0.1,0.1,0.2,0.1,0.3,0.1
	c-0.3,0.4-0.8,0.3-1.4,0.2c0.2-0.2,0.3-0.3,0.5-0.5c-0.6-0.2-1.3-0.3-1.8-0.2c0.1,0.1,0.2,0.2,0.3,0.3c-0.2,0-0.3-0.1-0.4,0
	c-0.1,0.1,0.1,0.1,0.4,0.3l-1,0.4l0.4,0c0,0-0.1,0.4-0.2,0.8c-0.1,0.4-0.1,0.8-0.1,0.8c1.3,0.8,3.1,1.2,4.2,2.2
	c-0.9,0.1-1.1,0.6-1.9,1c0.3-0.5,0-0.7-0.3-1c-0.3-0.3-0.8-0.6-0.9-1.1c0.1,0.5-0.4,0.6-0.6,0.5c0,0,0.4,0.3,0.8,0.6
	c0.4,0.3,0.8,0.6,0.8,0.6c-0.7,0.3-0.3,0.6-0.4,1.2c1.1-1.1,1.5,0.5,2.3,0.7c-0.3,0.4-0.9,0.6-1.3-0.2c-0.2,0.7,0.4,0.7,0.9,0.6
	c0.5-0.1,1.1-0.2,1.1,0.4c-0.2-0.1-0.2-0.3-0.4-0.1c0.6,0,1.3,1,0.8,1.2l-0.2-0.1c0.5,0.5,1.4,1.1,2.2,1.4c0.9,0.2,1.7,0.2,2-0.4
	c0,0.2-0.7,1.4-0.8,1.6c0,0,0.2-0.2,0.6-0.5c0.3-0.3,0.8-0.7,1.2-1.1c0.8-0.9,1.5-1.8,1.5-1.8c-0.2,0.5-0.3,1.4-0.4,2.3
	c-0.1,0.8-0.4,1.6-1,1.8c0.3,0.2,0.6,0.5,1.3,0.2c-0.2-0.2-0.2-1.6,0.1-1.7c0.5,1.3,0.4,0.7,1.2,1.9c-0.3-0.3,0.3-1.9,0.7-1.8
	c-0.1,0.2-0.1,1.7-0.3,1.8c0,0,0.3-0.4,0.7-0.8c0.3-0.4,0.6-0.8,0.6-0.8c-0.3,0.3-0.1,1.4,0.1,1.9c-0.1-0.3,1,0.1,1.4-0.1l-0.5-0.4
	c1.3,0.2,1.2-2.4,2.4-2.4c-0.1,0.4-0.2,2.1,0.5,2.3c0.2-0.9,0.8-4.2,1.6-5l0.3,0.4l0.7-0.7c-0.2,1.3-1.1,4.2-1.9,5.4
	c0.5,0.3,0.2,0.6,0.9,0.4c0.3,0.4-0.3,0.7-0.5,0.8c0,0,0.4,0,0.9,0c0.4,0,0.9,0,0.9,0c-0.2-1,1.1-1.2,0.9-2c0,0-0.4,0.3-0.8,0.7
	c-0.4,0.3-0.8,0.7-0.8,0.7c-0.2-1,0.6-2.9,1.7-3c0.4,0.3,0.2,1.8,0.2,2.1c0.1-0.4,0.9-0.9,1.1-0.7l-0.4,0.6c0.7,0.2,0.7-1.5,1.7-0.8
	c0.3,0,1.1,1,1,0.4c-0.7-1-1.7-4.3-1.7-5.2c0.1,0.1,1.5,0.7,2,1.1c0.7,0.7,0,2.2,0.6,2.8c-0.1-0.3,0.1-0.7,0.1-0.8
	c0.3,0.1,0.1,0.8,0.7,0.5c-0.2-1,1.2-0.3,0-0.9c0.5-0.5,0.7,0,1.3-0.3c-0.4-0.5-0.1-2.3,0.3-2.8c0.1,0.3,0.3,0.5,0.4,0.6
	c1.1-0.3,1.9-0.1,2.9-0.5c0.2,0.2,0.8,0.3,0.7,0.7c0.1-0.2,0.1-0.6,0.4-0.7c0.9,0.5-0.7,0.4,0.2,1.2C96,44,96.7,43.4,97,42.9
	c-0.5-0.8-1.1,0.3-1.4,0.8c-0.5-1.2-0.2-2.7,0.6-3.6c0.7-0.6,0.7,0.6,0.7,0.4c0.6-0.2,0.8-0.6,0.9-1.1c0,0,0,0,0.1,0c0,0,0,0-0.1,0
	c0.1-0.6,0.1-1.1,0.7-1.2c0.2,0,0.3,0.1,0.5,0.1c-0.1-0.1-0.2-0.1-0.3-0.2c0.1,0,0.1,0,0.2,0c0.1,0.1,0.2,0.1,0.3,0.2
	c-0.1,0-0.2-0.1-0.2-0.1c0.2,0.1,0.3,0.3,0.5,0.4c0.3,0.5,0.3,1,0.5,1.3c-0.5,0.6-1.2,0-1.7,0.3l0.7,0.1c-0.1,0.3-0.5,0.7-0.8,0.6
	c0.7,0.4,2.3-0.8,3.7-1.1c0.2,0.3,0.3,0.6,0.4,1c0.7,0.1,0.9,0.1,1.1,0c0,0-0.4-0.3-0.8-0.6c-0.2-0.1-0.4-0.3-0.5-0.4
	c0.1,0,0.1,0,0.2,0c0.1-0.3,0.3-0.8,0-1l-0.3,0.3c-0.6-0.4,0.3-1.1-0.3-1.2c0.3-0.6,0.5-1.6,1.3-1.6l0,0.1c0,0,0,0,0,0l-0.1,0.3
	c0.2,0.1,0.4,0.2,0.6,0.2l0.1,0.1c-0.1-0.2-0.7-0.2-0.8,0.1c0.1-0.5,1.6,0.5,1.4-0.7l-0.8-0.3c0.3-0.7,0.4-1.8,1.1-1.9
	c-0.7-0.6-0.1,0.2-1-0.5c1,0.9-1.5,0.8-0.3,1.7c-1-0.8-1,0-2-0.7c0.2,0.3,0.5,0.4-0.1,0.5c0,0.1,0,0.2,0,0.3c0,0,0,0,0,0l0,0
	c0,0.1,0,0.1,0,0c0.2,0.1,0.3,0.1,0.5,0.3c0.1,0.6-0.5,1-0.8,1.4c-0.1,0-0.2,0-0.3,0c0-0.1,0-0.3-0.1-0.4l-0.1,0.4
	c-0.1,0-0.1,0.1-0.2,0.1c-0.4-0.4-1.1-0.5-0.6-1.1l-0.6,0.3c-0.5-0.1-1.1,0-1.3,0.4c-0.1,0-0.2,0.1-0.3,0.3c-0.4-0.2-0.7-0.2-1-0.1
	c0.3,0,0.6,0.1,0.9,0.2c-0.1,0.2-0.1,0.3-0.1,0l-0.8,0.8l-0.1-0.1c-1,0.4-1.6,1.9-3.2,1.3c-0.3,0.3-0.6,0.6-1.2,0.7l-0.3-0.5
	c-0.4,0.4-1.5-0.1-1.5,0.6c-1-1.3-2.2,0.4-3.1,0.3l0.2,0.7c-0.5,0.1-1,0.5-1.6,0.9l0.2,0.6c-0.5,0.7-1.6-0.1-2.5,0.2
	c0-0.3,0.3-0.2,0.4-0.1c-0.7-0.6-1.2-0.2-1.7,0.2c-0.5,0.4-1,0.9-1.6,0.4c-0.2,0.3-0.4,0.2-0.6,0.1c0,0,0,0,0.1,0c0,0-0.1,0-0.1,0
	c-0.1-0.1-0.2-0.2-0.4-0.3c0.1,0.2,0.2,0.3,0.3,0.3c-0.2,0-0.5,0.1-0.7,0.3l-0.2-0.7c0,0,0,0-0.1,0c-0.3-0.3-0.2,0.3,0,0.9
	c-0.1,0.1-0.3,0.3-0.4,0.4c-0.2-1.1-0.7,0.4-1-0.8c-0.2,0.6-1.3,0.4-1.6,1.6c0-0.2-0.1-0.3,0.1-0.2c-0.3-0.2-0.6-0.4-0.9,0l0-0.9
	c0,0-0.2,0.3-0.4,0.5c-0.2,0.3-0.5,0.5-0.5,0.5c-0.3-0.6-0.3-1,0.2-1.6c-1.1,0.8-0.8,0.2-1.9,1l0.2-0.5c-0.2-0.1-1,0.5-0.9-0.1
	c0-0.6-0.6-1-1.2-1.5c-0.6-0.5-1.2-1.3-1.1-2.1c-0.7,0.6-0.6,0.3-0.5,0c0.1-0.3,0.3-0.6-0.4-0.4c0.3-0.3,0.5-0.5,0.9-0.5
	c-0.3-0.2-0.3-0.5-0.3-0.8c0-0.3-0.1-0.4-0.7-0.5c0.4-0.2,0.6,0,0.8-0.1c-0.1,0-0.4-0.1-0.2-0.3c0.2-0.1,0.4,0,0.6,0.1
	c-0.2-0.7-1.5-0.5-2.6-0.4c0.5-0.6,0.3-0.7-0.5-1c0.4-0.2,0.7-0.5,0.9,0c0-0.2,0.1-0.6,0.1-1.1c0-0.4-0.1-0.8-0.6-0.8
	c0.2-0.1,0-0.4-0.1-0.5c0.1-0.7,0.1-0.8,0.1-1.5l-0.2,0.2c-0.3-0.1-0.4-0.2-0.5-0.2l0.1,0l-0.2,0c-0.1-0.1-0.1-0.2,0-0.4
	c0.2,0,0.4,0,0.6,0.1c0-0.1-0.2-0.2-0.5-0.2c0.1-0.1,0.1-0.3,0.1-0.4l0.1,0c1-1.3-0.3-0.6,0.8-1.8l-0.7,0c-1.5-0.4,1.1-1.1,0.7-1.9
	L67,27.7c-0.4-0.5,2.3-0.7,2.6-1.1c0.1-0.1,0.2,0.2,0.2,0.3c1.1-0.8-0.9-0.3-0.9-1.2c0.5,0,1.2,0.5,1.4,0c0.2-0.1-0.1-0.5-0.3-1
	c-0.2-0.5-0.3-1.1,0.3-1.2c-0.4,0-0.8,0-1-0.4c0-0.3,0.5-0.5,0.8-0.8c0.4-0.2,0.6-0.5,0.2-1c0.1,0,0.2,0,0.3,0
	c-0.1-0.5,0.1-1.5-0.3-2c1.2,0.5,1.2-0.2,1.3-0.9c0-0.7,0.2-1.3,1-0.6l0.7-1l0.1,0.2c0.3-0.3,0.4-0.5,0.5-0.7c0-0.3,0-0.6-0.1-0.9
	c0.2,0,0.3,0.2,0.3,0.3c1.2-0.4,1.2-0.5,1.4-2l0.5,0.6c0-0.2,0.5-0.3,1.1-0.3c0.6,0,1.2-0.1,1.6-0.7c0,0.1,0,0.2,0,0.3
	c0.5-0.6,1.4-0.4,2.1-0.2c0.7,0.2,1.2,0.1,1.3-1.3c0,0,0.2-0.2,0.4-0.4c0.2-0.2,0.4-0.4,0.4-0.4c-1.2-0.1,0-1.2-0.5-1.6
	c0.5-0.2,1.4,0.7,0.8,0.9l-0.1-0.1c-0.1,1.4,1.6,0.4,1.6,1.3c2.4-0.1,4.6,0.8,6.8,1.2L91.4,12c0,0,0.2,0,0.4,0.1
	c0.2,0,0.4,0.1,0.4,0.1c0.2,0.3,0.1,0.9-0.4,0.7c0.2,0.6,1-0.3,1.1-0.6c1,0.6-0.6,1.2-0.3,1.2l0.5,0l-0.1-0.1
	c0.4-0.4,0.6-0.8,1.2-0.6c0.4,0.3,0.1,0.7,0.2,0.8c0,0.1,0,0.1,0.2,0.1l0.9,0.3l-0.2-0.9c0.5-0.3,0.9,0.3,0.7-0.8
	c0.3,1.6,3.5,1.5,3.8,2.1c0.8-0.4,1.4-0.2,2.1,0.1c-0.1-0.2,0.1-1.2,0.7-0.8c-0.9,1.8,0.9,1.2,0.9,2.7c-0.1-1.1,1.8,0.4,1.6-1.1
	c0.5,0.4-0.2,0.7,0,1.3c1.5-0.2,2.5,1.6,4.1,2c0.1-0.2,0-0.7,0.5-0.9l0.3,1.5c0.3,0,0.9-1.2,1.1-0.2c0-0.2,0-0.6,0.3-0.6
	c1.2,1.3,2.8,1.7,4.3,2.4c1.5,0.7,3,1.5,3.8,3.3c-0.1-0.7,0.1-0.6,0.4-0.4c-0.1-0.2,0.3-0.6,0.5-0.9l0.7,1.5
	C121.6,23.8,122.2,25.2,122.8,24.5z M61.8,8.4l-0.2,0.1C61.4,8.5,61.6,8.5,61.8,8.4z M57.8,17.3c-0.2,0-0.6,0-0.2-0.1
	C58.4,17.1,58,17.2,57.8,17.3z M59.9,20c-0.2,0-0.1-0.1,0.1-0.1C60.1,19.9,60.1,19.9,59.9,20z M62,28.4c-0.1-0.1-0.1-0.1,0-0.2
	C62,28.3,62,28.4,62,28.4C62,28.4,62,28.4,62,28.4z M62.9,22.4L62.9,22.4L62.9,22.4C62.9,22.4,62.9,22.4,62.9,22.4z M64.7,19.5
	C64.6,19.6,64.6,19.6,64.7,19.5c-0.1,0-0.2,0-0.3,0C64.5,19.6,64.6,19.6,64.7,19.5z M63.4,21.7C63.4,21.7,63.5,21.7,63.4,21.7
	c0.1,0,0.1,0.1,0.1,0.1C63.3,21.8,63.1,21.7,63.4,21.7z M63.5,22.4l-0.1,0C63.4,22.4,63.4,22.4,63.5,22.4
	C63.5,22.4,63.5,22.4,63.5,22.4z M63.5,21.9C63.5,21.9,63.5,21.9,63.5,21.9c-0.1,0-0.2,0-0.3,0L63.5,21.9z M63.1,22.4
	c0.1,0,0.1,0,0.2,0c0,0,0,0-0.1,0.1L63.1,22.4z M63.3,22.8c0.2,0,0.2,0,0.3,0c0.1-0.1,0.3-0.2-0.1-0.2l0.2,0
	c0.1,0.1,0.2,0.2,0.1,0.3C63.7,22.8,63.5,22.8,63.3,22.8z M63.9,20.1c0.1,0,0.2,0,0.3-0.1l0.1,0.1c0,0-0.1-0.1-0.1-0.1
	c0.1,0,0.1,0,0.2,0c0,0.1-0.1,0.2-0.1,0.2l0,0c0,0,0.1,0.1,0.1,0.1C62.8,20.6,65.2,20,63.9,20.1z M64.6,21.1l0.2,0.9
	c-0.6,0.1-0.9-0.6-0.6-1.1c-0.1,0-0.2,0-0.2,0c0-0.2,0.1-0.4,0.5-0.5c0.2,0.3,0.5,0.8,0.6,1C64.7,21.6,64.9,21.1,64.6,21.1z
	 M64.1,38.5c-0.3-0.1-0.2-0.3,0-0.7C64.1,38,64.2,38.2,64.1,38.5z M98.6,37.2C98.6,37.2,98.6,37.2,98.6,37.2
	C98.1,37.2,98.3,37.2,98.6,37.2z M94.5,13.4l-0.1-0.2C94.8,13,94.6,13.2,94.5,13.4z M102.3,34.5c0.2-0.2,0.4-0.1,0.5,0
	c-0.1-0.1-0.3-0.3-0.2-0.4L102.3,34.5z M105.7,32.9l-0.2-0.6l0,1.1L105.7,32.9z M104.3,35.9c0.3,0.5,0.5,0.2,0.8-0.1c0,0,0,0-0.1,0
	C104.7,35,104.5,35.5,104.3,35.9z M68.1,10.5c-0.2,0.1-0.3,0.4-0.4,0.6C68.1,10.8,68.8,11.1,68.1,10.5z M104.5,33.1l-0.1,0.5
	l0.3,0.1L104.5,33.1z M105.5,37.5l-0.5-0.6l0.1,0.6L105.5,37.5z M121.5,26.1l0-0.6l-0.2,0.1L121.5,26.1z M64.5,17l0.9,0.2l-0.8-0.3
	L64.5,17z M122.7,25.2l-0.4,0.9l0.7-0.6C122.8,25.4,122.6,25.4,122.7,25.2z M113.3,13.2c0,0,0,0.1,0,0.1
	C113.4,13.2,113.4,13.2,113.3,13.2z M100.2,36.3c0.2,0.1-0.3-0.7-0.1-0.6C100,35,99.5,37.1,100.2,36.3z M65.1,36.8
	c-0.1,0-0.1,0.1-0.2,0.1c0.2,0.1,0.4,0.1,0.6,0.2C65.5,37,65.3,36.9,65.1,36.8z M79.5,42.9c-0.4-0.5-0.8-1.3-0.7-0.7l0.1,0.6
	C79.1,42.8,79.3,42.8,79.5,42.9z M108.5,33.6c0.5-0.4,0.1-0.7,0.3-1.1c-0.8,0.7,0.1-0.5-0.8-0.4c0.1-0.2,0.3-0.3,0.4-0.4
	c-0.2,0-0.4,0-0.6,0c0,0,0,0,0,0l0,0l0,0c0.1,0,0.1,0.1,0.1,0.1c0,0,0,0,0,0c0,0.1,0.1,0.2,0.1,0.2c-0.3,0-0.1-0.1-0.1-0.2l0-0.1
	l0,0l-0.7,0.8c0.2,0,0.5-0.2,0.8-0.5C108.2,32.7,107.8,33.2,108.5,33.6z M111.5,28.1c0.1,0.2,0.5,0.4,0.7,0.6l0.1-0.4
	C112,28.3,111.7,28.4,111.5,28.1z M112.1,28.8l-0.2,0.6C112.3,29.1,112.3,28.9,112.1,28.8z M72.6,49.1
	C72.6,49.1,72.6,49.1,72.6,49.1L72.6,49.1L72.6,49.1z M111,29.9c0.1,0,0.1-0.1,0.2-0.1c-0.1-0.1-0.4-0.3-0.7-0.3L111,29.9z
	 M111.1,29.8C111.2,29.8,111.2,29.8,111.1,29.8L111.1,29.8z M110.9,33.1l-0.2-0.3c0.5-0.2,0.2-0.5,0.1-0.7l-0.6,0.7L110.9,33.1z
	 M89.6,47.6c-0.2,0-0.3-0.1-0.4-0.3C89.2,47.5,89.3,47.6,89.6,47.6z M92,43.8L92,43.8C92,43.9,92,43.9,92,43.8z M111.8,30.2l0.5-0.2
	c-0.1-0.1-0.3-0.3-0.3-0.5L111.8,30.2z M111.7,30.6l0.1-0.3l-0.2,0.1L111.7,30.6z M62.8,36.3c-0.1,0.1-0.2,0.3-0.4,0.6L62.8,36.3z
	 M108.8,30c-0.1-0.5-0.6-0.5-0.6-0.8c-0.2,0.2-0.3,0.7-0.3,1.1C108,30,108.3,29.9,108.8,30z M107.8,31c0.1-0.2,0.1-0.4,0.1-0.6
	C107.8,30.5,107.8,30.7,107.8,31z M107.1,32.6c-0.3,0-0.5-0.1-1.1-0.3c-0.2,0.4-0.1,0.7,0,0.8l1-0.5l0,0.1L107.1,32.6z M111,29.9
	L111,29.9c-0.2,0.1-0.3,0.2-0.4,0.2C110.6,30.1,110.8,30,111,29.9z M109.8,28.6l0,0.9l0-0.3L109.8,28.6z M72.8,47.2
	c0,0-0.3,0.5-0.6,1.1c-0.3,0.5-0.7,1-0.7,1c0.7-0.6,0.9-0.5,1.2-0.2c0,0,0-0.5,0.1-0.9C72.7,47.6,72.8,47.2,72.8,47.2z M108.9,35.6
	c0-0.1,0.1-0.1,0.2-0.2l-0.2-0.3C108.6,35.3,108.5,35.6,108.9,35.6z M62.8,36.9c0.1-0.1,0.2-0.1,0.4-0.1
	C63,36.7,62.9,36.7,62.8,36.9z M114.2,31.8c-0.1,0-0.1-0.1-0.1-0.1C114.1,31.8,114.1,31.8,114.2,31.8z M114.8,28.8l0.2-1.2l-0.3,1.3
	L114.8,28.8z M118.2,27.6l0.5,0l0-0.5C118.7,27.4,118,27.4,118.2,27.6z M119.8,23.8c0,0.1,0.2,0.1,0.4,0.2
	C120.1,24,119.9,23.9,119.8,23.8z M120.1,25l0.1-0.6l-0.1-0.2L120.1,25z M92.8,39.3c0.1,0,0.1,0,0.2,0.1c0.2-0.2,0.4-0.4,0.6-0.4
	C93.3,38.8,92.9,38.7,92.8,39.3z M117.7,26.6c0.9,0.6,0.8-0.9,1.5-1l0.2,0.1l-0.4-0.8C118.6,25.5,118.3,26.5,117.7,26.6z M70.9,21.7
	c0-0.2-0.1-0.3-0.3-0.3C70.7,21.5,70.8,21.7,70.9,21.7z M108.9,31c0,0.4-0.3,0.5-0.5,0.7c0.3-0.1,0.6-0.2,0.9-0.3
	C109.2,31.1,109.1,30.8,108.9,31z M112.4,30.8c0,0-0.1-0.1-0.1-0.1C112.3,30.8,112.3,30.8,112.4,30.8z M101.1,35.6
	c-0.1,0-0.2,0-0.4,0C100.8,35.6,100.9,35.6,101.1,35.6z M100.9,35.4c0.1,0,0.2,0,0.2,0C101.1,35.2,101.1,35.2,100.9,35.4z
	 M100.4,35.7c0.1-0.1,0.2-0.1,0.4-0.1c-0.1,0-0.1,0-0.1-0.1C100.6,35.6,100.5,35.6,100.4,35.7z M114.2,26.4
	c-0.2-0.1-0.6,0.1-0.6-0.2c-0.2,0.4,0,0.6,0.4,0.7L114.2,26.4z M113.9,30.3c-0.1-0.5-0.5-0.5-0.5-1.2
	C113.3,29.6,113,30.3,113.9,30.3z M113.7,31l0,0.1c-0.4,0.1-1-0.1-1.3-0.3c0.4,0.3,0.7,0.6,1.2,0.9c0-0.1-0.1-0.4,0.2-0.5
	c0.3,0,0.2,0.3,0.3,0.4C114.1,31.5,114.2,31,113.7,31z M114.2,27.8l0.1-0.3C114.2,27.5,114.1,27.5,114.2,27.8z M114.5,27l-0.2,0.6
	c0.2,0.1,0.4,0.4,0.1-0.2C114.5,27.6,114.4,27.3,114.5,27z M115.2,25.8C115.4,25.5,114.8,25.6,115.2,25.8L115.2,25.8z M114.8,26.9
	c0.3,0,0.7-0.1,0.6,0.5C116,26.8,115.4,26.3,114.8,26.9z M115.3,25.8c-0.1,0-0.1,0-0.1,0c-0.1,0-0.1,0.1-0.3,0.2
	C115.2,26.2,114.8,26.5,115.3,25.8z M100.7,35.5C100.8,35.4,100.7,35.4,100.7,35.5L100.7,35.5z M94.5,39c-0.4-0.1-0.7-0.1-0.9-0.1
	C94.1,39.1,94.6,39.5,94.5,39z M109.4,31.4c0.3,0,0.3-0.2,0.3-0.5c-0.1,0.1-0.2,0.3-0.4,0.4C109.3,31.4,109.4,31.5,109.4,31.4z
	 M109.7,30.4c-0.1,0.1,0,0.3,0,0.5c0.1-0.1,0.2-0.2,0.2-0.4C109.9,30.5,109.8,30.5,109.7,30.4z M109.9,30.5L109.9,30.5
	C110,30.6,110,30.6,109.9,30.5z M109.7,30.4C109.8,30.4,109.8,30.4,109.7,30.4C109.6,30.3,109.7,30.4,109.7,30.4z M48.9,105.7
	l0.2-0.1C49.1,105.5,49.1,105.5,48.9,105.7z M49.2,105.6c-0.2,0.2,0,0,0.2-0.1l-0.4,0.1C49,105.8,48.7,106,49.2,105.6z M50.2,107.8
	c-0.3-0.1-1,0.1-1-0.2c-0.5,0.9,0.5,0.2,0.5,0.6l-0.1,0.2L50.2,107.8z M48.5,108.4l-0.1,0.3l0.3-0.2
	C48.6,108.6,48.7,108.1,48.5,108.4z M48,106.5L48,106.5l0.8-0.4L48,106.5z M44.1,103.8c0.2-0.2,0-0.1-0.1-0.1
	C44.1,103.7,44.1,103.8,44.1,103.8z M42.8,103.3c0.1-0.1,0.2-0.2,0.2-0.2C43,103.2,42.9,103.2,42.8,103.3z M43.9,103.3
	c-0.4,0.5-0.2,0.4,0,0.4c0,0,0,0,0,0C44.5,103.1,44.2,103.2,43.9,103.3z M52.3,108.1c0,0.1,0.4-0.4,0.4-0.5
	C52.5,107.6,52.2,108.3,52.3,108.1z M46.8,103c0,0.1-0.1,0.3-0.1,0.4C46.8,103.2,46.9,102.9,46.8,103z M45.8,103l0.3,0.4l-0.1,0
	l0.1,0c0-0.1,0.1-0.4,0.3-0.8C46.1,102.7,46,102.9,45.8,103z M46.7,103.4L46.7,103.4L46.7,103.4C46.7,103.5,46.6,103.6,46.7,103.4
	C46.6,103.5,46.6,103.5,46.7,103.4c-0.1,0.1-0.2,0.2-0.2,0.2C46.5,103.5,46.6,103.5,46.7,103.4L46.7,103.4L46.7,103.4l-0.6,0
	c0,0.1,0.1,0.2,0.3,0.3c-0.5,0.4-0.8,0.5-1.2,1.1c0.2,0.1,0.5-0.3,0.8-0.4c-0.4-0.2,0.3-0.2,0.3-0.7c0.1,0,0.2,0,0.3,0
	C46.7,103.7,46.7,103.5,46.7,103.4L46.7,103.4z M46.1,107.6c0-0.1,0.1-0.1,0.1-0.1C46.1,107.5,46,107.5,46.1,107.6z M43.1,104.3
	l-0.5,0.4l0,0.2L43.1,104.3z M45.8,103.1L45.8,103.1L45.8,103.1C45.8,103,45.8,103,45.8,103.1z M46.2,107.1c0.1,0,0.3-0.2,0.3-0.1
	c-0.1,0.2-0.2,0.2-0.3,0.4c0.2-0.1,0.5-0.2,0.5-0.6l-0.1,0c0-0.2,0.2-0.7,0.3-1C46.6,106.3,46.4,106.7,46.2,107.1z M45.7,105.5
	l-0.2,0.5l0.2-0.3c0.1,0.2,0.3-0.1,0.5-0.3L45.7,105.5z M45,103.5c-0.2,0.3-0.1,0.9-0.6,1.2c-0.4,0,0-0.3,0.1-0.7
	c-0.4,0.6-1,0.5-1.7,1.4l0.5-0.1c-0.1,0.1-0.4,0.3-0.4,0.4c0.4-0.4,1-0.6,0.7,0c0.5-0.2,1.6-1.7,2.2-2.6
	C45.6,103.3,45.4,103.4,45,103.5z M50.1,105.5C50.1,105.5,50.2,105.5,50.1,105.5c0-0.1,0-0.1-0.1-0.2
	C49.8,105.7,49.7,105.5,50.1,105.5z M49.4,105.7c-0.1,0.2,0,0.4-0.4,0.6C49.4,106.4,49.8,105.8,49.4,105.7z M47.2,105.4l0.2-0.1
	l0-0.1L47.2,105.4z M48.9,104c-0.2,0.2-0.3,0.5-0.5,0.7l0.3-0.1C48.8,104.5,48.7,104.3,48.9,104z M48,105.8
	c-0.3,0.2-0.8,0.3-0.9,0.9C47.5,106.4,47.6,106.1,48,105.8z M48.4,104.8l-0.4,0.2C48.1,105.1,48.3,104.9,48.4,104.8z M45.6,102.5
	L46,102l-0.3,0.2L45.6,102.5z M49.5,105.2l0.4-0.2c0.1-0.2,0-0.4,0.2-0.5C49.8,104.6,49.7,104.8,49.5,105.2z M50.5,108.2l-0.5,0.4
	l0.4-0.2L50.5,108.2z M50.2,105.4C50.3,105.5,50.3,105.1,50.2,105.4L50.2,105.4z M47.2,103.7c-0.3,0.1-0.4,0.1-0.5,0
	c0,0.2,0.1,0.3,0.2,0.4C47,104,47.3,103.8,47.2,103.7z M47.5,105.5c0.1-0.1,0.2-0.3,0.4-0.4l-0.5,0.2L47.5,105.5z M47.7,102.8
	c-0.1,0-0.3,0.1-0.5,0.2C47.4,103,47.5,102.9,47.7,102.8z M48.4,103.5l0.4-0.3l-0.7,0.5L48.4,103.5z M46.5,102.2l-0.8,0.6l0.3-0.1
	L46.5,102.2z M47.9,103.2c0.3-0.3,0.4-0.6,0.6-0.8c-0.2,0-0.5,0.2-0.8,0.3C47.9,102.7,48,102.8,47.9,103.2z M47.8,104.5
	C47.8,104.5,47.8,104.6,47.8,104.5c0.1-0.1,0.3-0.3,0.3-0.5L47.8,104.5z M47.8,104.5L47.8,104.5c0-0.1-0.1-0.1-0.1-0.2
	C47.7,104.4,47.7,104.5,47.8,104.5z M47.8,104.6L47.8,104.6C47.8,104.6,47.8,104.7,47.8,104.6z M23.2,71.8
	C23.2,71.8,23.3,71.8,23.2,71.8C23,71.7,23.1,71.7,23.2,71.8z M37.6,94.2c0.3-0.5,0.8-1.1,0.4-0.7L37.5,94
	C37.6,94,37.6,94.1,37.6,94.2z M44.5,101c0,0,0,0.1,0,0.1C44.6,101.1,44.7,101,44.5,101z M29.7,90.1c0,0-0.1,0.1-0.1,0.1
	c0.2-0.1,0.4-0.2,0.6-0.2C30,90,29.8,90.1,29.7,90.1z M42,99.3c0.1-0.3,0.1-0.4,0-0.5C41.9,99.1,41.6,99.6,42,99.3z M36.7,99.4
	L36.7,99.4l1.2-1L36.7,99.4z M28.6,59c0,0,0,0.1,0,0.2C28.6,59.2,28.6,59.1,28.6,59z M45.4,101.4l-0.3,0c0.1,0,0,0.2,0,0.3
	C45.2,101.6,45.3,101.4,45.4,101.4z M30.2,82.6c-0.1,0-0.3,0-0.4,0C29.9,82.7,30,82.7,30.2,82.6z M32.6,98.4c-0.4,0.1-0.3-0.1-1,0.6
	c-0.1,0.5,0.8-0.5,0.6,0C32.5,98.8,32.3,98.5,32.6,98.4z M41.7,98.5c0,0.1,0,0.1-0.1,0.2c0.1,0,0.3,0,0.3,0.1
	C42.1,98.5,42.2,98.3,41.7,98.5z M39.9,101.9c0.2-0.1,0.3-0.1,0.5-0.3l-0.3,0C39.8,101.7,39.7,101.9,39.9,101.9z M38.2,103.7
	c0.2-0.2,0.5-0.1,0.5-0.4C38.6,103.4,38,103.4,38.2,103.7z M39.5,103.6c0.1-0.2,0.2-0.3,0.3-0.5l-0.7,0.6L39.5,103.6z M46.9,104.2
	c-0.1,0.1-0.1,0.1-0.1,0.1c0,0.2,0.1,0.1,0.3,0C47,104.2,46.9,104.2,46.9,104.2z M21.7,62.9C21.7,62.9,21.7,62.9,21.7,62.9
	C21.6,62.9,21.6,62.9,21.7,62.9z M29.4,58l-0.8-0.2c0,0,0.1,0.1-0.1,0.1L29.4,58z M29.8,58.3l-0.5,0l0.2,0.1L29.8,58.3z M43.8,101.1
	c-0.1,0.2,0.6-0.5,0.4-0.3C44.8,100.3,43.3,101.1,43.8,101.1z M44.4,101c0,0-0.1,0-0.1-0.1C44.3,100.9,44.4,101,44.4,101
	C44.4,101,44.4,101,44.4,101z M43.7,102.8l-0.6,0.7c0.2-0.2,0.2-0.5,0-0.4c0.4-0.2-0.5,1.2,0.4,0.5l0.3-0.6c0.5-0.2,1.3-0.7,1.3-0.3
	c0.5-0.7-0.1,0,0.4-0.9c-0.8,1.1-0.5-0.5-1.2,0.7c0.7-1,0.1-0.6,0.6-1.6c-0.2,0.2-0.3,0.5-0.4,0.2c-0.1,0.1-0.2,0.1-0.2,0.2
	c0,0,0,0,0,0l0,0c0,0,0,0,0,0c0,0.1-0.1,0.3-0.2,0.4c-0.6,0.4-0.8,0.1-1.2,0.3c0-0.2,0.3-0.2,0.4-0.5l-0.5,0.3c0.4-0.5,0.5-1,1-1.1
	l-0.2-0.2c0.1-0.4,0.1-0.7-0.2-0.6c0-0.2-0.8,0.3-0.3,0l-0.6,0l0.1-0.1c-0.3-0.4-1.4,0.1-0.9-1.1c-0.2,0-0.5,0-0.5-0.3l0.4-0.4
	c-0.3,0,0-0.8-0.5-0.5c1-1.2-0.4-0.9-0.4-1.4l-0.6,0.5c-0.1-0.2-0.4-0.2-0.9-0.3l-0.5,0.5c-0.6,0.2-0.1-0.8-0.4-1.1
	c0.2-0.1,0.2,0,0.2,0.1c0.8-1.3-1.5,0-1-1.1c-0.3,0.1-0.2,0-0.2-0.2c0,0,0,0,0,0c0,0,0,0,0,0c0.1-0.1,0.1-0.2,0.2-0.3
	c-0.1,0.1-0.2,0.3-0.2,0.3c-0.1-0.1-0.2-0.1-0.4-0.1l0.5-0.5c0,0,0,0,0,0c0.1-0.3-0.3,0.1-0.7,0.5c-0.1,0-0.3,0.1-0.4,0.2
	c0.8-0.8-0.5,0,0.4-0.9c-0.5,0.3-0.7-0.2-1.7,0.5c0.1-0.1,0.2-0.2,0.2-0.1c0-0.2,0.1-0.4-0.3-0.3l0.7-0.6l-1.1,0.5
	c0.3-0.5,0.5-0.7,1.2-1c-1.1,0.3-0.5,0-1.6,0.3l0.5-0.3c-0.1-0.1-0.9,0.2-0.5-0.1c0.7-0.9-0.8-1.3-0.5-2.5c-1.3,1.1,0.4-0.7-0.7,0
	c0.3-0.3,0.4-0.5,0.8-0.6c-0.5-0.1,0.3-0.8-0.8-0.4c0.3-0.3,0.5-0.3,0.7-0.4c-0.1,0-0.4,0.1-0.2-0.1c0.2-0.2,0.3-0.1,0.5-0.2
	c-0.2-0.2-1.3,0.4-2.3,1c0.4-0.5,0.3-0.5-0.5-0.2c0.3-0.3,0.6-0.5,0.8-0.4c0-0.1,0.1-0.9-0.8-0.5c0.2-0.2,0-0.2-0.1-0.2
	c-0.1-0.3,0-0.4-0.2-0.6l-0.1,0.1c-1.1,0.4-0.3-0.1-0.6-0.3l0.1,0c0.5-0.8-0.5-0.1,0.2-0.9l-0.6,0.3c-1.4,0.6,0.6-0.8,0-0.9L29.3,86
	c-0.5,0,1.8-1.2,1.9-1.4c0.1-0.1,0.2,0,0.3,0c0.7-0.7-0.9,0.3-1.2,0c0.4-0.2,1.2-0.4,1.2-0.6c0.3-0.2-1.7-0.1-0.9-0.6
	c-0.3,0.2-0.7,0.4-1,0.3c-0.2-0.2,1.2-1,0-0.9c0.1-0.1,0.2-0.1,0.3-0.1c-0.3-0.1-0.7-0.4-1.3-0.4c2.3-0.8-1.5-0.8,0.7-1.4
	c0,0-0.3-0.5-0.2-0.5l0.2,0c0.1-0.4-0.5-0.4-1-0.4c0.1-0.1,0.4-0.1,0.5-0.1c0.3-0.6,0.2-0.6-1-0.9l0.7-0.2c-0.4-0.1,1-0.9,0.1-1.3
	c0.1,0,0.2,0,0.3,0c-0.9-0.5,1.8-1.7-0.8-1.5l-0.7-0.3c-0.1,0.5-1.2,0.1-1.6,0.3c-0.2-0.2,0.7-0.6,0.9-0.4l-0.1,0.1
	c1.4-0.1,0.4-0.7,1.4-0.8c-0.1-1,0.5-2,0.5-3l-1.1,0.2l0-0.3c0.2-0.1,0.8-0.2,0.8,0.1c0.6-0.1-0.5-0.4-0.8-0.4
	c0.4-0.5,1.3,0.1,1.3,0l-0.1-0.2l-0.1,0C28,71,27.5,71,27.5,70.7c0.2-0.2,0.7-0.1,0.7-0.2c0.1,0,0.1,0,0-0.1l0.1-0.4l-0.8,0.2
	c-0.4-0.2,0-0.4-0.9-0.2c1.5-0.3,0.5-1.6,1-1.8C26.9,68,27,67.7,27,67.4c-0.2,0.1-1.1,0.1-1-0.2c2,0.1,0.9-0.5,2.3-0.7
	c-1,0.2-0.2-0.8-1.6-0.5c0.2-0.2,0.7,0,1.2-0.1c-0.8-0.6,0.5-1.2,0.3-1.9c-0.3,0-0.7,0.1-1-0.1l1.3-0.3c-0.1-0.1-1.5-0.2-0.6-0.4
	c-0.2,0-0.6,0-0.6-0.1c1.4-1.2-0.8-2.8,1.7-3.9c-0.5,0.1-0.6,0-0.6-0.2c-0.1,0.1-0.6-0.1-1-0.1l1-0.4c-1-0.2,0-0.6-0.9-0.8l0.1,0.2
	c-1.1-0.4-2.5,0-3.9-0.3c1.2,0.5-1.9,0.5-0.2,1.2c-0.3,0.1-0.4-0.1-0.8-0.1c0.6,0.2,0.7,0.4,0.4,0.6l-0.1,0c0.1,0.8-0.6,1-1,1.8
	l0.7,0c-0.1,0.2-0.3,0.2-0.5,0.3c1,0.3,0.1-0.5,1.3-0.2c-1.4,0.1-0.1,1.2-1.8,1.3c0,0.3,0.8,0,0.8,0.3l-0.4,0l0.6,0.1
	c-0.1,0.2-0.7,0.2-1,0.2c0,0-0.1-0.1-0.1-0.2c-0.5,0.2,0.1,0.7,0,0.7l0.3-0.2c0.4,0.8-0.3,1.7,0.6,2.4l0.3,0c0.6,0.6-0.4,0.4-0.1,1
	l-0.1,0c0.3,0.1,0.5,0.3,0.4,0.5c-0.4-0.2-0.8,0.3-1.2,0.1c0.7,0.6,0.5,0.3,1.7,0.7l-0.5,0.1c0.5,0.1,0.8,0.2,0.9,0.4
	c-0.5-0.2-0.8,0.2-1.5-0.1c-1.2,0.6,1.2,0.9-0.5,1.3c1.5,0.3,0.8-0.6,1.2-0.4c0.5-0.1,1.1,0.2,1,0.4c0,0.2-1.9,0.4-1.9,0.9
	c0-0.1-0.1-0.1-0.1-0.1c-0.4,0.2,0.5,0.4-0.1,0.6c0.9,0.1,0,0.3,1.1,0.3l-0.3-0.5c0.3,0.3,1.7,0.4,1,0.9c-0.2,0-0.6-0.1-0.7-0.2
	c-0.3,0.1,0.2,0.2-0.1,0.4c-1.2,0-0.3-0.6-1.2-0.8c-0.5,0.2,0.9,0.5-0.4,0.4c1.6,0.1-0.2,0.5,1.1,0.8l-0.7,0c0.1,0,0.4,0.1,0.4,0.2
	l-0.9-0.1c0.8,0.2-0.6,0.6-0.2,0.9c-0.1-0.6,0.8-0.2,1.3-0.5c1,0.6-1.8,0.5-1.4,1.3c-0.1-0.1,0.4-0.4,0.7-0.3
	c-0.1,0.2-0.4,0.4-0.7,0.5c0.2,0.5,0.7-0.1,1.2,0c-0.8,0.3,0.4,0.2,0.7,0.4l-0.7,0.1c-0.4,0.6,1.5,0,1,0.6l-1-0.1l0.3,0.3l-0.8,0
	c0.6,0.2,0.5,0.4,0.3,0.7c0.5-0.1,1.3-0.1,1.3,0.1c-0.4,0.2-0.7,0-0.5,0.3c-0.5,0-1,0-0.4-0.3c-0.2,0-0.5,0-0.7,0
	c-0.5,0.3,0,0.5,0,0.6c0-0.1,0-0.1,0.1-0.2l1.1,0.4c-0.3,0.1-0.5,0.1-0.7,0c0.1,0.1,0.4,0.1,0.5,0.3c-0.6,0-1.2,0.1-1.5-0.1l0.7,0.4
	c-0.2,0.1-0.6,0.4-0.9,0.3c-0.3,0.4,1.2,0.5,0.9,1c0.1,0,0.2,0,0.3,0.1c-0.1,0.4-0.7,0.9,0.2,1.1l-1,0.5c0.3,0.3,1.2-0.6,1.7-0.1
	c0.4,0.3-0.8,0.3-1.1,0.5c0.5,0.1,1.7,0.2,0.9,0.7c-0.2-0.1-0.1-0.2-0.2-0.3l-0.5,0.4c-1-0.1-0.8-0.4-1.5,0c2-0.4,0.5,1.1,2.5,0.6
	L23,83.6c0-0.1-0.1,0-0.1-0.1c-0.8,0.6,1.5-0.1,1.3,0.4c-0.1,0.2-0.4,0.4-0.6,0.4l0.6,0.2c0,0.1-0.3,0.2-0.3,0.1l0.3,0.5l-0.1,0
	c0.3,0,0.9,0,1.1,0c-0.2,0.2-0.2,0-0.5,0.1l0.6,0.1c-0.4,0.3-1,0.2-1,0c-1.8,0.9,0.6,0.1-0.3,1.1l-0.3-0.2c-1,0.6-0.5,0.6-1.1,1.2
	c0.3-0.2,1.4-1.3,2-1.1c-0.1,0.1-0.1,0.3,0.3,0.3c-0.7,0.2-0.4,0.4-0.3,0.6l-0.9,0.3c0.3,0.1,0.8-0.1,1.2-0.1c0,0.3-0.7,0.6-1.2,0.9
	c0,0.5,1-0.7,1.3-0.3c-0.2,0.5,0.3,0.6,1,0.7c-0.2,0.4-0.5,0.2-0.8,0.4L26,89c0,0.1-0.2,0.1-0.3,0.2c0.3,0,0.9-0.4,1.2-0.2
	c1-0.4-1.1,1.2,0.1,1c-0.2,0.2-0.5,0.2-0.8,0.4c0.9,0.1,0.7,0.1,1.8,0l-0.4,0.6c0.5-0.6,1.4-0.7,2.1-0.8c0.2-0.2,0.5-0.5,0.6-0.6
	l0.6,0.1c-0.1,0.1-0.4,0.3-0.8,0.4c0.1,0,0.2,0,0.2-0.1c-0.2,0.3-0.7,0.5-1.2,0.7c0.1-0.1,0.3-0.3,0.4-0.4c-0.5,0.2-1.2,0.4-1.6,0.7
	c0.1,0,0.2,0,0.3,0c-0.1,0.1-0.3,0.1-0.4,0.2c-0.1,0.1,0.1,0,0.4-0.1l-0.8,0.6l0.4-0.2l-0.2,0.9c1.1-0.2,2.6-0.8,3.3-0.5
	c-0.7,0.3-1,0.7-1.8,1.2c0.7-0.7-0.6-0.2-0.7-0.6c0,0.2-0.4,0.4-0.5,0.5l1.1,0c-0.6,0.4-0.4,0.4-0.5,0.7c1.1-1,1.1-0.2,1.6-0.3
	c-0.4,0.3-0.8,0.6-0.9,0.3c-0.7,0.9,1.7-0.7,1.1,0.1c-0.1,0,0-0.1-0.2,0c0.5-0.1,0.4,0.4,0,0.6l-0.1-0.1c0.2,0.5,0.9,1.1,1.9,0.4
	c-0.1,0.1-1.2,0.9-1.4,1l3.8-2c-0.9,0.6-2.7,2.4-3.4,2.5c-0.1,0.2-0.1,0.4,0.3,0.4c0.1-0.2,1.1-1.1,1.2-1.1c-0.8,1-0.4,0.6-1,1.5
	c0.1-0.2,1.5-1.2,1.6-1c-0.2,0.1-1.3,1.1-1.5,1.1l1.6-0.7c-0.3,0.1-1.1,0.9-1.4,1.3c0.2-0.2,0.2,0.3,0.4,0.3l0.2-0.4
	c0.1,0.6,2.1-1.1,2.4-0.7c-0.3,0.2-1.7,1.3-1.7,1.6c0.7-0.5,3.5-2.3,4.2-2.4l-0.3,0.4l0.6-0.1c-1.1,0.7-3.5,2-4.5,2.5
	c-0.2,0.4-0.4,0.4-0.2,0.6c-0.3,0.4-0.6,0.3-0.7,0.3l0.2,0.7c0.7-0.7,1.1-0.3,1.7-0.8l-1.3,0.1c0.7-0.7,2.4-1.5,2.6-1.1
	c-0.2,0.4-1.4,1.1-1.6,1.3c0.3-0.2,0.8-0.1,0.6,0.1l-0.5,0.2c-0.1,0.4,1.3-0.6,0.8,0.3c0,0.1-0.7,1.1-0.3,0.7c0.7-0.9,3.3-3.3,4-3.8
	c0,0.1-0.4,1.1-0.8,1.6c-0.5,0.7-1.7,1.2-2.2,1.9c0.2-0.2,0.5-0.3,0.6-0.4c-0.1,0.2-0.6,0.5-0.4,0.6c0.8-0.7,0.3,0.4,0.7-0.5
	c0.4,0,0,0.3,0.2,0.5c0.4-0.5,1.8-1.3,2.2-1.4c-0.2,0.2-0.4,0.4-0.5,0.6c0.3,0.4,0.1,0.9,0.4,1.2c-0.1,0.2-0.2,0.6-0.6,0.8
	c0.2-0.1,0.5-0.3,0.6-0.2c-0.4,0.8-0.3-0.1-0.9,0.8c0.4-0.4,0.8-0.3,1.2-0.4c0.6-0.7-0.2-0.5-0.6-0.3c0.9-0.9,2.1-1.5,2.8-1.6
	c0.5,0-0.5,0.7-0.3,0.6c0.3,0.7,1.9-1.1,1.7-0.1c-0.4,0.7-1.1,1.1-1.5,1.6c-0.4,0,0-0.7-0.1-0.8l-0.1,0.4c-0.3,0.1-0.5,0.1-0.5-0.1
	c-0.4,0.6,0.7,1,0.7,1.8c0.3-0.1,0.6-0.2,0.7-0.5l-0.2,0c0.3-0.6,0.8-0.4,0.9-0.8C43,102.7,43.7,102.3,43.7,102.8z M43.2,100.6
	C43.2,100.6,43.2,100.6,43.2,100.6C43.3,100.3,43.2,100.5,43.2,100.6z M28,70.5l-0.2,0.1C27.6,70.4,27.8,70.5,28,70.5z M24.5,86.2
	c-0.2,0-0.7,0-0.3-0.2C25,85.8,24.7,86,24.5,86.2z M28.8,91.3c-0.2,0.1-0.2-0.1,0-0.3C28.9,91,28.9,91.1,28.8,91.3z M20.9,81.9
	c0,0.1,0.2,0.2,0.2,0.3C20.8,82,21.9,81.6,20.9,81.9z M38.2,100.5L38.2,100.5C38.1,100.6,38.1,100.6,38.2,100.5z M30.1,96.3
	c0.7-0.4,0.7-0.2,0.7,0l1.4-1.2L30.1,96.3z M42.6,103.8c0,0-0.1-0.1-0.2,0C42.5,103.8,42.5,103.9,42.6,103.8z M42.1,103.6l0,0.3
	c0.1-0.1,0.2-0.1,0.2-0.1C42.3,103.7,42.3,103.4,42.1,103.6z M35.3,101.1c-0.1,0.1-0.2,0.2-0.2,0.4
	C35.2,101.3,35.2,101.2,35.3,101.1z M30.7,96.3C30.7,96.3,30.7,96.3,30.7,96.3L30.7,96.3L30.7,96.3z M42.3,104.6l-0.1-0.2l0,0.3
	L42.3,104.6z M22.6,84.2L22.6,84.2l0.8-0.3L22.6,84.2z M47.5,104C47.5,104,47.5,104,47.5,104C47.6,103.9,47.5,103.9,47.5,104z
	 M47.5,104c-0.1,0-0.2,0.1-0.3,0.2c0.1,0,0.2,0,0.3-0.1C47.4,104.1,47.4,104.1,47.5,104z M43.8,106c0.1,0,0.1,0,0.1,0l0.2-0.3
	C44.1,105.7,43.8,105.8,43.8,106z M47.4,104.2L47.4,104.2C47.4,104.2,47.4,104.2,47.4,104.2z M24.1,85c-0.2,0-0.3,0-0.3,0.1L24.1,85
	z M23.4,87.2l-0.4,0.4l0.2-0.1C23.4,87.3,23.4,87.3,23.4,87.2z M21.8,79.7l-0.7,0C21.2,79.9,21.5,79.8,21.8,79.7z M22,79.7
	C22,79.7,22,79.7,22,79.7c0,0-0.1,0-0.1,0L22,79.7z M27.6,91.2c0.1-0.1,0.2-0.2,0.3-0.2C27.8,91,27.7,91.1,27.6,91.2z M58.8,1.8
	l0.8-0.5l-0.8,0.3C58.9,1.7,59,1.7,58.8,1.8z M56.2,14.5l-0.6,0.1C55.6,14.7,55.9,14.6,56.2,14.5z M57.7,16.8c-0.2,0-0.3,0-0.3,0
	L57.7,16.8z M59.2,25.6c-0.2,0-0.3,0-0.4,0.1C58.9,25.7,59.1,25.6,59.2,25.6z M60.2,1.3l-0.4,0.3l0.2,0L60.2,1.3z M56.3,14.5
	C56.4,14.5,56.3,14.5,56.3,14.5l-0.1,0L56.3,14.5z M58.2,22.4c0.8,0,0.7,0.1,0.5,0.1l1.8-0.2L58.2,22.4z M57.4,10.4
	C57.5,10.4,57.5,10.4,57.4,10.4C57.2,10.4,57.3,10.4,57.4,10.4z M59.4,2.3C59.4,2.3,59.5,2.4,59.4,2.3C59.5,2.4,59.5,2.3,59.4,2.3z
	 M54.4,7.1C54.5,7.1,54.5,7.1,54.4,7.1C54.4,7.1,54.4,7.1,54.4,7.1z M58.7,22.5C58.7,22.5,58.7,22.5,58.7,22.5L58.7,22.5L58.7,22.5z
	 M59.4,27.5c0.3,0,0.5,0.2,0.7,0.1C59.9,27.5,59.4,27.3,59.4,27.5z M60,27.9l0.4,0.1c0.2,0,0.3,0,0.6,0L60,27.9z M56.5,17.7
	l-0.5,0.2l0.2,0C56.4,17.8,56.4,17.8,56.5,17.7z M62.3,29.4c0,0,0-0.1-0.1-0.1C62.1,29.3,62.1,29.3,62.3,29.4z M61.4,30.6l0.3,0
	C61.8,30.5,61.5,30.4,61.4,30.6C61.4,30.5,61.4,30.5,61.4,30.6z M62.1,29.1l-0.2,0.1c0.1,0,0.2,0,0.2,0.1
	C62.2,29.2,62.3,29.1,62.1,29.1z M61.5,29.7l0.7,0l-0.6-0.1L61.5,29.7z M61.5,29.4L61.5,29.4l-0.2,0L61.5,29.4z M58.9,23.8
	c-0.4-0.1-0.2-0.1-1.2-0.1c-0.4,0.2,0.9,0,0.5,0.2C58.5,23.9,58.6,23.8,58.9,23.8z M63.2,31.5l-0.3-0.2l-0.6,0l0.3,0
	C62.5,31.4,62.9,31.5,63.2,31.5z M61.4,31.9c0.1,0,0.1,0,0.1,0C61.5,31.9,61.5,31.9,61.4,31.9z M61.2,19.5c-0.1,0-0.1,0-0.2,0
	c0.2,0,0.4,0,0.6,0C61.5,19.5,61.4,19.5,61.2,19.5z M56.4,16.5L56.4,16.5l0.8-0.2L56.4,16.5z M55.1,15.6c0,0.1,0.2,0.1,0.2,0.1
	C55.1,15.7,56.1,15.4,55.1,15.6z"/>
</svg>
