<?xml version="1.0" encoding="utf-8"?>
<!-- Generator: Adobe Illustrator 21.0.0, SVG Export Plug-In . SVG Version: 6.00 Build 0)  -->
<svg version="1.1" id="Слой_1" xmlns="http://www.w3.org/2000/svg" xmlns:xlink="http://www.w3.org/1999/xlink" x="0px" y="0px"
	 viewBox="0 0 125 125" style="enable-background:new 0 0 125 125;" xml:space="preserve">
<style type="text/css">
	.st0{fill:#3F8CCB;}
	.st1{fill:#034EA1;}
	.st2{fill:#F05A22;}
	.st3{fill:#3EBEB8;}
	.st4{fill:#F9A51A;}
</style>
<path class="st0" d="M35.5,48.2c-0.2-0.1-0.5-0.1-0.7-0.2C35,48.1,35.4,48.3,35.5,48.2z M17.6,48.3L17.6,48.3c-0.1,0-0.1,0-0.1,0.1
	L17.6,48.3z M98.5,21.5c-0.2-0.1-0.4-0.2-0.4-0.1C98.3,21.5,98.5,21.6,98.5,21.5z M77.4,60.6C77.4,60.5,77.4,60.5,77.4,60.6
	C77.4,60.5,77.4,60.5,77.4,60.6z M47.6,71.6c0,0.1,0.1,0.1,0.1,0.3C47.6,71.7,47.6,71.6,47.6,71.6c0-0.1,0-0.2,0-0.4
	C47.6,71.3,47.6,71.4,47.6,71.6C47.6,71.6,47.6,71.6,47.6,71.6z M17.5,48.4l-0.6,0.4C17.8,48.7,17.4,48.5,17.5,48.4z M50,19.9
	C49.9,19.9,49.9,19.9,50,19.9C49.5,20,49.6,20,50,19.9z M97.3,25.4l0.2-0.1C97.3,25.3,97.2,25.3,97.3,25.4z M79.7,21.4l-0.5,0.3
	C80,21.7,79.6,21.6,79.7,21.4z M37,47.9L36.5,48C36.7,47.9,36.9,47.9,37,47.9z M79.8,21.3L79.8,21.3C79.7,21.4,79.7,21.4,79.8,21.3
	L79.8,21.3z M95,23.1l-0.4-0.3C94.8,23,94.9,23.1,95,23.1z M21.5,30.5c0,0-0.1,0-0.1,0.1C21.3,30.7,21.4,30.6,21.5,30.5z M59.2,44.5
	c-0.1,0.1-1.2,0.3-0.2,0.4C59.1,44.7,60.6,44.4,59.2,44.5z M38.4,44.3c-0.3,0.1-0.4,0.1-0.4,0.2C38.3,44.4,38.5,44.3,38.4,44.3z
	 M118.2,43.2c-0.3-0.2-0.5-0.3-0.8-0.5l-0.1,0.1C117.6,43,117.9,43.1,118.2,43.2z M83.5,86.5L83.5,86.5
	C83.5,86.4,83.5,86.5,83.5,86.5z M81.9,88.5L81.5,89c0.3-0.2,0.8-0.6,0.9-0.5C82.4,88.4,82,88.5,81.9,88.5z M82.9,86.6l0.3-0.3
	l0-0.2L82.9,86.6z M82.9,86.6l-0.8,0.7c0.1,0,0.3,0,0.2,0.3L82.9,86.6z M80.5,87c0.1,0,0.1,0,0.1,0C80.7,86.9,80.7,86.9,80.5,87z
	 M81.2,86.6c-0.1,0.1-0.1,0.3-0.4,0.6c-0.4,0.2-0.1-0.1-0.2-0.2c-0.1,0.3-0.5,0.9,0.2,0.4l0.1-0.1c0.5-0.4,1.3-0.8,1.5-0.8
	C82.1,86.4,81.8,86.4,81.2,86.6z M80.3,88.3c-0.1,0.5,0.5,0.1,0.1,0.9C80.6,88.7,81.3,87.7,80.3,88.3z M82.4,86.4
	C82.5,86.4,82.5,86.4,82.4,86.4C82.5,86.4,82.5,86.4,82.4,86.4z M84.9,86.4l0.4-1l-0.2,0.4L84.9,86.4z M83.9,86.2L83.9,86.2
	c-0.1,0.1-0.2,0.2-0.3,0.3c0.1,0,0.3,0,0.8-0.3L83.9,86.2c0.3-0.3,0.5-0.5,0.6-0.6C84.4,85.7,84.2,85.8,83.9,86.2z M85.5,84.5
	L85.5,84.5C85.5,84.4,85.5,84.5,85.5,84.5z M85,83.7l1-1.3l-0.8,0.4l0.2,0.1C84.7,83.5,85,83.5,85,83.7z M84.2,50.1
	c0,0.1,0,0.3-0.2,0.3l0.5,0.1L84.2,50.1z M84.4,51.3l0.3-0.4l-0.3,0.2L84.4,51.3z M78.1,92.2c-0.1-0.2-0.1,0.1-0.3,0.5l0.6-0.8
	C78.3,91.8,78.1,91.7,78.1,92.2z M73.3,95.2l-0.6,0.4l-0.3,0.5C72.6,95.8,73.5,95.3,73.3,95.2z M69.1,100.6l0.5-1l-0.5,0.8
	L69.1,100.6z M71,98.2l-0.2,0.1l0,0.7c0.9-1.1,2-2.6,2.7-3.2C72.7,95.9,72,97.5,71,98.2z M3.6,48.3c-0.4,0-0.2,0.3-0.3,0.4
	C3.9,48.6,3.6,48.2,3.6,48.3z M3.5,43.4l-0.7,0.5l0.6-0.2L3.5,43.4z M6,41.5c0.1-0.1,0.3-0.4,0.5-0.6C6.4,41,6.2,41.2,6,41.5z
	 M85.7,84.4L85.7,84.4C85.9,84.4,85.8,84.4,85.7,84.4z M78.3,90.9l-0.8,1.5l1-1.7L78.3,90.9z M78.4,92.3l-0.5,0.8
	c0.2,0,0.8-0.6,0.7-0.3C79.1,92,78.9,92.1,78.4,92.3z M78.7,91.4l-0.3,0.4C78.5,91.8,78.6,91.7,78.7,91.4z M76.3,94.6
	C75.8,95.1,76.7,94.5,76.3,94.6L76.3,94.6z M77,92.9c-1.1,1.3-0.7,1.4,0.5,0.1C77,93.2,76.5,93.7,77,92.9z M76.2,94.7
	c0.1,0,0.1,0,0.1-0.1c0.1-0.1,0.2-0.2,0.5-0.5C76.5,94.2,77.1,93.5,76.2,94.7z M93.4,74.8c0.1,0.2,0.2-0.2,0.4-0.5
	C93.7,74.5,93.6,74.7,93.4,74.8z M96.5,73.3c0.1,0,0.3,0,0.1,0.2l0.6-0.8C96.9,73.1,96.7,73.2,96.5,73.3z M100.7,68.7
	c-0.3,0.2,0.1,0.4-0.1,0.5C100.6,69.7,101.8,67.2,100.7,68.7z M95.8,71.1l-0.9,0.7l0.3-0.2L95.8,71.1z M99.4,70.4
	c-0.1,0.1-0.2,0.2-0.3,0.3C99.1,70.8,99.2,70.7,99.4,70.4z M95.1,73.3c-0.3-0.2-0.6,0.4-1.1,0.9l0.1-0.1
	C94.2,74.6,94.6,74,95.1,73.3z M94.4,72.6L93.9,73l0.5,0.1L94.4,72.6z M99.8,70c0.1-0.1,0.2-0.2,0.4-0.5c-0.2,0.2-0.4,0.4-0.5,0.5
	C99.8,70,99.8,69.9,99.8,70z M93.8,76.5l0.3-0.5l-0.4,0.3L93.8,76.5z M99.8,70C99.5,70.3,99.8,70,99.8,70L99.8,70z M94.5,47.4
	L94.5,47.4L94.5,47.4L94.5,47.4z M111.5,57.7c-0.1,0.1-0.2,0.1-0.3,0.2c-0.3,0.4-0.6,0.7-1,1.1C110.8,58.7,111.3,58.3,111.5,57.7z
	 M99.2,70.4c0.2-0.1,0.3-0.2,0.5-0.4C99.6,70.1,99.5,70.2,99.2,70.4z M109.1,60c0.5-0.4,0.9-0.7,1.2-1C109.6,59.4,109,59.7,109.1,60
	z M64.2,47.7c-0.1,0-0.2-0.1-0.3-0.1c-0.4,0.1-0.8,0.1-1.3,0.1C63.1,47.8,63.7,47.9,64.2,47.7z M87.1,83c0.2-0.4,0.5-0.8,0.9-1.2
	c-0.5,0.4-0.9,0.8-1.3,1.2C86.7,83.1,86.7,83.4,87.1,83z M89.6,80.7c-0.2,0.1-0.4,0.3-0.7,0.4C89.1,81,89.6,80.8,89.6,80.7z
	 M86.8,84c-0.1,0.5,0.7-0.1,0.5,0.3c0.4-0.5,0.7-1.1,0.9-1.6C87.9,83.2,87.4,83.6,86.8,84z M85.7,84.4c0.1-0.2,0.2-0.4,0.3-0.6
	c-0.2,0.2-0.3,0.4-0.4,0.6C85.6,84.4,85.7,84.4,85.7,84.4z M86.6,83c-0.4,0.3-0.5,0.5-0.6,0.8c0.2-0.3,0.4-0.5,0.7-0.8
	C86.7,82.9,86.7,82.9,86.6,83z M88.8,81.1C88.7,81.2,88.7,81.2,88.8,81.1L88.8,81.1c0-0.1,0-0.2,0-0.2c0-0.5,0.6-1.3-0.1-1.1
	c-0.8,0.9-0.4,0.8-0.8,1.5c1.3-1.5-0.3,0.5,0.9-0.4c-0.2,0.3-0.5,0.6-0.7,0.8C88.3,81.5,88.6,81.3,88.8,81.1L88.8,81.1L88.8,81.1
	L88.8,81.1z M88.6,81.9c-0.2,0.2-0.3,0.5-0.4,0.8C88.3,82.5,88.5,82.2,88.6,81.9z M91.8,77.9L91.8,77.9L91.8,77.9L91.8,77.9z
	 M90.3,79.4l0.1-0.1l-0.3,0.3c0.4-0.3,0.7-0.5,1.3-0.8c0.4-0.6,0.4-0.8,0.4-0.9L90.3,79.4z M92.2,78.2l0.3-1l-0.4,0.6L92.2,78.2z
	 M88.8,80.9c0.5-0.4,0.1,0,0,0.2l0,0.1l0,0l1.3-1.6C89.8,79.8,89.4,80.2,88.8,80.9z M90.1,76.9c-0.5,0.9,0.7,1.1,1.7,0.9
	c-0.1-0.1-0.2-0.2,0.4-1.1c-0.4,0.1-1.9,1.4-1.5,0.6c0.8-1.1,0.9-0.7,1.4-1.1c-0.7,0.1,0.8-1.6,0.2-1.8l-0.7,1
	c-0.1,0,0.1-0.5-0.2-0.3C91.6,75.4,91,76.4,90.1,76.9z M88.9,78.2c-0.1,0.1-0.2,0.2-0.3,0.4l0.2,0.1C89.2,78.2,89.4,77.8,88.9,78.2z
	 M81.9,88.5l0.5-0.9C81.8,88.2,81.7,88.4,81.9,88.5z M42.7,58.4l-0.3-0.3c-0.1,0.1,0,0.5-0.1,0.4C42.5,58.8,42.6,58.7,42.7,58.4z
	 M41.7,52.8l0.5,0.3l-0.3-0.3L41.7,52.8z M42.1,57.1C42.1,57.1,42.1,57.1,42.1,57.1c0,0.1,0,0.2,0.1,0.4
	C42.3,57.3,42.5,57.7,42.1,57.1z M43.1,57.6c-0.3-0.7-0.7-0.5-0.3,0.2C42.8,57.6,42.7,57.3,43.1,57.6z M43.8,58.5L43.2,58l0.7,0.7
	L43.8,58.5z M42.1,57.1C42,56.9,42,57.4,42.1,57.1L42.1,57.1z M43.4,55.2L43.2,55c0.1,0.1,0.1,0.6,0.2,0.5L43.4,55.2z M43.2,58.6
	L43,58.5C43,58.5,43,58.6,43.2,58.6z M42.9,58.3c0.2,0,0-0.1-0.2-0.2l0.3,0.4C43.1,58.4,43.3,58.3,42.9,58.3z M42.3,54l0.1-0.1
	l-0.5-0.1c0.3,0.6,0.8,1.2,0.8,1.7C43.2,55.1,42.3,54.6,42.3,54z M44.5,61.4l0.1,0l-0.2-0.2L44.5,61.4z M43.9,59.7
	c0.3,0.2,0.6,0.6,0.7,0C44.4,59.6,44.3,60,43.9,59.7z M46.1,66.7l-0.3-0.9l0.1,0l-0.1-0.2c0,0.2,0,0.4-0.2,0.8
	C45.8,66.7,46,66.7,46.1,66.7z M44.6,62.8L44.6,62.8C44.6,62.8,44.6,62.8,44.6,62.8z M44.3,61.8L44.3,61.8c0.1,0.2,0.1,0.3,0.1,0.4
	C44.4,62.1,44.3,62,44.3,61.8z M44.2,61.6L44.2,61.6C44.2,61.6,44.2,61.6,44.2,61.6z M45.4,60.4c-0.1,0-0.2-0.1-0.3-0.3
	c0-0.2,0.1-0.1,0.3-0.1c-0.1-0.1-0.4-0.3-0.4,0.1l0.1,0c0,0.3-0.1,0.7-0.2,0.9C45.1,60.8,45.3,60.7,45.4,60.4z M44.6,63
	c0.1,0.1,0.2,0.1,0.3,0.2C44.8,63,44.7,62.9,44.6,63C44.6,62.9,44.6,62.9,44.6,63z M45.1,63.6C45.1,63.6,45.1,63.6,45.1,63.6
	c0-0.3-0.1-0.4-0.2-0.4C44.9,63.3,45,63.4,45.1,63.6z M45.5,59.9C45.5,60,45.5,60,45.5,59.9C45.5,60,45.5,60.1,45.5,59.9z M44.6,63
	L44.6,63C44.5,63,44.5,63,44.6,63z M52.1,75.3c0.1,0,0.6,0.6,0.4,0C52.3,75.3,52,74.8,52.1,75.3z M58.2,89.1c-0.2-0.1,0,0.5-0.2,0.4
	c0.3,0.3,0.3,0.5,0.7,0.2C58.6,89,58.1,89.7,58.2,89.1z M55.3,82.2c0,0.2,0,0.3-0.1,0.3C55.3,82.5,55.4,82.4,55.3,82.2z M57.9,89.5
	c0-0.1-0.1-0.1-0.2-0.1C57.8,89.5,57.9,89.5,57.9,89.5z M51.4,73.9c0,0.2-0.1,0.2-0.2,0.3l0.5-0.1L51.4,73.9z M44.3,61.8l-0.1-0.2
	c-0.1,0.1-0.2,0.2-0.2,0.4L44.3,61.8z M59.8,94.5L59.8,94.5L59.8,94.5L59.8,94.5z M64.8,98.9L64.8,98.9l0.5,0.1L64.8,98.9z
	 M65.7,94.2c-0.1,0.2-0.1,0.4-0.1,0.6C65.6,94.4,66.2,94.3,65.7,94.2z M51,75.8l0.3,0.5c0.1,0,0.2-0.2,0-0.3
	C51.2,75.9,51.1,75.7,51,75.8z M60.3,95.2c-0.5-0.2-0.5-0.3-0.5-0.6L59,95.1L60.3,95.2z M49.2,70.6l-0.1-0.5c-0.1,0-0.1,0-0.2-0.1
	C49,70.3,49.1,70.7,49.2,70.6z M45.2,65.3c0-0.1,0-0.3,0.1-0.4C45.2,65,45.1,65.3,45.2,65.3z M48.4,67.2l-0.4-0.4
	c0.1,0,0.3,0.1,0.3-0.1c-0.3,0.1-0.8-0.3-0.6-0.9c-0.4-0.3-1.2,0.3-1.6,0.8c0.1,0,0.3-0.1,0.6,0.3c0.1-0.2,0-1.1,0.4-0.8
	c0.4,0.5,0.1,0.5,0,0.9C47.4,66.6,48,67.5,48.4,67.2z M46.4,64.9c-0.2-0.5-0.4-0.3-0.7-0.5c0.4,0.8-0.3-0.2-0.2,0.5
	c-0.1-0.1-0.2-0.3-0.3-0.4c0,0.2,0,0.3,0,0.5l0,0l0.5,0.8c0-0.2-0.1-0.4-0.3-0.8C45.8,64.9,46.1,65.3,46.4,64.9z M45.3,64.8
	L45.3,64.8C45.3,64.8,45.3,64.8,45.3,64.8L45.3,64.8c0,0,0.1,0,0.1,0C45.5,65.1,45.4,64.9,45.3,64.8z M47.5,67.8
	c-0.2,0,0,0.1,0.1,0.3C47.5,68,47.5,67.9,47.5,67.8z M47.7,68.8c0.3-0.1,0.1-0.4-0.1-0.7l0,0.1C47.2,68.2,47.4,68.5,47.7,68.8z
	 M48.7,69.7c0,0.1,0.1,0.3,0.2,0.4C48.9,69.9,48.8,69.7,48.7,69.7z M48.9,68.8l0,0.2l0.1,0.3L48.9,68.8z M46.1,66.7L46.1,66.7
	L46.1,66.7L46.1,66.7z M48.9,48C48.5,48,48.9,48,48.9,48L48.9,48z M31.7,49.1c0.6-0.1,1.1-0.3,1.6-0.4c-0.5,0.1-1,0.1-1.7-0.1
	C31.2,48.8,32.1,48.9,31.7,49.1z M20.9,48.4l-0.8,0.2c0.2,0.1,0.9,0.1,0.6,0.2C21.6,48.8,21.4,48.6,20.9,48.4z M18.1,48.6
	C17.5,48.6,18.5,48.8,18.1,48.6L18.1,48.6z M18,48.5c0.1,0,0.1,0,0.1,0.1c0.1,0,0.3,0,0.6,0C18.5,48.4,19.4,48.4,18,48.5z
	 M67.4,91.1l-0.3-0.4C67,91.1,67.3,91,67.4,91.1z M17.9,58.9C18.3,59.1,18.2,59,17.9,58.9C17.9,58.8,17.9,58.9,17.9,58.9z M27.9,48
	L27.9,48C28,48,28,48,27.9,48z M28.7,48.3L28.4,48c-0.1,0-0.2,0-0.4,0C28.1,48.1,28.2,48.3,28.7,48.3z M26.6,49
	c-0.9,0.1-1.5-0.5-1.4,0.1C25.6,49.1,26.1,49,26.6,49z M46.7,69.6l0.2,0.4c-0.1-0.2,0-0.3,0-0.4C46.8,69.6,46.7,69.7,46.7,69.6z
	 M28.4,48L28.4,48c0.4,0,0.7,0,0.8,0C29,48,28.8,48,28.4,48z M26,48.7c0.1-0.1-0.3-0.3-0.3-0.5L25,48.3C25.3,48.4,25.9,48.5,26,48.7
	z M73.1,77.2L73.1,77.2C73,76.9,73,77,73.1,77.2z M47.5,71.3c0-0.1,0-0.1,0-0.2C47.4,71.1,47.3,71.2,47.5,71.3z M52.9,80
	C53,80,53,80,52.9,80L52.9,80z M83.4,53.1c0-0.1,0.1-0.2,0.1-0.4C83.5,52.8,83.5,52.9,83.4,53.1z M54.4,83.4l-0.1-0.1l-0.7,0.3
	L54.4,83.4z M48,72.1c0-0.2-0.4,0.1-0.3-0.1C47.3,72,48.5,72.8,48,72.1z M49.9,77.3c0,0.3,0,0.5,0.1,0.7
	C50,77.6,50.2,77.3,49.9,77.3z M50.2,78.8c0-0.1,0-0.1,0-0.2C50.1,78.4,50,78.3,50,78C49.9,78.3,49.9,78.6,50.2,78.8z M47.6,71.6
	C47.5,71.4,47.5,71.6,47.6,71.6L47.6,71.6z M48.5,48.7l0.1-0.1c-0.1-0.1-0.4-0.1-0.8-0.2L48.5,48.7z M45.2,64.4
	c0-0.3-0.1-0.6-0.2-0.8c-0.1,0-0.3,0-0.2,0.2C45.1,64,45.1,64.2,45.2,64.4z M46.1,62.8l-0.2,0.1c-0.1-0.4-0.3-0.3-0.4-0.3l0.4,0.7
	L46.1,62.8z M33.3,48.6c0.3-0.1,0.5-0.1,0.8-0.3C33.9,48.4,33.6,48.5,33.3,48.6z M44.4,64.4c0.1,0.1,0.2,0.2,0.4,0.3
	C44.7,64.6,44.6,64.5,44.4,64.4z M46.3,67.8L46,67.9l0.3,0.2L46.3,67.8z M46,66.9l-0.4,0l0.6,0.2L46,66.9z M43.7,60.6l-0.2-0.2
	c0,0.2,0,0.5-0.2,0.6C43.4,60.9,43.5,60.7,43.7,60.6z M43.8,62.5l-0.3-0.1l0.5,0.3L43.8,62.5z M44.4,60.8c-0.1,0-0.2,0.2-0.3,0.1
	l0.4,0.4L44.4,60.8z M44.4,64.4c-0.2-0.2-0.2-0.5-0.2-0.9c-0.3-0.1-0.3,0.4-0.5,0.2C43.9,64.1,44.2,64.2,44.4,64.4z M45.7,84.9
	c0,0,0-0.1-0.1-0.1C45.6,84.8,45.6,84.8,45.7,84.9z M40,50.1c0-0.2-0.3,0-0.4,0C39.8,50.4,40.1,50.1,40,50.1z M47.5,65.1
	c-0.1,0-0.1-0.1-0.1-0.2L47.2,65C47.3,65.3,47.5,65.4,47.5,65.1z M40.6,47.9l0.1-0.2C40.5,47.8,40.4,47.9,40.6,47.9z M36,48.4
	l-0.4-0.5l0.2,0.5L36,48.4z M38.8,48.3l0.9-0.5L39,48L38.8,48.3z M43.7,60.6l0.3,0.4C43.9,60.5,43.8,60.5,43.7,60.6z M48,47.9
	C48,48,48,48,48.4,48C48.2,48,48.1,47.9,48,47.9z M48.7,70.2c-0.1,0-0.1,0-0.2,0C48.5,70.2,48.6,70.2,48.7,70.2z M48.6,68.2
	l-0.3,0.2l0.4,0.1L48.6,68.2z M61.2,47.5c0.6,0.1,1,0.2,1.4,0.2C61.9,47.5,61.4,47.2,61.2,47.5z M106.6,60c-0.1,0.3-0.4,0.6-0.2,0.6
	l0.8-1C107.2,59.4,106.9,59.6,106.6,60z M114.8,42.2c0,0,0-0.3,0-0.3C114.8,41.9,114.8,42,114.8,42.2z M115.1,42.2
	c0.1,0,0.2,0,0.3,0C115.2,42.1,115.1,42.1,115.1,42.2z M105.5,59.8c0-0.2,1-1.6-0.1-0.4C105.4,59.6,104.6,60.6,105.5,59.8z
	 M89.6,43.8c-0.1,0-0.2,0.1-0.4,0.1C89.4,43.8,89.6,43.8,89.6,43.8z M115.2,48.7c0.2-0.1,0.4-0.2,0.5-0.3
	C115.6,48.5,115.4,48.5,115.2,48.7z M101.8,31.1l0.1,0c0-0.2-0.1-0.3-0.4-0.6L101.8,31.1z M89,43.4c-0.3,0.2,1,0.2,0.7,0.4
	c0.8-0.2,1.2-0.1,0.8-0.6C89.1,43,90.1,43.6,89,43.4z M105.5,48c1.5,0.2,0.3-0.5,1.7-0.3c0.3-0.2-1.1-0.2-0.7-0.4
	C105.5,47.6,105.1,47.5,105.5,48z M106.4,47.4c0.1,0,0.3-0.1,0.4-0.1C106.6,47.3,106.5,47.3,106.4,47.4z M103.1,62.5
	c0.3-0.2,0.4-0.1,0.6-0.2l-0.3-0.4L103.1,62.5z M98,69.2l-0.9,0.7c0.1,0,0,0.2-0.1,0.3C97.5,69.8,98.1,69.3,98,69.2z M97.3,70.4
	c0,0.1,0,0.2,0,0.2C97.3,70.5,97.3,70.5,97.3,70.4z M97,70.3c-0.3,0.3-0.5,0.5-0.6,0.7C96.5,70.8,96.8,70.5,97,70.3z M125,47
	c-0.6-0.6-1.2-1.1-1.7-1.4c0.5-0.5,0.9-1.1,1.4-1.6c-0.5,0-1,0.1-1.6,0.1l-0.6,0.4c-0.5,0.1-0.9,0.1-1.3,0.1
	c-0.4-0.2-0.7-0.3-1.1-0.4c-0.2-0.6-0.8-1.2-2-1.8c0.1-0.2-0.2-0.7,1,0.3c-0.5-0.5-3.4-3.8-3.8-3.5c-0.1-0.3-0.6-0.6-0.7-0.7
	c-0.9-1-1-1.1-1.9-1.9l0.2,0.3c-0.8,0.1-0.9-0.7-1.7-1.4l0.1,0c-1.4-2-0.9-0.6-2.2-2.6l-0.2,0.4c-0.7,0.4-1.2-1.8-2.4-2.6l0.2,0.5
	c-0.7-0.3-0.7-2.3-1.2-2.9c-0.1-0.2,0.3,0.1,0.5,0.2c-1.1-1.7-0.5,0.2-1.7-0.8c0-0.4,0.7-0.2,0.1-1c-0.2-0.5-2.7-1.4-3.3-2.7
	c0.1,0.4,0.1,0.7-0.5,0.3c-0.8-0.7-1.5-2.5-2.6-2.8c-0.1-0.1-0.1-0.2,0-0.2c-0.7-0.4-2-1.6-2.6-1.7c0.2-0.4-0.4-1.1-1-1.7
	c-0.6,0-1.2,0-1.7,0.1c-0.4,0.1-0.8,0.1-1.2,0.1c-0.7,0.1-1.2,0-1.2-0.4l-2.5,0l0.1-0.1c-1.6-0.1-2.1,0.2-2.7,0.5
	c-0.4-0.1-0.1-0.2-0.1-0.3c-2.3-0.3-2.5-0.2-4.5,0.4l-0.2-0.4c-0.5,0.2-3.3-0.6-5.6-0.2c0,0,0.1-0.1,0.3-0.2c-2.6,0.4-6.1-1.1-7,0.3
	l-1.7,0.3c2.2,0.1-0.3,0.6,0.6,0.9c-0.9,0.1-2.2-0.4-1.2-0.5l0.2,0.1c0.4-0.7-2.7-0.3-2.6-0.8c-4.3,0-8.4-0.4-12.4-0.5l0.5,0.6
	l-1.4,0c-0.4-0.1-0.5-0.5,0.5-0.4c-0.5-0.3-1.7,0.3-1.7,0.4c-1.9-0.3,0.8-0.7,0.2-0.7l-0.8,0l0.2,0.1c-0.7,0.2-0.7,0.5-1.9,0.4
	c-0.8-0.1-0.4-0.4-0.7-0.4c0,0-0.1-0.1-0.5,0l-1.8-0.1l0.7,0.5c-0.8,0.2-1.6,0-0.8,0.5c-1.2-0.8-6.6-0.3-7.3-0.6
	c-1.1,0.3-2.2,0.3-3.5,0.3c0.3,0.1,0.5,0.6-0.6,0.5c0.1-0.3,0-0.5-0.4-0.6c-0.4-0.1-1.1-0.1-1.8-0.2c-0.5,0.5-1.2,1-1.7,1.1
	c0.9-0.2-2.2,2.4-0.8,2c-0.7,0.6-0.3-0.2-1,0.1c-1.3,1.9-3.7,3.4-5.6,5.5c0.1,0.1,0.5-0.1,0.3,0.5l-1.5,0.6
	c-0.3,0.4,0.2,0.9-0.8,1.3c0.2,0,0.5-0.1,0.2,0.2c-4.3,3.5-7.5,8.5-12.3,11.6c0.7-0.4,0.4,0,0,0.4c0.3-0.2,0.2,0.2,0.4,0.3l-2,1.3
	c0.1,0.5-0.8,1.2-1.3,1.8c-1.4,0-2.3,0.2-1.7,0.6l-0.9,0.2l1.2,1c-0.4-0.4-0.6-0.6-0.6-0.7c0.4,0.1,0.5,0.1,0.6,0.2
	c0.7,0.4,1.5,1,1.4,0.7c0.8,0.7,1,1.6-0.1,0.6l0-0.1c-1.9-0.9,2.2,2.5,1.3,2.4c1.1,1.1,2.3,2.3,3.4,3.4l2.4,2.5
	c1.6,1.7,3.1,3.3,4.7,4.9l0-0.8l1.1,1.1c0.2,0.4,0.1,0.7-0.7-0.1c0.2,0.6,1.5,1.1,1.6,1c1.4,1.7-1.1-0.1-0.6,0.4l0.7,0.6l-0.1-0.2
	c0.7,0.3,0.9,0.2,1.8,1.2c0.5,0.7,0.1,0.6,0.3,0.8c0,0,0,0.1,0.3,0.4l1.4,1.4L20.8,65c0.8,0.4,1.3,1.3,1,0.3c0.4,1.5,5,5.3,5.4,6
	c1.1,0.6,1.9,1.4,3,2.5c-0.2-0.3,0-0.8,0.9,0.1c-1.1,0.4,1.3,2,1.5,3.2c-0.3-1,2.7,2.4,2.1,0.9c0.7,0.8-0.2,0.3,0.2,1.1
	c2.1,1.5,3.8,4.1,6.1,6.2c0.1-0.1-0.1-0.6,0.5-0.3l0.7,1.6c0.5,0.4,1-0.2,1.4,1c0-0.2-0.1-0.5,0.2-0.2c3.9,4.8,9.3,8.4,12.9,13.6
	c-0.4-0.8,0-0.4,0.5,0c-0.3-0.3,0.2-0.2,0.3-0.4l1.5,2.2c0.2,0,0.5,0.2,0.8,0.4c-0.1,0.2-0.1,0.5-0.4,0.3c0.6,1,0.4,2.2,1.1,2.4
	c-0.1,0.4-0.3,0.1-0.3,0.4c0.1,0.1,0.3,0.2,0.2,0.5c0,0.3-0.2,0-0.3-0.1c0.5,1.4,0.9,0.5,1.3-0.4c0,1,0.2,1.3,0.5,0.9
	c0,0.5,0,1.3-0.3,0.7c0.1,0.4,0.8,3.1,0.9,2c0,0.4,0.2,0.6,0.2,0.6c0.3,0.9,0.3,1.1,0.6,1.8l-0.1-0.5c0.1-1.2,0.2-0.1,0.4,0.5
	c0-0.1,0-0.1,0.1-0.2l0,0.2c0.5-0.2,0.2-1.2,0.7-1.3l-0.1-0.9c-0.1-1.1,0-1.1,0.2-1c0.2,0.1,0.4,0,0.5-0.7l-0.2-0.1
	c0-0.9,0.9,0.8,1.2,0.3c0.1,0,0,0.4,0,0.7c0.8-0.8-0.2-1,0.1-2.2c0.2,0.2,0.3,1.2,0.6,0.5c0.1-0.1,0.2-0.9,0.3-1.8
	c0.1-0.8,0.2-1.6,0.5-1.9c-0.2,0.1-0.5,0.1-0.5-0.4c0.1-0.4,0.4-0.7,0.7-1.2c0.3-0.4,0.4-0.6,0.2-1c0.1-0.1,0.1-0.1,0.2,0
	c0-0.4,0.1-1.3-0.1-1.7c1.4,0,0.2-2.6,1.3-2.2l0.3-1.2l0.1,0.1c0.3-0.7,0.1-1.1-0.1-1.4c0.1-0.1,0.2,0,0.3,0c0.6-1,0.6-1.2,0.3-2.3
	l0.4,0c-0.1-0.3,1.1-1.4,1-2.6c0,0,0.1,0.1,0.1,0.2c0-1.3,2-2.6,0.7-3.4l-0.1-0.9c-0.4,1-0.5-0.3-0.9,0c0.1-0.4,0.7-0.9,0.7-0.4
	l-0.1,0.1c0.6,0.4,0.7-1.2,1.1-1c0.6-2.1,1.6-3.9,2.3-5.8l-0.6,0l0.2-0.7c0.2-0.1,0.5-0.1,0.3,0.4c0.4-0.2,0-0.9-0.1-0.9
	c0.5-0.9,0.5,0.6,0.6,0.3l0.1-0.4L76,77.2c-0.1-0.4-0.4-0.5-0.1-1.1c0.2-0.3,0.4-0.1,0.5-0.2c0,0,0.1,0,0.1-0.2l0.3-0.8l-0.5,0.2
	c-0.1-0.4,0.3-0.8-0.3-0.5c0.9-0.3,1.3-3,1.6-3.3c-0.2-0.6,0-1.1,0.3-1.8c-0.1,0.1-0.7,0.1-0.4-0.5c0.9,0.5,0.8-0.9,1.6-1.1
	c-0.6,0.2,0.4-1.6-0.5-1.2c0.2-0.4,0.4,0.1,0.7-0.2c0-1.2,1-2.3,1.3-3.7c-0.1-0.1-0.4,0.1-0.5-0.3l0.9-0.5c0-0.3-0.7-0.5-0.1-0.8
	c-0.1,0-0.3,0.1-0.3-0.1c1.5-2.4,1.2-5.6,3.2-7.9c-0.4,0.3-0.3,0-0.2-0.2c-0.1,0.2-0.3-0.1-0.5-0.1l0.8-1c-0.4-0.4,0.4-1.2-0.1-1.5
	l0,0.4c-0.4-0.7-1.5,0.3-2.2,0c0.5,0.7-1.4,1.1-0.8,2.3c-0.2,0.1-0.2-0.2-0.4-0.2c0.2,0.3,0.2,0.6-0.1,1.1l-0.1-0.1
	c-0.4,1.4-0.9,1.9-1.6,3.4h0.4c-0.2,0.3-0.3,0.4-0.4,0.5c0.4,0.6,0.3-0.9,0.8-0.4c-0.9,0.2-0.8,2.4-1.7,2.4c-0.2,0.5,0.5,0,0.3,0.5
	l-0.3,0.1l0.3,0.2c-0.2,0.3-0.5,0.4-0.7,0.4c0-0.1,0-0.2,0-0.3c-0.4,0.4-0.3,1.3-0.4,1.4l0.3-0.5c-0.2,1.5-1.1,3.1-1.1,4.6l0.2-0.1
	c0,1.1-0.4,0.8-0.7,2l0-0.1c0.1,0.3,0.1,0.6,0,0.9c-0.1-0.3-0.6,0.4-0.6,0c0,1.2,0.1,0.6,0.5,1.6l-0.3,0.1c0.2,0.3,0.3,0.4,0.2,1
	c-0.1-0.5-0.5,0.2-0.7-0.4c-1,1,0.1,2-1,2.2c0.6,0.8,0.8-0.9,0.8-0.5c0.3-0.2,0.4,0.6,0.2,1c-0.1,0.4-1.2,0.3-1.5,1.3
	c0-0.1,0-0.1,0-0.2c-0.3,0.3,0,0.8-0.4,1.1c0.4,0.4-0.2,0.6,0.4,0.8l0.1-0.9c0,0.5,0.5,1.2-0.1,1.9c-0.1-0.1-0.2-0.4-0.2-0.6
	c-0.3,0.2,0,0.5-0.3,0.7c-0.6-0.3,0.2-1.1-0.1-1.8c-0.3,0.2,0.1,1.1-0.4,0.7c0.7,0.6-0.4,0.9,0,1.8l-0.3-0.2c0,0.1,0.1,0.4,0.1,0.6
	l-0.4-0.5c0.2,0.6-0.7,0.9-0.6,1.5c0.3-1.1,0.5-0.1,0.9-0.5c0.1,1.5-1.2,0.5-1.5,2c0-0.2,0.5-0.7,0.5-0.3c-0.2,0.3-0.4,0.6-0.7,0.7
	c-0.2,1,0.4,0,0.5,0.4c-0.5,0.2,0,0.5,0,1l-0.4-0.1c-0.6,1,0.7,0.5,0.1,1.4L70.2,84l0,0.6l-0.4-0.2c0.1,0.7,0,0.8-0.3,1.3
	c0.3,0,0.6,0.3,0.5,0.8c-0.3,0.3-0.3-0.3-0.5,0.4c-0.2-0.2-0.4-0.5,0-0.7c-0.1-0.1-0.2-0.2-0.3-0.3c-0.4,0.3-0.3,0.9-0.4,1.1
	c0-0.1,0.1-0.2,0.2-0.2l0.2,1.2c-0.2,0.1-0.3,0-0.3-0.2c0,0.2,0.1,0.4,0,0.7c-0.3-0.2-0.6-0.2-0.6-0.7l0,1.1c-0.1,0-0.5,0.4-0.6,0.2
	c-0.3,0.5,0.2,1.5-0.3,2.1c0,0.1,0.1,0.1,0.1,0.3c-0.3,0.6-0.8,1.1-0.7,2l-0.7,0.3c-0.1,0.6,0.9-0.4,0.7,0.7
	c-0.1,0.8-0.5,0.1-0.8,0.3c0.2,0.4,0.5,1.2-0.1,1.8c0-0.3,0.1-0.4,0.1-0.6l-0.4,0.4c-0.3-0.8,0-1.1-0.5-0.8c1,0.4-0.5,2,0.5,2.4
	l-0.3,0.3c0-0.1,0-0.1,0-0.2c-0.7,0.5,0.6,0.7,0.2,1.5c-0.2,0.3-0.4,0.4-0.4,0.2l0,0.7c-0.1,0.2-0.2,0.1-0.2-0.1
	c0,0-0.2,0.7-0.2,0.8l0,0c0,0,0,0,0,0c0.1,0.1,0.3,0.4,0.4,0.6c-0.2,0.1-0.1-0.1-0.2-0.2l0.1,0.5c-0.3-0.1-0.4-0.5-0.3-0.7
	c-1-0.5,0.1,0.4-0.5,0.3l0-0.3c-0.5-0.5-0.3-0.2-0.6-0.7c0.1,0.4,0.7,0.9,0.8,1.4c-0.1,0-0.1,0,0,0.4c-0.2-0.5-0.2-0.3-0.2-0.1
	l-0.3-0.8c0.1,0.4,0.2,0.8,0.3,1.3c-0.1,0.1-0.3-0.6-0.4-1.3c-0.1,0,0.3,1.1,0.2,1.6c-0.1-0.2-0.1,0.4-0.2,1.6
	c-0.1-0.3,0-0.9-0.1-1.2l0,1.3c0,0,0-0.4,0-0.5c0,0.6,0.1,1.5,0,2.2l0,0c0,0.8-0.1,0-0.1-0.8c-0.1-0.8-0.1-1.4-0.2-0.8
	c0-0.4,0.1-0.7,0.1-1.3c-0.2,0.6-0.2,0.4-0.5,1.2l0-1c0,1-0.3,1.5-0.7,1.6c0,0.5,0,0.9,0,1.1c0,0-0.4-0.4-0.5-0.5
	c0-0.2,0.1-0.4,0.3-0.6l-0.1,0c0-0.6,0.2-0.8,0.4-1.1c0,0.2,0,0.5-0.1,0.8c0.2-0.3,0.4-0.8,0.5-1.3c0,0.1-0.1,0.1-0.1,0.1
	c0.1-0.1,0.1-0.2,0.1-0.3c0-0.1,0,0-0.1,0.2l0.2-1l-0.1,0.3c0,0,0-1,0-1c-0.4,0.3-0.9,0.5-1.5,0c0-0.2,0-0.4,0.2-0.5
	c-0.1,0-0.2-0.1-0.3-0.1c0.2-0.1,0.4-0.2,0.7-0.3c-0.4,0.4,0.4,0.5,0.4,0.8c0-0.2,0.2-0.4,0.2-0.4c0,0-0.6-0.2-0.6-0.3
	c0.3-0.2,0.2-0.2,0.3-0.5c-0.7,0.5-0.8-0.6-1.2-1c0.2-0.1,0.5-0.1,0.7,0.5c0.3-0.8-1.1-0.5-0.9-1.2c0.1,0.1,0,0.2,0.2,0.2
	c-0.3-0.2-0.4-1-0.2-0.9l0.1,0.1c-0.2-0.9-1-2.7-1.6-2.6c0.1,0,0.8-0.2,0.9-0.2L57.6,95c0.6-0.1,1.7-1.1,2.3-0.4
	c0-0.2,0-0.5-0.4-0.9c0,0.2-0.7,0.6-0.8,0.5c0.4-0.8,0.2-0.5,0.5-1.3c0,0.3-1,0.3-1.1,0c0.1,0,0.8-0.3,1-0.2L57.9,92
	c0.2,0.2,0.7-0.2,0.9-0.5c-0.1,0.1-0.3-0.7-0.4-0.9L58.3,91c-0.2-1-1.5-0.5-1.8-1.5c0.2,0.1,1.2-0.1,1.1-0.6c-0.5-0.1-2.4-0.2-3-0.9
	l0.2-0.2l-0.5-0.5c0.8,0.2,2.5,0.8,3.3,1.2c0.1-0.4,0.2-0.2,0-0.7c0.2-0.3,0.4,0.2,0.5,0.3l-0.3-1.3c-0.5,0.2-0.8-0.8-1.2-0.6l1,1.2
	c-0.5,0.2-1.7-0.3-1.9-1.2c0.1-0.3,0.9-0.2,1.1-0.2c-0.2-0.1-0.6-0.7-0.5-0.8l0.4,0.3c0-0.6-0.9-0.6-0.7-1.3c0-0.2,0.4-0.8,0.1-0.8
	c-0.4,0.5-2.2,1.2-2.7,1.2c0-0.1,0.2-1.3,0.4-1.6c0.3-0.5,1.2,0.1,1.5-0.3c-0.1,0-0.4-0.1-0.5-0.1c0-0.3,0.5-0.1,0.2-0.5
	c-0.5,0.1-0.3-1-0.5-0.1c-0.3-0.4-0.1-0.5-0.3-1c-0.3,0.3-1.3-0.1-1.6-0.5c0.1,0,0.3-0.2,0.3-0.3c-0.3-0.9-0.2-1.5-0.5-2.4
	c0.1-0.1,0.1-0.6,0.4-0.5c-0.1-0.1-0.3-0.1-0.5-0.4c0.2-0.7,0.3,0.6,0.7,0c-0.3,0.1-0.6-0.5-1-0.9c-0.4,0.3,0.2,0.9,0.6,1.2
	c-0.6,0.2-1.5-0.2-2.1-1c-0.4-0.7,0.3-0.5,0.2-0.5c-0.4-1.4-1.5-0.8-1.5-2c0.2-0.6,0.8-0.3,1-0.5c0.4,0.5,0.1,1,0.2,1.4l0-0.6
	c0.2,0.1,0.4,0.5,0.4,0.7c0.2-0.5-0.8-2.3-0.8-3.5c-0.2-0.1-0.5-0.4-0.6-0.2l0.2,0.3c-0.2,0.4-0.7-0.5-0.7,0c-0.4-0.4-0.9-0.7-1-1.4
	l0.4-0.3c-0.1,0.1-0.1,0.5,0.1,0.6C48.2,70,48.7,69,48,68.9l-0.2,0.5c-0.4-0.4-1.1-0.7-1.1-1.3c-0.4,0.4,0.1,0.1-0.3,0.7
	c0.5-0.6,0.5,1.4,1,0.6c-0.5,0.6,0,0.8-0.3,1.5c0.1-0.1,0.2-0.3,0.3,0.2c0,0,0.1,0,0.2,0.1l0,0l0,0c0,0,0,0,0,0
	c0-0.1,0.1-0.3,0.1-0.3c0.4,0.1,0.7,0.8,0.9,1c0,0.3-0.2-0.1-0.3,0.2l0.4,0.3c-0.3,0.2-0.3,0.9-0.7,0.4l0.2,0.6
	c-0.1,0.4,0,0.9,0.3,1.1c0,0.3,0.6,0.6,0.3,0.4l0.5,0.8l-0.1,0c0.3,0.9,1.2,1.7,1,2.9c0.2,0.3,0.4,0.6,0.5,1.1l-0.2,0.2
	c0.2,0.4,0.1,1.3,0.5,1.3c-0.6,0.7,0.5,1.9,0.6,2.7l0.4-0.1c0.2,0.5,0.4,0.9,0.8,1.4l0.3-0.2c0.5,0.4,0.2,1.4,0.6,2.2
	c-0.1,0-0.2-0.2-0.2-0.4c-0.4,1.2,1.3,1.8,1,2.9c0.2,0.2,0.2,0.3,0.2,0.5l0,0l0,0.1c0,0.1,0,0.2-0.1,0.4v0c-0.2,0.4-0.5,0.9-0.1,0.7
	l0.3-0.2c-0.1-0.2-0.2-0.4-0.1-0.5c0-0.1,0.1-0.2,0.1-0.3c0.1,0.2,0.2,0.4,0.4,0.6l-0.3,0.2c0,0,0,0,0,0.1c0,0.3,0.2,0.1,0.5-0.1
	c0.1,0.1,0.2,0.2,0.3,0.2c-0.5,0.4,0.4,0.6-0.1,1.1c0.4,0.1,0.7,1.2,1.3,1.1c-0.1,0-0.1,0.1-0.1,0c0,0.3,0.1,0.6,0.3,0.8l-0.4,0.3
	l0.8,0.4c-0.1,0.5-0.2,0.7-0.7,0.4c0.9,0.7,0.5,0.6,1.3,1.2l-0.3,0.1c0.1,0.3,0.7,0.5,0.5,0.8c-0.1,0.2-0.1,0.4,0,0.7
	C58,98.1,57.9,98,57.7,98c-0.2-0.4,0.4,0.1,0.4-0.2c-0.6-0.1-1.1-0.5-1.8-1.4l0.1,0c-2.3-2.2-3.1-3.4-5.5-6.1l-0.1,0.5
	c-0.5-0.6-0.6-0.8-0.7-1.1c-1-0.2,1.5,1.5,0.5,1.4c-0.2-1.3-3.9-3.8-3.8-4.9c-0.8-0.8-0.1,0.6-0.9-0.3l-0.1-0.4l-0.4,0
	c-0.5-0.6-0.6-1.1-0.5-1.2c0.1,0.1,0.4,0.3,0.6,0.5c-0.5-0.9-2.1-1.9-2.3-2.2l0.7,0.9c-2.5-2.1-5.1-5.1-7.7-7l0,0.3
	c-1.9-1.4-1.2-1.5-3.2-3.2l0.1,0c-0.5-0.2-1.1-0.7-1.6-1.2c0.6,0.3-0.6-1.2,0.2-0.7c-2.1-1.6-1.1-0.7-2.8-1.4L29,69.7
	c-0.6-0.2-0.7-0.2-1.7-1c0.9,0.6-0.3-0.9,0.8-0.3c-1.5-2.4-3.4-2.4-3.6-4c-1.5-0.3,1.4,2,0.8,1.6c0.2,0.6-1.2-0.3-1.7-1
	c-0.6-0.6-0.3-1.8-1.9-3.3c0.2,0.2,0.2,0.1,0.4,0.3c-0.4-0.7-1.4-0.9-1.8-1.9c-0.8-0.1-0.9-0.9-1.5-0.6l1.6,1.3
	c-0.9-0.7-2.2-0.9-3.3-2.5c0.2,0,0.7,0.3,1.1,0.5c-0.3-0.5-0.8-0.7-1.1-1.2c0.6-0.3,1.9,1.6,3.1,2.2c-0.2-0.6-2-1.3-1.1-1.4
	c-1.2,0-1.5-1.6-3-2.2l0.3-0.2c-0.2-0.1-0.7-0.3-1-0.7l0.9,0.2c-1.2-0.6-1.4-1.9-2.4-2.6c1.8,1.7,0.1,0.7,0.6,1.6
	c-2.5-1.8-0.5-1.9-3.1-4.1c0.4,0.3,1.1,1.4,0.4,1c-0.4-0.5-0.9-1.2-1.1-1.6c-0.6-0.5-0.2,0.3-0.7,0.2c0.2-0.5-0.5-0.2-1.1-0.6l0.5,0
	c-0.4-0.8-1.5-0.3-1.9-1.2c0,0,1.4,0.6,1.4,0.6L8,48.3l1,0.3c-0.6-0.3-0.9-0.5-1-0.6c0.2,0,0.4,0.1,0.7,0.1
	c-0.7-0.3-1.4-0.7-0.6-0.7c0.8,0.2,0.3,0.4,1.1,0.3c0.1,0.2,0.5,0.5-0.4,0.2c0.2,0.1,0.3,0.2,0.5,0.4c0.7,0.3,0.7,0.1,0.9,0
	c-0.1,0-0.2,0-0.3-0.1c-0.1,0,0.4-0.5,0.6-0.5c0.2,0.1,0.1,0.3,0.1,0.4c0.2,0,0.2-0.2,0.6-0.3c-0.1,0.3-0.1,0.6-0.2,0.8
	c0,0,0.1-0.1,0.2-0.2c0.6-0.1,1.1-0.2,1.1-0.2c0.1,0.1,1.1,0.4,0.8,0.5c1.2,0.2,3-0.6,4.6-0.4c0.1-0.1,0.3-0.1,0.6-0.2
	c0.3,0,0.6,0,0.8,0.1c0,0,0,0,0,0c1.2,0.1,2.4,0.3,3.8-0.1l1,0.5c1.4-0.1-1.4-0.7,1-0.9c0.9-0.1,1,0.1,1,0.2c-0.2,0-0.2,0.1-0.2,0.2
	l0.2,0c0,0.1,0,0.2,0.2,0.2c0.8-0.3,2.3-0.9,3.8-0.4c-0.5,0.1-0.9,0-1.4,0.1l1.2,0.3c-1.4,0.5-2.4,0.3-1.3,0.8
	c0.1-0.4,0.6-0.5,1.3-0.5l-0.2,0.1l-0.5,0.3l0.7-0.4c1.3-0.1,3.1,0,3.4-0.6c0.1,0,0.1,0,0.2,0l0.6,0.2c-0.2,0-0.3,0.1-0.5,0
	c0.7,0.2,1,0.1,1.3-0.2c0.1,0,0.1,0,0.2,0l0,0l0,0v0c-0.1,0-0.1-0.1,0,0l0,0c0,0,0-0.1,0.1-0.1c0,0,0,0,0,0c0.5,0.1,0.1,0.1-0.1,0.1
	c0,0,0,0,0,0l0,0l1.8-0.2c-0.4,0-0.9,0-1.7,0c0.3-0.2,0.7-0.3,1.4-0.3c0.5,0.1,0.9,0.2,0.9,0.3l-0.3,0l0.1,0l-0.4,0
	c0.2,0,0.3,0,0.4,0.1c0,0,0,0,0,0l0,0c0.3,0.1,0.5,0.2,0.9,0.3c0.6-0.2,0.8-0.3,0.8-0.4l-1.3,0l1-0.2c0,0,0.1,0,0.1,0
	c0.1,0,0.1,0.1,0.2,0.1c0,0-0.1,0-0.2,0l0.2,0l0,0l0.1,0l0,0l1.9-0.1l0,0c0.1-0.1,0.3-0.1,0.5-0.2c0,0.2,0.1,0.3,0.1,0.5L41,47.9
	l-0.1,0.3l0.4-0.2c0.1,0.3,0.2,0.5,0.4,0.5c0-0.1,0-0.2-0.1-0.4c-0.1-0.2-0.3-0.3-0.4-0.7c0.1,0,0.2-0.1,0.2-0.1
	c0.1,0.2,0.1,0.5,0.2,0.8c0.1,0.1,0.2,0.2,0.3,0.4c0.1-0.2,0.2-0.4,0.4-0.5c0.1,0,0.2,0.1,0.3,0.1l0,0.1c0,0,0-0.1,0.1-0.1
	c0.1,0,0.1,0,0.2,0c0,0,0.1,0,0.1,0.1c0,0,0,0,0-0.1c0.4-0.1,1-0.4,2.4,0l-0.4,0c-0.1,0-0.2-0.1-0.4-0.1c0,0,0,0.1,0.1,0.1l-0.5,0.1
	c0.8,0.6,1.7,0.4,3.1,0.7c-0.3-0.2-2.4-0.8-1.6-1.1c0.5,0.1,1,0.1,1.7,0.4c0-0.2-0.4-0.3,0.6-0.2c0,0,0.1-0.1,0.1-0.1
	c0.1,0,0.3,0,0.5,0c0.1,0,0.1,0,0.2,0c0,0-0.1,0-0.2,0c0.2,0,0.4,0,0.6,0l0,0.1c-0.1,0-0.2,0-0.4,0c0.1,0,0.1,0,0.1,0.1
	c0.1,0,0.2,0,0.3,0l-0.1,0.4c0.5-0.1,0.7-0.2,0.9-0.3c0.2,0,0.8-0.2,0.9-0.3c0.2,0,0.3,0.1,0.5,0.1c0,0,0,0,0,0h0
	c0.5,0.1,0.6,0.4,0.8,0.6c1.5,0.1-0.4-0.4,0.2-0.6h0.1c0.7,0.2,1.7,0.3,2.3,0.1c0.6,0.1,1.5-0.4,1-0.1l1.8-0.2
	c-0.1,0.1-0.5,0.2-0.2,0.3l0.5-0.2c0.2,0,0.4,0,0.6,0c0,0,0,0,0,0c0,0,0,0,0.1,0c1.6-0.1,3.3-0.5,5.1-0.1c0,0,0,0.1,0,0.1
	c0.1,0,0.2,0,0.3-0.1c0,0,0.1,0,0.1,0c0.6-0.1,1.3-0.2,2.4-0.1l0.2,0.3c0.8-0.1,2.5,0.3,2.8-0.1c0.9,0.8,4,0.1,5.5,0.3l0-0.4
	c1,0,2-0.1,3.2-0.3l0-0.2l0.5-0.1c-0.1,0.4,0.5,0.3,1.2,0.5c-0.2-0.3,0.1-0.5,0.5-0.5c0.7,0.1,1.4,0.2,2.2,0.1
	c-0.1,0-0.2,0.1-0.4,0.1c-0.1,0-0.3,0-0.4-0.1c0.1,0,0.2,0.1,0.2,0.1c-0.2,0-0.4,0-0.6,0c0.4,0.2,0.7,0.2,1,0.1
	c1.2,0.2,2.5-0.2,3.7-0.3c0,0,0,0.1,0,0.1l-0.3,0c0.9,0,2.2,0.1,3.4,0c0.2,0.1,0.4,0.1,0.6,0.2c-0.2-0.1-0.3-0.1-0.5-0.2
	c0.5,0,1-0.1,1.4-0.1l0.2,0.3c-0.5,0.1-0.8,0-1.1,0c0.7,0.3,1.4,0.7,1.3,0.4l-0.2-0.3c0,0,0.1,0,0.1,0c0.5,0.1,0.4-0.1,0.2-0.4
	c0.3-0.1,0.6-0.1,0.8-0.2c0.1,0.1,0.2,0.1,0.3,0.1c-0.1,0.2-0.2,0.5-0.3,0.6l1.1-0.7c0.3,0,0.5,0,0.7,0.3l-0.6,0.7
	c0.7-0.4,1.1-0.4,1.7-0.3l-0.3-0.6c0.4-0.1,0.9-0.1,1.3-0.2c0,0.4-0.2,0.7-0.9,0.9c0.5,0.1,1.1,0.2,2.1,0c-0.3-0.1-0.8-0.8-0.4-0.9
	c1.3,0.6,0.9,0.3,2.4,0.9c-0.5-0.1,0.1-1,0.8-1c-0.1,0.1,0.1,0.9-0.2,1l2-0.9c-0.5,0.2-0.1,0.8,0.4,1c-0.2-0.2,1.7,0,2.2-0.1
	l-0.8-0.2c1.6,0.1,2-0.6,3-0.9c0.4,0,0.8,0,1.2,0c-0.2,0.3-0.2,0.9,0.7,1c0.2-0.2,0.6-0.6,1.1-1c0.8,0,1.5,0,2.3,0
	c-0.8,0.4-1.6,0.8-2.3,1.1c0.8,0.2,0.2,0.3,1.5,0.3c0.4,0.2-0.7,0.4-1,0.4l2.9,0.2c0.3-0.5,1.2-0.5,1.4-1c0,0-0.5,0.1-0.9,0.3
	c-0.8,0.1-1.6,0.3-1.6,0.3c-0.1-0.3,0.4-0.6,1.1-0.9c0.5-0.2,0.9-0.3,1.5-0.4c0.3,0,0.6,0,0.9,0.1c-0.1,0.3-1,0.8-1,1
	c0.2-0.2,1.3-0.3,1.3-0.2l-0.8,0.3c0.1,0.1,0.5-0.1,1-0.2c0.5-0.1,1-0.2,0.8,0c0.1,0,0,0.1-0.2,0.2c-0.5,0.3-1,0.5-0.6,0.4
	c0.6-0.3,1.7-0.8,2.9-1.3c0.7,0,1.4,0,2,0c-1,0.7-2,1.5-2.4,1.7c-0.7,0.3-0.8,0.1-1.1,0c-0.3-0.1-0.6-0.2-1.1,0
	c0.2,0,0.3,0.1,0.3,0.2c-0.4,0.2-0.6,0-0.9,0.4c0.6,0.1-1,1,0.3,0.3c-0.4,0.6-0.6,0.5-1.3,1.2c0.5,0,0.1,1.6-0.6,2.5
	c-0.1-0.1-0.3-0.1-0.5-0.1l0,0c-0.1,0.1-0.1,0,0,0c-1.5,1.5-2.5,2.2-3.9,3.7c-0.2,0-1,0.6-0.9,0.2c-0.1,0.3-0.2,0.6-0.6,1.1
	c-1.2,0.5,0.9-1.1-0.1-0.8c0.2,0.3-0.8,1.5-1.3,2.2c0.5,0.1,1.5-1.4,2-2.2c0.5,0.5-0.1,2.1-1.3,3.8c-1.1,1.3-0.8,0.2-1,0.5
	c-2.3,2.2-1,2.7-3.2,4.3c-1,0.5-0.6-0.6-1-0.6c0.8-1.1,1.7-1.3,2.3-2l-0.9,0.7c0.2-0.4,0.8-1.1,1.2-1.4c-0.9,0.4-3.8,3.8-5.7,5.3
	c-0.2,0.4-0.6,1-0.2,0.9l0.5-0.6c0.7-0.3-0.7,1.4,0.1,0.8c-0.5,0.9-1.1,2-2.2,2.9l-0.5-0.1c0.1,0.1,0.9-0.5,1-0.9
	c-0.3,0.6-2,1.2-2,2.1l0.9-0.5c-0.5,0.9-1.1,2.2-2.1,3c0.8-0.1,0.2-0.3,1.2-0.5c-1.1,0.1,2.3-2.4,0.9-1.9c1.1-0.2,1.3-1,2.6-1.5
	c-0.1-0.1-0.5,0.1,0.3-0.6c0-0.1,0-0.2,0.1-0.3l0.1,0l-0.1,0c0,0,0-0.1,0,0c-0.2,0.1-0.4,0.2-0.6,0.2c0.1-0.6,1.3-1.9,1.6-2.4
	c0.5-0.4-0.1,0.3,0.3,0.2l0.4-0.8c0.3,0.2,1.6-0.8,0.7,0.4l1-1c0.7-0.4,1.5-1.2,1.9-1.8c0.5-0.4,0.9-1.4,0.7-0.8l1.3-1.7l0.1,0
	c1.5-1.5,2.6-3.5,4.7-4.8c0.4-0.6,0.9-1.2,1.8-2l0.4,0c0.6-0.7,2.1-1.8,2.2-2.3c0.7-0.2,1.1-0.5,2.9-2.4c1.5-1.6,2.9-3.2,4-4.3
	l-0.6,0.1c0.1-0.1,0.3-0.3,0.4-0.4c0.5,0,0.8-0.1,0.9-0.3c0.8,0.2,0.2,0.3,0.7,0.4c0.1,0,0.2-0.1,0.4-0.1c-0.2-0.2-0.4-0.3-0.3-0.4
	c0.1-0.1,0.5,0.3,1,0.6l-0.2,0.1C124.8,47,124.9,47,125,47z M3.8,44.3L3.8,44.3L3.8,44.3C3.8,44.3,3.8,44.3,3.8,44.3z M76.2,75.9
	L76,76C76,75.6,76.1,75.7,76.2,75.9z M64.4,101.7c0.3,0.5,0.1,0.4,0,0.3C64.4,101.9,64.3,101.5,64.4,101.7z M62.3,103.9
	c-0.1-0.1-0.1-0.2-0.1-0.5C62.3,103.4,62.3,103.6,62.3,103.9z M48.6,73.6L48.6,73.6C48.6,74,48.6,73.9,48.6,73.6z M19.6,64.1
	l-0.1-0.3C20,64.2,19.8,64.2,19.6,64.1z M100.8,28.7c-0.3-0.2-0.9-0.4-0.9-0.7C100.5,27.9,100.6,28.2,100.8,28.7z M58.7,20.8
	c0.1,0,0.1,0,0.2,0c0,0.1-0.1,0.2-0.1,0.3c-0.1,0-0.1,0-0.2-0.1c0-0.1,0-0.1,0-0.2C58.6,20.8,58.6,20.8,58.7,20.8z M45.5,17.3
	l0.3,0.1C45.2,17.6,45.3,17.5,45.5,17.3z M44.6,47.8C44.7,47.8,44.7,47.8,44.6,47.8c0.3-0.1,0.5-0.1,0.4-0.3c0,0,0,0,0.1,0
	c0.2,0.1,0.4,0.2,0.6,0.2C45.3,47.8,44.8,48,44.6,47.8z M45,41.6c-0.2-0.1-0.3-0.5-0.4-0.8c-0.1-0.3-0.2-0.6-0.4-0.7
	c0.1,0.1,0.1,0.4,0.1,0.5c-0.1,0-0.2-0.5-0.3-0.2c0.3,0.6-0.4,0.4,0.2,0.6c-0.1,0.4-0.2,0.1-0.4,0.4c0.1,0.2,0.1,0.6,0.1,1.2
	c0,0.5-0.2,1.1-0.3,1.4c0-0.2-0.1-0.4-0.1-0.5c-0.4,0.4-0.6,0.5-0.9,0.7c-0.1-0.2-0.1-0.4-0.2-0.5c0-0.3-0.1-0.9,0.1-1.2
	c-0.1,0.1-0.2,0.3-0.3,0.2c0-1.1,0.2,0.3,0.3-0.9C42.2,42.2,42,42,41.7,42c-0.2,0.8,0.3,0.8,0.4,0.7c-0.1,0.6-0.3,1.1-0.5,1.3
	c-0.2,0.2-0.6,0.2-0.9-0.1c-0.5-0.6,0.1-0.9,0-0.9c-0.3-0.7-0.6-0.8-1-0.9c-0.3-0.1-0.7-0.3-0.8-1.1c0.2-0.7,0.8-0.5,1-0.7
	c0.4,0.4,0.1,1,0.4,1.4L40.3,41c0.2,0.1,0.4,0.3,0.4,0.6c0.1-0.3-0.1-0.8-0.4-1.4c-0.2-0.5-0.5-1.2-0.6-1.7
	c-0.2-0.1-0.5-0.3-0.6-0.1l0.2,0.3c-0.2,0.4-0.7-0.3-0.7,0.1c-0.4-0.3-1-0.5-1-1.1l0.4-0.3c-0.1,0.1-0.1,0.5,0.1,0.6
	c-0.3-0.1,0.2-1.1-0.5-1.1l-0.1,0.5c-0.4-0.3-1.1-0.5-1.2-1c-0.4,0.4,0.1,0.1-0.3,0.7c0.5-0.6,0.5,1.2,1,0.4c-0.5,0.6,0,0.7-0.3,1.4
	c0.1-0.1,0.2-0.3,0.3,0.1c0.1,0,0.1,0,0.2,0c0,0,0,0,0,0l0,0c0,0,0,0,0,0c0-0.1,0.1-0.2,0.1-0.3c0.4,0,0.7,0.7,1,0.8
	c0,0.3-0.2,0-0.3,0.2l0.4,0.2c-0.3,0.2-0.3,0.9-0.7,0.4l0.2,0.5c-0.1,0.1,0.1,0.6,0.2,0.8c0.1,0.3,0.3,0.6,0.4,0.7
	c0.1,0.5,0.8,0.7,0.4,0.6l0.8,1.1L39.8,44c0.1,0.1,0.1,0.3,0.2,0.4c-0.7-0.1-1.3-0.1-1.8,0.2C38,44.6,38,44.5,38,44.5
	c-0.9,0.2-2.9,0.3-3.4,0.7c-0.8-1.3-5.5,0.7-5.5-0.5l-2.7,0.1l0.1-0.1c-1.7-0.1-2.4,0.2-3,0.5c-0.4-0.1-0.1-0.2-0.1-0.3
	c-2.5-0.2-2.8-0.2-4.9,0.4l-0.2-0.4c-0.6,0.2-3.7-0.6-6.2-0.1c0,0,0.1-0.1,0.3-0.2c-1,0.2-3.6,0-5.9-0.1C7,43.6,9,43.2,9.5,41.5
	c0.4-0.2-0.1,0.4,0.2,0.4c0.1-0.6,0.4-1,1.3-1.6l0,0.1c2-2.1,3.1-2.8,5.5-5L16,35.3c0.5-0.5,0.7-0.5,1-0.7c0.2-1-1.4,1.4-1.3,0.4
	c1.2-0.1,3.5-3.5,4.5-3.4c0.8-0.8-0.5-0.1,0.2-0.8l0.4,0l0-0.4c0.5-0.5,1-0.5,1.1-0.4c-0.1,0.1-0.3,0.4-0.4,0.5
	c0.8-0.5,1.7-1.9,2-2.1l-0.8,0.6c1.9-2.3,4.6-4.6,6.3-7l-0.3,0c1.1-1.6,1.5-1.4,2.2-2.1c0.1,0,0.2,0,0.3,0l0,0
	c0.1-0.1,0.3-0.2,0.5-0.2c0.3,0,0.6-0.1,0.9,0c-0.6,0.2,1.1,0.4,0.3,0.6c2.4-0.3,1.2-0.3,2.7-0.9l0.4,0.3c0.5-0.3,0.6-0.4,1.8-0.5
	c-1,0.2,0.8,0.4-0.3,0.8c2.5,0.7,3.7-0.6,4.8,0.3c1.2-0.8-2.2-0.5-1.5-0.6c-0.5-0.3,0.9-0.6,1.7-0.5c0.8,0,1.3,1,3.4,1
	c-0.2,0-0.2,0.1-0.4,0c0.8,0.2,1.5-0.3,2.4,0.1c0.5-0.5,1.2,0,1.3-0.6l-1.8,0.1c1-0.2,2-0.9,3.7-0.5c-0.1,0.1-0.6,0.3-1,0.4
	c0.5,0.2,1-0.1,1.5,0.1c-0.2,0.6-2.2,0.1-3.4,0.6c0.5,0.3,2.1-0.4,1.5,0.2c0.8-0.9,2,0.1,3.3-0.5l-0.1,0.4c0.2-0.1,0.7-0.2,1.1-0.2
	L53.2,21c1.1-0.4,2.1,0.4,3.2,0.2c-2.2,0-0.5-0.5-1.4-0.7c2.2-0.4,1.9,0.5,3.3,0.8c-0.1,0.4-0.2,0.6-0.3,0.7c-0.1,0.2-0.1,0.5-0.1,1
	l-0.6,0.2c0.6-0.1,0.6,0.6,0.6,1.2c0.2,0,0.5,0,0.6,0l-0.2,0.8c-0.1,0-0.2-0.2-0.3-0.4c0,0.1,0,0.1,0,0.2c-0.3,0.1-0.5-0.2-0.6-0.5
	c0.1,0,0.3,0,0.4,0c-0.1-0.3-0.3-0.7-0.6-0.9c0,0.1,0,0.2,0,0.3c0-0.1-0.1-0.2-0.1-0.2c-0.1,0,0,0.1,0,0.3l-0.6-0.2l0.2,0.2
	l-0.9,0.5c0,0.9,0.4,1.9-0.1,3c-0.2-0.5-0.5-0.5-0.9-0.8c0.6,0.1,0.3-0.8,0.8-1.2c-0.2,0.2-0.4,0-0.4-0.1l-0.2,1.1
	c-0.3-0.3-0.4,0-0.7,0.1c0.8,0.4,0,0.9-0.1,1.4c-0.2-0.2-0.4-0.4,0-0.8c-0.8,0.1,0.3,1.2-0.4,1.3c0.1-0.1,0.1-0.1,0.1-0.3
	c0,0.4-0.6,0.8-0.7,0.5l0.1-0.1c-0.6,0.6-1.5,2-1,2.5c-0.1,0-0.6-0.6-0.7-0.7l1,2.6c-0.4-0.5-1.9-1-1.7-1.7
	c-0.2,0.1-0.4,0.2-0.5,0.7c0.1-0.1,0.9,0.3,0.8,0.5c-0.8,0-0.5,0.1-1.3,0.2c0.2-0.1,0.8,0.7,0.6,0.9c-0.1-0.1-0.8-0.6-0.8-0.7
	l0.3,1.2c0-0.3-0.6-0.5-0.9-0.5c0.2,0-0.4,0.5-0.5,0.8l0.4-0.1c-0.7,0.6,0.5,1.5-0.1,2.2c-0.1-0.2-0.8-0.9-1.2-0.7
	c0.3,0.5,1.3,2.1,1.1,3l-0.3-0.1l-0.1,0.7c-0.3-0.7-0.9-2.5-1-3.3c-0.4,0.1-0.3-0.1-0.6,0.3c-0.3,0-0.1-0.5-0.1-0.6l-0.8,0.8
	c0.5,0.3-0.1,1,0.3,1.3l0.3-1.4c0.5,0.3,0.8,1.6,0.2,2.1c-0.3,0-0.7-0.7-0.9-0.8c0.1,0.2-0.2,0.8-0.3,0.8l0-0.5
	c-0.4,0.2,0.1,1-0.6,1.2c-0.1,0.1-0.9,0-0.6,0.2c0.3,0.2,0.9,0.4,1.4,0.8c0.5,0.4,1,0.8,1.1,1c0,0-0.4,0.2-0.7,0.3
	C45.5,41.6,45.1,41.7,45,41.6z M38.5,41.2L38.5,41.2C38.6,41.7,38.6,41.5,38.5,41.2z M57,24.4c-0.1,0.1-0.2,0.2-0.3,0.3
	C56.7,24.6,56.8,24.5,57,24.4z M61.5,45C61.5,44.9,61.5,44.9,61.5,45L61.5,45C61.6,44.9,61.6,44.9,61.5,45z M69.4,45.7
	c-0.2-0.1-0.3-0.2-0.4-0.2l1.1-0.2C69.9,45.4,69.7,45.6,69.4,45.7z M76.9,46.5c0,0-0.2-0.1-0.5-0.1c0.2-0.1,0.4-0.1,0.6-0.2
	C77,46.3,77,46.4,76.9,46.5z M78.7,46.8c0.1,0,0.3,0,0.4,0c0,0,0,0.1,0,0.2C79,46.9,78.8,46.9,78.7,46.8z M81.6,44.4
	c0.1-0.3,0.4-0.6,0.4-0.7c-0.2,0.2-1.8,0.4-1.9,0.2l0.8-0.3c-1-0.2-1.7,0.7-2.9,0.2c-0.4,0-1.3-0.7-1.4-0.3c0.1,0.1,0.2,0.2,0.3,0.4
	c-1.1,0-1.8-0.2-2.5,0c-0.1,0-0.1,0-0.2,0c0.1,0,0.1,0,0.2,0c-0.2,0-0.4,0.1-0.6,0.2c-0.1,0-0.1,0-0.2,0c0-0.2,0.4-0.3,0.2-0.4
	c-0.1,0-0.6,0.2-0.8,0.1c-0.2-0.1,0.3-0.2,0.6-0.3c-1.5,0-1.9,0.5-2.1,1c-0.2,0-0.4,0-0.7,0c0.1,0.1,0.1,0.1,0,0.2
	c-0.6-0.1-1,0-1.5,0.3c-0.3-0.2-0.9-0.4,0.3-0.5c-0.7,0-4-0.3-4.1,0.2c-0.2-0.1-0.9,0-1.1,0c-0.7,0-1.1,0-1.4,0c0,0,0,0,0,0
	c0,0,0,0-0.1,0c-0.3,0-0.6,0-0.9,0c0.4,0,0.8-0.1,0.3-0.4c0,0.2-0.4,0.3-0.9,0.4c0,0-0.1,0-0.1,0l0,0c-0.4,0.1-0.9,0.2-1.3,0.3
	c0,0,0,0,0,0c-0.2,0-0.4,0-0.7,0l0-0.1c-2.3-0.4-1.5,0.1-3-0.1l0-0.1l-0.2,0.1c-0.2,0-0.4-0.1-0.6-0.1l0.1,0.4
	c-0.2,0.8-2.3-0.5-3.8-0.1l0.6,0.2c-0.8,0.3-2.3-1.1-3.2-1.2c-0.2-0.1,0.3-0.1,0.5-0.2c-2.2-0.5-0.3,0.5-1.9,0.6
	c-0.3-0.3,0.4-0.7-0.7-0.7c-0.1-0.1-0.4,0-0.7,0c0.1-0.1,0.2-0.3,0.3-0.4l-0.2-0.4c0.2-0.3,0.4-0.6,0.6-0.9c0-0.1,0.1-0.2,0.1-0.3
	c0-0.1,0.1-0.1,0.1-0.2c0-0.1,0.1-0.2,0.1-0.4l-0.3-0.2c0-0.6,1-0.8,1.4-1.4c0.1,0.1-0.1,0.3-0.2,0.3c1.2-0.2,0.7-1.9,1.6-2.1
	c0-0.2,0.1-0.3,0.3-0.4c0,0,0,0,0,0.1c0,0,0,0,0.1-0.1c0.1,0,0.2-0.1,0.3-0.1c-0.1,0-0.2,0-0.3,0.1c0.1-0.1,0.2-0.3,0.3-0.6L51,37
	c0,0,0,0,0,0c0.3-0.1,0-0.3-0.4-0.4c0-0.1,0-0.3,0-0.4c0.6,0.3,0.2-0.6,0.9-0.4c-0.2-0.3,0.5-1.1,0-1.6c0.1,0.1,0.2,0,0.1,0.1
	c0.2-0.2,0.4-0.3,0.4-0.6l0.5,0.2l-0.2-0.9c0.5-0.1,0.7-0.1,0.8,0.4c0-1,0.2-0.7,0.2-1.6l0.2,0.2c0.1-0.2,0-0.8,0.3-0.7
	c0.8-0.1,1.8-2.1,3.1-2.9c-0.9-0.4,0.8-0.3,0.2-0.8c0.2,0.1,0.5,0,0.5,0.3c0.3-0.7,1-0.6,0.8-1.4c0.2,0.1,0.2,0.3,0.3,0.4
	c0-0.1,0-0.3,0.1-0.3c0.2,0,0.1,0.2,0.1,0.4c0.4-0.6-0.1-1.1-0.6-1.6c0.5-0.1,0.6-0.3,0.4-0.8c0.3,0,0.6,0,0.3,0.4
	c0.1-0.1,0.4-0.4,0.6-0.6c0.1-0.1,0.1-0.1,0.1-0.2c0,0,0-0.1,0-0.1c0-0.1,0-0.2-0.1-0.3c0.1,0.1,0.2-0.2,0.2-0.2
	c0.3-0.3,0.3-0.2,0.5-0.6l-0.1,0c-0.1-0.9,0.2-0.5,0.3-0.8l0,0.1c0.2,0,0.2,0,0.3-0.1c0.1,0.1,0.1-0.2,0.4,0.6l0-0.5
	c0.1-0.5,0.2-0.2,0.3,0.2c0.1,0.4,0.2,0.8,0.4,0.8l0-0.3c0.2-0.1,0.2,0.4,0.1,0.8c-0.1,0.4-0.2,0.8-0.2,0.9c0,0.1-0.1,0.1-0.2,0.1
	c-0.1,0.3,0.1,0.3,0.2,0.1c0.1-0.2,0.3-0.4,0.6-0.2c-0.1,0.3-0.6,0.4-0.3,0.8c0,0.3,1.6,0.2,1.6,1c0.1-0.2,0.1-0.5,0.4-0.4
	c0.4,0.3,0.3,1.5,1.1,1.3c0,0.1,0,0.1-0.1,0.2c0.4,0.1,1,0.6,1.4,0.5c-0.7,1.2,2.1,1,1.2,2l0.8,0.7l-0.1,0.1
	c0.4,0.5,0.8,0.5,1.2,0.4c0.1,0.2-0.1,0.2-0.2,0.2c0.6,0.9,0.7,0.9,1.7,1.1l-0.2,0.4c0.3,0,0.6,1.5,1.7,1.8c0,0-0.1,0.1-0.2,0.1
	c1.1,0.4,1.1,2.7,2.5,1.9l0.8,0.2c-0.6-0.8,0.6-0.4,0.4-0.8c0.3,0.2,0.4,1,0,0.7v-0.1c-0.7,0.4,0.7,1,0.3,1.4
	c0.7,0.6,1.3,1.4,1.9,2.1c0.3,0.4,0.6,0.7,0.9,1.1l0.1,0.1l0.2,0.2l0.4,0.4c0.2,0.2,0.5,0.5,0.7,0.7c0,0,0-0.2,0-0.4
	c0-0.2,0-0.4,0-0.4l0.6,0.6c0.1,0.3,0.1,0.7-0.4,0.2c0.1,0.3,0.3,0.4,0.5,0.4c0.2,0,0.4-0.1,0.4-0.2c0.4,0.6,0.3,0.7,0.1,0.7
	c-0.2,0-0.5-0.1-0.4,0l0.3,0.3c0,0,0,0.1,0,0.1l0.8-0.2c0.1,0,0.1,0.1,0.2,0.2c0.1,0.2,0.2,0.3,0.2,0.4
	C82.8,44.4,82.2,44.4,81.6,44.4z M65.7,22.6c0.2,0,0.5,0,0.4,0.3C65.7,23.1,65.7,22.9,65.7,22.6z M82.5,43.7c-0.1,0-0.1,0.1-0.2,0.1
	l0-0.1C82.4,43.8,82.5,43.8,82.5,43.7z M113.7,43.9c0-0.1-0.1-0.1-0.1-0.2c0.2,0.1,0.3,0.2,0.5,0.2
	C113.9,43.9,113.8,43.9,113.7,43.9z M114.2,44.9C114.2,44.9,114.2,44.9,114.2,44.9C114.2,44.8,114.2,44.8,114.2,44.9
	c0.1-0.1,0.3-0.1,0.3-0.1C114.4,44.8,114.3,44.8,114.2,44.9z M114.8,46.4C114.9,46.4,114.9,46.4,114.8,46.4
	C114.9,46.4,114.9,46.4,114.8,46.4C114.9,46.4,114.8,46.4,114.8,46.4z M116,44.2c-0.3,0-0.5,0-0.8,0C115.4,44.1,115.7,44.1,116,44.2
	C116,44.1,116,44.1,116,44.2z M117,43.3c0.2,0.2,0.4,0.3,0.3,0.5C116.9,43.5,116.9,43.4,117,43.3z M118.2,43.2
	c0.2,0.1,0.3,0.2,0.5,0.3c0.1,0.4-0.8-0.1-1.5-0.4c0.1-0.1,0.1-0.2,0.2-0.3c-0.8-0.4-1.5-0.6-1.9-0.6c0.1,0.1,0.3,0.2,0.5,0.3
	c-0.2-0.1-0.3-0.1-0.4-0.1c-0.1,0,0.2,0.1,0.6,0.3c0,0-0.9-0.1-0.9-0.1l0.5,0.1c0.1,0.2,0.1,0.4,0,0.5l0,0c0.3,0.2,0.5,0.5,0.5,0.8
	c-0.6-0.1-1.3-0.1-1.9-0.1c0.1,0,0.2,0,0.3-0.1c0.2-0.1,0.4-0.3,0.8-0.2c-0.5,0-0.7-0.3-0.8-0.4c0.1,0-0.5,0.5-0.6,0.5
	c-0.3-0.4-0.5-0.3-0.9-0.5c0.7,0.8-0.7,0.5-1.9,0.8c-0.1-0.3,0.2-0.5,1.3-0.5c-1.2-0.6-1.6,0.9-2.8,0.5c0.3,0,0.4,0,0.5-0.1
	c-0.6,0.2-2.3,0.1-1.9-0.2l0.3,0c-0.6,0-1.4,0-2.3,0c-0.6-0.3-1.2-0.5-1.1-0.2l0.2,0.3c-0.1,0-0.3,0-0.4,0c0,0,0,0,0,0
	c-1,0.1-1.9,0.3-2.3,0.5c0,0-0.1,0-0.1,0c0.1-0.2,0.2-0.7,0.3-0.8l-0.9,0.6c-0.2,0.1-0.6,0.1-1,0.2l0.8-1.1c-0.6,0.4-1,0.4-1.5,0.3
	l0.4,0.8c-0.5,0.1-0.9,0.1-1.3,0.3c-0.1-0.5,0-0.9,0.8-1.1c-0.4-0.1-1-0.2-1.9,0.1c0.3,0.1,0.8,0.8,0.3,0.9
	c-1.1-0.6-0.8-0.3-2.2-0.9c0.5,0.1,0,1-0.8,1c0.1-0.1-0.1-0.9,0.2-1l-1.4,0.7c-0.1,0-0.1,0-0.2,0c0.1-0.2-0.2-0.7-0.5-0.9
	c0.2,0.2-1.5,0-2,0.1l0.8,0.2c-1.5-0.1-1.8,0.6-2.7,1c0,0,0,0-0.1,0c-0.2-0.1-0.6-0.2-1-0.2c0.1-0.3-0.1-0.7-0.7-0.8
	c-0.1,0.1-0.4,0.4-0.7,0.7c-0.5,0-1.1,0-1.7,0c0.5-0.3,1-0.5,1.4-0.7c-0.8-0.2-0.2-0.3-1.3-0.3c-0.4-0.2,0.6-0.4,0.9-0.4l-1.2-0.1
	c0,0,0,0,0-0.1c0.4-0.9,0.8-1.8,1-1.9c0-0.4,0.1-0.8,0.2-1.1c0.1-0.2,0.1-0.3,0.2-0.5c0.1-0.2,0.1-0.3,0.2-0.4
	c-0.2,0.1-0.7-0.1-0.4-0.5c0.9,0.7,0.8-0.6,1.7-0.7c-0.6,0.1,0.5-1.4-0.4-1.2c0.3-0.3,0.4,0.2,0.8,0c0-1.1,1.2-1.9,1.6-3.1
	c-0.1-0.1-0.4,0-0.5-0.3l0.9-0.3c0-0.3-0.7-0.6,0-0.8c-0.1,0-0.3,0-0.3-0.2c1.7-1.9,1.6-4.8,3.9-6.4c-0.4,0.2-0.3,0-0.2-0.3
	c-0.1,0.1-0.3-0.2-0.5-0.2l1-0.7c-0.4-0.4,0.4-1,0-1.3l-0.1,0.3c-0.4-0.7-1.5,0-2.2-0.5c0.4,0.8-1.5,0.7-0.9,1.9
	c-0.2,0.1-0.2-0.2-0.4-0.2c0.2,0.3,0.2,0.6-0.2,0.9L91,25.6c-0.5,1.2-1,1.5-1.9,2.7l0.4,0.1c-0.2,0.3-0.3,0.3-0.5,0.3
	c0.4,0.6,0.4-0.8,0.9-0.2c-0.9,0-1,2-1.9,1.8c-0.2,0.4,0.5,0.1,0.3,0.5l-0.3,0l0.2,0.2c-0.2,0.3-0.5,0.3-0.7,0.2
	c0.1-0.1,0-0.2,0.1-0.3c-0.4,0.2-0.4,1.1-0.6,1.2l0.3-0.3c-0.4,1.3-1.3,2.6-1.4,3.9l0.2,0c-0.1,1-0.5,0.6-0.8,1.6l0-0.1
	c0.1,0.3,0,0.6-0.1,0.8c-0.1-0.3-0.6,0.3-0.7-0.2c0,0.9,0.1,0.4,0.5,1.3l-0.3-0.1c0.1,0.4,0.2,0.5,0.1,0.9c0-0.3-0.1-0.3-0.2-0.4
	c-0.1-0.1-0.2-0.2-0.3-0.5c-0.3-0.1-0.3,0.2-0.3,0.6c0,0.3-0.1,0.6-0.3,0c0.2,1.6,0.4,0.2,0.4,0.6c0.2,0.2,0.2,1.2,0,1.3
	c-0.1,0.1-0.2-0.1-0.3-0.4c-0.2-0.6-0.4-1.3-0.6-1.4c0,0,0-0.1,0.1,0c-0.1-0.4-0.2,0.2-0.4-0.4c-0.2,0.6-0.2-0.2-0.4,0.5
	c0,0,0.4,0.2,0.4,0.2c-0.1,0-0.2,0.2-0.4,0.3c-0.2,0.1-0.4,0-0.6-0.4c0.1-0.1,0.3-0.2,0.4-0.2c0-0.3-0.3-0.1-0.3-0.4
	c0.2-0.3,0.3-0.2,0.4-0.1c0.1,0.1,0.3,0.2,0.4,0c0-0.4-0.4,0.2-0.1-0.5c-0.2,0.4-0.3,0.3-0.3,0.2c-0.1-0.1-0.1-0.3-0.4-0.1l0.3-0.3
	c-0.1,0-0.2,0.1-0.4,0c0,0,0.1,0,0.3-0.1c0.2,0,0.2-0.1,0.2-0.1c-0.1,0.1-0.2,0-0.3-0.1c-0.1-0.1-0.1-0.2-0.2-0.3
	c-0.1-0.2-0.1-0.5-0.4-0.6c0.7,0.7-0.2,0.5-0.1,1c-1.2-0.5,0.2-1.2-0.9-2c0.2,0.1,0.3,0.6,0,0.6c-0.1-0.2-0.3-0.6-0.2-0.8
	c-0.7-0.6-0.2,0.4-0.6,0.3c0.1-0.6-0.5-0.2-0.8-0.3l0.3-0.3c-0.6-0.9-0.8,0.4-1.2-0.4l0.7-0.1l-0.4-0.2l0.4-0.3
	c-0.6-0.1-0.7-0.3-0.9-0.7c-0.1,0.3-0.6,0.5-0.9,0.2c-0.1-0.4,0.4-0.2-0.1-0.6c0.3-0.1,0.6-0.2,0.6,0.3c0.1-0.1,0.3-0.1,0.4-0.2
	c0-0.4-0.6-0.6-0.7-0.8C76.9,33,77,33,77,33.1l-1.1-0.2c0-0.2,0.2-0.2,0.3-0.2c-0.2-0.1-0.4-0.1-0.6-0.2c0.3-0.2,0.5-0.4,0.9-0.3
	l-0.9-0.4c0.1-0.1-0.1-0.6,0.1-0.6c-0.2-0.5-1.3-0.4-1.6-1c-0.1,0-0.2,0-0.3,0c-0.4-0.5-0.5-1.1-1.3-1.3l0.1-0.7
	c-0.5-0.3-0.1,0.9-0.9,0.4c-0.6-0.3,0.2-0.5,0.1-0.8c-0.4,0-1.3,0-1.4-0.8c0.2,0.1,0.3,0.2,0.4,0.3l-0.1-0.6c0.8,0,0.9,0.4,0.9-0.2
	c-0.8,0.8-1.4-1.2-2.2-0.4l-0.1-0.4c0.1,0.1,0.1,0,0.2,0.1c-0.1-0.8-0.9,0.3-1.3-0.4c-0.1-0.2-0.2-0.5,0.1-0.5l-0.6-0.2
	c-0.1-0.1,0.1-0.2,0.2-0.1l-0.7-0.6l0,0c-0.2,0-0.6,0-0.8,0c-0.1-0.3,0.2,0,0.2-0.1L66,23.8c0.1-0.4,0.6-0.3,0.8,0
	c0.4-1.1-0.5-0.1-0.8-1.3l0.4,0.2c0.2-0.7-0.2-0.8-0.3-1.4c-0.1,0.2,0.1,1.5-0.5,1.3c-0.1-0.2-0.2-0.3-0.5-0.4
	c0.1-0.1,0.1-0.3,0.1-0.3c0,0-0.1-0.1-0.1-0.1c0,0-0.1-0.1-0.1-0.1c-0.1,0-0.1-0.1-0.2-0.1l0.4-0.4c-0.6-0.4-0.7-0.1-1.1-0.2
	c-0.1-0.1-0.2-0.2-0.2-0.3c0.7-0.1,0.1-0.7,1.7-0.5l-0.9,0.5l1.1-0.1l-0.2,0.4c1.2-0.3,1.5-0.2,2.7-0.1c-0.3-0.3,0.2-0.7,1.2-0.7
	c0.7,0.2-0.4,0.4,1.1,0.3c-0.3,0.2-0.7,0.5-1.3,0.2c-0.1,0.1-0.3,0.2-0.4,0.4c0.7,0.3,1.9,0.1,2.4,0.1c-0.2,0-0.4,0-0.6-0.1l2.1-0.5
	c0.3,0.1,0.1,0.3-0.2,0.4c0.4,0,0.7-0.2,1.3-0.2c-0.2,0.3-0.1,0.6-1,0.8l2-0.3c0.1,0.1,1,0.4,0.8,0.5c1.1,0.2,2.7-0.6,4.2-0.3
	c0.1-0.1,0.2-0.1,0.5-0.2c1.4,0.1,2.6,0.5,4.2,0.1l0.9,0.6c1.3-0.1-1.2-0.7,0.9-0.9c1.5-0.2,0.6,0.5,1.1,0.6
	c0.8-0.3,2.1-0.8,3.4-0.4c-0.5,0.1-0.8,0-1.2,0.1l1.1,0.3c-1.3,0.5-2.2,0.3-1.2,0.8c0.1-0.5,1.1-0.6,2.1-0.6c1.4,0,1,0,1.4-0.6l0,0
	c0,0.1,0,0.2,0.1,0.3c0-0.1-0.1,0-0.1-0.1c-0.1,0.6,0.8-0.3,1.9,1c0.4,0.5,0.6,0.9,0.2,0.7l1.1,0.8c0.3,0.3,0.1,0.4-0.2,0.1l1.5,1.4
	l0,0c0.3,0.1,1,0.4,1.3,0.5c0.3,0.5-0.3-0.1-0.3,0.1l1,0.6c0.1,0.5-0.7,0-1.3-0.5c0,1.5,0.9,0.5,2.1,2.5l-0.9-0.7
	c0.1,0.9,0.8,1.4,1.4,2.5c-0.1-0.3-1.1-2.4,0-1.7c0.2,0.3,0.5,0.7,1.1,1c-0.3,0.3,0.3,0.7,0.9,1.2l-0.4,0.3c0.7,0.5,0.9,0.3,1.4,0.5
	c0.7,0.7,0.5,1.1,0.5,1.5c1.1,1.2-0.3-1.2,1.1,0c0.8,1.1,1.6,1.6,2.9,2.5c0.5,0.8-0.3,0.1-0.2,0.4l0.9,0.3c0.1,0.1,0,0.2-0.1,0.2
	c0.6,0.4,0.4-0.3,1.3,0.3c0.6-0.2,1,2.1,2.4,2.6c0.1,0.3-0.3,0.1-0.4,0.3c0.8,0.5,1.2,0.8,1.4,0.8c0.2,0.1,0.4,0.1,1.1,0.4
	c0,0,0.2,0.7,0.2,0.6c0.1-0.4,1.1,0,2.6,0.9c0.1-0.2,0.1-0.4,0.1-0.5l1.8,1.4C119.3,43.7,118.8,43.5,118.2,43.2z M103.1,66.1
	C103.1,66.1,103.1,66.1,103.1,66.1C103.8,65.6,103.5,65.8,103.1,66.1z M86.7,22.2c0.4,0,0.9-0.1,1.2-0.1
	C87.1,22.2,86.6,21.6,86.7,22.2z M100.4,43.5L100.4,43.5L100.4,43.5L100.4,43.5z M94,22.9l0.1-0.6l-0.2,0.4L94,22.9z M118.3,47.5
	l1.5-0.5l-1.4,0.2L118.3,47.5z M67.5,91.1L67.5,91.1L67.5,91.1L67.5,91.1z M34.7,34c0-0.1,0-0.2,0-0.4C34.7,33.7,34.6,34,34.7,34z
	 M33.7,32.5c-0.3,0-0.3,0.4-0.5,0.3c0.2,0.2,0.4,0.3,0.7,0.5C33.7,33.1,33.7,32.9,33.7,32.5z M35.9,33.4c-0.2-0.4-0.4-0.2-0.7-0.4
	c0.4,0.7-0.3-0.1-0.2,0.5c-0.1-0.1-0.2-0.2-0.3-0.4c0,0.2,0,0.3,0,0.4l0,0l0,0l0,0c0-0.1,0-0.1,0,0c0,0,0,0,0,0c0,0,0.1,0,0.1,0
	c0,0.2-0.1,0.1-0.1,0c0,0,0,0-0.1,0l0,0l0.5,0.6c0-0.2-0.1-0.4-0.3-0.7C35.4,33.5,35.7,33.8,35.9,33.4z M35.7,35.1L35.7,35.1
	L35.7,35.1L35.7,35.1z M37.7,34.9c0.1,0,0.3,0,0.3-0.1c-0.3,0.1-0.8-0.2-0.6-0.7c-0.4-0.3-1.3,0.4-1.7,1c0.1,0,0.3-0.1,0.6,0.2
	c0.1-0.2,0-1,0.4-0.8c0.4,0.4,0.1,0.5,0,0.8c0.3-0.4,0.8,0.4,1.3,0L37.7,34.9z M34.3,33.5c-0.1-0.1-0.2-0.1-0.4-0.2
	C34,33.4,34.1,33.4,34.3,33.5z M57.3,23.2c-0.1,0-0.3,0.1-0.4,0.2L57.3,23.2z M34,31.8L34,31.8C34.1,31.8,34.1,31.8,34,31.8z
	 M34.6,32.4c0-0.2-0.1-0.3-0.3-0.3C34.4,32.2,34.5,32.3,34.6,32.4C34.6,32.4,34.6,32.4,34.6,32.4z M34,32c0.1,0.1,0.2,0.1,0.3,0.1
	C34.2,32,34.1,31.9,34,32C34,31.9,34,31.9,34,32z M34,32C34,32,34,31.9,34,32C33.9,32,34,32,34,32z M35.4,34.4l-0.1-0.1
	c0,0.2,0,0.4-0.2,0.7c0.3,0.2,0.4,0.2,0.5,0.2L35.4,34.4L35.4,34.4z M37.8,39.7c0-0.2-0.4,0.1-0.3,0C37,39.8,38.3,40.3,37.8,39.7z
	 M87.6,31C87.7,31,87.7,31,87.6,31C87.7,31,87.6,31,87.6,31z M94.4,25.5c0,0,0.1-0.1,0.1-0.3C94.5,25.2,94.4,25.4,94.4,25.5z
	 M65.7,21.6v-0.4l-0.1,0.1C65.5,21.4,65.6,21.4,65.7,21.6z M68.8,25.4l0.3-0.4L69,24.9L68.8,25.4z M35.5,35.3l-0.4,0.1l0.7,0.1
	L35.5,35.3z M74.2,30.2l0.4-0.1C74.4,29.8,74.4,30,74.2,30.2z M82.5,39.8C82.5,39.8,82.5,39.9,82.5,39.8
	C82.6,39.8,82.6,39.8,82.5,39.8z M67.3,24l-0.1,0.1C67.3,24.1,67.4,24,67.3,24z M36.6,37.6c-0.1,0-0.2,0.2-0.2,0.1l0.3,0.3
	C36.5,37.8,36.5,37.7,36.6,37.6z M72.6,27.5c-0.1-0.1-0.3-0.2-0.4-0.3C72.4,27.3,72.2,27.9,72.6,27.5z M33.2,31.6l-0.4-0.1l0.6,0.2
	L33.2,31.6z M35.9,36.3l0-0.2l-0.3,0.1L35.9,36.3z M95.5,24.1l0.3-0.3L95.5,24L95.5,24.1z M65.3,27.4c0.1,0,0.2,0,0.3,0
	C65.4,27.3,65.3,27.3,65.3,27.4z M51.4,37.2L51,37c-0.1,0.2-0.2,0.3-0.3,0.4C51.1,37.3,51.7,37.4,51.4,37.2z M34.3,32.7
	c0.2,0.1,0.3,0.3,0.4,0.5c0-0.2-0.1-0.5-0.2-0.7C34.4,32.5,34.2,32.5,34.3,32.7z M41.8,41.4c0.1-0.1,0.4-0.1,0.2-0.4
	C41.9,41.1,41.7,40.9,41.8,41.4z M38.4,37.9c-0.1,0-0.1,0-0.2,0C38.3,37.9,38.3,37.9,38.4,37.9z M41.1,40.9l0.4-0.4l-0.2,0
	C41.2,40.7,41.1,40.8,41.1,40.9z M47.3,35c0.1,0.2,0.4-0.2,0.5,0c0-0.4,0.3-0.5-0.3-0.7C47,34.7,47.8,34.8,47.3,35z M47.8,35.1
	c0,0.1,0,0.1,0,0.2C47.8,35.2,47.8,35.1,47.8,35.1z M41.1,42.9l0.3,0.3c0.1-0.1,0.1-0.4,0-0.5C41.2,42.8,41.1,42.7,41.1,42.9z
	 M38.5,37.4c0,0.1,0.1,0.2,0.2,0.3C38.6,37.6,38.6,37.4,38.5,37.4z M38.7,37.7c0.1,0.3,0.2,0.6,0.3,0.5l-0.1-0.5
	C38.8,37.8,38.8,37.8,38.7,37.7z M37.3,36.1c0-0.1-0.1-0.1-0.1-0.2C37,35.9,37.1,36,37.3,36.1z M37.3,36.2c-0.5,0.1-0.2,0.3,0.1,0.5
	C37.7,36.6,37.5,36.4,37.3,36.2C37.3,36.2,37.3,36.2,37.3,36.2z M38.7,36.6l0,0.2l0.1,0.3L38.7,36.6z M45.2,40.7L45.2,40.7l0.5,0.7
	c0,0-0.1-0.2-0.3-0.4C45.3,40.9,45.2,40.7,45.2,40.7z M43.9,40c0.1,0,0.1,0,0.2,0.1C44.1,40,44,40,43.9,40z M43.3,43.4L43.3,43.4
	C43.3,43.3,43.3,43.3,43.3,43.4z M50.6,31.2C50.6,31.2,50.6,31.3,50.6,31.2L50.6,31.2L50.6,31.2z M50.8,30.5c0.2,0.5,0,0.6-0.2,0.7
	l1,0.5L50.8,30.5z M57,23.4c0.1,0,0.1,0,0.2,0.1C57.2,23.4,57.1,23.4,57,23.4z M74.2,30.2L74.2,30.2C74.2,30.2,74.2,30.2,74.2,30.2
	L74.2,30.2z M58,24.8c0-0.1,0-0.2,0-0.4c0,0-0.1,0-0.1,0C57.9,24.5,57.9,24.6,58,24.8z M37.2,39.1c0-0.1,0-0.1,0-0.2
	C37.1,38.9,37.1,39,37.2,39.1z M37.3,39c0,0.1,0,0.2,0,0.3C37.4,39.2,37.4,39.1,37.3,39z M37.3,39.3C37.2,39.2,37.3,39.3,37.3,39.3
	L37.3,39.3z M37.4,39.5c-0.1-0.1-0.1-0.2-0.1-0.3c0,0,0,0.1,0,0.1C37.3,39.4,37.4,39.4,37.4,39.5z M32.5,28.3l-0.2-0.1
	C32.3,28.2,32.3,28.2,32.5,28.3z M31.5,24.2l0.1-0.1l-0.5,0c0.3,0.5,0.9,1,0.9,1.4C32.4,25,31.5,24.7,31.5,24.2z M31.3,27.1
	C31.2,26.8,31.2,27.3,31.3,27.1L31.3,27.1z M30.9,23.2l-0.1,0l0.5,0.2L30.9,23.2z M32.6,25.4l0-0.3l-0.3-0.1
	C32.5,25,32.4,25.5,32.6,25.4z M31.3,27C31.3,27,31.3,27,31.3,27c0,0.1,0,0.2,0.1,0.3C31.6,27.1,31.7,27.5,31.3,27z M33,29.9
	l-0.2-0.2c0,0.2,0,0.4-0.1,0.5C32.7,30.2,32.9,30,33,29.9z M33,29.9l0.4,0.3C33.2,29.9,33.1,29.8,33,29.9z M38.3,36.1L38,36.3h0.4
	L38.3,36.1z M33.2,28.1L33.1,28l-0.7-0.4L33.2,28.1z M32.3,27.3C32,26.8,31.6,27,32,27.6C32,27.4,32,27.1,32.3,27.3z M31.5,28.3
	c0.3,0.3,0.3,0.2,0.5-0.1l-0.3-0.2C31.5,28,31.6,28.3,31.5,28.3z M32.2,28c0.2,0,0,0-0.2-0.1l0.3,0.3C32.4,28,32.6,27.9,32.2,28z
	 M34.8,29.5c-0.1,0-0.2,0-0.3-0.2c0-0.2,0.2-0.1,0.3-0.1c-0.1-0.1-0.4-0.3-0.4,0.1l0.1,0c0,0.3-0.1,0.7-0.2,0.8
	C34.5,30,34.7,29.8,34.8,29.5z M33.6,30.8L33.6,30.8C33.6,30.8,33.6,30.8,33.6,30.8z M34.9,29.1C34.9,29.1,34.9,29.1,34.9,29.1
	C34.9,29.2,34.9,29.2,34.9,29.1z M37.1,33.4c-0.1,0-0.1-0.1-0.1-0.1l-0.2,0.1C36.9,33.6,37.2,33.7,37.1,33.4z M35.6,31.6l-0.2,0.1
	c-0.1-0.4-0.3-0.2-0.4-0.2l0.4,0.5L35.6,31.6z M34.1,30.6l-0.2-0.1l0,0.2L34.1,30.6z M33.7,31L33.7,31c0.1,0.2,0.1,0.3,0.1,0.3
	C33.8,31.2,33.7,31.1,33.7,31z M33.8,30c-0.1,0-0.2,0.2-0.3,0.1l0.4,0.3L33.8,30z M34,29c-0.3,0-0.3,0.3-0.8,0.1
	C33.5,29.2,33.9,29.6,34,29z M33.7,31c0,0,0-0.1-0.1-0.1c-0.1,0.1-0.2,0.2-0.2,0.4L33.7,31z"/>
</svg>
