<?xml version="1.0" encoding="utf-8"?>
<!-- Generator: Adobe Illustrator 21.0.0, SVG Export Plug-In . SVG Version: 6.00 Build 0)  -->
<svg version="1.1" id="Слой_1" xmlns="http://www.w3.org/2000/svg" xmlns:xlink="http://www.w3.org/1999/xlink" x="0px" y="0px"
	 viewBox="0 0 125 125" style="enable-background:new 0 0 125 125;" xml:space="preserve">
<style type="text/css">
	.st0{fill:#3F8CCB;}
	.st1{fill:#034EA1;}
	.st2{fill:#F05A22;}
	.st3{fill:#3EBEB8;}
	.st4{fill:#F9A51A;}
</style>
<path class="st3" d="M106.3,30.9c0.1,0,0.1,0.1,0.2,0.1C106.5,30.9,106.5,30.8,106.3,30.9z M97.1,33.8L97.1,33.8
	C97.2,33.9,97.2,33.9,97.1,33.8z M94.8,36.3c-0.1-0.1-0.2-0.2-0.3-0.3C94.6,36.2,94.7,36.3,94.8,36.3z M106,30.9
	C106.2,30.8,106.1,30.8,106,30.9L106,30.9z M84.3,38.3C84.4,38.2,84.4,38.2,84.3,38.3L84.3,38.3L84.3,38.3z M83.8,37.8
	c0.1,0.5,0.2,1,0.2,1c0-0.7,0.2-0.7,0.4-0.6l-0.7-1.5C83.6,36.8,83.7,37.3,83.8,37.8z M113.2,48.1C113.2,48.1,113.3,48.1,113.2,48.1
	C113.3,48.1,113.2,48.1,113.2,48.1z M105.8,30.8c0.1,0,0.2,0,0.3,0.1c0,0,0-0.1,0-0.1C106,30.9,105.9,30.9,105.8,30.8z M106.3,31.1
	c-0.1-0.1-0.1-0.1-0.2-0.2C106.1,31,106.2,31.1,106.3,31.1z M77,53.3c-0.1,0-0.2,0-0.2,0c0.1,0,0.3,0,0.4,0
	C77.3,53.3,77.1,53.3,77,53.3z M80.4,58.2l-0.1,0.2C80.4,58.3,80.4,58.3,80.4,58.2z M78.3,52.9c0.2,0,0.3-0.1,0.3-0.2
	C78.4,52.7,78.3,52.7,78.3,52.9z M100.4,30.8c-0.2-0.2-0.4-0.3-0.6-0.4C100.1,30.7,100.3,31.2,100.4,30.8z M76.8,41.9
	c0.1,0.1,0.2,0.2,0.3,0.2C77,42.1,76.9,42,76.8,41.9z M122.7,47.7c0.1-0.1,0.1-0.2,0.2-0.4C122.8,47.4,122.7,47.5,122.7,47.7z
	 M76.8,52.9c0.1,0.1,0.2,0.2,0.3,0.2C76.9,53,76.9,53,76.8,52.9z M100,52.3C100,52.3,100,52.3,100,52.3
	C100.2,52.1,100.1,52.2,100,52.3z M80.4,47.3l-0.2,0.2C80.4,47.4,80.4,47.3,80.4,47.3z M77,42.3c-0.1,0-0.2,0-0.2,0
	c0.1,0,0.3,0,0.4,0C77.3,42.3,77.1,42.3,77,42.3z M88,49.5C88,49.5,88,49.5,88,49.5C88,49.5,88,49.5,88,49.5L88,49.5z M88.1,49.4
	l0.3-0.5C88.1,48.8,88.1,49.2,88.1,49.4z M115.2,36.9c0-0.1,0-0.1,0-0.1C115.2,36.8,115.1,36.8,115.2,36.9z M115.5,33.8L115.5,33.8
	C115.4,33.8,115.4,33.8,115.5,33.8z M116,34.3l-0.6,0.1l0.4,0.3C115.8,34.6,115.8,34.4,116,34.3z M88,60.5C88,60.5,88,60.5,88,60.5
	C88,60.5,88,60.4,88,60.5L88,60.5z M115.6,32.2l-0.7,0.5l0.3-0.1L115.6,32.2z M115.3,33.1l-0.1,0.6c0,0,0.1,0,0.2,0.1
	C115.4,33.6,115.5,33.3,115.3,33.1z M116.8,33.3c-0.1,0.2-0.1,0.5-0.2,0.8l0.4-0.1C116.9,33.8,116.7,33.5,116.8,33.3z M116.8,35.1
	c-0.4,0.2-1,0.2-0.7,0.9C116.4,35.7,116.3,35.4,116.8,35.1z M116.6,34l-0.5,0.1C116.4,34.3,116.5,34.2,116.6,34z M115.2,35.2
	c0,0,0-0.1,0-0.1C115.2,35.1,115.2,35.1,115.2,35.2z M115.6,36.2L115.6,36.2c-0.3-0.2-0.4-0.8-0.4-1c-0.1,0.4-0.1,0.8-0.2,1.3
	c0.1,0,0.2-0.2,0.4-0.1c0.1,0.2-0.1,0.2-0.2,0.4C115.4,36.7,115.8,36.6,115.6,36.2z M115.1,34.6l0.3-0.1l-0.1-0.1L115.1,34.6z
	 M113.5,32.8c-0.3,0.2-0.5,0.1-0.7,0.1c0.2,0.2,0.4,0.3,0.7,0.4C113.6,33.1,113.8,32.9,113.5,32.8z M110.5,32.2c0,0,0,0.1,0,0.1
	L110.5,32.2L110.5,32.2z M112.2,32.1c0.1,0.1,0.1,0.3,0.2,0.4C112.4,32.3,112.3,32,112.2,32.1z M115.3,33.7
	c-0.2-0.1-0.3-0.1-0.3-0.2C115,33.5,115.1,33.6,115.3,33.7L115.3,33.7z M114.3,33.1C114.3,33.1,114.3,33.1,114.3,33.1
	C114.3,33,114.3,33,114.3,33.1z M114.2,32.2c0.3-0.3,0-0.7,0.2-0.8c-0.3,0-0.7,0.2-1,0.4C113.7,31.7,113.9,31.8,114.2,32.2z
	 M109.8,31.3l-0.3,0.2l0.2,0.2L109.8,31.3z M112.9,32.1c0.1-0.1,0.3-0.2,0.5-0.3C113.3,31.8,113.1,31.9,112.9,32.1z M110.8,31.4
	l-0.6,0.7l0.4-0.2L110.8,31.4z M124.2,45.6c0,0,0.1-0.1,0.2-0.3c0.1-0.1,0.2-0.3,0.2-0.3s-0.1,0.1-0.3,0.2c-0.1,0.1-0.3,0.2-0.3,0.2
	L124.2,45.6z M124.2,67.5c0,0,0.1-0.1,0.2-0.3c0.1-0.1,0.2-0.3,0.2-0.3s-0.1,0.1-0.3,0.2c-0.1,0.1-0.3,0.2-0.3,0.2L124.2,67.5z
	 M123.9,66c-0.2-0.1-0.4-0.2-0.4-0.2c0,0.1,0.1,0.4-0.1,0.5l0.8-0.1C124.3,66.2,124.1,66.1,123.9,66z M124.2,78.5
	c0,0,0.1-0.1,0.2-0.3c0.1-0.1,0.2-0.3,0.2-0.3s-0.1,0.1-0.3,0.2c-0.1,0.1-0.3,0.2-0.3,0.2L124.2,78.5z M123.9,77
	c-0.2-0.1-0.4-0.2-0.4-0.2c0,0.1,0.1,0.4-0.1,0.5l0.8-0.1C124.3,77.2,124.1,77.1,123.9,77z M124.2,56.5c0,0,0.1-0.1,0.2-0.3
	c0.1-0.1,0.2-0.3,0.2-0.3s-0.1,0.1-0.3,0.2c-0.1,0.1-0.3,0.2-0.3,0.2L124.2,56.5z M125,43.9c-0.1-0.5-0.7-0.2-0.6-0.2
	C124.4,43.9,124.9,43.8,125,43.9z M118.1,36c0.2-0.1,0.5-0.1,0.5-0.1S118.3,35.9,118.1,36c-0.3,0-0.6,0.1-0.6,0.1l0.1,0.1
	C117.6,36.1,117.8,36,118.1,36z M123.4,44.3l0.8-0.1c0,0-0.2-0.1-0.4-0.2c-0.2-0.1-0.4-0.2-0.4-0.2C123.6,44,123.6,44.3,123.4,44.3z
	 M123.9,55c-0.2-0.1-0.4-0.2-0.4-0.2c0,0.1,0.1,0.4-0.1,0.5l0.8-0.1C124.3,55.2,124.1,55.1,123.9,55z M114.3,33.1
	c-0.1,0-0.2,0.1-0.4,0.2c0.1,0,0.2,0,0.4-0.1C114.3,33.2,114.3,33.2,114.3,33.1z M119.4,34.8c0-0.2-0.3-0.5-0.1-0.5
	c-0.5-0.1-0.5,0.1-0.5,0.6L119.4,34.8z M118.2,35.3l0.3,0C118.4,35.2,118.4,35.1,118.2,35.3z M118.6,35.3c-0.2,0.2,0,0,0.3,0l-0.5,0
	C118.4,35.4,118.2,35.7,118.6,35.3z M122.1,40.2l0.2-0.1c0,0-0.2,0-0.4-0.1c-0.2,0-0.4-0.1-0.4-0.1L122.1,40.2z M119.1,35.5
	c0.1,0.3,0.3,0.6-0.3,0.6C119.6,36.4,119.9,35.9,119.1,35.5z M120.2,35.6C120.5,35.7,120.2,35.2,120.2,35.6L120.2,35.6z M119.3,38.5
	l0,0.4l0.4-0.1C119.6,38.9,119.5,38.3,119.3,38.5z M120.1,37.9c-0.4,0.8,0.9,0.6,1,1.3l-0.1,0.2c0,0,0.2-0.1,0.4-0.1
	c0.2-0.1,0.4-0.1,0.4-0.1C121.2,38.6,120.2,38.4,120.1,37.9z M120.2,35.6c-0.1,0-0.1-0.1-0.3-0.2c-0.1,0.4-0.5,0,0.3,0.3
	C120.2,35.6,120.2,35.6,120.2,35.6z M122.7,80.6c0.1-0.1,0.1-0.2,0.2-0.4C122.8,80.3,122.7,80.5,122.7,80.6z M100,85.2
	C100,85.2,100,85.2,100,85.2C100.2,85,100.1,85.1,100,85.2z M88.1,82.3l0.3-0.5C88.1,81.8,88.1,82.1,88.1,82.3z M113.2,81
	C113.2,81,113.3,81,113.2,81C113.3,81,113.2,81,113.2,81z M99,30.4c0,0.1,0.1,0.1,0.1,0.1c0.2-0.1,0.4-0.2,0.6-0.1
	C99.5,30.1,99.3,30,99,30.4z M76.8,74.9c0.1,0.1,0.2,0.2,0.3,0.2C77,75,76.9,74.9,76.8,74.9z M78.3,85.8c0.2,0,0.3-0.1,0.3-0.2
	C78.4,85.6,78.3,85.7,78.3,85.8z M88,82.4C88,82.4,88,82.4,88,82.4C88,82.4,88,82.4,88,82.4L88,82.4z M77,75.2c-0.1,0-0.2,0-0.2,0
	c0.1,0,0.3,0,0.4,0C77.3,75.2,77.1,75.2,77,75.2z M80.4,80.2l-0.2,0.2C80.4,80.3,80.4,80.2,80.4,80.2z M114.3,33.3L114.3,33.3
	C114.3,33.3,114.3,33.4,114.3,33.3z M122.7,92.1c0.1-0.1,0.1-0.2,0.2-0.4C122.8,91.7,122.7,91.9,122.7,92.1z M113.2,92.5
	C113.2,92.5,113.3,92.5,113.2,92.5C113.3,92.4,113.2,92.5,113.2,92.5z M78.3,97.2c0.2,0,0.3-0.1,0.3-0.2
	C78.4,97.1,78.3,97.1,78.3,97.2z M100,96.7C100,96.7,100,96.7,100,96.7C100.2,96.5,100.1,96.5,100,96.7z M88,93.9
	C88,93.9,88,93.9,88,93.9C88,93.9,88,93.8,88,93.9L88,93.9z M80.4,91.6l-0.2,0.2C80.4,91.7,80.4,91.7,80.4,91.6z M78.3,74.8
	c0.2,0,0.3-0.1,0.3-0.2C78.4,74.6,78.3,74.7,78.3,74.8z M77,86.7c-0.1,0-0.2,0-0.2,0c0.1,0,0.3,0,0.4,0C77.3,86.7,77.1,86.7,77,86.7
	z M76.8,86.3c0.1,0.1,0.2,0.2,0.3,0.2C77,86.4,76.9,86.4,76.8,86.3z M88.1,93.8l0.3-0.5C88.1,93.2,88.1,93.5,88.1,93.8z M122.7,69.6
	c0.1-0.1,0.1-0.2,0.2-0.4C122.8,69.3,122.7,69.5,122.7,69.6z M110.7,35.5c0.1-0.1,0.1,0,0.2,0l0.1-0.3
	C110.7,35.1,110.4,35.3,110.7,35.5z M108.6,33.4c0.1,0,0.2,0,0.3,0C109,33.1,108.8,33.3,108.6,33.4z M108,31.3c0-0.1,0-0.4,0.1-0.3
	l-0.4,0.1C107.8,31,107.9,31.2,108,31.3z M108.7,35.2l0.5-0.2c0,0.1-0.2,0.3-0.1,0.5c0.1-0.5,0.7-0.8,1-0.2c0.5-0.3,0.7-1.9,0.5-2.9
	c-0.1,0.2-0.1,0.4-0.6,0.6c0.1,0.3,0.7,0.9,0.3,1.2c-0.6,0.1-0.4-0.3-0.6-0.6C109.7,34.2,108.8,34.3,108.7,35.2z M105.4,31.2
	c0.1,0.2,0.2-0.6,0.2-0.4C105.8,30.1,104.6,31.4,105.4,31.2z M113.5,33.4c0.1,0.2,0.3,0.1,0.5,0c-0.2,0-0.3,0-0.5-0.1
	C113.4,33.3,113.4,33.4,113.5,33.4z M111.6,34c0.5,0.1,0.5-0.3,0.8-0.5c-0.8-0.1,0.3-0.2-0.2-0.7c0.2,0,0.3,0,0.5,0
	c-0.1-0.1-0.2-0.2-0.3-0.4c0,0,0,0,0,0l0,0l0,0c0,0.1,0,0.1,0,0.1c0,0,0,0,0,0c0,0.1-0.1,0.1-0.1,0.2c-0.2-0.2,0-0.1,0.1-0.2l0-0.1
	l0,0l-0.9,0c0.2,0.1,0.4,0.2,0.8,0.2C112,33.3,111.5,33.4,111.6,34z M111.3,32.6l0.2,0c-0.2-0.1-0.3-0.4-0.4-0.8
	c-0.4,0.2-0.5,0.3-0.5,0.5L111.3,32.6L111.3,32.6z M113.1,35.3l0.1-0.3c0.3,0.2,0.4-0.1,0.5-0.3l-0.7,0L113.1,35.3z M88,71.5
	C88,71.5,88,71.5,88,71.5C88,71.4,88,71.4,88,71.5L88,71.5z M100,74.2C100,74.3,100,74.3,100,74.2C100.2,74.1,100.1,74.1,100,74.2z
	 M88.1,71.4l0.3-0.5C88.1,70.8,88.1,71.1,88.1,71.4z M113.2,70.1C113.2,70.1,113.3,70.1,113.2,70.1C113.3,70,113.2,70,113.2,70.1z
	 M80.4,69.2l-0.2,0.2C80.4,69.3,80.4,69.2,80.4,69.2z M76.8,63.9c0.1,0.1,0.2,0.2,0.3,0.2C77,64,76.9,64,76.8,63.9z M78.3,63.8
	c0.2,0,0.3-0.1,0.3-0.2C78.4,63.7,78.3,63.7,78.3,63.8z M122.7,58.7c0.1-0.1,0.1-0.2,0.2-0.4C122.8,58.3,122.7,58.5,122.7,58.7z
	 M77,64.2c-0.1,0-0.2,0-0.2,0c0.1,0,0.3,0,0.4,0C77.3,64.2,77.1,64.2,77,64.2z M105.9,33.9l0.4,0.2c0-0.1,0.1-0.2,0.2-0.2
	C106.2,33.9,105.9,33.7,105.9,33.9z M79.2,45.3c0,0,0-0.1,0.1-0.2c0.1-0.1,0.1-0.2,0.1-0.2L79.3,45C79.2,45.2,79.2,45.2,79.2,45.3z
	 M82.1,47.3L82.1,47.3L81.9,48L82.1,47.3z M88.9,37.6c0.1-0.3-0.4-0.2-0.4-0.5c-0.3,0.4-0.5,0.2-0.1,1
	C88.9,38.3,88.3,37.3,88.9,37.6z M122.1,51.2l0.2-0.1c0,0-0.2,0-0.4-0.1c-0.2,0-0.4-0.1-0.4-0.1L122.1,51.2z M85.3,47.6
	c0.3,0,0.2,0.9,0.5,0C85.6,47.5,85.4,47.7,85.3,47.6z M85.3,58.6c0.3,0,0.2,0.9,0.5,0C85.6,58.5,85.4,58.6,85.3,58.6z M79.2,56.3
	c0,0,0-0.1,0.1-0.2c0.1-0.1,0.1-0.2,0.1-0.2L79.3,56C79.2,56.1,79.2,56.2,79.2,56.3z M123.9,88.4c-0.2-0.1-0.4-0.2-0.4-0.2
	c0,0.1,0.1,0.4-0.1,0.5l0.8-0.1C124.3,88.6,124.1,88.5,123.9,88.4z M88.5,37.1c0-0.1,0.1-0.1,0.1-0.2C88.6,36.9,88.5,37,88.5,37.1z
	 M82.1,58.3L82.1,58.3l-0.3,0.7L82.1,58.3z M101.2,33.2l-0.5,0.2c-0.1,0.2,0.1,0.4,0.2,0.3C101,33.5,101.2,33.5,101.2,33.2z
	 M106.8,33.9c-0.1,0-0.2,0-0.4,0C106.6,34,106.7,34,106.8,33.9z M94.1,34.2L94,32.9l0,1.3L94.1,34.2z M107.9,34.7l0-0.6l-0.3,0.5
	L107.9,34.7z M88.1,60.4l0.3-0.5C88.1,59.8,88.1,60.1,88.1,60.4z M108.1,33c-0.1,0.5,0.2,0.4,0.5,0.4c0,0,0,0,0,0
	C108.8,32.7,108.4,32.8,108.1,33z M107.3,34.8l-0.1-0.2l-0.3-0.1L107.3,34.8z M124.1,89.7l0.1,0.2c0,0,0.1-0.1,0.2-0.3
	c0.1-0.1,0.2-0.3,0.2-0.3s-0.1,0.1-0.3,0.2C124.2,89.6,124.1,89.7,124.1,89.7z M101,35.8c0.1-0.2,0.5-0.4,0.1-0.6
	C101,35.4,100.4,35.8,101,35.8z M106.6,33.2c-0.1,0.1-0.1,0.1-0.1,0.3C106.5,33.3,106.6,33.2,106.6,33.2z M102.2,35.4l0.2-0.3
	c-0.1-0.1-0.1-0.3-0.2-0.5L102.2,35.4z M82.1,80.2L82.1,80.2l-0.3,0.7L82.1,80.2z M124.4,76.6c0,0.3,0.5,0.2,0.6,0.2
	C124.8,76.3,124.2,76.6,124.4,76.6z M85.3,69.5c0.3,0,0.2,0.9,0.5,0C85.6,69.5,85.4,69.6,85.3,69.5z M122.1,62.2l0.2-0.1
	c0,0-0.2,0-0.4-0.1c-0.2,0-0.4-0.1-0.4-0.1L122.1,62.2z M79.2,89.7c0,0,0-0.1,0.1-0.2c0.1-0.1,0.1-0.2,0.1-0.2l-0.1,0.1
	C79.2,89.5,79.2,89.6,79.2,89.7z M124.4,65.6c0,0.3,0.5,0.2,0.6,0.2C124.8,65.3,124.2,65.6,124.4,65.6z M124.4,88
	c0,0.3,0.5,0.2,0.6,0.2C124.8,87.8,124.2,88.1,124.4,88z M113.2,59.1C113.2,59.1,113.3,59.1,113.2,59.1
	C113.3,59,113.2,59.1,113.2,59.1z M100,63.3C100,63.3,100,63.3,100,63.3C100.2,63.1,100.1,63.1,100,63.3z M124.4,54.6
	c0,0.3,0.5,0.2,0.6,0.2C124.8,54.4,124.2,54.7,124.4,54.6z M87.5,31.5c-0.4-0.4-0.9-1.1-0.7-0.5l0.2,0.5
	C87.2,31.4,87.3,31.4,87.5,31.5z M123.3,57.4c-0.3-0.3-0.2-0.6-0.2-1c0.1-0.4,0.1-0.7-0.3-0.9l0.1,0.5c-0.4-0.4-1-0.2-1.6-0.1
	c-0.6,0.1-1.2,0.1-1.8-0.1c0.5,0.3,0,0.4-0.4,0.5c-0.4,0.1-0.8,0.1-0.3,0.8c-0.3,0-0.2-0.3-0.5-0.4c0.3,0.4,0.3,0.7-0.1,0.8
	l-0.1-0.1c-0.6,0.8-1.3,0.7-2.4,1l0.4,0.5c-0.3,0.1-0.4-0.1-0.6-0.1c0.2,0.9,0.7-0.3,1,0.7c-0.5-0.4-0.9-0.2-1.3,0
	c-0.4,0.2-0.8,0.3-1.2-0.2c-0.4,0.2,0.4,0.6,0,0.7l-0.3-0.3l0.1,0.5c-0.3,0-0.6-0.3-0.7-0.6c0.1,0,0.1-0.2,0.2-0.2
	c-0.5-0.3-0.8,0.5-1,0.4l0.5,0.1c-0.9,0.8-2.4,0.7-3.3,1.7l0.2,0.3c-0.7,0.7-0.8-0.1-1.7,0.3l0-0.1c-0.1,0.3-0.4,0.5-0.6,0.5
	c0.2-0.4-0.6-0.6-0.3-1c-0.8,0.7-0.4,0.5-0.8,1.7l-0.2-0.4c-0.1,0.5-0.1,0.7-0.6,0.9c0.3-0.5-0.4-0.7,0-1.3c-1.1-0.9-1.4,1.2-2-0.2
	c-0.3,1.4,1,0.6,0.7,0.9c0.3,0.4-0.3,1-0.6,0.9c-0.3,0-0.7-1.6-1.5-1.5c0.1,0,0.1-0.1,0.2-0.1c-0.3-0.3-0.6,0.5-1,0
	c-0.2,0.8-0.5,0-0.5,1l0.8-0.3c-0.4,0.3-0.8,1.5-1.5,1c0.1-0.2,0.3-0.5,0.4-0.6c-0.2-0.3-0.4,0.2-0.6-0.1c0-1,0.9-0.2,1.3-1.1
	c-0.2-0.4-0.8,0.8-0.6-0.3c-0.3,1.4-0.8-0.1-1.3,0.9l0-0.6c-0.1,0.1-0.3,0.4-0.4,0.4l0.3-0.8c-0.4,0.7-0.9-0.6-1.3-0.2
	c0.9,0,0.2,0.7,0.6,1.2c-1.1,0.8-0.6-1.6-1.9-1.3c0.2-0.1,0.6,0.4,0.3,0.7c-0.2-0.1-0.5-0.4-0.7-0.7c-0.8,0.1,0.1,0.6-0.3,1
	c-0.2-0.8-0.4,0.3-0.8,0.5l0-0.6c-0.9-0.5-0.3,1.3-1.2,0.7l0.4-0.8l-0.5,0.2l0.1-0.7c-0.5,0.5-0.7,0.3-1.1,0.1
	c0.1,0.4-0.2,1.1-0.6,1.1c-0.2-0.4,0.2-0.6-0.4-0.5c0.2-0.4,0.4-0.8,0.6-0.2c0-0.2,0.2-0.4,0.2-0.6c-0.3-0.5-0.7-0.2-0.9-0.2
	c0.1,0,0.2,0.1,0.2,0.2c0,0-0.2,0.2-0.5,0.4c-0.2,0.2-0.5,0.4-0.5,0.4c-0.1-0.2,0-0.4,0.2-0.6c-0.2,0-0.3,0.3-0.6,0.3
	c0.1-0.5,0.2-1,0.6-1.2l-0.9,0.4c0-0.2-0.3-0.7-0.2-0.8c-0.4-0.4-1.2,0.8-1.7,0.3c0,0.1-0.1,0.2-0.3,0.2c-0.5-0.2-0.8-0.9-1.6-0.4
	l-0.1-1c-0.5,0.1,0.2,1.2-0.7,1.3c-0.7,0.1,0-0.8-0.1-1.1c-0.4,0.4-1.2,1.1-1.5,0.2c0.2-0.1,0.3,0.1,0.5,0.1L84,59.2
	c0.7-0.6,1-0.2,0.8-1c-0.6,1.6-1.5-0.3-2.2,1.2L82.6,59c0.1,0,0.1,0,0.2,0c-0.1-1-0.8,1-1.4,0.5c-0.2-0.2-0.2-0.5,0.1-0.6L80.8,59
	c-0.1-0.1,0.1-0.3,0.2-0.3l-0.7-0.2l0,0c-0.2,0.2-0.7,0.4-0.9,0.5c0-0.3,0.2-0.1,0.3-0.3c0,0-0.1,0-0.3,0.1c-0.1,0-0.3,0.1-0.3,0.1
	c0.1-0.5,0.6-0.6,0.8-0.4c0.3-0.8,0.2-0.8,0-0.7c-0.2,0.1-0.6,0.2-0.6-0.4l0.4,0c0.4-0.9,0-0.8,0.1-1.5c-0.1,0.1-0.2,0.5-0.4,0.9
	c-0.1,0.4-0.3,0.8-0.6,0.8c0-0.2-0.1-0.3-0.5-0.2c0.4-0.5,0.2-0.5,0-0.6l0.6-0.6c-0.3,0-0.6,0.3-1,0.4c-0.1-0.3,0.4-0.7,0.7-1.1
	c0-0.2-0.2,0-0.4,0.2c-0.2,0.2-0.4,0.5-0.6,0.3c0.1-0.5-0.2-0.3-0.8-0.5c0.2-0.3,0.5-0.1,0.7-0.2c0,0-0.7,0-0.7,0
	c0,0,0.2-0.1,0.3-0.1c-0.3-0.1-0.8,0.2-1.1-0.1c-0.4,0-0.1-0.2,0.2-0.4c0.3-0.2,0.6-0.3,0.2-0.5c0.2,0,0.5,0.1,0.8,0.2
	c-0.3-0.2-0.4-0.4-0.5-0.5c-0.1-0.1-0.3-0.3-0.6-0.6c0,0,0.2,0,0.3,0c0.2,0,0.3,0,0.3,0c-0.7-0.1-1.1-0.8-1.3-1.5
	c-0.2,0-0.3-0.1-0.5-0.1c0.1-0.1,0.1-0.2,0.2-0.3c0.1,0,0.1,0,0.2,0c0,0.1,0.1,0.2,0.1,0.3c0.1,0,0.1,0,0.2,0
	c-0.1-0.1-0.2-0.3-0.2-0.4c0,0,0,0,0.1,0c0.2,0,0.3,0,0.4,0.1c0.1,0.1,0.2,0.3,0.3,0.5c-0.2,0-0.4-0.1-0.5-0.1
	c0.3,0.4,0.6,0.9,1.1,1.1c-0.1-0.1-0.1-0.2-0.1-0.3c0.1,0.1,0.2,0.2,0.2,0.2c0.1,0,0-0.1-0.1-0.3c0,0,0.2,0.1,0.4,0.2
	c0.2,0.1,0.4,0.2,0.4,0.2l-0.3-0.3c0,0,0.2,0,0.4-0.1c0.2,0,0.4,0,0.4,0c0,0,0-0.1,0-0.1c0.1,0,0.3,0,0.4-0.2c0,0.1,0,0.2,0,0.3
	c0.5-0.1,1.3,0.1,1.8-0.3c-0.3,1,0.4,1,1,1c0.6-0.1,1.1-0.2,0.8,0.7c0,0,0.3,0.1,0.6,0.1c0.3,0.1,0.6,0.1,0.6,0.1l-0.1,0.2
	c0.7,0.3,1,0,1.4-0.4c0.1,0.2,0,0.3-0.1,0.4c0.9,0.7,1.1,0.6,2.1-0.2L86.6,55c0.3-0.3,1.3,1.3,2.4,0.7c0,0.1-0.1,0.2-0.2,0.3
	c1.2-0.5,2.5,2.1,3.2-0.1l0.8-0.5c-0.9-0.3,0.2-1-0.1-1.4c0.4-0.1,0.9,0.8,0.4,0.9l-0.1-0.1c-0.3,1.2,1.2,0.5,1.1,1.3
	c1.9,0.1,3.8,0.7,5.6,0.7l-0.2-0.9l0.6,0c0.2,0.2,0.3,0.7-0.2,0.7c0.3,0.5,0.7-0.5,0.7-0.7c0.9,0.3-0.3,1.1,0,1.1l0.4-0.1l-0.1-0.1
	c0.3-0.4,0.3-0.8,0.8-0.8c0.4,0.2,0.2,0.6,0.4,0.6c0,0.1,0.1,0.1,0.2,0c0,0,0.2,0,0.4,0c0.2,0,0.4,0,0.4,0l-0.4-0.7
	c0.3-0.4,0.7,0,0.3-0.8c0.7,1.3,3,0.1,3.3,0.4c0.4-0.6,0.9-0.7,1.5-0.7c-0.2-0.1-0.4-0.9,0.1-0.9c0.2,1.7,1.1,0.5,1.8,1.6
	c-0.6-0.7,1.4-0.6,0.5-1.5c0.5,0,0.2,0.6,0.6,0.9c0.8-0.9,2.4-0.2,3.5-0.9c-0.1-0.2-0.4-0.5-0.3-0.9c0,0,0.3,0.2,0.5,0.4
	c0.3,0.2,0.5,0.4,0.5,0.4c0.2-0.2-0.3-1.3,0.5-0.8c-0.1-0.1-0.3-0.4-0.2-0.5c1.4,0,2.5-0.9,3.6-1.8c0.5-0.4,0.9-0.8,1.4-1.1
	c0.3,0.1,0.5,0.2,0.6,0.5l-0.1,0.2c0,0,0.2-0.1,0.4-0.1c0.2-0.1,0.4-0.1,0.4-0.1c-0.3-0.2-0.7-0.4-1-0.6c0,0,0,0,0,0
	c0.6-0.4,1.3-0.8,2.2-1.3c-0.6,0.2-0.5-0.1-0.3-0.4c-0.2,0.1-0.5-0.3-0.8-0.4c0,0,0.3-0.2,0.7-0.4c0.3-0.2,0.7-0.5,0.7-0.5
	c-0.3-0.3-0.2-0.6-0.2-1c0.1-0.4,0.1-0.7-0.3-0.9l0.1,0.5c-0.4-0.4-1-0.2-1.6-0.1c-0.6,0.1-1.2,0.1-1.8-0.1c0.5,0.3,0,0.4-0.4,0.5
	c-0.4,0.1-0.8,0.1-0.3,0.8c-0.3,0-0.2-0.3-0.5-0.4c0.3,0.4,0.3,0.7-0.1,0.7l-0.1-0.1c-0.6,0.8-1.3,0.7-2.4,1l0.4,0.5
	c-0.3,0.1-0.4-0.1-0.6-0.1c0.2,0.9,0.7-0.3,1,0.7c-0.5-0.4-0.9-0.2-1.3,0c-0.4,0.2-0.8,0.3-1.2-0.2c-0.4,0.2,0.4,0.6,0,0.7l-0.3-0.3
	l0.1,0.5c-0.3,0-0.6-0.3-0.7-0.6c0.1,0,0.1-0.2,0.2-0.2c-0.5-0.3-0.8,0.5-1,0.4l0.5,0.1c-0.9,0.8-2.4,0.7-3.3,1.7l0.2,0.3
	c-0.7,0.7-0.8-0.1-1.7,0.3l0-0.1c-0.1,0.3-0.4,0.5-0.6,0.5c0.2-0.4-0.6-0.6-0.3-1c-0.8,0.7-0.4,0.5-0.8,1.7l-0.2-0.4
	c-0.1,0.5-0.1,0.7-0.6,0.9c0.3-0.5-0.4-0.7,0-1.3c-1.1-0.9-1.4,1.2-2-0.2c-0.3,1.4,1,0.6,0.7,0.9c0.3,0.4-0.3,1-0.6,0.9
	c-0.3,0-0.7-1.6-1.5-1.5c0.1,0,0.1-0.1,0.2-0.1c-0.3-0.3-0.6,0.5-1,0c-0.2,0.8-0.5,0-0.5,1l0.8-0.3c-0.4,0.3-0.8,1.5-1.5,1
	c0.1-0.2,0.3-0.5,0.4-0.6c-0.2-0.3-0.4,0.2-0.6-0.1c0-1,0.9-0.3,1.3-1.1c-0.2-0.4-0.8,0.8-0.7-0.3c-0.3,1.4-0.8-0.1-1.3,0.9l0-0.6
	c-0.1,0.1-0.3,0.4-0.4,0.4l0.3-0.8c-0.4,0.7-0.9-0.6-1.3-0.2c0.9,0,0.2,0.7,0.6,1.2c-1.1,0.8-0.6-1.6-1.9-1.3
	c0.2-0.1,0.6,0.4,0.3,0.7c-0.2-0.1-0.5-0.4-0.7-0.7c-0.8,0.1,0.1,0.6-0.3,1c-0.2-0.8-0.4,0.3-0.8,0.5l0-0.6
	c-0.9-0.5-0.3,1.3-1.2,0.7l0.4-0.8l-0.5,0.2l0.1-0.7c-0.5,0.5-0.7,0.3-1.1,0.1c0.1,0.4-0.2,1.1-0.6,1.1c-0.2-0.4,0.2-0.6-0.4-0.5
	c0.2-0.4,0.4-0.8,0.6-0.2c0-0.2,0.2-0.4,0.2-0.6c-0.3-0.5-0.7-0.2-0.9-0.2c0.1,0,0.2,0.1,0.2,0.2c0,0-0.2,0.2-0.5,0.4
	c-0.2,0.2-0.5,0.4-0.5,0.4c-0.1-0.2,0-0.4,0.2-0.6c-0.2,0-0.3,0.3-0.6,0.3c0.1-0.5,0.2-1,0.6-1.2l-0.9,0.4c0-0.2-0.3-0.7-0.2-0.8
	c-0.4-0.4-1.2,0.8-1.7,0.3c0,0.1-0.1,0.2-0.3,0.2c-0.5-0.2-0.8-0.9-1.6-0.4l-0.1-1c-0.5,0.1,0.2,1.2-0.7,1.3c-0.7,0.1,0-0.8-0.1-1.1
	c-0.4,0.4-1.2,1.1-1.5,0.2c0.2-0.1,0.3,0.1,0.5,0.1L84,48.2c0.7-0.6,1-0.2,0.8-1c-0.6,1.6-1.5-0.3-2.2,1.2L82.6,48
	c0.1,0,0.1,0,0.2,0c-0.1-1-0.8,1-1.4,0.5c-0.2-0.2-0.2-0.5,0.1-0.6L80.8,48c-0.1-0.1,0.1-0.3,0.2-0.3l-0.7-0.2l0,0
	c-0.2,0.2-0.7,0.4-0.9,0.5c0-0.3,0.2-0.1,0.3-0.3c0,0-0.1,0-0.3,0.1c-0.1,0-0.3,0.1-0.3,0.1c0.1-0.5,0.6-0.6,0.8-0.4
	c0.3-0.8,0.2-0.8,0-0.7c-0.2,0.1-0.6,0.2-0.6-0.4l0.4,0c0.4-0.9,0-0.8,0.1-1.5c-0.1,0.1-0.2,0.5-0.4,0.9c-0.1,0.4-0.3,0.8-0.6,0.8
	c0-0.2-0.1-0.3-0.5-0.2c0.4-0.5,0.2-0.5,0-0.6l0.6-0.6c-0.3,0-0.6,0.3-1,0.4c-0.1-0.3,0.4-0.7,0.7-1.1c0-0.2-0.2,0-0.4,0.2
	c-0.2,0.2-0.4,0.5-0.6,0.3c0.1-0.5-0.2-0.3-0.8-0.5c0.2-0.3,0.5-0.1,0.7-0.2c0,0-0.7,0-0.7,0c0,0,0.2-0.1,0.3-0.1
	c-0.3-0.1-0.8,0.2-1.1-0.1c-0.4,0-0.1-0.2,0.2-0.4c0.3-0.2,0.6-0.3,0.2-0.5c0.2,0,0.5,0.1,0.8,0.2c-0.3-0.2-0.4-0.4-0.5-0.5
	c-0.1-0.1-0.3-0.3-0.6-0.6c0,0,0.2,0,0.3,0c0.2,0,0.3,0,0.3,0c-0.6-0.1-1.1-0.7-1.3-1.4c0,0,0.1-0.1,0.1-0.1c0,0,0,0,0.1,0
	c0,0,0,0,0-0.1c0.1-0.1,0.2-0.2,0.2-0.3c0.1,0.2,0.2,0.3,0.3,0.5c-0.2,0-0.4-0.1-0.5-0.1c0.3,0.4,0.6,0.9,1.1,1.1
	c-0.1-0.1-0.1-0.2-0.1-0.3c0.1,0.1,0.2,0.2,0.2,0.2c0.1,0,0-0.1-0.1-0.3c0,0,0.2,0.1,0.4,0.2c0.2,0.1,0.4,0.2,0.4,0.2l-0.3-0.3
	c0,0,0.2,0,0.4-0.1c0.2,0,0.4,0,0.4,0c-0.3-0.9-0.6-2.2-0.1-3.1c0.1,0,0.1-0.1,0.2-0.1c0.2,0.6,0.5,0.9,0.9,1.5
	c-0.7-0.6-0.4,0.7-0.8,0.8c0.2-0.1,0.4,0.3,0.5,0.4c0,0,0-0.3,0.1-0.5c0-0.3,0.1-0.6,0.1-0.6c0.4,0.5,0.4,0.3,0.7,0.4
	c-0.8-1,0.1-1.1,0.2-1.6c0.2,0.4,0.4,0.8-0.1,0.9c0.9,0.6-0.2-1.6,0.7-1.1c-0.1,0.1-0.2,0-0.1,0.2c0.1-0.5,0.8-0.5,0.8-0.1L81.2,39
	c0.7-0.2,2.1-0.9,1.8-1.9c0.1,0.1,0.4,1.3,0.4,1.5c0,0,0-1,0-2c0-0.1,0-0.3,0-0.4c0.1,0,0.1-0.1,0.2-0.1c-0.1-0.1-0.1-0.1-0.2-0.1
	c0,0,0-0.1,0-0.1c0.1-0.1,0.2-0.2,0.4-0.3c0.4,1,0.9,2.2,0.6,2.7c0.2,0.1,0.5,0.2,0.7-0.3c-0.1-0.1-0.7-1.2-0.5-1.3
	c0.7,0.9,0.5,0.4,1.3,1.1c-0.2-0.1-0.4-1.6-0.1-1.7c0,0.2,0.4,1.4,0.3,1.6c0,0,0.1-0.4,0.2-0.8c0.1-0.4,0.2-0.8,0.2-0.8
	c-0.1,0.3,0.3,1.2,0.5,1.6c-0.1-0.3,0.6-0.1,0.8-0.3l-0.4-0.3c0.8,0,0.4-2.2,1.2-2.2c0,0.3,0.1,1.8,0.5,1.9c0-0.8,0.2-3.7,1-4.3
	l0.2,0.4l0.5-0.6c-0.2,1.2-0.9,3.6-1.3,4.6c0.4,0.3,0.2,0.5,0.6,0.4c0.2,0.4-0.1,0.6-0.3,0.7c0,0,0.3,0,0.5,0c0.3,0,0.5,0.1,0.5,0.1
	c-0.2-0.9,0.7-1,0.6-1.7c0,0-0.3,0.3-0.5,0.5c-0.3,0.3-0.5,0.5-0.5,0.5c-0.2-0.8,0.3-2.5,1.1-2.5c0.2,0.3,0,1.5,0.1,1.8
	c0.1-0.3,0.7-0.7,0.7-0.4l-0.3,0.5c0.4,0.3,0.6-1.2,1.2-0.4c0.2,0,0.6,1.1,0.6,0.6c-0.4-1-0.7-4-0.5-4.7c0.1,0.1,1.1,0.9,1.3,1.3
	c0.3,0.8-0.3,1.9-0.1,2.5c0-0.2,0.1-0.5,0.2-0.6c0.2,0.2,0,0.7,0.4,0.6c0-0.9,0.8,0,0.2-0.7c0.4-0.3,0.4,0.2,0.9,0.1
	c-0.2-0.6,0.4-1.9,0.8-2.2c0,0.2,0.1,0.5,0.1,0.6c0.8,0.1,1.3,0.5,2.1,0.5c0.1,0.2,0.4,0.5,0.3,0.9c0.1-0.2,0.2-0.4,0.5-0.5
	c0.4,0.8-0.5,0.1-0.2,1c0-0.5,0.6-0.7,1-1c-0.1-0.8-0.8-0.2-1.1,0.1c0-1.1,0.7-2.2,1.6-2.6c0.7-0.2,0.2,0.7,0.4,0.6
	c1.2,0.3,1.2-1.8,2.2-0.9c0.3,0.7-0.1,1.4-0.1,1.9c-0.6,0.2-0.8-0.5-1.1-0.5l0.4,0.4c-0.2,0.2-0.6,0.3-0.7,0.1
	c0.3,0.6,2.1,0.3,2.9,1c0.2-0.2,0.5-0.4,0.4-0.7l-0.3,0.1c-0.2-0.6,0.7-0.7,0.3-1c0.5-0.3,1-0.9,1.6-0.4l0,0.8
	c0-0.2-0.2-0.4-0.4-0.4c0.3,0,0.6,1.1,1.1,0.3l-0.3-0.6c0.5-0.3,1.2-1,1.7-0.7c-0.1-0.8-0.1,0.1-0.3-0.9c0.1,1.2-1.4-0.3-1.1,1
	c-0.2-1.1-0.6-0.6-0.9-1.5c0,0.3,0.1,0.5-0.3,0.3c0,0.1-0.1,0.2-0.1,0.2c0,0,0,0,0,0l0,0c0,0,0,0,0,0c0.1,0.1,0.2,0.3,0.2,0.4
	c-0.3,0.5-1,0.4-1.3,0.7c-0.2-0.2,0.2-0.3,0-0.6l-0.4,0.4c0-0.6-0.6-1,0.1-1.3l-0.6-0.1c-0.3-0.4-0.7-0.5-1.1-0.3
	c-0.3-0.2-0.7,0.6-0.5,0.1l-0.9,0.3l0-0.1c-0.9-0.1-1.8,0.8-2.8-0.2c-0.3,0.1-0.6,0.3-1.1,0.1L98,30.2c-0.4,0.2-1.1-0.5-1.3,0
	c-0.4-1.3-1.9-0.2-2.5-0.4l0,0.7c-0.5,0-0.9,0.2-1.4,0.5l0.1,0.6c-0.4,0.5-1.3-0.3-2-0.1c0-0.2,0.2-0.2,0.4-0.1
	c-1.1-1.2-1.8,1.2-2.8,0.4c-0.2,0.2-0.3,0.2-0.5,0.1c0,0,0,0,0,0c0,0-0.1,0-0.1,0c-0.1-0.1-0.2-0.2-0.3-0.2c0.1,0.1,0.2,0.2,0.3,0.3
	c-0.2,0-0.4,0.2-0.6,0.3L87,31.5c0,0,0,0-0.1,0c-0.3-0.2-0.1,0.3,0.1,0.8c-0.1,0.1-0.2,0.3-0.2,0.4c-0.4-0.9-0.5,0.5-1-0.5
	c0,0.5-1.1,0.7-0.9,1.8c0-0.1-0.1-0.2,0-0.2c-0.1,0-0.3,0-0.4,0c0-0.2,0-0.3-0.2-0.4c0,0,0,0.4,0,0.4c-0.1-0.1-0.2-0.2-0.3-0.2
	l-0.1-0.3l-0.1,0.3c-0.2,0-0.3,0.1-0.5,0.1c-0.1,0-0.2,0-0.2,0.1c0-0.1,0-0.3,0-0.5c-0.1,0.3-0.2,0.5-0.3,0.6c-0.2,0-0.5,0-0.7-0.1
	c0.3,0.3-0.1,0.5-0.4,0.6c-0.3,0.1-0.5,0.2-0.5,0.5c-0.4-0.2-1.1,0-1.8,0.3c-0.8,0.3-1.6,0.8-2.6,0.9c1.1,1.1-1-0.1-0.4,0.9
	c-0.3-0.2-0.6-0.2-0.5-0.7c-0.5,0.8-1.4,0.4-1.2,1.5c-0.3-0.2-0.2-0.5-0.4-0.6c0,0.1,0,0.4-0.2,0.3c-0.2-0.1-0.1-0.3-0.1-0.5
	c-0.5,0.6-0.2,1.2,0.3,1.8c-0.9,0.4-1.9,0.6-2.7,1.2l0.1,0.2c-0.8,0.6-0.7,0-1.7,0.4l0-0.1c-0.2,0.2-0.4,0.4-0.7,0.4
	c0.2-0.3-0.5-0.3-0.3-0.6c-0.9,0.6-0.4,0.4-0.9,1.2l-0.2-0.3c-0.2,0.3-0.2,0.5-0.7,0.6c0.4-0.3-0.4-0.4,0-0.9
	c-1.1-0.5-1.5,0.9-2-0.1c-0.4,0.9,1,0.4,0.7,0.6c0.3,0.3-0.3,0.7-0.7,0.6c-0.3,0-0.7-1.1-1.5-1c0.1,0,0.1-0.1,0.2-0.1
	c-0.3-0.2-0.6,0.4-1,0c-0.2,0.5-0.5,0-0.5,0.7l0.8-0.2c-0.4,0.2-0.8,1-1.6,0.7c0.1-0.1,0.3-0.3,0.4-0.4c-0.2-0.2-0.4,0.1-0.6-0.1
	c0-0.7,0.9-0.2,1.4-0.7c-0.2-0.3-0.9,0.5-0.7-0.2c-0.3,0.9-0.8-0.1-1.4,0.6l0-0.4c-0.1,0.1-0.3,0.3-0.4,0.2l0.3-0.5
	c-0.5,0.5-0.9-0.4-1.3-0.1c0.9,0,0.2,0.5,0.6,0.8c-1.1,0.5-0.6-1.1-1.9-0.9c0.2-0.1,0.6,0.3,0.4,0.4c-0.2-0.1-0.6-0.3-0.7-0.5
	c-0.8,0,0.1,0.4-0.3,0.7c-0.3-0.5-0.4,0.2-0.8,0.3l0-0.4c-0.9-0.3-0.3,0.8-1.2,0.5l0.4-0.5L55.3,41l0.1-0.5c-0.5,0.3-0.7,0.2-1.1,0
	c0.1,0.3-0.1,0.7-0.6,0.7c-0.3-0.3,0.2-0.4-0.4-0.4c0.2-0.2,0.4-0.5,0.6-0.1c0-0.1,0.2-0.2,0.2-0.4c-0.3-0.3-0.8-0.2-1-0.2
	c0.1,0,0.2,0.1,0.2,0.1c0,0-0.2,0.1-0.5,0.2c-0.2,0.1-0.5,0.2-0.5,0.2c-0.1-0.2,0-0.3,0.1-0.4c-0.2,0-0.3,0.2-0.6,0.2
	c0.1-0.3,0.2-0.7,0.5-0.8L51.7,40c0-0.2-0.3-0.5-0.2-0.6c-0.4-0.3-1.2,0.4-1.7,0.1c0,0.1-0.1,0.1-0.3,0.1c-0.5-0.2-0.9-0.7-1.7-0.4
	l-0.2-0.7c-0.5,0,0.3,0.9-0.6,0.8c-0.6,0-0.1-0.6-0.2-0.8c-0.4,0.2-1.1,0.6-1.4,0c0.2,0,0.3,0.1,0.5,0.1l-0.3-0.5
	c0.7-0.4,0.9-0.1,0.7-0.6c-0.4,1.1-1.5-0.4-2,0.6L44,37.9c0.1,0,0.1,0,0.2,0c-0.3-0.7-0.7,0.6-1.3,0.2c-0.2-0.2-0.3-0.4,0-0.5
	l-0.6,0c-0.1-0.1,0-0.3,0.1-0.2l-0.7-0.3l0,0c-0.2,0.1-0.6,0.2-0.7,0.2c-0.1-0.2,0.2-0.1,0.2-0.2c0,0-0.1,0-0.3,0
	c-0.1,0-0.3,0-0.3,0c0-0.4,0.5-0.4,0.7-0.2c0.1-0.6,0-0.6-0.2-0.6c-0.2,0-0.5,0.1-0.6-0.4l0.4,0.1c0.2-0.7-0.2-0.7-0.2-1.2
	c0,0.1-0.1,0.4-0.1,0.7c0,0.3-0.1,0.6-0.4,0.5c-0.1-0.1-0.1-0.3-0.5-0.3c0.3-0.3,0-0.4-0.2-0.6l0.4-0.4c-0.3-0.1-0.5,0.1-0.8,0.2
	c-0.2-0.3,0.1-0.6,0.4-0.9c-0.2-0.4-0.4,0.7-0.8,0.3c-0.1-0.4-0.3-0.5-0.8-0.8c0.1-0.3,0.3-0.1,0.5-0.2c0,0-0.1,0-0.2,0
	c-0.1,0-0.2-0.1-0.2-0.1c0-0.1,0.1-0.1,0.2-0.1c-0.2-0.1-0.5,0.1-0.7-0.2c-0.3,0-0.1-0.2,0.1-0.4c0.2-0.2,0.4-0.4,0.1-0.6
	c0.2-0.1,0.3,0.1,0.5,0.1c-0.1-0.3-0.2-0.4-0.2-0.6c0-0.1-0.1-0.3-0.3-0.6c0,0,0.1-0.1,0.3-0.1c0.1-0.1,0.3-0.1,0.3-0.1
	c-0.5,0.1-0.7-0.5-0.8-1.2c-0.2,0-0.5,0-0.6,0c0,0,0-0.2,0.1-0.4c0.1,0,0.3,0,0.5,0c0,0.1,0,0.2,0,0.3c0,0,0.1,0,0.1,0
	c-0.1-0.1-0.1-0.2-0.1-0.3c0,0,0,0,0,0c0.1,0,0.3,0,0.4,0c0,0.1,0.1,0.2,0.1,0.3c-0.1,0-0.3,0-0.4,0c0.2,0.3,0.4,0.7,0.6,0.8
	c0-0.1,0-0.2,0-0.2c0,0.1,0.1,0.2,0.2,0.2c0.1,0,0-0.1,0-0.3l0.6,0.3l-0.2-0.2c0,0,0.2-0.1,0.4-0.2c0.2-0.1,0.4-0.1,0.4-0.1
	c0,0,0-0.1,0-0.1c0.2,0.5,0.5,1,1.1,0.5c0,0.1,0,0.2,0,0.3c0.5-0.1,1.3,0.1,1.8-0.3c-0.3,1,0.4,1,1,1c0.6-0.1,1.1-0.2,0.8,0.7
	c0,0,0.3,0.1,0.6,0.1c0.3,0.1,0.6,0.1,0.6,0.1l-0.1,0.2c0.7,0.3,1,0,1.4-0.4c0.1,0.2,0,0.3-0.1,0.4c0.9,0.7,1.1,0.6,2.1-0.2l0,0.6
	c0.3-0.3,1.3,1.3,2.4,0.7c0,0.1-0.1,0.2-0.2,0.3c1.2-0.5,2.5,2.1,3.2-0.1l0.8-0.5c-0.9-0.3,0.2-1-0.1-1.4c0.4-0.1,0.9,0.8,0.4,0.9
	L55,32.5c-0.3,1.2,1.2,0.5,1.1,1.3c1.9,0.1,3.8,0.7,5.6,0.7l-0.2-0.9l0.6,0c0.2,0.2,0.3,0.7-0.2,0.7c0.3,0.5,0.7-0.5,0.7-0.7
	c0.9,0.3-0.3,1.1,0,1.1l0.4-0.1l-0.1-0.1c0.3-0.4,0.3-0.8,0.8-0.8c0.4,0.2,0.2,0.6,0.4,0.6c0,0.1,0.1,0.1,0.2,0c0,0,0.2,0,0.4,0
	c0.2,0,0.4,0,0.4,0l-0.4-0.7c0.3-0.4,0.7,0,0.3-0.8c0.7,1.3,3,0.1,3.3,0.4c0.4-0.6,0.9-0.7,1.5-0.7c-0.2-0.1-0.4-0.9,0.1-0.9
	c0.2,1.7,1.1,0.5,1.8,1.6c-0.6-0.7,1.4-0.6,0.5-1.5c0.5,0,0.2,0.6,0.6,0.9c0.8-0.9,2.4-0.2,3.5-0.9c-0.1-0.2-0.4-0.5-0.3-0.9
	c0,0,0.3,0.2,0.5,0.4c0.3,0.2,0.5,0.4,0.5,0.4c0.2-0.2-0.3-1.3,0.5-0.8c-0.1-0.1-0.3-0.4-0.2-0.5c1.4,0,2.5-0.9,3.6-1.8
	c0.3-0.3,0.6-0.5,1-0.8c0.2,0.1,0.5,0.3,0.6,0.5l0,0.2l0.5-0.1c-0.3-0.3-0.6-0.5-0.9-0.7c0.2-0.1,0.4-0.3,0.6-0.4
	c0.6-0.4,1.3-0.8,2.2-1.3c-0.6,0.2-0.5-0.1-0.3-0.4c-0.2,0.1-0.5-0.3-0.8-0.4c0,0,0.3-0.2,0.7-0.4c0.3-0.2,0.7-0.5,0.7-0.5
	c-0.3-0.3-0.2-0.6-0.2-1c0.1-0.4,0.1-0.7-0.3-0.9l0.1,0.5c-0.4-0.4-1-0.2-1.6-0.1c-0.6,0.1-1.2,0.1-1.8-0.1c0.5,0.3,0,0.4-0.4,0.5
	c-0.4,0.1-0.8,0.1-0.3,0.8c-0.3,0-0.2-0.3-0.5-0.4c0.3,0.4,0.3,0.7-0.1,0.7L80,24.1c-0.6,0.8-1.3,0.7-2.4,1l0.4,0.5
	c-0.3,0.1-0.4-0.1-0.6-0.1c0.2,0.9,0.7-0.3,1,0.7c-0.5-0.4-0.9-0.2-1.3,0c-0.4,0.2-0.8,0.3-1.2-0.2c-0.4,0.2,0.4,0.6,0,0.7l-0.3-0.3
	l0.1,0.5c-0.3,0-0.6-0.3-0.7-0.6c0.1,0,0.1-0.2,0.2-0.2c-0.5-0.3-0.8,0.5-1,0.4l0.5,0.1c-0.9,0.8-2.4,0.7-3.3,1.7l0.2,0.3
	c-0.7,0.7-0.8-0.1-1.7,0.3l0-0.1c-0.1,0.3-0.4,0.5-0.6,0.5c0.2-0.4-0.6-0.6-0.3-1C68,29,68.4,28.8,68,30l-0.2-0.4
	c-0.1,0.5-0.1,0.7-0.6,0.9c0.3-0.5-0.4-0.7,0-1.3c-1.1-0.9-1.4,1.2-2-0.2c-0.3,1.4,1,0.6,0.7,0.9c0.3,0.4-0.3,1-0.6,0.9
	c-0.3,0-0.7-1.6-1.5-1.5c0.1,0,0.1-0.1,0.2-0.1c-0.3-0.3-0.6,0.5-1,0c-0.2,0.8-0.5,0-0.5,1l0.8-0.3c-0.4,0.3-0.8,1.5-1.5,1
	c0.1-0.2,0.3-0.5,0.4-0.6c-0.2-0.3-0.4,0.2-0.6-0.1c0-1,0.9-0.3,1.3-1.1c-0.2-0.4-0.8,0.8-0.6-0.3c-0.3,1.4-0.8-0.1-1.3,0.9l0-0.6
	c-0.1,0.1-0.3,0.4-0.4,0.4l0.3-0.8c-0.4,0.7-0.9-0.6-1.3-0.2c0.9,0,0.2,0.7,0.6,1.2c-1.1,0.8-0.6-1.6-1.9-1.3
	c0.2-0.1,0.6,0.4,0.3,0.7c-0.2-0.1-0.5-0.4-0.7-0.7c-0.8,0.1,0.1,0.6-0.3,1c-0.2-0.8-0.4,0.3-0.8,0.5l0-0.6
	c-0.9-0.5-0.3,1.3-1.2,0.7l0.4-0.8l-0.5,0.2l0.1-0.7c-0.5,0.5-0.7,0.3-1.1,0.1c0.1,0.4-0.2,1.1-0.6,1.1c-0.2-0.4,0.2-0.6-0.4-0.6
	c0.2-0.4,0.4-0.8,0.6-0.2c0-0.2,0.2-0.4,0.2-0.6c-0.3-0.5-0.7-0.2-0.9-0.2c0.1,0,0.2,0.1,0.2,0.2c0,0-0.2,0.2-0.5,0.4
	c-0.2,0.2-0.5,0.4-0.5,0.4c-0.1-0.2,0-0.4,0.2-0.6c-0.2,0-0.3,0.3-0.6,0.3c0.1-0.5,0.2-1,0.6-1.2L51.8,28c0-0.2-0.3-0.7-0.2-0.8
	c-0.4-0.4-1.2,0.8-1.7,0.3c0,0.1-0.1,0.2-0.3,0.2c-0.5-0.2-0.8-0.9-1.6-0.4l-0.1-1c-0.5,0.1,0.2,1.2-0.7,1.3c-0.7,0.1,0-0.8-0.1-1.1
	c-0.4,0.4-1.2,1.1-1.5,0.2c0.2-0.1,0.3,0.1,0.5,0.1l-0.2-0.6c0.7-0.6,1-0.2,0.8-1c-0.6,1.6-1.5-0.3-2.2,1.2l-0.1-0.4
	c0.1,0,0.1,0,0.2,0c-0.1-1-0.8,1-1.4,0.5c-0.2-0.2-0.2-0.5,0.1-0.6l-0.6,0.2c-0.1-0.1,0.1-0.3,0.2-0.3l-0.7-0.2l0,0
	c-0.2,0.2-0.7,0.4-0.9,0.5c0-0.3,0.2-0.1,0.3-0.3c0,0-0.1,0-0.3,0.1c-0.1,0-0.3,0.1-0.3,0.1c0.1-0.5,0.6-0.6,0.8-0.4
	c0.3-0.8,0.2-0.8,0-0.7c-0.2,0.1-0.6,0.2-0.6-0.4l0.4,0c0.4-0.9,0-0.8,0.1-1.5c-0.1,0.1-0.2,0.5-0.4,0.9c-0.1,0.4-0.3,0.8-0.6,0.8
	c0-0.2-0.1-0.3-0.5-0.2c0.4-0.5,0.2-0.5,0-0.6l0.6-0.6c-0.3,0-0.6,0.3-1,0.4c-0.1-0.3,0.4-0.7,0.7-1.1c0-0.2-0.2,0-0.4,0.2
	c-0.2,0.2-0.4,0.5-0.6,0.3c0.1-0.5-0.2-0.3-0.8-0.5c0.2-0.3,0.5-0.1,0.7-0.2c0,0-0.7,0-0.7,0c0,0,0.2-0.1,0.3-0.1
	c-0.3-0.1-0.8,0.2-1.1-0.1c-0.4,0-0.1-0.2,0.2-0.4c0.3-0.2,0.6-0.3,0.2-0.5c0.2,0,0.5,0.1,0.8,0.2c-0.3-0.2-0.4-0.4-0.5-0.5
	c-0.1-0.1-0.3-0.3-0.6-0.6c0,0,0.2,0,0.3,0c0.2,0,0.3,0,0.3,0c-0.7-0.1-1.1-0.8-1.3-1.5c-0.3-0.1-0.6-0.1-0.8-0.1c0,0,0-0.2,0.1-0.4
	c0-0.2,0.1-0.5,0.1-0.5c0.2,0,0.3,0.3,0.5,0.6c0-0.1,0-0.2-0.1-0.2c0.4,0,0.7,0.4,0.9,0.8c-0.2,0-0.4-0.1-0.5-0.1
	c0.3,0.4,0.6,0.9,1.1,1.1c-0.1-0.1-0.1-0.2-0.1-0.3c0.1,0.1,0.2,0.2,0.2,0.2c0.1,0,0-0.1-0.1-0.3c0,0,0.2,0.1,0.4,0.2
	c0.2,0.1,0.4,0.2,0.4,0.2l-0.3-0.3c0,0,0.2,0,0.4-0.1c0.2,0,0.4,0,0.4,0c-0.3-1-0.7-2.4,0-3.3c0.2,0.7,0.6,0.9,1,1.6
	c-0.7-0.6-0.4,0.7-0.8,0.8c0.2-0.1,0.4,0.3,0.5,0.4c0,0,0-0.3,0.1-0.5c0-0.3,0.1-0.6,0.1-0.6c0.4,0.5,0.4,0.3,0.7,0.4
	c-0.8-1,0.1-1.1,0.2-1.6c0.2,0.4,0.4,0.8-0.1,0.9c0.9,0.6-0.2-1.6,0.7-1.1c-0.1,0.1-0.2,0-0.1,0.2c0.1-0.5,0.8-0.5,0.8-0.1l-0.1,0.1
	c0.7-0.2,2.1-0.9,1.8-1.9c0.1,0.1,0.4,1.3,0.4,1.5c0,0,0-1,0-2c0-1,0.1-2,0.1-2c0.2,0.9,1.3,2.9,0.8,3.6c0.2,0.1,0.5,0.2,0.7-0.3
	c-0.2-0.1-0.7-1.2-0.5-1.3c0.7,0.9,0.5,0.4,1.3,1.1c-0.2-0.1-0.4-1.6-0.1-1.7c0,0.2,0.4,1.4,0.3,1.6c0,0,0.1-0.4,0.2-0.8
	c0.1-0.4,0.2-0.8,0.2-0.8c-0.1,0.3,0.3,1.2,0.5,1.6c-0.1-0.3,0.6-0.1,0.8-0.3L49.2,15c0.8,0,0.4-2.2,1.2-2.2
	c-0.1,0.3,0.1,1.8,0.5,1.9c0-0.8,0.2-3.7,1-4.3l0.2,0.4l0.5-0.6c-0.2,1.2-0.9,3.6-1.3,4.6c0.4,0.3,0.2,0.5,0.6,0.4
	c0.2,0.4-0.1,0.6-0.3,0.7c0,0,0.3,0,0.5,0c0.3,0,0.5,0.1,0.5,0.1c-0.2-0.9,0.7-1,0.6-1.7c0,0-0.3,0.3-0.5,0.5
	c-0.3,0.3-0.5,0.5-0.5,0.5c-0.2-0.8,0.3-2.5,1.1-2.5c0.2,0.3,0,1.5,0.1,1.8c0.1-0.3,0.7-0.7,0.7-0.4L54,14.7
	c0.4,0.3,0.6-1.2,1.2-0.4c0.2,0,0.6,1.1,0.6,0.6c-0.4-1-0.7-4-0.5-4.7c0.1,0.1,1.1,0.9,1.3,1.3c0.3,0.8-0.3,1.9,0,2.5
	c0-0.2,0.1-0.5,0.2-0.6c0.2,0.2,0,0.7,0.4,0.6c0-0.9,0.8,0,0.2-0.7c0.4-0.3,0.4,0.2,0.9,0.1c-0.2-0.6,0.4-1.9,0.8-2.2
	c0,0.2,0.1,0.5,0.1,0.6c0.9,0.1,1.3,0.5,2.1,0.5c0.1,0.2,0.4,0.5,0.3,0.9c0.1-0.2,0.2-0.4,0.5-0.5c0.4,0.8-0.5,0.1-0.2,1
	c0-0.5,0.6-0.7,1-1c-0.1-0.8-0.8-0.2-1.1,0.1c0-1.1,0.7-2.2,1.6-2.6c0.7-0.2,0.2,0.7,0.4,0.6c1.2,0.3,1.2-1.8,2.2-0.9
	c0.3,0.7-0.1,1.4-0.1,1.9c-0.6,0.2-0.8-0.5-1.1-0.5l0.4,0.4c-0.2,0.2-0.6,0.3-0.7,0.1c0.3,0.6,2.1,0.3,2.9,1
	c0.2-0.2,0.5-0.4,0.4-0.7L67.2,12c-0.2-0.6,0.7-0.7,0.3-1c0.5-0.3,1-0.9,1.6-0.4l0,0.8c0-0.2-0.2-0.4-0.4-0.4c0.3,0,0.6,1.1,1.1,0.3
	l-0.3-0.6c0.5-0.3,1.2-1,1.7-0.7c-0.1-0.8-0.1,0.1-0.3-0.9c0.1,1.2-1.4-0.3-1.1,1c-0.2-1.1-0.6-0.6-0.9-1.5c0,0.3,0.1,0.5-0.3,0.3
	c0,0.1-0.1,0.2-0.1,0.2c0,0,0,0,0,0l0,0c0,0,0,0,0,0c0.1,0.1,0.2,0.3,0.2,0.4c-0.3,0.5-1,0.4-1.3,0.7c-0.2-0.2,0.1-0.3,0-0.6
	L66.8,10c0-0.6-0.6-1,0.1-1.3l-0.6-0.1c-0.3-0.4-0.7-0.5-1.1-0.3c-0.3-0.2-0.7,0.6-0.5,0.1l-0.9,0.3l0-0.1C63,8.5,62,9.5,61.1,8.4
	c-0.3,0.1-0.6,0.3-1.1,0.1L59.9,8c-0.4,0.2-1.1-0.5-1.3,0c-0.4-1.3-1.9-0.2-2.5-0.4l0,0.7c-0.5,0-0.9,0.2-1.4,0.5l0.1,0.6
	c-0.4,0.5-1.3-0.3-2-0.1c0-0.2,0.2-0.2,0.4-0.1C52,8,51.3,10.4,50.3,9.6c-0.2,0.2-0.3,0.2-0.5,0.1c0,0,0,0,0,0c0,0-0.1,0-0.1,0
	c-0.1-0.1-0.2-0.2-0.3-0.2c0.1,0.1,0.2,0.2,0.3,0.3c-0.2,0-0.4,0.2-0.6,0.3l-0.2-0.6c0,0,0,0-0.1,0c-0.3-0.2-0.1,0.3,0.1,0.8
	c-0.1,0.1-0.2,0.3-0.2,0.4c-0.4-0.9-0.5,0.5-1-0.5c0,0.5-1.1,0.7-0.9,1.8c0-0.1-0.1-0.2,0-0.2c-0.3,0-0.6-0.1-0.7,0.3l-0.3-0.7
	l-0.2,1.2c-0.5-0.4-0.7-0.6-0.6-1.3c-0.5,1.2-0.6,0.5-0.9,1.7l-0.1-0.5c-0.2,0.1-0.4,0.9-0.7,0.6c-0.4-0.3-1.1-0.1-1.9,0.2
	c-0.8,0.3-1.6,0.8-2.6,0.9c1.1,1.1-1-0.1-0.4,0.9c-0.3-0.2-0.6-0.2-0.5-0.7c-0.5,0.8-1.4,0.4-1.2,1.5c-0.3-0.2-0.2-0.5-0.4-0.6
	c0,0.1,0,0.4-0.2,0.3c-0.2-0.1-0.1-0.3-0.1-0.5c-0.7,0.7,0.1,1.6,0.8,2.3c-0.6,0-0.8,0.3-0.4,0.9c-0.4-0.1-0.8,0-0.6-0.6
	c-0.1,0.1-0.5,0.4-0.8,0.9c-0.3,0.4-0.3,0.9,0,1.1c-0.2,0-0.2,0.4-0.1,0.5c-0.2,0.7-0.3,0.8-0.3,1.6l0.1-0.2c1,0.3,0.2,0.6,0.4,1.2
	l-0.1,0c-0.3,0.7-0.1,0.9,0,1c0.1,0.1,0.2,0.2,0.1,1l0.5-0.3c0.6-0.2,0.6,0.1,0.5,0.5c-0.1,0.4-0.2,1,0.3,1.2l0.1-0.4
	c0.3,0,0.1,0.5-0.1,1c-0.2,0.5-0.4,1.2-0.3,1.4c0,0.1-0.2,0-0.4,0c0.2,1.1,0.5,0.2,1,0c0.1,0.1,0.1,0.2,0.2,0.3
	c-0.3,0.3-0.6,0.5-0.3,0.8c0,0.1,0,0.1,0.1,0.1c0,0,0,0.1,0,0.1c-0.3,0-0.6,0.1-0.4-0.4c-0.1,0.1-0.4,0.4-0.7,0.8
	c-0.2,0.4-0.3,0.8-0.1,0.9c-0.2,0-0.2,0.4-0.1,0.5c-0.2,0.7-0.3,0.7-0.3,1.4l0.1-0.2c0.6,0.3,0.1,0.6,0.3,1.1l-0.1,0
	c-0.1,0.7,0,0.8,0.1,0.9c0.1,0.1,0.1,0.2,0.1,0.9l0.3-0.2c0.4-0.1,0.4,0.1,0.4,0.5c0,0.4,0,0.9,0.4,1l0-0.3c0.2,0,0.1,0.4,0,0.9
	c-0.1,0.4-0.2,0.8-0.1,1c-0.1,0,0-0.2,0-0.4c-0.1,0.2-0.2,0.3-0.3,0.4c0,0,0,0,0,0c0,0,0,0,0,0c-0.1,0.5,0.3,0.9,0.6,1.3
	c-0.5,0.1-0.6,0.3-0.4,0.8c-0.3,0-0.6,0.1-0.4-0.4c-0.1,0.1-0.4,0.4-0.7,0.8c-0.2,0.4-0.3,0.8-0.1,0.9c-0.2,0-0.2,0.4-0.1,0.5
	c-0.2,0.7-0.3,0.7-0.3,1.4l0.1-0.2c0.6,0.3,0.2,0.5,0.3,1c-0.1-0.1-0.3-0.3-0.4-0.6c0,0.3,0.1,0.5-0.3,0.3c0,0.1-0.1,0.2-0.1,0.2
	c0,0,0,0,0,0l0,0c0,0,0,0,0,0c0.1,0.1,0.2,0.3,0.2,0.4c-0.3,0.5-1,0.4-1.3,0.7c-0.2-0.2,0.2-0.3,0-0.6L33,45.3c0-0.6-0.6-1,0.1-1.3
	L32.5,44c-0.3-0.4-0.7-0.5-1.1-0.3c-0.3-0.2-0.7,0.6-0.5,0.1l-0.9,0.3l0-0.1c-0.9-0.1-1.8,0.8-2.8-0.2c-0.3,0.1-0.6,0.3-1.1,0.1
	l-0.1-0.5c-0.4,0.2-1.1-0.5-1.3,0c-0.4-1.3-1.9-0.2-2.5-0.4l0,0.7c-0.5,0-0.9,0.2-1.4,0.5l0.1,0.6c-0.4,0.5-1.3-0.3-2-0.1
	c0-0.2,0.2-0.2,0.4-0.1c-1.1-1.2-1.8,1.2-2.8,0.4c-0.2,0.2-0.3,0.2-0.5,0.1c0,0,0,0,0,0c0,0-0.1,0-0.1,0c-0.1-0.1-0.2-0.2-0.3-0.2
	c0.1,0.1,0.2,0.2,0.3,0.3c-0.2,0-0.4,0.2-0.6,0.3l-0.2-0.6c0,0,0,0-0.1,0c-0.3-0.2-0.1,0.3,0.1,0.8c-0.1,0.1-0.2,0.3-0.2,0.4
	c-0.4-0.9-0.5,0.5-1-0.5c0,0.5-1.1,0.7-0.9,1.8c0-0.1-0.1-0.2,0-0.2c-0.3,0-0.6-0.1-0.7,0.3L12,46.5l-0.2,1.2
	c-0.5-0.4-0.7-0.6-0.6-1.3c-0.5,1.2-0.6,0.5-0.9,1.7l-0.1-0.5c-0.2,0.1-0.4,0.9-0.7,0.6C9,47.8,8.3,48,7.5,48.4
	c-0.8,0.3-1.6,0.8-2.6,0.9c1.1,1.1-1-0.1-0.4,0.9c-0.3-0.2-0.6-0.2-0.5-0.7c-0.5,0.8-1.4,0.4-1.2,1.5c-0.3-0.2-0.2-0.5-0.4-0.6
	c0,0.1,0,0.4-0.2,0.3C1.9,50.6,2,50.4,2,50.2c-0.7,0.7,0.1,1.6,0.8,2.3c-0.7,0-0.8,0.3-0.4,0.9c-0.4-0.1-0.8,0-0.6-0.6
	c-0.1,0.1-0.5,0.4-0.8,0.9c-0.3,0.4-0.3,0.9,0,1.1c-0.2,0-0.2,0.4-0.1,0.5c-0.2,0.7-0.3,0.8-0.3,1.6l0.1-0.2c1,0.3,0.2,0.6,0.4,1.2
	l-0.1,0c-0.3,0.7-0.1,0.9,0,1c0.1,0.1,0.2,0.2,0.1,1l0.5-0.3c0.6-0.2,0.6,0.1,0.5,0.5c-0.1,0.4-0.2,1,0.3,1.2l0.1-0.4
	c0.3,0,0.1,0.4-0.1,0.9c-0.1-0.2-0.1-0.3-0.2-0.4c0,0.1,0,0.4-0.2,0.3C1.9,61.6,2,61.4,2,61.2c-0.5,0.5-0.2,1.1,0.2,1.6
	c-0.1,0.2-0.1,0.4,0,0.5c0,0.1-0.2,0-0.4,0c0.2,1,0.5,0.3,0.9,0c0.1,0.1,0.1,0.1,0.2,0.2c-0.7,0-0.8,0.3-0.4,0.9
	c-0.4-0.1-0.8,0-0.6-0.6c-0.1,0.1-0.5,0.4-0.8,0.9c-0.3,0.4-0.3,0.9,0,1.1c-0.2,0-0.2,0.4-0.1,0.5c-0.2,0.7-0.3,0.8-0.3,1.6l0.1-0.2
	c1,0.3,0.2,0.6,0.4,1.2l-0.1,0c-0.3,0.7-0.1,0.9,0,1c0.1,0.1,0.2,0.2,0.1,1l0.5-0.3c0.6-0.2,0.6,0.1,0.5,0.5c-0.1,0.4-0.2,1,0.3,1.2
	l0.1-0.4c0.3,0,0.1,0.4-0.1,0.9c-0.1-0.2-0.1-0.3-0.2-0.4c0,0.1,0,0.4-0.2,0.3C1.9,72.6,2,72.4,2,72.1c-0.5,0.5-0.2,1.1,0.2,1.6
	c-0.1,0.2-0.1,0.4,0,0.5c0,0.1-0.2,0-0.4,0c0.2,1,0.5,0.3,0.9,0c0.1,0.1,0.1,0.1,0.2,0.2c-0.6,0-0.8,0.3-0.4,0.9
	c-0.4-0.1-0.8,0-0.6-0.6c-0.1,0.1-0.5,0.5-0.8,0.9c-0.3,0.5-0.3,1,0,1.1c-0.2,0-0.2,0.4-0.1,0.5c-0.2,0.7-0.3,0.8-0.3,1.6l0.1-0.2
	c1,0.3,0.2,0.6,0.4,1.2l-0.1,0c-0.3,0.7-0.1,0.9,0,1c0.1,0.1,0.2,0.2,0.1,1l0.5-0.3c0.6-0.2,0.6,0.1,0.5,0.5c-0.1,0.4-0.2,1,0.3,1.2
	l0.1-0.4c0.3,0,0.1,0.5-0.1,1c0,0,0,0.1,0,0.1c0-0.1-0.1-0.1-0.1-0.1c0,0.1,0,0.4-0.2,0.3C1.9,84,2,83.8,2,83.6
	c-0.5,0.5-0.3,1,0.1,1.6c0,0,0,0,0,0.1c0,0.1-0.2,0-0.4,0c0.2,0.8,0.4,0.5,0.6,0.2c0.1,0.1,0.2,0.2,0.3,0.3c0,0.1-0.1,0.1-0.1,0.2
	c-0.4,0.1-0.4,0.3-0.1,0.9c-0.4-0.1-0.8,0-0.6-0.6c-0.1,0.1-0.5,0.4-0.8,0.9c-0.3,0.4-0.3,0.9,0,1.1c-0.2,0-0.2,0.4-0.1,0.5
	c-0.2,0.7-0.3,0.8-0.3,1.6l0.1-0.2c1,0.3,0.2,0.6,0.4,1.2l-0.1,0c-0.3,0.7-0.1,0.9,0,1c0.1,0.1,0.2,0.2,0.1,1L1.8,93
	c0.6-0.2,0.6,0.1,0.5,0.5c-0.1,0.4-0.2,1,0.3,1.2l0.1-0.4c0.3,0,0.1,0.5-0.1,1c-0.2,0.5-0.4,1.2-0.3,1.4c0,0.1-0.2,0-0.4,0
	c0.3,1.4,0.7-0.5,1.4,0C3,97,2.3,97.3,2.6,97.7C2.6,98,3.2,98,3.7,98c0.5,0,1,0.1,1.1,0.6c0.1-0.4,0.1-0.7,0.5-0.8
	C5.8,98,5.9,99.7,6.8,99c0,0.1,0,0.2,0,0.3c0.5-0.1,1.3,0.1,1.8-0.3c-0.3,1,0.4,1,1,1c0.6-0.1,1.1-0.2,0.8,0.7c0,0,0.3,0.1,0.6,0.1
	c0.3,0.1,0.6,0.1,0.6,0.1l-0.1,0.2c0.7,0.3,1,0,1.4-0.4c0.1,0.2,0,0.3-0.1,0.4c0.9,0.7,1.1,0.6,2.1-0.2l-0.1,0.6
	c0.3-0.3,1.3,1.3,2.4,0.7c0,0.1-0.1,0.2-0.2,0.3c1.2-0.5,2.5,2.1,3.2-0.1l0.8-0.5c-0.9-0.3,0.2-1-0.1-1.4c0.4-0.1,0.9,0.8,0.4,0.9
	l-0.1-0.1c-0.3,1.2,1.2,0.5,1.1,1.3c1.9,0.1,3.8,0.7,5.6,0.7l-0.2-0.9l0.6,0c0.2,0.2,0.3,0.7-0.2,0.7c0.3,0.5,0.7-0.5,0.7-0.7
	c0.9,0.3-0.3,1.1,0,1.1l0.4-0.1l-0.1-0.1c0.3-0.4,0.3-0.8,0.8-0.8c0.4,0.2,0.2,0.6,0.4,0.6c0,0.1,0.1,0.1,0.2,0c0,0,0.2,0,0.4,0
	c0.2,0,0.4,0,0.4,0l-0.4-0.7c0.3-0.4,0.7,0,0.3-0.8c0.7,1.3,3,0.1,3.3,0.4c0.4-0.6,0.9-0.7,1.5-0.7c-0.2-0.1-0.4-0.9,0.1-0.9
	c0.2,1.7,1.1,0.5,1.8,1.6c-0.6-0.7,1.4-0.6,0.5-1.5c0.5,0,0.2,0.6,0.6,0.9c0.8-0.9,2.4-0.2,3.5-0.9c-0.1-0.2-0.4-0.5-0.3-0.9
	c0,0,0.3,0.2,0.5,0.4c0.3,0.2,0.5,0.4,0.5,0.4c0.2-0.2-0.3-1.3,0.5-0.8c-0.1-0.1-0.3-0.4-0.2-0.5c1.4,0,2.5-0.9,3.6-1.8
	c0.5-0.5,1.1-0.9,1.7-1.4c0.6-0.4,1.3-0.8,2.2-1.3c-0.6,0.2-0.5-0.1-0.3-0.4c-0.2,0.1-0.5-0.3-0.8-0.4c0,0,0.3-0.2,0.7-0.4
	c0.3-0.2,0.7-0.5,0.7-0.5c-0.3-0.3-0.2-0.6-0.2-1c0.1-0.4,0.1-0.7-0.3-0.9l0.1,0.5c-0.4-0.4-1-0.2-1.6-0.1c-0.6,0.1-1.2,0.1-1.8-0.1
	c0.5,0.3,0,0.4-0.4,0.5c-0.4,0.1-0.8,0.1-0.3,0.8c-0.3,0-0.2-0.3-0.5-0.4c0.3,0.4,0.3,0.7-0.1,0.8l-0.1-0.1c-0.6,0.8-1.3,0.7-2.4,1
	l0.4,0.5c-0.3,0.1-0.4-0.1-0.6-0.1c0.2,0.9,0.7-0.3,1,0.7c-0.5-0.4-0.9-0.2-1.3,0c-0.4,0.2-0.8,0.3-1.2-0.2c-0.4,0.2,0.4,0.6,0,0.7
	L41.8,95l0.1,0.5c-0.3,0-0.6-0.3-0.7-0.6c0.1,0,0.1-0.2,0.2-0.2c-0.5-0.3-0.8,0.5-1,0.4l0.5,0.1c-0.9,0.8-2.4,0.7-3.3,1.7l0.2,0.3
	c-0.7,0.7-0.8-0.1-1.7,0.3l0-0.1c-0.1,0.3-0.4,0.5-0.6,0.5c0.2-0.4-0.6-0.6-0.3-1c-0.8,0.7-0.4,0.5-0.8,1.7L34,98.2
	c-0.1,0.5-0.1,0.7-0.6,0.9c0.3-0.5-0.4-0.7,0-1.3c-1.1-0.9-1.4,1.2-2-0.2c-0.3,1.4,1,0.6,0.7,0.9c0.3,0.4-0.3,1-0.6,0.9
	c-0.3,0-0.7-1.6-1.5-1.5c0.1,0,0.1-0.1,0.2-0.1c-0.3-0.3-0.6,0.5-1,0c-0.2,0.8-0.5,0-0.5,1l0.8-0.3c-0.4,0.3-0.8,1.5-1.5,1
	c0-0.2,0.3-0.5,0.4-0.6c-0.2-0.3-0.4,0.2-0.6-0.1c0-1,0.9-0.3,1.3-1.1c-0.2-0.4-0.8,0.8-0.6-0.3c-0.3,1.4-0.8-0.1-1.3,0.9l0-0.6
	c-0.1,0.1-0.3,0.4-0.4,0.4l0.3-0.8c-0.4,0.7-0.9-0.6-1.3-0.2c0.9,0,0.2,0.7,0.6,1.2c-1.1,0.8-0.6-1.6-1.9-1.3
	c0.2-0.1,0.6,0.4,0.3,0.7c-0.2-0.1-0.5-0.4-0.7-0.7c-0.8,0.1,0.1,0.6-0.3,1c-0.2-0.8-0.4,0.3-0.8,0.5l0-0.6
	c-0.9-0.5-0.3,1.3-1.2,0.7l0.4-0.8l-0.5,0.2l0.1-0.7c-0.5,0.5-0.7,0.3-1.1,0.1c0.1,0.4-0.2,1.1-0.6,1.1c-0.2-0.4,0.2-0.6-0.4-0.5
	c0.2-0.4,0.4-0.8,0.6-0.2c0-0.2,0.2-0.4,0.2-0.6c-0.3-0.5-0.7-0.2-0.9-0.2c0.1,0,0.2,0.1,0.2,0.2c0,0-0.2,0.2-0.5,0.4
	c-0.2,0.2-0.5,0.4-0.5,0.4c-0.1-0.2,0-0.4,0.2-0.6c-0.2,0-0.3,0.3-0.6,0.3c0.1-0.5,0.2-1,0.6-1.2l-0.9,0.4c0-0.2-0.3-0.7-0.2-0.8
	c-0.4-0.4-1.2,0.8-1.7,0.3c-0.1,0.1-0.1,0.2-0.3,0.2c-0.5-0.2-0.8-0.9-1.6-0.4l-0.1-1c-0.5,0.1,0.2,1.2-0.7,1.3
	c-0.7,0.1,0-0.8-0.1-1.1c-0.4,0.4-1.2,1.1-1.5,0.2c0.2-0.1,0.3,0.1,0.5,0.1l-0.2-0.6c0.7-0.6,1-0.2,0.8-1c-0.6,1.6-1.5-0.3-2.2,1.2
	l-0.1-0.4c0.1,0,0.1,0,0.2,0c-0.1-1-0.8,1-1.4,0.5c-0.2-0.2-0.2-0.5,0-0.6L9,94.6c-0.1-0.1,0.1-0.3,0.2-0.3l-0.7-0.2l0,0
	c-0.2,0.2-0.7,0.4-0.9,0.5c0-0.3,0.2-0.1,0.3-0.3c0,0-0.1,0-0.3,0.1c-0.1,0-0.3,0.1-0.3,0.1c0.1-0.5,0.6-0.6,0.8-0.4
	c0.3-0.8,0.2-0.8,0-0.7c-0.2,0.1-0.6,0.2-0.6-0.4l0.4,0c0.4-0.9,0-0.8,0.1-1.5c-0.1,0.1-0.2,0.5-0.4,0.9c-0.1,0.4-0.3,0.8-0.6,0.8
	C7,93,7,92.8,6.6,92.9c0.4-0.5,0.2-0.5,0-0.6l0.6-0.6c-0.3,0-0.6,0.3-1,0.4c-0.1-0.3,0.4-0.7,0.7-1.1c0-0.2-0.2,0-0.4,0.2
	c-0.2,0.2-0.4,0.5-0.6,0.3c0-0.1,0-0.2,0-0.2c0-0.1-0.1-0.1-0.1-0.1c-0.2,0-0.4-0.1-0.7-0.1c0.2-0.3,0.5-0.1,0.7-0.2
	c0,0-0.7,0-0.7,0c0,0,0.2-0.1,0.3-0.1c-0.3-0.1-0.8,0.2-1.1-0.1c-0.5,0-0.1-0.2,0.2-0.4c0.3-0.2,0.6-0.3,0.2-0.5
	c0.2,0,0.5,0.1,0.8,0.2c-0.3-0.2-0.4-0.4-0.5-0.5c-0.1-0.1-0.3-0.3-0.6-0.6c0,0,0.2,0,0.3,0c0.2,0,0.3,0,0.3,0
	c-0.7-0.1-1.1-0.8-1.3-1.5c-0.3-0.1-0.6-0.1-0.8-0.1c0,0,0-0.2,0.1-0.4c0-0.1,0-0.2,0.1-0.3c0.1,0,0.2,0,0.3,0
	c0.1,0.1,0.2,0.2,0.3,0.4c0-0.1,0-0.2-0.1-0.2c0.4,0,0.7,0.4,0.9,0.8c-0.2,0-0.4-0.1-0.5-0.1c0.3,0.4,0.6,0.9,1.1,1.1
	c-0.1-0.1-0.1-0.2-0.1-0.3C5,88.4,5,88.5,5.1,88.5c0.1,0,0-0.1-0.1-0.3c0,0,0.2,0.1,0.4,0.2c0.2,0.1,0.4,0.2,0.4,0.2l-0.3-0.3
	c0,0,0.2,0,0.4-0.1c0.2,0,0.4,0,0.4,0c-0.1-0.2-0.1-0.4-0.2-0.7c0.2,0.1,0.3,0.1,0.6-0.1c0,0.1,0,0.2,0,0.3c0.1,0,0.1,0,0.2,0
	c0,0,0,0,0,0c0,0,0,0,0,0c0.5,0,1.2,0.1,1.5-0.3c-0.3,1,0.4,1,1,1c0.6-0.1,1.1-0.2,0.8,0.7c0,0,0.3,0.1,0.6,0.1
	c0.3,0.1,0.6,0.1,0.6,0.1l-0.1,0.2c0.7,0.3,1,0,1.4-0.4c0.1,0.2,0,0.3-0.1,0.4c0.9,0.7,1.1,0.6,2.1-0.2l-0.1,0.6
	c0.3-0.3,1.3,1.3,2.4,0.7c0,0.1-0.1,0.2-0.2,0.3c1.2-0.5,2.5,2.1,3.2-0.1l0.8-0.5c-0.9-0.3,0.2-1-0.1-1.4c0.4-0.1,0.9,0.8,0.4,0.9
	l-0.1-0.1c-0.3,1.2,1.2,0.5,1.1,1.3c1.9,0.1,3.8,0.7,5.6,0.7l-0.2-0.9l0.6,0c0.2,0.2,0.3,0.7-0.2,0.7c0.3,0.5,0.7-0.5,0.7-0.7
	c0.9,0.3-0.3,1.1,0,1.1l0.4-0.1l-0.1-0.1c0.3-0.4,0.3-0.8,0.8-0.8c0.4,0.2,0.2,0.6,0.4,0.6c0,0.1,0.1,0.1,0.2,0c0,0,0.2,0,0.4,0
	c0.2,0,0.4,0,0.4,0L30.9,91c0.3-0.4,0.7,0,0.3-0.8c0.7,1.3,3,0.1,3.3,0.4c0.4-0.6,0.9-0.7,1.5-0.7c-0.2-0.1-0.4-0.9,0.1-0.9
	c0.2,1.7,1.1,0.5,1.8,1.6c-0.6-0.7,1.4-0.6,0.5-1.5c0.5,0,0.2,0.6,0.6,0.9c0.8-0.9,2.4-0.2,3.5-0.9c-0.1-0.2-0.4-0.5-0.3-0.9
	c0,0,0.3,0.2,0.5,0.4c0.3,0.2,0.5,0.4,0.5,0.4c0.2-0.2-0.3-1.3,0.5-0.8c-0.1-0.1-0.3-0.4-0.2-0.5c1.4,0,2.5-0.9,3.6-1.8
	c0.2-0.1,0.4-0.3,0.5-0.4l0.2,0c0,0-0.1,0-0.1,0c0.1-0.1,0.3-0.2,0.4-0.4c0.3,0.2,0.9,0.3,1,0.7L49.2,86c0,0,0.2-0.1,0.4-0.1
	c0.2-0.1,0.4-0.1,0.4-0.1c-0.4-0.3-1-0.6-1.3-0.8c0.1-0.1,0.3-0.2,0.4-0.3c0.6-0.4,1.3-0.8,2.2-1.3c-0.6,0.2-0.5-0.1-0.3-0.4
	c-0.2,0.1-0.5-0.3-0.8-0.4c0,0,0.3-0.2,0.7-0.4c0.3-0.2,0.7-0.5,0.7-0.5c-0.3-0.3-0.2-0.6-0.2-1c0.1-0.4,0.1-0.7-0.3-0.9l0.1,0.5
	c-0.4-0.4-1-0.2-1.6-0.1c-0.6,0.1-1.2,0.1-1.8-0.1c0.5,0.3,0,0.4-0.4,0.5c-0.4,0.1-0.8,0.1-0.3,0.8c-0.3,0-0.2-0.3-0.5-0.4
	c0.3,0.4,0.3,0.7-0.1,0.8l-0.1-0.1c-0.6,0.8-1.3,0.7-2.4,1l0.4,0.5c-0.3,0.1-0.4-0.1-0.6-0.1c0.2,0.9,0.7-0.3,1,0.7
	c-0.5-0.4-0.9-0.2-1.3,0c-0.4,0.2-0.8,0.3-1.2-0.2c-0.4,0.2,0.4,0.6,0,0.7l-0.3-0.3l0.1,0.5c-0.3,0-0.6-0.3-0.7-0.6
	c0.1,0,0.1-0.2,0.2-0.2c-0.5-0.3-0.8,0.5-1,0.4l0.5,0.1c-0.9,0.8-2.4,0.7-3.3,1.7l0.2,0.3c-0.7,0.7-0.8-0.1-1.7,0.3l0-0.1
	c-0.1,0.3-0.4,0.5-0.6,0.5c0.2-0.4-0.6-0.6-0.3-1c-0.8,0.7-0.4,0.5-0.8,1.7L34,86.8c-0.1,0.5-0.1,0.7-0.6,0.9c0.3-0.5-0.4-0.7,0-1.3
	c-1.1-0.9-1.4,1.2-2-0.2c-0.3,1.4,1,0.6,0.7,0.9c0.3,0.4-0.3,1-0.6,0.9c-0.3,0-0.7-1.6-1.5-1.5c0.1,0,0.1-0.1,0.2-0.1
	c-0.3-0.3-0.6,0.5-1,0c-0.2,0.8-0.5,0-0.5,1l0.8-0.3c-0.4,0.3-0.8,1.5-1.5,1c0-0.2,0.3-0.5,0.4-0.6c-0.2-0.3-0.4,0.2-0.6-0.1
	c0-1,0.9-0.2,1.3-1.1c-0.2-0.4-0.8,0.8-0.6-0.3c-0.3,1.4-0.8-0.1-1.3,0.9l0-0.6c-0.1,0.1-0.3,0.4-0.4,0.4l0.3-0.8
	c-0.4,0.7-0.9-0.6-1.3-0.2c0.9,0,0.2,0.7,0.6,1.2c-1.1,0.8-0.6-1.6-1.9-1.3c0.2-0.1,0.6,0.4,0.3,0.7c-0.2-0.1-0.5-0.4-0.7-0.7
	c-0.8,0.1,0.1,0.6-0.3,1c-0.2-0.8-0.4,0.3-0.8,0.5l0-0.6c-0.9-0.5-0.3,1.3-1.2,0.7l0.4-0.8l-0.5,0.2l0.1-0.7
	c-0.5,0.5-0.7,0.3-1.1,0.1c0.1,0.4-0.2,1.1-0.6,1.1c-0.2-0.4,0.2-0.6-0.4-0.5c0.2-0.4,0.4-0.8,0.6-0.2c0-0.2,0.2-0.4,0.2-0.6
	c-0.3-0.5-0.7-0.2-0.9-0.2c0.1,0,0.2,0.1,0.2,0.2c0,0-0.2,0.2-0.5,0.4c-0.2,0.2-0.5,0.4-0.5,0.4c-0.1-0.2,0-0.4,0.2-0.6
	c-0.2,0-0.3,0.3-0.6,0.3c0.1-0.5,0.2-1,0.6-1.2l-0.9,0.4c0-0.2-0.3-0.7-0.2-0.8c-0.4-0.4-1.2,0.8-1.7,0.3c-0.1,0.1-0.1,0.2-0.3,0.2
	c-0.5-0.2-0.8-0.9-1.6-0.4l-0.1-1c-0.5,0.1,0.2,1.2-0.7,1.3c-0.7,0.1,0-0.8-0.1-1.1c-0.4,0.4-1.2,1.1-1.5,0.2
	c0.2-0.1,0.3,0.1,0.5,0.1l-0.2-0.6c0.7-0.6,1-0.2,0.8-1c-0.6,1.6-1.5-0.3-2.2,1.2l-0.1-0.4c0.1,0,0.1,0,0.2,0c-0.1-1-0.8,1-1.4,0.5
	c-0.2-0.2-0.2-0.5,0.1-0.6L9,83.1C8.8,83,9,82.8,9.1,82.9l-0.7-0.2l0,0c-0.2,0.2-0.7,0.4-0.9,0.5c0-0.3,0.2-0.1,0.3-0.3
	c0,0-0.1,0-0.3,0.1c-0.1,0-0.3,0.1-0.3,0.1c0.1-0.5,0.6-0.6,0.8-0.4c0.3-0.8,0.2-0.8,0-0.7c-0.2,0.1-0.6,0.2-0.6-0.4l0.4,0
	c0.4-0.9,0-0.8,0.1-1.5c-0.1,0.1-0.2,0.5-0.4,0.9c-0.1,0.4-0.3,0.8-0.6,0.8c0-0.2-0.1-0.3-0.5-0.2C7,81,6.7,81,6.5,80.9l0.6-0.6
	c-0.3,0-0.6,0.3-1,0.4C6,80.5,6.5,80,6.9,79.7c0-0.2-0.2,0-0.4,0.2c-0.2,0.2-0.4,0.5-0.6,0.3c0-0.1,0-0.2,0-0.2
	c0-0.1-0.1-0.1-0.1-0.1c-0.2,0-0.4-0.1-0.7-0.1c0.2-0.3,0.5-0.1,0.7-0.2c0,0-0.7,0-0.7,0c0,0,0.2-0.1,0.3-0.1
	c-0.3-0.1-0.8,0.2-1.1-0.1c-0.5,0-0.1-0.2,0.2-0.4c0.3-0.2,0.6-0.3,0.2-0.5c0.2,0,0.5,0.1,0.8,0.2c-0.3-0.2-0.4-0.4-0.5-0.5
	c-0.1-0.1-0.3-0.3-0.6-0.6c0,0,0.2,0,0.3,0c0.2,0,0.3,0,0.3,0c-0.7-0.1-1.1-0.8-1.3-1.5c-0.3-0.1-0.6-0.1-0.8-0.1c0,0,0-0.1,0-0.3
	c0.2,0,0.4,0,0.6,0c0,0.1,0.1,0.2,0.1,0.3c0.1,0,0.1,0,0.2,0c-0.1-0.1-0.2-0.3-0.2-0.4c0,0,0,0,0.1,0c0.2,0,0.3,0,0.4,0.1
	c0.1,0.1,0.2,0.3,0.3,0.5c-0.2,0-0.4-0.1-0.5-0.1c0.3,0.4,0.6,0.9,1.1,1.1c-0.1-0.1-0.1-0.2-0.1-0.3C5,76.9,5,77,5.1,77
	c0.1,0,0-0.1-0.1-0.3c0,0,0.2,0.1,0.4,0.2c0.2,0.1,0.4,0.2,0.4,0.2l-0.3-0.3c0,0,0.2,0,0.4-0.1c0.2,0,0.4,0,0.4,0c0,0,0-0.1,0-0.1
	c0.1,0,0.3,0,0.4-0.2c0,0.1,0,0.2,0,0.3c0.5-0.1,1.3,0.1,1.8-0.3c-0.3,1,0.4,1,1,1c0.6-0.1,1.1-0.2,0.8,0.7c0,0,0.3,0.1,0.6,0.1
	c0.3,0.1,0.6,0.1,0.6,0.1l-0.1,0.2c0.7,0.3,1,0,1.4-0.4c0.1,0.2,0,0.3-0.1,0.4c0.9,0.7,1.1,0.6,2.1-0.2l-0.1,0.6
	c0.3-0.3,1.3,1.3,2.4,0.7c0,0.1-0.1,0.2-0.2,0.3c1.2-0.5,2.5,2.1,3.2-0.1l0.8-0.5c-0.9-0.3,0.2-1-0.1-1.4c0.4-0.1,0.9,0.8,0.4,0.9
	l-0.1-0.1c-0.3,1.2,1.2,0.5,1.1,1.3c1.9,0.1,3.8,0.7,5.6,0.7L27.7,80l0.6,0c0.2,0.2,0.3,0.7-0.2,0.7c0.3,0.5,0.7-0.5,0.7-0.7
	c0.9,0.3-0.3,1.1,0,1.1l0.4-0.1l-0.1-0.1c0.3-0.4,0.3-0.8,0.8-0.8c0.4,0.2,0.2,0.6,0.4,0.6c0,0.1,0.1,0.1,0.2,0c0,0,0.2,0,0.4,0
	c0.2,0,0.4,0,0.4,0L30.9,80c0.3-0.4,0.7,0,0.3-0.8c0.7,1.3,3,0.1,3.3,0.4C35,79,35.4,79,36,78.9c-0.2-0.1-0.4-0.9,0.1-0.9
	c0.2,1.7,1.1,0.5,1.8,1.6c-0.6-0.7,1.4-0.6,0.5-1.5c0.5,0,0.2,0.6,0.6,0.9c0.8-0.9,2.4-0.2,3.5-0.9c-0.1-0.2-0.4-0.5-0.3-0.9
	c0,0,0.3,0.2,0.5,0.4c0.3,0.2,0.5,0.4,0.5,0.4c0.2-0.2-0.3-1.3,0.5-0.8c-0.1-0.1-0.3-0.4-0.2-0.5c1.4,0,2.5-0.9,3.6-1.8
	c0.5-0.4,0.9-0.8,1.4-1.1c0.3,0.1,0.5,0.2,0.6,0.5l-0.1,0.2c0,0,0.2-0.1,0.4-0.1c0.2-0.1,0.4-0.1,0.4-0.1c-0.3-0.2-0.7-0.4-1-0.6
	c0,0,0,0,0,0c0.6-0.4,1.3-0.8,2.2-1.3c-0.6,0.2-0.5-0.1-0.3-0.4c-0.2,0.1-0.5-0.3-0.8-0.4c0,0,0.3-0.2,0.7-0.4
	c0.3-0.2,0.7-0.5,0.7-0.5c-0.3-0.3-0.2-0.6-0.2-1c0.1-0.4,0.1-0.7-0.3-0.9l0.1,0.5c-0.4-0.4-1-0.2-1.6-0.1c-0.6,0.1-1.2,0.1-1.8-0.1
	c0.5,0.3,0,0.4-0.4,0.5c-0.4,0.1-0.8,0.1-0.3,0.8c-0.3,0-0.2-0.3-0.5-0.4c0.3,0.4,0.3,0.7-0.1,0.8l-0.1-0.1c-0.6,0.8-1.3,0.7-2.4,1
	l0.4,0.5c-0.3,0.1-0.4-0.1-0.6-0.1c0.2,0.9,0.7-0.3,1,0.7c-0.5-0.4-0.9-0.2-1.3,0c-0.4,0.2-0.8,0.3-1.2-0.2c-0.4,0.2,0.4,0.6,0,0.7
	l-0.3-0.3l0.1,0.5c-0.3,0-0.6-0.3-0.7-0.6c0.1,0,0.1-0.2,0.2-0.2c-0.5-0.3-0.8,0.5-1,0.4l0.5,0.1c-0.9,0.8-2.4,0.7-3.3,1.7l0.2,0.3
	c-0.7,0.7-0.8-0.1-1.7,0.3l0-0.1c-0.1,0.3-0.4,0.5-0.6,0.5c0.2-0.4-0.6-0.6-0.3-1c-0.8,0.7-0.4,0.5-0.8,1.7L34,75.8
	c-0.1,0.5-0.1,0.7-0.6,0.9c0.3-0.5-0.4-0.7,0-1.3c-1.1-0.9-1.4,1.2-2-0.2c-0.3,1.4,1,0.6,0.7,0.9c0.3,0.4-0.3,1-0.6,0.9
	c-0.3,0-0.7-1.6-1.5-1.5c0.1,0,0.1-0.1,0.2-0.1c-0.3-0.3-0.6,0.5-1,0c-0.2,0.8-0.5,0-0.5,1l0.8-0.3c-0.4,0.3-0.8,1.5-1.5,1
	c0-0.2,0.3-0.5,0.4-0.6c-0.2-0.3-0.4,0.2-0.6-0.1c0-1,0.9-0.2,1.3-1.1c-0.2-0.4-0.8,0.8-0.6-0.3c-0.3,1.4-0.8-0.1-1.3,0.9l0-0.6
	c-0.1,0.1-0.3,0.4-0.4,0.4l0.3-0.8c-0.4,0.7-0.9-0.6-1.3-0.2c0.9,0,0.2,0.7,0.6,1.2c-1.1,0.8-0.6-1.6-1.9-1.3
	c0.2-0.1,0.6,0.4,0.3,0.7c-0.2-0.1-0.5-0.4-0.7-0.7c-0.8,0.1,0.1,0.6-0.3,1c-0.2-0.8-0.4,0.3-0.8,0.5l0-0.6
	c-0.9-0.5-0.3,1.3-1.2,0.7l0.4-0.8l-0.5,0.2l0.1-0.7c-0.5,0.5-0.7,0.3-1.1,0.1c0.1,0.4-0.2,1.1-0.6,1.1c-0.2-0.4,0.2-0.6-0.4-0.5
	c0.2-0.4,0.4-0.8,0.6-0.2c0-0.2,0.2-0.4,0.2-0.6c-0.3-0.5-0.7-0.2-1-0.2c0.1,0,0.2,0.1,0.2,0.2c0,0-0.2,0.2-0.5,0.4
	c-0.2,0.2-0.5,0.4-0.5,0.4c-0.1-0.2,0-0.4,0.2-0.6c-0.2,0-0.3,0.3-0.6,0.3c0.1-0.5,0.2-1,0.6-1.2l-0.9,0.4c0-0.2-0.3-0.7-0.2-0.8
	c-0.4-0.4-1.2,0.8-1.7,0.3c0,0.1-0.1,0.2-0.3,0.2c-0.5-0.2-0.8-0.9-1.6-0.4l-0.1-1c-0.5,0.1,0.2,1.2-0.7,1.3c-0.7,0.1,0-0.8-0.1-1.1
	c-0.4,0.4-1.2,1.1-1.5,0.2c0.2-0.1,0.3,0.1,0.5,0.1l-0.2-0.6c0.7-0.6,1-0.2,0.8-1c-0.6,1.6-1.5-0.3-2.2,1.2l-0.1-0.4
	c0.1,0,0.1,0,0.2,0c-0.1-1-0.8,1-1.4,0.5c-0.2-0.2-0.2-0.5,0-0.6L9,72.2c-0.1-0.1,0.1-0.4,0.2-0.3l-0.7-0.2l0,0
	c-0.2,0.2-0.7,0.4-0.9,0.5c0-0.3,0.2-0.1,0.3-0.3c0,0-0.1,0-0.3,0.1c-0.1,0-0.3,0.1-0.3,0.1c0.1-0.5,0.6-0.6,0.8-0.4
	c0.3-0.8,0.2-0.8,0-0.7c-0.2,0.1-0.6,0.2-0.6-0.4l0.4,0c0.4-0.9,0-0.8,0.1-1.5c-0.1,0.1-0.2,0.5-0.4,0.9c-0.1,0.4-0.3,0.8-0.6,0.8
	c0-0.2-0.1-0.3-0.5-0.2C7,70,6.7,70,6.5,69.9l0.6-0.6c-0.3,0-0.6,0.3-1,0.4c-0.1-0.3,0.4-0.7,0.7-1.1c0-0.2-0.2,0-0.4,0.2
	c-0.2,0.2-0.4,0.5-0.6,0.3c0-0.1,0-0.2,0-0.2c0-0.1-0.1-0.1-0.1-0.1c-0.2,0-0.4-0.1-0.7-0.1c0.2-0.3,0.5-0.1,0.7-0.2
	c0,0-0.7,0-0.7,0c0,0,0.2-0.1,0.3-0.1c-0.3-0.1-0.8,0.2-1.1-0.1c-0.5,0-0.1-0.2,0.2-0.4c0.3-0.2,0.6-0.3,0.2-0.5
	c0.2,0,0.5,0.1,0.8,0.2c-0.3-0.2-0.4-0.4-0.5-0.5c-0.1-0.1-0.3-0.3-0.6-0.7c0,0,0.2,0,0.3,0c0.2,0,0.3,0,0.3,0
	c-0.7-0.1-1.1-0.8-1.3-1.5c-0.3-0.1-0.6-0.1-0.8-0.1c0,0,0-0.1,0-0.3c0.2,0,0.4,0,0.6,0c0,0.1,0.1,0.2,0.1,0.3c0.1,0,0.1,0,0.2,0
	c-0.1-0.1-0.2-0.3-0.2-0.4c0,0,0,0,0.1,0c0.2,0,0.3,0,0.4,0.1c0.1,0.1,0.2,0.3,0.3,0.5c-0.2,0-0.4-0.1-0.5-0.1
	c0.3,0.4,0.6,0.9,1.1,1.1c-0.1-0.1-0.1-0.2-0.1-0.3C5,65.9,5,66,5.1,66.1c0.1,0,0-0.1-0.1-0.3c0,0,0.2,0.1,0.4,0.2
	c0.2,0.1,0.4,0.2,0.4,0.2L5.5,66c0,0,0.2,0,0.4-0.1c0.2,0,0.4,0,0.4,0c0,0,0-0.1,0-0.1c0.1,0,0.3,0,0.5-0.2c0,0.1,0,0.2,0,0.3
	c0.5-0.1,1.3,0.1,1.8-0.3c-0.3,1,0.4,1,1,1c0.6-0.1,1.1-0.2,0.8,0.7c0,0,0.3,0.1,0.6,0.1c0.3,0.1,0.6,0.1,0.6,0.1l-0.1,0.2
	c0.7,0.3,1,0,1.4-0.4c0.1,0.2,0,0.3-0.1,0.4c0.9,0.7,1.1,0.6,2.1-0.2l-0.1,0.6c0.3-0.3,1.3,1.3,2.4,0.7c0,0.1-0.1,0.2-0.2,0.3
	c1.2-0.5,2.5,2.1,3.2-0.1l0.8-0.5c-0.9-0.3,0.2-1-0.1-1.4c0.4-0.1,0.9,0.8,0.4,0.9l-0.1-0.1c-0.3,1.2,1.2,0.5,1.1,1.3
	c1.9,0.1,3.8,0.7,5.6,0.7L27.7,69l0.6,0c0.2,0.2,0.3,0.7-0.2,0.7c0.3,0.5,0.7-0.5,0.7-0.7c0.9,0.3-0.3,1.1,0,1.1l0.4-0.1L29.1,70
	c0.3-0.4,0.3-0.8,0.8-0.8c0.4,0.2,0.2,0.6,0.4,0.6c0,0.1,0.1,0.1,0.2,0c0,0,0.2,0,0.4,0c0.2,0,0.4,0,0.4,0l-0.4-0.7
	c0.3-0.4,0.7,0,0.3-0.8c0.7,1.3,3,0.1,3.3,0.4c0.4-0.6,0.9-0.7,1.5-0.7c-0.2-0.1-0.4-0.9,0.1-0.9c0.2,1.7,1.1,0.5,1.8,1.6
	c-0.6-0.7,1.4-0.6,0.5-1.5c0.5,0,0.2,0.6,0.6,0.9c0.8-0.9,2.4-0.2,3.5-0.9c-0.1-0.2-0.4-0.5-0.3-0.9c0,0,0.3,0.2,0.5,0.4
	c0.3,0.2,0.5,0.4,0.5,0.4c0.2-0.2-0.3-1.3,0.5-0.8c-0.1-0.1-0.3-0.4-0.2-0.5c1.4,0,2.5-0.9,3.6-1.8c0.5-0.4,0.9-0.8,1.4-1.1
	c0.3,0.1,0.5,0.2,0.6,0.5l-0.1,0.2c0,0,0.2-0.1,0.4-0.1c0.2-0.1,0.4-0.1,0.4-0.1c-0.3-0.2-0.7-0.4-1-0.6c0,0,0,0,0,0
	c0.6-0.4,1.3-0.8,2.2-1.3c-0.6,0.2-0.5-0.1-0.3-0.4c-0.2,0.1-0.5-0.3-0.8-0.4c0,0,0.3-0.2,0.7-0.4c0.3-0.2,0.7-0.5,0.7-0.5
	c-0.3-0.3-0.2-0.6-0.2-1c0.1-0.4,0.1-0.7-0.3-0.9l0.1,0.5c-0.4-0.4-1-0.2-1.6-0.1c-0.6,0.1-1.2,0.1-1.8-0.1c0.5,0.3,0,0.4-0.4,0.5
	c-0.4,0.1-0.8,0.1-0.3,0.8c-0.3,0-0.2-0.3-0.5-0.4c0.3,0.4,0.3,0.7-0.1,0.8l-0.1-0.1c-0.6,0.8-1.3,0.7-2.4,1l0.4,0.5
	c-0.3,0.1-0.4-0.1-0.6-0.1c0.2,0.9,0.7-0.3,1,0.7c-0.5-0.4-0.9-0.2-1.3,0c-0.4,0.2-0.8,0.3-1.2-0.2c-0.4,0.2,0.4,0.6,0,0.7l-0.3-0.3
	l0.1,0.5c-0.3,0-0.6-0.3-0.7-0.6c0.1,0,0.1-0.2,0.2-0.2c-0.5-0.3-0.8,0.5-1,0.4l0.5,0.1c-0.9,0.8-2.4,0.7-3.3,1.7l0.2,0.3
	c-0.7,0.7-0.8-0.1-1.7,0.3l0-0.1c-0.1,0.3-0.4,0.5-0.6,0.5c0.2-0.4-0.6-0.6-0.3-1c-0.8,0.7-0.4,0.5-0.8,1.7L34,64.8
	c-0.1,0.5-0.1,0.7-0.6,0.9c0.3-0.5-0.4-0.7,0-1.3c-1.1-0.9-1.4,1.2-2-0.2c-0.3,1.4,1,0.6,0.7,0.9c0.3,0.4-0.3,1-0.6,0.9
	c-0.3,0-0.7-1.6-1.5-1.5c0.1,0,0.1-0.1,0.2-0.1c-0.3-0.3-0.6,0.5-1,0c-0.2,0.8-0.5,0-0.5,1l0.8-0.3c-0.4,0.3-0.8,1.5-1.5,1
	c0-0.2,0.3-0.5,0.4-0.6c-0.2-0.3-0.4,0.2-0.6-0.1c0-1,0.9-0.3,1.3-1.1c-0.2-0.4-0.8,0.8-0.6-0.3c-0.3,1.4-0.8-0.1-1.3,0.9l0-0.6
	c-0.1,0.1-0.3,0.4-0.4,0.4l0.3-0.8c-0.4,0.7-0.9-0.6-1.3-0.2c0.9,0,0.2,0.7,0.6,1.2c-1.1,0.8-0.6-1.6-1.9-1.3
	c0.2-0.1,0.6,0.4,0.3,0.7c-0.2-0.1-0.5-0.4-0.7-0.7c-0.8,0.1,0.1,0.6-0.3,1c-0.2-0.8-0.4,0.3-0.8,0.5l0-0.6
	c-0.9-0.5-0.3,1.3-1.2,0.7l0.4-0.8l-0.5,0.2l0.1-0.7c-0.5,0.5-0.7,0.3-1.1,0.1c0.1,0.4-0.2,1.1-0.6,1.1c-0.2-0.4,0.2-0.6-0.4-0.5
	c0.2-0.4,0.4-0.8,0.6-0.2c0-0.2,0.2-0.4,0.2-0.6c-0.3-0.5-0.7-0.2-1-0.2c0.1,0,0.2,0.1,0.2,0.2c0,0-0.2,0.2-0.5,0.4
	c-0.2,0.2-0.5,0.4-0.5,0.4c-0.1-0.2,0-0.4,0.2-0.6c-0.2,0-0.3,0.3-0.6,0.3c0.1-0.5,0.2-1,0.6-1.2l-0.9,0.4c0-0.2-0.3-0.7-0.2-0.8
	c-0.4-0.4-1.2,0.8-1.7,0.3c0,0.1-0.1,0.2-0.3,0.2c-0.5-0.2-0.8-0.9-1.6-0.4l-0.1-1c-0.5,0.1,0.2,1.2-0.7,1.3c-0.7,0.1,0-0.8-0.1-1.1
	c-0.4,0.4-1.2,1.1-1.5,0.2c0.2-0.1,0.3,0.1,0.5,0.1l-0.2-0.6c0.7-0.6,1-0.2,0.8-1c-0.6,1.6-1.5-0.3-2.2,1.2l-0.1-0.4
	c0.1,0,0.1,0,0.2,0c-0.1-1-0.8,1-1.4,0.5c-0.2-0.2-0.2-0.5,0-0.6L9,61.2c-0.1-0.1,0.1-0.3,0.2-0.3l-0.7-0.2l0,0
	c-0.2,0.2-0.7,0.4-0.9,0.5c0-0.3,0.2-0.1,0.3-0.3c0,0-0.1,0-0.3,0.1c-0.1,0-0.3,0.1-0.3,0.1c0.1-0.5,0.6-0.6,0.8-0.4
	c0.3-0.8,0.2-0.8,0-0.7c-0.2,0.1-0.6,0.2-0.6-0.4l0.4,0c0.4-0.9,0-0.8,0.1-1.5c-0.1,0.1-0.2,0.5-0.4,0.9c-0.1,0.4-0.3,0.8-0.6,0.8
	c0-0.2-0.1-0.3-0.5-0.2c0.4-0.5,0.2-0.5,0-0.6l0.6-0.6c-0.3,0-0.6,0.3-1,0.4c-0.1-0.3,0.4-0.7,0.7-1.1c0-0.2-0.2,0-0.4,0.2
	c-0.2,0.2-0.4,0.5-0.6,0.3c0-0.1,0-0.2,0-0.2c0-0.1-0.1-0.1-0.1-0.1c-0.2,0-0.4-0.1-0.7-0.1c0.2-0.3,0.5-0.1,0.7-0.2
	c0,0-0.7,0-0.7,0c0,0,0.2-0.1,0.3-0.1c-0.3-0.1-0.8,0.2-1.1-0.1c-0.5,0-0.1-0.2,0.2-0.4c0.3-0.2,0.6-0.3,0.2-0.5
	c0.2,0,0.5,0.1,0.8,0.2c-0.3-0.2-0.4-0.4-0.5-0.5c-0.1-0.1-0.3-0.3-0.6-0.6c0,0,0.2,0,0.3,0c0.2,0,0.3,0,0.3,0
	c-0.7-0.1-1.1-0.8-1.3-1.5c-0.3-0.1-0.6-0.1-0.8-0.1c0,0,0-0.2,0.1-0.4c0-0.2,0.1-0.5,0.1-0.5c0.2,0,0.3,0.3,0.5,0.6
	c0-0.1,0-0.2-0.1-0.2c0.4,0,0.7,0.4,0.9,0.8c-0.2,0-0.4-0.1-0.5-0.1c0.3,0.4,0.6,0.9,1.1,1.1c-0.1-0.1-0.1-0.2-0.1-0.3
	C5,55,5,55.1,5.1,55.1c0.1,0,0-0.1-0.1-0.3c0,0,0.2,0.1,0.4,0.2c0.2,0.1,0.4,0.2,0.4,0.2L5.5,55c0,0,0.2,0,0.4-0.1
	c0.2,0,0.4,0,0.4,0c-0.3-1-0.7-2.4,0-3.3c0.1,0.7,0.6,0.9,1,1.6C6.7,52.6,7,53.9,6.5,54C6.8,53.9,7,54.3,7,54.4c0,0,0-0.3,0.1-0.5
	c0-0.3,0.1-0.6,0.1-0.6c0.4,0.5,0.4,0.3,0.7,0.4c-0.8-1,0.1-1.1,0.2-1.6c0.2,0.4,0.4,0.8-0.1,0.9c0.9,0.6-0.2-1.6,0.7-1.1
	c-0.1,0.1-0.2,0-0.1,0.2c0.1-0.5,0.8-0.5,0.8-0.1l-0.1,0.1c0.7-0.2,2.1-0.9,1.8-1.9c0.1,0.1,0.4,1.3,0.4,1.5c0,0,0-1,0-2
	c0-1,0.1-2,0.1-2c0.2,0.9,1.3,2.9,0.8,3.6c0.2,0.1,0.5,0.2,0.7-0.3c-0.2-0.1-0.7-1.2-0.5-1.3c0.7,0.9,0.5,0.4,1.3,1.1
	c-0.2-0.1-0.4-1.6-0.1-1.7c0,0.2,0.4,1.4,0.3,1.6c0,0,0.1-0.4,0.2-0.8c0.1-0.4,0.2-0.8,0.2-0.8c-0.1,0.3,0.3,1.2,0.5,1.6
	c-0.1-0.3,0.6-0.1,0.8-0.3l-0.4-0.3c0.8,0,0.4-2.2,1.2-2.2c-0.1,0.3,0.1,1.8,0.5,2c0-0.8,0.2-3.7,1-4.3l0.2,0.4l0.5-0.6
	c-0.2,1.2-0.9,3.6-1.3,4.6c0.4,0.3,0.2,0.5,0.6,0.4c0.2,0.4-0.1,0.6-0.3,0.7c0,0,0.3,0,0.5,0c0.3,0,0.5,0.1,0.5,0.1
	c-0.2-0.9,0.7-1,0.6-1.7c0,0-0.3,0.3-0.5,0.5c-0.3,0.3-0.5,0.5-0.5,0.5c-0.2-0.8,0.3-2.5,1.1-2.5c0.2,0.3,0,1.5,0.1,1.8
	c0.1-0.3,0.7-0.7,0.7-0.4L20.3,50c0.4,0.3,0.6-1.2,1.2-0.4c0.2,0,0.6,1.1,0.6,0.6c-0.4-1-0.7-4-0.5-4.7c0.1,0.1,1.1,0.9,1.3,1.3
	c0.3,0.8-0.3,1.9,0,2.5c0-0.2,0.1-0.5,0.2-0.6c0.2,0.2,0,0.7,0.4,0.6c0-0.9,0.8,0,0.2-0.7c0.4-0.3,0.4,0.2,0.9,0.1
	c-0.2-0.6,0.4-1.9,0.8-2.2c0,0.2,0.1,0.5,0.1,0.6c0.8,0.1,1.3,0.5,2.1,0.5c0.1,0.2,0.4,0.5,0.3,0.9c0.1-0.2,0.2-0.4,0.5-0.5
	c0.4,0.8-0.5,0.1-0.2,1c0-0.5,0.6-0.7,1-1c-0.1-0.8-0.8-0.2-1.1,0.1c0-1.1,0.7-2.2,1.6-2.6c0.7-0.2,0.2,0.7,0.4,0.6
	c1.2,0.3,1.2-1.8,2.2-0.9c0.3,0.7-0.1,1.4-0.1,1.9c-0.6,0.2-0.8-0.5-1.1-0.5l0.4,0.4c-0.2,0.2-0.6,0.3-0.7,0.1
	c0.3,0.6,2.1,0.3,2.9,1c0.2-0.2,0.5-0.4,0.4-0.7l-0.3,0.1c-0.2-0.6,0.7-0.7,0.3-1c0.5-0.3,1-0.9,1.6-0.4l0,0.8
	c0-0.2-0.2-0.4-0.4-0.4c0.3,0,0.6,1.1,1.1,0.3L35.6,46c0.3-0.2,0.7-0.6,1.1-0.7c0.7,0,1.3,0.1,2,0.2c0,0,0,0,0,0.1l0-0.1l0,0
	c0,0,0,0,0,0c0-0.1-0.1-0.2-0.1-0.3l0.1,0l0.2-0.5l-0.4,0.5c-0.1-0.1-0.3-0.2-0.6-0.4c0.1-0.3,0.3-0.1,0.5-0.2c0,0-0.1,0-0.2,0
	c-0.1,0-0.2-0.1-0.2-0.1c0-0.1,0.1-0.1,0.2-0.1c-0.2-0.1-0.5,0.1-0.7-0.2c-0.3,0-0.1-0.2,0.1-0.4c0.2-0.2,0.4-0.4,0.1-0.6
	c0.2-0.1,0.3,0.1,0.5,0.1c-0.1-0.3-0.2-0.4-0.2-0.6c0-0.1-0.1-0.3-0.3-0.6c0,0,0.1-0.1,0.3-0.1c0.1-0.1,0.3-0.1,0.3-0.1
	c-0.5,0.1-0.7-0.5-0.8-1.2c-0.2,0-0.5,0-0.6,0c0,0,0.2-0.8,0.2-0.8c0.1,0,0.2,0.2,0.3,0.4c0-0.1,0-0.1,0-0.2
	c0.3-0.1,0.5,0.3,0.6,0.6c-0.1,0-0.3,0-0.4,0c0.2,0.3,0.4,0.7,0.6,0.8c0-0.1,0-0.2,0-0.2c0,0.1,0.1,0.2,0.2,0.2c0.1,0,0-0.1,0-0.3
	l0.6,0.3l-0.2-0.2c0,0,0.2-0.1,0.4-0.2c0.2-0.1,0.4-0.1,0.4-0.1c0-0.4,0-0.8,0-1.3c0.1,0.1,0.2,0.2,0.4,0.4c0,0,0,0-0.1,0
	c0,0,0.1,0,0.1,0c0.3,0.4,0.5,0.8,1,0.5c0,0.1,0,0.1,0,0.2c0.4,0,1.2,0.3,1.6,0c-0.1,0.7,0.5,0.8,1,0.8c0.6,0,1.1,0,0.8,0.6
	c0,0,0.3,0.1,0.5,0.1c0.3,0.1,0.5,0.1,0.5,0.1l-0.1,0.1c0.7,0.3,1,0.1,1.3-0.2c0.1,0.1,0,0.2,0,0.3c0.9,0.5,1.1,0.5,2,0.1l0,0.4
	c0.3-0.2,1.3,1,2.4,0.6c0,0-0.1,0.1-0.1,0.2c1.2-0.3,2.6,1.6,3.1,0.1l0.8-0.3c-0.9-0.2,0.2-0.7-0.2-0.9c0.4-0.1,0.9,0.5,0.5,0.6
	l-0.1-0.1c-0.2,0.8,1.2,0.4,1.1,0.9c1.9,0.1,3.7,0.5,5.5,0.5l-0.2-0.6l0.6,0c0.2,0.1,0.2,0.5-0.2,0.5c0.2,0.4,0.7-0.3,0.7-0.5
	c0.9,0.2-0.3,0.7,0,0.7l0.4-0.1l-0.1-0.1c0.3-0.3,0.3-0.5,0.8-0.5c0.3,0.1,0.2,0.4,0.3,0.4c0,0,0,0.1,0.2,0c0,0,0.2,0,0.4,0
	c0.2,0,0.4,0,0.4,0l-0.4-0.5c0.3-0.3,0.7,0,0.3-0.6c0.6,0.8,2.9,0,3.3,0.2c0.4-0.4,0.9-0.5,1.5-0.6c-0.2-0.1-0.4-0.6,0.2-0.6
	c0,1.2,1,0.3,1.6,1c-0.5-0.4,1.4-0.5,0.6-1.1c0.4,0,0.1,0.4,0.5,0.6c-0.1,0.2-0.1,0.4-0.1,0.8l0.1-0.2c1,0.3,0.2,0.6,0.4,1.2l-0.1,0
	c-0.3,0.7-0.1,0.9,0,1c0.1,0.1,0.2,0.2,0.1,1l0.5-0.3c0.6-0.2,0.6,0.1,0.5,0.5c-0.1,0.4-0.2,1,0.3,1.2l0.1-0.4
	c0.3,0,0.1,0.4-0.1,0.9c-0.1-0.2-0.1-0.3-0.2-0.4c0,0.1,0,0.4-0.2,0.3c-0.2-0.1-0.1-0.3-0.1-0.5c-0.5,0.5-0.2,1.1,0.2,1.6
	c0,0.1,0,0.1,0,0.2c-0.9,0.3-1.8,0.6-2.5,1.1l0.1,0.2c-0.8,0.6-0.7,0-1.7,0.4l0-0.1c-0.2,0.2-0.4,0.4-0.7,0.4
	c0.2-0.3-0.5-0.3-0.3-0.6c-0.9,0.6-0.4,0.4-0.9,1.2l-0.2-0.3c-0.2,0.3-0.2,0.5-0.7,0.6c0.4-0.3-0.4-0.4,0-0.9
	c-1.1-0.5-1.5,0.9-2-0.1c-0.4,0.9,1,0.4,0.7,0.6c0.3,0.3-0.3,0.7-0.7,0.6c-0.3,0-0.7-1.1-1.5-1c0.1,0,0.1-0.1,0.2-0.1
	c-0.3-0.2-0.6,0.4-1,0c-0.2,0.5-0.5,0-0.5,0.7l0.8-0.2c-0.4,0.2-0.8,1-1.6,0.7c0.1-0.1,0.3-0.3,0.4-0.4c-0.2-0.2-0.4,0.1-0.6-0.1
	c0-0.7,0.9-0.2,1.4-0.7c-0.2-0.3-0.9,0.5-0.7-0.2c-0.3,0.9-0.8-0.1-1.4,0.6l0-0.4c-0.1,0.1-0.3,0.3-0.4,0.2l0.3-0.5
	c-0.5,0.5-0.9-0.4-1.3-0.1c0.9,0,0.2,0.5,0.6,0.8c-1.1,0.5-0.6-1.1-1.9-0.9c0.2-0.1,0.6,0.3,0.4,0.4c-0.2-0.1-0.6-0.3-0.7-0.5
	c-0.8,0,0.1,0.4-0.3,0.7c-0.3-0.5-0.4,0.2-0.8,0.3l0-0.4c-0.9-0.3-0.3,0.8-1.2,0.5l0.4-0.5L55.3,52l0.1-0.5c-0.5,0.3-0.7,0.2-1.1,0
	c0.1,0.3-0.1,0.7-0.6,0.7c-0.3-0.3,0.2-0.4-0.4-0.4c0.2-0.2,0.4-0.5,0.6-0.1c0-0.1,0.2-0.2,0.2-0.4c-0.3-0.3-0.8-0.2-1-0.2
	c0.1,0,0.2,0.1,0.2,0.1c0,0-0.2,0.1-0.5,0.2c-0.2,0.1-0.5,0.2-0.5,0.2c-0.1-0.2,0-0.3,0.1-0.4c-0.2,0-0.3,0.2-0.6,0.2
	c0.1-0.3,0.2-0.7,0.5-0.8L51.7,51c0-0.2-0.3-0.5-0.2-0.6c-0.3-0.2-1,0.3-1.5,0.2c0.5,0.4,1,0.8,1.4,1.2c1,1.1,1.6,2.2,1.7,3.7
	c0.4,0.1,0.8,0.1,1-0.5l0.8-0.3c-0.9-0.2,0.2-0.7-0.2-0.9c0.4-0.1,0.9,0.5,0.5,0.6l-0.1-0.1c-0.2,0.8,1.2,0.4,1.1,0.9
	c1.9,0.1,3.7,0.5,5.5,0.5L61.4,55l0.6,0c0.2,0.1,0.2,0.5-0.2,0.5c0.2,0.4,0.7-0.3,0.7-0.5c0.9,0.2-0.3,0.7,0,0.7l0.4-0.1l-0.1-0.1
	c0.3-0.3,0.3-0.5,0.8-0.5c0.3,0.1,0.2,0.4,0.3,0.4c0,0,0,0.1,0.2,0c0,0,0.2,0,0.4,0c0.2,0,0.4,0,0.4,0L64.6,55
	c0.3-0.3,0.7,0,0.3-0.6c0.6,0.8,2.9,0,3.3,0.2c0.4-0.4,0.9-0.5,1.5-0.6c-0.2-0.1-0.4-0.6,0.2-0.6c0,1.2,1,0.3,1.6,1
	c-0.5-0.4,1.4-0.5,0.6-1.1c0.4,0,0.1,0.4,0.5,0.6c-0.1,0.2-0.1,0.4-0.1,0.8l0.1-0.2c1,0.3,0.2,0.6,0.4,1.2l-0.1,0
	c-0.3,0.7-0.1,0.9,0,1c0.1,0.1,0.2,0.2,0.1,1l0.5-0.3c0.6-0.2,0.6,0.1,0.5,0.5c-0.1,0.4-0.2,1,0.3,1.2l0.1-0.4
	c0.3,0,0.1,0.4-0.1,0.9c-0.1-0.2-0.1-0.3-0.2-0.4c0,0.1,0,0.4-0.2,0.3c-0.2-0.1-0.1-0.3-0.1-0.5c-0.5,0.5-0.2,1.1,0.2,1.6
	c0,0.1,0,0.1,0,0.2c-0.9,0.3-1.8,0.6-2.6,1.1l0.1,0.2c-0.8,0.6-0.7,0-1.7,0.4l0-0.1c-0.2,0.2-0.4,0.4-0.7,0.4
	c0.2-0.3-0.5-0.3-0.3-0.6c-0.9,0.6-0.4,0.4-0.9,1.2L67.8,63c-0.2,0.3-0.2,0.5-0.7,0.6c0.4-0.3-0.4-0.4,0-0.9c-1.1-0.5-1.5,0.9-2-0.1
	c-0.4,0.9,1,0.4,0.7,0.6c0.3,0.3-0.3,0.7-0.7,0.6c-0.3,0-0.7-1-1.5-1c0.1,0,0.1-0.1,0.2-0.1c-0.3-0.2-0.6,0.4-1,0
	c-0.2,0.5-0.5,0-0.5,0.7l0.8-0.2c-0.4,0.2-0.8,1-1.6,0.7c0.1-0.1,0.3-0.3,0.4-0.4c-0.2-0.2-0.4,0.1-0.6-0.1c0-0.7,0.9-0.2,1.4-0.7
	c-0.2-0.3-0.9,0.5-0.7-0.2c-0.3,0.9-0.8-0.1-1.4,0.6l0-0.4c-0.1,0.1-0.3,0.3-0.4,0.2l0.3-0.5c-0.5,0.5-0.9-0.4-1.3-0.1
	c0.9,0,0.2,0.5,0.6,0.8c-1.1,0.5-0.6-1.1-1.9-0.9c0.2-0.1,0.6,0.3,0.4,0.4c-0.2-0.1-0.6-0.3-0.7-0.5c-0.8,0,0.1,0.4-0.3,0.7
	c-0.3-0.5-0.4,0.2-0.8,0.3l0-0.4c-0.9-0.3-0.3,0.8-1.2,0.5l0.4-0.5l-0.5,0.1l0.1-0.5c-0.5,0.3-0.7,0.2-1.1,0
	c0.1,0.3-0.1,0.7-0.6,0.7c-0.3-0.3,0.2-0.4-0.4-0.4c0.2-0.2,0.4-0.5,0.6-0.1c0-0.1,0.2-0.2,0.2-0.4c-0.3-0.3-0.8-0.2-1-0.2
	c0.1,0,0.2,0.1,0.2,0.1c0,0-0.2,0.1-0.5,0.2c-0.1,0-0.1,0.1-0.2,0.1c0.7,1,1.1,2.2,0.9,3.5c0,0.1,0,0.3,0,0.4
	c0.2-0.1,0.4-0.2,0.5-0.6l0.8-0.3c-0.9-0.2,0.2-0.7-0.2-0.9c0.4-0.1,0.9,0.5,0.5,0.6l-0.1-0.1c-0.2,0.8,1.2,0.4,1.1,0.9
	c1.9,0.1,3.7,0.5,5.5,0.5L61.4,66l0.6,0c0.2,0.1,0.2,0.5-0.2,0.5c0.2,0.3,0.7-0.3,0.7-0.5c0.9,0.2-0.3,0.7,0,0.7l0.4-0.1l-0.1-0.1
	c0.3-0.3,0.3-0.5,0.8-0.5c0.3,0.1,0.2,0.4,0.3,0.4c0,0,0,0.1,0.2,0c0,0,0.2,0,0.4,0c0.2,0,0.4,0,0.4,0L64.6,66
	c0.3-0.3,0.7,0,0.3-0.6c0.6,0.8,2.9,0,3.3,0.2c0.4-0.4,0.9-0.5,1.5-0.6c-0.2-0.1-0.4-0.6,0.2-0.6c0,1.2,1,0.3,1.6,1
	c-0.5-0.4,1.4-0.5,0.6-1.1c0.4,0,0.1,0.4,0.5,0.6c-0.1,0.2-0.1,0.4-0.1,0.8l0.1-0.2c1,0.3,0.2,0.6,0.4,1.2l-0.1,0
	c-0.3,0.7-0.1,0.9,0,1c0.1,0.1,0.2,0.2,0.1,1l0.5-0.3c0.6-0.2,0.6,0.1,0.5,0.5c-0.1,0.4-0.2,1,0.3,1.2l0.1-0.4
	c0.3,0,0.1,0.4-0.1,0.9c-0.1-0.2-0.1-0.3-0.2-0.4c0,0.1,0,0.4-0.2,0.3c-0.2-0.1-0.1-0.3-0.1-0.5c-0.5,0.5-0.2,1.1,0.2,1.6
	c0,0.1,0,0.1,0,0.2c-0.9,0.3-1.8,0.6-2.5,1.1l0.1,0.2c-0.8,0.6-0.7,0-1.7,0.4l0-0.1c-0.2,0.2-0.4,0.4-0.7,0.4
	c0.2-0.3-0.5-0.3-0.3-0.6c-0.9,0.6-0.4,0.4-0.9,1.2L67.8,74c-0.2,0.3-0.2,0.5-0.7,0.6c0.4-0.3-0.4-0.4,0-0.9c-1.1-0.5-1.5,0.9-2-0.1
	c-0.4,0.9,1,0.4,0.7,0.6c0.3,0.3-0.3,0.7-0.7,0.6c-0.3,0-0.7-1.1-1.5-1c0.1,0,0.1-0.1,0.2-0.1c-0.3-0.2-0.6,0.4-1,0
	c-0.2,0.5-0.5,0-0.5,0.7l0.8-0.2c-0.4,0.2-0.8,1-1.6,0.7c0.1-0.1,0.3-0.3,0.4-0.4c-0.2-0.2-0.4,0.1-0.6-0.1c0-0.7,0.9-0.2,1.4-0.7
	c-0.2-0.3-0.9,0.5-0.7-0.2c-0.3,0.9-0.8-0.1-1.4,0.6l0-0.4c-0.1,0.1-0.3,0.3-0.4,0.2l0.3-0.5c-0.5,0.5-0.9-0.4-1.3-0.1
	c0.9,0,0.2,0.5,0.6,0.8c-1.1,0.5-0.6-1.1-1.9-0.9c0.2-0.1,0.6,0.3,0.4,0.4c-0.2-0.1-0.6-0.3-0.7-0.5c-0.8,0,0.1,0.4-0.3,0.7
	c-0.3-0.5-0.4,0.2-0.8,0.3l0-0.4c-0.9-0.3-0.3,0.8-1.2,0.5l0.4-0.5l-0.5,0.1l0.1-0.5c-0.5,0.3-0.7,0.2-1.1,0
	c0.1,0.3-0.1,0.7-0.6,0.7c-0.3-0.3,0.2-0.4-0.4-0.4c0.2-0.2,0.4-0.5,0.6-0.1c0-0.1,0.2-0.2,0.2-0.4c-0.3-0.3-0.8-0.2-1-0.2
	c0.1,0,0.2,0.1,0.2,0.1c0,0-0.2,0.1-0.5,0.2c-0.2,0.1-0.5,0.2-0.5,0.2c-0.1-0.2,0-0.3,0.1-0.4c-0.1,0-0.2,0.1-0.4,0.2
	c1.1,1,1.4,2.6,1,4c0.4,0.1,0.7,0,0.9-0.6l0.8-0.3c-0.9-0.2,0.2-0.7-0.2-0.9c0.4-0.1,0.9,0.5,0.5,0.6l-0.1-0.1
	c-0.2,0.8,1.2,0.4,1.1,0.9c1.9,0.1,3.7,0.5,5.5,0.5L61.4,77l0.6,0c0.2,0.1,0.2,0.5-0.2,0.5c0.2,0.3,0.7-0.3,0.7-0.5
	c0.9,0.2-0.3,0.7,0,0.7l0.4-0.1l-0.1-0.1c0.3-0.3,0.3-0.5,0.8-0.5c0.3,0.1,0.2,0.4,0.3,0.4c0,0,0,0.1,0.2,0c0,0,0.2,0,0.4,0
	c0.2,0,0.4,0,0.4,0L64.6,77c0.3-0.3,0.7,0,0.3-0.6c0.6,0.8,2.9,0,3.3,0.2c0.4-0.4,0.9-0.5,1.5-0.6c-0.2-0.1-0.4-0.6,0.2-0.6
	c0,1.2,1,0.3,1.6,1c-0.5-0.4,1.4-0.5,0.6-1.1c0.4,0,0.1,0.4,0.5,0.6c-0.1,0.2-0.1,0.4-0.1,0.8l0.1-0.2c1,0.3,0.2,0.6,0.4,1.2l-0.1,0
	c-0.3,0.7-0.1,0.9,0,1c0.1,0.1,0.2,0.2,0.1,1l0.5-0.3c0.6-0.2,0.6,0.1,0.5,0.5c-0.1,0.4-0.2,1,0.3,1.2l0.1-0.4c0.3,0,0.1,0.5-0.1,1
	c0,0,0,0.1,0,0.1c0-0.1-0.1-0.1-0.1-0.1c0,0.1,0,0.4-0.2,0.3c-0.2-0.1-0.1-0.3-0.1-0.5c-0.5,0.5-0.3,1,0.1,1.6c0,0,0,0,0,0.1
	c0,0.1-0.2,0-0.4,0c0,0.1,0.1,0.2,0.1,0.3c-0.8,0.3-1.6,0.5-2.2,1l0.1,0.2c-0.8,0.6-0.7,0-1.7,0.4l0-0.1c-0.2,0.2-0.4,0.4-0.7,0.4
	c0.2-0.3-0.5-0.3-0.3-0.6c-0.9,0.6-0.4,0.4-0.9,1.2l-0.2-0.3c-0.2,0.3-0.2,0.5-0.7,0.6c0.4-0.3-0.4-0.4,0-0.9
	c-1.1-0.5-1.5,0.9-2-0.1c-0.4,0.9,1,0.4,0.7,0.6c0.3,0.3-0.3,0.7-0.7,0.6c-0.3,0-0.7-1.1-1.5-1c0.1,0,0.1-0.1,0.2-0.1
	c-0.3-0.2-0.6,0.4-1,0c-0.2,0.5-0.5,0-0.5,0.7l0.8-0.2c-0.4,0.2-0.8,1-1.6,0.7c0.1-0.1,0.3-0.3,0.4-0.4c-0.2-0.2-0.4,0.1-0.6-0.1
	c0-0.7,0.9-0.2,1.4-0.7c-0.2-0.3-0.9,0.5-0.7-0.2c-0.3,0.9-0.8-0.1-1.4,0.6l0-0.4c-0.1,0.1-0.3,0.3-0.4,0.2l0.3-0.5
	c-0.5,0.5-0.9-0.4-1.3-0.1c0.9,0,0.2,0.5,0.6,0.8c-1.1,0.5-0.6-1.1-1.9-0.9c0.2-0.1,0.6,0.3,0.4,0.4c-0.2-0.1-0.6-0.3-0.7-0.5
	c-0.8,0,0.1,0.4-0.3,0.7c-0.3-0.5-0.4,0.2-0.8,0.3l0-0.4c-0.9-0.3-0.3,0.8-1.2,0.5l0.4-0.5l-0.5,0.1l0.1-0.5c-0.5,0.3-0.7,0.2-1.1,0
	c0.1,0.3-0.1,0.7-0.6,0.7c-0.3-0.3,0.2-0.4-0.4-0.4c0.2-0.2,0.4-0.5,0.6-0.1c0-0.1,0.2-0.2,0.2-0.4c-0.3-0.3-0.8-0.2-1-0.2
	c0.1,0,0.2,0.1,0.2,0.1c0,0-0.2,0.1-0.5,0.2c-0.2,0.1-0.5,0.2-0.5,0.2c-0.1-0.2,0-0.3,0.1-0.4c-0.1,0-0.3,0.1-0.4,0.2
	c0.3,0.3,0.7,0.7,0.9,1.1c0.5,0.9,0.6,1.9,0.4,2.9c0.2,0,0.4-0.2,0.6-0.6l0.8-0.3c-0.9-0.2,0.2-0.7-0.2-0.9c0.4-0.1,0.9,0.5,0.5,0.6
	l-0.1-0.1c-0.2,0.8,1.2,0.4,1.1,0.9c1.9,0.1,3.7,0.5,5.5,0.5l-0.2-0.6l0.6,0c0.2,0.1,0.2,0.5-0.2,0.5c0.2,0.4,0.7-0.3,0.7-0.5
	c0.9,0.2-0.3,0.7,0,0.7l0.4-0.1l-0.1-0.1c0.3-0.3,0.3-0.5,0.8-0.5c0.3,0.1,0.2,0.4,0.3,0.4c0,0,0,0.1,0.2,0c0,0,0.2,0,0.4,0
	c0.2,0,0.4,0,0.4,0l-0.4-0.5c0.3-0.3,0.7,0,0.3-0.6c0.6,0.8,2.9,0,3.3,0.2c0.4-0.4,0.9-0.5,1.5-0.6c-0.2-0.1-0.4-0.6,0.2-0.6
	c0,1.2,1,0.3,1.6,1c-0.5-0.4,1.4-0.5,0.6-1.1c0.4,0,0.1,0.4,0.5,0.6c-0.1,0.2-0.1,0.4-0.1,0.8l0.1-0.2c1,0.3,0.2,0.6,0.4,1.2l-0.1,0
	c-0.3,0.7-0.1,0.9,0,1c0.1,0.1,0.2,0.2,0.1,1l0.5-0.3c0.6-0.2,0.6,0.1,0.5,0.5c-0.1,0.4-0.2,1,0.3,1.2l0.1-0.4c0.3,0,0.1,0.5-0.1,1
	c-0.2,0.5-0.4,1.2-0.3,1.4c0,0.1-0.2,0-0.4,0c0.3,1.4,0.7-0.5,1.4,0c-0.2,0.4-0.9,0.7-0.5,1.1c0,0.2,0.5,0.2,1.1,0.2
	c0.5,0,1,0.1,1.1,0.6c0.1-0.4,0.1-0.7,0.5-0.8c0.5,0.2,0.6,1.8,1.5,1.1c0,0.1,0,0.2,0,0.3c0.5-0.1,1.3,0.1,1.8-0.3c-0.3,1,0.4,1,1,1
	c0.6-0.1,1.1-0.2,0.8,0.7c0,0,0.3,0.1,0.6,0.1c0.3,0.1,0.6,0.1,0.6,0.1l-0.1,0.2c0.7,0.3,1,0,1.4-0.4c0.1,0.2,0,0.3-0.1,0.4
	c0.9,0.7,1.1,0.6,2.1-0.2l-0.1,0.6c0.3-0.3,1.3,1.3,2.4,0.7c0,0.1-0.1,0.2-0.2,0.3c1.2-0.5,2.5,2.1,3.2-0.1l0.8-0.5
	c-0.9-0.3,0.2-1-0.1-1.4c0.4-0.1,0.9,0.8,0.4,0.9L93.1,99c-0.3,1.2,1.2,0.5,1.1,1.3c1.9,0.1,3.8,0.7,5.6,0.7l-0.2-0.9l0.6,0
	c0.2,0.2,0.3,0.7-0.2,0.7c0.3,0.5,0.7-0.5,0.7-0.7c0.9,0.3-0.3,1.1,0,1.1l0.4-0.1l-0.1-0.1c0.3-0.4,0.3-0.8,0.8-0.8
	c0.4,0.2,0.2,0.6,0.4,0.6c0,0.1,0.1,0.1,0.2,0c0,0,0.2,0,0.4,0c0.2,0,0.4,0,0.4,0l-0.4-0.7c0.3-0.4,0.7,0,0.3-0.8
	c0.7,1.3,3,0.1,3.3,0.4c0.4-0.6,0.9-0.7,1.5-0.7c-0.2-0.1-0.4-0.9,0.1-0.9c0.2,1.7,1.1,0.5,1.8,1.6c-0.6-0.7,1.4-0.6,0.5-1.5
	c0.5,0,0.2,0.6,0.6,0.9c0.8-0.9,2.4-0.2,3.5-0.9c-0.1-0.2-0.4-0.5-0.3-0.9c0,0,0.3,0.2,0.5,0.4c0.3,0.2,0.5,0.4,0.5,0.4
	c0.2-0.2-0.3-1.3,0.5-0.8c-0.1-0.1-0.3-0.4-0.2-0.5c1.4,0,2.5-0.9,3.6-1.8c0.5-0.5,1.1-0.9,1.7-1.4c0.6-0.4,1.3-0.8,2.2-1.3
	c-0.6,0.2-0.5-0.1-0.3-0.4c-0.2,0.1-0.5-0.3-0.8-0.4c0,0,0.3-0.2,0.7-0.4c0.3-0.2,0.7-0.5,0.7-0.5c-0.3-0.3-0.2-0.6-0.2-1
	c0.1-0.4,0.1-0.7-0.3-0.9l0.1,0.5c-0.4-0.4-1-0.2-1.6-0.1c-0.6,0.1-1.2,0.1-1.8-0.1c0.5,0.3,0,0.4-0.4,0.5c-0.4,0.1-0.8,0.1-0.3,0.8
	c-0.3,0-0.2-0.3-0.5-0.4c0.3,0.4,0.3,0.7-0.1,0.8l-0.1-0.1c-0.6,0.8-1.3,0.7-2.4,1l0.4,0.5c-0.3,0.1-0.4-0.1-0.6-0.1
	c0.2,0.9,0.7-0.3,1,0.7c-0.5-0.4-0.9-0.2-1.3,0c-0.4,0.2-0.8,0.3-1.2-0.2c-0.4,0.2,0.4,0.6,0,0.7l-0.3-0.3l0.1,0.5
	c-0.3,0-0.6-0.3-0.7-0.6c0.1,0,0.1-0.2,0.2-0.2c-0.5-0.3-0.8,0.5-1,0.4l0.5,0.1c-0.9,0.8-2.4,0.7-3.3,1.7l0.2,0.3
	c-0.7,0.7-0.8-0.1-1.7,0.3l0-0.1c-0.1,0.3-0.4,0.5-0.6,0.5c0.2-0.4-0.6-0.6-0.3-1c-0.8,0.7-0.4,0.5-0.8,1.7l-0.2-0.4
	c-0.1,0.5-0.1,0.7-0.6,0.9c0.3-0.5-0.4-0.7,0-1.3c-1.1-0.9-1.4,1.2-2-0.2c-0.3,1.4,1,0.6,0.7,0.9c0.3,0.4-0.3,1-0.6,0.9
	c-0.3,0-0.7-1.6-1.5-1.5c0.1,0,0.1-0.1,0.2-0.1c-0.3-0.3-0.6,0.5-1,0c-0.2,0.8-0.5,0-0.5,1l0.8-0.3c-0.4,0.3-0.8,1.5-1.5,1
	c0.1-0.2,0.3-0.5,0.4-0.6c-0.2-0.3-0.4,0.2-0.6-0.1c0-1,0.9-0.3,1.3-1.1c-0.2-0.4-0.8,0.8-0.7-0.3c-0.3,1.4-0.8-0.1-1.3,0.9l0-0.6
	c-0.1,0.1-0.3,0.4-0.4,0.4l0.3-0.8c-0.4,0.7-0.9-0.6-1.3-0.2c0.9,0,0.2,0.7,0.6,1.2c-1.1,0.8-0.6-1.6-1.9-1.3
	c0.2-0.1,0.6,0.4,0.3,0.7c-0.2-0.1-0.5-0.4-0.7-0.7c-0.8,0.1,0.1,0.6-0.3,1c-0.2-0.8-0.4,0.3-0.8,0.5l0-0.6
	c-0.9-0.5-0.3,1.3-1.2,0.7l0.4-0.8l-0.5,0.2l0.1-0.7c-0.5,0.5-0.7,0.3-1.1,0.1c0.1,0.4-0.2,1.1-0.6,1.1c-0.2-0.4,0.2-0.6-0.4-0.5
	c0.2-0.4,0.4-0.8,0.6-0.2c0-0.2,0.2-0.4,0.2-0.6c-0.3-0.5-0.7-0.2-0.9-0.2c0.1,0,0.2,0.1,0.2,0.2c0,0-0.2,0.2-0.5,0.4
	c-0.2,0.2-0.5,0.4-0.5,0.4c-0.1-0.2,0-0.4,0.2-0.6c-0.2,0-0.3,0.3-0.6,0.3c0.1-0.5,0.2-1,0.6-1.2l-0.9,0.4c0-0.2-0.3-0.7-0.2-0.8
	c-0.4-0.4-1.2,0.8-1.7,0.3c0,0.1-0.1,0.2-0.3,0.2c-0.5-0.2-0.8-0.9-1.6-0.4l-0.1-1c-0.5,0.1,0.2,1.2-0.7,1.3c-0.7,0.1,0-0.8-0.1-1.1
	c-0.4,0.4-1.2,1.1-1.5,0.2c0.2-0.1,0.3,0.1,0.5,0.1L84,92.6c0.7-0.6,1-0.2,0.8-1c-0.6,1.6-1.5-0.3-2.2,1.2l-0.1-0.4
	c0.1,0,0.1,0,0.2,0c-0.1-1-0.8,1-1.4,0.5c-0.2-0.2-0.2-0.5,0.1-0.6l-0.6,0.2c-0.1-0.1,0.1-0.3,0.2-0.3l-0.7-0.2l0,0
	c-0.2,0.2-0.7,0.4-0.9,0.5c0-0.3,0.2-0.1,0.3-0.3c0,0-0.1,0-0.3,0.1c-0.1,0-0.3,0.1-0.3,0.1c0.1-0.5,0.6-0.6,0.8-0.4
	c0.3-0.8,0.2-0.8,0-0.7c-0.2,0.1-0.6,0.2-0.6-0.4l0.4,0c0.4-0.9,0-0.8,0.1-1.5c-0.1,0.1-0.2,0.5-0.4,0.9c-0.1,0.4-0.3,0.8-0.6,0.8
	c0-0.2-0.1-0.3-0.5-0.2c0.4-0.5,0.2-0.5,0-0.6l0.6-0.6c-0.3,0-0.6,0.3-1,0.4c-0.1-0.3,0.4-0.7,0.7-1.1c0-0.2-0.2,0-0.4,0.2
	c-0.2,0.2-0.4,0.5-0.6,0.3c0-0.1,0-0.2,0-0.2c0-0.1-0.1-0.1-0.1-0.1c-0.2,0-0.4-0.1-0.7-0.1c0.2-0.3,0.5-0.1,0.7-0.2
	c0,0-0.7,0-0.7,0c0,0,0.2-0.1,0.3-0.1c-0.3-0.1-0.8,0.2-1.1-0.1c-0.4,0-0.1-0.2,0.2-0.4c0.3-0.2,0.6-0.3,0.2-0.5
	c0.2,0,0.5,0.1,0.8,0.2c-0.3-0.2-0.4-0.4-0.5-0.5c-0.1-0.1-0.3-0.3-0.6-0.7c0,0,0.2,0,0.3,0c0.2,0,0.3,0,0.3,0
	c-0.7-0.1-1.1-0.8-1.3-1.5c-0.1,0-0.1,0-0.2,0c0-0.1,0.1-0.1,0.1-0.2c0,0.1,0,0.1,0.1,0.2c0.1,0,0.1,0,0.2,0
	c-0.1-0.1-0.1-0.2-0.2-0.3c0.1-0.1,0.1-0.2,0.2-0.3c0.2,0.2,0.4,0.4,0.6,0.7c-0.2,0-0.4-0.1-0.5-0.1c0.3,0.4,0.6,0.9,1.1,1.1
	c-0.1-0.1-0.1-0.2-0.1-0.3c0.1,0.1,0.2,0.2,0.2,0.2c0.1,0,0-0.1-0.1-0.3c0,0,0.2,0.1,0.4,0.2c0.2,0.1,0.4,0.2,0.4,0.2l-0.3-0.3
	c0,0,0.2,0,0.4-0.1c0.2,0,0.4,0,0.4,0c-0.1-0.2-0.1-0.4-0.2-0.6c0.2,0.1,0.3,0.1,0.6-0.1c0,0.1,0,0.2,0,0.3c0.1,0,0.1,0,0.2,0
	c0,0,0,0,0,0c0,0,0,0,0,0c0.5,0,1.2,0.1,1.5-0.3c-0.3,1,0.4,1,1,1c0.6-0.1,1.1-0.2,0.8,0.7c0,0,0.3,0.1,0.6,0.1
	c0.3,0.1,0.6,0.1,0.6,0.1l-0.1,0.2c0.7,0.3,1,0,1.4-0.4c0.1,0.2,0,0.3-0.1,0.4c0.9,0.7,1.1,0.6,2.1-0.2l-0.1,0.6
	c0.3-0.3,1.3,1.3,2.4,0.7c0,0.1-0.1,0.2-0.2,0.3c1.2-0.5,2.5,2.1,3.2-0.1l0.8-0.5c-0.9-0.3,0.2-1-0.1-1.4c0.4-0.1,0.9,0.8,0.4,0.9
	l-0.1-0.1c-0.3,1.2,1.2,0.5,1.1,1.3c1.9,0.1,3.8,0.7,5.6,0.7l-0.2-0.9l0.6,0c0.2,0.2,0.3,0.7-0.2,0.7c0.3,0.5,0.7-0.5,0.7-0.7
	c0.9,0.3-0.3,1.1,0,1.1l0.4-0.1l-0.1-0.1c0.3-0.4,0.3-0.8,0.8-0.8c0.4,0.2,0.2,0.6,0.4,0.6c0,0.1,0.1,0.1,0.2,0c0,0,0.2,0,0.4,0
	c0.2,0,0.4,0,0.4,0l-0.4-0.7c0.3-0.4,0.7,0,0.3-0.8c0.7,1.3,3,0.1,3.3,0.4c0.4-0.6,0.9-0.7,1.5-0.7c-0.2-0.1-0.4-0.9,0.1-0.9
	c0.2,1.7,1.1,0.5,1.8,1.6c-0.6-0.7,1.4-0.6,0.5-1.5c0.5,0,0.2,0.6,0.6,0.9c0.8-0.9,2.4-0.2,3.5-0.9c-0.1-0.2-0.4-0.5-0.3-0.9
	c0,0,0.3,0.2,0.5,0.4c0.3,0.2,0.5,0.4,0.5,0.4c0.2-0.2-0.3-1.3,0.5-0.8c-0.1-0.1-0.3-0.4-0.2-0.5c1.4,0,2.5-0.9,3.6-1.8
	c0.2-0.1,0.4-0.3,0.5-0.4l0.2,0c0,0-0.1,0-0.1,0c0.1-0.1,0.3-0.2,0.4-0.4c0.3,0.2,0.9,0.3,1,0.7l-0.1,0.2c0,0,0.2-0.1,0.4-0.1
	c0.2-0.1,0.4-0.1,0.4-0.1c-0.4-0.3-1-0.6-1.3-0.8c0.1-0.1,0.3-0.2,0.4-0.3c0.6-0.4,1.3-0.8,2.2-1.3c-0.6,0.2-0.5-0.1-0.3-0.4
	c-0.2,0.1-0.5-0.3-0.8-0.4c0,0,0.3-0.2,0.7-0.4c0.3-0.2,0.7-0.5,0.7-0.5c-0.3-0.3-0.2-0.6-0.2-1c0.1-0.4,0.1-0.7-0.3-0.9l0.1,0.5
	c-0.4-0.4-1-0.2-1.6-0.1c-0.6,0.1-1.2,0.1-1.8-0.1c0.5,0.3,0,0.4-0.4,0.5c-0.4,0.1-0.8,0.1-0.3,0.8c-0.3,0-0.2-0.3-0.5-0.4
	c0.3,0.4,0.3,0.7-0.1,0.8l-0.1-0.1c-0.6,0.8-1.3,0.7-2.4,1l0.4,0.5c-0.3,0.1-0.4-0.1-0.6-0.1c0.2,0.9,0.7-0.3,1,0.7
	c-0.5-0.4-0.9-0.2-1.3,0c-0.4,0.2-0.8,0.3-1.2-0.2c-0.4,0.2,0.4,0.6,0,0.8l-0.3-0.3l0.1,0.5c-0.3,0-0.6-0.3-0.7-0.6
	c0.1,0,0.1-0.2,0.2-0.2c-0.5-0.3-0.8,0.5-1,0.4l0.5,0.1c-0.9,0.8-2.4,0.7-3.3,1.7l0.2,0.3c-0.7,0.7-0.8-0.1-1.7,0.3l0-0.1
	c-0.1,0.3-0.4,0.5-0.6,0.5c0.2-0.4-0.6-0.6-0.3-1c-0.8,0.7-0.4,0.5-0.8,1.7l-0.2-0.4c-0.1,0.5-0.1,0.7-0.6,0.9
	c0.3-0.5-0.4-0.7,0-1.3c-1.1-0.9-1.4,1.2-2-0.2c-0.3,1.4,1,0.6,0.7,0.9c0.3,0.4-0.3,1-0.6,0.9c-0.3,0-0.7-1.6-1.5-1.5
	c0.1,0,0.1-0.1,0.2-0.1c-0.3-0.3-0.6,0.5-1,0c-0.2,0.8-0.5,0-0.5,1l0.8-0.3c-0.4,0.3-0.8,1.5-1.5,1c0.1-0.2,0.3-0.5,0.4-0.6
	c-0.2-0.3-0.4,0.2-0.6-0.1c0-1,0.9-0.2,1.3-1.1c-0.2-0.4-0.8,0.8-0.7-0.3c-0.3,1.4-0.8-0.1-1.3,0.9l0-0.6c-0.1,0.1-0.3,0.4-0.4,0.4
	l0.3-0.8c-0.4,0.7-0.9-0.6-1.3-0.2c0.9,0,0.2,0.7,0.6,1.2c-1.1,0.8-0.6-1.6-1.9-1.3c0.2-0.1,0.6,0.4,0.3,0.7
	c-0.2-0.1-0.5-0.4-0.7-0.7c-0.8,0.1,0.1,0.6-0.3,1c-0.2-0.8-0.4,0.3-0.8,0.5l0-0.6c-0.9-0.5-0.3,1.3-1.2,0.7l0.4-0.8l-0.5,0.2
	l0.1-0.7c-0.5,0.5-0.7,0.3-1.1,0.1c0.1,0.4-0.2,1.1-0.6,1.1c-0.2-0.4,0.2-0.6-0.4-0.5c0.2-0.4,0.4-0.8,0.6-0.2
	c0-0.2,0.2-0.4,0.2-0.6c-0.3-0.5-0.7-0.2-0.9-0.2c0.1,0,0.2,0.1,0.2,0.2c0,0-0.2,0.2-0.5,0.4c-0.2,0.2-0.5,0.4-0.5,0.4
	c-0.1-0.2,0-0.4,0.2-0.6c-0.2,0-0.3,0.3-0.6,0.3c0.1-0.5,0.2-1,0.6-1.2L89.9,83c0-0.2-0.3-0.7-0.2-0.8c-0.4-0.4-1.2,0.8-1.7,0.3
	c0,0.1-0.1,0.2-0.3,0.2c-0.5-0.2-0.8-0.9-1.6-0.4l-0.1-1c-0.5,0.1,0.2,1.2-0.7,1.3c-0.7,0.1,0-0.8-0.1-1.1c-0.4,0.4-1.2,1.1-1.5,0.2
	c0.2-0.1,0.3,0.1,0.5,0.1L84,81.1c0.7-0.6,1-0.2,0.8-1c-0.6,1.6-1.5-0.3-2.2,1.2l-0.1-0.4c0.1,0,0.1,0,0.2,0c-0.1-1-0.8,1-1.4,0.5
	c-0.2-0.2-0.2-0.5,0.1-0.6l-0.6,0.2c-0.1-0.1,0.1-0.3,0.2-0.3l-0.7-0.2l0,0c-0.2,0.2-0.7,0.4-0.9,0.5c0-0.3,0.2-0.1,0.3-0.3
	c0,0-0.1,0-0.3,0.1c-0.1,0-0.3,0.1-0.3,0.1c0.1-0.5,0.6-0.6,0.8-0.4c0.3-0.8,0.2-0.8,0-0.7c-0.2,0.1-0.6,0.2-0.6-0.4l0.4,0
	c0.4-0.9,0-0.8,0.1-1.5c-0.1,0.1-0.2,0.5-0.4,0.9c-0.1,0.4-0.3,0.8-0.6,0.8c0-0.2-0.1-0.3-0.5-0.2c0.4-0.5,0.2-0.5,0-0.6l0.6-0.6
	c-0.3,0-0.6,0.3-1,0.4c-0.1-0.3,0.4-0.7,0.7-1.1c0-0.2-0.2,0-0.4,0.2c-0.2,0.2-0.4,0.5-0.6,0.3c0.1-0.5-0.2-0.3-0.8-0.5
	c0.2-0.3,0.5-0.1,0.7-0.2c0,0-0.7,0-0.7,0c0,0,0.2-0.1,0.3-0.1c-0.3-0.1-0.8,0.2-1.1-0.1c-0.4,0-0.1-0.2,0.2-0.4
	c0.3-0.2,0.6-0.3,0.2-0.5c0.2,0,0.5,0.1,0.8,0.2c-0.3-0.2-0.4-0.4-0.5-0.5c-0.1-0.1-0.3-0.3-0.6-0.6c0,0,0.2,0,0.3,0
	c0.2,0,0.3,0,0.3,0c-0.7-0.1-1.1-0.8-1.3-1.5c-0.3-0.1-0.6-0.1-0.8-0.1c0,0,0-0.1,0-0.3c0.2,0,0.4,0,0.6,0c0,0.1,0.1,0.2,0.1,0.3
	c0.1,0,0.1,0,0.2,0c-0.1-0.1-0.2-0.3-0.2-0.4c0,0,0,0,0.1,0c0.2,0,0.3,0,0.4,0.1c0.1,0.1,0.2,0.3,0.3,0.5c-0.2,0-0.4-0.1-0.5-0.1
	c0.3,0.4,0.6,0.9,1.1,1.1c-0.1-0.1-0.1-0.2-0.1-0.3c0.1,0.1,0.2,0.2,0.2,0.2c0.1,0,0-0.1-0.1-0.3c0,0,0.2,0.1,0.4,0.2
	c0.2,0.1,0.4,0.2,0.4,0.2l-0.3-0.3c0,0,0.2,0,0.4-0.1c0.2,0,0.4,0,0.4,0c0,0,0-0.1,0-0.1c0.1,0,0.3,0,0.4-0.2c0,0.1,0,0.2,0,0.3
	c0.5-0.1,1.3,0.1,1.8-0.3c-0.3,1,0.4,1,1,1c0.6-0.1,1.1-0.2,0.8,0.7c0,0,0.3,0.1,0.6,0.1c0.3,0.1,0.6,0.1,0.6,0.1l-0.1,0.2
	c0.7,0.3,1,0,1.4-0.4c0.1,0.2,0,0.3-0.1,0.4c0.9,0.7,1.1,0.6,2.1-0.2l-0.1,0.6c0.3-0.3,1.3,1.3,2.4,0.7c0,0.1-0.1,0.2-0.2,0.3
	c1.2-0.5,2.5,2.1,3.2-0.1l0.8-0.5c-0.9-0.3,0.2-1-0.1-1.4c0.4-0.1,0.9,0.8,0.4,0.9l-0.1-0.1c-0.3,1.2,1.2,0.5,1.1,1.3
	c1.9,0.1,3.8,0.7,5.6,0.7l-0.2-0.9l0.6,0c0.2,0.2,0.3,0.7-0.2,0.7c0.3,0.5,0.7-0.5,0.7-0.7c0.9,0.3-0.3,1.1,0,1.1l0.4-0.1l-0.1-0.1
	c0.3-0.4,0.3-0.8,0.8-0.8c0.4,0.2,0.2,0.6,0.4,0.6c0,0.1,0.1,0.1,0.2,0c0,0,0.2,0,0.4,0c0.2,0,0.4,0,0.4,0l-0.4-0.7
	c0.3-0.4,0.7,0,0.3-0.8c0.7,1.3,3,0.1,3.3,0.4c0.4-0.6,0.9-0.7,1.5-0.7c-0.2-0.1-0.4-0.9,0.1-0.9c0.2,1.7,1.1,0.5,1.8,1.6
	c-0.6-0.7,1.4-0.6,0.5-1.5c0.5,0,0.2,0.6,0.6,0.9c0.8-0.9,2.4-0.2,3.5-0.9c-0.1-0.2-0.4-0.5-0.3-0.9c0,0,0.3,0.2,0.5,0.4
	c0.3,0.2,0.5,0.4,0.5,0.4c0.2-0.2-0.3-1.3,0.5-0.8c-0.1-0.1-0.3-0.4-0.2-0.5c1.4,0,2.5-0.9,3.6-1.8c0.5-0.4,0.9-0.8,1.4-1.1
	c0.3,0.1,0.5,0.2,0.6,0.5l-0.1,0.2c0,0,0.2-0.1,0.4-0.1c0.2-0.1,0.4-0.1,0.4-0.1c-0.3-0.2-0.7-0.4-1-0.6c0,0,0,0,0,0
	c0.6-0.4,1.3-0.8,2.2-1.3c-0.6,0.2-0.5-0.1-0.3-0.4c-0.2,0.1-0.5-0.3-0.8-0.4c0,0,0.3-0.2,0.7-0.4c0.3-0.2,0.7-0.5,0.7-0.5
	c-0.3-0.3-0.2-0.6-0.2-1c0.1-0.4,0.1-0.7-0.3-0.9l0.1,0.5c-0.4-0.4-1-0.2-1.6-0.1c-0.6,0.1-1.2,0.1-1.8-0.1c0.5,0.3,0,0.4-0.4,0.5
	c-0.4,0.1-0.8,0.1-0.3,0.8c-0.3,0-0.2-0.3-0.5-0.4c0.3,0.4,0.3,0.7-0.1,0.7l-0.1-0.1c-0.6,0.8-1.3,0.7-2.4,1l0.4,0.5
	c-0.3,0.1-0.4-0.1-0.6-0.1c0.2,0.9,0.7-0.3,1,0.7c-0.5-0.4-0.9-0.2-1.3,0c-0.4,0.2-0.8,0.3-1.2-0.2c-0.4,0.2,0.4,0.6,0,0.7l-0.3-0.3
	l0.1,0.5c-0.3,0-0.6-0.3-0.7-0.6c0.1,0,0.1-0.2,0.2-0.2c-0.5-0.3-0.8,0.5-1,0.4l0.5,0.1c-0.9,0.8-2.4,0.7-3.3,1.7l0.2,0.3
	c-0.7,0.7-0.8-0.1-1.7,0.3l0-0.1c-0.1,0.3-0.4,0.5-0.6,0.5c0.2-0.4-0.6-0.6-0.3-1c-0.8,0.7-0.4,0.5-0.8,1.7l-0.2-0.4
	c-0.1,0.5-0.1,0.7-0.6,0.9c0.3-0.5-0.4-0.7,0-1.3c-1.1-0.9-1.4,1.2-2-0.2c-0.3,1.4,1,0.6,0.7,0.9c0.3,0.4-0.3,1-0.6,0.9
	c-0.3,0-0.7-1.6-1.5-1.5c0.1,0,0.1-0.1,0.2-0.1c-0.3-0.3-0.6,0.5-1,0c-0.2,0.8-0.5,0-0.5,1l0.8-0.3c-0.4,0.3-0.8,1.5-1.5,1
	c0.1-0.2,0.3-0.5,0.4-0.6c-0.2-0.3-0.4,0.2-0.6-0.1c0-1,0.9-0.3,1.3-1.1c-0.2-0.4-0.8,0.8-0.7-0.3c-0.3,1.4-0.8-0.1-1.3,0.9l0-0.6
	c-0.1,0.1-0.3,0.4-0.4,0.4l0.3-0.8c-0.4,0.7-0.9-0.6-1.3-0.2c0.9,0,0.2,0.7,0.6,1.2c-1.1,0.8-0.6-1.6-1.9-1.3
	c0.2-0.1,0.6,0.4,0.3,0.7c-0.2-0.1-0.5-0.4-0.7-0.7c-0.8,0.1,0.1,0.6-0.3,1c-0.2-0.8-0.4,0.3-0.8,0.5l0-0.6
	c-0.9-0.5-0.3,1.3-1.2,0.7l0.4-0.8l-0.5,0.2l0.1-0.7c-0.5,0.5-0.7,0.3-1.1,0.1c0.1,0.4-0.2,1.1-0.6,1.1c-0.2-0.4,0.2-0.6-0.4-0.5
	c0.2-0.4,0.4-0.8,0.6-0.2c0.1-0.2,0.2-0.4,0.2-0.6c-0.3-0.5-0.7-0.2-1-0.2c0.1,0,0.2,0.1,0.2,0.2c0,0-0.2,0.2-0.5,0.4
	c-0.2,0.2-0.5,0.4-0.5,0.4c-0.1-0.2,0-0.4,0.2-0.6c-0.2,0-0.3,0.3-0.6,0.3c0.1-0.5,0.2-1,0.6-1.2L89.9,72c0-0.2-0.3-0.7-0.2-0.8
	c-0.4-0.4-1.2,0.8-1.7,0.3c0,0.1-0.1,0.2-0.3,0.2c-0.5-0.2-0.8-0.9-1.6-0.4l-0.1-1c-0.5,0.1,0.2,1.2-0.7,1.3c-0.7,0.1,0-0.8-0.1-1.1
	c-0.4,0.4-1.2,1.1-1.5,0.2c0.2-0.1,0.3,0.1,0.5,0.1L84,70.2c0.7-0.6,1-0.2,0.8-1c-0.6,1.6-1.5-0.3-2.2,1.2l-0.1-0.4
	c0.1,0,0.1,0,0.2,0c-0.1-1-0.8,1-1.4,0.5c-0.2-0.2-0.2-0.5,0.1-0.6L80.8,70c-0.1-0.1,0.1-0.3,0.2-0.3l-0.7-0.2l0,0
	c-0.2,0.2-0.7,0.4-0.9,0.5c0-0.3,0.2-0.1,0.3-0.3c0,0-0.1,0-0.3,0.1c-0.1,0-0.3,0.1-0.3,0.1c0.1-0.5,0.6-0.6,0.8-0.4
	c0.3-0.8,0.2-0.8,0-0.7c-0.2,0.1-0.6,0.2-0.6-0.4l0.4,0c0.4-0.9,0-0.8,0.1-1.5c-0.1,0.1-0.2,0.5-0.4,0.9c-0.1,0.4-0.3,0.8-0.6,0.8
	c0-0.2-0.1-0.3-0.5-0.2c0.4-0.5,0.2-0.5,0-0.6l0.6-0.6c-0.3,0-0.6,0.3-1,0.4c-0.1-0.3,0.4-0.7,0.7-1.1c0-0.2-0.2,0-0.4,0.2
	c-0.2,0.2-0.4,0.5-0.6,0.3c0-0.1,0-0.2,0-0.2c0-0.1-0.1-0.1-0.1-0.1c-0.2,0-0.4-0.1-0.7-0.1c0.2-0.3,0.5-0.1,0.7-0.2
	c0,0-0.7,0-0.7,0c0,0,0.2-0.1,0.3-0.1c-0.3-0.1-0.8,0.2-1.1-0.1c-0.4,0-0.1-0.2,0.2-0.4c0.3-0.2,0.6-0.3,0.2-0.5
	c0.2,0,0.5,0.1,0.8,0.2c-0.3-0.2-0.4-0.4-0.5-0.5c-0.1-0.1-0.3-0.3-0.6-0.6c0,0,0.2,0,0.3,0c0.2,0,0.3,0,0.3,0
	c-0.7-0.1-1.1-0.8-1.3-1.5c-0.3-0.1-0.6-0.1-0.8-0.1c0,0,0-0.1,0-0.3c0.2,0,0.4,0,0.6,0c0,0.1,0.1,0.2,0.1,0.3c0.1,0,0.1,0,0.2,0
	c-0.1-0.1-0.2-0.3-0.2-0.4c0,0,0,0,0.1,0c0.1,0,0.3,0,0.4,0.1c0.1,0.1,0.2,0.3,0.3,0.5c-0.2,0-0.4-0.1-0.5-0.1
	c0.3,0.4,0.6,0.9,1.1,1.1c-0.1-0.1-0.1-0.2-0.1-0.3c0.1,0.1,0.2,0.2,0.2,0.2c0.1,0,0-0.1-0.1-0.3c0,0,0.2,0.1,0.4,0.2
	c0.2,0.1,0.4,0.2,0.4,0.2l-0.3-0.3c0,0,0.2,0,0.4-0.1c0.2,0,0.4,0,0.4,0c0,0,0-0.1,0-0.1c0.1,0,0.3,0,0.4-0.2c0,0.1,0,0.2,0,0.3
	c0.5-0.1,1.3,0.1,1.8-0.3c-0.3,1,0.4,1,1,1c0.6-0.1,1.1-0.2,0.8,0.7c0,0,0.3,0.1,0.6,0.1c0.3,0.1,0.6,0.1,0.6,0.1l-0.1,0.2
	c0.7,0.3,1,0,1.4-0.4c0.1,0.2,0,0.3-0.1,0.4c0.9,0.7,1.1,0.6,2.1-0.2l-0.1,0.6c0.3-0.3,1.3,1.3,2.4,0.7c0,0.1-0.1,0.2-0.2,0.3
	c1.2-0.5,2.5,2.1,3.2-0.1l0.8-0.5c-0.9-0.3,0.2-1-0.1-1.4c0.4-0.1,0.9,0.8,0.4,0.9l-0.1-0.1c-0.3,1.2,1.2,0.5,1.1,1.3
	c1.9,0.1,3.8,0.7,5.6,0.7l-0.2-0.9l0.6,0c0.2,0.2,0.3,0.7-0.2,0.7c0.3,0.5,0.7-0.5,0.7-0.7c0.9,0.3-0.3,1.1,0,1.1l0.4-0.1l-0.1-0.1
	c0.3-0.4,0.3-0.8,0.8-0.8c0.4,0.2,0.2,0.6,0.4,0.6c0,0.1,0.1,0.1,0.2,0c0,0,0.2,0,0.4,0c0.2,0,0.4,0,0.4,0l-0.4-0.7
	c0.3-0.4,0.7,0,0.3-0.8c0.7,1.3,3,0.1,3.3,0.4c0.4-0.6,0.9-0.7,1.5-0.7c-0.2-0.1-0.4-0.9,0.1-0.9c0.2,1.7,1.1,0.5,1.8,1.6
	c-0.6-0.7,1.4-0.6,0.5-1.5c0.5,0,0.2,0.6,0.6,0.9c0.8-0.9,2.4-0.2,3.5-0.9c-0.1-0.2-0.4-0.5-0.3-0.9c0,0,0.3,0.2,0.5,0.4
	c0.3,0.2,0.5,0.4,0.5,0.4c0.2-0.2-0.3-1.3,0.5-0.8c-0.1-0.1-0.3-0.4-0.2-0.5c1.4,0,2.5-0.9,3.6-1.8c0.5-0.4,0.9-0.8,1.4-1.1
	c0.3,0.1,0.5,0.2,0.6,0.5l-0.1,0.2c0,0,0.2-0.1,0.4-0.1c0.2-0.1,0.4-0.1,0.4-0.1c-0.3-0.2-0.7-0.4-1-0.6c0,0,0,0,0,0
	c0.6-0.4,1.3-0.8,2.2-1.3c-0.6,0.2-0.5-0.1-0.3-0.4c-0.2,0.1-0.5-0.3-0.8-0.4c0,0,0.3-0.2,0.7-0.4C122.9,57.7,123.3,57.4,123.3,57.4
	z M102.2,56.3l-0.1-0.2C102.3,56,102.2,56.2,102.2,56.3z M78.9,46.6c0.2,0,0.6-0.2,0.4,0.1C78.8,47.2,78.9,46.8,78.9,46.6z M77,51.8
	c0.1,0.2-0.1,0.2-0.3,0.2C76.7,51.9,76.8,51.8,77,51.8z M103.9,31.1C103.9,31.1,103.9,31.1,103.9,31.1
	C103.6,30.8,103.7,30.9,103.9,31.1z M77,40.9c0.1,0.2-0.1,0.2-0.3,0.2C76.7,40.9,76.8,40.8,77,40.9z M64.1,34.2L64,34.1
	C64.2,33.9,64.2,34,64.1,34.2z M40.8,24.4c0.2,0,0.6-0.2,0.4,0.1C40.7,25,40.8,24.7,40.8,24.4z M38.9,18.7c0.1,0.2-0.1,0.2-0.3,0.2
	C38.6,18.8,38.7,18.7,38.9,18.7z M30.4,102.9l-0.1-0.2C30.5,102.6,30.4,102.7,30.4,102.9z M7,93.1c0.2,0,0.6-0.2,0.4,0.1
	C6.9,93.7,7,93.4,7,93.1z M30.3,91.5l-0.1-0.2C30.5,91.1,30.4,91.3,30.3,91.5z M7,81.7c0.2,0,0.6-0.2,0.4,0.1C6.9,82.3,7,82,7,81.7z
	 M5.2,87.4c0.1,0.2-0.1,0.2-0.3,0.2C4.9,87.5,5,87.4,5.2,87.4z M30.4,80.5l-0.1-0.2C30.5,80.1,30.4,80.3,30.4,80.5z M7,70.7
	c0.2,0,0.6-0.2,0.4,0.1C6.9,71.3,7,71,7,70.7z M5.2,76c0.1,0.2-0.1,0.2-0.3,0.2C4.9,76.1,5,76,5.2,76z M30.4,69.5l-0.1-0.2
	C30.5,69.2,30.4,69.3,30.4,69.5z M7,59.7c0.2,0,0.6-0.2,0.4,0.1C6.9,60.3,7,60,7,59.7z M5.2,65c0.1,0.2-0.1,0.2-0.3,0.2
	C4.9,65.1,5,65,5.2,65z M4.8,54.2C4.9,54.1,5,54,5.2,54C5.3,54.2,5.1,54.3,4.8,54.2z M32,44.3C31.8,44,31.9,44.1,32,44.3
	C32.1,44.3,32,44.3,32,44.3z M35.9,45.2L35.9,45.2c0,0,0,0.1,0,0.1C35.9,45.3,35.9,45.3,35.9,45.2z M38.3,40.6
	c0.1-0.1,0.2-0.2,0.3-0.2C38.7,40.5,38.5,40.6,38.3,40.6z M40.2,36.2c0.1,0,0.5-0.1,0.4,0.2C40.2,36.6,40.3,36.4,40.2,36.2z
	 M73.9,62.1c0-0.2,0.1-0.3,0.1-0.5c0,0.1,0.1,0.3,0.2,0.5C74.1,62.2,74,62.1,73.9,62.1z M74.1,61.4C74.1,61.4,74.1,61.4,74.1,61.4
	c0.1-0.1,0.2-0.2,0.3-0.3c0.1,0.1,0.1,0.1,0.2,0.2C74.4,61.3,74.2,61.3,74.1,61.4z M102.2,100.7l-0.1-0.2
	C102.3,100.4,102.2,100.5,102.2,100.7z M78.9,90.9c0.2,0,0.6-0.2,0.4,0.1C78.8,91.5,78.9,91.2,78.9,90.9z M102.2,89.3l-0.1-0.2
	C102.3,88.9,102.2,89.1,102.2,89.3z M78.9,79.5c0.2,0,0.6-0.2,0.4,0.1C78.8,80.1,78.9,79.7,78.9,79.5z M77,85.2
	c0.1,0.2-0.1,0.2-0.3,0.2C76.7,85.3,76.8,85.2,77,85.2z M102.2,78.3l-0.1-0.2C102.3,77.9,102.2,78.1,102.2,78.3z M78.9,68.5
	c0.2,0,0.6-0.2,0.4,0.1C78.8,69.1,78.9,68.8,78.9,68.5z M77,73.8c0.1,0.2-0.1,0.2-0.3,0.2C76.7,73.8,76.8,73.8,77,73.8z M76.7,63
	c0-0.1,0.1-0.2,0.3-0.2C77.1,63,76.9,63,76.7,63z M78.9,57.5c0.2,0,0.6-0.2,0.4,0.1C78.8,58.1,78.9,57.8,78.9,57.5z M102.2,67.3
	l-0.1-0.2C102.3,67,102.2,67.1,102.2,67.3z M85.3,92c0.3,0,0.2,0.9,0.5,0C85.6,91.9,85.4,92,85.3,92z M122.1,84.6l0.2-0.1
	c0,0-0.2,0-0.4-0.1c-0.2,0-0.4-0.1-0.4-0.1L122.1,84.6z M82.1,91.7L82.1,91.7l-0.3,0.7L82.1,91.7z M82.1,69.2L82.1,69.2l-0.3,0.7
	L82.1,69.2z M79.2,78.2c0,0,0-0.1,0.1-0.2c0.1-0.1,0.1-0.2,0.1-0.2l-0.2,0.1C79.2,78.1,79.2,78.1,79.2,78.2z M79.2,67.3
	c0,0,0-0.1,0.1-0.2c0.1-0.1,0.1-0.2,0.1-0.2l-0.2,0.1C79.2,67.1,79.2,67.2,79.2,67.3z M122.1,73.1l0.2-0.1c0,0-0.2,0-0.4-0.1
	c-0.2,0-0.4-0.1-0.4-0.1L122.1,73.1z M85.3,80.5c0.3,0,0.2,0.9,0.5,0C85.6,80.5,85.4,80.6,85.3,80.5z M36.8,46.6c0.1,0,0.2,0,0.3,0
	C37.2,46.3,37,46.5,36.8,46.6z M38.8,48.6c0.1-0.1,0.1,0,0.2,0l0.1-0.3C38.9,48.3,38.6,48.5,38.8,48.6z M36.2,46.2
	c-0.1,0.5,0.2,0.4,0.5,0.4c0,0,0,0,0,0C36.9,45.9,36.6,46,36.2,46.2z M41.6,45c-0.2,0-0.3,0.1-0.5,0.3C41.2,45.2,41.4,45.1,41.6,45z
	 M36.1,47.9l0-0.6l-0.3,0.5L36.1,47.9z M41.3,48.5l0.1-0.3c0.3,0.2,0.4-0.1,0.5-0.3l-0.7,0L41.3,48.5z M42.6,44.6
	c-0.3,0-0.7,0.2-1,0.4c0.3-0.1,0.5,0,0.7,0.5C42.6,45.1,42.3,44.7,42.6,44.6z M52.6,90.2c0,0.3,0.5,0.2,0.6,0.2
	C53,90,52.4,90.3,52.6,90.2z M44.2,47.5l-0.6,0.1l0.4,0.3C44,47.8,44,47.6,44.2,47.5z M52.3,91.9l0.1,0.2c0,0,0.1-0.1,0.2-0.3
	c0.1-0.1,0.2-0.3,0.2-0.3s-0.1,0.1-0.3,0.2C52.4,91.8,52.3,91.9,52.3,91.9z M35.5,48l-0.1-0.2l-0.3-0.1L35.5,48z M30.4,48.6l0.2-0.3
	c-0.1-0.1-0.1-0.3-0.2-0.5L30.4,48.6z M34.8,46.4c0,0.1-0.1,0.1-0.1,0.3C34.7,46.5,34.7,46.4,34.8,46.4z M35,47.1
	c-0.1,0-0.2,0-0.4,0C34.8,47.2,34.9,47.2,35,47.1z M34.1,47.1l0.4,0.2c0-0.1,0.1-0.2,0.2-0.2C34.4,47.1,34.1,46.9,34.1,47.1z
	 M43.5,46.3l-0.1,0.6c0,0,0.1,0,0.2,0.1C43.6,46.8,43.7,46.5,43.5,46.3z M47.9,52c-0.2,0-0.3-0.5-0.4-0.3l0,0.4L47.9,52z M44.8,47.2
	l-0.5,0.1C44.6,47.5,44.7,47.4,44.8,47.2z M45,46.4c-0.1,0.2-0.1,0.5-0.2,0.8l0.4-0.1C45.1,46.9,44.9,46.7,45,46.4z M47.3,48.7
	c0.1,0.3,0.3,0.6-0.3,0.6C47.7,49.6,48,49,47.3,48.7z M45.7,49.2l0.1,0.1c0,0,0.2-0.1,0.5-0.1c0.2-0.1,0.5-0.1,0.5-0.1
	s-0.3,0-0.6,0.1C45.9,49.2,45.7,49.2,45.7,49.2z M44.3,49.2c0.3-0.3,0.2-0.6,0.7-0.9C44.7,48.5,44.1,48.5,44.3,49.2z M47,48.1l0.5,0
	c0-0.2-0.3-0.5-0.1-0.5C47,47.4,47,47.6,47,48.1z M43.4,50.1c0-0.1,0-0.1,0-0.1C43.3,50,43.3,50,43.4,50.1z M43.4,48.3
	c0,0,0-0.1,0-0.1C43.4,48.2,43.4,48.3,43.4,48.3z M43.6,47L43.6,47C43.6,47,43.6,47,43.6,47z M43.1,45.9l0.3-0.1l0.4-0.3L43.1,45.9z
	 M43.5,46.9L43.5,46.9c-0.2-0.1-0.3-0.2-0.3-0.2C43.2,46.7,43.3,46.8,43.5,46.9z M51.6,90.9l0.8-0.1c0,0-0.2-0.1-0.4-0.2
	c-0.2-0.1-0.4-0.2-0.4-0.2C51.7,90.6,51.8,90.8,51.6,90.9z M43.7,49.3L43.7,49.3c-0.3-0.2-0.4-0.8-0.4-1c-0.1,0.4-0.1,0.8-0.2,1.3
	c0.1,0,0.2-0.2,0.4-0.1c0.1,0.2-0.1,0.2-0.2,0.4C43.6,49.8,44,49.8,43.7,49.3z M43.3,47.7l0.3-0.1l-0.1-0.1L43.3,47.7z M29.1,49
	c0.1-0.2,0.5-0.4,0.1-0.6C29.2,48.6,28.6,49,29.1,49z M13.5,71.7c0.3,0,0.2,0.9,0.5,0C13.8,71.7,13.6,71.8,13.5,71.7z M10.3,71.4
	L10.3,71.4l-0.3,0.7L10.3,71.4z M7.4,69.5c0,0,0-0.1,0.1-0.2C7.6,69.1,7.6,69,7.6,69l-0.1,0.1C7.3,69.3,7.4,69.4,7.4,69.5z
	 M10.3,60.5L10.3,60.5l-0.3,0.7L10.3,60.5z M13.5,60.8c0.3,0,0.2,0.9,0.5,0C13.8,60.7,13.6,60.8,13.5,60.8z M50.2,75.4l0.2-0.1
	c0,0-0.2,0-0.4-0.1c-0.2,0-0.4-0.1-0.4-0.1L50.2,75.4z M7.4,58.5c0,0,0-0.1,0.1-0.2C7.6,58.1,7.6,58,7.6,58l-0.1,0.1
	C7.3,58.3,7.4,58.4,7.4,58.5z M50.2,64.4l0.2-0.1c0,0-0.2,0-0.4-0.1c-0.2,0-0.4-0.1-0.4-0.1L50.2,64.4z M13.5,82.7
	c0.3,0,0.2,0.9,0.5,0C13.8,82.7,13.6,82.8,13.5,82.7z M10.3,93.9L10.3,93.9l-0.3,0.7L10.3,93.9z M7.4,91.9c0,0,0-0.1,0.1-0.2
	c0.1-0.1,0.1-0.2,0.1-0.2l-0.1,0.1C7.3,91.7,7.4,91.8,7.4,91.9z M13.5,94.2c0.3,0,0.2,0.9,0.5,0C13.8,94.1,13.6,94.2,13.5,94.2z
	 M10.3,82.4L10.3,82.4L10,83.1L10.3,82.4z M7.4,80.4c0,0,0-0.1,0.1-0.2C7.6,80.1,7.6,80,7.6,80l-0.1,0.1C7.3,80.3,7.4,80.3,7.4,80.4
	z M50.2,86.8l0.2-0.1c0,0-0.2,0-0.4-0.1c-0.2,0-0.4-0.1-0.4-0.1L50.2,86.8z M52.3,69.5l0.1,0.2c0,0,0.1-0.1,0.2-0.3
	c0.1-0.1,0.2-0.3,0.2-0.3s-0.1,0.1-0.3,0.2C52.4,69.4,52.3,69.5,52.3,69.5z M17.1,50.8c0.1-0.3-0.4-0.2-0.4-0.5
	c-0.3,0.4-0.5,0.2-0.1,1C17.1,51.5,16.5,50.5,17.1,50.8z M52.3,58.5l0.1,0.2c0,0,0.1-0.1,0.2-0.3c0.1-0.1,0.2-0.3,0.2-0.3
	s-0.1,0.1-0.3,0.2C52.4,58.4,52.3,58.5,52.3,58.5z M53.2,79c-0.1-0.5-0.7-0.2-0.6-0.2C52.5,79.1,53.1,79,53.2,79z M53.2,57.1
	c-0.1-0.5-0.7-0.2-0.6-0.2C52.5,57.1,53.1,57,53.2,57.1z M51.6,68.5l0.8-0.1c0,0-0.2-0.1-0.4-0.2c-0.2-0.1-0.4-0.2-0.4-0.2
	C51.7,68.2,51.8,68.4,51.6,68.5z M52.3,80.5l0.1,0.2c0,0,0.1-0.1,0.2-0.3c0.1-0.1,0.2-0.3,0.2-0.3s-0.1,0.1-0.3,0.2
	C52.4,80.4,52.3,80.5,52.3,80.5z M51.6,79.5l0.8-0.1c0,0-0.2-0.1-0.4-0.2c-0.2-0.1-0.4-0.2-0.4-0.2C51.7,79.1,51.8,79.4,51.6,79.5z
	 M52.6,67.8c0,0.3,0.5,0.2,0.6,0.2C53,67.5,52.4,67.8,52.6,67.8z M22.3,47.4l-0.1-1.3l0,1.3L22.3,47.4z M16.7,50.2
	c0-0.1,0.1-0.1,0.1-0.2C16.7,50.1,16.7,50.2,16.7,50.2z M29.3,46.4l-0.5,0.2c-0.1,0.2,0.1,0.4,0.2,0.3
	C29.2,46.7,29.4,46.6,29.3,46.4z M47.1,48.4l-0.5,0c0,0.2-0.2,0.4,0.2,0C46.7,48.7,46.9,48.5,47.1,48.4z M51.6,57.5l0.8-0.1
	c0,0-0.2-0.1-0.4-0.2c-0.2-0.1-0.4-0.2-0.4-0.2C51.7,57.2,51.8,57.4,51.6,57.5z M33.5,44.4c0.1,0.2,0.2-0.6,0.2-0.4
	C34,43.3,32.7,44.6,33.5,44.4z M33.9,44c0.1,0,0.2,0,0.3,0.1c0,0,0-0.1,0-0.1C34.2,44,34.1,44,33.9,44z M28.2,87.4
	C28.2,87.4,28.2,87.5,28.2,87.4C28.4,87.2,28.3,87.3,28.2,87.4z M50.8,82.8c0.1-0.1,0.1-0.2,0.2-0.4C51,82.5,50.9,82.7,50.8,82.8z
	 M41.4,83.2C41.4,83.3,41.4,83.3,41.4,83.2C41.4,83.2,41.4,83.2,41.4,83.2z M16.2,84.5l0.3-0.5C16.2,84,16.3,84.3,16.2,84.5z
	 M6.4,88c0.2,0,0.3-0.1,0.3-0.2C6.6,87.8,6.5,87.9,6.4,88z M5.2,88.9c-0.1,0-0.2,0-0.2,0c0.1,0,0.3,0,0.4,0
	C5.4,88.9,5.3,88.9,5.2,88.9z M4.9,88.5c0.1,0.1,0.2,0.2,0.3,0.2C5.1,88.7,5,88.6,4.9,88.5z M16.2,84.6
	C16.2,84.6,16.2,84.6,16.2,84.6C16.2,84.6,16.2,84.6,16.2,84.6L16.2,84.6z M6.4,77c0.2,0,0.3-0.1,0.3-0.2C6.6,76.8,6.5,76.9,6.4,77z
	 M41.4,72.3C41.4,72.3,41.4,72.3,41.4,72.3C41.4,72.2,41.4,72.2,41.4,72.3z M28.2,76.5C28.2,76.5,28.2,76.5,28.2,76.5
	C28.4,76.3,28.3,76.3,28.2,76.5z M16.2,73.7C16.2,73.7,16.2,73.7,16.2,73.7C16.2,73.6,16.2,73.6,16.2,73.7L16.2,73.7z M8.6,93.8
	l-0.2,0.2C8.5,94,8.6,93.9,8.6,93.8z M4.9,77.1c0.1,0.1,0.2,0.2,0.3,0.2C5.1,77.2,5,77.1,4.9,77.1z M50.8,71.8
	c0.1-0.1,0.1-0.2,0.2-0.4C51,71.5,50.9,71.7,50.8,71.8z M5.2,77.4c-0.1,0-0.2,0-0.2,0c0.1,0,0.3,0,0.4,0C5.4,77.4,5.3,77.4,5.2,77.4
	z M16.2,73.6l0.3-0.5C16.2,73,16.3,73.3,16.2,73.6z M34.5,44.1c0.1,0,0.1,0.1,0.2,0.1C34.7,44.1,34.7,44,34.5,44.1z M48.4,48.9
	c0-0.1,0-0.1,0-0.1c-0.1,0-0.1-0.1-0.3-0.2C48,48.9,47.7,48.6,48.4,48.9z M49.5,52.4c0.2-0.1,0.4-0.1,0.4-0.1
	c-0.5-0.5-1.5-0.7-1.6-1.2c-0.4,0.8,0.9,0.6,1,1.3l-0.1,0.2C49.2,52.6,49.3,52.5,49.5,52.4z M34.2,44C34.4,44,34.3,44,34.2,44
	L34.2,44z M3.7,87.4c0.1,0,0.1,0,0.2,0c-0.1-0.2-0.2-0.3-0.3-0.5C3.6,87.1,3.6,87.2,3.7,87.4z M3.7,54c0.1,0,0.1,0,0.2,0
	c-0.1-0.2-0.2-0.3-0.3-0.5C3.6,53.7,3.6,53.8,3.7,54z M15.7,44.7c-0.4-0.4-0.9-1.1-0.7-0.5l0.2,0.5C15.3,44.6,15.5,44.6,15.7,44.7z
	 M34.5,44.3c-0.1-0.1-0.1-0.1-0.2-0.2C34.3,44.2,34.3,44.2,34.5,44.3z M28.6,43.9c-0.2-0.2-0.4-0.3-0.6-0.4
	C28.2,43.9,28.5,44.4,28.6,43.9z M28.2,98.9C28.2,98.9,28.2,98.9,28.2,98.9C28.4,98.7,28.3,98.7,28.2,98.9z M41.4,94.7
	C41.4,94.7,41.4,94.7,41.4,94.7C41.4,94.7,41.4,94.7,41.4,94.7z M16.2,96l0.3-0.5C16.2,95.4,16.3,95.7,16.2,96z M6.4,99.5
	c0.2,0,0.3-0.1,0.3-0.2C6.6,99.3,6.5,99.3,6.4,99.5z M50.8,94.3c0.1-0.1,0.1-0.2,0.2-0.4C51,94,50.9,94.1,50.8,94.3z M27.2,43.6
	c0,0.1,0.1,0.1,0.1,0.1c0.2-0.1,0.4-0.2,0.6-0.1C27.7,43.3,27.5,43.2,27.2,43.6z M16.2,96.1C16.2,96.1,16.2,96.1,16.2,96.1
	C16.2,96.1,16.2,96,16.2,96.1L16.2,96.1z M8.6,82.4l-0.1,0.2C8.5,82.5,8.6,82.4,8.6,82.4z M39.8,47.2c0.5,0.1,0.5-0.3,0.8-0.5
	c-0.8-0.1,0.3-0.2-0.2-0.7c0.2,0,0.3,0,0.5,0c-0.1-0.1-0.2-0.2-0.3-0.4c0,0,0,0,0,0h0l0,0c0,0.1,0,0.1,0,0.1c0,0,0,0,0,0
	c0,0.1-0.1,0.1-0.1,0.2c-0.2-0.2,0-0.1,0.1-0.2l0-0.1l0,0l-0.9,0c0.2,0.1,0.4,0.2,0.8,0.2C40.2,46.5,39.7,46.6,39.8,47.2z
	 M48.4,48.7C48.7,48.9,48.4,48.4,48.4,48.7L48.4,48.7z M38.1,46.1c0.1,0.3,0.7,0.9,0.3,1.2c-0.6,0.1-0.4-0.3-0.6-0.6
	c0.1,0.7-0.9,0.7-1,1.7l0.5-0.2c0,0.1-0.2,0.3-0.1,0.5c0.1-0.5,0.7-0.8,1-0.2c0.5-0.3,0.7-1.9,0.5-2.9
	C38.7,45.7,38.6,45.9,38.1,46.1z M39.5,45.8l0.2,0c-0.2-0.1-0.3-0.4-0.4-0.8c-0.4,0.2-0.5,0.3-0.5,0.5L39.5,45.8L39.5,45.8z
	 M41.6,46.6c0.1,0.2,0.3,0.1,0.5,0c-0.2,0-0.3,0-0.5-0.1C41.6,46.5,41.6,46.6,41.6,46.6z M50.5,53.3c0,0-0.2,0-0.4-0.1
	c-0.2,0-0.4-0.1-0.4-0.1l0.5,0.2L50.5,53.3z M46.3,48.4l0.3,0C46.6,48.3,46.6,48.3,46.3,48.4z M8.6,60.4l-0.2,0.2
	C8.5,60.6,8.6,60.5,8.6,60.4z M42.5,46.4L42.5,46.4C42.5,46.5,42.5,46.5,42.5,46.4z M23,49.5c-0.1-0.1-0.2-0.2-0.2-0.3
	C22.8,49.4,22.8,49.5,23,49.5z M11.9,51c0.1,0.5,0.2,1,0.2,1c0-0.7,0.2-0.7,0.4-0.6l-0.7-1.5C11.8,49.9,11.9,50.5,11.9,51z
	 M12.5,51.4C12.5,51.4,12.5,51.4,12.5,51.4L12.5,51.4L12.5,51.4z M4.9,55.1c0.1,0.1,0.2,0.2,0.3,0.2C5.1,55.3,5,55.2,4.9,55.1z
	 M5.2,55.5c-0.1,0-0.2,0-0.2,0c0.1,0,0.3,0,0.4,0C5.4,55.5,5.3,55.5,5.2,55.5z M4.9,66.1c0.1,0.1,0.2,0.2,0.3,0.2
	C5.1,66.2,5,66.2,4.9,66.1z M41.4,61.3C41.4,61.3,41.4,61.3,41.4,61.3C41.4,61.3,41.4,61.3,41.4,61.3z M50.8,60.9
	c0.1-0.1,0.1-0.2,0.2-0.4C51,60.6,50.9,60.7,50.8,60.9z M16.2,62.6l0.3-0.5C16.2,62,16.3,62.3,16.2,62.6z M28.2,65.5
	C28.2,65.5,28.2,65.5,28.2,65.5C28.4,65.3,28.3,65.3,28.2,65.5z M6.4,66.1c0.2,0,0.3-0.1,0.3-0.2C6.6,65.9,6.5,65.9,6.4,66.1z
	 M5.2,66.4c-0.1,0-0.2,0-0.2,0c0.1,0,0.3,0,0.4,0C5.4,66.4,5.3,66.4,5.2,66.4z M25.3,47L25.3,47C25.4,47.1,25.4,47.1,25.3,47z
	 M40.4,45.3c0.1,0.1,0.1,0.3,0.2,0.4C40.6,45.5,40.5,45.2,40.4,45.3z M41.7,46c-0.3,0.2-0.5,0.1-0.7,0.1c0.2,0.2,0.4,0.3,0.7,0.4
	C41.7,46.3,41.9,46,41.7,46z M16.2,62.7C16.2,62.7,16.2,62.7,16.2,62.7C16.2,62.7,16.2,62.6,16.2,62.7L16.2,62.7z M42.5,46.3
	C42.5,46.3,42.5,46.3,42.5,46.3C42.5,46.1,42.5,46.2,42.5,46.3z M42.5,46.3c-0.1,0-0.2,0.1-0.4,0.2c0.1,0,0.2,0,0.4-0.1
	C42.5,46.4,42.5,46.4,42.5,46.3z M8.6,71.4l-0.2,0.2C8.5,71.5,8.6,71.5,8.6,71.4z M70.6,13.1l0.5-0.2c0,0.1-0.2,0.3-0.1,0.5
	c0.1-0.5,0.7-0.8,1-0.2c0.5-0.3,0.7-1.9,0.5-2.9c-0.1,0.2-0.1,0.4-0.6,0.6c0.1,0.3,0.7,0.9,0.3,1.2c-0.6,0.1-0.4-0.3-0.6-0.6
	C71.6,12.1,70.7,12.1,70.6,13.1z M84.2,18c0,0-0.2,0-0.4-0.1c-0.2,0-0.4-0.1-0.4-0.1l0.5,0.2L84.2,18z M77.2,11.6
	c-0.2-0.1-0.3-0.1-0.3-0.2C76.9,11.4,77,11.5,77.2,11.6L77.2,11.6z M80.1,13.1l0.2,0C80.4,13,80.3,13,80.1,13.1z M82.1,13.4
	C82.4,13.6,82.1,13.1,82.1,13.4L82.1,13.4z M68,8.7C68.2,8.7,68,8.7,68,8.7L68,8.7z M59.1,11.7L59.1,11.7
	C59.1,11.8,59.1,11.8,59.1,11.7z M68.2,8.8l0.2,0.1C68.4,8.8,68.4,8.7,68.2,8.8z M56.8,14.2c-0.1-0.1-0.2-0.2-0.3-0.3
	C56.5,14.1,56.6,14.2,56.8,14.2z M46.3,16.1C46.3,16.1,46.3,16.1,46.3,16.1L46.3,16.1L46.3,16.1z M67.7,8.7c0.1,0,0.2,0,0.3,0.1
	c0,0,0-0.1,0-0.1C67.9,8.7,67.8,8.7,67.7,8.7z M68.2,9c-0.1-0.1-0.1-0.1-0.2-0.2C68,8.9,68.1,8.9,68.2,9z M61.9,30.2
	C61.9,30.2,61.9,30.2,61.9,30.2C62.1,30,62,30,61.9,30.2z M40.2,30.8c0.2,0,0.3-0.1,0.3-0.2C40.3,30.6,40.2,30.6,40.2,30.8z
	 M75.1,26C75.2,26,75.2,26,75.1,26C75.2,26,75.2,26,75.1,26z M84.6,25.6c0.1-0.1,0.1-0.2,0.2-0.4C84.8,25.3,84.7,25.4,84.6,25.6z
	 M49.9,27.4C49.9,27.4,49.9,27.4,49.9,27.4C50,27.4,50,27.3,49.9,27.4L49.9,27.4z M39,20.2c-0.1,0-0.2,0-0.2,0c0.1,0,0.3,0,0.4,0
	C39.2,20.2,39.1,20.2,39,20.2z M38.7,19.8c0.1,0.1,0.2,0.2,0.3,0.2C38.9,20,38.8,19.9,38.7,19.8z M42.3,25.1l-0.1,0.2
	C42.3,25.3,42.4,25.2,42.3,25.1z M77.5,10.1l-0.7,0.5l0.3-0.1L77.5,10.1z M77.4,11.7L77.4,11.7C77.3,11.7,77.3,11.7,77.4,11.7z
	 M68.7,11.8c-0.1,0-0.2,0-0.4,0C68.5,11.9,68.6,11.9,68.7,11.8z M69.2,12.7l-0.1-0.2l-0.3-0.1L69.2,12.7z M76.3,11.1L76.3,11.1
	C76.2,11.2,76.2,11.2,76.3,11.1z M74.8,9.9c0.1-0.1,0.3-0.2,0.5-0.3C75.2,9.7,75,9.8,74.8,9.9z M76.2,11C76.2,11,76.2,11,76.2,11
	C76.2,10.8,76.2,10.9,76.2,11z M74.1,10c0.1,0.1,0.1,0.3,0.2,0.4C74.3,10.2,74.2,9.9,74.1,10z M72.5,10.1c0,0,0,0.1,0,0.1L72.5,10.1
	L72.5,10.1z M68.5,11.1c0,0.1-0.1,0.1-0.1,0.3C68.4,11.2,68.5,11.1,68.5,11.1z M77.1,14.8c0-0.1,0-0.1,0-0.1
	C77.1,14.7,77,14.7,77.1,14.8z M41.2,23.2c0,0,0-0.1,0.1-0.2c0.1-0.1,0.1-0.2,0.1-0.2l-0.1,0.1C41.1,23,41.1,23.1,41.2,23.2z
	 M77.1,12.9c0,0,0,0.1,0,0.1C77.1,13,77.1,13,77.1,12.9z M77.2,12.3L77,12.4l0.3-0.1L77.2,12.3z M44,25.2L44,25.2l-0.3,0.7L44,25.2z
	 M80,13.9c0.2-0.1,0.5-0.1,0.5-0.1S80.2,13.8,80,13.9c-0.3,0-0.6,0.1-0.6,0.1l0.1,0.1C79.5,14,79.8,13.9,80,13.9z M50.4,14.9
	c0-0.1,0.1-0.1,0.1-0.2C50.5,14.8,50.4,14.9,50.4,14.9z M61.9,63.7C61.9,63.7,62,63.7,61.9,63.7C62.1,63.5,62.1,63.6,61.9,63.7z
	 M38.4,41.5c-0.1,0-0.1-0.1-0.2-0.1C38.2,41.5,38.3,41.5,38.4,41.5z M40.6,40.9c0.1,0,0.2,0,0.3-0.1C40.7,40.8,40.6,40.8,40.6,40.9z
	 M61.9,52.7C61.9,52.7,62,52.7,61.9,52.7C62.1,52.6,62.1,52.6,61.9,52.7z M40.3,35.2l0.1-0.4l-0.1,0.1C40.2,35,40.2,35.1,40.3,35.2z
	 M83.5,29.4l0.2,0c0,0-0.1-0.1-0.3-0.1c-0.1,0-0.3-0.1-0.3-0.1L83.5,29.4z M43.5,37.3L43.5,37.3l-0.1,0.5L43.5,37.3z M61.9,86.1
	C61.9,86.1,62,86.1,61.9,86.1C62.1,86,62.1,86,61.9,86.1z M38.4,30.5c-0.1,0-0.1-0.1-0.2-0.1C38.2,30.5,38.3,30.6,38.4,30.5z
	 M61.9,74.6C61.9,74.6,62,74.7,61.9,74.6C62.1,74.5,62.1,74.5,61.9,74.6z M37.4,40.6c0,0,0.1,0,0.1,0c-0.1-0.1-0.1-0.3-0.2-0.4
	C37.4,40.3,37.4,40.4,37.4,40.6z M41.8,37l-0.1,0.1C41.8,37.1,41.8,37,41.8,37z M61.9,41.7C61.9,41.7,62,41.7,61.9,41.7
	C62.1,41.6,62.1,41.6,61.9,41.7z M49.7,39.5C49.7,39.5,49.7,39.5,49.7,39.5C49.7,39.5,49.7,39.5,49.7,39.5L49.7,39.5z"/>
</svg>
