<?xml version="1.0" encoding="utf-8"?>
<!-- Generator: Adobe Illustrator 21.0.0, SVG Export Plug-In . SVG Version: 6.00 Build 0)  -->
<svg version="1.1" id="Слой_1" xmlns="http://www.w3.org/2000/svg" xmlns:xlink="http://www.w3.org/1999/xlink" x="0px" y="0px"
	 viewBox="0 0 125 125" style="enable-background:new 0 0 125 125;" xml:space="preserve">
<style type="text/css">
	.st0{fill:#3F8CCB;}
	.st1{fill:#034EA1;}
	.st2{fill:#F05A22;}
	.st3{fill:#3EBEB8;}
	.st4{fill:#F9A51A;}
</style>
<path class="st2" d="M21.3,30.6c0.2,0.6,0.4,1.3,0.4,1.3c0-1.2,0.4-1.4,1-1.8l-1.8-0.8C20.9,29.3,21.1,30,21.3,30.6z M8.3,55.7
	c-0.1,0.1-0.3,0.1-0.4,0.1C8,55.9,8.2,56,8.3,55.7z M14,88.4l-0.3,0C14,88.5,14.1,88.6,14,88.4z M8,56.8c0.2-0.2,0.4-0.6,0.6-1
	L8,56.8z M16.1,92l0.5,0.4C16.4,92.2,16.2,92.1,16.1,92z M122.9,69c0,0,0.1-0.3,0.2-0.6c0.1-0.3,0.2-0.6,0.2-0.6l-0.5,0.8L122.9,69z
	 M15,90.5c0.1,0.1,0.1,0.2,0.1,0.2C15.1,90.6,15.1,90.6,15,90.5z M11.8,80.4l0.3-1l-0.2,0C11.6,79.7,11.7,79.9,11.8,80.4z
	 M22.8,30.2C22.8,30.1,22.8,30.1,22.8,30.2C22.8,30.1,22.7,30.1,22.8,30.2L22.8,30.2z M104.7,24.5c-0.8,0.2-1.9-0.5-1.8,0.5
	c1.2,1,1.2,0.4,2.1,0.9C103.1,24.1,105.9,26.1,104.7,24.5c0.4,0.3,0.8,0.7,1.1,0.9c-0.3-0.4-0.5-0.8-0.8-1.2c0,0,0,0,0,0.1l0,0l0,0
	c0,0.1,0,0.2,0,0.1c0,0,0,0-0.1,0C104.9,24.4,104.8,24.4,104.7,24.5c-0.5-0.6,0-0.2,0.3-0.1c0,0,0.1,0,0.1,0l0,0l-2.2-1.5
	C103.2,23.2,103.8,23.7,104.7,24.5z M53,14.8c-0.4,0-0.6-0.1-0.8-0.2C52.2,14.7,52.4,14.8,53,14.8z M101.6,21.6c0.5,0.5,1,0.9,1,0.9
	l-0.2-0.1l0.5,0.3c-0.4-0.5-0.6-0.9-1-1.8c-0.9-0.4-1.2-0.3-1.4-0.2c0,0,0.1,0.1,0.3,0.3C101,21.2,101.3,21.4,101.6,21.6z M88,12.6
	c-0.2-0.1-0.4-0.2-0.8-0.3c0.3,0.1,0.6,0.3,0.9,0.5C88,12.7,87.9,12.6,88,12.6z M95.3,21.6c0,0,0.4,0.1,0.7,0.3
	c0.4,0.1,0.7,0.3,0.7,0.3c-0.1,0.1-0.7,0-0.4,0.4c0.4-0.4,1.9,0,2.6,1.3c1.2,0.5,1.8-1.5,1.6-3.1c-0.2,0.2-0.3,0.4-1.6-0.2
	c0.1,0.3,0.6,0.9,0.9,1.3c0.3,0.5,0.4,0.9-0.2,0.8c-1.6-0.8-1-1-1.5-1.8c0.1,0.5-0.5,0.4-1.2,0.3C96.1,21.1,95.4,21.1,95.3,21.6z
	 M60.3,11.3C60.2,11.3,60.2,11.3,60.3,11.3C60.4,11.4,60.4,11.4,60.3,11.3z M106.4,29.6l0.2-0.3c0.7,1,0.9,0.5,1.1,0.5l-1.7-1.4
	L106.4,29.6z M88.7,13c0.2,0.1,0.3,0.2,0.5,0.3C89.3,13.2,89.2,13.1,88.7,13z M100.5,25.2c0.2,0,0.3,0.2,0.5,0.3l0.2-0.3
	C100.6,24.8,100,24.6,100.5,25.2z M121.6,74.6c-0.2,0.5-0.6-0.1-1-0.1c0,0,0.1-0.2,0.2-0.5c0.1-0.3,0.3-0.7,0.5-1.1
	c0.2-0.4,0.3-0.8,0.5-1.1c0.1-0.3,0.2-0.5,0.2-0.5c-0.5-0.4-0.4-1.3-0.3-2.1c0.1-0.9,0-1.7-0.4-1.9l0.1,1.1
	c-0.5-0.7-1.1-0.3-1.8,0.3c-0.7,0.6-1.4,1.3-2.1,1.1c0.3,0.4,0.3,0.8,0.2,1.3c-0.1,0.5-0.4,0.9-0.7,1.5c-0.5,1-1.1,2.1-0.4,3.5
	c-0.4,0.5-0.4-0.5-0.7-0.3c0.5,0.7,0.4,1.5-0.2,2.7l-0.1-0.2c-0.4,1.9-0.9,3.1-1.6,4.4c-0.3,0.6-0.7,1.3-1.1,2
	c-0.4,0.7-0.9,1.5-1.4,2.4l0.8,0c-0.5,0.8-0.7,0.9-1.1,1.2c0.5,1.4,1.2-2.3,1.8-0.9c-0.5,0.1-0.8,0.6-1.2,1.1
	c-0.4,0.6-0.8,1.3-1.2,1.9c-0.8,1.3-1.7,2.6-2.6,2.5c-0.8,1.2,0.9,0.1,0.1,1.3l-0.6,0.1l0.2,0.6c-0.6,0.7-1.3,0.7-1.7,0.5
	c0.2-0.2,0.3-0.6,0.4-0.8c-0.6,0.3-1,1-1.4,1.6c-0.4,0.6-0.7,1.2-0.9,1.3l1.1-0.9c-2.1,3.3-5.8,6.1-8.2,9.1l0.4,0.1
	c-1.9,2.2-2,1.1-4.5,3.1l0.1-0.1c-0.4,0.6-1,1.2-1.8,1.6c0.2-0.4-0.2-0.3-0.6-0.3c-0.4,0-0.8,0-0.4-0.5c-2.4,2-1.1,1.2-2.4,3.2
	l-0.7-0.3c-0.4,0.7-0.4,1-1.8,1.8c1-0.9-1.3-0.4-0.2-1.5c-1.7,0.1-2.7,0.8-3.6,1.4c-0.8,0.6-1.6,0.9-2.5,0.4c-1,1.9,3-0.1,2.3,0.5
	c0.8,0.2-0.8,1.5-1.9,1.6c-0.5,0.2-1.1-0.2-1.9-0.5c-0.8-0.3-1.7-0.5-3-0.2c0.3,0,0.2-0.2,0.5-0.2c-1-0.2-1.8,0.9-3.1,0.5
	c-0.5,1-1.5,0.2-1.6,1.4c0,0,0.6-0.2,1.2-0.3c0.6-0.2,1.2-0.3,1.2-0.3c-0.7,0.3-1.2,0.8-2,1.2c-0.7,0.4-1.6,0.7-2.8,0.5
	c0.2-0.3,0.8-0.6,1.3-0.9c-0.7-0.3-1.3,0.4-2,0.1c0.1-0.6,0.8-0.7,1.7-0.8c0.9-0.1,1.9-0.3,2.6-0.8c-0.8-0.3-2.6,1.2-2.1-0.1
	c-0.4,0.8-1.1,0.9-1.8,0.9c-0.7,0-1.6-0.1-2.4,0.5l0.1-0.7c-0.3,0.1-0.8,0.5-1.4,0.5l0.9-0.9c-1.4,0.8-2.8-0.6-4.1-0.2
	c2.8,0,0.6,0.9,1.9,1.4c-3.6,0.9-2-1.8-5.9-1.7c0.5-0.1,2,0.6,1.1,0.8c-0.7-0.2-1.7-0.5-2.1-1c-2.6-0.2,0.3,0.8-0.8,1
	c-0.8-0.9-1.3,0.2-2.5,0.2l0.1-0.7c-2.9-1-1.1,1.3-3.6,0.2l1.3-0.7l-1.4-0.1l0.5-0.7c-1.6,0.2-2.1-0.1-3.4-0.7
	c0.2,0.6-0.6,1.2-1.9,0.8c-0.7-0.7,0.7-0.4-1.1-1c0.6-0.3,1.2-0.6,1.7,0.2c0.2-0.2,0.5-0.3,0.7-0.5c-0.4-0.4-1-0.6-1.5-0.7
	c-0.5-0.2-1.1-0.3-1.4-0.4c0.2,0.1,0.5,0.3,0.6,0.4c0,0-0.7,0-1.4,0c-0.4,0-0.7,0-1,0c-0.3,0-0.5,0-0.5,0c-0.3-0.4,0.1-0.5,0.5-0.5
	c-0.5-0.1-1,0-1.8-0.3c0.4-0.4,0.6-1,1.8-0.8c0,0-0.7-0.1-1.3-0.2c-0.6-0.1-1.3-0.3-1.3-0.3c0-0.3-0.9-1.2-0.5-1.2
	c-0.6-0.4-1.4-0.6-2.4-0.8c-0.9-0.2-1.9-0.5-2.6-1.2c-0.1,0-0.4,0-0.7-0.1c-1.4-1.1-2.3-2.5-4.4-3.3l-0.3-1.5
	c-1.4-0.9,0.4,2-1.9,0.5c-1.7-1.1,0-1.1-0.3-1.8c-1-0.3-3-0.7-3.6-2.6c0.5,0.3,0.7,0.8,1.2,1.1l-0.5-1.4c1.8,0.6,2.4,1.6,2.1,0.2
	c-0.8,0.6-1.7-0.3-2.6-1.2c-0.9-1-1.7-1.9-2.6-1.4l-0.2-1c0.1,0.2,0.3,0.2,0.4,0.4c-0.3-2-2-0.2-3-2.2c-0.3-0.7-0.4-1.4,0.1-1
	l-1.3-1.2c-0.2-0.4,0-0.5,0.2-0.2c0-0.1-0.1-0.1-0.1-0.2c-0.1-0.2-0.3-0.5-0.5-0.8c-0.4-0.6-0.7-1.1-0.7-1.1l0.1,0
	c-0.5-0.2-1.3-0.7-1.6-1.1c0-0.7,0.3,0.2,0.5,0l-1.1-1.2c0.2-0.8,1.2,0.2,1.6,1.1c1.2-2.1-1-0.9-1.1-4.1l0.8,1.2
	c0.3-0.6,0.3-1.1,0.2-1.7c-0.1-0.6-0.2-1.2-0.1-2c-0.2,0.4-0.6,3.5-1.6,2.2c0-0.5-0.1-1.1-0.8-1.7c0.6-0.2,0.2-1-0.1-2l0.9-0.2
	c-0.6-1-1-0.8-1.6-1.3c-0.2-1.3,0.4-1.7,1-2.1c-0.2-2-0.9,1.6-1.5-0.7c0-0.9-0.1-1.6-0.3-2.3C8.6,71.8,8.2,71,7.9,70
	c0.2-1.2,0.6,0.2,0.8-0.3l-0.8-1c0-0.3,0.2-0.2,0.3-0.2c-0.3-0.9-0.9,0-1.2-1.4c-0.5-0.2-0.2-0.9,0.2-1.8c0.4-0.9,0.7-1.9,0.2-2.8
	c0.3-0.4,0.6,0.2,0.9,0.1c-0.3-1.2-0.4-1.7-0.5-2.2c-0.1-0.5-0.3-0.9-0.6-2c0,0,0.2-0.4,0.4-0.8C7.8,57.2,8,56.8,8,56.8
	c-0.9,1.1-1.4-0.6-1.8-2.2c-0.4,0.4-0.8,0.7-1,0.9c0,0,0-0.6,0-1.2c0-0.6,0-1.2,0-1.2C5.4,53,5.7,53.3,6,53.7c0-0.2-0.1-0.3-0.1-0.5
	c0.5-0.7,0.9-0.2,1.3,0.5c-0.3,0.2-0.5,0.5-0.8,0.7c0.4,0.7,1,1.3,1.5,1.3c-0.1-0.2-0.1-0.5-0.1-0.8c0.1,0.2,0.2,0.3,0.3,0.2
	c0.1-0.1,0-0.3-0.2-0.7l1.1-0.3L8.7,54c0,0,0.3-0.7,0.7-1.3c0.4-0.6,0.7-1.3,0.7-1.3c-0.4-2.2-1.2-4.5-0.2-7.9
	c0.3,1.1,1,0.7,1.8,1.1c-0.6,0.2-0.8,0.8-0.9,1.6c-0.1,0.8-0.2,1.6-0.5,2.4c0.4-0.8,0.7-0.5,0.8-0.2c0,0,0-0.2,0-0.5
	c0-0.3,0.1-0.7,0.1-1.1c0.1-0.8,0.2-1.6,0.2-1.6c0.6,0.4,0.8-0.4,1.4-0.9c-0.8,0-0.8-0.7-0.5-1.4c0.3-0.8,0.8-1.7,0.9-2.3
	c0.5,0.2,0.8,0.7-0.1,1.9c0.9-0.5,0.7-1.1,0.6-1.8c-0.1-0.7-0.2-1.4,0.6-1.9c-0.2,0.3-0.4,0.5-0.2,0.7c0.1-1,1.5-2.6,1.6-1.9
	L15.6,38c0.7-1,1.8-2.5,2.7-3.9c0.4-0.7,0.8-1.3,1-1.9c0.2-0.5,0.3-1,0.2-1.3c0.1,0.1,0.9,1.2,1,1.5c0,0-0.1-1.5,0-3
	c0-1.5,0.2-3.1,0.2-3.1c0.5,1,3.3,1.8,2.2,3.7c0.5-0.3,1.1-0.7,1.8-1.8c-0.4,0.1-1.8-0.5-1.4-0.9c1.9-0.1,1.2-0.3,3.3-0.7
	c-0.6,0.2-1.2-1.5-0.4-2.1c0,0.3,1.1,1.2,0.9,1.6c0,0,0.2-0.7,0.4-1.4c0.2-0.7,0.5-1.4,0.5-1.4c-0.3,0.6,0.7,1.2,1.4,1.2
	c-0.4-0.1,1.7-1.1,2.1-1.6l-1,0.2c1.2-0.6,1.4-1.5,1.7-2.3c0.3-0.8,0.5-1.8,1.7-2.4c-0.1,0.5,0.3,2.2,1.6,1.7c0.1-0.5,0.2-1.7,0.6-3
	c0.2-0.6,0.5-1.3,0.8-1.9c0.3-0.6,0.8-1.1,1.3-1.5l0.6,0.3c0,0,0.4-0.3,0.8-0.6c0.4-0.3,0.8-0.6,0.8-0.6c-0.2,0.4-0.4,0.9-0.7,1.5
	c-0.3,0.6-0.6,1.3-1,1.9c-0.7,1.3-1.4,2.7-1.9,3.5c1.1-0.1,0.5,0.4,1.8-0.3c0.6,0.2-0.4,1-0.8,1.2c0,0,0.8-0.3,1.6-0.6
	c0.8-0.3,1.6-0.5,1.6-0.5c-0.5-0.9,2-1.9,1.6-2.6c0,0-0.8,0.6-1.6,1.1c-0.8,0.6-1.5,1.2-1.5,1.2c-0.6-0.8,0.9-3.4,3.4-4.1
	c0.7,0.2,0.1,1.8,0.3,2.1c0.2-0.5,2-1.3,2.3-1.2l-0.8,0.8c0.7,0,1.1-0.5,1.6-0.9c0.5-0.4,1.1-0.7,2-0.5c0.6-0.1,1.9,0.9,1.9,0.3
	c-1.1-0.9-2.1-4.2-1.7-5.2c0.1,0,1,0.1,1.9,0.2c0.9,0.1,1.9,0.4,2.2,0.6c1.1,0.7-1.1,2.3-0.1,2.9c0-0.3,0.4-0.7,0.6-0.8
	c0.6,0.1-0.1,0.9,1.1,0.5c0.1-1,2.6-0.2,0.5-0.9c1.2-0.4,1.4,0,2.9-0.1c-0.5-0.6,1.2-2.3,2.5-2.6c-0.1,0.3,0.2,0.6,0.4,0.7
	c0.7,0,1.3,0,1.8,0.1c0.6,0.1,1.1,0.1,1.6,0.2c0.5,0.1,1,0.1,1.5,0.2c0.5,0.1,1.1,0.2,1.7,0.2c0.2,0.3,1.4,0.6,0.8,1
	c0.4-0.1,0.7-0.4,1.5-0.4c1.4,1-1.7-0.1-0.7,1.1c0.2-0.5,2-0.6,3.2-0.7c-0.2-1-2.5-0.5-3.6-0.3c0.1-0.6,0.6-1.2,1.5-1.6
	c0.4-0.2,1-0.4,1.6-0.6c0.6-0.1,1.2-0.2,1.9-0.2c2.2,0.1,0.8,1,1.2,0.8c1.9,0.5,2.9,0.2,3.8,0c0.9-0.2,1.7-0.4,3.2,0.5
	c1,1.2-0.4,1.5-0.3,2.1c-1.7-0.3-2.4-1.2-3.5-1.5l1.3,0.7c-0.6,0.1-1.7,0-2.3-0.4c0.2,0.2,0.7,0.5,1.4,0.7c0.7,0.2,1.5,0.5,2.4,0.8
	c0.9,0.3,1.9,0.6,2.7,1c0.9,0.4,1.7,0.8,2.3,1.2c0.6,0,1.6,0.1,1.3-0.4l-0.9-0.3c-0.6-0.9,2-0.1,1-0.8c0.7,0,1.5,0.1,2.2,0.3
	c0.8,0.2,1.6,0.4,2.3,1.1l-0.1,1c0.1-0.2-0.8-1.1-1.4-1c0.9,0,1.9,2.4,3.2,1.8c0,0-0.2-0.3-0.4-0.6c-0.2-0.3-0.4-0.6-0.4-0.6
	c0.7,0.1,1.5,0.2,2.3,0.4c0.8,0.2,1.6,0.5,2.3,1.1c-0.2-1.2-0.4-0.1-0.9-1.7c0.1,0.8-0.8,0.2-1.7-0.3c-0.9-0.5-1.7-0.9-1.3,0
	c-0.5-1.6-1.6-1.5-2.6-3.1c-0.1,0.3,0.3,0.8-1,0c-0.1,0-0.3,0.1-0.4,0.1c0,0,0,0-0.1-0.1c0,0,0,0,0.1,0.1c-0.1,0-0.1,0,0,0
	c0.3,0.3,0.4,0.5,0.5,0.7c-0.9,0.3-3-0.6-3.8-0.6c-0.7-0.4,0.4-0.2,0.1-0.6l-1.3,0.1c0.1-0.6-1.7-1.8,0.3-1.5c0,0-0.4-0.2-0.8-0.3
	c-0.4-0.2-0.8-0.3-0.8-0.3c-0.9-0.7-2.3-1.3-3.2-1.2c-0.8-0.4-2.3,0.1-1.4-0.2c0,0-0.2,0-0.4-0.1c-0.3,0-0.6-0.1-1-0.1
	c-0.7-0.1-1.4-0.1-1.4-0.1l0-0.2c-1.4-0.4-2.8-0.3-4.3-0.4c-1.5,0-3-0.3-4.5-0.9c-0.9,0.1-1.9,0.2-3.5,0l-0.3-0.6
	c-1.2,0.2-3.7-0.5-4.2,0.1C58,6.5,56.5,6.5,55,6.8c-0.8,0.1-1.6,0.3-2.3,0.5c-0.7,0.2-1.4,0.3-2,0.3l0.1,0.7
	c-0.7,0.1-1.4,0.3-2.1,0.5c-0.7,0.3-1.5,0.5-2.3,0.9l0.3,0.6c-1.3,0.9-4,0.6-6.2,1.5c0.1-0.3,0.7-0.5,1.1-0.5
	c-1.6-0.2-3,0.6-4.3,1.5c-1.3,0.9-2.4,1.9-3.9,2c-0.5,0.5-0.9,0.7-1.4,0.8c0.1,0,0.1-0.1,0.1-0.1c-0.1,0-0.2,0.1-0.2,0.1
	c-0.3,0-0.6,0.1-1,0.1c0.3,0,0.6,0,0.9-0.1C31.2,16,30.5,16.5,30,17l-0.6-0.4c0,0-0.1,0.1-0.1,0.1c-0.8,0.2-0.3,0.6,0.3,0.8
	c-0.3,0.3-0.5,0.6-0.6,0.9c-1.1-0.6-1.4,1.4-2.8,0.9c-0.1,0.7-2.4,2.4-2.4,3.6c-0.7,0.4-1.5,0.8-1.8,1.6l-0.9-0.4
	c0,0-0.1,0.5-0.3,1.1c-0.1,0.5-0.3,1-0.3,1c-1.1,0.4-1.7,0.5-1.4-0.8c-1.2,2.6-1.3,1.8-2,4.2l-0.4-0.5c-0.5,0.6-0.7,2.1-1.4,2.2
	c-0.5,0.2-1.1,0.7-1.8,1.4c-0.7,0.7-1.4,1.7-2.1,2.8c-1.4,2.2-2.9,4.7-4.3,6.6c1,0,0.6,0.4,0,0.9c-0.5,0.5-1.1,1.2-0.5,1.5
	c-0.5,0.1-0.9,0.6-1-0.2c-0.3,1.2-0.7,2-1.1,2.7c-0.3,0.7-0.6,1.4-0.3,2.4C3.9,49.6,4,48.8,3.7,49c0,0.2,0.1,0.8-0.2,1
	c-0.3,0.2-0.2-0.4-0.3-0.9c-0.7,2.4,0.5,3,1.6,3.4c-0.8,1.1-0.9,1.7-0.3,2.7c-0.5,0.3-1,1-0.8-0.5c-0.1,0.4-0.5,1.7-0.7,2.9
	c-0.2,1.2-0.2,2.3,0.2,2.4c-0.3,0.2-0.2,1.2-0.1,1.4c-0.2,1.9-0.2,2-0.2,3.9l0.2-0.5c1.1,0.7,0.2,1.5,0.4,3l-0.1,0
	c-0.3,1.7-0.2,2.1-0.1,2.4c0.1,0.4,0.2,0.7,0,2.4L4,72.4c0.8,0.1,0.6,0.8,0.4,1.8c-0.2,1-0.4,2.2,0.1,3.1c0,0,0.1-0.2,0.1-0.4
	c0.1-0.2,0.1-0.4,0.1-0.4c0.3,0.5,0,1.3-0.4,2.2C4,79.5,3.5,80.5,3.6,81c-0.1,0.3-0.3-0.3-0.5-0.6c0,3,1,0.1,1.8,2.1
	c-0.3,0.5-1.4-0.1-1,1.3c-0.1,0.4,0.6,1.3,1.4,2.3c0.8,1,1.5,2.1,1.5,3.2c0.2-0.6,0.3-1.1,1-0.3c0.4,0.7,0.5,1.7,0.8,2.7
	c0.3,1,0.7,1.9,1.6,2.2c0,0.2,0,0.3-0.1,0.4c0.8,0.9,2.5,2.9,3.4,3.1c-0.7,1.1,0.6,2.4,2,3.5c1.3,1.1,2.6,1.9,1.8,2.7
	c0,0,0.6,0.6,1.3,1.2c0.7,0.6,1.3,1.2,1.3,1.2l-0.2,0.1c1.6,1.7,2.5,1.8,3.5,1.9c0.3,0.4-0.1,0.4-0.2,0.4c1.1,1.2,1.8,1.9,2.6,2.3
	c0.7,0.4,1.5,0.6,3,0.9l-0.2,0.8c0.4,0.1,1.3,0.9,2.5,1.9c1.2,1,2.7,2,4.4,2.3c-0.1,0.1-0.2,0.2-0.5,0.1c0.9,0.2,1.8,0.7,2.7,1.2
	c0.4,0.2,0.9,0.5,1.3,0.8c0.4,0.3,0.9,0.5,1.3,0.7c1.7,1,3.3,1.5,4.3,0.4c0,0,0.6,0,1.2,0c0.6,0,1.2,0,1.2,0c-2.9-1,0.7-1-0.4-1.7
	c1.2,0.2,2.8,1.5,1.3,1.3l-0.2-0.2c-0.9,1.2,3.6,1.3,3.4,2.2c6,1,12,2,17.8,1.5c0,0-0.2-0.2-0.4-0.5c-0.2-0.3-0.4-0.5-0.4-0.5
	s0.5,0,1-0.1c0.5,0,1-0.1,1-0.1c0.5,0.2,0.8,0.7-0.6,0.9c0.8,0.5,2.3-0.8,2.3-1c2.8,0-0.9,1.4,0,1.3l1.2-0.3l-0.3-0.1
	c0.9-0.6,0.9-1,2.6-1.3c1.1,0,0.7,0.5,1.1,0.5c0,0.1,0.2,0.1,0.7-0.1c0,0,0.6-0.1,1.2-0.3c0.6-0.1,1.2-0.3,1.2-0.3l-1.2-0.5
	c1-0.7,2.3-0.6,0.9-1.2c0.5,0.3,1.3,0.2,2.3,0c0.5-0.1,1-0.2,1.5-0.4c0.5-0.2,1.1-0.4,1.6-0.6c2.1-0.8,4-1.8,4.6-1.9
	c1.2-1.2,2.5-1.9,4.2-2.8c-0.5,0.1-1.2-0.6,0.2-1.3c0.2,1,1,0.8,1.9,0.4c0.9-0.4,2-1.1,2.9-0.9c-1.5,0,3.6-3,1.3-2.9
	c1.2-0.7,0.5,0.5,1.6,0.2c1-1.3,2.5-2.4,4-3.6c1.5-1.2,3.1-2.5,4.3-4.2c-0.2-0.2-0.9,0.1-0.6-0.9c0,0,0.6-0.2,1.2-0.4
	c0.6-0.2,1.2-0.5,1.2-0.5c0.4-0.7-0.7-1.5,0.9-2.1c-0.3,0-0.7,0.1-0.5-0.4c2.8-2.9,4.6-6.6,6.1-10.4c1.5-3.8,2.6-7.7,4.5-11.5
	C121.3,76.1,121.4,75.4,121.6,74.6z M81.5,10.8C81.5,10.8,81.5,10.8,81.5,10.8C80.6,10.2,80.9,10.5,81.5,10.8z M23.7,22.9
	c0,0.1,0,0.2,0.1,0.3C23.7,23.1,23.5,23.1,23.7,22.9z M8.3,51.9c0.1,0.4-0.1,0.8-0.5,1.2C7.8,52.8,7.9,52.3,8.3,51.9z M11.2,82.9
	c0.3,0.3,1,0.9,0.7,1.3C11,84.1,11.2,83.6,11.2,82.9z M76.2,121.3l-0.4-0.1C76.6,120.8,76.4,121,76.2,121.3z M68.6,7.7
	c-0.7-0.3-1.5-0.6-2.4-0.2c0.1,0.1,0.3,0.1,0.4,0.2C67.3,7.6,67.9,7.6,68.6,7.7z M33.4,23.1c1.6-0.6-0.1-1,1.4-1.4
	c0.2-0.5-1.3,0.3-1.1-0.2C33.1,22.4,32.5,22.5,33.4,23.1z M121.6,74.6c0.1-0.2,0.1-0.5,0.1-1.1C121.7,73.7,121.6,74.2,121.6,74.6z
	 M17.6,92.6l-0.1-0.2l-0.4,0.9L17.6,92.6z M6.2,54.7c0.1-0.1,0.2-0.1,0.2-0.2c-0.2-0.3-0.3-0.5-0.4-0.7C6,54,6.1,54.3,6.2,54.7z
	 M33.8,21.5c0.1-0.1,0.2-0.3,0.4-0.5C33.9,21.3,33.8,21.4,33.8,21.5z M72.4,14.3c0.2-0.2,1.7-0.2,0.4-0.6
	C72.6,13.9,70.6,14,72.4,14.3z M76.6,13.7l-0.3,0.9l0.8-0.2C76.7,14.2,76.7,14,76.6,13.7z M73,11.5l-1.6-0.1
	c-0.2,0.2,0.2,0.4,0.8,0.4C72.6,11.7,73.2,11.7,73,11.5z M26.4,101c-0.2-0.3-0.6-0.5-0.9-0.7C26,100.9,25.8,101.8,26.4,101z
	 M90.1,17.3c-0.2-0.1-0.7-0.3-1.1-0.4C89.5,17.1,89.9,17.3,90.1,17.3z M87.4,16.1l1.2,0.8c0-0.1,0.2-0.1,0.5-0.1
	C88.3,16.5,87.5,15.9,87.4,16.1z M50.3,11.2l0,1.5l0.4-0.1L50.3,11.2z M89.6,16.1c-0.1,0-0.3,0-0.3,0.2
	C89.3,16.2,89.4,16.2,89.6,16.1z M32.5,107.4l0.9-0.2C32.6,106.7,32.8,107.2,32.5,107.4z M32.4,107.4L32.4,107.4c0.1,0,0.1,0,0.2,0
	L32.4,107.4z M69.3,117.7c0,0,0.1,0,0.1,0C69.9,117.4,69.7,117.5,69.3,117.7z M106.4,94.5c0.1,0,0.1-0.1,0.2-0.1
	C106.5,94.3,106.4,94.4,106.4,94.5z M88,12.6C88.6,12.8,88.1,12.6,88,12.6L88,12.6z M111.4,32.8c0,0,0.2,0.3,0.4,0.6
	c0.2,0.3,0.3,0.6,0.3,0.6c0.1-0.1,0.2-0.5,0.5-0.2c0,0-0.3-0.3-0.6-0.5C111.7,33.1,111.4,32.8,111.4,32.8z M111.4,30.5l-0.2,0.8
	c0.1,0.1,0.2,0.3,0.3,0.4C111.6,31.6,111.8,31.2,111.4,30.5z M112.2,29.8l-1.5-0.6l0.6,0.3L112.2,29.8z M112.6,36.8
	c0.6,0.2,0.4-0.7,1.5,0C113.4,36.3,112.3,35.2,112.6,36.8z M110.8,32.4l0.6,0.4l-0.3-0.4L110.8,32.4z M119.8,52.6l-0.2,0.3l1,0.5
	c-0.5-1.8-1.7-3.8-1.9-5.1c-0.3,0.5-0.1,1.2,0.3,2C119.4,51,119.9,51.9,119.8,52.6z M95.3,19.2c0.2,0.1,0.5,0.3,0.7,0.5
	C96.2,19.4,95.7,19.4,95.3,19.2z M123.7,65.6c-0.2-0.9-0.8-0.4-0.7-0.4C123,65.7,123.6,65.5,123.7,65.6z M119.6,44
	c-0.1-0.2-0.2-0.4-0.3-0.8c-0.3,0.4-0.7-0.8,0.3,1C119.5,44.1,119.6,44.1,119.6,44z M122.9,66.4l-0.8-0.7c0,0.3,0.1,0.8-0.1,1
	L122.9,66.4z M118.5,40.2c-0.7-1-0.8-0.7-0.9,0.1l0.8,0.9C118.6,40.9,118.1,39.9,118.5,40.2z M88.7,13.3c-0.2-0.2-0.4-0.3-0.6-0.5
	C88.2,12.9,88.4,13,88.7,13.3z M116.4,39.7l0.4,0.5C116.9,40,116.8,39.8,116.4,39.7z M93.7,17.9c-0.2,0.6,0.6,0.8,1.4,1.2
	c0,0-0.1,0-0.1-0.1C95.6,18.4,94.6,18.1,93.7,17.9z M117.6,48.2l0,0.9l0.5,0.6C117.9,49.4,117.9,48,117.6,48.2z M118.4,43.7
	c0.1-0.1,0-0.8-0.5-1.8c0.1,0.7,0.3,1.5-0.5,0.6C117.9,43.5,118.3,43.8,118.4,43.7z M117.2,40.6c-0.3,0,0.1,0.1,0.5,0.5
	C117.7,41.2,117.5,40.9,117.2,40.6c-0.1-0.2-0.4-0.5-0.4-0.5C116.8,40.4,116.5,40.5,117.2,40.6z M113.8,34.5l-1-0.9
	C113.4,34.6,113.7,34.7,113.8,34.5z M93.4,19.1l-0.7,0.2l0.6,0.5L93.4,19.1z M120.8,56.3l0.3,0.1l-0.8-1.2L120.8,56.3z M116.2,40.8
	c0.4,0.4,0.8,0.8,0.8,0.8s-0.4-0.5-0.9-1c-0.5-0.5-1-0.9-1-0.9l0.2,0.4C115.3,40,115.7,40.4,116.2,40.8z M114.3,33.6
	c-0.2,0.1-0.3,0.7-0.4,0.9l0.7,0.6C114.4,34.6,114,33.8,114.3,33.6z M119.6,44C119.9,44.9,119.6,43.4,119.6,44L119.6,44z
	 M100.4,20.6c0,0.1,0,0.1,0,0.2l0.1-0.1L100.4,20.6z M98.4,18.2L97.6,18l0.4,0.6L98.4,18.2z M109,27c0.7,0.1,0-1.1,0.6-0.8
	c-0.7-0.6-1.5-1-2.2-1.2C108.1,25.4,108.6,26,109,27z M104.5,23.3c0.1,0.3,0.3,0.6,0.5,0.9C105,23.9,104.7,23.2,104.5,23.3z
	 M101,19.9l-1.6,0l1,0.4L101,19.9z M107.4,27.4c0.3,0.5,0.7,0.7,1,0.8c-0.3-0.3-0.7-0.6-1-1C107.3,27.3,107.2,27.3,107.4,27.4z
	 M109.3,28.9c0,0-0.1-0.1-0.1-0.1C109.3,28.9,109.3,29,109.3,28.9z M106.2,24.5c0.3,0.2,0.7,0.3,1.2,0.5
	C107,24.8,106.7,24.6,106.2,24.5z M109.2,28.5C109.3,28.6,109.3,28.6,109.2,28.5C109.3,28.4,109.3,28.4,109.2,28.5z M109.2,28.5
	c-0.3-0.2-0.6-0.2-0.8-0.3c0.3,0.2,0.6,0.4,0.8,0.6C109.2,28.7,109.2,28.6,109.2,28.5z M111.6,31.9c0,0,0-0.1-0.1-0.1
	C111.5,31.8,111.5,31.9,111.6,31.9z M107.5,26.6c-0.6-0.3-1.1-0.7-1.6-1.2c0.5,0.7,1,1.3,1.5,1.8C107.6,27.2,108.1,27.2,107.5,26.6z
	 M85.9,12.3c0.3,0.3,0.5-0.6,0.7-0.3C87.3,11.5,83.5,11.8,85.9,12.3z M9.5,94c0.3,0.3,0.5,0.4,0.6,0.3C9.8,94,9.6,93.9,9.5,94z
	 M28.8,16.2l0.6,0.4c0.5-0.4,1-0.7,1.4-0.8C29.7,15.9,28.3,15.7,28.8,16.2z M93.5,15.5c0.1-0.2-0.1-0.5,0.3-0.3l-1.3-0.5
	C93.1,15,93.3,15.3,93.5,15.5z M111.3,31.3c-0.3-0.5-0.6-0.8-0.7-0.9C110.7,30.6,110.9,30.8,111.3,31.3L111.3,31.3z M110.8,36.4
	c0-0.1,0-0.1,0.1-0.1C110.7,36.1,110.6,36.1,110.8,36.4z M111.2,35.9c0.1,0.5-0.2,0.2-0.4,0.3c0.3,0.2,1.1,0.8,0.7-0.3l-0.2-0.1
	c-0.2-0.5-0.3-1.1-0.4-1.6c0-0.3-0.1-0.5,0-0.7c-0.2,0.5-0.4,1-0.4,1.8C110.7,35.4,111,35.4,111.2,35.9z M90.4,18.3l1.1,0.8
	l-0.3-0.3L90.4,18.3z M110.9,33.5c0,0,0-0.1,0.1-0.1C111,33.4,110.9,33.4,110.9,33.5z M70.6,8.3c-0.8-0.3-1.4-0.5-2-0.6
	C69.6,8.1,70.3,8.8,70.6,8.3z M46.7,47.1c0.1,0,0,0.1,0.1,0l0.3-0.1C47.1,46.9,46.8,46.9,46.7,47.1z M46.6,45.3l-0.5,0.3l0,0.2
	L46.6,45.3z M41.3,59.7c0-0.1-0.2,0-0.2-0.1C41.3,59.6,40.3,60.2,41.3,59.7z M42.6,45.6c0.1-0.3,0.3-0.4,0.2-0.7
	C42.8,45.2,42.4,45.6,42.6,45.6z M45.7,44.4c0,0,0,0.3,0,0.3c0.1-0.1,0.1-0.1,0.2-0.1C45.8,44.5,45.8,44.2,45.7,44.4z M40,47.8
	c-0.2-0.3-0.3-0.2-0.5-0.4c0.2,0.3,0.1,0.2,0.8,0.8C40.6,48.3,39.6,47.6,40,47.8z M39.5,56.8l0.5-0.2l-0.2,0
	C39.6,56.7,39.5,56.7,39.5,56.8z M43.2,42.7c-0.1,0.2-0.1,0.4,0.1,0.4c0.1-0.1,0.2-0.2,0.3-0.4L43.2,42.7z M39.8,43.8L39.8,43.8
	l-0.4-1.5L39.8,43.8z M43.6,44.4l-0.4,0.9l0.2-0.3C43.5,44.8,43.5,44.6,43.6,44.4z M47.5,44.4c-0.4,0.4-0.2,0.4,0,0.5c0,0,0,0,0,0
	C48.1,44.5,47.8,44.4,47.5,44.4z M46.1,44.7c0,0-0.1-0.1-0.2-0.1C46,44.7,46,44.8,46.1,44.7z M45.7,45.6l0.1-0.2l-0.1-0.2L45.7,45.6
	z M47.6,45.1c0.3-0.2,0-0.1-0.1-0.1C47.6,45,47.6,45,47.6,45.1z M46.3,44.2c0.1-0.1,0.2-0.2,0.2-0.2C46.5,44,46.4,44.1,46.3,44.2z
	 M39.7,58.7L39.7,58.7l-0.8,0.3L39.7,58.7z M51.6,48.6c0.1-0.1,0.2-0.3,0.5-0.4c-0.2,0-0.5,0.2-0.8,0.3L51.6,48.6z M50,49.8L50,49.8
	l0.9,0.3L50,49.8z M51.3,48.5l-0.4-0.1C50.9,48.6,51.1,48.6,51.3,48.5z M50.9,47.9c0.1-0.1,0.4-0.2,0.5-0.4L50.9,47.9
	C50.9,47.8,50.9,47.9,50.9,47.9z M51.6,47.1l0.3,0l0.5,0L51.6,47.1z M51.4,49.7c-0.2,0.1-0.5,0.1,0.1,0.1c-0.3,0,0,0,0.2,0.1
	L51.4,49.7z M50,48.2l0.2,0.1l0-0.1L50,48.2z M49.4,48.5c-0.5,0.2-0.8,0.4-1.3,0.6c0.1,0,0.3,0,0.3,0.1c-0.2,0.1-0.3,0.1-0.5,0.1
	c0.2,0,0.5,0.1,0.7-0.2l-0.1,0C48.8,49,49.2,48.7,49.4,48.5z M49,47.8l-0.4-0.3l-0.4,0.4l0.3-0.1C48.4,48,48.8,47.8,49,47.8z
	 M50.5,49.1c-0.4-0.1-0.8-0.2-1.2,0.2C49.7,49.3,49.9,49.1,50.5,49.1z M50.7,48.4l-0.5-0.1l-0.1,0.3C50.3,48.5,50.5,48.4,50.7,48.4z
	 M51.2,49.6l0.2,0.1C51.5,49.7,51.5,49.6,51.2,49.6z M52.8,49.6c-0.2-0.2-0.5-0.1-0.8,0.1l0.4,0.2C52.6,49.8,52.6,49.5,52.8,49.6z
	 M51.6,46.5c0.4,0,0.6-0.4,0.9-0.4C52.3,46,51.9,46,51.6,46C51.8,46,51.8,46.2,51.6,46.5z M51,45.9c0.1,0,0.3,0,0.5,0
	C51.4,45.9,51.3,45.9,51,45.9z M52.3,50.5C52.3,50.5,52.3,50.5,52.3,50.5c0.1-0.1,0.1-0.1,0.1-0.2C52,50.4,52,50.2,52.3,50.5z
	 M50.9,47.9L50.9,47.9C50.8,47.9,50.8,47.9,50.9,47.9z M52.2,55l-0.5,0.1l0.2,0.1L52.2,55z M50.9,50.3c0.2,0.4,0.9,0.2,0.7-0.2
	C51.4,50.2,51.3,50.4,50.9,50.3z M50.8,54.8l0.9,0l-0.8-0.1C50.9,54.7,51,54.8,50.8,54.8z M51.9,54.6c0,0.1,0.6,0.1,0.7,0.1
	C52.4,54.5,51.7,54.6,51.9,54.6z M52.4,50.4C52.4,50.6,52.7,50.3,52.4,50.4L52.4,50.4z M50.9,47.8L50.9,47.8c0-0.1,0-0.2,0-0.2
	C50.8,47.6,50.8,47.7,50.9,47.8z M35.1,52.8c0.1,0,0.1,0,0.2,0c-0.2-0.1-0.4-0.1-0.6-0.2C34.8,52.7,34.9,52.7,35.1,52.8z M40.3,61
	L40.3,61l0.1-0.1L40.3,61z M38.4,58.2c0.2,0,0.3,0,0.3,0L38.4,58.2z M37.3,53.1c-0.1,0-0.2,0-0.4,0C37.1,53.1,37.2,53.1,37.3,53.1z
	 M44.1,59.1C44.1,59.1,44.2,59.1,44.1,59.1C44.1,59.1,44.1,59.1,44.1,59.1z M32.2,60.1c0.1,0,0.3,0,0.4,0
	C32.5,60.1,32.4,60.1,32.2,60.1z M51.1,56.1c0,0.1,0,0.1,0,0.2C51.1,56.2,51.1,56.2,51.1,56.1z M38.1,48.8c0.5,0.3,1.1,0.5,1.1,0.5
	c-0.7-0.4-0.6-0.4-0.4-0.4L37,48.2C37,48.2,37.6,48.5,38.1,48.8z M42.4,64.1C42.4,64.1,42.4,64.1,42.4,64.1
	C42.4,63.9,42.4,63.9,42.4,64.1z M40.4,60.9l0.5-0.4C40.9,60.5,40.6,60.7,40.4,60.9z M47.7,42c0-0.1,0-0.2,0-0.3
	C47.7,41.8,47.7,41.9,47.7,42z M43.2,39.2c-0.1-0.3-0.3-0.5-0.6-0.1c0,0.1,0.1,0.1,0.1,0.2C42.9,39.2,43,39.2,43.2,39.2z M43.6,39.7
	c-0.1-0.3-0.3-0.4-0.4-0.5C43.4,39.6,43.5,40.2,43.6,39.7z M47.5,41.5c0.1,0.1,0.1,0.1,0.1,0.2c0-0.1,0-0.1,0-0.1
	C47.7,41.6,47.6,41.6,47.5,41.5z M47.7,41.6C47.8,41.7,47.8,41.6,47.7,41.6L47.7,41.6z M41.3,43L41.3,43
	C41.3,43.1,41.3,43.1,41.3,43z M38.8,48.9L38.8,48.9L38.8,48.9L38.8,48.9z M40.6,45.9c0.1,0.2,0.1,0.3,0.2,0.4
	C40.7,46.2,40.7,46.1,40.6,45.9z M47.9,41.7c0,0.1,0,0.1,0.1,0.1C48,41.8,48,41.8,47.9,41.7z M50.3,51.5c-1,0.3,0.3,0.5-0.1,0.8
	l-0.2,0.1l0.8,0C50.6,52.1,50,51.7,50.3,51.5z M50.1,46.9c-0.1,0.1,0.1,0.2,0.3,0.2C50.3,47,50.3,46.9,50.1,46.9
	C50.1,46.9,50.1,46.9,50.1,46.9z M50.2,46.9c0.2-0.1,0.5-0.1,0.5-0.3c-0.3,0-0.4-0.1-0.5-0.2C50.2,46.5,50.2,46.7,50.2,46.9z
	 M50.7,47.2L50.7,47.2C50.6,47.2,50.6,47.2,50.7,47.2z M48.5,46.6c0.2,0.3,0.6,0,0.9,0c-0.3-0.4,0.4,0,0.6-0.5
	c0.1,0.1,0.2,0.1,0.3,0.2c0-0.1,0.1-0.2,0.2-0.4l0,0l0,0l0,0c-0.1,0.1-0.1,0.1-0.1,0c0,0,0,0,0,0c-0.1,0-0.2,0.1-0.2,0.1
	c0.1-0.2,0.1-0.1,0.2-0.1l0.1,0l0,0l-0.5-0.3c0,0.1,0,0.3,0.2,0.5C49.4,46.3,49.1,46.2,48.5,46.6z M49.2,51.6l-0.3,0.2l0.4,0.1
	C49.1,51.8,49.5,51.5,49.2,51.6z M50.7,53l-0.6-0.2l0.4,0.2L50.7,53z M50.8,47.1c-0.1,0-0.3,0-0.4,0c0.1,0,0.2,0.1,0.3,0.1
	C50.7,47.2,50.8,47.1,50.8,47.1z M48.6,45.2c-0.2,0.3-0.4,0.9-0.9,0.9c-0.4-0.2,0.1-0.3,0.2-0.7c-0.5,0.5-1.1,0.2-1.9,0.8l0.4,0
	c-0.1,0.1-0.4,0.1-0.5,0.3c0.5-0.3,1.1-0.3,0.6,0.2c0.5,0,2.1-1,2.9-1.7C49.3,45.2,49.1,45.3,48.6,45.2z M49.7,45.6l0.1,0.1
	c0-0.2,0.2-0.3,0.5-0.7c-0.3,0-0.5,0-0.7,0.1L49.7,45.6L49.7,45.6z M49.1,42.7l-0.4-0.2c0.1,0.1,0.1,0.3,0,0.4
	C48.8,42.8,49,42.6,49.1,42.7z M34.6,43.1c-0.6-0.2-1.4-0.4-0.9,0l0.5,0.3C34.3,43.2,34.4,43.1,34.6,43.1z M47,41.6
	c0,0.2,0.5-0.6,0.4-0.3C48,40.8,46.3,41.5,47,41.6z M30.9,51.5c0,0.5,1.2,0.7,2.4,0.8c-0.6,0.2-0.5,0.3,0.2,0.5
	c-0.4,0-0.8,0.1-0.9-0.1c-0.1,0.1-0.6,0.9,0.3,1c-0.2,0-0.1,0.2,0,0.3c-0.1,0.3-0.1,0.4-0.1,0.7l0.2-0.1c1.1,0.1,0.2,0.3,0.4,0.5
	l-0.1,0c-0.8,0.6,0.4,0.2-0.5,0.9l0.7-0.1c1.5,0-0.8,0.6-0.2,0.9l0.4-0.2c0.5,0.1-2,0.7-2.1,1c-0.1,0.1-0.2,0-0.3-0.1
	c-0.8,0.7,0.9,0,1.2,0.3c-0.5,0.1-1.3,0.1-1.3,0.4c-0.4,0.2,1.7,0.5,0.8,1c0.4-0.2,0.7-0.3,1-0.2c0.2,0.2-1.3,1.1,0,1
	c-0.1,0.1-0.2,0.1-0.3,0.1c0.4,0.1,0.7,0.5,1.3,0.5c-1.1,0.4-0.7,0.7-0.3,0.9c0.4,0.2,0.8,0.3-0.2,0.7l0.4,0.6l-0.2,0.1
	c0,0.5,0.6,0.4,1.1,0.3c-0.1,0.2-0.3,0.2-0.4,0.2c-0.1,0.7,0.1,0.9,1.3,0.8L35,64.6c0.2,0,0.1,0.3,0.2,0.8c0,0.4,0.2,0.9,0.7,0.9
	c-0.1,0.1-0.2,0.1-0.3,0.2c0.6,0,0.6,0.7,0.8,1.3c0.2,0.5,0.6,0.8,1.3-0.3c0,0,0.2-0.1,0.4-0.1c0.2-0.1,0.4-0.2,0.4-0.2
	c-0.5-0.5,0.5-1,0.5-1.5c0.2,0,0.2,1-0.1,1l0-0.1c-0.3,0.6-0.2,0.8,0,1c0.2,0.2,0.4,0.2,0.2,0.7c0.3,0.1,0.6,0.3,0.9,0.4
	c0.3,0.1,0.6,0.3,1,0.4l0.5,0.2c0.2,0,0.3,0.1,0.5,0.1c0.2,0,0.4,0,0.5,0.1c0.2,0,0.3,0,0.5-0.1l-0.3-1l0.4,0c0.2,0.2,0.3,0.8,0,0.8
	c0.1,0.3,0.3,0.1,0.3-0.1c0.1-0.3,0.1-0.6,0-0.7c0.7,0.2,0.1,1.3,0.2,1.2l0.2-0.2L44,69.2c0.1-0.5,0-0.9,0.4-1
	c0.3,0.1,0.3,0.6,0.4,0.5c0,0.1,0.1,0.1,0.2,0l0.6-0.2c0,0-0.1-0.2-0.3-0.3c-0.1-0.2-0.3-0.3-0.3-0.3c0.1-0.5,0.5-0.2-0.2-1
	c0.5,0.6,1,0.4,1.3,0.1c0.4-0.4,0.7-0.8,0.9-0.7c-0.2-0.7,0-1,0.3-1.2c-0.2,0-0.9-0.6-0.7-0.8c1.5,1.3,1,0,2.3,0.5
	c-0.9-0.3,0.3-1.1-1-1.3c0.3-0.2,0.7,0.3,1.2,0.4c-0.2-0.5,0.1-0.7,0.4-1c0.3-0.3,0.7-0.5,0.7-1c-0.2-0.1-0.6-0.1-1-0.4
	c0,0,0.3,0,0.7,0c0.3,0,0.7,0,0.7,0c-0.1-0.2-1.4-0.6-0.4-0.6c-0.2,0-0.5-0.1-0.6-0.2c0.8-0.5,0.7-1.3,0.7-2.1
	c0-0.8,0.1-1.4,1.3-2.1c-0.5,0.2-0.5,0-0.6-0.1c-0.1,0.1-0.6,0-1-0.1c0,0,0.3-0.1,0.5-0.3c0.2-0.1,0.5-0.3,0.5-0.3
	c-1-0.1,0-0.7-1-0.7l0.2,0.2c-1.1-0.3-2.4,0.3-3.8,0.2c0.6,0.1,0.2,0.3-0.2,0.4c-0.4,0.2-0.7,0.3,0.1,0.6c-0.3,0.1-0.4-0.1-0.8-0.1
	c0.6,0.1,0.7,0.3,0.4,0.5l-0.1,0c0.1,0.6-0.5,0.8-1.1,1.3l0.7,0.1c-0.1,0.1-0.3,0.1-0.5,0.1c1,0.4,0.1-0.4,1.2,0
	c-1.4-0.1-0.2,1-1.8,0.7c-0.1,0.2,0.8,0.2,0.7,0.4l-0.4-0.1l0.5,0.2c-0.1,0.1-0.7,0-1-0.1c0.1,0-0.1-0.1-0.1-0.2
	c-0.5,0,0,0.5-0.2,0.5l0.3-0.1c0.2,0.7-0.5,1,0,1.8l0.3,0.1c0.4,0.6-0.4,0.1-0.4,0.5l-0.1-0.1c0.2,0.2,0.3,0.4,0.2,0.5
	c-0.2-0.3-0.7-0.4-0.9-0.7c0.3,0.7,0.3,0.4,1,1.5l-0.4-0.4c0.3,0.4,0.4,0.6,0.4,0.9c-0.2-0.5-0.6-0.6-0.9-1.2
	c-0.5-0.4-0.3-0.1-0.3,0.2c0.1,0.3,0.1,0.5-0.4-0.3c0.6,1.5,0.7,0.6,0.8,0.9c0.3,0.4,0.5,1.1,0.3,1.1c-0.1,0.1-1.1-1.7-1.2-1.6
	c0,0,0-0.1,0-0.1c-0.2-0.4,0,0.6-0.3,0c0.2,1-0.1,0,0.1,1.3c0,0,0-0.1,0.1-0.2c0-0.1,0.1-0.2,0.1-0.2c0,0.4,0.1,1.9-0.3,1.3
	c0-0.3,0-0.6,0-0.8c-0.1-0.4-0.1,0.3-0.2-0.1c-0.2-1.3,0.3-0.4,0.1-1.4c-0.2-0.5,0,1-0.2-0.4c0.1,0.9,0.1,0.8,0,0.8
	c-0.1-0.1-0.1-0.2-0.2,0.5l-0.1-0.8c0,0.1,0,0.5-0.1,0.5c0,0,0-0.3,0-0.5c0-0.3,0-0.5,0-0.5c-0.1,0.9-0.2-0.7-0.2-0.3
	c0.2,0,0,1,0.1,1.5c-0.4,1-0.1-2-0.3-1.7c0-0.1,0,0.5,0,0.8c0-0.2,0-0.5,0-0.9c-0.2,0.1-0.1,0.8-0.3,1.2c0.1-0.9-0.2,0.3-0.4,0.6
	l0.2-0.8c-0.1-0.6-0.6,1.5-0.6,0.8c0,0,0.1-0.2,0.2-0.5c0.1-0.2,0.2-0.5,0.2-0.5l-0.2,0.2l0.3-0.8c-0.3,0.5-0.3,0.4-0.3,0.1
	c-0.2,0.5-0.6,1.2-0.8,1.1c0.2-0.4,0.4-0.6,0.2-0.6c0.3-0.4,0.6-0.9,0.3-0.2c0.1-0.2,0.2-0.4,0.4-0.6c0.2-0.5,0-0.2-0.1-0.2
	c0,0,0,0.1-0.1,0.2c0,0-0.7,0.7-0.7,0.7c0.1-0.2,0.3-0.4,0.4-0.6c-0.1,0-0.3,0.3-0.4,0.3c0.4-0.4,0.8-0.9,1-1.1c0,0-0.5,0.4-0.5,0.4
	c0.2-0.2,0.4-0.6,0.6-0.7c0.1-0.1-0.1,0-0.3,0.2c-0.2,0.1-0.5,0.2-0.3,0.1c-0.1,0.1-0.2,0.1-0.3,0.1c0-0.1,0.2-0.2,0.2-0.3
	c0.1-0.1,0-0.1-0.4-0.1l0.8-0.6c-0.3-0.1-1.1,0.7-1.6,0.6c-0.4-0.1,0.8-0.5,1-0.6c-0.5,0.1-1.6,0.3-0.9-0.3c0.2,0,0.1,0.1,0.2,0.2
	l0.5-0.4c0.9-0.1,0.7,0.1,1.4-0.3c-1.9,0.7-0.4-0.5-2.3,0.1l0.4-0.2c0,0,0.1,0,0.1,0c0.8-0.5-1.4,0.3-1.2-0.2
	c0.1-0.2,0.4-0.3,0.6-0.3l-0.5-0.1c0-0.1,0.4-0.1,0.3-0.1c0,0-0.2-0.3-0.2-0.3l0.1,0c-0.3,0-0.8,0-1,0c0.3-0.2,0.2,0,0.5-0.1
	l-0.5-0.1c0.5-0.2,1-0.1,1,0.1c1.9-0.6-0.5-0.1,0.5-0.7l0.3,0.2c1.1-0.3,0.7-0.4,1.3-0.7c-0.4,0.1-1.7,0.7-2.2,0.6
	c0.1-0.1,0.2-0.2-0.2-0.3c0.7-0.1,0.5-0.2,0.4-0.3l0.9-0.1c-0.3-0.1-0.8-0.1-1.2-0.1c0.1-0.2,0.8-0.3,1.4-0.4c0.1-0.3-1.1,0.3-1.3,0
	c0.3-0.3-0.1-0.4-0.6-0.7c0.3-0.2,0.6,0,0.8-0.1l-0.7-0.1c0,0,0.2,0,0.4,0c-0.3-0.1-0.9,0-1.2-0.2c-1-0.1,1.5-0.5,0.3-0.7
	c0.3-0.1,0.6,0,0.9,0c-0.8-0.4-0.5-0.3-1.6-0.7l0.6-0.2c-0.7,0.1-1.5-0.2-2.2-0.5c-0.3,0-0.6,0.1-0.8,0.1l-0.5-0.5
	c0.2,0,0.5,0,0.8,0.1c-0.1,0-0.1-0.1-0.2-0.1c0.4-0.1,0.9,0,1.4,0.2c-0.2,0-0.4,0.1-0.6,0.1c0.6,0.1,1.2,0.3,1.7,0.3
	c-0.1,0-0.2-0.1-0.2-0.1c0.1,0,0.3,0.1,0.4,0.1c0.1,0-0.1-0.1-0.3-0.1l1,0l-0.4-0.1c0,0,0.2-0.1,0.3-0.2c0.2-0.1,0.3-0.2,0.3-0.2
	c-1-0.4-2.5-1-2.8-1.6c0.7,0.3,1.2,0.3,2.1,0.4c-1,0,0.3,0.5,0.1,0.7c0.1-0.1,0.5,0,0.7,0c0,0-0.2-0.1-0.4-0.3
	c-0.2-0.2-0.4-0.3-0.4-0.3c0.7,0.1,0.6,0,0.9,0c-1.4-0.2-0.9-0.5-1.3-0.8c0.5,0.1,1,0.3,0.8,0.5c1.1,0-1.6-0.7-0.6-0.8
	c0,0.1-0.1,0.1,0.1,0.2c-0.4-0.2,0-0.5,0.4-0.3l0,0.1c0.2-0.3,0.3-1-0.8-1.5c0.1,0.1,1.4,0.6,1.6,0.7c0,0-0.9-0.5-1.8-1.1
	c-0.9-0.5-1.8-1.2-1.8-1.2c1,0.5,3.4,1.3,3.8,1.8c0.2,0,0.4,0,0.1-0.3c-0.2,0-1.5-0.5-1.5-0.6c1.2,0.3,0.6,0.1,1.7,0.3
	c-0.2,0-1.7-0.8-1.6-1c0.2,0.1,1.5,0.7,1.6,0.9c0,0-0.3-0.3-0.7-0.5c-0.3-0.3-0.6-0.5-0.6-0.5c0.2,0.2,1.2,0.7,1.6,0.9
	c-0.3-0.2,0.1-0.1,0-0.3L39,47.5c0.3,0-1.7-1.6-1.4-2c0.2,0.3,1.5,1.5,1.7,1.5c-0.3-0.3-1-1.1-1.6-2c-0.6-0.9-1-1.8-1-2.2l0.4,0.3
	c0,0,0-0.2,0-0.4c0-0.2,0-0.4,0-0.4c0.3,0.6,0.6,1.6,1.1,2.5c0.5,0.9,1,1.7,1.3,2.2c0.3,0.2,0.4,0.4,0.4,0.3
	c0.3,0.3,0.4,0.6,0.4,0.6c0,0,0.3,0.1,0.3,0.1c-0.6-0.8-0.5-1-0.9-1.7c0,0,0.4,1.1,0.4,1.1c-0.3-0.4-0.7-1-1-1.5
	C39,45.5,38.8,45,39,45c0.3,0.3,0.9,1.6,1.1,1.9c-0.2-0.3-0.2-0.7,0-0.5l0.2,0.5c0.2,0.3-0.5-1.4,0.1-0.5c0.1,0,0.6,1.2,0.4,0.6
	c-0.2-0.6-0.7-1.7-1.2-2.8c-0.2-0.6-0.4-1.1-0.6-1.5c-0.2-0.4-0.3-0.8-0.3-1c0.1,0,0.9,0.7,1.2,1.2c0.2,0.4,0.3,1,0.4,1.6
	c0.1,0.6,0.2,1.1,0.4,1.5c-0.1-0.3-0.1-0.7-0.1-0.8c0.1,0.2,0.2,0.9,0.3,0.7c-0.2-1.1,0.3,0-0.1-0.9c0.1-0.4,0.2,0.2,0.4,0.1
	c-0.1-0.4-0.1-1-0.1-1.6c0-0.6,0.1-1,0.2-1.2c0,0.3,0.1,0.6,0.1,0.7c0.2,0,0.4,0.2,0.6,0.3c0.2,0.2,0.3,0.3,0.5,0.3
	c0,0.3,0.1,0.6,0,1.1c0.1-0.2,0.2-0.5,0.3-0.5c0,1-0.2,0.1-0.3,1.3c0.1-0.6,0.4-0.8,0.6-1.1c0.2-1-0.3-0.3-0.5,0.1
	c0.2-1.4,0.7-2.6,1.5-2.9c0.5-0.1-0.1,0.8,0.1,0.7c0.3,0.3,0.6-0.1,1-0.5c0.3-0.3,0.7-0.6,0.8,0c-0.1,0.9-0.7,1.4-1,1.9
	c-0.4,0.1-0.1-0.7-0.4-0.8l0.1,0.5c-0.2,0.2-0.4,0.3-0.4,0c-0.1,0.4,0.2,0.6,0.4,0.8c0.2,0.2,0.5,0.5,0.4,0.9
	c0.2-0.2,0.5-0.3,0.7-0.6l-0.2,0c0.3-0.6,0.8-0.4,0.8-0.8c0.5-0.2,1.2-0.4,1.2,0.2l-0.6,0.7c0.2-0.2,0.2-0.6,0-0.5
	c0.4-0.1-0.5,1.3,0.4,0.6c0,0,0.1-0.2,0.1-0.3c0.1-0.2,0.1-0.3,0.1-0.3c0.5-0.1,1.5-0.3,1.5,0.2c0.6-0.7-0.1,0,0.5-0.9
	c-0.4,0.5-0.6,0.3-0.7,0c-0.2-0.2-0.3-0.4-0.7,0.2c0.7-1,0-0.7,0.5-1.8c-0.2,0.2-0.3,0.5-0.4,0.1c-0.1,0.1-0.2,0.1-0.2,0.1
	c0,0,0,0,0,0l0,0c0,0,0,0,0,0c0,0.2-0.1,0.3-0.2,0.5c-0.6,0.4-0.9,0-1.2,0.2c-0.1-0.2,0.3-0.2,0.4-0.5l-0.5,0.2
	c0.4-0.6,0.2-1.3,0.8-1.3c0,0-0.4-0.3-0.4-0.3c0-0.5-0.3-0.8-0.6-0.7c-0.1-0.2-0.8,0.4-0.4,0l-0.8,0l0-0.2c-0.3-0.2-0.7,0-1.1,0
	c-0.4,0-0.7,0-1-0.7c-0.3,0.1-0.5,0.3-0.9,0.1l-0.1-0.6c-0.3,0.2-1-0.5-1.1,0.1c-0.2-0.8-0.7-0.7-1.1-0.6c-0.4,0.1-0.8,0.5-1.1,0.5
	l0.2,0.7c-0.4,0.1-0.6,0.5-0.9,0.9l0.3,0.6c-0.1,0.6-1,0.1-1.4,0.5c-0.1-0.2,0.1-0.3,0.2-0.2c-0.7-0.4-0.8,0.1-0.9,0.6
	c-0.1,0.5-0.1,1-0.6,0.9c0.1,0.3-0.1,0.3-0.3,0.3c0,0,0,0,0-0.1c0,0,0,0-0.1,0c-0.1,0-0.3,0-0.4-0.1c0.2,0,0.3,0.1,0.4,0.1
	c-0.1,0.1-0.1,0.3-0.1,0.6l-0.6-0.4c0,0,0,0,0,0c-0.3,0,0.2,0.3,0.6,0.6c0,0.1,0.1,0.3,0.2,0.5c-1-0.5,0.1,0.6-1,0.1
	c0.2,0.2,0.2,0.5,0.3,0.7c0.1,0.3,0.2,0.5,0.8,0.9c-0.1-0.1-0.2-0.1-0.2-0.1c-0.2,0.1-0.4,0.2-0.1,0.4l-0.8-0.3c0,0,0.2,0.2,0.5,0.4
	c0.2,0.2,0.5,0.4,0.5,0.4c-0.6,0-0.9-0.1-1.5-0.5c0.8,0.9,0.2,0.5,1,1.3l-0.5-0.2c0,0.2,0.6,0.6,0.1,0.6c-1.2,0-0.6,1.5-1.8,2.1
	c1.7,0.2-0.8,0.3,0.5,0.5c-0.4,0-0.6,0.1-1-0.1c0.3,0.5-0.7,0.6,0.3,1c-0.4,0-0.6-0.2-0.8-0.2c0.1,0,0.3,0.2,0.1,0.2
	C31.1,51.7,31,51.6,30.9,51.5z M44.7,68.4l-0.1-0.1C44.7,68,44.7,68.2,44.7,68.4z M38.2,57.3c0.2,0,0.6,0.1,0.2,0.2
	C37.6,57.6,38,57.4,38.2,57.3z M36.4,52.4c0.2,0.1,0.1,0.1-0.2,0.2C36.2,52.5,36.2,52.5,36.4,52.4z M46.1,41
	C46.1,41,46.1,41,46.1,41C46,40.6,46,40.8,46.1,41z M47.9,49.4c0,0,0.1,0,0.1-0.1C47.9,49.4,47.9,49.4,47.9,49.4z M49.4,44.2
	l0.5-0.3l-0.4,0L49.4,44.2z M50.6,45.6c-0.1,0.1-0.2,0.2-0.2,0.3C50.5,45.8,50.7,45.6,50.6,45.6z M49.5,44.7l0.4,0.1l0.6-0.2
	c0,0-0.2,0-0.5,0.1C49.7,44.7,49.5,44.7,49.5,44.7z M49.6,45C49.6,45,49.5,45.1,49.6,45L49.6,45L49.6,45z M50.8,47.1
	C50.8,47.1,50.8,47.1,50.8,47.1C51,47,50.9,47,50.8,47.1z M77.3,60.9l0.5-0.4C77.8,60.5,77.6,60.7,77.3,60.9z M88,45.9
	c0.1,0,0.3,0,0.5,0C88.4,45.9,88.2,45.9,88,45.9z M88.5,47.1l0.3,0l0.5,0L88.5,47.1z M88.3,48.5l-0.4-0.1
	C87.9,48.6,88.1,48.6,88.3,48.5z M88.5,46c0.2,0.1,0.3,0.3,0,0.6c0.4,0,0.6-0.4,0.9-0.4C89.3,46,88.9,46,88.5,46z M89.1,48.1
	c-0.2,0-0.5,0.2-0.8,0.3l0.3,0.1C88.7,48.4,88.8,48.2,89.1,48.1z M88.8,54.6c0,0.1,0.6,0.1,0.7,0.1C89.4,54.5,88.7,54.6,88.8,54.6z
	 M87.8,47.8L87.8,47.8c0-0.1,0-0.2,0-0.2C87.8,47.6,87.8,47.7,87.8,47.8z M87.9,50.3c0.2,0.4,0.9,0.2,0.7-0.2
	C88.4,50.2,88.3,50.4,87.9,50.3z M87.7,54.8l0.9,0l-0.8-0.1C87.9,54.7,88,54.8,87.7,54.8z M87.8,47.9c0.1-0.1,0.4-0.2,0.5-0.4
	L87.8,47.9C87.8,47.8,87.8,47.9,87.8,47.9z M87.8,47.9L87.8,47.9C87.8,47.9,87.8,47.9,87.8,47.9z M86,47.8l-0.4-0.3l-0.4,0.4
	l0.3-0.1C85.3,48,85.7,47.8,86,47.8z M86.2,51.6l-0.3,0.2l0.4,0.1C86.1,51.8,86.5,51.5,86.2,51.6z M84.8,49.4c0,0,0.1,0,0.1-0.1
	C84.9,49.4,84.8,49.4,84.8,49.4z M87.4,49.1c-0.4-0.1-0.8-0.2-1.2,0.2C86.6,49.3,86.9,49.1,87.4,49.1z M88.1,49.6l0.2,0.1
	C88.4,49.7,88.4,49.6,88.1,49.6z M88.3,49.7c-0.2,0.1-0.5,0.1,0.1,0.1c-0.3,0,0,0,0.2,0.1L88.3,49.7z M87,49.8L87,49.8l0.9,0.3
	L87,49.8z M86.9,48.2l0.2,0.1l0-0.1L86.9,48.2z M87.6,48.4l-0.5-0.1l-0.1,0.3C87.2,48.5,87.4,48.4,87.6,48.4z M86.4,48.5
	c-0.5,0.2-0.8,0.4-1.3,0.6c0.1,0,0.3,0,0.3,0.1c-0.2,0.1-0.3,0.1-0.5,0.1c0.2,0,0.5,0.1,0.7-0.2l-0.1,0C85.7,49,86.2,48.7,86.4,48.5
	z M80.2,42.7c-0.1,0.2-0.1,0.4,0.1,0.4c0.1-0.1,0.2-0.2,0.3-0.4L80.2,42.7z M79.6,45.6c0.1-0.3,0.3-0.4,0.2-0.7
	C79.7,45.2,79.4,45.6,79.6,45.6z M78.2,59.7c0-0.1-0.2,0-0.2-0.1C78.2,59.6,77.2,60.2,78.2,59.7z M80.6,44.4l-0.4,0.9l0.2-0.3
	C80.4,44.8,80.5,44.6,80.6,44.4z M76.7,58.7L76.7,58.7l-0.8,0.3L76.7,58.7z M89.3,50.4C89.4,50.6,89.6,50.3,89.3,50.4L89.3,50.4z
	 M76.7,43.8L76.7,43.8l-0.4-1.5L76.7,43.8z M76.5,56.8l0.5-0.2l-0.2,0C76.5,56.7,76.5,56.7,76.5,56.8z M76.9,47.8
	c-0.2-0.3-0.3-0.2-0.5-0.4c0.2,0.3,0.1,0.2,0.8,0.8C77.5,48.3,76.5,47.6,76.9,47.8z M83.2,44.2c0.1-0.1,0.2-0.2,0.2-0.2
	C83.4,44,83.3,44.1,83.2,44.2z M82.6,44.4c0,0,0,0.3,0,0.3c0.1-0.1,0.2-0.1,0.2-0.1C82.8,44.5,82.8,44.2,82.6,44.4z M89.8,49.6
	c-0.2-0.2-0.5-0.1-0.8,0.1l0.4,0.2C89.6,49.8,89.6,49.5,89.8,49.6z M84.6,45.1c0.3-0.2,0-0.1-0.1-0.1C84.5,45,84.5,45,84.6,45.1z
	 M89.2,50.5C89.3,50.5,89.3,50.5,89.2,50.5c0.1-0.1,0.1-0.1,0.1-0.2C88.9,50.4,88.9,50.2,89.2,50.5z M83.7,47.1c0.1,0,0,0.1,0.1,0
	l0.3-0.1C84,46.9,83.7,46.9,83.7,47.1z M83.5,45.3L83,45.6l0,0.2L83.5,45.3z M84.4,44.4c-0.4,0.4-0.2,0.4,0,0.5c0,0,0,0,0,0
	C85.1,44.5,84.7,44.4,84.4,44.4z M82.6,45.6l0.1-0.2l-0.1-0.2L82.6,45.6z M83.1,44.7c0,0-0.1-0.1-0.2-0.1
	C82.9,44.7,83,44.8,83.1,44.7z M87.8,47.1C87.8,47.1,87.8,47.1,87.8,47.1C87.9,47,87.9,47,87.8,47.1z M79.3,64.1
	C79.3,64.1,79.4,64.1,79.3,64.1C79.4,63.9,79.3,63.9,79.3,64.1z M81.1,59.1C81.1,59.1,81.1,59.1,81.1,59.1
	C81.1,59.1,81.1,59.1,81.1,59.1z M74.3,53.1c-0.1,0-0.2,0-0.4,0C74,53.1,74.2,53.1,74.3,53.1z M86,42.7l-0.4-0.2
	c0.1,0.1,0.1,0.3,0,0.4C85.8,42.8,85.9,42.6,86,42.7z M77.2,61L77.2,61l0.1-0.1L77.2,61z M75.4,58.2c0.2,0,0.3,0,0.3,0L75.4,58.2z
	 M84.5,41.5c0.1,0.1,0.1,0.1,0.1,0.2c0-0.1,0-0.1,0-0.1C84.6,41.6,84.6,41.6,84.5,41.5z M87.5,45.6c-0.1,0.1-0.2,0.2-0.2,0.3
	C87.5,45.8,87.7,45.6,87.5,45.6z M86.5,45C86.5,45,86.5,45.1,86.5,45L86.5,45L86.5,45z M87.4,44.6c0,0-0.2,0-0.5,0.1
	c-0.2,0-0.5,0.1-0.5,0.1l0.4,0.1L87.4,44.6z M80.1,39.2c-0.1-0.3-0.3-0.5-0.6-0.1c0,0.1,0.1,0.1,0.1,0.2
	C79.8,39.2,80,39.2,80.1,39.2z M80.6,39.7c-0.1-0.3-0.3-0.4-0.4-0.5C80.3,39.6,80.4,40.2,80.6,39.7z M88,56.1c0,0.1,0,0.1,0,0.2
	C88.1,56.2,88.1,56.2,88,56.1z M84.6,42c0-0.1,0-0.2,0-0.3C84.6,41.8,84.6,41.9,84.6,42z M84.7,41.6C84.8,41.7,84.7,41.6,84.7,41.6
	L84.7,41.6z M77.6,45.9c0.1,0.2,0.1,0.3,0.2,0.4C77.7,46.2,77.6,46.1,77.6,45.9z M84.8,41.7c0,0.1,0,0.1,0.1,0.1
	C85,41.8,85,41.8,84.8,41.7z M75.8,48.9L75.8,48.9L75.8,48.9L75.8,48.9z M75,48.8c0.5,0.3,1.1,0.5,1.1,0.5c-0.7-0.4-0.6-0.4-0.4-0.4
	L74,48.2C74,48.2,74.5,48.5,75,48.8z M78.2,43L78.2,43C78.2,43.1,78.2,43.1,78.2,43z M86.3,44.2l0.5-0.3l-0.4,0L86.3,44.2z
	 M86.6,45.6l0.1,0.1c0-0.2,0.2-0.3,0.5-0.7c-0.3,0-0.5,0-0.7,0.1L86.6,45.6L86.6,45.6z M85.6,45.2c-0.2,0.3-0.4,0.9-0.9,0.9
	c-0.4-0.2,0.1-0.3,0.2-0.7c-0.5,0.5-1.1,0.2-2,0.8l0.4,0c-0.1,0.1-0.4,0.1-0.5,0.3c0.5-0.3,1.1-0.3,0.6,0.2c0.5,0,2.1-1,2.9-1.7
	C86.2,45.2,86,45.3,85.6,45.2z M87.6,53L87,52.8l0.4,0.2L87.6,53z M87.7,47.2L87.7,47.2C87.6,47.2,87.6,47.2,87.7,47.2z M87.2,46.9
	c0.2-0.1,0.5-0.1,0.5-0.3c-0.3,0-0.4-0.1-0.5-0.2C87.1,46.5,87.1,46.7,87.2,46.9z M87.1,46.9c-0.1,0.1,0.1,0.2,0.3,0.2
	C87.3,47,87.2,46.9,87.1,46.9C87.1,46.9,87,46.9,87.1,46.9z M85.5,46.6c0.2,0.3,0.6,0,0.9,0c-0.3-0.4,0.4,0,0.6-0.5
	c0.1,0.1,0.2,0.1,0.3,0.2c0-0.1,0.1-0.2,0.2-0.4l0,0l0,0l0,0c-0.1,0.1-0.1,0.1-0.1,0c0,0,0,0,0,0c-0.1,0-0.2,0.1-0.2,0.1
	c0.1-0.2,0.1-0.1,0.2-0.1l0.1,0l0,0l-0.5-0.3c0,0.1,0,0.3,0.2,0.5C86.3,46.3,86,46.2,85.5,46.6z M87.8,47.1c-0.1,0-0.3,0-0.4,0
	c0.1,0,0.2,0.1,0.3,0.1C87.7,47.2,87.7,47.1,87.8,47.1z M71.5,43.1c-0.6-0.2-1.4-0.4-0.9,0l0.5,0.3C71.2,43.2,71.3,43.1,71.5,43.1z
	 M89.1,55l-0.5,0.1l0.2,0.1L89.1,55z M84,41.6c0,0.2,0.5-0.6,0.4-0.3C84.9,40.8,83.3,41.5,84,41.6z M67.8,51.5
	c0,0.5,1.2,0.7,2.4,0.8c-0.6,0.2-0.5,0.3,0.2,0.5c-0.4,0-0.8,0.1-0.9-0.1c-0.1,0.1-0.6,0.9,0.3,1c-0.2,0-0.1,0.2,0,0.3
	c-0.1,0.3-0.1,0.4-0.1,0.7l0.2-0.1c1.1,0.1,0.2,0.3,0.4,0.5l-0.1,0c-0.8,0.6,0.4,0.2-0.5,0.9l0.7-0.1c1.5,0-0.8,0.6-0.2,0.9l0.4-0.2
	c0.5,0.1-2,0.7-2.1,1c-0.1,0.1-0.2,0-0.3-0.1c-0.8,0.7,0.9,0,1.2,0.3c-0.5,0.1-1.3,0.1-1.3,0.4c-0.4,0.2,1.7,0.5,0.8,1
	c0.4-0.2,0.7-0.3,1-0.2c0.2,0.2-1.3,1.1,0,1c-0.1,0.1-0.2,0.1-0.3,0.1c0.4,0.1,0.7,0.5,1.3,0.5c-1.1,0.4-0.7,0.7-0.3,0.9
	c0.4,0.2,0.8,0.3-0.2,0.7l0.4,0.6l-0.2,0.1c0,0.5,0.6,0.4,1.1,0.3c-0.1,0.2-0.3,0.2-0.4,0.2c-0.1,0.7,0.1,0.9,1.3,0.8L72,64.6
	c0.2,0,0.1,0.3,0.2,0.8c0,0.4,0.2,0.9,0.7,0.9c-0.1,0.1-0.2,0.1-0.3,0.2c0.6,0,0.6,0.7,0.8,1.3c0.2,0.5,0.6,0.8,1.3-0.3
	c0,0,0.2-0.1,0.4-0.1c0.2-0.1,0.4-0.2,0.4-0.2c-0.5-0.5,0.5-1,0.5-1.5c0.2,0,0.2,1-0.1,1l0-0.1c-0.3,0.6-0.2,0.8,0,1
	c0.2,0.2,0.4,0.2,0.2,0.7c0.3,0.1,0.6,0.3,0.9,0.4c0.3,0.1,0.6,0.3,1,0.4l0.5,0.2c0.2,0,0.3,0.1,0.5,0.1c0.2,0,0.4,0,0.5,0.1
	c0.2,0,0.3,0,0.5-0.1l-0.3-1l0.4,0c0.2,0.2,0.3,0.8,0,0.8c0.1,0.3,0.3,0.1,0.3-0.1c0.1-0.3,0.1-0.6,0-0.7c0.7,0.2,0.1,1.3,0.2,1.2
	l0.2-0.2l-0.1-0.1c0.1-0.5,0-0.9,0.4-1c0.3,0.1,0.3,0.6,0.4,0.5c0,0.1,0.1,0.1,0.2,0l0.6-0.2c0,0-0.1-0.2-0.3-0.3
	c-0.1-0.2-0.3-0.3-0.3-0.3c0.1-0.5,0.5-0.2-0.2-1c0.5,0.6,1,0.4,1.3,0.1c0.4-0.4,0.7-0.8,0.9-0.7c-0.2-0.7,0-1,0.3-1.2
	c-0.2,0-0.9-0.6-0.7-0.8c1.5,1.3,1,0,2.3,0.5c-0.9-0.3,0.3-1.1-1-1.3c0.3-0.2,0.7,0.3,1.2,0.4c-0.2-0.5,0.1-0.7,0.4-1
	c0.3-0.3,0.7-0.5,0.7-1c-0.2-0.1-0.6-0.1-1-0.4c0,0,0.3,0,0.7,0c0.3,0,0.7,0,0.7,0c-0.1-0.2-1.4-0.6-0.4-0.6c-0.2,0-0.5-0.1-0.6-0.2
	c0.8-0.5,0.7-1.3,0.8-2.1c0-0.8,0.1-1.4,1.3-2.1c-0.5,0.2-0.5,0-0.6-0.1c-0.1,0.1-0.6,0-1-0.1c0,0,0.3-0.1,0.5-0.3
	c0.2-0.1,0.5-0.3,0.5-0.3c-1-0.1,0-0.7-1-0.7l0.2,0.2c-1.1-0.3-2.4,0.3-3.8,0.2c0.6,0.1,0.2,0.3-0.2,0.4c-0.4,0.2-0.7,0.3,0.1,0.6
	c-0.3,0.1-0.4-0.1-0.8-0.1c0.6,0.1,0.7,0.3,0.4,0.5l-0.1,0c0.1,0.6-0.5,0.8-1.1,1.3l0.7,0.1c-0.1,0.1-0.3,0.1-0.5,0.1
	c1,0.4,0.1-0.4,1.2,0c-1.4-0.1-0.2,1-1.8,0.7c-0.1,0.2,0.8,0.2,0.7,0.4l-0.4-0.1l0.5,0.2c-0.1,0.1-0.7,0-1-0.1
	c0.1,0-0.1-0.1-0.1-0.2c-0.5,0,0,0.5-0.2,0.5l0.3-0.1c0.2,0.7-0.5,1,0,1.8l0.3,0.1c0.4,0.6-0.4,0.1-0.4,0.5l-0.1-0.1
	c0.2,0.2,0.3,0.4,0.2,0.5c-0.2-0.3-0.7-0.4-0.9-0.7c0.3,0.7,0.3,0.4,1,1.5L81,62.8c0.3,0.4,0.4,0.6,0.4,0.9
	c-0.2-0.5-0.6-0.6-0.9-1.2c-0.5-0.4-0.3-0.1-0.3,0.2c0.1,0.3,0.1,0.5-0.4-0.3c0.6,1.5,0.7,0.6,0.8,0.9c0.3,0.4,0.5,1.1,0.3,1.1
	c-0.1,0.1-1.1-1.7-1.2-1.6c0,0,0-0.1,0-0.1c-0.2-0.4,0,0.6-0.3,0c0.2,1-0.1,0,0.1,1.3c0,0,0-0.1,0.1-0.2c0-0.1,0.1-0.2,0.1-0.2
	c0,0.4,0.1,1.9-0.3,1.3c0-0.3,0-0.6,0-0.8c-0.1-0.4-0.1,0.3-0.2-0.1c-0.2-1.3,0.3-0.4,0.1-1.4c-0.2-0.5,0,1-0.2-0.4
	c0.1,0.9,0.1,0.8,0,0.8c-0.1-0.1-0.1-0.2-0.2,0.5l-0.1-0.8c0,0.1,0,0.5-0.1,0.5c0,0,0-0.3,0-0.5c0-0.3,0-0.5,0-0.5
	c-0.1,0.9-0.2-0.7-0.2-0.3c0.2,0,0,1,0.1,1.5c-0.4,1-0.1-2-0.3-1.7c0-0.1,0,0.5,0,0.8c0-0.2,0-0.5,0-0.9c-0.2,0.1-0.1,0.8-0.3,1.2
	c0.1-0.9-0.2,0.3-0.4,0.6l0.2-0.8c-0.1-0.6-0.6,1.5-0.6,0.8c0,0,0.1-0.2,0.2-0.5c0.1-0.2,0.2-0.5,0.2-0.5l-0.2,0.2l0.3-0.8
	c-0.3,0.5-0.3,0.4-0.3,0.1c-0.2,0.5-0.6,1.2-0.8,1.1c0.2-0.4,0.4-0.6,0.2-0.6c0.3-0.4,0.6-0.9,0.3-0.2c0.1-0.2,0.2-0.4,0.4-0.6
	c0.2-0.5,0-0.2-0.1-0.2c0,0,0,0.1-0.1,0.2c0,0-0.7,0.7-0.7,0.7c0.1-0.2,0.3-0.4,0.4-0.6c-0.1,0-0.3,0.3-0.4,0.3
	c0.4-0.4,0.8-0.9,1-1.1c0,0-0.5,0.4-0.5,0.4c0.2-0.2,0.4-0.6,0.6-0.7c0.1-0.1-0.1,0-0.3,0.2c-0.2,0.1-0.5,0.2-0.3,0.1
	c-0.1,0.1-0.2,0.1-0.3,0.1c0-0.1,0.2-0.2,0.2-0.3c0.1-0.1,0-0.1-0.4-0.1l0.8-0.6c-0.3-0.1-1.1,0.7-1.6,0.6c-0.4-0.1,0.8-0.5,1-0.6
	c-0.5,0.1-1.6,0.3-0.9-0.3c0.2,0,0.1,0.1,0.2,0.2l0.5-0.4c0.9-0.1,0.7,0.1,1.4-0.3c-1.9,0.7-0.4-0.5-2.3,0.1l0.4-0.2
	c0,0,0.1,0,0.1,0c0.8-0.5-1.4,0.3-1.2-0.2c0.1-0.2,0.4-0.3,0.6-0.3l-0.5-0.1c0-0.1,0.4-0.1,0.3-0.1c0,0-0.2-0.3-0.2-0.3l0.1,0
	c-0.3,0-0.8,0-1,0c0.3-0.2,0.2,0,0.5-0.1l-0.5-0.1c0.5-0.2,1-0.1,1,0.1c1.9-0.6-0.5-0.1,0.5-0.7l0.3,0.2c1.1-0.3,0.7-0.4,1.3-0.7
	c-0.4,0.1-1.7,0.7-2.2,0.6c0.1-0.1,0.2-0.2-0.2-0.3c0.7-0.1,0.5-0.2,0.4-0.3l0.9-0.1c-0.3-0.1-0.8-0.1-1.2-0.1
	c0.1-0.2,0.8-0.3,1.4-0.4c0.1-0.3-1.1,0.3-1.3,0c0.3-0.3-0.1-0.4-0.6-0.7c0.3-0.2,0.6,0,0.8-0.1l-0.7-0.1c0,0,0.2,0,0.4,0
	c-0.3-0.1-0.9,0-1.2-0.2c-1-0.1,1.5-0.5,0.3-0.7c0.3-0.1,0.6,0,0.9,0c-0.8-0.4-0.5-0.3-1.6-0.7l0.6-0.2c-0.7,0.1-1.5-0.2-2.2-0.5
	c-0.3,0-0.6,0.1-0.8,0.1l-0.5-0.5c0.2,0,0.5,0,0.8,0.1c-0.1,0-0.1-0.1-0.2-0.1c0.4-0.1,0.9,0,1.4,0.2c-0.2,0-0.4,0.1-0.6,0.1
	c0.6,0.1,1.2,0.3,1.7,0.3c-0.1,0-0.2-0.1-0.2-0.1C73.8,53,74,53,74,53c0.1,0-0.1-0.1-0.3-0.1l1,0l-0.4-0.1c0,0,0.2-0.1,0.3-0.2
	c0.2-0.1,0.3-0.2,0.3-0.2c-1-0.4-2.5-1-2.8-1.6c0.7,0.3,1.2,0.3,2.1,0.4c-1,0,0.3,0.5,0.1,0.7c0.1-0.1,0.5,0,0.7,0
	c0,0-0.2-0.1-0.4-0.3c-0.2-0.2-0.4-0.3-0.4-0.3c0.7,0.1,0.6,0,0.9,0c-1.4-0.2-0.9-0.5-1.3-0.8c0.5,0.1,1,0.3,0.8,0.5
	c1.1,0-1.6-0.7-0.6-0.8c0,0.1-0.1,0.1,0.1,0.2c-0.4-0.2,0-0.5,0.4-0.3l0,0.1c0.2-0.3,0.3-1-0.8-1.5c0.1,0.1,1.4,0.6,1.6,0.7
	c0,0-0.9-0.5-1.8-1.1c-0.9-0.5-1.8-1.2-1.8-1.2c1,0.5,3.4,1.3,3.8,1.8c0.2,0,0.4,0,0.1-0.3c-0.2,0-1.5-0.5-1.5-0.6
	c1.2,0.3,0.6,0.1,1.7,0.3c-0.2,0-1.7-0.8-1.6-1c0.2,0.1,1.5,0.7,1.6,0.9c0,0-0.3-0.3-0.7-0.5c-0.3-0.3-0.6-0.5-0.6-0.5
	c0.2,0.2,1.2,0.7,1.6,0.9c-0.3-0.2,0.1-0.1,0-0.3L76,47.5c0.3,0-1.7-1.6-1.4-2c0.2,0.3,1.5,1.5,1.7,1.5c-0.3-0.3-1-1.1-1.6-2
	c-0.6-0.9-1-1.8-1-2.2l0.4,0.3c0,0,0-0.2,0-0.4c0-0.2,0-0.4,0-0.4c0.3,0.6,0.6,1.6,1.1,2.5c0.5,0.9,1,1.7,1.3,2.2
	c0.3,0.2,0.4,0.4,0.4,0.3c0.3,0.3,0.4,0.6,0.4,0.6c0,0,0.3,0.1,0.3,0.1c-0.6-0.8-0.5-1-0.9-1.7c0,0,0.4,1.1,0.4,1.1
	c-0.3-0.4-0.7-1-1-1.5c-0.3-0.5-0.4-1-0.2-1.1c0.3,0.3,0.9,1.6,1.1,1.9c-0.2-0.3-0.2-0.7,0-0.5l0.2,0.5c0.2,0.3-0.5-1.4,0.1-0.5
	c0.1,0,0.6,1.2,0.4,0.6c-0.2-0.6-0.7-1.7-1.2-2.8c-0.2-0.6-0.4-1.1-0.6-1.5c-0.2-0.4-0.3-0.8-0.3-1c0.1,0,0.9,0.7,1.2,1.2
	c0.2,0.4,0.3,1,0.4,1.6c0.1,0.6,0.2,1.1,0.4,1.5c-0.1-0.3-0.1-0.7-0.1-0.8c0.1,0.2,0.2,0.9,0.3,0.7c-0.2-1.1,0.3,0-0.1-0.9
	c0.1-0.4,0.2,0.2,0.4,0.1c-0.1-0.4-0.1-1-0.1-1.6c0-0.6,0.1-1,0.2-1.2c0,0.3,0.1,0.6,0.1,0.7c0.2,0,0.4,0.2,0.6,0.3
	c0.2,0.2,0.3,0.3,0.5,0.3c0,0.3,0.1,0.6,0,1.1c0.1-0.2,0.2-0.5,0.3-0.5c0,1-0.2,0.1-0.3,1.3c0.1-0.6,0.4-0.8,0.6-1.1
	c0.2-1-0.3-0.3-0.5,0.1c0.2-1.4,0.7-2.6,1.5-2.9c0.5-0.1-0.1,0.8,0.1,0.7c0.3,0.3,0.6-0.1,1-0.5c0.3-0.3,0.7-0.6,0.8,0
	c-0.1,0.9-0.7,1.4-1,1.9c-0.4,0.1-0.1-0.7-0.4-0.8l0.1,0.5c-0.2,0.2-0.4,0.3-0.4,0c-0.1,0.4,0.2,0.6,0.4,0.8
	c0.2,0.2,0.5,0.5,0.4,0.9c0.2-0.2,0.5-0.3,0.7-0.6l-0.2,0c0.3-0.6,0.8-0.4,0.8-0.8c0.5-0.2,1.2-0.4,1.2,0.2l-0.6,0.7
	c0.2-0.2,0.2-0.6,0-0.5c0.4-0.1-0.5,1.3,0.4,0.6c0,0,0.1-0.2,0.1-0.3c0.1-0.2,0.1-0.3,0.1-0.3c0.5-0.1,1.5-0.3,1.5,0.2
	c0.6-0.7-0.1,0,0.5-0.9c-0.4,0.5-0.6,0.3-0.7,0c-0.2-0.2-0.3-0.4-0.7,0.2c0.7-1,0-0.7,0.5-1.8c-0.2,0.2-0.3,0.5-0.4,0.1
	c-0.1,0.1-0.2,0.1-0.2,0.1c0,0,0,0,0,0l0,0c0,0,0,0,0,0c0,0.2-0.1,0.3-0.2,0.5c-0.6,0.4-0.9,0-1.2,0.2c-0.1-0.2,0.3-0.2,0.4-0.5
	l-0.5,0.2c0.4-0.6,0.2-1.3,0.8-1.3c0,0-0.4-0.3-0.4-0.3c0-0.5-0.3-0.8-0.6-0.7c-0.1-0.2-0.8,0.4-0.4,0l-0.8,0l0-0.2
	c-0.3-0.2-0.7,0-1.1,0c-0.4,0-0.7,0-1-0.7c-0.3,0.1-0.5,0.3-0.9,0.1l-0.1-0.6c-0.3,0.2-1-0.5-1.1,0.1c-0.2-0.8-0.7-0.7-1.1-0.6
	c-0.4,0.1-0.8,0.5-1.1,0.5l0.2,0.7c-0.4,0.1-0.6,0.5-0.9,0.9l0.3,0.6c-0.1,0.6-1,0.1-1.4,0.5c-0.1-0.2,0.1-0.3,0.2-0.2
	c-0.7-0.4-0.8,0.1-0.9,0.6c-0.1,0.5-0.1,1-0.6,0.9c0.1,0.3-0.1,0.3-0.3,0.3c0,0,0,0,0-0.1c0,0,0,0-0.1,0c-0.1,0-0.3,0-0.4-0.1
	c0.2,0,0.3,0.1,0.4,0.1c-0.1,0.1-0.1,0.3-0.1,0.6l-0.6-0.4c0,0,0,0,0,0c-0.3,0,0.2,0.3,0.6,0.6c0,0.1,0.1,0.3,0.2,0.5
	c-1-0.5,0.1,0.6-1,0.1c0.2,0.2,0.2,0.5,0.3,0.7c0.1,0.3,0.2,0.5,0.8,0.9c-0.1-0.1-0.2-0.1-0.2-0.1c-0.2,0.1-0.4,0.2-0.1,0.4
	l-0.8-0.3c0,0,0.2,0.2,0.5,0.4c0.2,0.2,0.5,0.4,0.5,0.4c-0.6,0-0.9-0.1-1.5-0.5c0.8,0.9,0.2,0.5,1,1.3l-0.5-0.2
	c0,0.2,0.6,0.6,0.1,0.6c-1.2,0-0.6,1.5-1.8,2.1c1.7,0.2-0.8,0.3,0.5,0.5c-0.4,0-0.6,0.1-1-0.1c0.3,0.5-0.7,0.6,0.3,1
	c-0.4,0-0.6-0.2-0.8-0.2c0.1,0,0.3,0.2,0.1,0.2C68.1,51.7,68,51.6,67.8,51.5z M81.7,68.4l-0.1-0.1C81.7,68,81.7,68.2,81.7,68.4z
	 M75.2,57.3c0.2,0,0.6,0.1,0.2,0.2C74.6,57.6,74.9,57.4,75.2,57.3z M73.4,52.4c0.2,0.1,0.1,0.1-0.2,0.2
	C73.2,52.5,73.2,52.5,73.4,52.4z M83,41C83,41,83,41,83,41C82.9,40.6,82.9,40.8,83,41z M72,52.8c0.1,0,0.1,0,0.2,0
	c-0.2-0.1-0.4-0.1-0.6-0.2C71.7,52.7,71.9,52.7,72,52.8z M87.2,51.5c-1,0.3,0.3,0.5-0.1,0.8l-0.2,0.1l0.8,0
	C87.6,52.1,87,51.7,87.2,51.5z M69.2,60.1c0.1,0,0.3,0,0.4,0C69.5,60.1,69.3,60.1,69.2,60.1z M95,80.6c0,0-0.1,0-0.1-0.1
	C94.9,80.5,94.9,80.6,95,80.6z M97.8,78.3l0.4,0L98,77.9C98.1,78.1,97.5,78.1,97.8,78.3z M89.9,82.9c-0.1-0.1-0.3-0.3-0.2-0.3
	l-0.1,0.3C89.7,82.8,89.8,82.9,89.9,82.9z M97.6,76.9l0.2,0.1l-0.7-0.5c-0.1,0.4,0.2,1.1-0.2,1.2C97.9,78,97.2,77,97.6,76.9z
	 M97.9,76.1L97.7,76l0.4,0.5L97.9,76.1z M97.3,74c0.1,0-0.5-0.2-0.6-0.2C96.8,73.9,97.5,74.1,97.3,74z M31.5,79
	c0.2-0.1,0.4-0.3,0.4-0.3S31.7,78.8,31.5,79c-0.2,0-0.4,0.1-0.4,0.1c0.1,0,0.2,0,0,0.2C31.1,79.3,31.3,79.1,31.5,79z M94.2,79.6
	l0.1,0.5l0.3-0.1C94.5,79.9,94.3,79.8,94.2,79.6z M94.7,77C94.8,76.8,94.4,76.9,94.7,77L94.7,77z M94.8,77c0,0-0.1,0-0.1,0
	c0,0,0,0.1-0.1,0.1C95,77.3,94.8,77.5,94.8,77z M94.4,80.3l-0.1-0.2l-0.1,0L94.4,80.3z M95.4,78.3l0.3,0.9l0-0.1L95.4,78.3z
	 M96.7,81.3c-0.1,0-0.1,0-0.1-0.1C96.6,81.3,96.6,81.4,96.7,81.3z M94.9,79.3c0.2,0.3,0.3,0.8,0.9,0.9
	C95.6,79.9,95.2,79.8,94.9,79.3z M94.3,77.4c-0.2-0.1-0.4,0-0.5-0.1c0,0.3,0.2,0.4,0.6,0.5L94.3,77.4z M94.8,78c0.2,0.2,0,0-0.1-0.2
	l0.1,0.4C95,78.3,95.3,78.5,94.8,78z M94.9,78.2c-0.1,0-0.1,0,0,0.2L94.9,78.2z M94.6,82c0.3-0.1-0.1-0.3-0.2-0.5L94.3,82l0.6,0.2
	L94.6,82z M94.4,84.2c0-0.1,0.1-0.1,0-0.2l-0.2-0.2C94.1,83.9,94.2,84.2,94.4,84.2z M95,77.8c0.3,0,0.5,0,0.6,0.4
	C95.7,77.7,95.1,77.3,95,77.8z M90.6,82.3l0.2,0.1l-0.4-0.4L90.6,82.3z M91.3,81.9l-0.4-0.5l0.4,0.9L91.3,81.9z M91.7,80
	c0,0.1,0.1,0.3,0.2,0.5C91.8,80.4,91.8,80.2,91.7,80z M93.9,79l0.1,0.4C94.2,79.3,94.1,79.2,93.9,79z M92.2,79.8
	c-0.2-0.4-0.6-0.4-0.7-0.6c-0.1,0.2,0.1,0.5,0.3,0.9C91.6,79.8,91.8,79.7,92.2,79.8z M91.9,84.2C91.9,84.2,91.9,84.2,91.9,84.2
	c-0.5-0.6-0.5-0.3-0.5,0C91.8,84.6,91.8,84.4,91.9,84.2z M93.7,79.7L93.7,79.7C93.7,79.8,93.7,79.8,93.7,79.7z M93.2,78.5
	c0.2,0.2,0.5,0.3,0.7,0.5l-0.1-0.3C93.6,78.7,93.4,78.7,93.2,78.5z M93.6,79.8L93.6,79.8c-0.1,0.1-0.2,0.1-0.2,0.1
	C93.4,79.9,93.5,79.9,93.6,79.8z M93,79.5l0.5,0.3c0,0,0,0,0.1-0.1C93.5,79.7,93.2,79.5,93,79.5z M92.5,79.2l-0.3-0.4l0.4,0.7
	L92.5,79.2z M92.6,80.5c0.1,0.3,0,0.4,0,0.5c0.2,0,0.4-0.1,0.5-0.2C92.9,80.7,92.7,80.4,92.6,80.5z M89,83.5c0.1,0,0.1,0,0.1,0
	C89.1,83.4,89,83.3,89,83.5z M88.9,83.6C89,83.5,88.9,83.5,88.9,83.6L88.9,83.6z M88.8,83.7c0-0.1,0.1-0.1,0.2-0.1
	c0,0-0.1,0-0.1-0.1C88.9,83.6,88.9,83.7,88.8,83.7z M32.2,79l0.1-0.4L32,79L32.2,79z M43,94C43,94,43,94,43,94
	C42.8,94.1,42.9,94.1,43,94z M68.8,95.2c0,0.1,0.1,0.1,0.1,0.2c0-0.2,0-0.4,0.1-0.6C68.9,94.9,68.8,95.1,68.8,95.2z M89.2,83.7
	c-0.1,0-0.2-0.1-0.2-0.1C89,83.7,89.1,83.7,89.2,83.7z M31.9,89C31.9,89,31.9,89,31.9,89C31.8,89,31.9,89,31.9,89z M32.1,80.2
	c0.1,0,0.1,0.1,0.2,0.1C32.3,80.2,32.3,80.2,32.1,80.2z M86.2,86.1c-0.3-0.1-0.4-0.1-0.6-0.1C86,86.2,86.4,86.5,86.2,86.1z
	 M59.4,92.7c0.1-0.1,0.1-0.2,0.1-0.4C59.4,92.4,59.4,92.6,59.4,92.7z M85.6,85.9c-0.3-0.2-0.5-0.2-0.4,0.2c0.1,0,0.1,0.1,0.2,0.1
	C85.4,86.1,85.5,86,85.6,85.9z M78.3,89.4c-0.4-0.5-0.8-1.2-0.6-0.6l0.2,0.6C78.1,89.2,78.2,89.3,78.3,89.4z M62.5,100.6l0-0.2
	c-0.1-0.2-0.1-0.3-0.3-0.3L62.5,100.6z M58.5,99.9l-0.1-0.9L58.5,99.9L58.5,99.9z M80.7,96c0-0.4-0.4-0.2-0.4-0.6
	c-0.1,0.4-0.4,0.3,0.1,1.2C80.9,96.8,80.2,95.7,80.7,96z M88.9,84.2c0.2,0.1-0.4-0.6-0.2-0.5C88.3,83.1,88.7,84.9,88.9,84.2z
	 M54.9,100.7c0.1,0.1,0.3-0.1,0.5-0.1C55,100.8,55,99.7,54.9,100.7z M89.4,89.9c0.1,0.2-0.1,0.9,0.3,0.6
	C89.6,90.3,89.8,89.9,89.4,89.9z M90.2,89.5l0-0.4c-0.2-0.1-0.3-0.2-0.4-0.4L90.2,89.5z M91.1,85.4c-0.1-0.1-0.1-0.2-0.2-0.3
	C90.9,85.2,91,85.3,91.1,85.4z M83.8,91.6L83.8,91.6l-0.5-1.4L83.8,91.6z M88,88.5c0.1,0.2,0.3,0.3,0.3,0.2c0-0.2,0-0.4-0.1-0.5
	L88,88.5z M91.6,84.7L91,84.4c-0.1-0.5-0.4-1.5,0.1-1.5c-0.7-0.6,0,0.1-0.9-0.5c1,0.8-0.7,0.5,0.4,1.3c-1-0.8-0.7-0.1-1.6-0.7
	c0.2,0.2,0.4,0.4,0.1,0.4c0,0.1,0.1,0.2,0.1,0.2c0,0,0,0,0,0l0,0c0,0,0,0.1,0,0c0.1,0.1,0.3,0.1,0.4,0.3c0.3,0.6-0.1,0.9,0,1.3
	c-0.2,0-0.1-0.3-0.4-0.5l0.1,0.6c-0.4-0.5-1-0.6-0.9-1.2c0,0-0.3,0.2-0.3,0.2c-0.4-0.2-0.7-0.1-0.7,0.2c-0.2,0,0,0.8-0.1,0.3
	l-0.3,0.7L87,85.4c-0.5,0.2-0.4,1.6-1.6,0.9c-0.1,0.2-0.2,0.5-0.5,0.5l-0.3-0.5c-0.1,0.3-0.9-0.2-0.7,0.4c-0.9-1.2-1.2,0.3-1.7,0.2
	l0.3,0.7c-0.3,0.1-0.5,0.4-0.7,0.8l0.3,0.6c-0.1,0.6-1-0.1-1.4,0.2c-0.1-0.2,0.1-0.2,0.2-0.1c-1.1-1.1-0.8,1.5-1.7,0.7
	c-0.1,0.3-0.2,0.2-0.3,0.1c0,0,0,0,0,0c0,0,0,0-0.1,0c-0.1-0.1-0.2-0.2-0.3-0.3c0.1,0.1,0.2,0.2,0.3,0.3c-0.1,0-0.2,0.2-0.3,0.4
	L78,89.4c0,0,0,0,0,0c-0.2-0.2,0,0.4,0.2,0.8c0,0.1-0.1,0.3-0.1,0.5c-0.5-1-0.3,0.5-0.8-0.6c0.1,0.6-0.7,0.7-0.4,1.9
	c0-0.2-0.1-0.2,0-0.2c-0.2-0.1-0.4-0.2-0.5,0.2L76,91.1L76,92.4c-0.4-0.5-0.5-0.8-0.5-1.5c-0.3,1.1-0.4,0.5-0.6,1.6l-0.1-0.6
	c-0.2,0.1-0.3,0.9-0.5,0.4c-0.6-1-2,0.3-3.2-0.5c0.5,1.6-0.6-0.7-0.4,0.6c-0.1-0.4-0.3-0.6-0.2-1c-0.5,0.5-0.9-0.5-1.1,0.6
	c-0.1-0.4,0-0.6-0.1-0.8c0,0.1-0.1,0.4-0.2,0.1c-0.1-0.2,0-0.3,0.1-0.5c-0.5,0.1-0.4,1.4-0.3,2.5c-0.3-0.5-0.5-0.4-0.6,0.4
	c-0.1-0.4-0.3-0.7,0-0.9c-0.2,0-1.2-0.4-1.1,0.5c-0.1-0.2-0.3,0-0.3,0.1c-0.4,0-0.5-0.1-0.9,0l0.1,0.1c-0.1,1.1-0.3,0.3-0.7,0.4
	l0-0.1c-0.8-0.8-0.3,0.4-1.1-0.5l0.1,0.7c0,1.5-0.7-0.9-1.1-0.3l0.2,0.4c-0.2,0.5-0.8-2-1-2.2c-0.1-0.1,0.1-0.2,0.1-0.3
	c-0.6-0.9-0.1,0.9-0.5,1.1c-0.1-0.5,0.1-1.3-0.2-1.3c-0.2-0.4-0.9,1.6-1.3,0.7c0.1,0.4,0.2,0.8,0,1c-0.3,0.1-0.9-1.5-1.2-0.3
	c0-0.1-0.1-0.2-0.1-0.3c-0.3,0.3-0.8,0.5-1,1.1c-0.1-2.4-1.7,1.1-1.5-1.1c0,0-0.2,0-0.4,0c-0.2,0-0.4,0-0.4,0l0-0.2
	c-0.5-0.2-0.7,0.3-0.9,0.8c-0.1-0.2,0-0.4,0-0.5c-0.7-0.5-0.7-0.4-1.5,0.6l0-0.7c-0.1,0.2-0.3-0.1-0.6-0.4c-0.3-0.3-0.6-0.6-1-0.2
	c0-0.1,0.1-0.2,0.1-0.3c-1,0.7-1.3-2.3-2.3,0.1l-0.7,0.5c0.6,0.4-0.4,1.1-0.2,1.6c-0.3,0.1-0.5-1-0.1-1l0,0.1
	c0.5-1.3-0.7-0.7-0.4-1.6c-0.6-0.2-1.2-0.5-1.8-0.9c-0.5-0.4-1-0.8-1.6-1.1l-0.3,1l-0.4-0.2c0-0.3,0.2-0.8,0.5-0.7
	c0.1-0.6-0.7,0.3-0.8,0.5c-0.4-0.6,0.7-1,0.6-1.1c0,0-0.3,0-0.3,0l0,0.1c-0.4,0.3-0.6,0.7-0.9,0.5c-0.1-0.3,0.2-0.6,0.1-0.7
	c0-0.1,0-0.1-0.1-0.1l-0.4-0.3l-0.2,0.8c-0.4,0.3-0.4-0.3-0.6,0.7c0.2-0.7-0.2-1.1-0.7-1.3c-0.4-0.3-0.9-0.4-0.9-0.6
	c-0.6,0.4-0.9,0.2-1.2-0.1c0,0.2-0.4,1-0.7,0.7c1.2-1.6-0.1-1.1,0.4-2.4c-0.3,0.9-1-0.4-1.4,0.9c-0.2-0.3,0.4-0.6,0.5-1.1
	c-1,0.2-0.9-1.3-1.8-1.6c-0.2,0.2-0.3,0.6-0.7,0.8c0,0,0.1-0.3,0.2-0.6c0.1-0.3,0.2-0.6,0.2-0.6c-0.2,0-1.1,1-0.7,0.1
	c-0.1,0.2-0.3,0.5-0.4,0.5c-0.1-0.5-0.4-0.9-0.7-1.2c-0.3-0.3-0.7-0.5-1-0.8c-0.7-0.5-1.3-1.2-0.9-2.6c-0.2,0.5-0.4,0.4-0.5,0.3
	c0,0.2-0.5,0.4-0.7,0.6c0,0,0.1-0.3,0.2-0.6c0.1-0.3,0.2-0.6,0.2-0.6c-0.9,0.5-0.5-0.5-1.3-0.1l0.3,0.1c-1.1,0.4-1.7,1.8-2.8,2.6
	c1.2-0.4-0.8,2,1,1.4c-0.1,0.3-0.4,0.2-0.6,0.5c0.6-0.3,0.8-0.2,0.8,0.3l-0.1,0.1c0.8,0.7,0.6,1.4,1.2,2.5l0.4-0.6
	c0.1,0.2,0,0.4,0,0.6c0.9-0.5-0.5-0.5,0.5-1.2c-0.8,1.2,1.2,1.2,0.3,2.5c0.3,0.3,0.4-0.7,0.7-0.4l-0.2,0.4l0.4-0.4
	c0.1,0.2-0.1,0.7-0.4,1c0-0.1-0.2,0-0.3-0.1c-0.1,0.6,0.8,0.5,0.8,0.7l-0.1-0.4c1.1,0.3,1.7,1.6,3.1,1.5l0.1-0.3
	c1-0.1,0.3,0.6,1.1,0.9l-0.1,0c0.3-0.2,0.6-0.2,0.8,0c-0.4,0.2,0,0.8-0.5,1c1.1-0.1,0.6-0.2,1.7-1l-0.2,0.5c0.4-0.3,0.5-0.5,1-0.5
	c-0.5,0.2-0.2,0.8-0.8,1.2c0.2,1.5,1.7-0.4,1.3,1.3c1-1.1-0.3-1.1,0.1-1.3c0.1-0.5,0.8-0.8,1-0.6c0.2,0.1-0.4,1.9,0.2,2.2
	c-0.1,0-0.1,0.1-0.2,0c0.1,0.5,0.7-0.2,0.7,0.5c0.5-0.7,0.4,0.2,0.9-0.8c0,0-0.2,0-0.3,0c-0.2,0-0.3,0-0.3,0
	c0.5-0.1,1.3-1.2,1.6-0.4c-0.1,0.2-0.4,0.4-0.6,0.5c0,0.4,0.4-0.1,0.4,0.3c-0.5,1-0.8,0-1.5,0.6c0,0.5,1-0.5,0.3,0.6
	c0.9-1.3,0.6,0.5,1.5-0.5l-0.3,0.6c0.1-0.1,0.4-0.3,0.5-0.2l-0.6,0.7c0.6-0.6,0.5,0.9,1,0.7c-0.8-0.3,0.1-0.8,0-1.4
	c1.2-0.5-0.1,1.9,1.1,2c-0.2,0-0.4-0.6-0.1-0.8c0.2,0.2,0.3,0.5,0.3,0.9c0.7,0.1,0.1-0.7,0.5-1c0,0.9,0.4-0.2,0.8-0.4l-0.2,0.7
	c0.7,0.7,0.6-1.3,1.2-0.6l-0.6,0.8l0.4-0.1l-0.3,0.7c0.6-0.4,0.6-0.3,1,0.1c0-0.5,0.4-1.2,0.7-1.2c0.1,0.5-0.3,0.6,0.2,0.6
	c-0.2,0.4-0.5,0.9-0.5,0.2c-0.1,0.2-0.2,0.4-0.3,0.6c0.1,0.5,0.6,0.3,0.8,0.3c-0.1,0-0.1-0.1-0.2-0.2l0.9-0.8
	c0.1,0.3-0.1,0.5-0.2,0.7c0.2,0,0.3-0.3,0.6-0.3c-0.2,0.5-0.3,1.1-0.7,1.3l0.8-0.5c0,0.3,0.2,0.7,0.1,0.9c0.3,0.4,1.2-0.9,1.6-0.4
	c0-0.1,0.1-0.2,0.2-0.3c0.5,0.2,0.8,0.9,1.5,0.2l0.2,1.1c0.5-0.2-0.3-1.3,0.5-1.6c0.6-0.3,0.1,0.9,0.3,1.2c0.3-0.5,0.9-1.4,1.3-0.6
	c-0.2,0.2-0.3,0-0.5,0.1l0.3,0.6c-0.5,0.9-0.9,0.5-0.6,1.4c0.2-1.9,1.5-0.1,1.7-2.1l0.2,0.4c-0.1,0-0.1,0.1-0.2,0.1
	c0.4,1,0.4-1.4,1-1.1c0.2,0.2,0.3,0.5,0.2,0.7l0.5-0.5c0.1,0,0.1,0.4,0,0.3l0.7-0.1l0,0.1c0.1-0.3,0.3-0.8,0.5-1
	c0.2,0.3-0.1,0.2,0,0.5l0.4-0.5c0.2,0.5-0.2,1-0.4,0.9c0.4,2,0.3-0.5,1.1,0.6l-0.4,0.3c0.3,1.1,0.5,0.7,1,1.4
	c-0.1-0.4-0.9-1.7-0.5-2.2c0.1,0.1,0.3,0.2,0.5-0.2c0,0.7,0.2,0.5,0.5,0.5l0,0.9c0.3-0.3,0.3-0.8,0.4-1.2c0.3,0.1,0.4,0.8,0.5,1.4
	c0.6,0.1-0.4-1.1,0.2-1.3c0.5,0.3,0.8-0.1,1.3-0.6c0.3,0.3,0,0.6,0.1,0.8l0.2-0.8c0.1,0,0.1,0.2,0.1,0.4c0.2-0.3,0-0.9,0.3-1.2
	c0-1,0.9,1.5,1.2,0.2c0.1,0.2,0,0.6,0.1,0.9c0.6-0.8,0.5-0.6,0.9-1.7l0.5,0.6c-0.4-0.7-0.1-1.5,0.2-2.2c-0.1-0.3-0.3-0.6-0.4-0.7
	l0.5-0.6c0.1,0.1,0.1,0.5,0,0.9c0-0.1,0.1-0.2,0.1-0.2c0.2,0.3,0.2,0.9,0.1,1.4c-0.1-0.2-0.2-0.4-0.3-0.5c-0.1,0.6-0.1,1.2,0,1.8
	c0-0.1,0.1-0.2,0.2-0.3c0,0.2,0,0.3,0,0.4c0,0.1,0.1-0.1,0.1-0.4l0.3,1l0-0.4l0.8,0.6c0.4-1.1,0.6-2.7,1.4-3.2
	c-0.1,0.8,0.2,1.2,0.3,2.1c-0.4-0.9-0.6,0.5-1.1,0.3c0.2,0.1,0.3,0.5,0.2,0.7l0.7-1c0.1,0.7,0.3,0.5,0.5,0.8
	c-0.4-1.4,0.4-1.1,0.7-1.6c0.1,0.5,0.1,1-0.3,0.9c0.6,1,0.2-1.8,0.8-1c-0.1,0-0.2,0-0.1,0.2c0.1-0.5,0.7-0.2,0.7,0.2l-0.1,0
	c0.7,0,1.9-0.4,1.7-1.6c0,0.2,0.3,1.5,0.3,1.7c0,0,0-1.1,0.1-2.1c0-1.1,0-2.1,0-2.1c0.2,1.1,1.2,3.4,0.8,4.1
	c0.2,0.1,0.4,0.3,0.6-0.2c-0.1-0.1-0.6-1.4-0.5-1.5c0.7,1,0.4,0.5,1.1,1.4c-0.2-0.2-0.5-1.8-0.2-1.8c0,0.3,0.5,1.6,0.4,1.8l0.1-1.8
	c-0.1,0.3,0.4,1.3,0.6,1.7c-0.2-0.3,0.5-0.1,0.6-0.3l-0.4-0.3c0.7,0,0-2.4,0.6-2.5c0,0.3,0.5,2,0.9,2.1c-0.1-0.9-0.6-4-0.3-4.8
	l0.3,0.4l0.2-0.7c0.2,1.3,0.4,4.1,0.3,5.2c0.4,0.3,0.3,0.5,0.6,0.4c0.3,0.4,0,0.7-0.1,0.8c0,0,0.2,0,0.5,0c0.2,0,0.5,0,0.5,0
	c-0.4-0.9,0.3-1.2,0-1.9L82,95.7c-0.4-0.9-0.4-2.8,0.2-2.9c0.3,0.3,0.5,1.7,0.7,2c0-0.3,0.3-0.8,0.5-0.6l-0.1,0.6
	c0.5,0.2,0.1-1.4,0.8-0.7c0.2,0,0.9,1,0.7,0.4c-0.7-0.9-2.1-4.1-2.3-4.9c0.1,0.1,1.1,0.7,1.5,1.1c0.6,0.7,0.5,2,1,2.6
	C85,93.1,85,92.7,85,92.6c0.2,0.1,0.3,0.8,0.6,0.5c-0.4-0.9,0.7-0.2-0.2-0.8c0.2-0.4,0.4,0,0.7-0.2c-0.4-0.5-0.7-2.1-0.5-2.5
	c0.1,0.2,0.3,0.5,0.4,0.6c0.6-0.2,1.1,0,1.7-0.3c0.2,0.2,0.6,0.3,0.7,0.7c0-0.2-0.1-0.5,0.1-0.6c0.8,0.5-0.3,0.3,0.5,1.1
	c-0.3-0.5,0-0.9,0.1-1.4c-0.5-0.7-0.6,0.2-0.7,0.6c-0.6-1.1-0.9-2.4-0.7-3.2c0.2-0.5,0.6,0.6,0.6,0.4c0.9-0.3-0.5-2.2,0.6-1.9
	c0.7,0.5,0.9,1.3,1.3,1.7c-0.2,0.5-0.8-0.1-1,0.1l0.5,0.1c0,0.3-0.1,0.6-0.3,0.5c0.6,0.4,1.4-0.7,2.4-0.7c-0.1-0.3,0-0.6-0.3-0.8
	L91,86.8c-0.5-0.4-0.2-1-0.6-1c0-0.5-0.2-1.3,0.3-1.3l0.6,0.6c-0.2-0.2-0.5-0.2-0.5,0C90.8,84.8,92.2,85.7,91.6,84.7z M43.7,89.3
	c-0.3,0.1-0.1,0,0-0.2L43.7,89.3z M61.3,98.9c0.1-0.8,0.2-0.4,0.4-0.2C61.6,98.9,61.4,99.4,61.3,98.9z M69.4,96.4
	c0.1-0.1,0.2-0.1,0.3,0.1C69.7,96.7,69.5,96.6,69.4,96.4z M88.2,84.9C88.2,84.9,88.2,84.9,88.2,84.9C87.8,84.8,88,84.8,88.2,84.9z
	 M60,99.1l0-0.3C60,98.9,60,99.1,60,99.1z M93.1,80.9c0.2,0,0.1-0.2,0-0.3c0,0.1,0,0.2-0.1,0.3C93.1,80.9,93.1,80.9,93.1,80.9z
	 M92,81.8l0-0.1c-0.2,0-0.4-0.1-0.8-0.3c0.1,0.3,0.2,0.5,0.3,0.7L92,81.8L92,81.8z M92.2,86.1l0.4-0.1L92.4,86L92.2,86.1z
	 M92.2,85.1l0.3,0.5l0.2,0L92.2,85.1z M94,84.5c-0.1-0.5-1.5-1.7-2.4-2.4c0.2,0.2,0.3,0.4,0.3,0.8c0.3,0.2,1,0.1,1.1,0.6
	c-0.1,0.5-0.4,0.1-0.7,0c0.6,0.4,0.3,1.1,1.1,1.9l0-0.5c0.1,0.1,0.2,0.4,0.4,0.4C93.5,84.9,93.4,84.3,94,84.5z M92.4,81.3
	c0.4,0.5,0.4,0.9,1,1.2c0.2-0.3-0.2-0.5-0.2-0.9C92.9,82.2,93,81.4,92.4,81.3c0.1-0.1,0.1-0.2,0.1-0.3c-0.1,0-0.3,0-0.4,0l0,0v0l0,0
	c0.1,0,0.1,0.1,0.1,0.1c0,0,0,0,0,0C92.3,81.2,92.4,81.3,92.4,81.3c-0.2,0-0.1-0.1-0.2-0.2l-0.1-0.1l0,0l-0.2,0.6
	C92.2,81.7,92.3,81.6,92.4,81.3z M91.8,81c0.1,0,0.3,0.1,0.4,0.1C92,81,91.7,80.8,91.8,81z M91.5,82.1
	C91.5,82.1,91.6,82.1,91.5,82.1L91.5,82.1L91.5,82.1z M93.1,80.2L93.1,80.2C93.2,80.3,93.2,80.3,93.1,80.2z M93,80.2
	c0,0.1,0.1,0.2,0.2,0.4c0-0.1,0-0.2,0-0.3C93.1,80.2,93,80.2,93,80.2z M93,80.2C93,80.2,93,80.2,93,80.2
	C92.8,80.1,92.9,80.1,93,80.2z M96.5,81.2c-0.1-0.2-0.2-0.5-0.6-0.5l0,0.1c-0.2,0-0.8-0.1-1-0.2c0.4,0.3,0.8,0.5,1.2,0.7
	c0-0.1-0.2-0.3-0.1-0.3C96.4,81,96.4,81.1,96.5,81.2z M68.9,97.5c0-0.1-0.1-0.2-0.1-0.4C68.8,97.3,68.8,97.4,68.9,97.5z M68.9,97.8
	l-0.3-0.4C68.7,97.6,68.8,97.7,68.9,97.8z M76.3,97.2c0-0.8,0.2-0.7,0.4-0.6l-0.6-1.7L76.3,97.2z M52.6,98.9
	C52.6,98.9,52.6,98.9,52.6,98.9c0,0,0,0.1-0.1,0.1L52.6,98.9z M52.5,99.1l-0.3,0.6C52.5,99.7,52.5,99.4,52.5,99.1z M85.4,93.6
	c-0.1-0.1-0.2-0.1-0.3-0.3C85.1,93.5,85.2,93.6,85.4,93.6z M76.7,96.7C76.7,96.7,76.7,96.6,76.7,96.7L76.7,96.7L76.7,96.7z
	 M91.2,86.2l0.4,0c-0.1-0.1-0.1-0.2-0.1-0.2C91.3,86,91,86,91.2,86.2z M91.6,85.6c0,0-0.1,0.1-0.1,0.3
	C91.5,85.8,91.6,85.8,91.6,85.6z M92,84c-0.2-0.3-0.1,0-0.1,0.1C91.9,84.1,92,84,92,84z M85.9,90.2L85.9,90.2
	C86,90.3,86,90.3,85.9,90.2z"/>
</svg>
