<?xml version="1.0" encoding="utf-8"?>
<!-- Generator: Adobe Illustrator 21.0.0, SVG Export Plug-In . SVG Version: 6.00 Build 0)  -->
<svg version="1.1" id="Layer_1" xmlns="http://www.w3.org/2000/svg" xmlns:xlink="http://www.w3.org/1999/xlink" x="0px" y="0px"
	 viewBox="0 0 120 120" style="enable-background:new 0 0 120 120;" xml:space="preserve">
<style type="text/css">
	.st0{fill:#F36C3B;}
	.st1{fill:#EC6D3E;}
	.st2{fill:#EA5A26;}
</style>
<g>
	<g>
		<path class="st0" d="M69.7,73.2L69.7,73.2L69.7,73.2l-0.2-0.1c-0.2-0.1-0.3-0.1-0.4-0.2c-0.2-0.1-0.4-0.1-0.6-0.2
			c-0.3,0-0.2,0-0.2,0l0,0l0,0l0,0c-0.4-0.4-0.8-0.9-1.2-1.3l0,0c0,0-0.1,0-0.1,0.1l0.1-0.1l0,0l0,0l1.2,1.3l0,0l0,0l0,0l0,0h0.2
			h0.1h0.2c0.1,0,0.2,0.1,0.3,0.1c0.3,0.1,1,0.4,0.8,0.3C69.9,73.3,69.8,73.2,69.7,73.2L69.7,73.2z"/>
		<polygon class="st0" points="70.9,69.7 70.9,69.8 71,69.2 		"/>
		<path class="st0" d="M72.7,66.7c-0.6,0-0.6,1.1-1.1,1.6h-0.1l0.2,0.4C71.9,68.1,72.3,67.1,72.7,66.7z"/>
		<path class="st0" d="M74.4,65.8c-0.2,0,0.1-0.4-0.3,0.3h0.1C74.3,66,74.3,65.9,74.4,65.8z"/>
		<path class="st0" d="M74.2,66.1C74,66.4,74.5,65.9,74.2,66.1L74.2,66.1z"/>
		<path class="st0" d="M75.1,64.6L75,65.1c0.1,0,0.4-0.4,0.4-0.2C75.5,64.4,75.4,64.4,75.1,64.6z"/>
		<path class="st0" d="M75.1,64L75,64.3C75.1,64.2,75.1,64.2,75.1,64z"/>
		<path class="st0" d="M74.8,64.8l0.2-0.5c-0.1,0-0.2-0.1-0.1,0.2C74.8,64.4,74.9,64.5,74.8,64.8z"/>
		<path class="st0" d="M74.6,65c-0.2,0.2-0.5,0.4-0.3-0.1C73.8,65.7,74.1,65.8,74.6,65z"/>
		<path class="st0" d="M72.4,66.4l-0.3,0.2v0.4C72,66.7,72.5,66.4,72.4,66.4z"/>
		<path class="st0" d="M77,62.1c-0.1-0.1-0.3,0-0.4,0l-0.1,0.4C76.6,62.3,76.9,62,77,62.1z"/>
		<path class="st0" d="M76.6,62l0.2-0.6C76.5,61.9,76.5,62,76.6,62z"/>
		<polygon class="st0" points="74.7,63.6 74.5,64.6 74.8,63.5 		"/>
		<polygon class="st0" points="78.2,60.3 78.2,60.7 78.2,60 		"/>
		<path class="st0" d="M78.9,59.1c0,0.3,0.4-0.1,0.4,0.2c0.2-0.3,0.2-0.7,0.2-1C79.4,58.5,79.2,58.8,78.9,59.1z"/>
		<path class="st0" d="M79.6,57.7c0,0.2-0.1,0.3-0.1,0.5C79.5,58,79.6,57.8,79.6,57.7z"/>
		<path class="st0" d="M77.3,60.7c0.1,0,0.2,0,0.5-0.2h-0.4C77.4,60.6,77.3,60.7,77.3,60.7z"/>
		<path class="st0" d="M77.4,60.5L77.4,60.5c0.1-0.2,0.2-0.3,0.3-0.4C77.6,60.2,77.5,60.3,77.4,60.5z"/>
		<path class="st0" d="M77.3,60.8L77.3,60.8C77.2,60.7,77.2,60.7,77.3,60.8z"/>
		<path class="st0" d="M75.7,62.6c0.1-0.4,0.3-1-0.3-0.6C75.5,62.3,75.8,62,75.7,62.6z"/>
		<path class="st0" d="M76.8,60.8l-0.4,0.5c0.1,0,0.2,0,0.2,0.2L76.8,60.8z"/>
		<polygon class="st0" points="76.9,60.5 76.8,60.8 77,60.6 		"/>
		<path class="st0" d="M78.8,58.4c0-0.3,0.2-0.5,0.3-0.8c-0.2,0.3-0.4,0.5-0.6,0.8C78.6,58.5,78.7,58.7,78.8,58.4z"/>
		<path class="st0" d="M78.1,59.4L78.1,59.4L78.1,59.4z"/>
		<path class="st0" d="M80.7,55L80.7,55L80.7,55z"/>
		<path class="st0" d="M78.5,58.4c-0.2,0.2-0.2,0.4-0.2,0.5C78.4,58.8,78.4,58.6,78.5,58.4L78.5,58.4z"/>
		<path class="st0" d="M79.9,56.8c-0.1,0.1-0.2,0.2-0.4,0.3C79.7,57.1,79.9,56.9,79.9,56.8z"/>
		<path class="st0" d="M78.2,59.3L78.2,59.3C78.3,59.3,78.3,59.3,78.2,59.3z"/>
		<path class="st0" d="M78.2,59.3c0-0.1,0-0.3,0-0.4C78.1,59,78.1,59.2,78.2,59.3C78.2,59.4,78.2,59.3,78.2,59.3z"/>
		<path class="st0" d="M79.6,53.3c0.2,0.2,0.1,0.9-0.4,1.2c-0.1,0.6,0.8,0.7,1.4,0.5c-0.1-0.1-0.2-0.1,0-0.7c-0.2,0.1-0.9,1-0.9,0.4
			c0.3-0.7,0.4-0.5,0.7-0.8C80,54,80.5,52.8,80,52.8l-0.2,0.7C79.7,53.5,79.8,53.2,79.6,53.3z"/>
		<path class="st0" d="M80.1,56L80,56.1c0.2-0.2,0.4-0.3,0.7-0.6c0.1-0.4,0-0.5,0-0.6L80.1,56L80.1,56z"/>
		<path class="st0" d="M79.4,57c-0.1-0.3,0-0.9-0.4-0.7c-0.3,0.6-0.1,0.5-0.2,1C79.4,56.3,78.8,57.7,79.4,57
			c-0.1,0.2-0.2,0.4-0.3,0.6c0.1-0.2,0.3-0.3,0.4-0.4l0,0l0,0l0,0c-0.1,0-0.1,0,0,0C79.5,57.1,79.5,57.1,79.4,57
			C79.5,57.1,79.4,57.1,79.4,57C79.6,56.8,79.5,57,79.4,57C79.5,57.1,79.5,57.1,79.4,57L79.4,57l0.5-1C79.8,56.3,79.7,56.6,79.4,57z
			"/>
		<path class="st0" d="M75.3,61.1L75.3,61.1C75.4,61.1,75.4,61,75.3,61.1z"/>
		<path class="st0" d="M75.7,60.8c0,0.1,0,0.2-0.1,0.4c-0.2,0.1-0.1-0.1-0.2-0.1c0,0.2-0.1,0.6,0.2,0.2v-0.1
			c0.3-0.3,0.9-0.6,0.9-0.6C76.2,60.7,76,60.7,75.7,60.8z"/>
		<path class="st0" d="M77.5,58.9l0.4-0.9l-0.5,0.3l0.1,0.1C77.3,58.8,77.5,58.8,77.5,58.9z"/>
		<polygon class="st0" points="80.9,55 81.1,55.2 81,54.5 		"/>
		<polygon class="st0" points="81.4,53.9 81.6,54 81.6,53.7 		"/>
		<path class="st0" d="M55.5,16.9l-0.1,0.2C55.5,17,55.5,17,55.5,16.9z"/>
		<path class="st0" d="M56.9,15.7L56.9,15.7C56.9,15.7,56.9,15.7,56.9,15.7z"/>
		<path class="st0" d="M86.6,24.3c0.1-0.5,0.3-1.1,0-0.9l-0.2,0.2C86.6,23.9,86.6,24.1,86.6,24.3z"/>
		<path class="st0" d="M71.3,11.3L71.3,11.3c0.2,0,0.3,0,0.4-0.1C71.6,11.2,71.4,11.3,71.3,11.3z"/>
		<path class="st0" d="M70.8,12.3L70.4,12C70.4,12.2,70.6,12.2,70.8,12.3z"/>
		<path class="st0" d="M50.2,25.2l0.2,0.3C50.5,25.2,50.3,25.3,50.2,25.2z"/>
		<path class="st0" d="M86.1,42.1c0.2-0.3,0.3-0.6,0.4-0.8C86.3,41.7,86,42,86.1,42.1z"/>
		<path class="st0" d="M54.2,14.3c-0.1,0.2-0.1,0.3-0.1,0.3C54.2,14.4,54.2,14.3,54.2,14.3z"/>
		<path class="st0" d="M86.8,40.3c0,0.1-0.1,0.1-0.1,0.2c0,0.3,0,0.5-0.1,0.8C86.7,41.1,86.9,40.7,86.8,40.3z"/>
		<path class="st0" d="M60.9,60.1L60.9,60.1C61,60.1,61,60.1,60.9,60.1z"/>
		<path class="st0" d="M65.2,70.9c-0.1-0.1-0.2-0.2-0.3-0.4C64.9,70.6,65,70.7,65.2,70.9z"/>
		<path class="st0" d="M83.7,49.4C83.6,49.7,83.7,49.5,83.7,49.4L83.7,49.4z"/>
		<path class="st0" d="M82.2,50.1c0-0.1,0-0.1-0.1-0.2C82.2,50,82.2,50.1,82.2,50.1z"/>
		<path class="st0" d="M85.7,37.4L85.7,37.4C85.6,37.5,85.6,37.4,85.7,37.4z"/>
		<path class="st0" d="M83.5,49.7c0.1-0.1,0.1-0.2,0.2-0.3C83.6,49.5,83.6,49.6,83.5,49.7z"/>
		<path class="st0" d="M83.6,49.7c0,0.1-0.1,0.1-0.1,0.2S83.5,50,83.6,49.7z"/>
		<path class="st0" d="M83.9,49.1c-0.1,0.1-0.1,0.3-0.2,0.4c0,0,0.1-0.1,0.1,0C83.8,49.3,83.8,49.2,83.9,49.1z"/>
		<path class="st0" d="M50.8,42.1L50.8,42.1C51,42.4,50.9,42.3,50.8,42.1z"/>
		<path class="st0" d="M81.3,19.5L81.3,19.5L81.3,19.5L81.3,19.5z"/>
		<path class="st0" d="M80.6,18.9c0.5,0.1,0.6,0.3,0.7,0.5l0.5-0.7C81.4,18.8,81,18.9,80.6,18.9z"/>
		<path class="st0" d="M52.7,20.3l0.6-0.3c-0.1,0.8-0.5,1.2,0.1,0.9c-0.7-0.6,1.4-1.9,0.8-2.5l0.4-0.2c-0.1,0.1-0.1,0.1-0.1,0.2
			c0.8-0.3-0.1-0.9,0.8-1.5c0.3-0.2,0.6-0.3,0.5,0c0.1-0.2,0.3-0.5,0.4-0.7c0.2-0.1,0.2,0,0.1,0.1l0.9-0.8l0,0
			c0-0.2,0.2-0.6,0.3-0.8c0.3-0.1-0.1,0.2,0.1,0.2l0.4-0.6c0.3,0,0,0.5-0.4,0.8c1,0.4,0.3-0.5,1.7-0.8l-0.6,0.5
			c0.6,0.2,0.9-0.2,1.6-0.2c-0.2-0.1-1.6,0-1.1-0.6c0.2-0.1,0.5-0.1,0.7-0.5c0.1,0.3,0.4,0,0.9-0.2l0.1,0.4c0.4-0.3,0.3-0.5,0.5-0.8
			c0.5-0.2,0.8,0.1,1,0.3c0.8-0.2-0.7-0.3,0.2-0.7c0.8,0,1.2-0.3,2.1-0.7c0.5,0.1-0.1,0.3,0.1,0.3c0.1-0.1,0.3-0.3,0.4-0.4
			c0.1,0,0.1,0.1,0.1,0.2c0.4-0.2,0-0.4,0.6-0.6c0.1-0.2,0.4-0.1,0.8,0.1c0.4,0.1,0.9,0.3,1.3,0.1c0.2,0.1-0.1,0.2-0.1,0.4
			c1.1-0.3,0.9-0.2,1.8-0.5l0.7,0.4c-0.5-0.4,0.3-0.6,1-0.8c-0.2-0.2-0.3-0.4-0.4-0.4c0.4,0,0.7,0,1.1,0c0.1,0.1,0,0.2-0.2,0.3
			c0.1,0,0.1,0,0.2,0c0.3,0.2,0.1,0.4-0.2,0.6c-0.1-0.1-0.2-0.2-0.3-0.3c-0.3,0.2-0.6,0.4-0.6,0.6c0.1,0,0.2,0,0.3,0
			C71,11.9,71,12,71,12c0,0.1,0.1,0,0.3-0.1l0.1,0.5l0.1-0.2c0.4,0.2,0.8,0.4,1.1,0.7c1-0.1,2-0.4,3.5,0.2c-0.5,0.1-0.3,0.4-0.5,0.8
			c-0.1-0.6-1.1-0.4-1.7-0.8c0.3,0.2,0.2,0.3,0.1,0.3c0.4,0.1,0.9,0.2,1.4,0.3c-0.2,0.3,0.1,0.4,0.4,0.6c0.1-0.7,1.1,0.2,1.6,0.3
			c-0.1,0.2-0.3,0.3-0.9-0.1c0.3,0.8,1.2-0.1,1.6,0.7C77.9,15,77.8,15,77.7,15c0.4,0.1,1.1,0.8,0.8,0.8l-0.3,0.1
			c0.4,0.4,1,0.9,1.5,1.4c0.5,0.5,1.1,0.8,1.3,0.7c0,0.1-0.6,0.3-0.7,0.3c0.9,0.1,1.8,0.3,2.7,0.5c-0.5,0.1-1,1.3-1.7,0.7
			c0.1,0.3,0.2,0.5,0.6,0.9c0-0.2,0.3-0.7,0.5-0.6c-0.1,0.9,0,0.5,0,1.5c0-0.3,0.7-0.4,0.9,0c-0.1,0-0.6,0.4-0.8,0.3
			c0.4,0.2,0.8,0.4,1.1,0.6c-0.2-0.2-0.6,0.2-0.7,0.5c0.1-0.2,0.3,0.8,0.5,1.1v-0.5c0.3,1.1,1.3,0.8,1.7,1.9c-0.2-0.1-1-0.1-0.9,0.5
			c0.4,0.2,2.1,0.8,2.5,1.8v0.4c0.1,0.3,0.3,0.5,0.4,0.8c-0.6-0.5-2-1.7-2.6-2.3c-0.1,0.5-0.2,0.2,0,0.8c-0.1,0.3-0.4-0.3-0.4-0.5
			c0.1,0.5,0.1,1,0.2,1.5c0.4-0.1,0.6,1.1,0.9,1c-0.2-0.5-0.5-1.1-0.7-1.6c0.2-0.1,0.5,0.1,0.8,0.5c0.3,0.3,0.6,0.9,0.6,1.4
			c-0.1,0.3-0.8-0.1-0.9-0.1c0.2,0.1,0.4,1,0.3,1.1L84.9,30c-0.1,0.6,0.6,1,0.2,1.7c0,0.3-0.5,0.7-0.3,0.8c0.5-0.4,2-0.5,2.4-0.2
			c0,0.1-0.5,1.4-0.8,1.7c-0.4,0.4-0.9-0.7-1.2-0.4c0.1,0,0.3,0.3,0.3,0.4c-0.1,0.3-0.3-0.1-0.4,0.4c0.4,0.1-0.2,1.2,0.3,0.3
			c0.1,0.6-0.1,0.6-0.2,1.3c0.3-0.2,0.8,0.7,0.9,1.4c-0.1-0.1-0.3,0.1-0.3,0.1c-0.3,1.2-0.6,1.8-0.9,2.9c-0.1,0.1-0.4,0.6-0.5,0.3
			c0,0.2,0.1,0.4,0.1,0.7c-0.5,0.5,0.2-0.7-0.4-0.4c0.2,0.1,0.1,0.9,0.1,1.5c0.4,0,0.4-1.1,0.4-1.6c0.5,0.1,0.8,1.1,0.7,2.3
			c-0.2,0.9-0.5,0.3-0.4,0.5c-0.7,1.7,0.4,1.8-0.5,3c-0.5,0.4-0.6-0.2-0.9-0.2c0.2-0.8,0.6-1,0.8-1.5L84,45.4c0-0.3,0.1-0.8,0.3-1
			c-0.4,0.4-1.1,2.8-1.9,3.9c0,0.3-0.1,0.7,0.1,0.6l0.1-0.4c0.4-0.3,0,0.9,0.4,0.4c-0.1,0.6-0.1,1.3-0.6,2H82c0.1,0,0.4-0.4,0.4-0.6
			c0,0.4-1,0.9-0.7,1.5l0.5-0.4c-0.1,0.6,0,1.4-0.5,2c0.5-0.1,0-0.2,0.7-0.4c-0.7,0.2,0.9-1.7,0-1.3c0.7-0.3,0.6-0.7,1.3-1.2
			c-0.1,0-0.3,0.1,0-0.4c0,0,0-0.1,0-0.2l0,0l0,0l0,0c-0.1,0.1-0.2,0.2-0.3,0.2c-0.4-0.4,0-1.3,0-1.7c0.2-0.3,0.1,0.2,0.3,0.1v-0.5
			c0.3,0.1,0.8-0.7,0.6,0.1l0.3-0.7c0.3-0.4,0.6-0.9,0.6-1.3c0.2-0.3,0-1,0.1-0.6c0.1-0.4,0.2-0.8,0.2-1.2h0.1
			c0.2-0.6,0.3-1.2,0.4-1.8s0.3-1.3,0.7-1.9c0-0.4,0.1-0.8,0.3-1.5l0.3-0.1c0-0.5,0.6-1.5,0.3-1.8c0.8-0.5,0.5-2.6,0.6-3.5l-0.3-0.1
			c0-0.7,0-1.3-0.2-2.1l-0.3,0.1c-0.1-0.3-0.1-0.8,0-1.3c0-0.5,0.1-1,0-1.6c0.1,0.1,0.1,0.3,0.1,0.5c0.3-0.7,0-1.4-0.2-2
			c-0.2-0.7-0.6-1.2-0.5-1.9c-0.2-0.3-0.2-0.5-0.2-0.7c0,0,0,0,0,0.1v-0.1c0-0.1,0-0.3,0-0.4c0,0.1,0,0.3,0,0.4
			c-0.1-0.2-0.2-0.5-0.4-0.8l0.2-0.2c0,0,0,0,0-0.1c0-0.4-0.2-0.2-0.4,0c-0.1-0.1-0.2-0.3-0.3-0.4c0.4-0.4-0.5-0.8-0.1-1.3
			c-0.2-0.1-0.4-0.4-0.6-0.8c-0.3-0.3-0.6-0.7-0.8-0.6c0.1,0,0-0.1,0.1,0c-0.1-0.4-0.3-0.7-0.6-0.9l0.2-0.3
			c-0.3-0.1-0.6-0.3-0.9-0.4c-0.1-0.5-0.1-0.8,0.4-0.6c-1.1-0.7-0.7-0.7-1.7-1.2l0.2-0.1c-0.2-0.3-0.9-0.5-0.9-0.8
			c-0.1-0.5-0.8-1.2-1.7-2c-0.9-0.8-2-1.5-2.8-2.2c0,0.8-0.7-0.8-1.1-0.3c0-0.2-0.3-0.4,0.1-0.4c-1-0.3-1.4-0.9-2.3-0.8
			c-0.1-0.2,0.3-0.2,0.2-0.3c-0.1,0-0.4,0-0.5-0.1c-0.1-0.1,0.2-0.1,0.4-0.1c-1.1-0.3-1.4,0.1-1.6,0.6c-0.5-0.4-0.8-0.4-1.2-0.2
			c-0.1-0.2-0.4-0.4,0.2-0.4c-0.2-0.1-0.7-0.2-1.3-0.3c-0.5-0.1-1-0.1-1.1,0.1c-0.1-0.1-0.5-0.1-0.6,0c-0.9-0.1-0.9-0.1-1.8-0.1
			l0.2,0.1c-0.3,0.5-0.7,0.1-1.4,0.2v-0.1c-0.8-0.1-0.9,0-1.1,0c-0.2,0.1-0.3,0.1-1.1,0.1l0.1,0.3c0,0.7-1.4-0.1-2.2,0.5l1,0
			c-0.4,0.3-1.6-0.4-2.1-0.3c-0.1,0,0.1-0.1,0.3-0.2c-1.4,0.2,0,0.4-0.8,0.9c-0.3-0.1,0-0.6-0.6-0.3c-0.4,0-1.3,1.5-2.3,1.7
			c0.3,0,0.5,0.1,0.2,0.4c-0.5,0.4-1.9,0.6-2,1.4c-0.1,0-0.1,0-0.2,0c-0.3,0.5-1.1,1.3-1.1,1.7c-0.5-0.2-1,0.5-1.4,1.1
			c-0.4,0.7-0.7,1.3-1,1l-0.9,1.3l-0.1-0.1c-0.6,0.8-0.6,1.2-0.6,1.7c-0.2,0.2-0.2,0-0.2-0.1c-0.4,0.6-0.7,1-0.8,1.3
			c-0.2,0.4-0.2,0.7-0.1,1.4l-0.3,0.1c0,0.2-0.3,0.7-0.6,1.3c-0.2,0.6-0.6,1.5-0.4,2.2c0,0-0.1-0.1-0.1-0.2c0,0.4,0,0.9-0.1,1.3
			c-0.1,0.5-0.2,0.9-0.3,1.3c-0.2,0.9-0.1,1.6,0.4,1.9l0.3,1c0-1.4,0.5,0.2,0.7-0.4c0.1,0.5-0.2,1.4-0.3,0.8v-0.1
			c-0.6-0.2,0,1.7-0.4,1.7c0.4,2.7,0.8,5.2,1.6,7.6l0.3-0.4l0.3,0.8c0,0.3-0.2,0.4-0.4-0.2c-0.1,0.4,0.6,0.9,0.7,0.9
			c0.3,1.2-0.7-0.3-0.6,0.1c0.1,0.2,0.1,0.3,0.2,0.5v-0.1c0.3,0.3,0.5,0.3,0.8,1c0.1,0.5-0.2,0.3-0.1,0.5c0,0,0,0.1,0.1,0.3
			c0.1,0.4,0.3,0.7,0.4,1l0.2-0.5c0.4,0.4,0.4,1,0.6,0.3c-0.3,0.9,1.5,3.8,1.5,4.3c0.6,0.5,0.8,1.1,1.2,1.8c0-0.2,0.3-0.5,0.6,0.1
			c-0.9,0.2,0.3,1.3,0,2.1c0.1-0.6,1.1,1.7,1.2,0.7c0.2,0.6-0.3,0.2-0.2,0.7c1,1.1,1.4,2.8,2.5,4.2c0.1,0,0.1-0.4,0.4-0.1v1.1
			c0.2,0.3,0.7-0.1,0.7,0.7c0-0.1,0.1-0.3,0.2-0.1c1.4,3.2,4.3,5.4,5.5,8.8c-0.1-0.5,0.1-0.3,0.3,0c-0.1-0.2,0.2-0.2,0.3-0.3
			l0.6,1.4c0.5,0,1,1.2,1.4,1.1l-0.2-0.3c0.8,0.2,0.3-1.3,0.8-1.6c-0.8-0.2-0.5-1.9-1.8-2.3c0-0.3,0.3,0,0.3-0.1
			c-0.4-0.1-0.6-0.3-0.9-0.9h0.1c-1.1-1.4-1.3-2.2-2.3-3.9L63,64c-0.2-0.4-0.2-0.5-0.2-0.7c-0.7-0.1,0.7,1,0,0.9
			c0.2-0.8-1.7-2.5-1.3-3.2c-0.4-0.5-0.2,0.4-0.5-0.2l0.1-0.2h-0.3c-0.2-0.4-0.1-0.7,0-0.8c0,0.1,0.2,0.2,0.3,0.3
			c-0.1-0.6-0.9-1.3-1-1.5l0.2,0.6c-1.1-1.4-2-3.4-3.2-4.7L57,54.8c-0.9-1-0.4-1-1.2-2.2h0.1c-0.3-0.2-0.5-0.5-0.7-0.9
			c0.3,0.2,0-0.8,0.3-0.4c-0.9-1.1-0.5-0.5-1.4-1.1l0.1-0.3c-0.3-0.2-0.5-0.2-0.8-0.8c0.4,0.4,0.1-0.6,0.6-0.1
			c-0.2-1.6-1.4-1.8-1-2.8c-0.9-0.4,0.2,1.3-0.1,1c-0.1,0.4-0.7-0.3-0.8-0.8c-0.2-0.5,0.4-1.1,0-2.2c0,0.1,0.1,0.1,0.1,0.2
			c0-0.5-0.5-0.7-0.5-1.4c-0.5-0.1-0.2-0.7-0.7-0.6c0.2,0.3,0.3,0.7,0.5,1c-0.4-0.5-1.1-0.9-1.2-2c0.1,0,0.4,0.3,0.5,0.5
			c0-0.3-0.3-0.5-0.3-0.9c0.5-0.1,0.5,1.2,1.1,1.7c0.1-0.4-0.8-1.1-0.1-0.9c-0.8-0.2-0.3-1.1-1.1-1.8h0.3c-0.1-0.1-0.3-0.3-0.4-0.6
			l0.5,0.3c-0.5-0.5-0.1-1.3-0.4-1.8c0.4,1.3-0.3,0.4-0.3,1c-0.8-1.5,0.5-1.1-0.1-2.8c0.1,0.2,0,0.9-0.2,0.6c0-0.3,0-0.8,0.1-1.1
			c-0.3-1.2-0.3,0.2-0.5-0.2c0.3-0.5-0.3-0.5-0.5-1.1l0.3-0.1c0-1.4-0.7-0.3-0.6-1.5l0.5,0.5L49,32.8l0.4,0.1
			c-0.4-0.7-0.3-0.9-0.2-1.5c-0.2,0.2-0.6-0.1-0.6-0.7c0.2-0.4,0.3,0.2,0.3-0.6c0.2,0.2,0.4,0.4,0.1,0.8c0.1,0,0.2,0.2,0.3,0.2
			c0.2-0.4,0.1-1.1,0.1-1.4c0,0.1,0,0.3-0.1,0.3l-0.4-1.2c0.1-0.2,0.2,0,0.3,0.1c0-0.2-0.1-0.4-0.1-0.8c0.2,0.1,0.5,0.1,0.5,0.6
			l-0.1-1.1c0.1-0.1,0.4-0.5,0.4-0.4c0.1-0.3,0.1-0.7,0.1-1.1s0-0.9,0.2-1.2c0-0.1,0-0.1,0-0.3c0.3-0.7,0.9-1.1,1-2.1
			c0.2-0.1,0.4-0.1,0.6-0.2c0.3-0.7-0.9,0.3-0.3-0.8c0.4-0.8,0.5-0.1,0.8-0.3c0-0.5,0.1-1.4,0.9-1.8C53,19.9,52.8,20.1,52.7,20.3z
			 M59.2,14.2c-0.1,0.1-0.3,0.5-0.5,0.4C58.6,14.2,58.9,14.2,59.2,14.2z M72.5,12.3c-0.2,0.1-0.3-0.1-0.5-0.2
			C72.1,12,72.3,12.1,72.5,12.3z M84.5,46.6L84.5,46.6C84.8,46.3,84.7,46.4,84.5,46.6z M84.1,47.4C84.1,47.5,84.1,47.5,84.1,47.4
			c0.1,0,0.1-0.2,0.2-0.4C84.2,47.1,84.1,47.2,84.1,47.4z M49.9,45.4v-0.2C50.1,45.6,50,45.5,49.9,45.4z"/>
		<path class="st0" d="M70.8,12.2c0-0.1,0-0.1,0-0.2C70.7,12.1,70.7,12.1,70.8,12.2z"/>
		<path class="st0" d="M50.2,25.2L50.2,25.2L50.2,25.2L50.2,25.2z"/>
		<path class="st0" d="M84.9,34c0.1-0.2,0.1-0.3,0.2-0.3C85,33.6,84.9,33.7,84.9,34z"/>
		<path class="st0" d="M82.7,52l0.2-0.6c-0.1,0.3-0.2,0.3-0.3,0.4C82.6,51.8,82.8,51.8,82.7,52z"/>
		<path class="st0" d="M78.7,55.4c0,0.1-0.1,0.2-0.1,0.2l0.1,0.1C78.9,55.4,78.9,55.1,78.7,55.4z"/>
		<path class="st0" d="M81.5,52c-0.3-0.1-0.3,0.3-0.5,0.7c0,0,0,0,0-0.1C81.4,52.8,81.5,52.4,81.5,52z"/>
		<path class="st0" d="M81,52.7c0,0.1-0.1,0.2-0.2,0.3C81,53.1,81,52.9,81,52.7z"/>
		<path class="st0" d="M83.9,48.5c-0.1,0.1,0.3,0.2,0.1,0.3C84.1,49.2,84,47.5,83.9,48.5z"/>
		<polygon class="st0" points="80.6,51.9 81,51.9 80.9,51.6 		"/>
		<path class="st0" d="M82.2,49.2l-0.3,0.5c0.1,0,0,0.1,0,0.2C82.1,49.6,82.3,49.2,82.2,49.2z"/>
		<path class="st0" d="M81.9,49.9c-0.1,0.2-0.2,0.4-0.2,0.5C81.8,50.3,81.9,50.1,81.9,49.9z"/>
		<polygon class="st0" points="80.9,51.1 81.1,50.9 81.3,50.5 		"/>
		<path class="st0" d="M84.6,43l0.1-0.7c-0.1-0.1-0.2,0.1-0.2,0.3C84.5,42.8,84.5,43.1,84.6,43z"/>
		<path class="st0" d="M83.2,44.7c0.1-0.1,0.2-0.1,0.3-0.2l-0.4-0.2L83.2,44.7z"/>
		<path class="st0" d="M83.8,42.8c-0.1-0.1,0-1-0.2-0.2C83.6,42.7,83.5,43.3,83.8,42.8z"/>
		<polygon class="st0" points="86,33 86,33.2 86.7,33.2 		"/>
		<path class="st0" d="M83.4,24.7c0.1,0.8,0.4,0,0.5,0.8c0.2,0.1,0-0.6,0.2-0.4C83.7,24.7,83.7,24.4,83.4,24.7z"/>
		<path class="st0" d="M84,25c0,0.1,0.1,0.1,0.2,0.2C84,25.1,84,25.1,84,25z"/>
		<polygon class="st0" points="66.1,72.6 66.4,73.1 66.3,72.7 		"/>
		<path class="st0" d="M67.2,73.1L67,73.5h0.5C67.3,73.4,67.1,73.3,67.2,73.1z"/>
		<path class="st0" d="M60.7,14.3L60.7,14.3c-0.1-0.2-0.2-0.1-0.4,0H60.7z"/>
		<polygon class="st0" points="55.4,17.6 55.4,17.5 55,17.4 		"/>
		<path class="st0" d="M52.4,22.1c0.1-0.2,0.2-0.4,0.3-0.6C52.5,22,52,21.9,52.4,22.1z"/>
	</g>
	<g>
		<path class="st0" d="M81.6,31c0,0.1,0.2,0.1,0.3,0.1C81.8,30.9,81.5,31,81.6,31z"/>
		<polygon class="st0" points="80.8,29 80.9,29 80.6,28.7 		"/>
		<path class="st0" d="M80.4,27.1c-0.4,0.3,0.2,0.7,0.2,1l-0.1,0.1l0.4,0.1C80.7,27.9,80.4,27.4,80.4,27.1z"/>
		<path class="st0" d="M81,25.8c-0.1,0.1-0.2-0.2,0,0.3c0,0,0,0,0-0.1S81,25.9,81,25.8z"/>
		<path class="st0" d="M81,26C81.1,26.2,81.1,25.8,81,26L81,26z"/>
		<path class="st0" d="M80.5,25.2l0.3,0.2c0.1-0.1,0-0.3,0.1-0.3C80.7,24.9,80.6,25,80.5,25.2z"/>
		<path class="st0" d="M80.1,25.1L80.1,25.1C80.3,25.1,80.3,25.1,80.1,25.1z"/>
		<path class="st0" d="M80.5,25.3l-0.3-0.2c0,0.1-0.2,0.1,0.1,0.1C80.2,25.3,80.4,25.3,80.5,25.3z"/>
		<path class="st0" d="M80.5,25.5c0,0.2,0,0.4-0.3,0.2C80.5,26.2,80.8,26,80.5,25.5z"/>
		<path class="st0" d="M79.9,27.1c0,0.1,0,0.1-0.1,0.2l0.2,0.1C79.9,27.4,80.1,27.1,79.9,27.1z"/>
		<path class="st0" d="M79.9,23.5c-0.1,0-0.2,0.2-0.3,0.3l0.2,0.1C79.8,23.8,79.8,23.6,79.9,23.5z"/>
		<path class="st0" d="M79.6,23.8l-0.3-0.2C79.4,23.9,79.5,23.9,79.6,23.8z"/>
		<polygon class="st0" points="79.6,25.3 80.2,25.5 79.6,25.2 		"/>
		<polygon class="st0" points="79.2,22.5 79.5,22.5 79,22.4 		"/>
		<path class="st0" d="M78.7,21.9c0.2,0,0.1-0.3,0.3-0.3c-0.2-0.1-0.4-0.2-0.6-0.2C78.5,21.4,78.6,21.6,78.7,21.9z"/>
		<path class="st0" d="M78,21.3c0.1,0,0.2,0,0.3,0.1C78.2,21.3,78.1,21.3,78,21.3z"/>
		<path class="st0" d="M79.1,23.2c0-0.1,0.1-0.2,0.1-0.4L79.1,23.2C79,23.1,79,23.1,79.1,23.2z"/>
		<path class="st0" d="M79,23.1L79,23.1c-0.1-0.1-0.1-0.2-0.1-0.2S78.9,22.9,79,23.1z"/>
		<path class="st0" d="M79.1,23.2L79.1,23.2L79.1,23.2z"/>
		<path class="st0" d="M79.5,24.4c-0.2-0.1-0.5-0.3-0.6,0.1C79.2,24.6,79.2,24.3,79.5,24.4z"/>
		<path class="st0" d="M78.9,23.5c0,0.1,0.1,0.2,0.1,0.3c0.1,0,0.1-0.2,0.2-0.1C79.1,23.6,79,23.6,78.9,23.5z"/>
		<polygon class="st0" points="78.7,23.4 78.9,23.5 78.8,23.4 		"/>
		<path class="st0" d="M78.2,21.9c-0.2,0-0.3-0.1-0.4-0.3c0.1,0.2,0.2,0.3,0.3,0.5C78.2,22.1,78.3,22,78.2,21.9z"/>
		<path class="st0" d="M78.6,22.5L78.6,22.5C78.5,22.5,78.5,22.5,78.6,22.5z"/>
		<polygon class="st0" points="76.5,20.4 76.5,20.5 76.5,20.5 		"/>
		<path class="st0" d="M78.1,22.1c0.1,0.1,0.2,0.2,0.3,0.2C78.2,22.3,78.2,22.2,78.1,22.1C78,22.1,78,22.1,78.1,22.1z"/>
		<path class="st0" d="M77.6,21c0,0.1,0,0.2,0.1,0.3C77.6,21.2,77.6,21,77.6,21z"/>
		<path class="st0" d="M78.6,22.4L78.6,22.4C78.6,22.3,78.6,22.3,78.6,22.4z"/>
		<path class="st0" d="M78.6,22.4c-0.1,0-0.2,0-0.2,0S78.5,22.4,78.6,22.4L78.6,22.4z"/>
		<path class="st0" d="M75,21.5c0.2-0.2,0.6-0.2,0.6,0.2c0.3,0,0.7-0.7,0.8-1.2c-0.1,0.1-0.1,0.1-0.5,0.1c0,0.2,0.3,0.7,0,0.7
			c-0.4-0.2-0.2-0.3-0.3-0.5c-0.1,0.3-0.7,0.1-0.9,0.5L75,21.5C75.2,21.4,75,21.4,75,21.5z"/>
		<path class="st0" d="M76.9,20.9L76.9,20.9c0,0,0-0.2,0-0.5c-0.2-0.1-0.3,0-0.4,0L76.9,20.9L76.9,20.9z"/>
		<path class="st0" d="M77.5,21.4c-0.3,0.1-0.6,0-0.6,0.3c0.3,0.2,0.3,0,0.6,0.1C77,21.4,77.7,21.9,77.5,21.4
			c0.1,0.1,0.2,0.2,0.3,0.2c-0.1-0.1-0.1-0.2-0.1-0.3l0,0l0,0l0,0c0,0,0,0.1,0,0L77.5,21.4C77.6,21.4,77.5,21.4,77.5,21.4
			C77.4,21.2,77.5,21.3,77.5,21.4L77.5,21.4L77.5,21.4c-0.1-0.2-0.3-0.3-0.5-0.4C77.1,21.1,77.3,21.2,77.5,21.4z"/>
		<path class="st0" d="M78.3,24.6L78.3,24.6C78.3,24.5,78.2,24.5,78.3,24.6z"/>
		<path class="st0" d="M78.3,24.3c0.1,0,0.2,0,0.2,0.1s-0.1,0.1-0.2,0.1c0.1,0,0.3,0.1,0.3-0.1h-0.1c0-0.2,0.1-0.7,0.1-0.7
			C78.5,23.9,78.4,24,78.3,24.3z"/>
		<path class="st0" d="M77.9,22.9c-0.1-0.1-0.3-0.2-0.4-0.3v0.3l0.1-0.1C77.7,23.1,77.8,22.9,77.9,22.9z"/>
		<path class="st0" d="M76.6,20.3l0.2-0.2c-0.2,0-0.3,0.1-0.5,0.1L76.6,20.3z"/>
		<polygon class="st0" points="76,19.9 76.2,19.7 75.9,19.7 		"/>
		<path class="st0" d="M58.3,36.6L58.3,36.6C58.3,36.7,58.3,36.6,58.3,36.6z"/>
		<path class="st0" d="M57.9,35.9L57.9,35.9L57.9,35.9z"/>
		<path class="st0" d="M60.3,19.2c-0.3-0.1-0.7-0.2-0.6,0l0.2,0.2C60.1,19.3,60.2,19.2,60.3,19.2z"/>
		<path class="st0" d="M55.5,28.7L55.5,28.7c0-0.1-0.1-0.2-0.1-0.2C55.4,28.5,55.5,28.6,55.5,28.7z"/>
		<path class="st0" d="M56.6,29l-0.2,0.2C56.5,29.2,56.5,29.1,56.6,29z"/>
		<path class="st0" d="M61.7,39.9l0.3-0.2C61.8,39.6,61.8,39.8,61.7,39.9z"/>
		<path class="st0" d="M69.6,17.3c-0.2-0.1-0.3-0.2-0.5-0.2C69.4,17.3,69.5,17.6,69.6,17.3z"/>
		<path class="st0" d="M55.5,37.7c0.1,0.1,0.2,0.1,0.2,0C55.6,37.7,55.6,37.7,55.5,37.7z"/>
		<path class="st0" d="M68.6,17.1C68.6,17.1,68.7,17.1,68.6,17.1c0.2,0,0.4,0,0.6,0C69,17,68.8,16.9,68.6,17.1z"/>
		<path class="st0" d="M76.6,37.2C76.6,37.1,76.7,37.1,76.6,37.2C76.6,37.1,76.6,37.1,76.6,37.2z"/>
		<path class="st0" d="M81.1,32.9c0,0.1,0,0.2,0,0.3C81.1,33.2,81.2,33.1,81.1,32.9z"/>
		<path class="st0" d="M73.7,18.4C73.8,18.4,73.7,18.3,73.7,18.4L73.7,18.4z"/>
		<path class="st0" d="M73.8,19.6C73.8,19.6,73.7,19.6,73.8,19.6C73.7,19.7,73.8,19.6,73.8,19.6z"/>
		<path class="st0" d="M67.2,18.8L67.2,18.8L67.2,18.8z"/>
		<path class="st0" d="M73.8,18.6c0-0.1-0.1-0.1-0.1-0.2C73.7,18.5,73.7,18.5,73.8,18.6z"/>
		<path class="st0" d="M73.9,18.4L73.9,18.4C74,18.5,74,18.5,73.9,18.4z"/>
		<path class="st0" d="M73.6,18.3c0.1,0,0.1,0.1,0.2,0.1c0,0,0,0,0-0.1C73.7,18.3,73.7,18.3,73.6,18.3z"/>
		<path class="st0" d="M69.2,42.6L69.2,42.6C69.3,42.5,69.3,42.5,69.2,42.6z"/>
		<path class="st0" d="M59.5,23.6L59.5,23.6L59.5,23.6L59.5,23.6z"/>
		<path class="st0" d="M59.4,24c-0.1-0.4,0-0.4,0.1-0.5l-0.7-0.4C59,23.4,59.2,23.7,59.4,24z"/>
		<path class="st0" d="M59.6,38.3v-0.4c0.5,0,0.6,0.2,0.7-0.2c-0.7,0.6-0.7-0.7-1.4-0.3v-0.3c0,0,0.1,0,0.1,0.1
			c0.1-0.5-0.7,0.1-0.8-0.4c0-0.2,0-0.3,0.2-0.3L58,36.3c0-0.1,0.1-0.1,0.1-0.1c-0.1-0.2-0.2-0.3-0.3-0.5l0,0
			c-0.2,0-0.4-0.1-0.5-0.1c0-0.2,0.1,0,0.2,0c-0.1-0.1-0.2-0.1-0.3-0.2c0.2-0.2,0.5,0,0.5,0.2c0.7-0.6-0.3-0.1-0.1-0.9l0.2,0.2
			c0.4-0.3,0.2-0.5,0.3-0.9c-0.1,0.1-0.5,0.8-0.8,0.6c0-0.1,0-0.2-0.2-0.4c0.3-0.1,0.2-0.2,0.1-0.5l0.4-0.1
			c-0.2-0.2-0.4-0.1-0.6-0.2c0-0.3,0.3-0.4,0.5-0.5c0-0.4-0.5,0.4-0.6-0.1c0.1-0.4-0.1-0.6-0.4-1c0.1-0.3,0.2,0,0.4-0.1l-0.4,0
			c0-0.1,0.1,0,0.2,0c-0.1-0.2-0.4,0-0.5-0.3c-0.5-0.1,0.6-0.6,0.2-1c0.1-0.1,0.2,0.1,0.4,0c-0.3-0.5-0.2-0.4-0.6-0.9l0.3-0.3
			c-0.3,0.2-0.6-0.2-0.9-0.6c-0.2,0.1-0.3,0.1-0.4,0.2c0-0.2-0.1-0.4-0.1-0.6c0.1,0,0.2,0,0.3,0.2c0,0,0-0.1-0.1-0.1
			c0.2-0.1,0.4,0,0.6,0.2c-0.1,0-0.2,0.1-0.3,0.1c0.2,0.2,0.5,0.3,0.7,0.4c0,0-0.1-0.1-0.1-0.2c0.1,0,0.1,0.1,0.2,0.1
			c0,0,0-0.1-0.1-0.2h0.5l-0.2-0.2l0.4-0.5c-0.3-0.5-0.8-1.1-0.7-1.9c0.2,0.3,0.5,0.2,0.8,0.4c-0.5,0,0,0.6-0.2,0.9
			c0.1-0.2,0.3-0.1,0.3,0l-0.1-0.7c0.3,0.1,0.3,0,0.5-0.1c-0.6-0.1-0.2-0.6-0.2-0.9c0.2,0.1,0.4,0.2,0.2,0.5
			c0.6-0.1-0.5-0.8,0.1-0.9c0,0.1-0.1,0.1,0,0.2c-0.1-0.3,0.3-0.6,0.4-0.4v0.1c0.3-0.4,0.9-1.3,0.6-1.7c0.1,0,0.5,0.5,0.5,0.6
			c-0.3-0.6-0.5-1.3-0.7-1.9c0.3,0.4,1.3,0.9,1.2,1.4c0.1,0,0.3-0.1,0.4-0.4c-0.1,0-0.6-0.3-0.6-0.4c0.6,0.1,0.4,0,1,0.1
			c-0.2,0-0.5-0.6-0.4-0.8c0,0.1,0.5,0.5,0.5,0.6c0-0.3-0.1-0.6-0.1-0.9c0,0.2,0.4,0.5,0.6,0.6c-0.1-0.1,0.3-0.2,0.4-0.4h-0.3
			c0.5-0.3-0.1-1.2,0.4-1.4c0,0.2,0.3,0.9,0.6,0.8c-0.1-0.4-0.3-1.8,0.1-2.3l0.2,0.1c0.1-0.1,0.2-0.3,0.3-0.4
			c-0.1,0.6-0.2,2-0.3,2.5c0.3,0.1,0.2,0.2,0.4,0c0.2,0.1,0,0.3-0.1,0.4l0.7-0.2c-0.2-0.4,0.3-0.6,0.2-0.9c-0.2,0.2-0.4,0.5-0.5,0.7
			c-0.2-0.4-0.1-1.3,0.5-1.4c0.2,0.1,0.2,0.7,0.2,0.9c0-0.2,0.4-0.4,0.4-0.4l-0.1,0.3c0.3,0.1,0.3-0.7,0.7-0.4
			c0.1,0,0.5,0.4,0.4,0.2c-0.3-0.4-0.7-1.9-0.7-2.3c0.1,0,0.8,0.3,1,0.5c0.3,0.3-0.2,0.9,0.1,1.2c0-0.1,0.1-0.3,0.1-0.3
			c0.1,0.1,0,0.4,0.3,0.3c0-0.4,0.6-0.1,0.1-0.4c0.3-0.2,0.3,0,0.6,0c-0.1-0.3,0.2-1,0.5-1.1c0,0.1,0.1,0.3,0.1,0.3
			c0.6,0,0.9,0.3,1.5,0.3c0,0.1,0.3,0.2,0.2,0.4c0.1-0.1,0.2-0.2,0.3-0.2c0.3,0.4-0.4,0-0.2,0.5c0-0.2,0.5-0.3,0.7-0.4
			c0-0.4-0.5-0.2-0.8,0c0-0.5,0.5-1,1.2-1.2c0.5,0,0.1,0.4,0.2,0.3c0.9,0.3,1-0.7,1.7-0.1c0.2,0.4-0.2,0.6-0.2,0.9
			c-0.4,0-0.5-0.4-0.8-0.5l0.3,0.2c-0.2,0.1-0.4,0.1-0.5,0c0.2,0.3,1.4,0.5,1.9,1c0.2-0.1,0.4-0.1,0.4-0.2L73,19.8
			c-0.1-0.3,0.5-0.2,0.3-0.4c0.3,0,0.8-0.2,1.1,0.2l-0.2,0.3c0.1-0.1-0.1-0.3-0.3-0.3c0.2-0.1,0.3,0.8,0.7,0.5l-0.1-0.4
			c0.4,0,0.9-0.2,1.2,0.2c0.1-0.4-0.1,0-0.1-0.6c-0.1,0.6-0.9-0.6-0.8,0.1c0-0.6-0.3-0.5-0.4-1c0,0.1,0,0.3-0.3,0.1l-0.1,0.1l0,0
			l0,0l0,0c0,0.1,0.1,0.2,0.1,0.2c-0.3,0.2-0.8,0-1,0c-0.2-0.1,0.1-0.1,0.1-0.3c-0.1,0-0.2,0.1-0.3,0.1c0.1-0.3-0.3-0.6,0.2-0.6
			l-0.5-0.1c-0.2-0.2-0.5-0.4-0.7-0.4c-0.2-0.1-0.6,0.2-0.4,0h-0.7v-0.1c-0.3-0.1-0.7,0-1,0c-0.4,0-0.7-0.1-1.1-0.3
			c-0.2,0.1-0.5,0.1-0.8,0l-0.1-0.2c-0.3,0.1-0.9-0.2-1,0c-0.4-0.7-1.4,0-2,0v0.3c-0.3,0-0.7,0.2-1,0.5l0.1,0.3
			c-0.3,0.3-0.9,0.1-1.5,0.3c0-0.1,0.1-0.1,0.3-0.1c-0.4-0.2-0.8,0.1-1,0.4c-0.3,0.3-0.5,0.6-0.9,0.5c-0.1,0.2-0.2,0.2-0.3,0.2l0,0
			c0,0,0,0-0.1,0c-0.1,0-0.2,0-0.3,0c0.1,0,0.2,0,0.2,0c-0.1,0.1-0.2,0.2-0.4,0.3l-0.2-0.2l0,0c-0.2,0,0,0.2,0.2,0.3
			c-0.1,0.1-0.1,0.2-0.1,0.3c-0.4-0.3-0.3,0.4-0.7,0.1c0,0.1-0.1,0.3-0.2,0.5c-0.1,0.2-0.2,0.4,0,0.7c-0.1,0-0.1,0,0-0.1
			c-0.2,0.1-0.4,0.2-0.4,0.4l-0.3-0.2c0,0.2,0,0.4,0.1,0.7c-0.3,0-0.5,0-0.6-0.4c-0.1,0.8-0.2,0.5-0.2,1.2l-0.2-0.2
			c-0.1,0.2,0,0.6-0.2,0.6c-0.7,0-1.2,1.7-2,2.5c0.8,0.1-0.5,0.3,0,0.6c-0.2,0-0.3,0.1-0.4-0.1c0,0.6-0.6,0.7-0.2,1.2
			c-0.2,0-0.2-0.2-0.3-0.2c0,0.1,0.1,0.2,0,0.2c-0.1,0-0.1-0.1-0.2-0.2C54,27.8,54.5,28,55,28.1c-0.3,0.2-0.3,0.4,0,0.6
			c-0.2,0.1-0.4,0.2-0.4-0.2c-0.1,0.2-0.4,1.2,0,1.2c-0.1,0.1,0,0.3,0,0.3c0,0.4-0.1,0.5-0.1,0.9l0.1-0.1c0.5,0.2,0.1,0.3,0.2,0.7
			h-0.1c-0.3,0.8,0.2,0.3-0.2,1.1l0.3-0.1c0.7,0-0.3,0.7,0,1.1l0.1-0.2c0.2,0.2-0.7,0.9-0.7,1.1c0,0.1-0.1-0.1-0.2-0.1
			c-0.2,0.8,0.4,0,0.6,0.4c-0.2,0.2-0.6,0-0.5,0.4c-0.1,0.2,1,0.7,0.8,1.3c0.1-0.2,0.2-0.3,0.4-0.2c0.2,0.3-0.2,1.2,0.5,1.2
			c0,0.1,0,0.1-0.1,0.1c0.3,0.2,0.6,0.6,1,0.6c-0.4,0.4,0,0.7,0.3,0.9s0.7,0.4,0.3,0.7l0.6,0.6l-0.1,0.1c0.3,0.4,0.6,0.4,0.9,0.3
			c0,0.1-0.1,0.1-0.1,0.2c0.4,0.7,0.6,0.7,1.4,0.7l-0.1,0.3c0.2,0,0.7,1,1.5,1.1l-0.1,0.1c0.5,0,0.8,0.5,1.2,0.7
			c0.4,0.3,0.8,0.4,1.1-0.1c0.2,0,0.4-0.1,0.6-0.1c-0.7-0.3,0.2-0.5,0-0.7c0.3,0,0.6,0.5,0.2,0.5v-0.1c-0.3,0.5,0.8,0.4,0.7,0.8
			c1.4,0.2,2.8,0.6,4.2,0.5L69,44.2c0.2,0,0.3,0,0.5,0c0.1,0.1,0.2,0.3-0.1,0.4c0.2,0.2,0.5-0.3,0.5-0.4c0.7,0.1-0.2,0.6,0,0.6
			l0.3-0.1h-0.1c0.2-0.2,0.2-0.4,0.6-0.5c0.3,0,0.2,0.2,0.3,0.2c0,0,0,0,0.2,0l0.6-0.1L71.5,44c0.2-0.2,0.5-0.1,0.2-0.4
			c0.3,0.3,0.8,0.1,1.3-0.1c0.5-0.2,0.9-0.5,1.1-0.4c0.2-0.4,0.5-0.6,0.9-0.8c-0.1,0-0.4-0.3-0.1-0.5c0.4,0.8,0.8-0.1,1.4,0.2
			c-0.5-0.1,0.8-0.8,0.1-0.9c0.3-0.2,0.2,0.2,0.5,0.2c0.4-0.7,1.4-1,1.9-1.9c-0.1-0.1-0.3-0.1-0.3-0.3l0.7-0.1
			c0.1-0.2-0.4-0.5,0.1-0.6c-0.1,0-0.3,0-0.2-0.2c0.7-0.6,1.1-1.5,1.4-2.4c0.1-0.5,0.3-0.9,0.5-1.3c0.2-0.4,0.4-0.9,0.7-1.3
			c-0.3,0.2-0.2,0-0.2-0.1c-0.1,0.1-0.3,0-0.4,0c0.2-0.2,0.4-0.5,0.5-0.7c-0.4-0.2,0-0.9-0.4-0.9l0.1,0.2c-0.5-0.3-1.1,0.4-1.7,0.3
			c0.5,0.4-0.9,0.7-0.2,1.4c-0.1,0.1-0.2-0.1-0.3-0.1c0.2,0.2,0.2,0.3,0.1,0.6H79c-0.1,0.8-0.5,1.1-1,1.8l0.3,0.1
			C78.2,36,78.1,36,78,36c0.3,0.4,0.3-0.5,0.6-0.1c-0.3,0-0.5,0.3-0.6,0.6c-0.2,0.3-0.4,0.6-0.7,0.4c-0.2,0.3,0.3,0.1,0.2,0.4h-0.2
			l0.2,0.2c-0.1,0.2-0.4,0.1-0.5,0c0,0,0-0.1,0.1-0.2c-0.3,0.1-0.4,0.6-0.5,0.6l0.3-0.2c-0.3,0.8-1.2,1.3-1.5,2.1l0.1,0.1
			c-0.3,0.6-0.5,0.2-0.9,0.7l0,0c0,0.2-0.1,0.4-0.3,0.4c0.1-0.2-0.4-0.1-0.4-0.4c-0.4,0.6-0.2,0.4-0.3,1l-0.2-0.2
			c0,0.3,0,0.4-0.3,0.6c0.2-0.3-0.3-0.2-0.2-0.6c-0.8-0.2-0.8,0.9-1.3,0.3c-0.1,0.7,0.7,0.1,0.6,0.3c0.2,0.1-0.1,0.6-0.3,0.6
			c-0.2,0.1-0.6-0.7-1.2-0.5c0.1,0,0-0.1,0.1-0.1c-0.2-0.1-0.3,0.3-0.7,0.1c-0.1,0.4-0.3,0-0.3,0.5l0.5-0.2c-0.3,0.2-0.5,0.8-1,0.6
			c0-0.1,0.2-0.3,0.3-0.4c-0.2-0.1-0.3,0.1-0.4,0c0-0.5,0.6-0.2,0.9-0.6c-0.2-0.2-0.5,0.4-0.4-0.1c-0.1,0.7-0.5,0-0.9,0.5v-0.3
			c-0.1,0.1-0.2,0.2-0.3,0.2l0.2-0.4c-0.3,0.3-0.6-0.2-0.9-0.1c0.6,0,0.1,0.4,0.4,0.6c-0.8,0.4-0.4-0.8-1.2-0.7
			c0.1,0,0.4,0.2,0.2,0.3c-0.2-0.1-0.3-0.2-0.4-0.4c-0.5,0,0,0.3-0.2,0.5c-0.1-0.4-0.3,0.1-0.6,0.2l0.1-0.3
			c-0.6-0.3-0.3,0.6-0.8,0.2l0.3-0.4h-0.3l0.1-0.3c-0.9,0.2-1,0.2-1.3,0c0,0.2-0.2,0.5-0.5,0.4c-0.1-0.2,0.2-0.2-0.2-0.3
			c0.2-0.1,0.3-0.3,0.4,0c0.1-0.1,0.1-0.2,0.2-0.2c-0.1-0.3-0.5-0.2-0.6-0.3l0.1,0.1c-0.2,0.1-0.5,0.1-0.7,0.2
			c0-0.1,0.1-0.2,0.2-0.2c-0.1,0-0.2,0.1-0.4,0c0.1-0.2,0.3-0.4,0.5-0.4h-0.6c0-0.1-0.1-0.4,0-0.4c-0.2-0.3-0.9,0.1-1.1-0.3
			c0,0-0.1,0-0.2,0c-0.3-0.3-0.3-0.7-0.9-0.7l0.1-0.5c-0.3-0.2-0.1,0.6-0.7,0.4c-0.4-0.2,0.2-0.4,0.1-0.6c-0.3,0-0.9,0-0.9-0.5
			C59.4,38.1,59.5,38.2,59.6,38.3z M57.2,34.8c0.1,0.1,0.3,0.1,0.2,0.3C57,35.1,57.2,35,57.2,34.8z M56.3,28.1
			c0.1,0.1,0,0.2-0.1,0.3C56.1,28.3,56.1,28.2,56.3,28.1z M72.2,18L72.2,18C72,17.8,72.1,17.9,72.2,18z M72.6,18.3
			C72.7,18.3,72.7,18.2,72.6,18.3c0,0-0.1-0.1-0.2-0.1C72.4,18.2,72.5,18.3,72.6,18.3z M70.9,44.4L70.9,44.4
			C71,44.2,71,44.3,70.9,44.4z"/>
		<path class="st0" d="M56.5,29c-0.1,0-0.1,0-0.2,0C56.4,29,56.4,29,56.5,29z"/>
		<path class="st0" d="M61.6,39.9L61.6,39.9C61.6,39.9,61.7,39.9,61.6,39.9L61.6,39.9z"/>
		<path class="st0" d="M65.7,20.1c-0.1,0-0.1-0.1-0.2-0.1C65.5,20.1,65.6,20.1,65.7,20.1z"/>
		<path class="st0" d="M75.1,19l-0.3-0.1C74.9,19,75,19.1,75.1,19C75,19,75,18.9,75.1,19z"/>
		<path class="st0" d="M76,22.1C76.1,22.1,76.1,22.2,76,22.1h0.2C76.1,21.9,75.9,21.9,76,22.1z"/>
		<path class="st0" d="M74.8,20c-0.1,0.2,0.1,0.2,0.3,0.3l0,0C75.3,20,75,20,74.8,20z"/>
		<path class="st0" d="M75.1,20.3c0.1,0,0.1,0.1,0.2,0.1C75.4,20.3,75.2,20.4,75.1,20.3z"/>
		<path class="st0" d="M73.3,18.4c0.1,0.1,0.2-0.3,0.2-0.2C73.7,17.9,72.7,18.3,73.3,18.4z"/>
		<polygon class="st0" points="74.5,20.8 74.6,20.5 74.3,20.6 		"/>
		<path class="st0" d="M73.3,19.8l0.2,0.2l0.1-0.1C73.5,19.9,73.4,19.7,73.3,19.8z"/>
		<path class="st0" d="M73.7,20c0.1,0.1,0.2,0.1,0.2,0.1C73.8,20,73.7,20,73.7,20z"/>
		<polygon class="st0" points="74,20.6 74,20.5 73.8,20.4 		"/>
		<path class="st0" d="M70.1,18.6h-0.4c-0.1,0.1,0,0.2,0.2,0.2C70,18.8,70.1,18.7,70.1,18.6z"/>
		<path class="st0" d="M70.9,19.7c-0.1-0.1-0.1-0.2-0.1-0.3l-0.1,0.4L70.9,19.7z"/>
		<path class="st0" d="M69.9,19.6c-0.1,0.1-0.5,0.2-0.1,0.3C69.9,19.8,70.2,19.7,69.9,19.6z"/>
		<polygon class="st0" points="65,19.1 65.1,19.1 64.9,18.5 		"/>
		<path class="st0" d="M61.8,22.2c0.4,0-0.1-0.4,0.2-0.4c0-0.2-0.3,0-0.3-0.2C61.6,21.9,61.5,21.9,61.8,22.2z"/>
		<path class="st0" d="M61.8,21.6L61.8,21.6C61.8,21.6,61.8,21.6,61.8,21.6z"/>
		<polygon class="st0" points="81.6,31.9 81.7,31.6 81.5,31.8 		"/>
		<path class="st0" d="M81.1,31.4l0.4-0.1l-0.4-0.2C81.2,31.2,81.2,31.3,81.1,31.4z"/>
		<path class="st0" d="M57.8,34L57.8,34c-0.2,0-0.2,0.1-0.2,0.2L57.8,34z"/>
		<polygon class="st0" points="58.7,36.7 58.7,36.6 58.5,36.9 		"/>
		<path class="st0" d="M60.7,38.3c-0.1-0.1-0.2-0.1-0.3-0.2C60.6,38.2,60.4,38.6,60.7,38.3z"/>
	</g>
	<g>
		<path class="st0" d="M3.2,86.5c0.5-0.1,1.1-0.3,0.8-0.6c-0.5,0.2-0.6,0.1-1.2,0.4c-0.4,0-0.8-0.1-0.7-0.2c-0.2,0.2-0.7,0-0.9,0.2
			C1.8,86.5,2.5,86.5,3.2,86.5C3.4,86.4,3.2,86.5,3.2,86.5z"/>
		<path class="st0" d="M42.5,94.1l-0.2-0.2C42.3,94,42.4,94,42.5,94.1z"/>
		<path class="st0" d="M66.4,99.8c-0.2,0-0.3,0-0.3,0.1C66.3,99.9,66.4,99.8,66.4,99.8z"/>
		<path class="st0" d="M70.9,99.8c-0.1,0-0.2,0-0.3,0C70.7,99.9,70.8,99.9,70.9,99.8z"/>
		<path class="st0" d="M42.5,94.1l0.5,0.5C43,94.5,42.7,94.3,42.5,94.1z"/>
		<path class="st0" d="M9,86c-0.1,0-0.3,0-0.4,0.1C8.7,86,8.8,86,9,86L9,86z"/>
		<path class="st0" d="M33,87.6l-0.2-0.1c-0.1,0-0.1,0-0.2,0C32.6,87.4,33,87.6,33,87.6z"/>
		<path class="st0" d="M24.7,87.2c0.2,0,0.3-0.2,0.3-0.3C24.9,87,24.7,87,24.6,87C24.6,87.1,24.7,87.2,24.7,87.2z"/>
		<path class="st0" d="M11,86.8h-0.2C10.8,86.9,10.9,86.9,11,86.8z"/>
		<path class="st0" d="M38.1,91.3L38.1,91.3C38.2,91.4,38.1,91.3,38.1,91.3z"/>
		<path class="st0" d="M8.2,80L8.2,80C8.2,80,8.2,80.1,8.2,80z"/>
		<path class="st0" d="M78,100.1L78,100.1C77.8,100,77.9,100,78,100.1z"/>
		<path class="st0" d="M113.6,63.7c0.5,0.7-1.2-0.7-0.4,0.3C113.2,63.8,114.4,64.5,113.6,63.7z"/>
		<path class="st0" d="M9.2,86c0.1,0,0.2,0,0.4,0C9.4,86,9.3,86,9.2,86z"/>
		<path class="st0" d="M113.3,64L113.3,64L113.3,64C113.3,64,113.3,64,113.3,64z"/>
		<path class="st0" d="M94,110.7c-0.1,0-0.1,0.1-0.2,0.2C93.8,110.9,93.9,110.9,94,110.7z"/>
		<path class="st0" d="M82.2,102.6l0.3,0.2C82.3,102.7,82.2,102.6,82.2,102.6z"/>
		<path class="st0" d="M97.9,103.9c0.1-0.2,0.2-0.2,0.3-0.4c0,0,0,0-0.1,0.1C98.1,103.7,98,103.8,97.9,103.9z"/>
		<path class="st0" d="M101.9,97.5L101.9,97.5c-0.1,0.2-0.2,0.2-0.2,0.3L101.9,97.5z"/>
		<path class="st0" d="M24.2,63.9C24,64,23.9,64,23.8,64C24,64,23.2,64.8,24.2,63.9z"/>
		<path class="st0" d="M9,86.1C9,86,9.1,86,9.2,86C9.1,86,9,86,9,86.1C8.9,86,8.9,86.1,9,86.1z"/>
		<path class="st0" d="M96.6,102.8l0.7-1C97.1,102.1,96.8,102.4,96.6,102.8z"/>
		<path class="st0" d="M99.1,98.7c0.2-0.1,0.3-0.3,0.5-0.5c0-0.1,0-0.1,0-0.1L99.1,98.7z"/>
		<path class="st0" d="M23.8,64L23.8,64L23.8,64z"/>
		<path class="st0" d="M4.6,83c0.5-0.3,0.5-0.1,0.9-0.6c0.1,0,0.1,0.1-0.1,0.4c0.4-0.5,1.1-1.2,1.2-1.5C7.2,81,8,79.8,8.2,80.1
			c0.1-0.2,0.6-0.9,1-1.3c-0.4,1,1.5-1.5,1.6-1c0.3-0.8,1.8-2,2.6-3.1c0,0.1-0.1,0.2-0.2,0.3c0.6-0.5,0.8-0.6,1.2-0.9
			c-0.1-0.3,0.6-1.2,1-1.7c0.9-0.5-0.1,0.6,0.3,0.6c-0.2-0.1,1-1.3,0.6-1.2c0.6-0.4,0.5-0.4,0.9-0.5c-0.2-0.4,0.4-0.5,0.7-1.1
			c0.9-0.6,0.4,0.1,1.1-0.8c0.5-0.3-0.2,0.5-0.2,0.5c0.8-0.8,0.2-0.6,0.2-0.9c0.9-1,0.6-0.3,1-0.5c0.6-0.7,0.8-1.3,1.3-1.7
			c0.1,0,0.2-0.1,0.1,0.1c0.5-0.8,1.9-1.9,2.4-2.8c0.1,0,0.1,0,0.1,0c-0.2,0-0.3-0.1-0.4-0.2c0.4-0.4,0.5-0.8,0.8-0.8
			c-0.2,0.2-0.2,0.3-0.3,0.4l0.3-0.4c0.5-0.2-0.5,0.6-0.3,0.7c0.7-0.8,1.4-1.8,2-2.3c0.3,0.1-1.3,1.4-0.3,0.8l-0.9,0.8
			c1-0.4-0.6,0.5,0.4,0.2c1.2-1.1,1.2-1.4,2.4-2.5c0.2-0.4-0.2-0.1-0.1-0.4c1.5-1.8,1.7-0.8,2.7-2.3c0.2-0.4,0.1-0.8,1.1-1.5
			L31,57.3c1.1-1.1,0.3-0.9,1.7-2c-0.1,0.3-0.8,0.9-0.6,0.8c0.9-0.6,0.4-0.7,1-1.2l0.3,0.1c1.2-1.2,2.3-2.7,3.6-4
			c0,0.1-0.2,0.4,0.2,0.2c0.2-0.2,0.4-0.5,0.7-0.7c0.2-0.2,0.3-0.4,0.5-0.5c0.4-0.1,0.7-0.1,1.1-0.2c0.5-0.1,0.9-0.1,1.3-0.2
			c0.9-0.1,1.8-0.2,2.6-0.3L44,49c0.2,0,0.4,0,0.2,0.1c0.9-0.1,0-0.1,0.4-0.3c0.5-0.1,0.7,0,0.4,0.1c1.5-0.5,4.3-1.2,5.9-1.3
			l-0.3-0.3c0.7-0.1,1-0.3,1.3-0.4c-0.2-0.5-0.4-1-0.5-1.6c-0.3,0.1-0.4,0.2-0.3,0.3c-0.1-0.3-2,0.3-3,0.7l0.1-0.2
			c-0.8,0.4-0.8,0.5-2,0.8c-0.3,0-0.3-0.1,0.1-0.1c-1,0.1-0.7,0.3-1.9,0.4l0.4-0.2c-1,0.2-0.9,0.2-1.4,0.5c-0.6,0.2-1.9,0.3-2.1,0.1
			c-0.1,0.1-0.6,0.4-1.2,0.5c-0.1-0.1,0.1-0.1,0.2-0.2c-0.6,0.1-1.1,0.2-1.6,0.3c-0.5,0.1-0.7,0.2-1.4,0.4c-0.1,0.1-0.2,0.2-0.4,0.4
			c-0.1,0.1-0.2,0.2-0.3,0.2c-0.1,0-0.1,0-0.2,0c0.3-0.3,0.6-0.6,0.8-0.8c0.5-0.1,0.9-0.2,1.2-0.2c0.2,0,0.4-0.1,0.3,0
			c0-0.2-1.1,0-0.3-0.4c-0.1,0.1-0.3,0.1-0.5,0.2L38,48.1c0,0-0.1,0-0.2,0.1c-0.2,0-0.3,0.1-0.5,0.2c-0.5,0.6-0.6,0.8-0.9,1.1
			c-0.2,0.3-0.5,0.6-0.8,0.8h-0.1l0.1-0.1c-0.2,0.2-0.3,0.3-0.4,0.5c-0.3,0.2-0.4,0.3-0.7,0.6c-0.2,0-0.9,0.8-1.3,1.2
			c0.2,0.1-0.3,0.6,0.3,0.3c-0.1,0,0.1-0.1,0.3-0.3c0.1-0.1,0.1-0.1,0.1-0.2l0,0c0.2-0.3,0.6-0.6,0.9-0.9c-0.2,0.4-0.5,0.8-1,1.1
			c-0.1,0.3-0.2,0.6-0.3,0.8c-0.7,0.3-1.8,1.2-2.1,1.2c-1.1,1.2-2.7,2.8-3.1,3.8c-0.3,0.4-0.5,0.3-0.6,0.4c0.2-0.2,0.4-0.4,0.5-0.6
			c-0.6,0.7-1.9,2-1.9,2.3c-0.9,0.7,0.3-0.6-0.8,0.5l0.1-0.2c-2.6,1.9-3.1,4.1-5.9,6.1c0.2-0.1,0.3-0.2,0.4-0.2
			c-3,2.6-5.6,5.9-8.6,8.4c-0.8,0.7-0.8,0.9-1.2,1.5h-0.3l-0.6,1c-1,1.3-2.4,1.6-3.7,3.4l0.3-0.5c-0.6,0.5-1.6,1.8-1.7,1.5
			c0,0.1-0.1,0.3-0.3,0.4L4,82.1l-1.2,1.5c-1.1,1-0.2-0.5-1.7,1c-0.5,0.6-1.3,1.8-1,1.7c0.2-0.2,0.6-0.5,0.7-0.4l-0.5,0.5
			c0.2,0.3,0,1,1.4-0.1l0.7-1l0.4-0.2l-0.7,0.7c0.5-0.3,0.7-0.7,0.9-1c0.1,0,0.3-0.1,0.5-0.2l0.6-1.1c0.2,0-0.2,0.6,0.4,0.1
			C4.9,83.1,4,83.8,4.6,83z M37.9,49.5C37.9,49.5,37.9,49.5,37.9,49.5c0.1,0,0.2-0.1,0.3-0.1c0.1,0,0.1,0,0.2,0h-0.1
			c-0.1,0.1-0.2,0.2-0.4,0.4C37.7,49.8,37.7,49.7,37.9,49.5z M34.1,51.5C34.1,51.6,34.1,51.6,34.1,51.5L34.1,51.5
			c0.2-0.4,0.3-0.4,0.4-0.4C34.4,51.2,34.2,51.4,34.1,51.5z"/>
		<path class="st0" d="M119,68.2l-0.7-0.6c-0.4-0.3-0.8-0.7-1.2-1c-0.8-0.7-1.6-1.4-2.5-2.1c0.4,0.9-0.6-0.5-0.8,0
			c-0.5-0.4-0.7-0.5-0.7-0.6l-1.3-1.4c-0.3-0.4,0.5,0.3,0.5,0.2c-1-0.9-0.3-0.5-0.9-1.2c0,0.2-0.5-0.1-1.1-0.6l0.7,0.8
			c-1.6-1-1-1.3-2.6-2.3l0.6,0.3c-0.8-0.5-2.7-2.2-3.7-2.6c-0.1-0.1-0.2-0.4,0.2-0.1c-0.1-0.1-0.2-0.2-0.4-0.3
			c-0.2-0.2-0.4-0.4-0.7-0.5c-0.2,0-0.5,0-0.7,0.1l-0.5,0.1l-0.8,0.1c-0.5,0.1-1.1,0.2-1.6,0.2c-1,0.2-2,0.3-2.8,0.2l0.2-0.1
			c-0.4,0.1-0.7,0.3-1.3,0.2c0,0,0.2-0.1,0-0.1c-0.2,0.1-1.1,0.3-1.7,0.3l0.5-0.2c-2.2,0-3.4,0.6-5.2,0.9c0-0.3-1.8-0.3-2.7-0.3l0,0
			c-2.6,0.2-4.4,0.7-6.7,1c-0.1,0-0.3,0-0.5,0c-0.2,0-0.2,0-0.2,0l-0.1-0.1l0,0l-0.1-0.1c-0.2-0.2-0.4-0.3-0.6-0.5
			c-0.2-0.2-0.4-0.4-0.6-0.6C78.9,58,78.5,58.5,78,59c0.2,0.2,0.5,0.4,0.7,0.6c-0.5-0.6-0.2-0.7,0.3-0.3v0.4
			c0.4,0.1-0.4-0.5,0.3-0.1c0.1,0.1,0.1,0.1,0.2,0.2c0.1,0.1,0.1,0.1,0.2,0.2c0.1,0.1,0.1,0.2,0.1,0.2s-0.1,0-0.2-0.1
			c-0.1,0-0.1-0.1-0.2-0.1c0,0-0.1-0.1-0.2-0.1l0.1,0.1l0.2,0.2l0.4,0.3l0.5-0.1c0.1,0.1-0.3,0.1-0.4,0.2c0.2-0.1,0.5-0.1,0.8-0.1
			c0.2,0,0.4,0,0.6,0c0.4,0,0.9,0,1.2-0.2l0.1,0.1c2.1-0.2,3.1-0.4,4.8-0.5c0-0.2,0.7-0.2,1.2-0.4c1.3,0,2.7,0,4.2-0.2
			c1.1-0.2,0.3-0.2,0.8-0.4c0.1,0.2,1.6,0,0.8,0.2c1.8-0.2,2.3-0.2,4.7-0.6c-0.3-0.1-0.5-0.1-0.4-0.1c0.4-0.1,1,0,0.9,0.1h-0.1
			c0.7-0.1,1.5-0.2,2.3-0.2c0.4,0,0.8,0,1.2,0h0.6c0.1,0,0.1,0,0.2,0h0.1l0.1,0.1c0.1,0.1,0.2,0.2,0.3,0.3c0.2,0.2,0.4,0.4,0.7,0.6
			c0.4,0.4,0.9,0.7,1.3,0.9l-0.1-0.1l1.8,1.2c0.7,0.7-0.6-0.3-0.1,0.3c2,1.2,2.8,2.4,4.4,3.4c0.4,0.7,1.4,1.5,2.5,2.4
			c0.5,0.4,1.1,0.9,1.6,1.3c0.3,0.2,0.5,0.4,0.7,0.6c0.1,0.1,0.2,0.2,0.3,0.3c0,0,0,0,0,0.1l0.1-0.1c0.2,0,0.1,0.1,0,0.1h-0.1
			c0.1,0,0.1,0,0.2,0c0,0,0,0,0.1,0l0,0c0,0.1-0.1,0.1-0.1,0.2v0.1l-0.1,0.2l-0.2,0.4c-0.3,0.5-0.6,0.9-0.9,1.4
			c-0.6,0.9-1.2,1.9-1.9,2.8c-1.3,1.9-2.6,3.8-3.9,5.5c-0.9,1.4,0.1,1.2-1.3,2.8l0.1-0.6c-1.5,3-3.6,5.7-5.1,8.5
			c0.1-0.2,0-0.2,0.2-0.5c-0.5,0.5-1.4,2.1-1.2,2.2c-0.3,0.4-0.2,0-0.4,0.3c-0.5,0.5-0.7,1.6-1.1,1.8c-0.1,0,0.1-0.2,0.1-0.3
			c-0.2,0.4-1.1,1.8-0.7,1.5c-0.7,1-1.2,2-1.8,2.8c-0.1,0.7-1.2,1.7-1,2.1c-0.2-0.3-1.4,1.7-1.6,2.4c0-0.3-0.4,0.5-0.4,0.2
			c-0.5,0.7-0.8,1.5-0.6,1.4c-1.2,1.2-1.5,2.9-2.4,3.4c-0.1,0.2-0.2,0.3-0.3,0.5l-0.1,0.2v0.1c0,0.1-0.1,0.2-0.1,0.3
			c-0.1-0.1-0.2-0.1-0.4-0.2c-0.4-0.2-0.7-0.5-1.1-0.7c-0.7-0.5-1.4-1-2.1-1.4c0.3-0.2,2.1,1.5,2.3,1.2c-1.9-1.2-3.1-1.7-4.8-3.1
			c-0.4-0.4,0.4,0.1,0.5,0.1c-1.9-1.2-3.5-2.6-5.1-3.6c0,0,0.2,0.1,0.4,0.2c-0.3-0.2-0.7-0.6-0.8-0.4l0.3,0.2
			c0.4,0.6-1.5-0.5-1.7-0.5c0.8,0-1.5-1.2-0.3-1.1c-0.2-0.1-0.5-0.3-0.5-0.1c-0.3-0.3-0.4-0.4,0-0.2c-0.5-0.3-0.8-0.4-0.9-0.5
			c-0.1,0-0.2-0.1-0.3-0.1c-0.1-0.1-0.3-0.2-0.6-0.4c-0.1,0-0.2,0-0.5,0c0-0.1,0.3-0.1,0.5-0.2h0.1l-0.1-0.1c-0.2,0-0.5,0.1-0.7,0.1
			c-0.2,0-0.3,0.1-0.5,0.1c-0.4,0.1-0.8,0.1-1.3,0.1c0.1,0-0.1-0.1,0.3-0.1c-1.8,0.1-3.1,0.6-5.1,0.5c0.6-0.4-0.7-0.1-0.8-0.3
			l-1.1,0.1l0.4,0.1c-1,0-1.8,0.3-2.6,0.3l0.7-0.2l-1.8,0.2l1,0.1c-1,0.2,0.1,0.4-1.1,0.3c0.3,0-1,0.1-1.5-0.1l0,0
			c-0.5,0.1-0.9,0.2-1.7,0.2c-0.2-0.1,0.1-0.3,0-0.4c-0.5,0.3-2.2,0.2-2.8,0.5c0.2-0.1,0.2-0.2,0.1-0.2l-0.4,0.2
			c-0.4,0-0.5-0.1-0.4-0.2c-1.3,0,0.4,0.3-1.1,0.3c0.1,0,0.1,0,0.3-0.1c-1.6,0-3,0.3-4.5,0.3c-0.4-0.3,1.3-0.1,0.8-0.4
			c-0.5,0-1,0.1-1.4,0.1l-0.7,0.1h-0.3h-0.2l-0.2-0.1l-0.4-0.2c-0.2-0.2-0.5-0.3-0.7-0.5c-0.5-0.3-1-0.6-1.4-1l0.3,0.2
			c-0.5,0.2-1.1-1-2.1-1.5c0.2,0.1,0.4,0,0.3,0c-1.1-0.9-2.4-1.6-4.2-2.7l0.3,0.1C43,93.7,42,93,41.3,92.5c-0.3-0.1-0.7-0.4-0.5-0.1
			c-1.9-2.1-4.4-2.8-6-4.6c0.2,0.2,0.6,0.3,0.4,0.2L33.4,87c0,0.2,0.2,0.2,0.4,0.6c-0.3-0.1-0.7-0.3-1.1-0.6h-0.1h0.1
			c0.4,0.2,0.3,0.1,0.1-0.2c-0.2,0-0.5-0.1-0.6-0.1c0.1,0.1-0.1,0.1,0,0.2c-1.1-0.3-0.2,0.4-1.7,0.1l0.1-0.1c-0.6,0-1.1,0.2-1.7,0.1
			c-0.2-0.2,0.6-0.1,0.6-0.3c-0.8,0-1.6,0.4-2.4,0.2c0.4-0.1,0.9,0,1.2-0.1c-0.8-0.2-0.9-0.2-1.5-0.2H27l-1.4-0.1l0.4,0.1
			c-1,0.5-2.1,0.1-3.5,0.4c1.4-0.3,0.2-0.2,0.3-0.4c-0.4-0.1-0.9-0.1-0.7-0.2c-0.7,0.2-1.1-0.2-2,0.1c0-0.1-0.7,0-0.6-0.2
			c-0.9,0.1,0.2,0.1,0.1,0.2c-1.3,0.2-3.1-0.3-5,0c-1.7,0.1-2,0.4-3.5,0.5c-0.5-0.1,0.4-0.3,0.4-0.3c-0.8-0.1-1.5-0.1-2.2,0
			c0.2-0.1,0-0.1-0.2-0.2c-0.6,0-0.4,0.3-1.3,0.1c0.1-0.1,0.3-0.2,0.6-0.3c-0.7-0.2-1.5-0.1-2.2,0c-0.2-0.1,0.5-0.2,0.7-0.3
			c-0.9,0.1-2.2,0.1-2.5,0.3L5,86.4c-0.1,0,0-0.2,0.2-0.2c0.7-0.2,1.1,0.1,1.1,0.2H5.8c0.6,0.4,2.2,0,3.3,0l-0.5,0.3l1.1-0.3
			c0.2,0.1,0.4,0.3-0.1,0.3c0.8,0.2,0.7-0.1,1.4,0.1c0.1,0,0,0,0,0.1l0.8-0.1c-0.2,0.1,0.1,0.2-0.3,0.2c1.4,0.2,2.2-0.2,2.8,0h-0.1
			c1.9-0.1,0.2-0.2,1.6-0.5l1,0.6l0.2-0.2c0.2,0,0.6,0,0.5,0.1c0.7-0.2-0.1-0.1,0.3-0.2c1,0.2,2.6-0.1,2.8,0.3
			c0.3-0.2-0.9-0.1,0.1-0.3c0.3,0.4,1.2-0.1,2.1,0.1c-0.3,0.2-1.1,0.1-0.2,0.3c0.5-0.3,1.7,0.1,2.4,0c0-0.3,1.6-0.1,2.8-0.2
			c-0.1,0.1,2.3,0.2,3.5,0.3l0,0c0.1-0.1,0.4-0.2,0.8-0.2c0.4,0,0.8,0,1.1,0c0.1,0,0.1,0.1,0.2,0.1c-0.3,0.1-0.3,0.1-0.5,0.1
			c0,0-0.1,0.1-0.2,0.1h0.2l0.2,0.2c0.2,0,0.4,0.1,0.9,0.4L33.4,88c0.9,0.6,1.9,1.1,3,2c0.2-0.1-0.6-1.1,0.7-0.3
			c0,0.1-0.1,0.3-0.4,0.1c0.1,0.1,0.4,0.2,0.6,0.4L36.7,90c0.5,0.4,0.4,0.1,0.8,0.4c-0.1,0.1,0.2,0.3,0.1,0.4
			c-0.1-0.1-0.3-0.3-0.5-0.4c0.4,0.4,1,0.8,1.1,1.1c0-0.1,0.1-0.2,0.5,0.1c0.9,0.6,0.2,0.4,0.7,0.8c0.3,0.1,0.8,0.6,0.9,0.4
			c0.3,0.2,0.2,0.3,0.3,0.4c0.5,0.2,2.1,1.5,1.8,0.9L42.3,94h0.1c1.6,0.9,3,2.3,4.6,3.3v0.1c0.9,0.6,2,1.4,2.7,1.7
			c0.3,0.2,0.5,0.6,0.4,0.5c0.4,0.2,0.5,0.3,0.8,0.5c0.1,0.1,0.2,0.2,0.4,0.3c0.2,0.1,0.4,0.3,0.6,0.5c0,0,0,0,0.1,0h-0.1
			c-0.4-0.2-0.4-0.1-0.3-0.1c0,0,0,0-0.1,0c-0.1,0-0.2-0.1-0.4-0.3c0.3,0.3,0.6,0.5,0.8,0.6c0.2,0,0.4,0,0.5,0c0.2,0,0.3,0,0.4,0
			c0.3,0,0.5-0.1,0.9-0.2c-0.4,0.2,0.8,0.2,1.3,0.1l-0.8-0.1c0.6-0.1,1.1-0.1,1.6-0.1l-0.3,0.3c2.2,0.2,3.9-0.7,5.5-0.3
			c0.6-0.2-1.2-0.1-0.7-0.3c1,0,2.1,0.3,2.4,0.3c1.4,0.1,1.3-0.4,2.7-0.4c-0.2-0.1-0.4-0.3,0.7-0.5c1,0,1.3,0.3,0.6,0.4
			c-0.2,0-0.4,0-0.4,0c-0.3,0.1-0.8,0.1-0.3,0.2l0.1-0.1c0.5,0.1,1.9,0,1.6,0.1c0.8-0.1,0.3-0.2-0.3-0.2c1.3,0.1,2-0.1,3.4-0.1
			c-0.2,0-0.4-0.1-0.2-0.1c2,0,0.9-0.2,2.2-0.3c0.8,0.1-0.3,0.3,1.1,0.2c0.8,0,0.2,0.2-0.1,0.3c1.2-0.2,2.3,0,3,0l-0.6,0.1
			c0.4-0.1,0.7-0.1,1-0.1l-0.4-0.2c0.4,0,0.7,0,0.7,0.1c0.2-0.1,0.1-0.1,0.1-0.2v-0.1c0,0,0.1,0,0.1-0.1c0.1,0,0.1,0,0.2-0.1
			c0,0,0.1,0,0.2,0c0.2,0.1,0.4,0.2,0.5,0.4c0.2,0.2,0.4,0.3,0.4,0.4c-0.6-0.5-0.6-0.4-0.6-0.3c0,0.1,0,0.1,0,0.1s-0.1,0-0.2-0.1
			c0,0,0,0-0.1,0l0.1,0.1c0.1,0.1,0.3,0.2,0.4,0.3c0,0.1-0.1,0-0.2,0c1.1,1.1,0.7,0.2,2,1.1c-0.2,0,0.1,0.4,0.4,0.5
			c-0.5-0.4-0.1-0.4,0.4-0.1c0.8,0.7,0.9,0.6,1.3,0.9l-0.5-0.4c0.2,0,0.6,0.3,1.2,0.7c0,0.1-0.6-0.3-0.4-0.1
			c0.8,0.3,1.3,1.2,2.2,1.7c0.4,0.4-0.1,0.2,0.2,0.5c1.1,0.6,1,0.9,2.1,1.6c-0.2-0.4-0.3-0.4,0.6,0l-1.8-1.1l1.2,0.6
			c-0.5-0.4-1.1-0.7-1.4-0.9c0.6,0.3,0.5,0.3,0.4,0c0.5,0.7,1.5,0.9,2.2,1.6l-0.3,0.3c1.1,1.1,2.3,1.4,3.8,2.6l-0.5-0.4
			c0.2,0,0.4,0.2,0.7,0.4c0.2,0.1,0.4,0.3,0.6,0.4c0.2,0.2,0.4,0.3,0.6,0.4c-0.1,0.1,0.2,0.4,0.5,0.7c0.1-0.1,0.1-0.1,0.2-0.2
			c0-0.1,0.3-0.5,0.6-1.1c0.4-0.6,0.5-0.9,0.4-1.1l0.6-0.6c0.9-1.3,0.6-1.8,1.5-3c-0.1,0.5,0.4-0.1-0.1,0.9c0.3-0.4,0.5-0.8,0.5-0.9
			c0.2-0.2,0.6-1.3,0.9-1.6c0.1-0.2,0-0.4,0.3-0.8c0.1,0,0.1,0,0.1,0c-0.1,0,0.4-0.8,0-0.5c1.2-1.1,2.3-3.7,3.4-4.7
			c0.5-1,1.2-2.1,1.7-3c0,0.1,0.1,0-0.1,0.2c0.9-1.1,0.1-1,1.1-2.2c0.6-0.6-0.3,0.8,0,0.4c0.5,0.1,1-1.7,1.8-2.4l-0.1,0.2
			c0.6-0.6,0.9-1.8,1.6-2.9c0,0,0,0.1,0.1,0c0.3-0.9,1.1-2.4,1.7-3.5c0,0.4-0.2,0.5,0.1,0.4c0.3-0.5-0.4,0,0.2-1
			c0.3-0.3,0.8-0.9,1-0.9l-0.6,0.9c0.5-0.3,0.7-1.2,1.1-1.6l0.1,0.1c0.8-1.4,0.6-1.6,1.6-3.1l-0.2,0.1c0.3-1,0.6-0.6,0.9-1.5
			l0.4-0.1c0.3-0.6,0.9-2.1,1.5-3.1c-0.2,0.7-0.8,1.9-1.1,2.6c0.3-0.5,1.1-1.8,1.2-2.2c-0.1,0.2-0.2,0.5-0.4,0.7
			c0.2-0.8,0.7-1.7,1.3-2.8c0.2,0.2,0.7-0.4,1.2-1.2c0.3-0.4,0.5-0.8,0.8-1.2c0.1-0.2,0.3-0.4,0.4-0.5c0.1-0.2,0.3-0.4,0.5-0.5
			l0.6-1L119,68.2z"/>
		<path class="st0" d="M36.9,50.7L36.9,50.7c-0.2,0.2-0.3,0.3-0.4,0.4C36.6,51,36.7,50.9,36.9,50.7z"/>
		<path class="st0" d="M33.8,52.1C33.8,52.1,33.8,52.2,33.8,52.1C33.8,52.1,33.9,52.1,33.8,52.1C33.9,52.1,33.9,52,33.8,52.1
			C33.9,52,33.9,52,33.8,52.1z"/>
		<path class="st0" d="M42.2,93.9L42.2,93.9C42.3,93.9,42.2,93.8,42.2,93.9L42.2,93.9z"/>
		<path class="st0" d="M32.4,86.4c0,0-0.1,0-0.2-0.1C32.2,86.4,32.3,86.4,32.4,86.4z"/>
		<path class="st0" d="M27,86.3l-0.8-0.1C26.6,86.3,26.8,86.3,27,86.3z"/>
		<path class="st0" d="M22.9,86.2L22.9,86.2L22.9,86.2L22.9,86.2z"/>
		<path class="st0" d="M82.8,101.3L82.8,101.3C83.2,101.5,83,101.4,82.8,101.3z"/>
		<path class="st0" d="M64,99.1c0.2-0.1,0.4-0.1,0.6-0.1C64.3,99,64,99,64,99.1z"/>
		<path class="st0" d="M96.5,102.9L96.5,102.9C96.5,102.9,96.5,102.8,96.5,102.9L96.5,102.9z"/>
		<path class="st0" d="M65.5,99c-0.3,0-0.6,0-0.9,0C64.9,99,65.3,99,65.5,99z"/>
		<path class="st0" d="M5.3,85.9H5.1l0,0H5.3z"/>
		<path class="st0" d="M5.1,85.9H4.9C5,86,5.1,86,5.1,85.9z"/>
		<path class="st0" d="M4.4,86h0.5C4.7,85.9,4.5,85.9,4.4,86z"/>
		<path class="st0" d="M10.8,86.1L10.8,86.1C10.8,86,10.8,86,10.8,86.1z"/>
		<path class="st0" d="M12.3,86c-0.4,0-1-0.2-1.5-0.1L10.8,86C11.1,85.9,12,86.2,12.3,86z"/>
		<path class="st0" d="M19.2,87L17.8,87c0.2,0.1,0.6,0.2-0.1,0.2C19.5,87.4,17.4,87,19.2,87z"/>
		<path class="st0" d="M23.4,87.1c-0.7,0,0,0.1,0,0.2C23.8,87.2,23.9,87.2,23.4,87.1z"/>
		<path class="st0" d="M49.9,99.5l-0.2,0.1C50.2,100,49.8,99.6,49.9,99.5z"/>
		<polygon class="st0" points="55.7,99.4 55.1,99.3 54.9,99.5 		"/>
		<polygon class="st0" points="59.3,100.6 59,100.6 60,100.5 		"/>
		<path class="st0" d="M101.3,98.8H101C100.9,99.1,101.1,99.4,101.3,98.8z"/>
		<path class="st0" d="M113,79.8c0.2-0.1,0.6-0.6,0.7-1C113.5,79.2,113.1,79.6,113,79.8z"/>
	</g>
	<g>
		<path class="st1" d="M77.1,97.8c0,0.1,0.2,0.1,0.2,0.1L77.1,97.8L77.1,97.8z"/>
		<path class="st1" d="M77.8,97.7c-0.1-0.1-0.2-0.4-0.5-0.5c0.2,0.2,0.1,0.2,0.3,0.4c0,0.1-0.1,0.1-0.2,0c0,0.1-0.1,0.1,0,0.2
			c0.2,0,0.3-0.1,0.2-0.3C77.7,97.6,77.7,97.6,77.8,97.7z"/>
		<path class="st1" d="M82,92.2L82,92.2L82,92.2z"/>
		<path class="st1" d="M84.5,88.7L84.5,88.7L84.5,88.7z"/>
		<path class="st1" d="M85.1,88.2L85.1,88.2C85.1,88.2,85.2,88.2,85.1,88.2z"/>
		<path class="st1" d="M82,92.2L82,92.2C82.1,92.1,82.1,92.1,82,92.2z"/>
		<path class="st1" d="M77.8,96.6L77.8,96.6L77.8,96.6L77.8,96.6z"/>
		<path class="st1" d="M81.2,93.9L81.2,93.9C81.2,94,81.2,94,81.2,93.9L81.2,93.9z"/>
		<path class="st1" d="M80.4,95.1l-0.2-0.2C80.3,95,80.3,95,80.4,95.1C80.3,95.1,80.3,95.1,80.4,95.1z"/>
		<path class="st1" d="M78.7,96.8L78.7,96.8C78.7,96.9,78.7,96.9,78.7,96.8z"/>
		<path class="st1" d="M81.8,93C81.8,93.1,81.9,93.1,81.8,93C81.8,93.1,81.8,93.1,81.8,93z"/>
		<path class="st1" d="M102.9,58.2L102.9,58.2L102.9,58.2z"/>
		<path class="st1" d="M104.7,57.5L104.7,57.5C104.7,57.6,104.8,57.6,104.7,57.5L104.7,57.5z"/>
		<path class="st1" d="M86.2,87.2C86.1,87.3,86.1,87.3,86.2,87.2C86.1,87.3,86.2,87.3,86.2,87.2z"/>
		<path class="st1" d="M92.9,76.9c-0.3,0-0.1-0.3-0.4-0.3C92.6,76.7,92.7,77,92.9,76.9z"/>
		<path class="st1" d="M77.8,96.6C77.8,96.5,77.8,96.5,77.8,96.6C77.8,96.5,77.8,96.5,77.8,96.6z"/>
		<path class="st1" d="M92.5,76.7L92.5,76.7L92.5,76.7L92.5,76.7z"/>
		<path class="st1" d="M87.8,84.7L87.8,84.7C87.7,84.7,87.7,84.7,87.8,84.7z"/>
		<path class="st1" d="M86.2,86.4L86.2,86.4L86.2,86.4z"/>
		<path class="st1" d="M88.2,83.5L88.2,83.5C88.2,83.4,88.2,83.4,88.2,83.5C88.2,83.4,88.2,83.5,88.2,83.5z"/>
		<path class="st1" d="M88.9,82.4C88.8,82.4,88.8,82.4,88.9,82.4C88.8,82.4,88.8,82.5,88.9,82.4L88.9,82.4z"/>
		<path class="st1" d="M100.9,61.5c0.1,0,0.1,0,0.2,0.1C100.9,61.4,101,61.3,100.9,61.5z"/>
		<path class="st1" d="M77.9,96.7C77.8,96.6,77.8,96.6,77.9,96.7C77.8,96.6,77.8,96.6,77.9,96.7C77.8,96.6,77.9,96.6,77.9,96.7z"/>
		<path class="st1" d="M86.6,82.4L86.6,82.4C86.7,82.3,86.7,82.3,86.6,82.4z"/>
		<path class="st1" d="M95.9,68.9L95.9,68.9C95.9,68.8,95.9,68.9,95.9,68.9z"/>
		<path class="st1" d="M87.1,81.7c0.1,0,0.2,0,0.2,0s0,0,0-0.1L87.1,81.7z"/>
		<path class="st1" d="M101.1,61.5L101.1,61.5L101.1,61.5z"/>
		<path class="st1" d="M101.4,60.1c-0.1,0.2,0.2,0.2,0.3,0.4c-0.1,0.2-0.2,0-0.4-0.1c0,0.2,0.2,0.4,0.1,0.5c0,0-0.1,0-0.1-0.1
			c0.1,0.3-0.2,0.4-0.1,0.7h-0.1c0.1,0.1,0.3,0.1,0.4,0.2c0,0.1,0.1,0.2-0.1,0.2c0,0,0-0.1-0.1-0.1v0.1c-0.3-0.1,0-0.2-0.2-0.3
			c0,0.2,0.1,0.5-0.1,0.6c-0.3-0.1,0.1-0.3-0.2-0.3l0.2-0.1c-0.5-0.1,0.1-0.1-0.4-0.2c-0.2,0.2,0,0.3-0.3,0.5
			c0.1,0.1,0.2,0.1,0.3,0.3c0,0.5-0.8-0.1-0.6,0.3c0.1,0.2,0.4,0.4,0.1,0.5L99.9,63c-0.2,0.2,0.3,0.4,0,0.5c-0.1-0.1,0-0.2,0-0.2
			c-0.3,0,0.1,0.2,0,0.3l-0.3-0.1c-0.1,0.3-0.1,0.6-0.2,0.9c-0.1-0.1-0.1-0.2-0.2-0.1c-0.1,0.4-0.5,0.7-0.8,0.9l0.1,0.3
			c0,0-0.1,0-0.1-0.1c-0.2,0.1,0.1,0.1,0.2,0.2c0,0.1-0.2,0-0.2-0.1c0,0.3,0,0.9-0.4,0.9v-0.1c-0.2,0.1,0.3,0.5,0,0.5v-0.1
			c-0.3,0.3-0.4,0.9-0.9,1c0.3,0.3-0.4,0.3,0,0.6c-0.4,0.1-0.4,0-0.7,0.2c-0.1,0.1,0.2,0.3,0.2,0.4l-0.2-0.1l0.1,0.3l-0.3-0.1V69
			h0.2c0,0.2-0.4,0.3-0.5,0.2l-0.1,0.5c-0.1-0.1-0.1-0.1-0.1-0.2c0.1,0.3-0.3-0.1-0.2,0.2c0.1,0,0.1,0.1,0.2,0.1
			c-0.2,0-0.3,0.2-0.4,0.4l-0.1-0.1c-0.2,0.2-0.3,0.6-0.5,0.9c0.1-0.1,0.4,0.1,0.3,0.2l-0.3-0.1c0.1,0.2,0.1,0,0.2,0.2
			c-0.1,0.1-0.3-0.1-0.3-0.2v0.2c-0.1,0-0.1-0.1-0.2-0.2c0.1,0.1-0.4,0.1-0.2,0.3h-0.1c-0.2,0.3-0.2,0.5-0.4,0.7
			c0.2,0.1,0.1,0.2,0.2,0.4c-0.2,0.1-0.5,0.2-0.6,0.5c0,0.2,0.1,0.2,0.2,0.3c-0.2-0.1-0.3,0.1-0.4-0.1c-0.1,0.3-0.2,0.3-0.3,0.8
			c0.1,0,0.2,0,0.2,0.1s-0.2,0.1-0.2,0l0,0c0,0.5-1.1,0.5-0.9,1l0,0v0.4c-0.1,0.1-0.1-0.2-0.3-0.1c0.1,0.5-0.4,0.5-0.4,0.9
			c-0.7-0.1-0.5,0.8-1,0.8l0.1,0.1c0.1,0.2-0.1,0-0.2,0.1c0.1,0.1,0.2,0,0.2,0.1c-0.3,0.7-1,1.1-1.5,1.7c-0.2,0.2,0.6,0.6,0.1,0.6
			l-0.2-0.2c0,0.6-0.6,0.9-0.7,1.5c0-0.1-0.1-0.1-0.1-0.2c-0.2,0-0.2,0.3-0.1,0.4c-0.1,0.1-0.1-0.1-0.2-0.1c-0.2,0,0.1,0.4-0.1,0.3
			v-0.1c0,0.1-0.2,0.3,0,0.3c-0.2,0.1-0.1,0.4-0.3,0.4c0.2,0.2-0.3,0.2,0,0.5c-0.3-0.2-0.5,0.1-0.4,0.3c-0.1-0.1-0.2,0-0.3-0.1
			c-0.1,0.1-0.1,0.3,0.1,0.4c-0.5,0,0,0.7-0.6,0.5c-0.1,0.5-0.2,0.9-0.3,1.3c-0.3-0.2,0.2-0.4-0.1-0.6c-0.1,0.4,0.1,0.8-0.2,1
			c-0.1,0.1-0.1-0.1-0.1-0.2c-0.1,0.4-0.4,0.6-0.4,1v-0.1c0,0.1-0.1,0.1,0,0.2V86c0.3,0.1,0.3,0.5,0.4,0.6c-0.4-0.4-0.3,0.2-0.7-0.3
			c0,0.1,0,0.1,0.1,0.2c-0.1,0-0.1,0-0.2-0.1c-0.1,0.2,0.1,0.3,0,0.5c-0.1,0-0.1-0.1-0.1-0.2c0.1,0.2,0.2,0.4,0,0.5L84.4,87
			c-0.1,0.3,0.1,0.7-0.2,0.9c-0.2-0.3-0.2,0-0.4-0.1V88H84c-0.1,0.1,0,0.4-0.1,0.4v-0.2l-0.1,0.3l0.2-0.1c0,0.2,0.3,0.2,0.2,0.3
			c0-0.1-0.1,0.1-0.3,0.1l0,0c0,0.1,0.1,0.2,0,0.3c-0.1,0-0.3-0.2-0.3-0.2c0.2,0.2-0.1,0.3,0,0.6c0-0.1-0.2-0.2-0.2-0.2l0.1,0.2
			c-0.1,0-0.1,0-0.2-0.1c-0.2,0.2,0.4,0.2,0.1,0.3c0,0,0,0,0-0.1c-0.2,0.2-0.2,0.5-0.4,0.6c-0.3-0.1,0.1-0.2-0.2-0.3
			c-0.1,0.3-0.1,0.8-0.3,1.1h0.1c0.3,0.3-0.3,0.1-0.2,0.3c0-0.1-0.2-0.2-0.1-0.1c-0.2,0.2-0.2,0.5-0.2,0.8l-0.8-0.5
			c-0.2,0.1-0.2,0.3-0.4,0.4c0.1,0.1,0,0.2,0.2,0.2c-0.8,0-0.2,0.9-0.9,0.9c0,0,0-0.2,0-0.1l-0.1,0.3c0.2,0.1,0.1,0,0.3,0.1
			c0.1,0.1,0.1,0.2,0,0.3c0-0.2-0.3-0.2-0.4-0.2c0.1,0,0.1,0.1,0.2,0.1c-0.4,0,0.3,0.2,0,0.3l-0.1-0.1c0,0.1,0.1,0.3,0,0.3
			c-0.2-0.1,0-0.1-0.2-0.2c-0.1,0.1,0.2,0.5-0.1,0.4c0-0.1,0-0.2,0-0.2c-0.3,0-0.2,0-0.3,0.1l0,0l-0.2,0.2h0.1
			c0.4,0.5-0.1,0.4,0.1,0.8c-0.2-0.4-0.2-0.1-0.4-0.3c-0.1,0-0.2,0-0.3,0c0.1,0.2-0.2,0.1-0.1,0.4c-0.1,0-0.1,0.1-0.2,0
			c0,0.2,0.1,0.1,0.2,0.1c0.1,0.3-0.6,0.2-0.4,0.7c0,0.3,0.2,0.5,0.2,0.8c-0.2,0-0.2-0.2-0.2-0.2c-0.2,0-0.2,0.1-0.2,0.3
			c0-0.1-0.1-0.1-0.2-0.1c0,0.1,0.2,0.2,0,0.3c-0.1-0.1-0.2-0.2-0.2-0.3c0,0.1,0.1,0.3,0,0.5c-0.1-0.1-0.1-0.2-0.2-0.3
			c0,0.2-0.1,0.4,0.1,0.5h0.1l-0.2-0.1c-0.1-0.2,0.2-0.1,0.2-0.1v0.1c0.5,0.2,0.1-0.3,0.3-0.5l0.2,0.3l-0.1-0.3
			c0.1,0,0.3,0.1,0.3,0.2c0.2,0,0-0.2,0.2-0.2l0,0v-0.2c0,0.1,0.2,0.1,0.1,0.2c0.3-0.1,0-0.5,0.3-0.4l0,0c0.1-0.3-0.2-0.2-0.3-0.5
			l0.6,0.2L79.2,96c0,0,0.1-0.1,0.2,0c-0.1-0.2-0.1,0-0.2-0.2c0.3,0,0.2-0.4,0.5-0.2c-0.1-0.2-0.2,0-0.2-0.2c0.4,0.2,0-0.2,0.3-0.2
			c0.2,0.2,0,0.2,0.2,0.2c-0.3-0.3,0.2-0.2,0.2-0.3c-0.3-0.2,0-0.3,0.1-0.5c0.1,0.1,0.4-0.2,0.6-0.3l0,0c-0.2-0.2-0.1-0.3-0.1-0.5
			C81,93.9,81,94,81,94.1l0.1-0.1C81,93.9,81,93.9,81,93.8l0.2,0.2c0.1-0.2,0-0.5,0.2-0.6c-0.2-0.1-0.6-0.2-0.6-0.5
			c0.1,0.1,0.3,0.2,0.3,0.2V93l0.1,0.2c0.1,0-0.1-0.1,0-0.2c0.1,0.1,0.1,0,0.2,0.1c0,0-0.1,0-0.1,0.1c0.1-0.1,0.2-0.1,0.3-0.1
			c-0.1,0-0.2-0.1-0.2-0.2c0.1-0.2,0.2,0.1,0.3,0c-0.1-0.1,0.1-0.1-0.1-0.3c0,0,0.1,0,0.2,0c0-0.1,0.2-0.4-0.1-0.4l0,0l0,0l0,0l0,0
			c0-0.4,0.5-0.4,0.5-0.8h0.1c0-0.2,0.2-0.4,0.1-0.6c0,0,0.2,0,0.3,0.1c0-0.1,0-0.2,0.2-0.3c0,0.2,0.1,0,0,0.2
			c0.2-0.1,0.3-0.1,0.2-0.4c0.1,0.2,0.3,0,0.3-0.1h-0.2c0-0.1,0.1-0.2,0.2-0.2l0.2,0.2c0.5-0.1-0.1-0.9,0.5-0.8
			c-0.1-0.2-0.2,0.1-0.4-0.1c0.1-0.1,0.6,0,0.6-0.1c0.3-0.1-0.2-0.4,0-0.5c-0.1,0-0.3-0.2-0.3-0.4c0.1-0.1,0.5,0.1,0.5,0.2h-0.1
			c0,0.1,0,0.1,0.1,0.2l-0.1-0.1c0.1,0,0.3-0.2,0.4-0.1c0-0.2-0.1-0.1-0.2-0.1c0.2-0.1,0.2-0.3,0.4-0.4c-0.1,0-0.2,0-0.2-0.1
			c0.3-0.2-0.1-0.2,0-0.4c0.2,0,0.3,0.2,0.3,0c0.2-0.1,0.2,0.1,0.3,0.2c0-0.3,0.3-0.2,0.4-0.3v0.1c0-0.1,0-0.1,0.1-0.2l-0.2-0.1
			c0.1,0,0.1-0.1,0.2,0c-0.1-0.1-0.3-0.1-0.4-0.4c0.1,0,0.1-0.3,0.3-0.1c-0.2,0.2,0.2,0.1,0.2,0.3c0-0.1,0-0.1,0.1-0.1
			c0,0,0,0,0,0.1c0.3-0.1-0.2-0.3,0-0.5c0.1,0.1,0.3,0.1,0.3,0.1c-0.1,0.1-0.2-0.1-0.3-0.2c0.2-0.1,0-0.2,0.1-0.3L86,86.4
			c-0.1-0.1,0-0.2,0-0.3c0.1,0.1,0,0.1,0.1,0.1c-0.1-0.3,0.4-0.1,0.3-0.3c0.1,0,0.2,0.1,0.3,0.1c0-0.3,0.3-0.1,0.3-0.3
			c-0.2-0.1-0.2,0-0.2-0.3l-0.1,0.4l-0.1-0.3c-0.1,0.1,0,0.3-0.1,0.3c-0.1-0.2,0-0.1-0.2-0.2c0.3,0,0-0.3,0.3-0.4l0.4,0.3
			c0.3-0.1,0-0.5,0.3-0.7h-0.1c-0.1-0.1,0.1-0.2,0.1-0.3c0.1,0.1,0.2,0.1,0.3,0.1c-0.1-0.1,0.1-0.2-0.1-0.4h0.3
			c0.2-0.2-0.2-0.5,0-0.7c0.1,0.2,0.3,0.1,0.3,0.3c0-0.1,0.1-0.1,0-0.2c0.1,0-0.1-0.3,0.1-0.3c0-0.1-0.2-0.2-0.1-0.2h0.1
			c-0.1,0,0-0.2-0.2-0.2c0.6,0.1,0.4-0.6,0.9-0.6c0.1-0.2,0.1-0.4,0.2-0.5c0,0,0.1,0,0,0.1c0.3-0.1-0.3-0.4,0-0.5
			c0.3,0,0,0.2,0.2,0.2c0.5,0.3,0.1-0.3,0.5-0.3v0.1c0.2,0,0-0.4,0.2-0.6c0,0,0,0,0.1,0c-0.1-0.3-0.1-0.6,0-0.8
			c0.1,0.2,0,0.1,0.2,0.2c0-0.1-0.3-0.2-0.3-0.4c0.1,0,0.3,0,0.5,0.1l-0.2,0.3c0.3,0.1,0.1-0.2,0.2-0.2l0.1,0.1
			c0.1-0.3-0.2-0.4,0-0.7h-0.1c-0.2-0.3,0.2,0,0.1-0.3l0.3,0.1c0-0.1-0.1-0.5,0-0.7c0.1,0.2,0.1,0.5,0.2,0.7
			c0.1-0.1,0.2-0.3,0.1-0.4c0,0.1,0,0.1,0,0.1c-0.1-0.3-0.2-0.5,0-0.6c0.5,0.4,0.4-0.4,0.9-0.2c0-0.4,0.5-0.6,0.7-0.9
			c-0.5-0.2,0.1-0.1-0.4-0.4c0-0.1,0.1-0.1,0.1-0.1l0.4-0.1c0.2,0,0,0.1,0.1,0.2c0.2-0.2,0.2,0,0.4,0c-0.2-0.1-0.2-0.2,0-0.3h-0.3
			c-0.1-0.4,0.5,0,0.5-0.4l0.1,0.2c0-0.2,0.3-0.5,0.1-0.9c0.1,0,0.2,0.1,0.2,0.1c0.3-0.3,0.1-1,0.5-1.1l0.1,0.1c0-0.1-0.1-0.2,0-0.2
			l0.1,0.1c0-0.1-0.1-0.3,0-0.3l0.1,0.1c0.3-0.2,0-0.7,0.1-1c0.3,0.2,0.6,0,0.7-0.1l0,0c0.3-0.3,0.2-0.8,0.3-1.2
			c0.5,0,0.6-0.6,1-0.8c-0.1,0-0.2-0.2-0.2-0.2c0.1,0-0.1-0.4,0.2-0.2l0,0c0.3,0.1,0.4-0.1,0.4-0.2l-0.3-0.2c0.8,0,0.4-1,1-0.9
			c0-0.1,0-0.2,0-0.4l0.2,0.1c0.2-0.2,0.3-0.3,0.4-0.6l0.1,0.2c0.1-0.1-0.4-0.6-0.4-0.7l0.3,0.2c0.2-0.3,0.6-0.4,0.5-0.8l0.1,0.1
			c0.1-0.1,0.5-0.4,0.1-0.6c0.3,0.2,0.2-0.3,0.2-0.5l0.2,0.2c-0.2-0.3-0.2-0.3-0.2-0.6c0.1,0,0.2,0.1,0.1,0.1
			c0.2-0.1-0.1-0.2,0.1-0.3l0.1,0.1c0.1-0.1,0-0.2-0.1-0.3c0-0.1,0.2-0.2,0.4-0.1c-0.1-0.1-0.2-0.3-0.1-0.3c0.1,0,0.1,0.1,0.1,0.1
			c0.3-0.1,0-0.5,0.3-0.5c0.1,0,0.1,0.1,0.1,0.1c-0.1,0.2-0.2,0.3-0.2,0.3c0.2,0.1,0.3,0,0.5,0.3c-0.1-0.2-0.2-0.6,0-0.7
			c0,0,0,0,0.1,0l0,0v-0.1c0.1,0,0.1,0,0.1-0.1c0.2,0.1,0.2-0.1,0.3-0.2c-0.2-0.1-0.1-0.2-0.3-0.2c0,0,0,0,0,0.1l0,0l0,0
			c0,0.1-0.1,0.1-0.1,0.2c-0.1-0.1-0.1-0.2,0.1-0.3c-0.1-0.1-0.2-0.3-0.2-0.3c0.3,0.1,0.6,0,0.8,0.1c0-0.3,0.3-0.6,0-1
			c0-0.1,0.2,0,0.2,0c0,0.1,0,0.1,0,0.2c0-0.2,0.2-0.4,0-0.6c0.2-0.1,0.2,0.3,0.3,0l0.1,0.1c0.7-0.2-0.2-1.2,0.7-1.3
			c-0.1,0-0.1,0-0.1,0c0.6-0.4,0.5-1.3,1.3-1.6c0.2-0.1,0-0.2,0-0.4l0.2,0.1l-0.1-0.3c0-0.3,0.8,0,0.6-0.6l-0.2-0.1
			c0.1-0.1,0.1-0.4,0.3-0.3c0,0-0.1-0.1,0-0.1l0.1,0.1V58c0.2-0.1,0.4,0.3,0.6,0c0-0.1-0.1-0.5-0.2-0.5c0,0-0.1,0.1-0.3,0v-0.1
			c-0.3-0.2-0.6-0.5-1-0.4l0.1,0.3l-0.2-0.1l0.1-0.1c-0.2,0-0.1,0.1-0.1,0.2c-0.1,0-0.2-0.1-0.2,0l0.2,0.4c-0.1-0.1-0.2-0.2-0.3-0.2
			c0.1,0.2,0.3,0.1,0.3,0.3c-0.2,0-0.3-0.1-0.2,0.1c-0.1,0-0.1-0.1-0.1-0.2c0,0.2-0.1,0.3,0,0.4c-0.2,0-0.1,0.3-0.4,0.1
			c0.1,0.1,0.1,0.3,0.1,0.4c-0.3-0.4-0.2,0.3-0.6,0c0.3,0.3-0.1,0.5,0,0.8c0,0-0.1-0.1,0-0.1c-0.1,0.1-0.2,0-0.3,0.1
			c0.3,0.2,0.2,0.4,0.3,0.6c-0.4,0-0.3-0.3-0.6-0.4c0.2,0.1,0.1,0.4,0.3,0.5c-0.2,0-0.1,0-0.4-0.1c0.3,0.2,0,0.1,0.2,0.4
			c-0.3,0-0.3-0.2-0.3,0C101.4,60.3,101.4,60.1,101.4,60.1z M99.5,64.2L99.5,64.2C99.5,64.2,99.5,64.1,99.5,64.2
			C99.5,64.1,99.5,64.2,99.5,64.2z M99.3,64.5L99.3,64.5c0.2-0.1,0.2,0,0.2,0C99.5,64.5,99.4,64.5,99.3,64.5z M101.1,64.8
			C101.1,64.9,101,64.8,101.1,64.8C101,64.8,101,64.8,101.1,64.8C101,64.7,101,64.7,101.1,64.8C101,64.7,101.1,64.8,101.1,64.8z"/>
		<path class="st1" d="M100.9,64.5L100.9,64.5C100.9,64.5,100.8,64.5,100.9,64.5C100.8,64.5,100.9,64.5,100.9,64.5L100.9,64.5z"/>
		<path class="st1" d="M82,92.2L82,92.2L82,92.2L82,92.2z"/>
		<polygon class="st1" points="96,68.5 96.1,68.5 96.1,68.4 		"/>
		<path class="st1" d="M80.2,93.5C80.1,93.4,80.1,93.4,80.2,93.5C80.1,93.5,80.1,93.5,80.2,93.5z"/>
		<path class="st1" d="M79.6,94.2L79.6,94.2L79.6,94.2z"/>
		<path class="st1" d="M79.1,94.7C79.2,94.7,79.2,94.7,79.1,94.7C79.2,94.7,79.2,94.7,79.1,94.7L79.1,94.7z"/>
		<path class="st1" d="M84.8,85.6C84.9,85.6,84.9,85.6,84.8,85.6C84.8,85.5,84.8,85.5,84.8,85.6z"/>
		<path class="st1" d="M83.6,88.5C83.6,88.4,83.6,88.4,83.6,88.5C83.5,88.4,83.5,88.4,83.6,88.5z"/>
		<path class="st1" d="M86.6,82.4L86.6,82.4L86.6,82.4L86.6,82.4z"/>
		<path class="st1" d="M83.7,88.2C83.6,88.2,83.6,88.3,83.7,88.2C83.6,88.3,83.7,88.3,83.7,88.2z"/>
		<path class="st1" d="M77.4,97.1L77.4,97.1L77.4,97.1L77.4,97.1z"/>
		<path class="st1" d="M77.4,97.1L77.4,97.1C77.4,97.2,77.4,97.1,77.4,97.1z"/>
		<path class="st1" d="M77.4,97.3L77.4,97.3C77.4,97.2,77.4,97.2,77.4,97.3z"/>
		<path class="st1" d="M78,96.4L78,96.4C77.9,96.3,78,96.4,78,96.4z"/>
		<path class="st1" d="M78.1,96.1c-0.1,0-0.2,0-0.3,0.1h0.1C77.9,96.2,78.2,96.3,78.1,96.1z"/>
		<path class="st1" d="M79.7,95.8L79.5,96c0.1,0,0.2,0,0.2,0.1C80,96,79.5,96,79.7,95.8z"/>
		<path class="st1" d="M80.2,95.3c0,0.1,0.1,0.1,0.2,0.1C80.3,95.3,80.3,95.2,80.2,95.3z"/>
		<path class="st1" d="M83,91l0.2,0.1C83.2,91,83.1,91,83,91z"/>
		<polygon class="st1" points="82.7,89.5 82.5,89.5 82.6,89.7 		"/>
		<polygon class="st1" points="84.2,89.9 84.2,89.9 84.2,89.8 		"/>
		<path class="st1" d="M88.9,82.7l-0.2-0.1C88.7,82.7,88.9,82.9,88.9,82.7z"/>
		<path class="st1" d="M90.8,79.5c0.1,0,0.3,0,0.2-0.1C90.9,79.4,90.8,79.4,90.8,79.5z"/>
		<polygon class="st1" points="97.3,70.5 97.3,70.6 97.3,70.4 		"/>
	</g>
	<g>
		<path class="st1" d="M32.6,86.6c0,0.1,0.2,0.1,0.2,0.1L32.6,86.6L32.6,86.6z"/>
		<path class="st1" d="M33.3,86.5c-0.1-0.1-0.2-0.3-0.5-0.4c0.2,0.2,0.1,0.2,0.3,0.4c0,0.1-0.1,0-0.2,0c0,0.1-0.1,0,0,0.2
			c0.2,0.1,0.3,0,0.2-0.2C33.2,86.4,33.2,86.5,33.3,86.5z"/>
		<path class="st1" d="M36.9,82.1L36.9,82.1C36.8,82.1,36.8,82.1,36.9,82.1z"/>
		<path class="st1" d="M39,79.2C39,79.3,39,79.3,39,79.2C39,79.3,39,79.2,39,79.2z"/>
		<path class="st1" d="M39.6,78.9C39.6,78.9,39.5,78.9,39.6,78.9L39.6,78.9z"/>
		<path class="st1" d="M36.9,82.1L36.9,82.1C36.9,82,36.9,82,36.9,82.1z"/>
		<path class="st1" d="M33.2,85.5C33.2,85.5,33.2,85.6,33.2,85.5C33.2,85.6,33.2,85.5,33.2,85.5L33.2,85.5z"/>
		<path class="st1" d="M36.2,83.5L36.2,83.5C36.2,83.5,36.2,83.6,36.2,83.5L36.2,83.5z"/>
		<path class="st1" d="M35.5,84.5l-0.2-0.2C35.4,84.4,35.4,84.4,35.5,84.5L35.5,84.5z"/>
		<path class="st1" d="M34.1,85.8L34.1,85.8C34.1,85.9,34.1,85.8,34.1,85.8z"/>
		<path class="st1" d="M36.7,82.8L36.7,82.8L36.7,82.8z"/>
		<path class="st1" d="M53.8,54.5L53.8,54.5L53.8,54.5z"/>
		<path class="st1" d="M55.6,54L55.6,54C55.6,54.1,55.7,54.1,55.6,54L55.6,54z"/>
		<path class="st1" d="M40.4,78.2L40.4,78.2L40.4,78.2z"/>
		<path class="st1" d="M45.9,69.8c-0.2,0-0.1-0.3-0.4-0.3C45.6,69.5,45.7,69.8,45.9,69.8z"/>
		<path class="st1" d="M33.2,85.5L33.2,85.5L33.2,85.5z"/>
		<path class="st1" d="M45.5,69.5L45.5,69.5L45.5,69.5L45.5,69.5z"/>
		<path class="st1" d="M41.8,76.1L41.8,76.1C41.7,76.1,41.7,76.1,41.8,76.1z"/>
		<path class="st1" d="M40.4,77.4L40.4,77.4C40.4,77.3,40.4,77.4,40.4,77.4z"/>
		<path class="st1" d="M42,75.1C42.1,75.1,42.1,75.1,42,75.1C42.1,75,42.1,75,42,75.1C42.1,75.1,42.1,75.1,42,75.1z"/>
		<path class="st1" d="M42.6,74.2L42.6,74.2C42.5,74.2,42.5,74.3,42.6,74.2L42.6,74.2z"/>
		<path class="st1" d="M52.3,57c0.1,0,0.1,0,0.2,0.1C52.3,57,52.4,56.9,52.3,57z"/>
		<path class="st1" d="M33.3,85.6C33.2,85.5,33.2,85.5,33.3,85.6C33.2,85.5,33.2,85.5,33.3,85.6C33.2,85.6,33.3,85.6,33.3,85.6z"/>
		<path class="st1" d="M40.5,74L40.5,74C40.6,73.9,40.5,73.9,40.5,74z"/>
		<path class="st1" d="M48.2,63.1L48.2,63.1C48.1,63.1,48.1,63.1,48.2,63.1z"/>
		<path class="st1" d="M40.9,73.5c0.1,0,0.1,0,0.2,0c0,0,0,0,0-0.1L40.9,73.5z"/>
		<path class="st1" d="M52.5,57.1L52.5,57.1L52.5,57.1z"/>
		<path class="st1" d="M52.6,56c-0.1,0.1,0.2,0.2,0.3,0.4c0,0.2-0.2-0.1-0.4-0.1c0,0.1,0.2,0.4,0.1,0.4c0,0-0.1,0-0.1-0.1
			c0.1,0.2-0.2,0.3,0,0.6h-0.1c0.1,0.1,0.3,0.2,0.4,0.2c0,0.1,0.1,0.2-0.1,0.1c0,0,0-0.1-0.1-0.1v0.1c-0.3-0.1,0-0.1-0.2-0.3
			c0,0.2,0.1,0.4,0,0.5c-0.2-0.1,0.1-0.3-0.2-0.3l0.2-0.1C52,57.1,52.5,57.1,52,57c-0.2,0.1,0,0.3-0.2,0.4c0.1,0.1,0.2,0.1,0.3,0.3
			c0.1,0.4-0.7-0.2-0.5,0.2c0.1,0.2,0.4,0.4,0.2,0.4l-0.2-0.2c-0.1,0.2,0.3,0.4,0,0.4c-0.1-0.1,0-0.2,0-0.2c-0.3,0,0.1,0.2,0,0.3
			l-0.3-0.1c-0.1,0.2-0.1,0.5-0.2,0.8c-0.1-0.1-0.1-0.1-0.2-0.1c-0.1,0.3-0.4,0.5-0.7,0.7l0.1,0.2c0,0-0.1,0-0.1-0.1
			c-0.1,0,0.1,0.1,0.2,0.2c0,0.1-0.2,0-0.2-0.1c0.1,0.3,0,0.8-0.3,0.8v-0.1c-0.2,0.1,0.3,0.4,0,0.5v-0.1c-0.3,0.3-0.3,0.7-0.8,0.7
			c0.3,0.2-0.3,0.2,0.1,0.5c-0.3,0-0.4-0.1-0.7,0.1c-0.1,0.1,0.2,0.3,0.2,0.4l-0.2-0.1l0.1,0.3L48.3,63v0.1c0,0,0.1,0,0.2,0
			c0,0.2-0.4,0.2-0.5,0.1v0.4c-0.1-0.1-0.1-0.1-0.1-0.2c0.1,0.3-0.2-0.1-0.1,0.2c0.1,0,0.1,0.1,0.2,0.1c-0.2,0-0.3,0.1-0.3,0.3
			l-0.1-0.1c-0.2,0.2-0.2,0.5-0.4,0.7c0.1,0,0.4,0.2,0.3,0.2l-0.2-0.1c0.1,0.1,0.1,0,0.2,0.2c-0.1,0.1-0.3-0.1-0.3-0.2v0.2
			c-0.1,0-0.1-0.1-0.2-0.2c0.1,0.1-0.4,0-0.2,0.3h-0.1c-0.2,0.2-0.2,0.4-0.3,0.6c0.2,0.1,0.1,0.2,0.2,0.3c-0.2,0.1-0.4,0.2-0.5,0.3
			c0,0.2,0.1,0.1,0.2,0.3c-0.2-0.1-0.3,0.1-0.4-0.1c-0.2,0.2-0.2,0.3-0.2,0.6c0.1,0,0.1,0,0.2,0.1c0,0.1-0.1,0.1-0.2,0l0,0
			c0.1,0.5-1,0.3-0.8,0.8l0,0v0.4c-0.1,0.1-0.1-0.2-0.3-0.2c0.1,0.5-0.3,0.4-0.3,0.7c-0.6-0.2-0.4,0.6-0.9,0.6l0.1,0.1
			c0.1,0.1-0.1,0-0.2,0c0.1,0.1,0.2,0,0.2,0.1c-0.2,0.6-0.9,0.9-1.3,1.3c-0.2,0.2,0.6,0.5,0.1,0.6l-0.2-0.2c0,0.6-0.5,0.8-0.5,1.3
			c0-0.1-0.1-0.1-0.1-0.1c-0.2,0-0.2,0.3-0.1,0.4c-0.1,0-0.1-0.1-0.2-0.1c-0.2,0,0.1,0.3-0.1,0.3v-0.1c0,0.1-0.2,0.2,0,0.3
			c-0.2,0.1-0.1,0.3-0.3,0.4c0.2,0.2-0.3,0.2,0,0.4c-0.3-0.2-0.4,0.1-0.3,0.3c-0.1-0.1-0.2,0-0.3-0.1c-0.1,0.1-0.1,0.2,0.1,0.3
			c-0.5-0.1,0.1,0.6-0.5,0.3c0,0.4-0.1,0.8-0.2,1.1c-0.3-0.2,0.2-0.3-0.2-0.5c0,0.3,0.1,0.7-0.1,0.9c-0.1,0-0.1-0.1-0.2-0.2
			c0,0.3-0.4,0.5-0.3,0.8c0,0,0-0.1-0.1-0.1c0,0.1-0.1,0.1,0,0.2v-0.1c0.3,0.1,0.3,0.5,0.4,0.6c-0.4-0.4-0.3,0.1-0.7-0.3
			c0,0,0.1,0.1,0.2,0.2c-0.1,0-0.1,0-0.2-0.1c0,0.2,0.2,0.3,0.1,0.4c-0.1,0-0.1-0.1-0.1-0.2c0.1,0.2,0.2,0.3,0,0.4l-0.1-0.1
			c-0.1,0.2,0.1,0.6-0.2,0.7c-0.3-0.3-0.2,0-0.4-0.2v0.2H38c-0.1,0.1,0,0.3-0.1,0.4l-0.1-0.2l-0.1,0.2h0.2c0.1,0.2,0.3,0.2,0.2,0.3
			c0,0-0.1,0.1-0.3,0.1l0,0c0,0.1,0.1,0.2,0,0.3c-0.1,0-0.3-0.2-0.3-0.2c0.2,0.2-0.1,0.3,0.1,0.5c0-0.1-0.2-0.2-0.2-0.2l0.1,0.2
			c-0.1,0-0.1,0-0.2-0.1c-0.1,0.1,0.4,0.2,0.1,0.3c0,0,0,0,0-0.1c-0.2,0.1-0.1,0.4-0.3,0.5c-0.3-0.1,0-0.2-0.2-0.3
			c-0.1,0.3,0,0.7-0.2,0.9h0.1c0.3,0.3-0.3,0-0.2,0.3c0,0-0.2-0.2-0.1-0.1c-0.2,0.1-0.1,0.4-0.2,0.7l-0.1-0.1
			c-0.1,0-0.2,0.2-0.3,0.3c0.1,0.1,0,0.1,0.2,0.2c-0.7-0.1-0.1,0.8-0.7,0.7v-0.1l-0.1,0.3c0.2,0.1,0.1,0,0.3,0.1
			c0.1,0.1,0.1,0.2,0.1,0.3c0-0.2-0.3-0.2-0.4-0.2c0.1,0,0.1,0.1,0.2,0.1c-0.4-0.1,0.3,0.2,0,0.3l-0.2-0.5c0,0.1,0.1,0.2,0,0.3
			c-0.2-0.1,0-0.1-0.2-0.2c-0.1,0.1,0.2,0.4,0,0.4c0-0.1,0-0.1,0-0.2c-0.3-0.1-0.2,0-0.3,0l0,0l-0.2,0.1h0.1
			c0.4,0.4-0.1,0.3,0.1,0.7c-0.2-0.4-0.2-0.1-0.4-0.3c-0.1,0-0.2,0-0.2,0c0.1,0.2-0.2,0,0,0.3c-0.1,0-0.1,0.1-0.2-0.1
			c0,0.1,0.1,0.1,0.2,0.1c0.1,0.3-0.5,0.2-0.3,0.6c0,0.3,0.2,0.5,0.2,0.7c-0.1,0-0.2-0.2-0.2-0.2c-0.2,0-0.2,0.1-0.2,0.2
			c0-0.1-0.1-0.1-0.2-0.1c0,0.1,0.2,0.2,0.1,0.2c-0.1-0.1-0.2-0.2-0.2-0.3c0,0.1,0.1,0.3,0.1,0.4c-0.1-0.1-0.1-0.2-0.2-0.3
			c0,0.1-0.1,0.3,0.1,0.5h0.1L33.3,86c-0.1-0.2,0.1-0.1,0.2,0v0.1c0.4,0.2,0.1-0.3,0.2-0.4l0.3,0.2l-0.2-0.3c0.1,0,0.3,0.1,0.3,0.2
			c0.2,0,0-0.1,0.2-0.1l0,0v-0.1c0,0.1,0.2,0.1,0.1,0.1c0.3,0,0-0.4,0.2-0.3l0,0c0-0.3-0.2-0.2-0.3-0.5l0.6,0.2l-0.2-0.2
			c0,0,0.1-0.1,0.1,0c-0.1-0.2-0.1,0-0.2-0.2c0.3,0,0.1-0.4,0.5-0.1c-0.1-0.1-0.2,0-0.2-0.2c0.4,0.2,0-0.2,0.3-0.2
			c0.2,0.2,0,0.2,0.2,0.2c-0.3-0.3,0.2-0.1,0.2-0.3c-0.3-0.2,0-0.3,0-0.4c0.1,0.1,0.3-0.2,0.5-0.2l0,0c-0.2-0.2-0.1-0.3-0.1-0.4
			c0.2,0.1,0.2,0.2,0.2,0.3l0.1-0.1c-0.1-0.1-0.1-0.1-0.1-0.2l0.2,0.2c0.1-0.1-0.1-0.4,0.2-0.5c-0.2-0.1-0.6-0.2-0.6-0.5
			c0.1,0.1,0.3,0.2,0.3,0.2v-0.1l0.1,0.2c0.1,0-0.1-0.1-0.1-0.2c0.1,0.1,0.1,0,0.2,0.1c0,0-0.1,0-0.1,0.1c0.1,0,0.2-0.1,0.3,0
			c-0.1,0-0.2-0.1-0.2-0.2c0.1-0.1,0.2,0.1,0.3,0c-0.1-0.1,0.1-0.1-0.1-0.2c0,0,0.1,0,0.2,0c0-0.1,0.2-0.3-0.1-0.4l0,0l0,0l0,0l0,0
			c-0.1-0.3,0.4-0.3,0.5-0.6h0.1c0-0.2,0.1-0.3,0-0.5c0,0,0.2,0,0.3,0.1c0-0.1-0.1-0.2,0.1-0.2c0.1,0.2,0.1,0,0,0.2
			c0.1-0.1,0.3,0,0.2-0.3c0.1,0.2,0.3,0.1,0.3,0h-0.2c0-0.1,0.1-0.1,0.1-0.2l0.2,0.2c0.5-0.1-0.2-0.8,0.4-0.6
			c-0.1-0.2-0.2,0.1-0.4-0.1c0.1-0.1,0.5,0,0.5,0c0.2-0.1-0.2-0.4,0-0.5c-0.1,0-0.3-0.2-0.3-0.3c0.1-0.1,0.4,0.1,0.5,0.2
			c0,0,0,0-0.1,0c0,0.1,0,0.1,0.1,0.1L39,79.2c0.1,0,0.2-0.2,0.3,0c0-0.1-0.1-0.1-0.2-0.1c0.2-0.1,0.2-0.2,0.3-0.3
			c-0.1,0-0.2-0.1-0.2-0.1c0.3-0.2-0.1-0.2,0-0.4c0.2,0,0.3,0.2,0.3,0c0.1,0,0.2,0.1,0.3,0.2c-0.1-0.2,0.3-0.2,0.4-0.2v0.1
			c0-0.1,0-0.1,0-0.1L40,78.2c0.1,0,0.1-0.1,0.2,0c-0.1-0.1-0.3-0.2-0.4-0.3c0.1,0,0-0.2,0.3-0.1c-0.2,0.1,0.2,0.1,0.2,0.3
			c0,0,0-0.1,0.1-0.1c0,0,0,0,0,0.1c0.3,0-0.2-0.2-0.1-0.4c0.1,0.1,0.3,0.1,0.3,0.1c-0.1,0.1-0.2-0.1-0.3-0.2c0.2,0,0-0.2,0.1-0.2
			h-0.1c-0.1-0.1-0.1-0.2,0-0.3c0.1,0.1,0,0.1,0.1,0.1c-0.2-0.2,0.4,0,0.3-0.3c0.1,0,0.2,0.2,0.3,0.1c-0.1-0.2,0.3,0,0.2-0.3
			c-0.2-0.1-0.2,0-0.3-0.2v0.3l-0.1-0.2c-0.1,0.1,0,0.2-0.1,0.2c-0.1-0.2-0.1-0.1-0.2-0.2c0.3,0.1,0-0.3,0.2-0.3l0.4,0.3
			c0.3,0,0-0.4,0.2-0.6h-0.1c-0.1-0.1,0.1-0.2,0.1-0.3c0.1,0.1,0.2,0.1,0.3,0.1c-0.1-0.1,0.1-0.2-0.1-0.4h0.2
			c0.2-0.1-0.3-0.5-0.1-0.6c0.1,0.2,0.3,0.1,0.3,0.3c0-0.1,0.1-0.1,0-0.2c0.1,0-0.1-0.3,0.1-0.2c0-0.1-0.2-0.2-0.1-0.2H42
			c-0.1,0,0-0.2-0.2-0.2c0.5,0.1,0.3-0.5,0.8-0.4c0-0.2,0.1-0.3,0.2-0.5c0,0,0.1,0,0,0.1c0.2-0.1-0.3-0.4-0.1-0.4
			c0.3,0.1,0.1,0.2,0.2,0.2c0.5,0.3,0.1-0.3,0.4-0.2l0,0c0.2,0,0-0.3,0.1-0.5c0,0,0,0,0.1,0c-0.2-0.3-0.1-0.5-0.1-0.7
			c0.1,0.2,0,0.1,0.2,0.2c0-0.1-0.3-0.2-0.3-0.3c0.1,0,0.3,0,0.5,0.1l0,0.4c0.3,0.1,0.1-0.2,0.2-0.2l0.1,0.1c0.1-0.2-0.2-0.4,0-0.6
			h-0.1c-0.2-0.3,0.2,0,0.1-0.2l0.3,0.2c0-0.1-0.1-0.4-0.1-0.6c0.2,0.2,0.2,0.4,0.2,0.6c0.1-0.1,0.1-0.3,0-0.4c0,0,0.1,0.1,0,0.1
			c-0.2-0.2-0.2-0.4-0.1-0.6c0.5,0.4,0.4-0.3,0.9-0.1c0-0.4,0.4-0.4,0.6-0.8c-0.5-0.2,0-0.1-0.4-0.4c0-0.1,0-0.1,0.1-0.1h0.4
			c0.2,0,0.1,0.1,0.2,0.2c0.1-0.1,0.2,0.1,0.4,0c-0.2-0.1-0.2-0.2-0.1-0.2h-0.3c-0.1-0.4,0.5,0.1,0.4-0.3l0.1,0.2
			c0-0.2,0.3-0.4,0-0.7c0.1,0,0.2,0.1,0.2,0.1c0.2-0.2,0-0.8,0.4-0.9l0.1,0.1c0-0.1-0.1-0.2,0-0.2l0.1,0.1c0,0-0.1-0.3,0-0.3
			l0.1,0.1c0.3-0.2,0-0.6,0-0.8c0.3,0.2,0.5,0.1,0.7,0l0,0c0.2-0.3,0.1-0.7,0.1-1c0.4,0.1,0.5-0.5,0.9-0.6c-0.1,0-0.2-0.2-0.2-0.2
			c0.1,0-0.1-0.3,0.2-0.1l0,0c0.3,0.1,0.3,0,0.4-0.1l-0.4-0.3c0.7,0.1,0.3-0.8,0.9-0.6c0-0.1,0-0.2,0-0.3l0.2,0.1
			c0.2-0.1,0.3-0.2,0.4-0.5l0.1,0.1c0.1-0.1-0.5-0.5-0.4-0.7l0.3,0.2c0.1-0.2,0.6-0.3,0.4-0.7l0.1,0.1c0.1-0.1,0.5-0.3,0-0.5
			c0.3,0.2,0.2-0.2,0.1-0.4l0.2,0.2c-0.2-0.3-0.2-0.3-0.2-0.5c0,0,0.2,0.1,0.1,0.1c0.2,0-0.1-0.2,0.1-0.3l0.1,0.1
			c0.1-0.1,0-0.1-0.1-0.3c0-0.1,0.2-0.2,0.4-0.1c-0.2,0-0.3-0.1-0.2-0.2c0.1,0,0.1,0.1,0.1,0.1c0.3-0.1,0-0.4,0.2-0.4
			c0.1,0,0.1,0.1,0.1,0.1c-0.1,0.1-0.2,0.3-0.2,0.2c0.2,0.1,0.3,0,0.5,0.3c-0.1-0.2-0.3-0.6-0.1-0.6c0,0,0,0,0.1,0l0,0V60
			c0.1,0,0.1,0,0.1-0.1c0.2,0.1,0.2-0.1,0.2-0.1c-0.2-0.1-0.1-0.2-0.3-0.2c0,0,0,0,0,0.1l0,0l0,0c0,0-0.1,0.1-0.1,0.2
			c-0.1-0.1-0.1-0.2,0-0.2c-0.1-0.1-0.2-0.2-0.3-0.3c0.3,0.1,0.6,0,0.8,0.1c0-0.3,0.2-0.5-0.1-0.8c0-0.1,0.1,0,0.2,0
			c0,0.1,0,0.1,0,0.1c0-0.2,0.2-0.3-0.1-0.5c0.2-0.1,0.2,0.2,0.3,0l0.1,0.1c0.7-0.1-0.3-1,0.5-1.1c-0.1,0-0.1,0-0.1,0
			c0.5-0.3,0.4-1.1,1.1-1.3c0.2-0.1,0-0.2-0.1-0.4l0.2,0.1l0.1-0.2c-0.1-0.3,0.7,0,0.6-0.4l-0.2-0.1c0.1-0.1,0.1-0.3,0.3-0.2
			c0,0-0.1-0.1,0-0.1l0.1,0.1v-0.3c0.2-0.1,0.4,0.3,0.6,0.1c0-0.1-0.2-0.5-0.2-0.5s-0.1,0-0.2,0v-0.1c-0.3-0.2-0.6-0.5-1-0.5
			l0.1,0.3l-0.2-0.1l-0.1-0.2c-0.2,0-0.1,0.1,0,0.2c-0.1,0-0.2-0.1-0.2-0.1l0.2,0.3c-0.1-0.1-0.2-0.2-0.3-0.2
			c0.1,0.2,0.3,0.1,0.4,0.3c-0.2,0-0.3-0.1-0.2,0c-0.1,0-0.1-0.1-0.1-0.2c0.1,0.1-0.1,0.2,0.1,0.4c-0.2-0.1-0.1,0.3-0.4,0
			c0.1,0.1,0.2,0.3,0.1,0.4c-0.3-0.4-0.2,0.2-0.6-0.1c0.3,0.3-0.1,0.4,0,0.7c0,0-0.1-0.1,0-0.1c-0.1,0.1-0.2,0-0.3,0
			c0.3,0.2,0.2,0.4,0.4,0.6c-0.3-0.1-0.3-0.3-0.6-0.4c0.2,0.1,0.1,0.3,0.3,0.4c-0.2,0-0.1,0-0.4-0.1c0.3,0.2,0,0.1,0.2,0.3
			c-0.2,0-0.3-0.2-0.3,0C52.7,56.1,52.6,56,52.6,56z M51.2,59.3L51.2,59.3C51.2,59.3,51.2,59.2,51.2,59.3
			C51.2,59.2,51.2,59.3,51.2,59.3z M51,59.5L51,59.5c0.2-0.1,0.2,0,0.2,0C51.2,59.5,51.1,59.5,51,59.5z M52.7,59.9
			C52.7,60,52.7,60,52.7,59.9C52.6,59.9,52.6,59.9,52.7,59.9C52.6,59.9,52.6,59.9,52.7,59.9L52.7,59.9z"/>
		<path class="st1" d="M52.5,59.7L52.5,59.7L52.5,59.7L52.5,59.7L52.5,59.7z"/>
		<path class="st1" d="M36.8,82.1L36.8,82.1L36.8,82.1L36.8,82.1z"/>
		<polygon class="st1" points="48.3,62.8 48.3,62.8 48.3,62.7 		"/>
		<path class="st1" d="M35.2,83C35.2,83,35.1,83,35.2,83C35.1,83,35.2,83,35.2,83z"/>
		<path class="st1" d="M34.7,83.6L34.7,83.6C34.7,83.6,34.7,83.6,34.7,83.6z"/>
		<path class="st1" d="M34.3,84C34.4,84,34.4,84,34.3,84C34.4,84,34.4,84,34.3,84L34.3,84z"/>
		<path class="st1" d="M39.1,76.6L39.1,76.6C39.1,76.5,39.1,76.5,39.1,76.6z"/>
		<path class="st1" d="M38,79L38,79C38,78.9,37.9,78.9,38,79z"/>
		<path class="st1" d="M40.5,74L40.5,74L40.5,74L40.5,74z"/>
		<path class="st1" d="M38.1,78.8C38,78.8,38,78.8,38.1,78.8C38,78.8,38.1,78.8,38.1,78.8z"/>
		<path class="st1" d="M32.9,85.9L32.9,85.9L32.9,85.9L32.9,85.9z"/>
		<path class="st1" d="M32.9,85.9L32.9,85.9C32.9,86,32.9,86,32.9,85.9z"/>
		<path class="st1" d="M32.9,86.1L32.9,86.1C32.9,86,32.9,86,32.9,86.1z"/>
		<path class="st1" d="M33.4,85.4L33.4,85.4C33.3,85.3,33.3,85.3,33.4,85.4z"/>
		<path class="st1" d="M33.5,85.2c0,0-0.2,0-0.2,0.1L33.5,85.2C33.2,85.2,33.6,85.3,33.5,85.2z"/>
		<path class="st1" d="M34.9,85l-0.2,0.1c0.1,0,0.2,0.1,0.2,0.1C35.3,85.2,34.7,85.2,34.9,85z"/>
		<path class="st1" d="M35.3,84.6c0,0.1,0.1,0.1,0.2,0.1C35.4,84.6,35.4,84.6,35.3,84.6z"/>
		<path class="st1" d="M37.7,81.1l0.2,0.1C37.9,81.2,37.8,81.2,37.7,81.1z"/>
		<polygon class="st1" points="37.2,79.8 37.1,79.8 37.2,79.9 		"/>
		<polygon class="st1" points="38.8,80.3 38.8,80.3 38.8,80.2 		"/>
		<path class="st1" d="M42.7,74.5l-0.3-0.1C42.4,74.4,42.7,74.6,42.7,74.5z"/>
		<path class="st1" d="M44.1,71.8c0.1,0,0.2,0,0.2-0.1C44.2,71.8,44.1,71.8,44.1,71.8z"/>
		<path class="st1" d="M49.6,64.6L49.6,64.6L49.6,64.6z"/>
	</g>
	<g>
		<path class="st1" d="M52.3,99.3c0,0.1,0.2,0.1,0.2,0.1L52.3,99.3L52.3,99.3z"/>
		<path class="st1" d="M53,99.2c-0.1-0.1-0.2-0.4-0.5-0.4c0.2,0.2,0.1,0.2,0.3,0.4c0,0.1-0.1,0.1-0.2,0c0,0.1-0.1,0.1,0,0.2
			c0.2,0,0.3-0.1,0.2-0.3C52.9,99.1,52.9,99.1,53,99.2z"/>
		<path class="st1" d="M57,93.6L57,93.6L57,93.6z"/>
		<path class="st1" d="M59.5,90C59.4,90.1,59.5,90.1,59.5,90C59.5,90.1,59.5,90,59.5,90z"/>
		<path class="st1" d="M60.1,89.6L60.1,89.6L60.1,89.6z"/>
		<path class="st1" d="M57,93.6L57,93.6C57.1,93.5,57.1,93.6,57,93.6z"/>
		<path class="st1" d="M52.9,98C52.9,98,52.9,98.1,52.9,98C53,98.1,53,98,52.9,98C53,98,52.9,98,52.9,98z"/>
		<path class="st1" d="M56.2,95.3L56.2,95.3C56.2,95.4,56.2,95.4,56.2,95.3L56.2,95.3z"/>
		<path class="st1" d="M55.4,96.6l-0.2-0.2C55.3,96.5,55.3,96.5,55.4,96.6C55.3,96.5,55.4,96.6,55.4,96.6z"/>
		<path class="st1" d="M53.8,98.2L53.8,98.2C53.8,98.3,53.8,98.3,53.8,98.2z"/>
		<path class="st1" d="M56.8,94.5L56.8,94.5L56.8,94.5z"/>
		<path class="st1" d="M77,59.3C77.1,59.3,77.1,59.3,77,59.3C77.1,59.3,77,59.3,77,59.3z"/>
		<path class="st1" d="M78.9,58.5L78.9,58.5C78.9,58.6,79,58.6,78.9,58.5L78.9,58.5z"/>
		<path class="st1" d="M61.1,88.6L61.1,88.6C61.1,88.7,61.1,88.6,61.1,88.6z"/>
		<path class="st1" d="M67.5,78.1c-0.3,0-0.1-0.3-0.4-0.3C67.2,77.9,67.3,78.2,67.5,78.1z"/>
		<path class="st1" d="M53,98C53,98,53,97.9,53,98L53,98z"/>
		<path class="st1" d="M67.1,77.8L67.1,77.8L67.1,77.8L67.1,77.8z"/>
		<path class="st1" d="M62.6,86L62.6,86C62.6,86,62.6,86,62.6,86z"/>
		<path class="st1" d="M61.1,87.7L61.1,87.7L61.1,87.7z"/>
		<path class="st1" d="M63,84.8C63,84.8,63.1,84.8,63,84.8C63.1,84.7,63,84.7,63,84.8C63.1,84.8,63.1,84.8,63,84.8z"/>
		<path class="st1" d="M63.6,83.7C63.6,83.7,63.5,83.7,63.6,83.7C63.5,83.7,63.5,83.8,63.6,83.7L63.6,83.7z"/>
		<path class="st1" d="M75.1,62.5c0.1,0,0.1,0,0.2,0.1C75.1,62.5,75.2,62.3,75.1,62.5z"/>
		<path class="st1" d="M53,98.1C53,98,53,98,53,98.1C53,98,53,98,53,98.1C53,98,53,98.1,53,98.1z"/>
		<path class="st1" d="M61.5,83.8L61.5,83.8C61.5,83.6,61.5,83.7,61.5,83.8z"/>
		<path class="st1" d="M70.4,70.1L70.4,70.1C70.4,70,70.4,70,70.4,70.1z"/>
		<path class="st1" d="M61.9,83.1c0.1,0,0.2,0,0.2,0s0,0,0-0.1L61.9,83.1z"/>
		<path class="st1" d="M75.3,62.6L75.3,62.6L75.3,62.6z"/>
		<path class="st1" d="M75.5,61.2c-0.1,0.2,0.2,0.2,0.3,0.4c0,0.2-0.3,0-0.4-0.1c0,0.2,0.2,0.4,0.1,0.5c0,0-0.1,0-0.1-0.1
			c0.1,0.3-0.2,0.4-0.1,0.7h-0.1c0.1,0.1,0.3,0.1,0.4,0.2c0,0.1,0.1,0.2-0.1,0.2c0,0,0-0.1-0.1-0.1V63c-0.3-0.1,0-0.2-0.2-0.3
			c0,0.2,0.1,0.5-0.1,0.6c-0.3-0.1,0.1-0.3-0.2-0.3l0.2-0.1c-0.5-0.1,0.1-0.1-0.4-0.2c-0.2,0.2,0,0.3-0.3,0.5
			c0.1,0.1,0.2,0.1,0.3,0.2c0,0.5-0.8-0.1-0.6,0.3c0.1,0.2,0.4,0.4,0.1,0.5L74,64c-0.2,0.2,0.3,0.4,0,0.5c-0.1-0.1,0-0.2,0-0.2
			c-0.3,0,0.1,0.2,0,0.3l-0.3-0.1c-0.1,0.3-0.1,0.6-0.2,0.9c-0.1-0.1-0.1-0.2-0.2-0.1c-0.1,0.4-0.5,0.7-0.8,0.9l0.1,0.3
			c0,0-0.1,0-0.1-0.1c-0.2,0.1,0.1,0.1,0.2,0.2c0,0.1-0.2,0-0.2-0.1c0,0.3,0,0.9-0.4,1v-0.1c-0.2,0.1,0.3,0.5,0,0.5v-0.1
			c-0.3,0.3-0.4,0.9-0.9,1c0.3,0.2-0.4,0.3,0,0.6c-0.3,0.1-0.4,0-0.7,0.2c-0.1,0.1,0.2,0.3,0.2,0.4l-0.2-0.1l0.1,0.3L70.4,70v0.1
			h0.2c0,0.2-0.4,0.3-0.5,0.2v0.5C70,70.7,70,70.7,70,70.6c0.1,0.3-0.3-0.1-0.2,0.2c0.1,0,0.1,0.1,0.2,0.1c-0.2,0-0.3,0.2-0.4,0.4
			l-0.1-0.2c-0.2,0.2-0.3,0.6-0.5,0.9c0.1-0.1,0.4,0.1,0.4,0.2l-0.3-0.1c0.1,0.1,0.1,0,0.2,0.2c-0.1,0.1-0.3-0.1-0.3-0.2v0.2
			c-0.1,0-0.1-0.1-0.2-0.2c0.1,0.1-0.4,0.1-0.2,0.3h-0.1c-0.2,0.3-0.2,0.5-0.3,0.7c0.2,0.1,0.1,0.2,0.2,0.4
			c-0.2,0.1-0.5,0.2-0.6,0.5c0,0.2,0.1,0.2,0.2,0.3c-0.2-0.1-0.3,0.1-0.4-0.1c-0.1,0.3-0.2,0.4-0.2,0.8c0.1,0,0.2,0,0.2,0.1
			s-0.2,0.1-0.2,0l0,0c0,0.5-1.1,0.5-0.9,1l0,0v0.4c-0.1,0.1-0.1-0.2-0.3-0.1c0.1,0.5-0.4,0.5-0.3,0.9c-0.7-0.1-0.4,0.8-1,0.8
			l0.1,0.1c0.1,0.2-0.1,0-0.2,0.1c0.1,0.1,0.2,0,0.2,0.1c-0.2,0.7-1,1.2-1.5,1.7c-0.2,0.2,0.6,0.5,0.1,0.6l-0.1-0.3
			c0,0.6-0.6,0.9-0.7,1.6c0-0.1-0.1-0.1-0.1-0.2c-0.2,0-0.2,0.4-0.1,0.4c-0.1,0.1-0.1-0.1-0.2-0.1c-0.2,0,0.1,0.4-0.1,0.3v-0.1
			c0,0.1-0.2,0.3,0,0.3c-0.2,0.1-0.1,0.4-0.3,0.4c0.2,0.2-0.3,0.2,0,0.5c-0.3-0.2-0.5,0.1-0.4,0.3c-0.1-0.1-0.2,0-0.3-0.1
			c-0.1,0.1-0.1,0.3,0.1,0.4c-0.5,0,0,0.7-0.6,0.5c-0.1,0.5-0.2,0.9-0.3,1.3c-0.3-0.2,0.2-0.4-0.1-0.6c-0.1,0.4,0.1,0.8-0.2,1
			c-0.1,0.1-0.1-0.1-0.1-0.2c-0.1,0.4-0.4,0.6-0.4,1v-0.1c0,0.1-0.1,0.1,0,0.2V87c0.3,0,0.3,0.5,0.4,0.6c-0.4-0.4-0.3,0.2-0.7-0.3
			c0,0.1,0,0.1,0.1,0.2c-0.1,0-0.1,0-0.2-0.1c0,0.2,0.2,0.3,0,0.5c-0.1,0-0.1-0.1-0.1-0.2c0.1,0.2,0.2,0.4,0,0.5L59.2,88
			c-0.1,0.3,0.1,0.7-0.2,0.9c-0.3-0.3-0.2,0-0.4-0.1V89h0.2c-0.1,0.1,0,0.4-0.1,0.4v-0.2l-0.1,0.3l0.2-0.1c0.1,0.2,0.3,0.2,0.2,0.3
			c0-0.1-0.1,0.1-0.3,0.1l0,0c0,0.1,0.1,0.2,0,0.3c-0.1,0-0.3-0.2-0.3-0.2c0.2,0.2-0.1,0.4,0,0.6c0-0.1-0.2-0.2-0.2-0.2l0.1,0.2
			c-0.1,0-0.1,0-0.2-0.1c-0.2,0.2,0.4,0.2,0.1,0.3c0,0,0,0,0-0.1c-0.2,0.2-0.2,0.5-0.4,0.6c-0.3-0.1,0-0.2-0.2-0.3
			c-0.1,0.3-0.1,0.8-0.3,1.1h0.1c0.4,0.3-0.3,0.1-0.2,0.3c0-0.1-0.2-0.2-0.1-0.1c-0.2,0.2-0.2,0.5-0.2,0.8l-0.1-0.1
			c-0.2,0.1-0.2,0.3-0.4,0.4c0.1,0.1,0,0.2,0.2,0.2c-0.8,0-0.2,0.9-0.8,1c0,0,0-0.2,0-0.1l-0.1,0.3c0.2,0.1,0.1,0,0.3,0
			c0.1,0.1,0.1,0.2,0.1,0.3c0-0.2-0.3-0.2-0.4-0.2c0.1,0,0.1,0.1,0.2,0.1c-0.4,0,0.3,0.2,0,0.3l-0.1-0.1c0,0.1,0.1,0.2,0,0.3
			c-0.2-0.1,0-0.1-0.2-0.2c-0.1,0.1,0.2,0.5,0,0.4c0-0.1,0-0.2,0-0.2c-0.3,0-0.2,0-0.3,0.1l0,0l-0.2,0.1h0.1
			c0.4,0.5-0.1,0.4,0.1,0.8c-0.2-0.4-0.2-0.1-0.4-0.3c-0.1,0-0.2,0-0.3,0c0.1,0.2-0.2,0.1-0.1,0.4c-0.1,0-0.1,0.1-0.2,0
			c0,0.2,0.1,0,0.2,0.1c0.1,0.3-0.6,0.3-0.4,0.7c0,0.3,0.2,0.5,0.2,0.8c-0.2,0-0.2-0.2-0.2-0.2c-0.2,0.1-0.2,0.2-0.2,0.3
			c0-0.1-0.1-0.1-0.2-0.1c0,0.1,0.2,0.2,0,0.3c-0.1-0.1-0.2-0.2-0.2-0.3c0,0.1,0.1,0.3,0.1,0.5c-0.1,0-0.1-0.2-0.2-0.3
			c0,0.2-0.1,0.4,0.1,0.5h0.1c0,0.1-0.2-0.1-0.2-0.1c-0.1-0.2,0.2-0.1,0.2-0.1v0.1c0.5,0.2,0.1-0.3,0.3-0.5l0.3,0.3l-0.1-0.3
			c0.1,0,0.3,0.1,0.3,0.2c0.2,0,0-0.2,0.2-0.2l0,0v-0.2c0,0.1,0.2,0.1,0.1,0.2c0.3-0.1,0-0.5,0.2-0.4l0,0c0.1-0.3-0.2-0.2-0.3-0.5
			l0.6,0.2L55,97.3c0,0,0.1-0.1,0.2,0c-0.1-0.2-0.1,0-0.2-0.2c0.3,0,0.1-0.4,0.5-0.2c-0.1-0.2-0.2,0-0.2-0.2c0.4,0.2,0-0.2,0.3-0.2
			c0.2,0.2,0,0.2,0.2,0.2c-0.3-0.3,0.2-0.2,0.2-0.3c-0.3-0.2,0-0.3,0.1-0.5c0.1,0.1,0.3-0.2,0.5-0.3l0,0c-0.2-0.2-0.1-0.3-0.1-0.5
			c0.2,0.1,0.2,0.2,0.2,0.3l0.1-0.1c-0.1-0.1-0.1-0.1-0.1-0.2l0.2,0.2c0.1-0.2,0-0.5,0.2-0.6c-0.2-0.1-0.6-0.2-0.6-0.5
			c0.1,0.1,0.3,0.2,0.3,0.2v-0.1l0.1,0.2c0.1,0-0.1-0.1,0-0.2c0.1,0.1,0.1,0,0.2,0.1c0,0-0.1,0-0.1,0.1c0.1-0.1,0.2-0.1,0.3-0.1
			c-0.1,0-0.2-0.1-0.2-0.2c0.1-0.2,0.2,0.1,0.3,0c-0.1-0.1,0.1-0.1-0.1-0.3c0,0,0.1,0,0.2,0c0-0.1,0.2-0.4-0.1-0.4l0,0l0,0l0,0l0,0
			c0-0.4,0.5-0.5,0.5-0.8H58c0-0.2,0.2-0.4,0.1-0.6c0,0,0.2,0,0.3,0c0-0.1,0-0.2,0.2-0.3c0,0.2,0.1,0,0,0.2c0.2-0.1,0.3-0.1,0.2-0.4
			c0.1,0.2,0.3,0,0.3-0.1h-0.2c0-0.1,0.1-0.2,0.1-0.2l0.2,0.2c0.5-0.1-0.1-0.9,0.5-0.8c-0.1-0.2-0.2,0.1-0.4-0.1
			c0.1-0.1,0.6-0.1,0.6-0.1c0.3-0.1-0.2-0.4,0-0.5c-0.1,0-0.3-0.1-0.3-0.3c0.1-0.1,0.5,0.1,0.5,0.2H60c0,0.1,0,0.1,0.1,0.2l-0.6,0.1
			c0.1,0,0.2-0.2,0.4-0.1c0-0.2-0.1-0.1-0.2-0.1c0.2-0.1,0.2-0.3,0.4-0.4c-0.1,0-0.2,0-0.2-0.1c0.3-0.2-0.1-0.2,0-0.4
			c0.2,0,0.3,0.2,0.3,0c0.2-0.1,0.2,0.1,0.3,0.2C60.4,89,60.8,89,60.9,89v0.1c0-0.1,0-0.1,0.1-0.2l-0.2-0.1c0.1,0,0.1-0.1,0.2,0
			c-0.1-0.1-0.3-0.1-0.4-0.3c0.1,0,0-0.3,0.3-0.2c-0.2,0.2,0.2,0.1,0.2,0.3c0-0.1,0-0.1,0.1-0.1c0,0,0,0,0,0.1
			c0.3-0.1-0.2-0.3,0-0.5c0.1,0.1,0.3,0.1,0.3,0c-0.1,0.1-0.2-0.1-0.3-0.2c0.2-0.1,0-0.2,0.1-0.3l-0.1,0.1c-0.1-0.1,0-0.2,0-0.3
			c0.1,0.1,0,0.1,0.1,0.1c-0.2-0.3,0.4-0.1,0.3-0.3c0.1,0,0.2,0.1,0.3,0.1c-0.1-0.3,0.3-0.1,0.3-0.3C62,87,62,87,61.9,86.8l-0.1,0.4
			l-0.2-0.3c-0.1,0.1,0,0.3-0.1,0.3c-0.1-0.2,0-0.1-0.2-0.2c0.3,0,0-0.3,0.3-0.4l0.4,0.3c0.3-0.1,0-0.5,0.3-0.7h-0.1
			c-0.1-0.1,0.1-0.2,0.1-0.3c0.1,0.1,0.2,0.1,0.3,0.1c-0.1-0.1,0.1-0.2-0.1-0.4h0.3c0.2-0.2-0.2-0.5-0.1-0.7
			c0.1,0.2,0.3,0.1,0.3,0.3c0-0.1,0.1-0.1,0-0.2c0.1,0-0.1-0.3,0.1-0.3c0-0.1-0.2-0.2-0.1-0.2h0.1c-0.1,0,0-0.2-0.2-0.2
			c0.6,0.1,0.4-0.6,0.9-0.6c0.1-0.2,0.1-0.4,0.2-0.5c0,0,0.1,0,0,0.1c0.3-0.1-0.3-0.4,0-0.5c0.3,0,0,0.2,0.2,0.2
			c0.5,0.3,0.1-0.3,0.5-0.3v0.1c0.2,0,0-0.4,0.2-0.6c0,0,0,0,0.1,0c-0.2-0.3-0.1-0.6,0-0.8c0.1,0.2,0,0.1,0.3,0.2
			c0-0.1-0.3-0.2-0.3-0.4c0.1,0,0.3,0,0.5,0.1l-0.1,0.2c0.3,0.1,0.1-0.2,0.2-0.3l0.1,0.1c0.1-0.3-0.2-0.4,0-0.7h-0.1
			c-0.2-0.3,0.2,0,0.1-0.3l0.3,0.1c0-0.1-0.1-0.5,0-0.7c0.2,0.2,0.1,0.5,0.2,0.7c0.1-0.1,0.2-0.3,0.1-0.5c0,0.1,0,0.1,0,0.1
			c-0.2-0.2-0.2-0.5-0.1-0.6c0.5,0.4,0.4-0.4,0.9-0.2c0-0.4,0.5-0.6,0.7-1c-0.5-0.1,0.1-0.1-0.4-0.4c0-0.1,0.1-0.1,0.1-0.1l0.4-0.1
			c0.2,0,0,0.1,0.1,0.2c0.2-0.2,0.2,0,0.4,0c-0.2-0.1-0.2-0.2-0.1-0.3h-0.3c-0.1-0.4,0.5,0,0.4-0.4l0.1,0.2c0-0.2,0.3-0.5,0.1-0.8
			c0.1,0,0.2,0.1,0.2,0.1c0.3-0.3,0.1-1,0.5-1.1l0.1,0.1c0-0.1-0.1-0.2,0-0.2l0.1,0.1c0-0.1-0.1-0.3,0-0.3l0.1,0.1
			c0.3-0.2,0-0.7,0.1-1c0.3,0.2,0.6,0,0.7-0.1l0,0c0.3-0.3,0.1-0.8,0.2-1.2c0.5,0,0.6-0.6,1-0.8c-0.1,0-0.2-0.2-0.2-0.2
			c0.1,0-0.1-0.4,0.2-0.2l0,0c0.3,0.1,0.3-0.1,0.4-0.2l-0.4-0.3c0.8,0,0.4-1,1-0.9c0-0.1,0-0.2,0-0.4l0.2,0.1
			c0.2-0.2,0.3-0.3,0.4-0.6l0.1,0.1c0.1-0.1-0.5-0.6-0.4-0.7l0.3,0.1c0.2-0.3,0.6-0.4,0.5-0.8l0.1,0.1c0.1-0.1,0.5-0.4,0.1-0.6
			c0.3,0.2,0.2-0.3,0.2-0.5l0.2,0.1c-0.2-0.3-0.2-0.3-0.2-0.5c0.1,0,0.2,0.1,0.1,0.1c0.2-0.1-0.1-0.2,0.1-0.3l0.1,0.1
			c0.1-0.1,0-0.2-0.1-0.3c0-0.1,0.2-0.2,0.4-0.1c-0.1-0.1-0.2-0.3-0.1-0.3s0.1,0.1,0.1,0.1c0.3-0.1,0-0.5,0.3-0.5c0.1,0,0.1,0,0.1,0
			c-0.1,0.2-0.2,0.3-0.2,0.3c0.2,0.1,0.3,0,0.5,0.3c-0.1-0.2-0.2-0.6-0.1-0.7c0,0,0,0,0.1,0l0,0v-0.1c0.1,0,0.1,0,0.1-0.1
			c0.2,0.1,0.2-0.1,0.2-0.2c-0.2,0.3-0.1,0.2-0.3,0.2c0,0,0,0,0,0.1l0,0l0,0c0,0.1-0.1,0.1-0.1,0.2c-0.1-0.1-0.1-0.2,0.1-0.3
			c-0.1-0.1-0.2-0.2-0.3-0.3c0.3,0.1,0.6,0,0.8,0.1c0-0.3,0.3-0.6,0-1c0-0.1,0.2,0,0.2,0c0,0.1,0,0.1,0,0.2c0-0.2,0.2-0.4,0-0.6
			c0.2-0.1,0.2,0.2,0.3,0l0.1,0.1c0.7-0.2-0.2-1.1,0.6-1.3c-0.1,0-0.1,0-0.1,0c0.6-0.4,0.5-1.3,1.2-1.6c0.2-0.1,0-0.2,0-0.4l0.2,0.1
			L78,60.5c0-0.3,0.8-0.1,0.6-0.6l-0.2-0.1c0.1-0.1,0.1-0.4,0.3-0.3c0,0-0.1-0.1,0-0.1l0.1,0.1v-0.4c0.2-0.1,0.4,0.3,0.6,0
			c0-0.1-0.1-0.5-0.2-0.5c0,0-0.1,0.1-0.3,0v-0.1c-0.3-0.2-0.6-0.5-1-0.4l0.1,0.3h-0.2l0.1-0.2c-0.2,0-0.1,0.1,0,0.2
			c-0.1,0-0.2-0.1-0.2,0l0.2,0.4c-0.1-0.1-0.2-0.2-0.4-0.2c0.1,0.2,0.3,0.1,0.4,0.3c-0.2,0-0.3-0.1-0.2,0.1c-0.1,0-0.1-0.1-0.1-0.2
			c0,0.2-0.1,0.3,0,0.4c-0.2,0-0.1,0.3-0.4,0.1c0.1,0.1,0.2,0.3,0.1,0.4c-0.3-0.4-0.2,0.3-0.6,0c0.3,0.3-0.1,0.5,0,0.8
			c0,0-0.1-0.1,0-0.1c-0.1,0.1-0.2,0.1-0.3,0.1c0.3,0.2,0.2,0.4,0.3,0.6c-0.4,0-0.3-0.3-0.6-0.4c0.2,0.1,0.1,0.4,0.3,0.4
			c-0.2,0-0.1,0-0.4-0.1c0.3,0.2,0,0.1,0.2,0.3c-0.3,0-0.4-0.2-0.3,0.1C75.6,61.4,75.5,61.2,75.5,61.2z M73.8,65.3L73.8,65.3
			L73.8,65.3L73.8,65.3z M73.7,65.6L73.7,65.6c0.2-0.1,0.2,0,0.2,0C73.7,65.6,73.7,65.6,73.7,65.6z M75.4,65.9
			C75.4,65.9,75.3,65.9,75.4,65.9C75.3,65.9,75.3,65.8,75.4,65.9C75.3,65.8,75.3,65.8,75.4,65.9C75.3,65.8,75.4,65.8,75.4,65.9z"/>
		<path class="st1" d="M75.2,65.6L75.2,65.6C75.1,65.6,75.1,65.6,75.2,65.6C75.1,65.6,75.1,65.6,75.2,65.6L75.2,65.6z"/>
		<path class="st1" d="M56.9,93.6L56.9,93.6L56.9,93.6L56.9,93.6z"/>
		<path class="st1" d="M70.5,69.6L70.5,69.6L70.5,69.6z"/>
		<path class="st1" d="M55.2,94.9C55.1,94.9,55.1,94.9,55.2,94.9C55.1,94.9,55.1,94.9,55.2,94.9z"/>
		<path class="st1" d="M54.6,95.7L54.6,95.7C54.6,95.7,54.6,95.7,54.6,95.7z"/>
		<path class="st1" d="M54.2,96.2L54.2,96.2L54.2,96.2L54.2,96.2z"/>
		<path class="st1" d="M59.7,87C59.8,87,59.8,86.9,59.7,87C59.7,86.9,59.7,86.9,59.7,87z"/>
		<path class="st1" d="M58.5,89.9C58.5,89.8,58.5,89.8,58.5,89.9C58.4,89.8,58.4,89.8,58.5,89.9z"/>
		<path class="st1" d="M61.4,83.8L61.4,83.8C61.4,83.8,61.5,83.8,61.4,83.8L61.4,83.8z"/>
		<path class="st1" d="M58.5,89.6C58.4,89.6,58.4,89.7,58.5,89.6C58.5,89.7,58.5,89.7,58.5,89.6z"/>
		<path class="st1" d="M52.6,98.5L52.6,98.5L52.6,98.5L52.6,98.5z"/>
		<path class="st1" d="M52.6,98.5L52.6,98.5C52.6,98.6,52.6,98.6,52.6,98.5z"/>
		<path class="st1" d="M52.6,98.7L52.6,98.7C52.6,98.6,52.6,98.6,52.6,98.7z"/>
		<path class="st1" d="M53.1,97.8L53.1,97.8C53.1,97.8,53.1,97.8,53.1,97.8z"/>
		<path class="st1" d="M53.2,97.6c-0.1,0-0.2,0-0.2,0.1L53.2,97.6C53,97.6,53.3,97.7,53.2,97.6z"/>
		<path class="st1" d="M54.7,97.3l-0.2,0.2c0.1,0,0.2,0,0.2,0.1C55.1,97.4,54.5,97.4,54.7,97.3z"/>
		<path class="st1" d="M55.2,96.7c0,0.1,0.1,0.1,0.2,0.1C55.3,96.7,55.3,96.7,55.2,96.7z"/>
		<path class="st1" d="M58,92.4l0.2,0.1C58.2,92.4,58.1,92.5,58,92.4z"/>
		<polygon class="st1" points="57.6,91 57.4,91 57.5,91.1 		"/>
		<polygon class="st1" points="59.2,91.3 59.2,91.3 59.2,91.2 		"/>
		<path class="st1" d="M63.6,84l-0.2-0.1C63.4,84,63.6,84.2,63.6,84z"/>
		<path class="st1" d="M65.4,80.7c0.1,0,0.3,0,0.2-0.1C65.5,80.7,65.4,80.7,65.4,80.7z"/>
		<path class="st1" d="M71.8,71.6L71.8,71.6L71.8,71.6z"/>
	</g>
	<g>
		<ellipse class="st2" cx="67.8" cy="75.3" rx="16.8" ry="3.9"/>
		<g>
			<path class="st1" d="M86.1,75.1c0,0.3,0.3,0.2,0.3,0.2C86.4,74.8,86.1,75.1,86.1,75.1z"/>
			<polygon class="st1" points="84,73.1 84.1,73 83.8,73.1 			"/>
			<path class="st1" d="M82.5,72.3c0,0.5,0.6,0.2,0.9,0.5v0.1l0.3-0.3C83.2,72.5,82.7,72.5,82.5,72.3z"/>
			<path class="st1" d="M81.9,71.1c0,0.2-0.2,0.1,0.2,0.1c0,0,0,0,0-0.1C82,71.2,82,71.1,81.9,71.1z"/>
			<path class="st1" d="M82,71.2C82.2,71.2,82,71,82,71.2L82,71.2z"/>
			<path class="st1" d="M81.2,71l0.3-0.1c0-0.1-0.2-0.2-0.1-0.2C81.1,70.7,81.1,70.8,81.2,71z"/>
			<path class="st1" d="M80.9,71.3L80.9,71.3C81,71.2,81,71.2,80.9,71.3z"/>
			<path class="st1" d="M81.3,71.2L81,71.3c0,0.1,0,0.2,0.1,0C81.1,71.3,81.2,71.2,81.3,71.2z"/>
			<path class="st1" d="M81.4,71.3c0.1,0.1,0.3,0.2,0,0.3C81.9,71.7,81.9,71.4,81.4,71.3z"/>
			<path class="st1" d="M82.2,72.7l0.1,0.2l0.2-0.1C82.4,72.9,82.3,72.6,82.2,72.7z"/>
			<path class="st1" d="M79.7,70.4c0,0.1,0,0.3,0,0.4l0.2-0.1C79.9,70.7,79.7,70.6,79.7,70.4z"/>
			<path class="st1" d="M79.8,70.8l-0.3,0.1C79.7,71,79.8,70.9,79.8,70.8z"/>
			<polygon class="st1" points="80.7,71.7 81.2,71.5 80.6,71.7 			"/>
			<polygon class="st1" points="78.7,70.2 78.9,70 78.6,70.3 			"/>
			<path class="st1" d="M78.1,70.1c0.1-0.2-0.1-0.3,0-0.4c-0.2,0-0.4,0.1-0.5,0.3C77.7,69.9,77.9,69.9,78.1,70.1z"/>
			<path class="st1" d="M77.3,70.1c0.1,0,0.2-0.1,0.3-0.2C77.5,70,77.4,70,77.3,70.1z"/>
			<path class="st1" d="M79,70.8c0-0.1,0-0.2-0.2-0.3L79,70.8C79,70.8,79,70.8,79,70.8z"/>
			<path class="st1" d="M78.9,70.8L78.9,70.8c-0.1,0-0.2-0.1-0.2-0.1S78.8,70.7,78.9,70.8z"/>
			<path class="st1" d="M79.1,70.8L79.1,70.8C79,70.8,79,70.8,79.1,70.8z"/>
			<path class="st1" d="M80.1,71.3c-0.2,0.1-0.5,0.2-0.3,0.5C79.9,71.7,79.8,71.5,80.1,71.3z"/>
			<path class="st1" d="M79.1,71.1l0.3,0.1c0-0.1,0-0.2,0.1-0.2L79.1,71.1z"/>
			<polygon class="st1" points="79,71.2 79.1,71.1 79,71.1 			"/>
			<path class="st1" d="M77.8,70.5c-0.1,0.1-0.3,0.1-0.4,0.1c0.1,0.1,0.3,0.1,0.5,0.2C77.8,70.6,77.9,70.5,77.8,70.5z"/>
			<path class="st1" d="M78.3,70.6L78.3,70.6C78.3,70.7,78.3,70.7,78.3,70.6z"/>
			<path class="st1" d="M75.9,70.3L75.9,70.3L75.9,70.3z"/>
			<path class="st1" d="M77.8,70.7c0.1,0.1,0.2,0,0.3-0.1C78,70.7,77.9,70.7,77.8,70.7C77.8,70.7,77.8,70.8,77.8,70.7z"/>
			<path class="st1" d="M76.9,70.2c0.1,0.1,0.1,0.1,0.2,0.2C77,70.3,76.9,70.1,76.9,70.2z"/>
			<path class="st1" d="M78.3,70.6L78.3,70.6C78.3,70.5,78.3,70.5,78.3,70.6z"/>
			<path class="st1" d="M78.3,70.6c-0.1,0-0.1,0.1-0.2,0.1C78.2,70.7,78.2,70.7,78.3,70.6L78.3,70.6z"/>
			<path class="st1" d="M75.3,72c0-0.2,0.4-0.4,0.6-0.1c0.3-0.2,0.2-1,0-1.5c0,0.1,0,0.2-0.3,0.3c0.1,0.1,0.6,0.4,0.3,0.6
				c-0.4,0.1-0.3-0.1-0.4-0.3c0.1,0.3-0.5,0.4-0.5,0.9l0.3-0.1C75.3,71.8,75.2,71.9,75.3,72z"/>
			<path class="st1" d="M76.4,70.5L76.4,70.5c0-0.1-0.1-0.2-0.2-0.4c-0.2,0.1-0.3,0.2-0.3,0.3L76.4,70.5L76.4,70.5z"/>
			<path class="st1" d="M77,70.5c-0.1,0.3-0.4,0.3-0.3,0.6c0.3,0,0.3-0.2,0.5-0.3C76.7,70.9,77.4,70.8,77,70.5c0.1,0,0.2,0,0.3,0
				c-0.1,0-0.2-0.1-0.3-0.2l0,0l0,0l0,0c0,0,0,0.1,0,0V70.5C77.1,70.5,77.1,70.5,77,70.5C76.9,70.5,77,70.5,77,70.5L77,70.5L77,70.5
				h-0.5C76.6,70.5,76.8,70.5,77,70.5z"/>
			<path class="st1" d="M79.4,72.3L79.4,72.3C79.4,72.3,79.3,72.3,79.4,72.3z"/>
			<path class="st1" d="M79.2,72.1c0,0,0.1-0.1,0.2-0.1c0.1,0.1,0,0.1,0,0.2c0.1-0.1,0.3-0.1,0.1-0.3l0,0c-0.2-0.1-0.4-0.5-0.3-0.6
				C79.1,71.7,79.1,71.9,79.2,72.1z"/>
			<path class="st1" d="M78.1,71.4h-0.4l0.2,0.3v-0.1C78.1,71.7,78.1,71.5,78.1,71.4z"/>
			<polygon class="st1" points="75.9,70.2 76,69.9 75.6,70.3 			"/>
			<polygon class="st1" points="75.3,70.2 75.3,69.9 75.2,70 			"/>
			<path class="st1" d="M56.4,76.7L56.4,76.7C56.5,76.6,56.5,76.6,56.4,76.7z"/>
			<path class="st1" d="M55.6,76.4L55.6,76.4C55.6,76.5,55.6,76.5,55.6,76.4z"/>
			<path class="st1" d="M61.4,70.1c-0.2-0.2-0.5-0.6-0.4-0.3l0.1,0.3C61.2,70,61.3,70,61.4,70.1z"/>
			<path class="st1" d="M52.6,73.7L52.6,73.7c0-0.1,0-0.2,0-0.2C52.6,73.6,52.6,73.7,52.6,73.7z"/>
			<path class="st1" d="M53.6,74.5c-0.1,0-0.2,0-0.3,0C53.4,74.5,53.5,74.5,53.6,74.5z"/>
			<path class="st1" d="M61.2,77l0.2-0.3C61.2,76.7,61.3,76.9,61.2,77z"/>
			<path class="st1" d="M69.5,69.9c-0.2-0.1-0.3-0.2-0.4-0.2C69.3,69.9,69.5,70.1,69.5,69.9z"/>
			<path class="st1" d="M55.4,79.3C55.5,79.3,55.5,79.2,55.4,79.3C55.5,79.2,55.4,79.3,55.4,79.3z"/>
			<path class="st1" d="M68.6,69.7C68.7,69.7,68.7,69.7,68.6,69.7c0.2,0,0.3,0,0.5,0C69,69.6,68.8,69.5,68.6,69.7z"/>
			<path class="st1" d="M78.6,76.7L78.6,76.7L78.6,76.7z"/>
			<path class="st1" d="M84.5,77.4c0,0.1-0.1,0.1-0.2,0.2C84.3,77.6,84.4,77.5,84.5,77.4z"/>
			<path class="st1" d="M73.1,69.8C73.2,69.8,73.1,69.8,73.1,69.8L73.1,69.8z"/>
			<path class="st1" d="M73.6,71L73.6,71C73.5,71,73.6,71,73.6,71z"/>
			<path class="st1" d="M67.4,71.4L67.4,71.4C67.5,71.5,67.5,71.5,67.4,71.4z"/>
			<path class="st1" d="M73.3,70L73.3,70C73.1,69.9,73.2,69.9,73.3,70z"/>
			<path class="st1" d="M73.2,69.8L73.2,69.8C73.4,69.8,73.4,69.8,73.2,69.8z"/>
			<path class="st1" d="M72.9,69.8c0.1,0,0.1,0,0.2,0l0,0C73.1,69.8,73,69.8,72.9,69.8z"/>
			<path class="st1" d="M69.3,78.3C69.3,78.3,69.4,78.3,69.3,78.3C69.5,78.2,69.4,78.2,69.3,78.3z"/>
			<path class="st1" d="M58.7,73.3L58.7,73.3L58.7,73.3z"/>
			<path class="st1" d="M58.3,73.6c0.1-0.4,0.2-0.3,0.4-0.3l-0.3-0.8L58.3,73.6z"/>
			<path class="st1" d="M58.5,76.9l-0.2-0.3c0.4-0.3,0.6-0.2,0.4-0.6c-0.2,0.8-1.1-0.1-1.3,0.7l-0.1-0.2c0.1,0,0.1,0,0.1,0
				c-0.3-0.5-0.4,0.6-0.8,0.3c-0.1-0.1-0.2-0.2-0.1-0.3l-0.4,0.1c-0.1,0,0-0.2,0.1-0.1l-0.6-0.1l0,0c-0.1,0.1-0.3,0.3-0.4,0.3
				c-0.1-0.2,0.1-0.1,0.1-0.2l-0.4,0.1c-0.1-0.2,0.2-0.4,0.4-0.3c0-0.5-0.1-0.4-0.2-0.4c-0.1,0.1-0.4,0.1-0.4-0.1l0.2-0.1
				c0.1-0.5-0.1-0.3,0.1-0.6c0,0.1-0.1,0.2-0.2,0.4c-0.1,0.2-0.1,0.4-0.2,0.5c0-0.1,0-0.1-0.2,0c0.2-0.3,0.1-0.2,0-0.2l0.3-0.3
				c-0.1,0.1-0.3,0.2-0.5,0.3c-0.1-0.1,0.2-0.3,0.5-0.5c0,0-0.1,0-0.3,0.1c-0.1,0.1-0.3,0.2-0.4,0.2c0.1-0.2-0.2-0.1-0.7-0.2
				c0.1-0.1,0.4-0.1,0.5-0.1c-0.2,0-0.4,0-0.6,0c0,0,0.2,0,0.2-0.1c-0.2-0.1-0.6,0.1-0.9-0.1c-0.4,0-0.1-0.1,0.1-0.2
				c0.3-0.1,0.5-0.2,0.2-0.3c0.2,0,0.4,0.1,0.6,0.1c-0.4-0.3-0.3-0.2-0.6-0.6c0.2,0,0.4,0,0.5,0c-0.5-0.1-0.8-0.4-0.8-0.7
				c-0.2-0.1-0.4-0.1-0.5-0.1c0.1-0.1,0.2-0.3,0.3-0.4c0.1,0,0.2,0.1,0.3,0.3v-0.1c0.3,0,0.4,0.2,0.5,0.4c-0.1,0-0.3-0.1-0.4-0.1
				c0.2,0.2,0.4,0.4,0.7,0.6V74c0.1,0.1,0.1,0.1,0.2,0.1s0,0-0.1-0.1c0.2,0.1,0.3,0.2,0.5,0.3l-0.3,0.1c0.2,0,0.4,0,0.5,0.1
				C54,74.1,54,73.3,54.7,73c-0.1,0.4,0.1,0.5,0.2,0.9c-0.1-0.2-0.3-0.1-0.4,0c-0.1,0.1-0.1,0.3-0.2,0.3c0.1,0,0.2,0.2,0.2,0.2
				c0.1-0.2,0.1-0.3,0.3-0.5c0.1,0.3,0.2,0.2,0.4,0.3c-0.3-0.6,0.3-0.5,0.5-0.8c0.1,0.2,0.1,0.4-0.3,0.5c0.4,0.4,0.3-0.8,0.7-0.5
				c-0.1,0-0.1,0-0.1,0.1c0.1-0.2,0.6-0.2,0.5,0h-0.1c0.5,0,1.5-0.3,1.5-0.8c0,0.1,0,0.7,0,0.8c0.2-0.6,0.4-1.3,0.6-1.9
				c0,0.5,0.5,1.5,0.1,1.8c0.1,0,0.3,0.1,0.5-0.1c-0.1-0.1-0.3-0.6-0.2-0.7c0.4,0.5,0.3,0.2,0.7,0.6c-0.1-0.1-0.1-0.8,0.1-0.8
				c0,0.1,0.1,0.7,0,0.8l0.4-0.8c-0.1,0.1,0.1,0.6,0.2,0.8c-0.1-0.1,0.4,0,0.5-0.1L60.6,73c0.6,0,0.4-1.1,1-1.1
				c-0.1,0.2-0.1,0.9,0.2,1c0.1-0.4,0.4-1.8,0.9-2.1l0.1,0.2l0.4-0.3c-0.2,0.6-0.8,1.8-1.1,2.2c0.2,0.1,0.1,0.2,0.4,0.2
				c0.1,0.2-0.1,0.3-0.2,0.3l0.7,0.1c-0.1-0.4,0.5-0.5,0.5-0.8l-0.8,0.5c-0.1-0.4,0.4-1.2,0.9-1.2c0.1,0.2-0.1,0.8,0,0.9
				c0.1-0.1,0.5-0.3,0.5-0.2l-0.2,0.2c0.3,0.1,0.4-0.6,0.8-0.2c0.1,0,0.4,0.5,0.4,0.3c-0.2-0.5-0.3-2-0.2-2.3c0,0,0.7,0.4,0.8,0.7
				c0.2,0.4-0.3,0.9-0.1,1.2c0-0.1,0.1-0.3,0.2-0.3c0.1,0.1,0,0.4,0.2,0.3c0-0.4,0.6,0,0.1-0.4c0.3-0.1,0.3,0.1,0.6,0.1
				c-0.1-0.3,0.3-1,0.5-1.1c0,0.1,0,0.3,0.1,0.3c0.6,0,0.9,0.2,1.4,0.2c0,0.1,0.3,0.2,0.2,0.4c0.1-0.1,0.1-0.2,0.3-0.2
				c0.3,0.4-0.4,0.1-0.1,0.5c0-0.3,0.4-0.3,0.6-0.5c-0.1-0.4-0.5-0.1-0.8,0.1c0-0.5,0.4-1.1,1-1.3c0.4-0.1,0.2,0.4,0.3,0.3
				c0.8,0.1,0.7-0.9,1.4-0.5c0.3,0.4,0,0.7,0,0.9c-0.4,0.1-0.5-0.2-0.8-0.2l0.3,0.2c-0.1,0.1-0.4,0.2-0.5,0.1c0.2,0.3,1.4,0.1,2,0.4
				c0.1-0.1,0.3-0.2,0.2-0.4h-0.2c-0.2-0.3,0.4-0.4,0.2-0.5c0.3-0.2,0.6-0.5,1-0.3v0.4c0-0.1-0.2-0.3-0.3-0.1
				c0.2-0.2,0.5,0.6,0.7,0.1l-0.2-0.3c0.3-0.2,0.7-0.5,1-0.4c-0.1-0.4-0.1,0-0.3-0.4c0.2,0.6-0.9-0.1-0.6,0.5
				c-0.2-0.5-0.4-0.3-0.7-0.7c0,0.1,0.1,0.3-0.2,0.2c0,0,0,0.1-0.1,0.1l0,0l0,0l0,0c0.1,0.1,0.1,0.1,0.1,0.2
				c-0.2,0.3-0.6,0.2-0.8,0.4c-0.2-0.1,0.1-0.1,0-0.3l-0.2,0.2c0-0.3-0.4-0.5,0-0.6h-0.4c-0.2-0.2-0.5-0.2-0.7-0.1
				c-0.2-0.1-0.4,0.3-0.3,0.1l-0.2-0.1v-0.1c-0.6-0.1-1.1,0.4-1.8-0.1c-0.2,0.1-0.4,0.2-0.7,0.1l-0.1-0.2c-0.2,0.1-0.7-0.2-0.8,0
				c-0.3-0.7-1.2-0.1-1.6-0.2v0.3c-0.3,0-0.6,0.1-0.9,0.2v0.3c-0.3,0.2-0.8-0.2-1.3-0.1c0-0.1,0.2-0.1,0.2,0
				c-0.6-0.6-1.2,0.5-1.8,0.1c-0.1,0.1-0.2,0.1-0.3,0l0,0c0,0,0,0-0.1,0s-0.1-0.1-0.2-0.1c0.1,0.1,0.1,0.1,0.2,0.1
				c-0.1,0-0.3,0.1-0.4,0.1L60.9,70l0,0c-0.2-0.1-0.1,0.2,0,0.4c-0.1,0.1-0.1,0.1-0.2,0.2c-0.2-0.5-0.4,0.2-0.6-0.3
				c-0.1,0.3-0.7,0.3-0.7,0.8c0-0.1-0.1-0.1,0-0.1c-0.2,0-0.4-0.1-0.5,0.1l-0.1-0.4l-0.1,0.7c-0.3-0.2-0.4-0.3-0.2-0.7
				c-0.5,0.5-0.4,0.2-0.8,0.8v-0.3c-0.2,0-0.4,0.4-0.5,0.2c-0.5-0.4-1.8,0.3-2.8,0.1c0.4,0.7-0.5-0.2-0.4,0.4
				c-0.1-0.1-0.3-0.2-0.2-0.4c-0.6,0.4-1.2,0.1-1.3,0.7c-0.2-0.1,0-0.3-0.2-0.3c0,0.1-0.1,0.2-0.3,0.2c-0.1,0,0-0.2,0.1-0.3
				c-0.7,0.4-0.3,0.8,0.1,1.2c-0.5,0-0.6,0.1-0.4,0.4c-0.2,0-0.6,0-0.3-0.3c-0.1,0.1-0.4,0.2-0.6,0.4c-0.2,0.2-0.3,0.4-0.1,0.5
				c-0.1,0-0.2,0.2-0.2,0.3c-0.2,0.4-0.3,0.4-0.3,0.9l0.1-0.1c0.5,0.2,0.1,0.4,0.2,0.7h-0.1c0,0.8,0.3,0.3,0.4,1l0.3-0.1
				c0.4-0.1,0.4,0,0.4,0.2s0.1,0.5,0.4,0.5v-0.2c0.2,0,0.1,0.2,0.1,0.5c0,0.3-0.1,0.6,0,0.7c0,0.1-0.2,0-0.3,0
				c0.5,0.7,0.4-0.2,1-0.1c0,0.2-0.5,0.4-0.1,0.6c0.1,0.1,0.5,0.1,0.9,0.1c0.4,0,0.7,0,0.8,0.2c0-0.2-0.1-0.4,0.2-0.4
				s0.7,0.8,1.1,0.4c0,0.1,0,0.1,0,0.1c0.3-0.1,0.8,0,1-0.3c0,1.1,1.5-0.2,1.3,0.7l0.7,0.1v0.1c0.4,0.1,0.6-0.1,0.8-0.3
				c0.1,0.1,0,0.2,0,0.2c0.6,0.3,0.7,0.2,1.3-0.2v0.3c0.2-0.2,0.9,0.6,1.6,0.3c0,0,0,0.1-0.1,0.1c0.8-0.3,1.7,1,2-0.1l0.5-0.3
				c-0.6-0.1,0.1-0.5-0.1-0.7c0.2-0.1,0.6,0.4,0.3,0.4v-0.1c-0.1,0.6,0.8,0.2,0.7,0.6c1.2,0,2.4,0.3,3.6,0.4l-0.1-0.5h0.4
				c0.1,0.1,0.1,0.4-0.1,0.3c0.2,0.3,0.5-0.2,0.5-0.3c0.6,0.2-0.2,0.5,0,0.6h0.2L70,80.4c0.2-0.2,0.2-0.4,0.5-0.4
				c0.2,0.1,0.1,0.3,0.2,0.3c0,0,0,0,0.1,0h0.5l-0.2-0.4c0.2-0.2,0.5,0,0.2-0.4c0.4,0.6,1.9,0.1,2.1,0.3c0.3-0.3,0.6-0.3,1-0.3
				c-0.1-0.1-0.2-0.5,0.1-0.5c0,0.9,0.6,0.3,1,0.9c-0.3-0.4,0.9-0.2,0.5-0.7c0.3,0,0.1,0.3,0.3,0.5c0.6-0.4,1.5,0,2.3-0.2
				c0-0.1-0.2-0.3,0-0.4l0.5,0.5c0.2-0.1,0-0.7,0.4-0.3c-0.1-0.1-0.2-0.2-0.1-0.3c0.8,0.1,1.6-0.2,2.4-0.5c0.8-0.3,1.6-0.6,2.7-0.6
				c-0.3,0-0.2-0.2,0-0.3c-0.1,0-0.1-0.2-0.2-0.3c0.3,0,0.6-0.1,0.9-0.2c-0.1-0.2,0.1-0.4,0.3-0.6c0.2-0.2,0.3-0.5,0.1-0.7
				c0,0.1,0,0.2-0.1,0.4C85.2,76,84.9,76,84.6,76s-0.6-0.1-0.8-0.4c0.1,0.3-0.1,0.2-0.4,0.2c-0.3,0-0.5-0.1-0.5,0.4
				c-0.1-0.1,0-0.2-0.1-0.3c0,0.3-0.1,0.4-0.4,0.4v-0.1c-0.7,0.4-1.1,0.2-1.9,0.3l0.1,0.3c-0.2,0-0.3-0.1-0.4-0.1
				c-0.1,0.5,0.5-0.1,0.5,0.4c-0.4-0.5-1.3,0.3-1.6-0.3c-0.3,0.1,0.2,0.3-0.1,0.4L79,76.9v0.3c-0.2,0-0.3-0.2-0.4-0.4
				c0,0,0.1-0.1,0.2-0.1c-0.3-0.2-0.7,0.2-0.8,0.2l0.3,0.1c-0.8,0.3-1.8,0.2-2.5,0.7l0.1,0.1c-0.6,0.3-0.5-0.1-1.1,0.1l0,0
				c-0.1,0.2-0.3,0.2-0.5,0.2c0.2-0.2-0.3-0.3-0.1-0.5c-0.6,0.3-0.3,0.3-0.7,0.8l-0.1-0.2c-0.1,0.2-0.1,0.3-0.5,0.4
				c0.3-0.2-0.2-0.3,0-0.6c-0.7-0.5-1,0.6-1.4-0.1c-0.3,0.7,0.6,0.3,0.5,0.5c0.2,0.2-0.2,0.5-0.5,0.4c-0.2,0-0.4-0.8-1-0.8
				c0.1,0,0.1,0,0.1,0c-0.2-0.2-0.4,0.2-0.7,0c-0.1,0.4-0.3,0-0.4,0.5l0.5-0.1c-0.3,0.1-0.5,0.7-1,0.5c0-0.1,0.2-0.2,0.3-0.3
				c-0.1-0.1-0.3,0.1-0.4,0c0-0.5,0.6-0.1,0.9-0.5c-0.2-0.2-0.6,0.4-0.4-0.2c-0.2,0.7-0.5-0.1-0.9,0.5v-0.3c-0.1,0-0.2,0.2-0.3,0.2
				l0.2-0.4c-0.3,0.3-0.6-0.3-0.9-0.1c0.6,0,0.1,0.4,0.4,0.6c-0.8,0.4-0.4-0.8-1.3-0.7c0.1,0,0.4,0.2,0.2,0.3
				c-0.2-0.1-0.4-0.2-0.5-0.3c-0.6,0.1,0.1,0.3-0.2,0.5c-0.2-0.4-0.3,0.1-0.5,0.3v-0.3c-0.6-0.2-0.2,0.6-0.8,0.4l0.3-0.4l-0.3,0.1
				L65,78c-0.3,0.2-0.4,0.2-0.7,0.1c0.1,0.2-0.1,0.6-0.4,0.5c-0.2-0.2,0.1-0.3-0.3-0.3c0.1-0.2,0.2-0.4,0.4-0.1
				c0-0.1,0.1-0.2,0.1-0.3c-0.2-0.7-0.5-0.6-0.6-0.6c0.1,0,0.1,0,0.2,0.1l-0.6,0.4c-0.1-0.1,0-0.2,0.1-0.3c-0.1,0-0.2,0.2-0.4,0.2
				c0.1-0.2,0.1-0.5,0.3-0.6l-0.6,0.2c0-0.1-0.3-0.3-0.2-0.4c-0.3-0.2-0.8,0.4-1.2,0.2c0,0-0.1,0.1-0.2,0.1
				c-0.4-0.1-0.7-0.4-1.2-0.2l-0.2-0.5c-0.4,0.1,0.3,0.6-0.3,0.7c-0.4,0.1-0.1-0.4-0.2-0.5c-0.2,0.2-0.7,0.6-1,0.2
				C58.3,76.8,58.4,76.9,58.5,76.9z M54.5,76.3c0.1,0,0.2-0.2,0.2,0C54.5,76.6,54.5,76.4,54.5,76.3z M53.5,73.9c0,0.1-0.1,0.1-0.2,0
				C53.3,73.9,53.4,73.9,53.5,73.9z M71.7,70L71.7,70C71.5,69.9,71.6,69.9,71.7,70z M72.1,70.1L72.1,70.1c0,0-0.1,0-0.2-0.1
				C72,70.2,72,70.2,72.1,70.1z M70.7,80.3L70.7,80.3C70.8,80.1,70.7,80.2,70.7,80.3z"/>
			<path class="st1" d="M53.5,74.4c-0.1,0-0.1-0.1-0.2-0.1C53.3,74.4,53.4,74.4,53.5,74.4z"/>
			<path class="st1" d="M61.2,77.1L61.2,77.1C61.2,77.1,61.2,77,61.2,77.1L61.2,77.1z"/>
			<path class="st1" d="M65.9,72.6c-0.1,0-0.1-0.1-0.2-0.2C65.7,72.6,65.8,72.6,65.9,72.6z"/>
			<path class="st1" d="M74.3,69.8L74,69.9c0.1,0,0.2,0.1,0.2,0.1C74.2,69.9,74.2,69.8,74.3,69.8z"/>
			<path class="st1" d="M76.3,71.9L76.3,71.9L76.3,71.9C76.3,71.8,76.1,71.9,76.3,71.9z"/>
			<path class="st1" d="M74.4,70.8c0,0.3,0.2,0.2,0.4,0.2l0,0C74.8,70.6,74.6,70.7,74.4,70.8z"/>
			<path class="st1" d="M74.8,71c0.1,0,0.1,0,0.2,0C75,70.9,74.9,71,74.8,71z"/>
			<path class="st1" d="M72.7,70c0.1,0.1,0.1-0.3,0.1-0.2C72.9,69.5,72.2,70.2,72.7,70z"/>
			<polygon class="st1" points="74.5,71.7 74.4,71.4 74.3,71.6 			"/>
			<path class="st1" d="M73.2,71.3l0.3,0.1c0-0.1,0-0.1,0.1-0.1C73.4,71.3,73.2,71.2,73.2,71.3z"/>
			<path class="st1" d="M73.5,71.3c0.1,0,0.2,0,0.2,0S73.6,71.3,73.5,71.3z"/>
			<polygon class="st1" points="74.1,71.7 74,71.7 73.8,71.6 			"/>
			<path class="st1" d="M70.1,71.1l-0.3,0.1c0,0.1,0,0.2,0.2,0.1C70,71.3,70.1,71.2,70.1,71.1z"/>
			<path class="st1" d="M71,72c-0.1-0.1-0.1-0.1-0.1-0.2v0.4L71,72z"/>
			<path class="st1" d="M70.1,72.1c0,0.1-0.5,0.3-0.1,0.3C70,72.2,70.4,72.2,70.1,72.1z"/>
			<polygon class="st1" points="65.4,71.6 65.4,71.6 65.4,70.9 			"/>
			<path class="st1" d="M61.5,73.4c0.4,0.1,0-0.4,0.4-0.2c0.1-0.2-0.3-0.1-0.2-0.3C61.4,73,61.3,73,61.5,73.4z"/>
			<path class="st1" d="M61.6,72.9L61.6,72.9C61.7,72.8,61.7,72.8,61.6,72.9z"/>
			<path class="st1" d="M85.7,76.7c0.1-0.1,0.3-0.3,0.4-0.4c-0.1,0.1-0.2,0.1-0.4,0.2V76.7z"/>
			<path class="st1" d="M85.6,75.7c0.1,0,0.3,0,0.4-0.1c-0.1-0.1-0.2-0.3-0.3-0.4C85.7,75.4,85.8,75.7,85.6,75.7z"/>
			<path class="st1" d="M54.8,75.5L54.8,75.5c-0.1,0.2-0.1,0.2-0.1,0.2C54.7,75.6,54.8,75.6,54.8,75.5z"/>
			<polygon class="st1" points="56.8,76.3 56.7,76.3 56.8,76.7 			"/>
			<path class="st1" d="M59.4,76.3c-0.1,0-0.2,0-0.3,0C59.3,76.3,59.4,76.7,59.4,76.3z"/>
		</g>
	</g>
</g>
</svg>
