 <svg version="1.1" id="Layer_1" xmlns="http://www.w3.org/2000/svg" xmlns:xlink="http://www.w3.org/1999/xlink" x="0px" y="0px" viewBox="0 0 2554 488.1" width="2554px" height="489" xml:space="preserve">
  <style>
    .st0{fill:none;stroke:#FAA61A;stroke-width:10;}
    .st1{opacity:0.3;fill:none;stroke:#0C4DA2;stroke-width:2;enable-background:new;}
    .st2{fill:#0C4DA2;}
  </style>
  <path id="Color_Fill_1927" d="M0,483.1h630c11,0,20-8.9,20-20l0,0v-40c0-11,8.9-20,20-20l0,0h291" class="st0"></path>
  <path id="Color_Fill_1927-2" d="M961,403.1h289c11,0,20-8.9,20-20l0,0v-40c0-11,8.9-20,20-20l0,0h300" class="st0"></path>
  <path id="Color_Fill_1926" d="M960,403.1h289c11,0,20-8.9,20-20l0,0v-261c0-10.6,6.3-23,22.7-23H1588" class="st0"></path>
  <path d="M1589.9,323.1h292c11,0,20-8.9,20-20l0,0v-40c0-11,8.9-20,20-20l0,0H2554" class="st0"></path>
  <path d="M1588,99.1h293.9c11,0,20-8.9,20-20l0,0v-40c0-11,8.9-20,20-20l0,0H2554" class="st0"></path>
  <g data-id="0" class="point">
    <path d="M961,385.1L961,385.1c9.9,0,18,8.1,18,18l0,0c0,9.9-8.1,18-18,18l0,0c-9.9,0-18-8.1-18-18l0,0C943,393.2,951.1,385.1,961,385.1z" class="st1"></path>
    <path d="M961,396.1L961,396.1c3.9,0,7,3.1,7,7l0,0c0,3.9-3.1,7-7,7l0,0c-3.9,0-7-3.1-7-7l0,0C954,399.2,957.1,396.1,961,396.1z" class="st2"></path>
  </g>
  <g data-id="1" class="point">
    <path d="M1590,305.1L1590,305.1c9.9,0,18,8.1,18,18l0,0c0,9.9-8.1,18-18,18l0,0c-9.9,0-18-8.1-18-18l0,0C1572,313.2,1580.1,305.1,1590,305.1z" class="st1"></path>
    <path d="M1590,316.1L1590,316.1c3.9,0,7,3.1,7,7l0,0c0,3.9-3.1,7-7,7l0,0c-3.9,0-7-3.1-7-7l0,0C1583,319.2,1586.1,316.1,1590,316.1z" class="st2"></path>
  </g>
  <g data-id="2" class="point">
    <path d="M1588,81.1L1588,81.1c9.9,0,18,8.1,18,18l0,0c0,9.9-8.1,18-18,18l0,0c-9.9,0-18-8.1-18-18l0,0C1570,89.2,1578.1,81.1,1588,81.1z" class="st1"></path>
    <path d="M1588,92.1L1588,92.1c3.9,0,7,3.1,7,7l0,0c0,3.9-3.1,7-7,7l0,0c-3.9,0-7-3.1-7-7l0,0C1581,95.2,1584.1,92.1,1588,92.1z" class="st2"></path>
  </g>
  <g data-id="3" class="point">
    <path d="M2239,225.1L2239,225.1c9.9,0,18,8.1,18,18l0,0c0,9.9-8.1,18-18,18l0,0c-9.9,0-18-8.1-18-18l0,0C2221,233.2,2229.1,225.1,2239,225.1z" class="st1"></path>
    <path d="M2239,236.1L2239,236.1c3.9,0,7,3.1,7,7l0,0c0,3.9-3.1,7-7,7l0,0c-3.9,0-7-3.1-7-7l0,0C2232,239.2,2235.1,236.1,2239,236.1z" class="st2"></path>
  </g>
  <g data-id="4" class="point">
    <path d="M2237,1.1L2237,1.1c9.9,0,18,8.1,18,18l0,0c0,9.9-8.1,18-18,18l0,0c-9.9,0-18-8.1-18-18l0,0C2219,9.2,2227.1,1.1,2237,1.1z" class="st1"></path>
    <path d="M2237,12.1L2237,12.1c3.9,0,7,3.1,7,7l0,0c0,3.9-3.1,7-7,7l0,0c-3.9,0-7-3.1-7-7l0,0C2230,15.2,2233.1,12.1,2237,12.1z" class="st2"></path>
  </g>
</svg>