<?xml version="1.0" encoding="utf-8"?>
<!-- Generator: Adobe Illustrator 21.0.0, SVG Export Plug-In . SVG Version: 6.00 Build 0)  -->
<svg version="1.1" id="Layer_1" xmlns="http://www.w3.org/2000/svg" xmlns:xlink="http://www.w3.org/1999/xlink" x="0px" y="0px"
	 viewBox="0 0 120 120" style="enable-background:new 0 0 120 120;" xml:space="preserve">
<style type="text/css">
	.st0{fill:#3D8ECD;}
	.st1{fill:#FFFFFF;}
	.st2{fill:#F15922;}
	.st3{fill:#FBB034;}
	.st4{fill:#F36C3B;}
	.st5{fill:#EC6D3E;}
	.st6{fill:#EA5A26;}
	.st7{fill:#3E8ECC;}
	.st8{fill:#FBB94B;}
	.st9{fill:none;stroke:#FBB034;stroke-width:0.8747;stroke-miterlimit:10;}
	.st10{fill:#3EBEB8;stroke:#3EBEB8;stroke-width:0.224;stroke-miterlimit:10;}
	.st11{fill:#3EBEB8;}
</style>
<g>
	<g>
		<path class="st3" d="M84.9,105.4c0,0.4,0.3,0.2,0.4,0.3C85.2,105.1,84.8,105.4,84.9,105.4z"/>
		<polygon class="st3" points="84.1,99.4 84.3,99.5 83.9,98.7 		"/>
		<path class="st3" d="M84.1,93.8c-0.6,0.5,0.1,2-0.1,3L83.9,97l0.5,0.5C84.3,96.3,84,94.7,84.1,93.8z"/>
		<path class="st3" d="M85.4,90.8c-0.2,0.2-0.2-0.6-0.1,0.7c0-0.1,0-0.1,0.1-0.1C85.4,91.3,85.4,91.1,85.4,90.8z"/>
		<path class="st3" d="M85.4,91.4C85.4,92,85.6,91,85.4,91.4L85.4,91.4z"/>
		<path class="st3" d="M85.3,88.7l0.2,0.8c0.1-0.2,0.2-0.9,0.3-0.6C85.6,88.1,85.5,88.2,85.3,88.7z"/>
		<path class="st3" d="M84.8,88l0.1,0.4C85,88.3,85,88.2,84.8,88z"/>
		<path class="st3" d="M85.1,89.2l-0.2-0.9c-0.1,0.1-0.3,0.1,0.1,0.4C84.8,88.7,85,88.8,85.1,89.2z"/>
		<path class="st3" d="M85,89.7c-0.1,0.4-0.2,1-0.4,0.2C84.7,91.4,85.1,91.2,85,89.7z"/>
		<path class="st3" d="M83.5,93.5l-0.2,0.6l0.2,0.5C83.5,94.4,83.7,93.5,83.5,93.5z"/>
		<path class="st3" d="M85.6,83.9c-0.1,0-0.3,0.3-0.5,0.3l0.1,0.6C85.3,84.4,85.4,83.9,85.6,83.9z"/>
		<path class="st3" d="M85.1,84.2l-0.2-0.9C84.8,84.1,84.9,84.2,85.1,84.2z"/>
		<polygon class="st3" points="84.2,87.8 84.6,89.2 84.2,87.5 		"/>
		<polygon class="st3" points="85.6,80.6 85.9,81.1 85.4,80.2 		"/>
		<path class="st3" d="M85.5,78.4c0.2,0.4,0.4-0.5,0.6-0.1c0-0.6-0.2-1.1-0.4-1.5C85.8,77.2,85.7,77.7,85.5,78.4z"/>
		<path class="st3" d="M85.4,76c0.1,0.2,0.2,0.5,0.3,0.8C85.6,76.5,85.5,76.2,85.4,76z"/>
		<path class="st3" d="M84.9,81.8c0.1-0.1,0.3-0.2,0.4-0.7l-0.4,0.3C84.9,81.6,84.9,81.7,84.9,81.8z"/>
		<path class="st3" d="M84.9,81.5L84.9,81.5c0-0.4,0-0.6,0-0.7C84.9,80.9,84.9,81.1,84.9,81.5z"/>
		<path class="st3" d="M84.9,81.9C84.9,81.9,84.9,81.9,84.9,81.9C84.9,81.9,84.9,81.9,84.9,81.9z"/>
		<path class="st3" d="M84.5,85.6c-0.2-0.5-0.4-1.6-0.7-0.5C84,85.4,84.2,84.8,84.5,85.6z"/>
		<path class="st3" d="M84.5,82.4l-0.1,0.9c0.1,0,0.2-0.2,0.3,0.1L84.5,82.4z"/>
		<polygon class="st3" points="84.4,81.9 84.5,82.4 84.5,82 		"/>
		<path class="st3" d="M85.1,77.5c-0.2-0.4-0.2-0.8-0.2-1.3c-0.1,0.5-0.1,1.1-0.1,1.6C84.9,77.9,85.1,78.1,85.1,77.5z"/>
		<path class="st3" d="M85,79.5C85,79.4,84.9,79.4,85,79.5C84.9,79.4,84.9,79.5,85,79.5z"/>
		<polygon class="st3" points="84.9,71.4 84.8,71.5 84.9,71.5 		"/>
		<path class="st3" d="M84.7,77.9c-0.1,0.4,0,0.6,0.1,0.8C84.8,78.4,84.8,78.1,84.7,77.9C84.7,77.8,84.7,77.8,84.7,77.9z"/>
		<path class="st3" d="M85.2,74.6c-0.1,0.2-0.1,0.4-0.2,0.7C85.1,75.1,85.3,74.7,85.2,74.6z"/>
		<path class="st3" d="M85,79.3L85,79.3C85.1,79.2,85.1,79.2,85,79.3z"/>
		<path class="st3" d="M85,79.3c-0.1-0.2-0.1-0.4-0.2-0.5c0,0.2,0.1,0.5,0.1,0.7C85,79.3,85,79.3,85,79.3z"/>
		<path class="st3" d="M82.6,70c0.3,0.1,0.6,1.1,0.3,2c0.2,0.9,1.3,0.3,1.9-0.5c-0.1,0-0.3,0-0.5-0.9c-0.2,0.3-0.4,2-0.7,1.2
			c-0.2-1.2,0.1-1,0.3-1.6c-0.4,0.5-0.6-1.5-1.2-1.3l0.2,1C82.8,70.1,82.7,69.7,82.6,70z"/>
		<path class="st3" d="M84.8,73.2l0,0.4c0.1-0.4,0.2-0.7,0.4-1.3c-0.2-0.6-0.3-0.7-0.4-0.8l0,1.8L84.8,73.2z"/>
		<path class="st3" d="M84.8,75.3c-0.4-0.3-0.5-1.2-0.9-0.6c0,1.1,0.3,0.8,0.4,1.4C84.3,74.3,84.6,76.5,84.8,75.3c0,0.4,0,0.7,0.1,1
			c0-0.3,0.1-0.6,0.2-0.9c0,0,0,0,0,0l0,0l0,0c0,0.1-0.1,0.1,0,0c0,0,0,0,0,0C84.9,75.3,84.9,75.3,84.8,75.3
			c0.1-0.5,0.1-0.1,0.1,0.1c0,0,0,0,0.1,0l0,0l-0.2-1.8C84.8,74,84.8,74.4,84.8,75.3z"/>
		<path class="st3" d="M83,84.1C83.1,84,83.1,84,83,84.1C83.1,83.9,83,83.9,83,84.1z"/>
		<path class="st3" d="M83.3,83.4c0,0.1,0.2,0.2,0.2,0.7c-0.1,0.4-0.2,0-0.3,0c0.1,0.3,0.3,0.9,0.4,0.1l0-0.1
			c0.1-0.7,0.6-1.6,0.6-1.5C83.8,82.7,83.6,82.9,83.3,83.4z"/>
		<path class="st3" d="M83.9,79.3l-0.2-1.5l-0.3,0.7l0.2,0C83.6,79.3,83.8,79.2,83.9,79.3z"/>
		<polygon class="st3" points="85,71.3 85.4,71.5 84.9,70.6 		"/>
		<polygon class="st3" points="85,69.4 85.3,69.4 85.1,68.9 		"/>
		<path class="st3" d="M41.5,47.1l0.1,0.4C41.6,47.3,41.6,47.2,41.5,47.1z"/>
		<path class="st3" d="M41.5,44l-0.2-0.1C41.5,44,41.5,44.1,41.5,44z"/>
		<path class="st3" d="M79.3,24.1c-0.6-0.3-1.3-0.8-1.3-0.4l0.2,0.4C78.7,24,79.1,24,79.3,24.1z"/>
		<path class="st3" d="M47.3,26.3c0.1,0,0.1,0.1,0.2,0.1c0.2-0.1,0.3-0.2,0.4-0.3C47.7,26.1,47.5,26.2,47.3,26.3z"/>
		<path class="st3" d="M46.9,27.7L46,27.5C46.2,27.6,46.5,27.7,46.9,27.7z"/>
		<path class="st3" d="M41.9,64.1l0.4,0.5C42.3,63.8,42.1,64.2,41.9,64.1z"/>
		<path class="st3" d="M84.9,49.9c0.1-0.5,0.2-1,0.2-1.4C84.9,49.2,84.6,49.7,84.9,49.9z"/>
		<path class="st3" d="M37.7,45.9c0.1,0.3,0.1,0.4,0.2,0.4C37.9,46,37.8,45.8,37.7,45.9z"/>
		<path class="st3" d="M85.1,46.9c0,0.1-0.1,0.2-0.1,0.3c0.1,0.4,0.1,0.8,0.1,1.3C85.2,48,85.3,47.5,85.1,46.9z"/>
		<path class="st3" d="M59.7,103.7c0,0,0.1,0,0.1,0C59.9,103.7,59.8,103.7,59.7,103.7z"/>
		<path class="st3" d="M77.7,107.3c-0.2,0-0.5,0-0.7,0C77.1,107.3,77.3,107.3,77.7,107.3z"/>
		<path class="st3" d="M85.2,61.7C85.2,62.1,85.2,61.8,85.2,61.7L85.2,61.7z"/>
		<path class="st3" d="M83.7,63.7c0-0.1-0.1-0.2-0.2-0.2C83.7,63.5,83.7,63.6,83.7,63.7z"/>
		<path class="st3" d="M82.9,42.9C82.9,42.9,82.9,42.9,82.9,42.9C82.8,43,82.8,43,82.9,42.9z"/>
		<path class="st3" d="M85,62.3c0-0.2,0.1-0.3,0.1-0.5C85.1,61.9,85,62,85,62.3z"/>
		<path class="st3" d="M85.2,62.2c0,0.1,0,0.2,0,0.4C85.2,62.6,85.2,62.6,85.2,62.2z"/>
		<path class="st3" d="M85.1,61.1c0,0.2,0,0.4,0,0.7c0-0.1,0-0.1,0.1-0.1C85.2,61.6,85.1,61.4,85.1,61.1z"/>
		<path class="st3" d="M40.6,92.8C40.6,92.8,40.6,92.8,40.6,92.8C40.8,93.3,40.7,93.1,40.6,92.8z"/>
		<path class="st3" d="M68.8,27.8C68.8,27.8,68.9,27.8,68.8,27.8C68.9,27.8,68.8,27.8,68.8,27.8L68.8,27.8z"/>
		<path class="st3" d="M67.4,28.1c0.6-0.4,1-0.4,1.4-0.3l-0.5-1L67.4,28.1z"/>
		<path class="st3" d="M41.6,54.5l0.3-1c0.5,1.2,0.3,2.1,0.8,1.2c-1.1-0.1-0.1-4-1.2-4.1l0.2-0.7c0,0.2,0.1,0.2,0,0.4
			c0.5-1.3-0.8-1-0.6-2.7c0.1-0.6,0.2-1,0.4-0.6l-0.3-1.3c0-0.4,0.2-0.3,0.2,0.1l-0.1-2l0,0c-0.2-0.3-0.4-0.9-0.6-1.2
			c0.2-0.5,0.1,0.3,0.3,0.1l-0.3-1.1c0.3-0.4,0.6,0.5,0.5,1.2c1.1-1-0.3-0.9,0.4-3.1l0.1,1c0.6-0.7,0.4-1.5,0.8-2.7
			c-0.2,0.3-1,2.4-1.3,1.2c0.1-0.3,0.1-0.8-0.1-1.4c0.4,0,0.3-0.6,0.3-1.4l0.5,0.1c-0.2-0.9-0.4-0.8-0.7-1.3c0.1-1,0.5-1.1,0.8-1.4
			c0.1-1.5-0.7,1.1-0.8-0.8c0.2-1.3,0-2.2-0.3-3.7c0.1-0.3,0.2-0.2,0.2-0.2c0.1,0.1,0.1,0.1,0.2,0.1c-0.1-0.1-0.3-0.2-0.4-0.4
			c0-0.1,0.1,0,0.2,0c-0.1-0.2-0.2-0.2-0.3-0.3c-0.1-0.1-0.3-0.2-0.3-0.6c-0.3-0.2-0.1-0.5,0-0.6c0.3,0.1,0.7,0.2,0.9,0.3
			c0.2,0.1,0.4,0,0.6-0.2c0.2,0.1,0,0.3,0.1,0.5c0.1-0.1,0.2-0.1,0.2-0.1c0.1,0,0.1-0.1,0.3-0.1c0.2-0.1,0.4-0.1,0.6-0.2
			c0.3-0.1,0.6-0.2,1.4-0.5l1.2,0.3c-0.9-0.4,0.3-0.9,1.3-1.2c-0.3-0.2-0.6-0.4-0.8-0.4l1.6-0.3c0.2,0.1,0,0.3-0.2,0.5
			c0.1,0,0.2-0.1,0.3-0.1c0.6,0.2,0.3,0.5-0.1,0.8c-0.2-0.1-0.4-0.2-0.6-0.3c-0.4,0.3-0.8,0.7-0.7,1c0.1-0.1,0.3-0.1,0.5-0.1
			c-0.1,0.1-0.2,0.2-0.1,0.2c0.1,0.1,0.2-0.1,0.5-0.2l0.4,0.6l0.1-0.2l2.1,0.4c1.5-0.6,2.8-1.5,5.3-1.7c-0.6,0.4-0.1,0.7-0.2,1.2
			c-0.7-0.5-1.9,0.2-3.1,0.1c0.7,0.1,0.5,0.3,0.3,0.4l2.2-0.5c-0.1,0.4,0.5,0.3,1.1,0.5c-0.4-0.8,1.7-0.5,2.6-0.8
			c0.1,0.3-0.2,0.6-1.3,0.5c1.2,0.6,1.6-1,2.8-0.4c-0.3,0-0.4,0-0.5,0.1c0.6-0.2,2.2-0.1,1.8,0.2l-0.3,0c1.8,0.1,5.5,0,5.7-0.7
			c0,0.1-0.2,0.8-0.3,1l3.2-2.4c-0.3,0.6,0.8,2-0.7,2.4c0.4,0.1,1,0.2,1.9,0c-0.3-0.1-0.7-0.9-0.3-0.9c1.1,0.7,0.8,0.4,2.1,0.9
			c-0.4-0.1,0-1.1,0.7-1c-0.1,0.1,0.1,0.9-0.2,1l1.7-0.9c-0.4,0.2-0.1,0.8,0.3,1c-0.2-0.2,1.5,0,1.9-0.1l-0.7-0.2
			c1.9,0.1,1.9-1.3,3.8-1.3c-0.3,0.2-0.4,1.2,0.1,1.3c0.1-0.2,0.4-0.5,1-0.9c0.5-0.4,1.4-0.8,2.4-1.2c0.2,0.2,0.4,0.7,0.5,1.2
			l-0.3,0.6l0.3,1.7c-0.2-0.4-0.6-0.9-1-1.3c-0.4-0.4-0.8-0.6-1.1-0.7c-0.7,0.3-1.1,0.6-1.4,0.7c0.2,0.2-0.1,0.3,0.4,0.3
			c-0.1,0.3-0.6,0.4-0.6,0.4l0.2,0.1L80.5,29c0.6-0.3,0.6,0.4,1,0.5l0-0.2l0-0.1l-0.1-0.2c0-0.1-0.1-0.2-0.1-0.3
			c-0.1-0.2-0.2-0.3-0.3-0.4c0.3-0.3,0.7-0.4,1-0.1c0.3,0.3,0.5,0.9,0.5,1.9c-0.2,0.5-1-0.3-1.2-0.3c0.2,0.2,0.4,1.7,0.2,1.9
			l-0.3-0.8c-0.2,1,0.7,1.6,0.2,2.8c0,0.4-0.7,1.2-0.4,1.3c0.6-0.7,2.6-0.8,3.1-0.4c0,0.1-0.6,2.2-0.9,2.6c-0.5,0.7-1.2-1-1.6-0.4
			c0.2,0,0.3,0.4,0.4,0.6c-0.1,0.4-0.5-0.2-0.4,0.8c0.6,0.2,0,1.9,0.5,0.4c0.2,0.9-0.1,1-0.1,2.1c0.4-0.3,1.2,1,1.4,1.9
			c-0.1-0.1-0.3,0.2-0.4,0.3c-0.1,1.9-0.3,2.9-0.3,4.7c-0.1,0.2-0.3,1-0.5,0.7c0.1,0.3,0.3,0.5,0.3,1c-0.5,1.1-0.1-1.2-0.7-0.4
			c0.3,0.1,0.4,1.4,0.7,2.2c0.5-0.2,0.1-1.8-0.1-2.6c0.7,0,1.4,1.3,1.7,3.2c0.2,1.5-0.4,0.6-0.3,0.9c-0.1,2.8,1.2,2.3,0.7,4.6
			c-0.4,0.9-0.9,0-1.2,0.2c-0.2-1.2,0.3-1.8,0.3-2.6l-0.2,1c-0.1-0.4-0.3-1.2-0.1-1.6c-0.4,0.8-0.1,4.7-0.4,6.8
			c0.1,0.4,0.3,1,0.5,0.7L83,61c0.4-0.6,0.5,1.3,0.7,0.4c0.3,0.9,0.6,1.9,0.4,3.2l-0.5,0.2c0.1,0,0.3-0.8,0.1-1.2
			c0.2,0.5-0.7,1.9,0,2.5l0.3-0.9c0.3,0.9,0.8,2,0.6,3.2c0.5-0.5-0.1-0.3,0.5-1.1c-0.7,0.7,0-2.9-0.7-1.8c0.7-0.8,0.3-1.4,0.9-2.5
			c-0.2,0-0.3,0.4-0.2-0.6c0,0-0.1-0.1-0.1-0.2c0,0,0,0,0-0.1c0,0,0,0,0,0.1c0,0,0,0,0,0c-0.1,0.2-0.2,0.4-0.3,0.5
			c-0.4-0.5-0.4-2-0.6-2.5c0.1-0.6,0.2,0.2,0.4-0.1l-0.3-0.8c0.4-0.1,0.6-1.5,0.8-0.2l0-1.2c0.2-0.7,0.3-1.7,0.1-2.3
			c0.1-0.6-0.4-1.4-0.1-0.9l-0.2-1.9l0.1,0c0-1.8-0.6-3.8,0.1-5.9c-0.1-0.6-0.2-1.3-0.1-2.3l0.3-0.2c-0.1-0.8,0.3-2.4,0-2.7
			c0.9-0.9,0.2-3.9,0.3-5.3l-0.4-0.1c0-1-0.1-1.9-0.3-3.1l-0.4,0.1c-0.3-1,0.3-2.6,0.2-4.3c0.1,0.1,0.1,0.5,0,0.8
			c0.1-0.2,0.1-0.3,0.2-0.5c0-0.1,0-0.2,0.1-0.3l0-0.1l0-0.2c0-0.6,0-1.1,0-1.7c-0.1-1.1-0.2-2.1-0.3-3c-1.1,0.1-2,0.1-2.8-0.1
			c-0.7,0.1-1.2,0.1-1.7,0c0.1,0,0.1,0,0.2,0c-0.1,0-0.2,0-0.3,0c-0.4-0.1-0.5-0.1-0.7-0.2c0.1,0,0.2,0.1,0.3,0.1c0,0,0.1,0,0.1,0
			c0.1,0,0.1,0,0.2,0c-0.2,0-0.2,0-0.3,0c-0.1,0-0.2,0-0.3,0c-0.2,0-0.5,0.1-0.7,0.1l-0.2-0.4c0,0-0.1,0-0.1,0
			c-0.5-0.1-0.4,0.2-0.1,0.5c-0.3,0.1-0.5,0.1-0.7,0.2C77,24.2,76,25,75.5,24.3c-0.3,0.3-2.5,0.3-2.8,0.9c0-0.1-0.2-0.1,0.1-0.1
			c-0.6-0.1-1.1-0.2-1.6,0l-0.2-0.5l-1.2,0.7c-0.7-0.3-1.1-0.5-0.3-0.9c-1.8,0.6-1.5,0.2-3,0.8l0.1-0.3c-0.5,0-1.4,0.4-1.7,0.2
			c-1.2-0.6-6-0.1-9.1-0.7c0.6,1-1.5-0.4-1.6,0.3c-0.2-0.2-0.6-0.4-0.1-0.6c-1.6,0.2-2.4-0.4-3.5,0.3c-0.2-0.2,0.3-0.3,0.2-0.5
			c-0.1,0-0.5,0.2-0.7,0.1c-0.2-0.1,0.2-0.2,0.5-0.3c-1.6,0-1.8,0.7-1.9,1.4c-0.8-0.3-1.2-0.3-1.8,0.2c-0.3-0.2-0.8-0.4,0.2-0.5
			c-0.6,0-3.5-0.3-3.5,0.2C43.3,25,43.1,25,42.9,25c-0.2,0-0.5,0.1-0.6,0.1c-1.7,0-1.9-0.1-3.6,0l0.5,0.1c0,0.2-0.2,0.3-0.4,0.3
			c0,0.5-0.2,0.9-0.1,1.8l-0.1-0.1c-0.2,1.4-0.2,1.8-0.1,2.1c0,0.3,0.1,0.5-0.2,1.7l0.4-0.1c0.8,0.2-0.5,2-0.2,3.4l0.2-0.5
			c0.3,0.7-1.2,2-1.3,2.8c-0.1,0.2-0.1-0.3-0.2-0.5c-0.5,1.9,0.5,0.2,0.6,1.7c-0.3,0.3-0.7-0.3-0.8,0.6c-0.2,0.5,0.9,2.8,0.4,4.1
			c0.2-0.3,0.4-0.6,0.6,0.1c0.1,1-0.8,2.7-0.1,3.6c-0.1,0.1-0.1,0.2-0.2,0.2c0.2,0.8,0.3,2.5,0.7,3C37.2,49.9,39.3,54,38,54l0.1,2.4
			L38,56.3c-0.1,1.5,0.2,2.1,0.5,2.6c-0.1,0.4-0.2,0.1-0.3,0.1c-0.3,2.2-0.2,2.4,0.4,4.3l-0.4,0.2c0.2,0.5-0.6,3.2-0.2,5.4
			c0,0-0.1-0.1-0.2-0.2c0.5,2.4-1.1,5.9,0.4,6.8l0.4,1.6c0.1-2.1,0.6,0.3,0.9-0.5c0.1,0.8-0.4,2.1-0.5,1.1l0.1-0.2
			c-0.8-0.4-0.3,2.6-0.8,2.5c0,4.1-0.4,8.1-0.4,12l0.6-0.4l0,1.3c-0.1,0.4-0.5,0.5-0.4-0.5c-0.3,0.5,0.3,1.6,0.4,1.6
			c-0.2,1.9-0.7-0.7-0.7-0.2l0,0.8l0.1-0.2c0.2,0.6,0.5,0.7,0.5,1.8c-0.1,0.7-0.4,0.4-0.4,0.7c0,0-0.1,0.1,0,0.4l-0.1,1.7l0.5-0.7
			c0.2,0.8,0,1.6,0.5,0.8c-0.4,0.5-0.5,1.7-0.5,3.1c0,0.4,0,0.9,0,1.3c0,0.5,0,0.9,0,1.3c0,0.8,0,1.6,0,2.1c0.3,0,0.6,0,0.7,0.1
			c0.9-0.2,1.6-0.3,2.4-0.3c0.4,0,0.8,0,1.1,0c0.3,0,0.6,0,1,0c-0.3-0.1-0.5-0.6,0.6-0.6c-0.4,1.1,2,0.5,2.9,1.3
			c-0.8-0.5,3.2-0.1,1.9-0.9c0.9,0.1,0.1,0.4,0.8,0.7c2.2-0.4,4.9,0.3,7.6,0.1c0-0.1-0.4-0.4,0.2-0.6l1.4,0.7
			c0.5-0.1,0.5-0.8,1.5-0.3c-0.1-0.1-0.3-0.3,0-0.4c5.3,0.7,10.9-0.6,16.3,0.7c-0.7-0.3-0.2-0.3,0.3-0.3c-0.4-0.1,0-0.4-0.1-0.6
			l2.3,0.5c0.4-0.5,2.4,0,2.7-0.6l-0.7,0.1c1-0.6-1.3-1.4-1.2-2.2c-1.1,0.7-2.8-1-4.6,0c-0.4-0.2,0.3-0.3,0.1-0.4
			c-0.4,0.3-1,0.4-2,0.3l0.1-0.1c-2.8,0.1-4-0.3-7.1-0.5l0.2,0.4c-0.7-0.1-0.8-0.2-1.1-0.3c-0.8,0.6,1.9,0,1.2,0.7
			c-0.9-0.8-4.8,0-5.4-0.9c-1,0,0.3,0.5-0.7,0.4l-0.3-0.2l-0.3,0.3c-0.7-0.1-1-0.4-1-0.6c0.2,0,0.5-0.1,0.6-0.1
			c-0.9-0.3-2.5,0.1-2.8,0l1,0.2c-2.8,0.2-6.3-0.1-9,0.4l0.2,0.2c-2.1,0.3-1.7-0.2-4,0l0.1,0c-0.5,0.2-1.1,0.3-1.7,0.3
			c0.6-0.2-1.1-0.4-0.3-0.7c-1.6,0.4-0.6,0.3-2.1,1c0-0.1,0-0.2,0-0.3c-0.3,0.1-0.5,0.2-0.7,0.3c-0.1-0.1-0.1-0.3-0.2-0.7
			c0.1,0.3,0.2,0,0.4-0.2c0.1-0.2,0.3-0.4,0.4-0.2c0.2-0.5,0.2-0.7,0.2-0.9c0-0.2-0.1-0.4-0.2-0.8c-0.1-0.7-0.2-1.3,0.3-1.9
			c-0.8-1.1-0.5,2.1-0.6,1.5c-0.3,0.5-0.6-0.9-0.5-1.7c0-0.8,1.1-1.3,1.1-3.2c0,0.2,0.1,0.2,0.1,0.4c0.2-0.7-0.3-1.4,0.1-2.3
			c-0.5-0.5,0-1.2-0.6-1.3l0.2,1.8c-0.2-1-0.9-1.9-0.6-3.6c0.1,0.1,0.3,0.6,0.4,1c0.2-0.5-0.1-0.9,0.1-1.4c0.7,0.1,0.1,2.2,0.6,3.2
			c0.3-0.5-0.5-2,0.2-1.5c-0.9-0.8,0.1-1.9-0.6-3.2l0.4,0.1c-0.1-0.2-0.2-0.6-0.2-1l0.5,0.7c-0.4-1.1,0.4-2,0.1-3.1
			c0,2.1-0.5,0.5-0.8,1.4c-0.5-2.6,1-1.5,0.8-4.4c0.1,0.4-0.2,1.5-0.4,0.9c0.1-0.6,0.2-1.3,0.4-1.6c-0.1-1.9-0.4,0.3-0.6-0.5
			c0.5-0.7-0.2-1-0.3-1.8l0.4,0c0.3-2.2-0.8-0.6-0.5-2.6l0.5,0.8l-0.1-1l0.5,0.2c-0.3-1.1-0.2-1.5-0.1-2.6c-0.3,0.3-0.7-0.1-0.7-1.1
			c0.2-0.7,0.4,0.4,0.3-1c0.2,0.3,0.6,0.7,0.2,1.3c0.1,0.1,0.2,0.3,0.4,0.4c0.3-0.7,0.1-1.8,0.1-2.3c0,0.2,0,0.4-0.1,0.5l-0.5-2
			c0.1-0.3,0.3-0.1,0.4,0.2c0-0.4-0.2-0.7-0.3-1.3c0.3,0.2,0.7,0.1,0.8,1l-0.4-1.9c0.1-0.1,0.4-1,0.5-0.7c0.2-1.1-0.6-2.6-0.4-4
			c-0.1-0.1-0.1-0.2-0.2-0.5c0.1-1.3,0.5-2.5,0-4.1l0.6-0.9c-0.1-1.2-0.7,1.2-0.9-0.8c-0.2-1.5,0.5-0.5,0.7-1.1
			c-0.3-0.7-0.9-2-0.4-3.3C41.7,53.8,41.6,54.1,41.6,54.5z M41.4,39.3c0.1,0.3,0.3,0.9,0.1,1.1C41,40.1,41.2,39.8,41.4,39.3z
			 M49.6,27c-0.2,0.1-0.6,0.1-0.9-0.1C48.9,26.9,49.2,26.9,49.6,27z M84.8,57.3C84.8,57.3,84.8,57.2,84.8,57.3
			C85,56.6,84.9,56.8,84.8,57.3z M84.7,58.6c0.1,0.1,0.1,0.1,0.2,0.1c-0.1-0.1-0.1-0.4-0.1-0.8C84.6,58.1,84.6,58.2,84.7,58.6z
			 M38,97.1l0.1-0.3C38.2,97.4,38.1,97.2,38,97.1z"/>
		<path class="st3" d="M46.9,27.6c-0.1-0.1-0.1-0.1-0.1-0.2C46.7,27.4,46.7,27.5,46.9,27.6z"/>
		<path class="st3" d="M41.8,64L41.8,64C41.9,64.1,41.9,64.1,41.8,64L41.8,64z"/>
		<path class="st3" d="M81.3,37.5c0.1-0.3,0.1-0.4,0.2-0.5C81.4,36.9,81.3,37,81.3,37.5z"/>
		<path class="st3" d="M85.3,65.9L85.2,65c0,0.4-0.1,0.6-0.1,0.8C85.2,65.8,85.3,65.6,85.3,65.9z"/>
		<path class="st3" d="M82.9,73.5c0,0.1,0,0.3,0.1,0.4l0.2,0C83.1,73.3,83,72.9,82.9,73.5z"/>
		<path class="st3" d="M84,66.7c-0.3,0.1-0.2,0.6-0.2,1.2c0,0,0-0.1,0-0.1C84.3,68,84.2,67.3,84,66.7z"/>
		<path class="st3" d="M83.9,68.1c0,0.2,0,0.4,0,0.6C84.1,68.7,83.9,68.4,83.9,68.1z"/>
		<path class="st3" d="M84.9,60.4c-0.1,0.3,0.4,0.2,0.3,0.3C85.6,61,84.7,58.8,84.9,60.4z"/>
		<polygon class="st3" points="82.9,67.2 83.3,67 83,66.6 		"/>
		<path class="st3" d="M83.2,62.3l-0.1,1c0.1,0,0.1,0.1,0.1,0.3C83.3,63,83.3,62.3,83.2,62.3z"/>
		<path class="st3" d="M83.2,63.6c0,0.3,0,0.6,0.1,0.8C83.3,64.2,83.3,63.8,83.2,63.6z"/>
		<polygon class="st3" points="82.8,65.8 82.9,65.6 82.9,64.9 		"/>
		<path class="st3" d="M83.3,51.8l-0.1-1.1C83,50.6,83,50.9,83,51.3C83.1,51.6,83.2,52,83.3,51.8z"/>
		<path class="st3" d="M82.2,55c0.1-0.3,0.2-0.3,0.3-0.5l-0.5,0L82.2,55z"/>
		<path class="st3" d="M82.1,51.9c-0.1-0.1-0.4-1.6-0.4-0.2C81.8,51.8,81.9,52.9,82.1,51.9z"/>
		<polygon class="st3" points="82.7,35.8 82.7,36.1 83.5,36.1 		"/>
		<path class="st3" d="M78.4,28.4c1.2,0.2,0.3-0.5,1.4-0.3c0,0,0-0.1,0-0.1c0,0-0.2-0.1-0.3-0.1c-0.2,0-0.5-0.1-0.3-0.2
			C78.4,28,78,27.8,78.4,28.4z"/>
		<path class="st3" d="M79.2,27.8c0.1,0,0.3-0.1,0.4-0.1C79.4,27.7,79.2,27.7,79.2,27.8z"/>
		<polygon class="st3" points="80.7,107.7 81.5,107.9 81,107.6 		"/>
		<path class="st3" d="M82.2,107.1l0.2,0.5l0.5-0.5C82.7,107.2,82.4,107.2,82.2,107.1z"/>
		<path class="st3" d="M42.4,37.1L42.3,37c-0.1,0.1-0.1,0.3-0.2,0.7L42.4,37.1z"/>
		<polygon class="st3" points="42,48.1 42.1,47.9 41.6,48.3 		"/>
		<path class="st3" d="M42.7,57.4c0-0.4-0.1-0.8-0.1-1.2C42.7,57,42.1,57.5,42.7,57.4z"/>
	</g>
	<g>
		<g>
			<path class="st3" d="M119.7,50.6c-0.1-0.2-0.4-0.1-0.4,0.6l0.5,0.5L119.7,50.6z"/>
			<path class="st3" d="M118.8,55c0.2,0.8,0.7,1.7,1.1,1.2c-0.5-0.8-0.3-1-0.8-1.8c-0.1-0.7,0.2-1.1,0.3-1c-0.1-0.2,0.1-1-0.2-1.4
				c-0.4,0.9-0.4,1.9-0.1,3.1C119,55.3,118.8,55,118.8,55z"/>
			<path class="st3" d="M105.1,105l0.4,0.1C105.4,105,105.2,105,105.1,105z"/>
			<path class="st3" d="M65.2,104.7c0.3,0,0.4-0.1,0.4-0.1C65.4,104.7,65.1,104.7,65.2,104.7z"/>
			<path class="st3" d="M58.4,104.2c0.1,0,0.3,0,0.4,0C58.7,104.2,58.5,104.2,58.4,104.2z"/>
			<path class="st3" d="M105.1,105l-1.1-0.2C103.9,105,104.6,105,105.1,105z"/>
			<path class="st3" d="M117.2,63.3c0.3,0,0.6-0.1,0.8-0.1C117.7,63.2,117.5,63.2,117.2,63.3C117.2,63.3,117.2,63.3,117.2,63.3z"/>
			<path class="st3" d="M110.3,94.5l0-0.3c-0.1-0.1-0.1-0.2-0.2-0.3L110.3,94.5z"/>
			<path class="st3" d="M110.2,81c0,0.3,0.4,0.4,0.6,0.5c-0.2-0.2-0.3-0.4-0.3-0.7C110.4,80.8,110.4,80.9,110.2,81z"/>
			<path class="st3" d="M113.8,61.6l0.4-0.1C114.1,61.6,113.9,61.6,113.8,61.6z"/>
			<path class="st3" d="M110.2,103.7c-0.1,0-0.1,0-0.1,0C110.1,103.7,110.2,103.7,110.2,103.7z"/>
			<path class="st3" d="M108.4,54.4C108.4,54.4,108.4,54.4,108.4,54.4C108.8,54.4,108.9,54.4,108.4,54.4z"/>
			<path class="st3" d="M118.7,50.7l-0.2,0c0,0.1,0,0.2,0,0.2L118.7,50.7z"/>
			<path class="st3" d="M46,103.7C46,103.7,46,103.7,46,103.7C46.3,103.6,46.1,103.6,46,103.7z"/>
			<path class="st3" d="M14.3,56.7c-1.2-0.1-0.7-0.2-0.2-0.3c0.6-0.1,1.3-0.2,1.3-0.3c0,0,0,0,0,0c0-0.1-0.4-0.2-1.2-0.3
				c0.2,0.1-0.5,0.2-1,0.4C12.7,56.4,12.3,56.6,14.3,56.7z"/>
			<path class="st3" d="M116.6,63.2c-0.2,0-0.4,0-0.7,0c0.1,0,0.2,0,0.3,0C116.4,63.3,116.5,63.3,116.6,63.2z"/>
			<path class="st3" d="M14.1,55.8L14.1,55.8l-0.3,0C13.9,55.8,14,55.8,14.1,55.8z"/>
			<path class="st3" d="M17.3,103.9c0.1,0.1,0.2,0.1,0.3,0.2C17.5,104.1,17.5,104,17.3,103.9z"/>
			<path class="st3" d="M38.6,104.5l-0.5-0.1C38.3,104.5,38.5,104.5,38.6,104.5z"/>
			<path class="st3" d="M11.3,101.8c0-0.3,0.1-0.4,0-0.8c0,0,0,0.1-0.1,0.1C11.3,101.3,11.4,101.4,11.3,101.8z"/>
			<path class="st3" d="M11.3,90.2c0,0.1-0.1,0.1-0.1,0.2c0,0.1,0,0.2,0,0.4L11.3,90.2z"/>
			<path class="st3" d="M91,48.8c0.1,0.1,0.2,0.1,0.3,0.2c0.1,0.1,0.3,0.1,0.3,0.2c-0.1-0.1,0.5-0.2,0.8-0.3c0.1,0,0.2-0.1-0.1-0.1
				c-0.1,0-0.3,0-0.6,0C91.7,48.8,91.4,48.8,91,48.8z"/>
			<path class="st3" d="M117.1,63.1c-0.1,0.1-0.2,0.2-0.5,0.2c0.2,0,0.4,0,0.6,0C117.2,63.2,117.2,63.1,117.1,63.1z"/>
			<path class="st3" d="M8,101.3l0.1-1.8C8,100,8,100.6,8,101.3z"/>
			<path class="st3" d="M44.4,24.2l0.4-0.1C44.6,24.1,44.5,24.1,44.4,24.2z"/>
			<path class="st3" d="M8,94c0.1-0.3,0.2-0.7,0.3-1c0-0.1-0.1-0.2-0.1-0.2L8,94z"/>
			<path class="st3" d="M91.7,49.2C91.7,49.2,91.7,49.2,91.7,49.2C91.7,49.2,91.7,49.2,91.7,49.2z"/>
			<path class="st3" d="M95.3,54L95.3,54c0.1,0.3,0.2,0.3,0.2,0.3c0.1,0.2,0.3,0.4,0.3,0.5l-0.1,0c0.1,0,0.1,0,0.2,0
				c0.1,0,0.3,0,0.1,0c-0.2,0-0.3,0-0.4,0c-0.2,0-0.3-0.1-0.3-0.2c0-0.1-0.1-0.2,0-0.3c0.1-0.1,0.2-0.2,0.6-0.2l0.2,0l0,0l0,0
				l-0.1,0.1c-0.1,0-0.1,0.1-0.2,0.1c-0.2,0.1-0.4-0.1-0.4-0.3c0.1,0,0.1-0.1,0.2-0.1c0,0-0.1-0.1-0.1-0.1c0-0.1,0-0.3-0.1-0.4
				c0-0.1,0-0.3,0-0.4c0-0.1,0-0.2,0-0.3c0-0.1,0-0.3,0-0.4c0-1.1,0-2.2-0.1-3.3c-1.2,0-2.4,0.1-3.3,0.3c-0.2,0-0.3-0.1-0.3-0.1
				c0.4,0.3,0.3,0.6,0.2,0.8c-0.2,0-0.5,0-0.7,0.1c-0.2,0-0.3,0.1-0.5,0.1c-0.3,0-0.5,0-0.7-0.1c0.5,0,0.5-0.1,0.7-0.2L90,49.8
				c-0.7-0.5,1.1-0.2,1.1-0.6c-1.7,0.2-3.2,0.6-5.2,0.4c-0.3-0.3,0.7-0.3,1.5-0.3c0.1,0,0.2,0,0.3,0c0.1,0,0.1,0,0.2,0
				c0.1,0,0.2,0,0.2,0s0,0-0.1-0.1c0,0-0.1,0-0.2-0.1c-0.1,0-0.1,0-0.3-0.1c0.1,0,0.5,0,1,0.1c0.5,0,0.9,0.1,0.9,0.1
				c-1.5-0.8,1.2,0.1-0.2-0.8c-1-0.1-1.4,0-2.7,0c-1.1,0-1.9,0.1-3.2,0.1c0,0.6,0,1.3,0,2.3c0.1,0.6,0.2,0.5,0.3,0.5
				c0.1,0,0.2-0.1,0.3,0.4c0,0.3,0,0.5,0.1,0.8c0,0.2,0,0.4,0,0.6c0,0.3,0,0.5,0,0.7c0,0.3-0.1,0.4-0.2,0.4c-0.2,0.1-0.5,0-0.6,0
				c0.2,0,0.5,0,0.8,0.1c0.2,0.2,0.1,0.5,0,0.6c-0.1-0.1-0.1-0.4,0-0.8c0,0,0.1,0,0.3,0c0.1,0,0.3,0,0.3,0c0-0.2,0-0.2-0.1-0.3
				c0,0-0.1-0.2-0.1-0.3c0-0.1-0.1-0.2-0.1-0.3c-0.2-0.4-0.3-0.7-0.1-2c0.2,0.5,0.2,1.9,0.3,1.5c0.5-1.6-0.3-1.2-0.3-2.4l0.5-0.3
				c-0.1-2.6-0.4-5.4-0.5-8.3c0.2,0.2,0.3,0.6,0.5,0c-0.3-3.6,0.1-7.7,0.4-11.2l-0.4-1.3c0-0.3,0.2-0.6,0.3-0.2
				c0.2-1.4-0.3-0.1-0.4-0.7c0-0.1,0-0.2,0-0.3c0-0.1,0-0.2,0-0.3c0-0.2,0.1-0.4,0.1-0.4c0.1-0.2,0.2-0.1,0.3,0.3
				c-0.1-1.1-0.2-2.3-0.3-3.5c-1,0.1-2,0.1-3.1,0.2c-0.4,0-0.9,0-1.3,0.1c-0.3,0-0.6,0-1,0c-1.3,0-2.5,0-3.4-0.2l0.5-0.1
				c-2-0.2-2.2,0.9-4,0.5l0.3-0.1c-4.3-0.2-8.9,0.2-12.2-0.4c-0.6,0.6-4.2-0.3-4.5,0.6c-2.4-0.4-1.7-0.6-5.2-0.9
				c-0.9,0-1.4,0.5-2.5,0.6l0-0.5l-1.5,0.5L45.9,24l-1.1,0.1c0.4,0,0.9,0.2,0.8,0.3c-0.8,0.1-1.8,0-2.6-0.1c-0.4-0.1-0.8-0.1-1-0.2
				c-0.1,0-0.2-0.1-0.3-0.1c-0.1,0-0.2-0.1-0.2-0.1l-4,0.2l0.2,2.8c-0.2-0.2-0.2-1.4-0.4-2.4c0.2,2,0.1,2.1,0,2.2
				c-0.1,0-0.1,0.1-0.1,0.3c0,0.1,0,0.3,0,0.6c0,0.1,0,0.3,0,0.5c0,0.1,0,0.2,0,0.2c0,0.1,0,0.1,0,0.2c0.1-0.3,0.3,0.1,0.4,0.2
				c-0.3,1-0.3,3.1-0.2,4.7l-0.3-0.3c-0.1,2.9,0.2,6.1,0.1,9.4c0.1-1.2,0.7-0.9,0.7,0.1l-0.5,0.4c0.3,0.6,0.2-1,0.5,0.3
				c-0.1,1.2-0.6,0.8-0.7,0.1l0.2,1.5c-0.1,0.1-0.2-0.3-0.4-0.4c0.3,0.6-0.5,2.6,0,3.4L37,47.9c0,1.6,0,2.7,0.1,3.8
				c0,0.3,0,0.5,0,0.8l0,0.1l0,0l0,0l0,0.1c0,0.1,0,0.2,0,0.3c0,0,0,0,0,0c0.3,0.4,0,0.3-0.2,0.7c0,0-0.4,0-0.6-0.1
				c-0.1,0-0.2,0-0.3-0.1c-0.2,0-0.3-0.1-0.5-0.1l0.1-0.3l0-0.1c0,0,0,0,0,0c0,0,0,0,0,0l0-0.5c0-0.6,0-1.2,0-1.8
				c-0.1-1.2-0.2-1.4-0.3-1.4c-0.1,0-0.2,0.2-0.3,0c0,0-0.1,0.1-0.3,0.1c0.1-0.2-0.8-0.3-1.5-0.3c-0.7-0.1-1.2-0.1-0.1-0.3
				c-0.9,0-1.7,0-2.5,0c-0.5,0-0.9,0-1.4,0c-1.3,0.1-2.7,0.1-5,0.2c0,0.1,0,0.6,0.1,1c0.1-0.3,0.2-0.7,0.2-0.7
				c0.1,0,0.2,0.1,0.1,0.1c0,0,0,0,0,0c0,0.5,0,1-0.1,1.3c-0.1,0.3-0.2,0.7-0.3,0.5l0-0.3c0,0.5,0.1,1,0.1,1.4l0,0.4l0,0.1l0,0.1
				l0,0.2c0,0.1,0,0.2,0,0.3c-0.2,0-0.3,0-0.4-0.1l-0.1,0l0,0l0.1,0l0.2,0l0.2,0l-0.1,0l-0.5,0l-0.5-0.1c0,0-0.1,0,0,0l0.3,0
				c0.2,0,0.5,0,0.4,0l-0.1,0c-0.1,0-0.1-0.1-0.2-0.1c0-0.1,0.1-0.3,0.1-0.4c0,0,0,0,0,0.1c0,0,0,0,0,0l0-0.3c0-0.6,0-1.6,0-2.2
				c0-0.6,0-1.3-0.1-1.8c-0.7,0-1.3,0.1-1.9,0.2l0.3,0c0,0-1.4,0.1-2.9,0.2c-0.8,0.1-1.7,0.2-1.7,0.2c-1.5-0.1,0.9-0.3-0.2-0.5
				c-0.3,0.1-0.7,0.1-1,0.1l-0.3,0l-0.4,0c-0.3,0-0.5,0-0.8,0c-1,0-1.9,0-2.8,0c0,1.3,0,2.6-0.1,3.8l0,0.1l0,0.1l0,0l0,0
				c0,0,0,0,0,0c0,0.1,0,0.2,0.1,0.4c0.1,0,0.1,0,0.2,0.1c-0.1-0.3,0.3-0.4,0.9-0.5c0-0.1,0-0.1,0-0.2c0-0.1,0,0,0,0.1l0,0.1
				c0,0,0,0.1,0,0c0-1.4,0-2.9-0.1-4.3c-1.6,0-3.1,0-4.4,0c-0.8,0-1.5-0.1-2.1-0.2l0.2,0.3c-0.8,0.3-1-0.2-1.5-0.2
				c0.1,0.2,0.9,0.2,0.4,0.4l-0.9,0c-0.4,0-0.9,0-1.3,0c-1.1,0-2.1,0-3.2,0c0,1.4,0,2.8,0,4.2c0,0.8-0.1,1.7-0.1,2.5
				c0,0.8-0.1,1.7-0.1,2.5l-0.1,4.6l3.2,0.1l1.5,0l0.9,0c0.6,0,1.1,0.1,1.7,0.1c0.1,0,0.2,0,0.2,0l0,0l0,0c0,0,0,0,0,0
				c0,0,0,0,0.1-0.1c0.1-0.1,0.4-0.3,0.6-0.2c0.1,0,0.2,0.1,0.2,0.2c0,0,0,0.3,0,0.5c0,0.3-0.1,0.5-0.1,0.9l-0.5-0.9
				c0.6,5.1,0,10.4,0.5,15.4c-0.1-0.3-0.3-0.3-0.3-0.8c-0.4,1.1,0,3.9,0.3,3.9c0,0.8-0.3,0.2-0.4,0.7c-0.2,1.1,0.5,2.6,0.1,3.2
				C8.1,86,8,85.6,8,85.4c0.2,0.7,0,3.2,0.4,2.5c-0.2,1.9,0.2,3.6-0.1,5.1c0.5,1-0.2,3.2,0.4,3.5c-0.7-0.1-0.5,3.3-0.2,4.5
				c-0.2-0.4-0.2,1-0.5,0.6c0,0.7,0,1.3,0.1,1.8c0.1,0.8,0.2,1.2,0.4,1c-0.2,1.1-0.3,2.3-0.3,3.4c0.8,0,1.6,0,2.4-0.1
				c0.7,0,1.4-0.1,2-0.1c0.8-0.1,1.5,0,2,0.4c4-0.4,7.7-0.6,11.3-0.8c-0.1,0.7-4,0.1-3.8,0.8c3.4-0.3,5.4-0.9,8.8-0.7
				c0.9,0.1-0.5,0.3-0.8,0.4c3.4-0.3,6.6,0.1,9.6-0.3c0,0.1-0.3,0.1-0.6,0.2c0.6,0,1.4,0.1,1.3-0.2l-0.6,0.1c-1-0.4,2.4-0.9,2.5-1.2
				c-1,0.9,3,0.2,1.4,1.3c0.4-0.1,0.9-0.2,0.8-0.4c0.6,0.1,0.8,0.2,0.2,0.4c2.1-0.2,1.4-0.5,3.3-0.5c0,0.1-0.4,0.2-0.6,0.4
				c1-0.3,2-0.6,3.6-0.5c-0.1,0.1,0.1,0.2-0.4,0.2c2.8,0,4.8-0.8,7.9-0.5c-0.9,0.6,1.1,0.2,1.2,0.8l1.7-0.2l-0.7-0.3
				c1.5,0,2.7-0.4,4-0.2l-1.1,0.2l2.7-0.1l-1.5-0.2c1.5-0.3-0.2-0.7,1.8-0.5c-0.4,0.1,1.5,0,2.2,0.3l0,0c0.7-0.2,1.5-0.4,2.5-0.2
				c0.3,0.2-0.2,0.6,0,0.7c0.7-0.5,3.4-0.1,4.3-0.6c-0.3,0.1-0.3,0.4-0.2,0.5l0.6-0.4c0.7,0.1,0.8,0.2,0.7,0.4
				c2,0.1-0.6-0.7,1.8-0.4c-0.2,0-0.1,0.1-0.5,0.1c2.4,0.2,4.7-0.2,6.9-0.1c0.7,0.6-1.9,0.1-1.2,0.6c3.2-0.1,6.6-0.7,9.7-0.5
				l-0.6-0.1c0.4-0.8,2.3,0.4,3.9,0c-0.4,0.1-0.5,0.4-0.4,0.4c2.1,0.1,4.3-0.2,7.6-0.4l-0.4,0.2c1.3,0.2,3.3,0.1,4.6,0.2
				c0.4-0.2,1.2-0.2,0.7-0.5c0.2,0.1,0.5,0.1,0.8,0.2c0.3,0,0.6,0.1,0.9,0.1c0.6,0.1,1.3,0.1,1.9,0.1c0-1.1,0-2.2-0.1-3.3
				c-0.1-0.8-0.1-1.5-0.2-2.3c-0.1-1.5-0.2-3,0.2-4.4c0,0.4,0.2,1.1,0.2,0.7l-0.2-3.1c-0.3,0.2-0.2,0.4-0.5,1.1
				c-0.2-0.4-0.4-1.3-0.4-2.1c0.2,1.4,0.6,0,0.7-0.6c-0.1,0.1-0.2-0.1-0.3-0.1c0.6-1.6-0.7-0.3-0.3-2.5l0.2,0.1
				c-0.1-0.8-0.3-1.6-0.3-2.5c0.4-0.4,0.2,0.9,0.5,1c0-1.3-0.8-2.5-0.4-3.7c0.1,0.5,0.1,1.3,0.2,1.9c0.5-1.3,0.3-1.4,0.4-2.3l0,0.1
				l0.2-2.2l-0.1,0.5c-1-1.6-0.2-3.2-0.9-5.4c0.6,2.1,0.4,0.3,0.8,0.5c0.1-0.5,0.3-1.4,0.4-1.1c-0.4-1,0.3-1.7-0.2-3.1
				c0.1-0.1,0-1.1,0.4-0.9c-0.1-1.3-0.3,0.3-0.4,0.2c-0.5-2,0.6-4.8-0.1-7.7c0-0.4-0.1-0.8-0.2-1.1c-0.1-0.2-0.1-0.4-0.2-0.6
				c-0.1-0.4-0.2-0.9-0.4-1.4c0.3-0.1,0.8-0.2,1.6-0.3c0.4,0.1,0.2,0.2,0,0.4c-0.2,0.1-0.5,0.2-0.5,0.2c1,0.2,2,0.2,3.2,0
				c-0.1,0.1-0.1,0.1,0,0.2c0.1,0.1,0.2,0.1,0.5,0.2c1.3,0,0.6-0.5,2.3-0.3c-0.1,0.2-0.3,0.4-0.9,0.6c0.6,0,1.1-0.1,1.6-0.2
				c-0.1-1.1-0.3-2.1-0.3-3.1c0.3-0.4,0.4,1,0.5,1.7c0-0.5-0.1-1.1-0.1-1.6l0-0.4l0-0.3c0-0.2,0-0.4-0.1-0.6
				c-0.1-0.7-0.2-1.4-0.4-1.6l-0.1,0.8c0-0.5,0.3-0.2,0.4,0.1c0.3,1.1-0.1,1.6-0.3,1.7l-0.1-0.9c-0.6,0.6-0.3,1.7-0.1,3.4
				c-0.6,0.1-1.4,0.2-2.2,0.2c0,0,0.2-0.2,0.3-0.3c0.1-0.2,0.2-0.3,0.2-0.3s-0.3,0.1-0.8,0.3c-0.4,0.1-0.9,0.3-0.9,0.3
				c-0.4-0.2-0.6-0.5,0.2-0.6c-1.2-0.3-1.1,0.2-2.1-0.1c-0.1-0.1-0.1-0.1,0-0.1l-1.3,0.2c0.2-0.1-0.4-0.4,0.5-0.3
				c-0.9-0.1-1.7-0.1-2.3-0.1c0,0.8,0.1,1.4,0.2,1.9c0,0.5,0,0.9-0.1,1.2l0-0.2c0.2,3,0.5,0.3,1,2.5l-1.1,1.5l0.5,0.3
				c0,0.3-0.1,0.9-0.2,0.8c0.3,1.1,0.2-0.2,0.5,0.5c-0.4,1.5,0.2,4-0.5,4.4c0.3,0.5,0.3-1.4,0.5,0.2c-0.8,0.4,0.1,1.8-0.2,3.1
				c-0.4-0.4-0.2-1.7-0.5-0.3c0.7,0.8-0.1,2.6,0,3.7c0.5,0.1,0.2,2.4,0.4,4.3c-0.2-0.1-0.3,3.6-0.5,5.3l-0.1-0.1
				c0.5,0.3,0.4,2.2,0.6,3.5c-0.3-0.1-0.5-0.3-0.6-1l0,1.2c0.2,0.3,0.3,0.7,0.3,1.5l-0.4-0.3c0,1.7,0.5,3.3,0.2,5.4
				c0.4,0.1,1.1-1.7,1.3,0.6c-0.2,0.1-0.6,0.2-0.6-0.4c0,0.2,0.2,0.7,0.1,1.1l-0.3-0.9c-0.2,1,0.3,0.5,0.3,1.3
				c-0.3,0-0.2,0.6-0.4,0.5c0-0.2,0.1-0.7,0-1c0,0.4-0.1,0.9-0.2,1.3c-0.1,0.4-0.2,0.5-0.3,0.5c0.2,0,0.4,0.1,0.4,0.6
				c0,0.4,0,0.6-0.1,0.5c-0.2-0.1-0.3-0.3-0.7-0.4c-0.1,0.2-0.7,0-0.6,0.4c-0.3,0-0.5-0.2-0.6-0.3c-0.9,0.2-4,0.1-3,0.5l0.2,0
				c0,0-0.1,0-0.1,0c0,0,0,0,0,0h0c-2.8,0.4-5.8-0.2-8.6-0.1l0-0.1c-1.7,0.2-3.7,0.1-4.9,0.4c-0.5,0-1.2-0.3-0.9-0.4
				c-1.3,0.1-1.4,0.3-3.2,0c1.3-0.3-0.4-0.2,1.3-0.2c-1.6-0.1-2-0.4-3.8,0c0.6-0.4-1.2-0.5-2-0.4l1.2,0.3c-0.9,0.1-1.6,0-2.4,0
				l0.4-0.5c-3.4-0.6-6.1,1-8.6,0c-0.9,0.3,1.8,0.2,1,0.6c-1.6-0.1-3.2-0.8-3.7-0.8c-2.1-0.3-2,0.7-4.2,0.5c0.3,0.2,0.6,0.6-1.1,0.8
				c-1.6-0.1-1.9-0.7-0.9-0.9c0.4,0,0.6,0,0.5,0.1c0.5-0.1,1.2-0.1,0.5-0.3l-0.2,0.2c-0.8-0.2-2.9-0.2-2.4-0.5
				c-1.2,0.2-0.5,0.3,0.4,0.4c-2-0.3-3.1,0-5.2-0.2c0.3,0.1,0.6,0.3,0.3,0.3c-3-0.2-1.3,0.3-3.4,0.4c-1.2-0.3,0.4-0.6-1.6-0.4
				c-1.3-0.2-0.3-0.5,0.2-0.6c-1.9,0.3-3.5-0.2-4.6-0.3l1-0.1c-0.6,0.1-1.1,0.1-1.6,0.1l0.6,0.4c-0.6-0.1-1.1-0.1-1.1-0.2
				c-0.6,0.2,0.5,0.6-0.7,0.9c-0.8-0.2-2.3,0.2-2.6-0.3c2.4,0.2-0.3-0.5,1.8-0.5c-0.4,0.1-0.9,0.1-1.5,0c-0.1-0.1,0.1-0.1,0.2-0.1
				c-2.3-0.4-1.1,0.5-3.5,0.5c0.3-0.3-0.6-0.5-0.9-0.4c1,0,0.5,0.4-0.4,0.6c-1.5-0.2-1.7,0.2-2.5,0.1l0.9,0.1
				c-0.3,0.3-1.1,0.2-2.2,0.3c-0.1-0.2,1-0.1,0.6-0.2c-1.2,0.5-2.7-0.5-4.4-0.2c-0.8-0.2-0.1-0.5-0.8-0.6c-1.9,0.3-2-0.4-4-0.1
				c0.6,0.4,0.7,0.3-0.7,0.6l3.2-0.2l-2.1,0.5c1,0,2-0.2,2.6-0.2c-1,0.3-0.9,0.2-0.4,0.5c-1.3-0.5-2.6,0.3-4.2,0l0-0.9
				c-2.3-0.4-4.1,0.5-7.1,0.2l1,0.2c-0.4,0.3-1.9,0-2.8,0.2c0.1-0.3-0.5-0.4-0.9-0.6c0.1,0.2-2.2,0-2.5,0.6l-1.3-0.4
				c-0.5,0-0.8,0-1.2,0c-0.2,0-0.3,0.1-0.5,0.2c-0.3,0.1-0.7,0.3-1.2,0.5c-0.1-0.2-0.1-0.5-0.1-0.9c0.2,0.2,0.3,0,0.4,0
				c0.1-0.1,0.2,0,0.3,0.2c0-0.3,0.1-0.6-0.1-0.6c0-0.1,0-0.1,0-0.3c0,0,0-0.2,0-0.3c0-0.1,0-0.3-0.1-0.4c-0.1-0.6-0.2-1.2,0-1.5
				c-0.1-0.3-0.4-0.4-0.4-1.3c0.1-0.1,0.1,0,0.1,0c-0.1,0-0.2-1.4-0.5-0.6c0.9-2.4-0.1-6.7,0.7-8.8c-0.1-1.7-0.2-3.7-0.2-5.3
				c0.1,0.1,0.1,0,0.1,0.3c0.3-2.1-0.8-1.3-0.5-3.7c0.5-1.2,0.3,1.3,0.4,0.5c1-0.3-0.1-2.9,0.4-4.5l0.1,0.4c0.3-1.2-0.4-3-0.3-5.1
				c0,0,0.1,0.1,0.1,0c-0.5-1.4-0.7-4-0.8-6c0.4,0.6,0.2,0.9,0.6,0.5c-0.1-0.9-0.6,0.3-0.7-1.5c0.2-0.6,0.4-1.8,0.8-2l0,1.6
				c0.3-0.4,0.3-1,0.2-1.5c0-0.3-0.1-0.5-0.1-0.8c0-0.1,0-0.2,0-0.4c0-0.2,0-0.4,0-0.5l0.2,0.1c0-1.6-0.1-2.5-0.3-3.2
				c-0.7,0.1-1.3,0.2-2,0.3c-0.7,0.1-1.6,0.1-2.3,0.1l0.3,0.2c-0.7,0.3-1.1,0.2-1.4,0.1c-0.2,0-0.3-0.1-0.5-0.1c-0.1,0-0.2,0-0.4,0
				c-0.1,0-0.1,0-0.2,0c-0.1,0-0.1,0-0.2,0.1c0,0-0.1-0.1-0.1-0.3c0-0.1-0.1-0.3-0.1-0.3c-0.2,0.1-0.6,0.1-1.1,0.2
				c-0.2-0.5-0.4-1.3-0.4-2.6c0.1,0.2,0.2,0.4,0.2,0.7c0,0.1,0.1,0.3,0.1,0.4c0,0.1,0.1,0.2,0.1,0.3c0.1,0.4,0.2,0.7,0.3,0.9
				c0.2,0,0.4-0.1,0.5-0.1c-0.1,0-0.2,0-0.4,0c0-0.5-0.1-0.9-0.3-1.6c0,0.2,0.1,0.4,0.1,0.6c0,0.1,0,0.2,0,0.3
				c-0.1-0.1-0.1-0.1-0.2-0.2c0,0,0-0.1-0.1-0.1c0-0.1,0-0.2-0.1-0.3c-0.1-0.3-0.2-0.7-0.2-1.1c-0.1-0.8-0.2-1.7-0.2-2.6
				c0.4,0.1,0.5-0.4,0.6-1.1c0-0.1,0-0.3,0-0.4c0-0.1,0-0.2,0-0.3c0-0.2,0-0.5,0-0.7c0.3,0,0.6,0.1,0.8,0.1c0.3,0.1,0.3,0.2,0.7,0.3
				c1.1-0.1,2.2-0.2,3.2-0.1l0.8,0l0.1,0l0,0l0.1,0l0.1,0c0.2,0,0.4,0.1,0.5,0.1L10,52.6c0,0.1,0,0.1,0,0.1c0,0,0,0,0,0
				c0,0.2,0,1.1,0,1.8c0,0.6,0,1.3,0,1.9c0.3-0.9,0.4-1.1,0.4-1c0,0.1,0,0.5,0,0.9c0.8,0,1.6-0.1,1.6-0.5c1.5-0.1,2,0,2.2,0l1.1,0.1
				l0.2-1.4l0.1-0.9l0.1-0.5l0-0.2l0-0.1c0.1-0.3,0.2-0.1,0.2,0.2c0,0.6,0.1,1.3,0.2,1.3c0-2.5,0.1-1.5,0.2-1.6
				c0.1,0,0.1,0.1,0.2,0.1c0,0,0.1,0.1,0.1,0.1c0,0,0.1,0,0.1,0.1c-0.2-0.1-0.4-0.2-0.4-0.4c0,0,0.1,0,0.2,0
				c-0.1-0.1-0.2-0.2-0.4-0.3c-0.1,0-0.1,0-0.2,0c0-0.1-0.1-0.2-0.1-0.3c0.3-0.1,0.7,0.1,0.8,0.3l0.1,0.1c0.1,0,0.2,0,0.2,0.1
				c0.2,0,0.3,0.1,0.5,0.1c0.4,0,0.9,0,1.5-0.1l-0.9,0.3c0.2,0,0.5,0,0.8-0.1c0.3,0,0.6,0,1,0c0.1,0,0.2,0,0.4-0.1l0.1,0.1l0,0
				c0,0,0,0,0.1-0.1c0,0,0,0,0.1,0c0,0,0,0,0,0c0,0.1,0,0.1,0,0.2c0,0,0,0.1,0,0.1l0,0.1l0,0.1c0,0.2,0.1,0.3,0.1,0.5
				c-0.1,0.5-0.4,1.4-0.4,0c0,1.3,0,2.3,0,3.4c0.6,0,1.1,0,1.7,0l0.4,0l0.7,0l0.4,0l0.1,0l0.5,0l0.5,0l0.1,0l0.4,0l0.6,0l0.4,0
				c0.5,0,1-0.1,1.5-0.1c0-0.7-0.1-1.4-0.1-2.1c0-0.7,0-1.3-0.1-1.9c0-0.2,0-0.1,0-0.2c0-0.1,0-0.3,0.1-0.3c0.1,0,0.2,0,0.3,0.1
				c0,0,0.1,0.2,0.1,0.2c0.1,0,0.1-0.1,0.1-0.2c0.1-0.1,0.2-0.1,0.4,0c0,0.1,0,0.2,0,0.2c0,0,0.2-0.1,0.4-0.1c0.2,0,0.4-0.1,0.7-0.1
				c0.5-0.1,1.1-0.1,1.5-0.1l-0.7,0.3c0.4,0,0.7,0,1.1,0.1l0.3,0l0.1,0c0,0,0.1,0,0.1,0c0.1,0,0.3-0.1,0.6-0.2
				c0.1,0.1,0.1,0.1,0.2,0.2c0.1,0.1,0.1,0,0.2,0.2l0,0.3l0,0.4c0,0.3,0,0.6,0.1,0.9c0,0.6,0.1,1.1,0.1,1.6
				c-0.1,0.1-0.1,0.2-0.2,0.3c0.1,0.3,1,0.4,2.4,0.6c0.3,0,0.7,0.1,1,0.1l0.3,0l0.2,0l0.3,0c0.7,0,1.4,0.1,2,0.1l0,0.1
				c0.9,0,1.9,0,2.6,0c0-1.6-0.1-3.1-0.1-4.5c-0.1-0.8-0.1-1.5-0.2-2.2c-0.2-1.5-0.3-2.9-0.5-4.5c0.7-2.3,0.3-7.8,0.7-11.5
				c-0.1,0.6-0.5-0.1-0.6-0.7c0.1-0.9-0.5-2.4,0.1-2.3l0,0.3c0.3-0.3,0.4-0.9,0.4-1.6c0-0.3,0-0.7,0-1.1c0-0.3,0-0.6,0-0.8
				c0,0-0.8-0.2-0.8-0.2c0.2-0.2,0.3-0.4,0.4-0.5c0.2,0,0.3,0.1,0.5,0.1c0.1,0,0.1,0,0.2,0l0.5,0c0.9,0,1.9-0.1,2.8-0.1
				c1.8-0.1,3.3-0.1,4.1,0.3c0.9-0.2,2-0.2,2.8-0.4l0,0.4c2.4,0.1,3.6,0.2,6.6,0.1l-0.6,0.3c1.7,0,2.1-1.2,3.7-1.2l0.5,0.6
				c3,0,5.9,0.5,8.9,0c0,0.1-0.1,0.3-0.6,0.3c1.4,0,5.4,0.4,4.9-0.4c0,0.6,3,0.1,4.6-0.2l-0.2,0.4c0.3-0.1,0.6-0.2,0.8-0.3
				c0.1,0,0.2-0.1,0.3-0.1c0.1,0,0.1-0.1,0.2-0.1c0.2-0.1,0.5-0.2,1.2-0.3c0.2,0.1-0.1,0.3-0.3,0.2c0.1,0,0.2,0,0.2,0
				c0,0.2,0.1,0.3,0.2,0.4c0.1,0.1,0.1,0.4,0,0.9c0-0.1-0.3-0.4-0.3-0.4c0,0.2,0,0.3,0,0.6c0,0.2,0,0.4,0.1,0.5
				c0.1,0.3,0.2,0.4,0.3,0.9c0.2,1-0.1,2.9-0.5,3.1c0.2,0.2,0.5,1,0.4,1.9c-0.1,0.1-0.2-0.2-0.3-0.4c-0.3,2.6,0.5,3.8,0.1,5.6
				c-0.1,0-0.2,0.2-0.2,0.3c0-2,0-3.7,0.1-3.5c-0.4,0-0.4,1.6-1,0.3c0.3,1.3,0.9,3.6,0.7,5.2c0,0.1-0.1,0.2-0.1,0.2l0-0.2
				c0,0.4,0,0.7,0.1,1c-0.1,0.5-0.1,0.8-0.1,1.3c-0.3,0.2-0.2,1.9-0.2,2.7c0.4-0.1,0.4,1,0.7,0c0,0.1,0-0.2-0.1-0.7
				c0-0.1,0-0.3,0-0.3c0,0,0,0,0,0.1c0-0.5,0-1.2,0-2c0.2,0.6,0.4,1.3,0.2,2.2c0.3,0.4,0.5,0.9,0.7,1.1c-0.6,1.1-0.9,3.3-1.3,3.6
				c0.1,0.8,0.1,1.6,0.2,2.4c0,1.3,0.1,2.7,0.2,3.8c2.2-0.1,3.9-0.3,4.6-0.6c0-0.1,0-0.1,0-0.2c-0.1-1,0.2-0.9,0.3-1.2
				c0.1,0.6,0.1,1.4,0.2,1.8c-0.1-0.6-0.1-1.3-0.1-2c0-0.3,0-0.7,0-1.1c0-0.2,0-0.4,0-0.5c0-0.1,0-0.2,0-0.4c0-0.2,0-0.5-0.1-0.6
				c0-0.1-0.1-0.2-0.1-0.3c-0.1-0.2-0.2-0.4-0.3-0.5c0.1-0.5,0.2-0.3,0.3-0.1c0.1,0.2,0.1,0.3,0.1-0.3c0,0,0.1,0,0.1,0
				c0,0,0,0.1,0,0.1l0,0.1l0,0c0.5,0.1,0.8,0.2,1.1,0.2c0.1,0,0.3,0,0.4,0c0.2,0,0.3,0,0.5,0c0.3,0,0.7-0.1,1-0.1
				c0.3,0,0.7-0.1,1-0.1c0.3-0.1,0.7-0.1,0.8-0.2c0.4-0.1,0.9-0.2,1.5-0.3c0.1,1,0.1,1.6-0.2,4.6c0.1-0.6,0.1-0.8,0.2-0.9
				c0,0.7-0.1,1.5-0.1,2.3c1.6,0.1,4.1,0.1,5.8,0c0-1.3,0-2.5-0.1-3.8c0-0.7,0-1.4-0.1-2.1c0.8,0,1.5,0,2.9,0c0.6,0,1.2,0.1,1.8,0.1
				l0.9,0.1c0.2,0,0.4,0.1,0.5,0.1c0.4,0.1,0.6,0,0.9,0c0.1,0.2,0.3,0.2,0.4,0.6c0,0-0.4,0.4-0.4,0.4c0,0,0,0.1,0.1,0.1
				c0,0.1,0.1,0.2,0.2,0.4c0.1,0.4,0.3,0.9,0.3,0.9c0.1,1,0.1,1.8-0.1,2.9c0.4,0,0.9,0.1,1.3,0.1l0.2,0c0.1,0,0,0,0,0l-0.1,0
				c0.1,0.1,0.5,0.2,0.7,0.2c0.3,0,0.6,0,0.9,0l0.2,0l-0.1,0l-0.1,0l0,0c0,0-0.1,0,0,0c0.6,0,1.3,0.1,2,0.1c0-0.9,0-2-0.2-3
				c0,0-0.3,0.5-0.3,0.5c0.1-1.8-0.2-3.4,0.2-3.1c-0.1-0.1-0.3-0.4-0.2-0.7c0,0,0.1,0,0.1,0l0.2,0.2c0,0,0.3-0.1,0.8-0.2
				c0.2-0.1,0.5-0.1,0.7-0.1c0.3,0,0.4-0.1,0.4-0.1c2.2,0.2-0.3,0.9,2.9,1c1.2-0.1,3.4-0.7,2.9-0.8c-0.5,0-1.2-0.1-1.3-0.4l1.1-0.1
				c0.2-0.7,1-1.4-1.6-1.9l-1.9,0.4l-0.6-0.3l1.6,0c-0.9-0.3-1.5,0-2.1,0.2c-0.1-0.2-0.4-0.3-0.8-0.4c0,0-0.1,0-0.3,0.1
				c-0.1,0-0.2,0.1-0.3,0.1c-0.1,0-0.2,0.1-0.4,0.1c-0.8,0.2-1.4,0.3-1.4,0.3c-0.2-0.1,0-0.3,0.1-0.4c0.1-0.1,0-0.2-1.2-0.3
				c-0.7,0.2-0.2,0.3,0.1,0.4c0.3,0.1,0.4,0.3-0.5,0.4c-0.3-0.1-0.5-0.1-0.7-0.2c-0.2,0.5-0.4,0.4-0.1,1.9c-0.2,0.2-0.3-0.2-0.4-1
				c0.1,0.9,0.1,1.9,0.2,2.8c0,0.3,0,0.5,0.1,0.8c0,0.1,0,0.1,0,0.2l0,0.1c0,0,0.1,0.1,0.1,0.1c-0.2,0.2-0.2,0.5-0.2,0.7
				c0.2,0,0.4,0,0.5-0.1c0,0,0.1,0,0.1,0c0,0,0,0,0,0l-0.1,0c-0.1,0-0.1,0-0.2,0c-0.2,0-0.3-0.1-0.3-0.2c-0.1,0-0.3,0-0.6,0.1
				l-0.1,0l0,0l0,0l0,0c0,0,0.1,0,0.1,0c0.2,0,0.4,0,0.6,0.2c0,0,0,0,0,0.1l0,0c0,0,0,0,0,0c-0.2,0-0.4,0-0.6,0
				c-0.6,0-0.3,0-0.3,0.1c0.1,0,0.2,0.1,0.3,0.1c0,0,0-0.1,0-0.1c0,0,0.1,0,0.1,0c0-0.1,0.1-0.2,0.2-0.2c0.1-0.2,0.1-0.4,0.1-0.6
				c0,0,0-0.1,0-0.1c0,0,0-0.1,0-0.2c0-0.1,0-0.1,0-0.2c0.1-0.2,0.2-0.3,0.3-0.3c0-0.1-0.1-0.2-0.1-0.2c0,0,0-0.1-0.1-0.1
				c0-0.1,0-0.2,0-0.3c-0.1-0.4-0.1-0.7-0.1-1.2c-0.1-0.8-0.1-1.8-0.1-2.7c-1,0-2.1,0-3.1,0.1c-0.3,0-0.5,0-0.8,0l-0.4,0l-0.2,0
				c-0.3,0-0.6,0.1-0.8,0.1c0.1-0.1,0.3-0.2,0.5-0.1c-1.2-0.1-1.5-0.3-2.2-0.4c-0.1,0.3-0.6,0.5-1.1,0.6l-0.1,0l-0.2,0l-0.4,0.1
				c-0.2,0-0.5,0.1-0.7,0.1c-0.4,0.1-0.8,0.1-1.1,0.2c-1.2-0.3-1.1-0.5-0.7-0.6c0.4-0.2,1.2-0.3,0.6-0.6c0.2,0.2-0.9,0.4-1.8,0.5
				c0.1,1.1,0.2,1.9,0.4,1.6c-0.2,0.7-0.2,1.1-0.3,1.4c-0.1,0.3-0.1,0.4-0.4,0.9c0.4,0.3,0.4,0.4,0.4,0.8c0,0.1,0,0.2,0,0.3l0,0.1
				c0,0,0,0,0,0.1c0,0.1,0.1,0.1,0.2,0.3c-0.2,0.2-0.3,0.1-0.4,0.1c-0.1,0-0.2-0.1-0.1,0c0,0,0,0-0.1,0.1c-0.1-0.1-0.2-0.2-0.2-0.3
				C95.4,54.1,95.4,54,95.3,54C95.3,54,95.3,54,95.3,54z M84,42C84,42,84,42,84,42c0,0.4,0,0.7,0,0.8C84.1,42.7,84,42.4,84,42z
				 M84,38.6c0,0.4,0,0.9,0,1.5c-0.1,0.1-0.3,0-0.3-0.4C83.8,39.9,83.9,39.1,84,38.6z M81.1,45.8c-0.1-0.5,0-0.7,0.1-0.8
				c0,0.3,0,0.6,0.1,1c0,0,0,0,0.1,0.1C81.3,46,81.2,45.9,81.1,45.8z"/>
			<path class="st3" d="M81.7,46.8c0,0.1,0,0.1,0,0.2c0-0.1,0.1-0.2,0.1-0.3c0-0.1-0.1-0.1-0.1-0.2C81.7,46.6,81.7,46.7,81.7,46.8z"
				/>
			<path class="st3" d="M105.6,105.1L105.6,105.1C105.5,105.1,105.6,105.1,105.6,105.1C105.6,105.1,105.6,105.1,105.6,105.1z"/>
			<polygon class="st3" points="48.2,24 48.2,24.1 48.5,24 			"/>
			<path class="st3" d="M112.2,92.6c0,0,0.1-0.1,0.1-0.2C112.3,92.4,112.3,92.5,112.2,92.6z"/>
			<path class="st3" d="M112.3,84.5l0.1-1.2C112.4,83.8,112.3,84.2,112.3,84.5z"/>
			<path class="st3" d="M112.5,78.2c-0.1-0.1-0.1-0.1-0.2-0.1l0,0L112.5,78.2z"/>
			<path class="st3" d="M39.1,107.3c-0.1,0-0.2,0-0.2,0C38.3,107.4,38.6,107.4,39.1,107.3z"/>
			<path class="st3" d="M68.8,106.3c-0.3,0.1-0.6,0.2-1,0.2C68.4,106.6,68.8,106.6,68.8,106.3z"/>
			<path class="st3" d="M8,101.5C8,101.5,8,101.5,8,101.5c0-0.1,0-0.1,0-0.2L8,101.5z"/>
			<path class="st3" d="M66.4,106.5c0.5,0.1,1,0.1,1.4,0C67.4,106.5,66.9,106.5,66.4,106.5z"/>
			<path class="st3" d="M120,58.3l0-0.3c0,0-0.1,0-0.1,0L120,58.3z"/>
			<path class="st3" d="M119.9,57.9l0-0.3C119.9,57.7,119.9,57.9,119.9,57.9z"/>
			<path class="st3" d="M119.8,56.9l0.1,0.7C119.9,57.3,119.9,57,119.8,56.9z"/>
			<path class="st3" d="M114.1,63.1l-0.1,0.2C114.1,63.3,114.1,63.2,114.1,63.1z"/>
			<path class="st3" d="M112.7,63.2c0.2,0,0.4,0.1,0.6,0.2c0.1,0,0.2,0.1,0.3,0.1c0,0,0.1,0,0.1,0l0.2,0l0.1-0.1
				c-0.3,0.1-0.4,0-0.7-0.1C113.1,63.1,112.7,63.1,112.7,63.2z"/>
			<path class="st3" d="M110.7,72.4l0.1-2.1c-0.2,0.4-0.4,0.9-0.4-0.1C109.9,72.8,110.7,69.6,110.7,72.4z"/>
			<path class="st3" d="M110.4,78.9c-0.1-1.1-0.2,0-0.3,0C110.3,79.6,110.3,79.8,110.4,78.9z"/>
			<path class="st3" d="M90.7,104.8l0.1-0.4C90,104.4,90.9,104.5,90.7,104.8z"/>
			<polygon class="st3" points="81.7,106.7 82.5,107 82.9,106.6 			"/>
			<polygon class="st3" points="76.3,104 76.7,104 75.2,104.1 			"/>
			<path class="st3" d="M11.7,92.3l-0.5,0.3C11.3,93.1,11.8,93.3,11.7,92.3z"/>
			<path class="st3" d="M7.3,59.6c-0.4-0.2-1.3-0.4-1.9-0.2C6.1,59.5,6.9,59.7,7.3,59.6z"/>
			<path class="st3" d="M41.1,27.8c0,0,0.2,0.3,0.2,0.3C41.2,28,41.2,27.9,41.1,27.8c0.1,0,0.1,0,0.1,0L41.1,27.8L41.1,27.8z"/>
		</g>
		<g>
			<path class="st3" d="M71.1,104.5c0,0.1,0.3,0.1,0.3,0.1C71.4,104.4,71,104.5,71.1,104.5z"/>
			<polygon class="st3" points="70.4,102.7 70.5,102.7 70.2,102.4 			"/>
			<path class="st3" d="M70.4,101c-0.5,0.2,0.1,0.6-0.1,0.9l-0.1,0.1l0.4,0.1C70.5,101.7,70.2,101.2,70.4,101z"/>
			<path class="st3" d="M71.5,100.1c-0.2,0.1-0.2-0.2-0.1,0.2c0,0,0,0,0.1,0C71.5,100.2,71.5,100.2,71.5,100.1z"/>
			<path class="st3" d="M71.5,100.2C71.5,100.4,71.7,100.1,71.5,100.2L71.5,100.2z"/>
			<path class="st3" d="M71.4,99.4l0.2,0.2c0.1,0,0.1-0.3,0.2-0.2C71.7,99.2,71.6,99.3,71.4,99.4z"/>
			<path class="st3" d="M71,99.2l0.1,0.1C71.1,99.3,71.2,99.3,71,99.2z"/>
			<path class="st3" d="M71.3,99.6l-0.2-0.3c-0.1,0-0.3,0,0.1,0.1C71,99.4,71.1,99.5,71.3,99.6z"/>
			<path class="st3" d="M71.2,99.7c-0.1,0.1-0.2,0.3-0.4,0.1C70.9,100.2,71.2,100.2,71.2,99.7z"/>
			<path class="st3" d="M69.8,100.9l-0.2,0.2l0.2,0.2C69.8,101.1,70,100.9,69.8,100.9z"/>
			<path class="st3" d="M71.7,97.9c-0.1,0-0.3,0.1-0.4,0.1l0.1,0.2C71.4,98.1,71.5,97.9,71.7,97.9z"/>
			<path class="st3" d="M71.2,98L71,97.8C71,98,71.1,98,71.2,98z"/>
			<polygon class="st3" points="70.4,99.1 70.8,99.6 70.4,99.1 			"/>
			<polygon class="st3" points="71.7,96.9 71.9,97.1 71.6,96.8 			"/>
			<path class="st3" d="M71.6,96.3c0.2,0.1,0.4-0.2,0.5,0c0-0.2-0.2-0.3-0.4-0.5C71.8,95.9,71.8,96.1,71.6,96.3z"/>
			<path class="st3" d="M71.5,95.5c0.1,0.1,0.1,0.1,0.2,0.2C71.7,95.7,71.6,95.6,71.5,95.5z"/>
			<path class="st3" d="M71.1,97.3c0.1,0,0.2-0.1,0.3-0.2l-0.3,0.1C71.1,97.3,71.1,97.3,71.1,97.3z"/>
			<path class="st3" d="M71.1,97.2L71.1,97.2c0-0.1,0-0.2,0-0.2C71.1,97,71.1,97.1,71.1,97.2z"/>
			<path class="st3" d="M71.1,97.3L71.1,97.3C71.1,97.3,71,97.3,71.1,97.3z"/>
			<path class="st3" d="M70.7,98.5c-0.2-0.2-0.4-0.5-0.6-0.2C70.3,98.4,70.4,98.2,70.7,98.5z"/>
			<path class="st3" d="M70.7,97.5l-0.1,0.3c0.1,0,0.2-0.1,0.3,0L70.7,97.5z"/>
			<polygon class="st3" points="70.6,97.3 70.7,97.5 70.7,97.4 			"/>
			<path class="st3" d="M71.2,96c-0.1-0.1-0.1-0.3-0.2-0.4c-0.1,0.2-0.1,0.3-0.1,0.5C71,96.1,71.2,96.2,71.2,96z"/>
			<path class="st3" d="M71.1,96.6L71.1,96.6C71.1,96.6,71.1,96.6,71.1,96.6z"/>
			<path class="st3" d="M71,94.1C71,94.2,71,94.2,71,94.1L71,94.1L71,94.1z"/>
			<path class="st3" d="M70.9,96.1c-0.1,0.1,0,0.2,0.1,0.3C71,96.3,70.9,96.2,70.9,96.1C70.9,96.1,70.9,96.1,70.9,96.1z"/>
			<path class="st3" d="M71.4,95.1c-0.1,0.1-0.1,0.1-0.2,0.2C71.3,95.3,71.4,95.1,71.4,95.1z"/>
			<path class="st3" d="M71.2,96.5L71.2,96.5C71.3,96.5,71.2,96.5,71.2,96.5z"/>
			<path class="st3" d="M71.2,96.5c0-0.1-0.1-0.1-0.2-0.2C71,96.4,71.1,96.5,71.2,96.5C71.1,96.6,71.2,96.5,71.2,96.5z"/>
			<path class="st3" d="M69,93.7c0.3,0,0.6,0.3,0.3,0.6c0.2,0.3,1.2,0.1,1.7-0.1c-0.1,0-0.2,0-0.4-0.3c-0.2,0.1-0.4,0.6-0.6,0.4
				c-0.2-0.4,0.1-0.3,0.3-0.5c-0.4,0.2-0.5-0.5-1.1-0.4l0.2,0.3C69.2,93.7,69.1,93.6,69,93.7z"/>
			<path class="st3" d="M70.9,94.7l0,0.1c0.1-0.1,0.2-0.2,0.4-0.4c-0.1-0.2-0.3-0.2-0.4-0.2L70.9,94.7L70.9,94.7z"/>
			<path class="st3" d="M71,95.3c-0.3-0.1-0.5-0.4-0.8-0.2c0,0.3,0.3,0.2,0.4,0.4C70.5,95,70.8,95.7,71,95.3c0,0.1,0,0.2,0,0.3
				c0-0.1,0.1-0.2,0.1-0.3l0,0l0,0l0,0c0,0-0.1,0,0,0c0,0,0,0,0,0C71.1,95.3,71,95.3,71,95.3c0.1-0.2,0.1,0,0.1,0l0,0l0,0L71,94.8
				C70.9,94.9,70.9,95.1,71,95.3z"/>
			<path class="st3" d="M69.4,98C69.4,98,69.4,98,69.4,98C69.4,98,69.4,97.9,69.4,98z"/>
			<path class="st3" d="M69.6,97.8c0,0,0.2,0.1,0.1,0.2c-0.1,0.1-0.2,0-0.3,0c0.1,0.1,0.2,0.3,0.4,0l0,0c0.1-0.2,0.5-0.5,0.6-0.5
				C70.1,97.6,69.9,97.6,69.6,97.8z"/>
			<path class="st3" d="M70.2,96.5L70,96.1l-0.3,0.2l0.2,0C69.9,96.6,70.1,96.5,70.2,96.5z"/>
			<polygon class="st3" points="71.2,94.1 71.5,94.2 71.1,93.9 			"/>
			<polygon class="st3" points="71.2,93.5 71.4,93.5 71.3,93.4 			"/>
			<path class="st3" d="M57.8,86.7l0.1,0.1C57.9,86.8,57.9,86.8,57.8,86.7z"/>
			<path class="st3" d="M57.8,85.8l-0.1,0C57.8,85.8,57.8,85.8,57.8,85.8z"/>
			<path class="st3" d="M69.3,78.5c-0.1-0.3-0.3-0.7-0.4-0.4l-0.1,0.3C69.1,78.4,69.2,78.4,69.3,78.5z"/>
			<path class="st3" d="M58.4,80.4C58.5,80.5,58.5,80.5,58.4,80.4c0.1,0,0.1-0.1,0.2-0.2C58.5,80.3,58.5,80.4,58.4,80.4z"/>
			<path class="st3" d="M58.6,81.8c0,0,0-0.1-0.1-0.1c-0.1-0.1-0.1-0.1-0.1-0.1C58.5,81.6,58.5,81.7,58.6,81.8z"/>
			<path class="st3" d="M58.2,91.9l0.3,0.2C58.5,91.8,58.3,91.9,58.2,91.9z"/>
			<path class="st3" d="M71,87.6c0.1-0.2,0.2-0.3,0.2-0.4C71,87.4,70.8,87.5,71,87.6z"/>
			<path class="st3" d="M54.4,86.4c0.1,0.1,0.1,0.1,0.2,0.1C54.5,86.4,54.5,86.3,54.4,86.4z"/>
			<path class="st3" d="M71.2,86.7C71.2,86.7,71.2,86.7,71.2,86.7c0,0.2,0,0.3,0,0.5C71.4,87,71.5,86.8,71.2,86.7z"/>
			<path class="st3" d="M62.2,102.8C62.2,102.8,62.2,102.8,62.2,102.8C62.2,102.7,62.2,102.7,62.2,102.8z"/>
			<path class="st3" d="M67.7,106c-0.1,0-0.1,0-0.2,0C67.5,106.1,67.6,106.1,67.7,106z"/>
			<path class="st3" d="M71.3,91.2C71.3,91.3,71.3,91.2,71.3,91.2L71.3,91.2z"/>
			<path class="st3" d="M70,91.8c0,0-0.1,0-0.2,0C69.9,91.7,70,91.8,70,91.8z"/>
			<path class="st3" d="M69.2,85.5C69.2,85.5,69.2,85.5,69.2,85.5C69.2,85.5,69.2,85.5,69.2,85.5z"/>
			<path class="st3" d="M71.1,91.4c0,0,0.1-0.1,0.1-0.2C71.2,91.2,71.2,91.3,71.1,91.4z"/>
			<path class="st3" d="M71.3,91.3c0,0,0,0.1,0,0.1C71.3,91.5,71.4,91.5,71.3,91.3z"/>
			<path class="st3" d="M71.3,91c0,0.1,0,0.1,0,0.2c0,0,0,0,0.1,0C71.3,91.1,71.3,91.1,71.3,91z"/>
			<path class="st3" d="M57,100.6C57,100.7,57,100.7,57,100.6C57.1,100.8,57.1,100.7,57,100.6z"/>
			<path class="st3" d="M65,81.9C65,81.9,65,81.8,65,81.9L65,81.9L65,81.9z"/>
			<path class="st3" d="M64.5,82.1c0.2-0.4,0.3-0.4,0.4-0.3l-0.1-0.9L64.5,82.1z"/>
			<path class="st3" d="M57.9,89l0.3-0.3c0.5,0.4,0.3,0.6,0.7,0.4c-1,0-0.1-1.2-1.1-1.2l0.2-0.2c0,0.1,0,0.1,0,0.1
				c0.5-0.4-0.7-0.3-0.6-0.8c0.1-0.2,0.2-0.3,0.3-0.2l-0.2-0.4c0-0.1,0.2-0.1,0.2,0l-0.1-0.6l0,0c-0.2-0.1-0.4-0.3-0.5-0.4
				c0.1-0.2,0.1,0.1,0.2,0l-0.2-0.3c0.3-0.1,0.5,0.1,0.5,0.4c1-0.3-0.3-0.3,0.3-1l0.1,0.3c0.6-0.2,0.4-0.5,0.7-0.8
				c-0.2,0.1-0.9,0.7-1.2,0.4c0.1-0.1,0.1-0.2-0.1-0.4c0.4,0,0.3-0.2,0.3-0.4l0.5,0c-0.1-0.3-0.4-0.3-0.6-0.3c0-0.1,0.4-0.1,0.7,0
				c0,0-0.1-0.1-0.3-0.1c-0.2,0-0.4,0-0.4-0.1c0.2-0.1,0-0.2-0.3-0.6c0.2,0,0.3,0.2,0.4,0.3c0,0-0.1-0.1-0.2-0.2
				c-0.1-0.1-0.2-0.2-0.2-0.2c0,0,0.1,0.1,0.2,0.1c-0.1-0.2-0.5-0.4-0.6-0.7c-0.2-0.2-0.1-0.2,0-0.2c0.3,0.2,0.7,0.5,0.5,0.1
				c0.2,0.1,0.2,0.3,0.4,0.5c0-0.2,0-0.3,0-0.4c0-0.1,0-0.2,0-0.5c0,0,0.4,0.3,0.4,0.3c-0.3-0.4-0.2-0.8,0-1.1
				c-0.1-0.2-0.3-0.3-0.3-0.4c0,0,0.5-0.3,0.5-0.3c0.1,0.1,0,0.2,0,0.4c0,0,0.1-0.1,0.1-0.1c0.2,0.2,0.1,0.5,0,0.7
				c-0.1-0.1-0.1-0.2-0.2-0.3c-0.1,0.3-0.1,0.6,0,0.9c0-0.1,0-0.1,0.1-0.1c0,0.1,0,0.1,0,0.2c0,0,0-0.1,0.1-0.2c0,0,0,0.1,0.1,0.3
				c0,0.1,0.1,0.3,0.1,0.3l0-0.2c0,0,0.1,0.1,0.2,0.2c0.2,0.1,0.3,0.2,0.3,0.2c0.5-0.5,0.9-1.3,1.6-1.5c-0.2,0.4,0,0.6,0,1.1
				c-0.2-0.5-0.6,0.2-0.9,0.1c0.2,0.1,0.2,0.3,0.1,0.3l0.7-0.4c0,0.4,0.1,0.3,0.3,0.4c-0.1-0.7,0.5-0.5,0.8-0.7c0,0.2,0,0.5-0.4,0.4
				c0.4,0.6,0.5-0.9,0.8-0.4c-0.1,0-0.1,0-0.2,0.1c0.2-0.2,0.7,0,0.6,0.2l-0.1,0c0.5,0.1,1.7,0,1.7-0.6c0,0.1-0.1,0.8-0.1,0.9l1-2.1
				c-0.1,0.5,0.2,1.8-0.2,2.1c0.1,0.1,0.3,0.2,0.6,0c-0.1-0.1-0.2-0.8-0.1-0.8c0.3,0.6,0.2,0.3,0.6,0.8c-0.1-0.1,0-1,0.2-0.9
				c0,0.1,0,0.8-0.1,0.9c0,0,0.4-0.8,0.4-0.8c-0.1,0.2-0.1,0.7-0.1,0.9c0-0.2,0.2,0,0.3-0.1c0,0,0-0.2,0-0.2
				c0.2,0.1,0.9-1.2,1.4-1.1c-0.2,0.2-0.8,1.1-0.8,1.2c0.3-0.3,1.2-1.3,2.3-1.9c0.2-0.1,0.4-0.1,0.5,0.1l-0.2,0.3
				c0,0,0.3,0.3,0.3,0.3c-0.5,0-1.2,0.2-1.9,0.6c-0.4,0.3-0.7,0.5-0.9,0.7c-0.1,0.2-0.2,0.3-0.1,0.3c-0.2,0.2-0.4,0.3-0.4,0.4
				c0,0,0,0,0,0.1l-0.1,0.2c0.5-0.4,0.5-0.2,0.9-0.5c0,0-0.1,0-0.3,0c-0.1,0-0.3,0.1-0.3,0.1c0.2-0.2,0.6-0.5,0.9-0.6
				c0.3-0.1,0.5,0,0.4,0.2c-0.2,0.2-0.9,0.4-1.1,0.6c0.2-0.1,0.3,0.1,0.2,0.2c0,0-0.3,0-0.3,0c-0.1,0.1,0.1,0.1,0.2,0.1
				c0.1,0,0.2,0.1,0,0.2c0,0.1-0.6,0.2-0.3,0.2c0.6-0.1,2.3-0.5,2.8-0.3c0,0-0.2,0.3-0.3,0.5c-0.2,0.2-0.4,0.4-0.5,0.4
				C69,84,68.4,83.5,68,83.6c0.1,0,0.3,0.1,0.4,0.2c-0.1,0.1-0.4-0.1-0.4,0.2c0.5,0,0,0.6,0.4,0.1c0.1,0.3-0.1,0.3-0.1,0.6
				c0.3-0.1,1.1,0.3,1.3,0.6c-0.1,0-0.3,0-0.4,0.1c0,0.6-0.3,0.9-0.3,1.4c-0.1,0-0.3,0.3-0.5,0.2c0.1,0.1,0.3,0.1,0.3,0.3
				c-0.4,0.3-0.1-0.4-0.6-0.1c0.3,0,0.4,0.4,0.6,0.7c0.5-0.1,0.1-0.5-0.1-0.8c0.6,0,1.3,0.4,1.6,1c0.2,0.4-0.4,0.2-0.3,0.3
				c-0.1,0.8,1.1,0.7,0.6,1.4c-0.4,0.3-0.8,0-1.1,0.1c-0.2-0.4,0.3-0.6,0.2-0.8l-0.2,0.3c-0.1-0.1-0.2-0.4-0.1-0.5
				C69,89.1,69.3,90.3,69,91c0.1,0.1,0.3,0.3,0.4,0.2L69.3,91c0.3-0.2,0.4,0.4,0.6,0.1c0.2,0.3,0.6,0.6,0.4,1l-0.5,0.1
				c0.1,0,0.3-0.3,0.1-0.4c0.2,0.2-0.6,0.6,0,0.8l0.3-0.3c0.2,0.3,0.7,0.6,0.6,1c0.5-0.2-0.1-0.1,0.5-0.3c-0.7,0.2,0-0.9-0.7-0.5
				c0.6-0.3,0.3-0.4,0.8-0.8c-0.2,0-0.3,0.1-0.2-0.2c0,0-0.1,0-0.1-0.1c0,0,0,0,0,0l0,0c0,0,0,0,0,0c-0.1,0.1-0.1,0.1-0.2,0.1
				c-0.3-0.1-0.3-0.6-0.5-0.8c0.1-0.2,0.2,0.1,0.3,0l-0.3-0.2c0.3,0,0.6-0.5,0.8-0.1l0-0.4c0.2-0.2,0.3-0.5,0.1-0.7
				c0.1-0.2-0.4-0.4-0.1-0.3L71,88.6l0.1,0c0-0.6-0.6-1.2,0-1.8c-0.1-0.2-0.2-0.4-0.1-0.7l0.3-0.1c-0.1-0.2,0.3-0.7,0-0.8
				c0.8-0.3,0.2-1.2,0.3-1.6l-0.4,0c0-0.1,0-0.1,0-0.2c0-0.1,0-0.2,0-0.3c0-0.3-0.1-0.5-0.2-0.8l-0.3,0.1c-0.1-0.2-0.1-0.5,0-0.9
				c0.1-0.4,0.2-0.8,0.2-1.2c0.1,0,0.1,0.2,0,0.4c0.3-0.5,0.3-0.8,0.2-1.1c-0.1-0.3-0.2-0.5-0.3-0.7c-0.4,0.1-0.7,0.1-0.8-0.1
				c-0.3,0.1-0.4,0.1-0.5,0c0,0,0,0,0.1,0c0,0-0.1,0-0.1,0c-0.1-0.1-0.1-0.1-0.2-0.2c0,0.1,0.1,0.1,0.1,0.2c-0.2,0-0.4,0-0.7,0.1
				l0.1-0.4c0,0,0,0-0.1,0c-0.2-0.1-0.3,0.2-0.3,0.4c-0.1,0.1-0.3,0.1-0.4,0.2c0-0.3-0.2-0.2-0.3-0.2c-0.2,0-0.3,0.1-0.4-0.2
				c-0.1,0.2-0.4,0.2-0.7,0.3c-0.3,0.1-0.4,0.2-0.5,0.6c0-0.1-0.1-0.1,0-0.1c-0.2-0.1-0.3-0.1-0.5,0L65.6,79l-0.4,0.6
				c-0.2-0.3-0.3-0.4-0.1-0.8c-0.5,0.5-0.4,0.2-0.9,0.7l0-0.3c-0.2,0-0.4,0.4-0.5,0.2c-0.4-0.6-1.8-0.1-2.8-0.6
				c0.2,0.9-0.4-0.4-0.5,0.3c-0.1-0.2-0.2-0.3,0-0.5c-0.5,0.2-0.7-0.3-1.1,0.2c-0.1-0.2,0.1-0.3,0.1-0.4c0,0-0.2,0.2-0.2,0.1
				c0-0.1,0.1-0.2,0.1-0.3c-0.3,0-0.4,0.2-0.5,0.4c-0.1,0.2-0.1,0.5-0.1,0.8c-0.3-0.3-0.6-0.2-0.7,0.1c-0.2-0.2-0.4-0.4,0-0.5
				c-0.2,0-1.7-0.3-1.4,0.2c-0.1-0.1-0.4,0-0.4,0c-0.5,0-0.6-0.1-1.1,0l0.2,0.1c0.1,0.2,0.1,0.3,0.1,0.3c0,0.2-0.1,0.2-0.1,0.5
				l-0.1-0.1c-0.2,0.3-0.2,0.4-0.1,0.6c0,0.1,0.1,0.2-0.2,0.6l0.4,0.1c0.4,0.2,0.3,0.3,0.1,0.5c-0.2,0.2-0.4,0.4-0.3,0.7l0.2-0.1
				c0.1,0.2-0.1,0.3-0.4,0.5c-0.3,0.2-0.7,0.4-0.7,0.5c-0.1,0-0.1-0.1-0.2-0.1c-0.5,0.6,0.5,0.1,0.6,0.5C54.4,83.9,54,83.7,54,84
				c-0.2,0.1,0.8,0.8,0.3,1.2c0.2-0.1,0.4-0.2,0.5,0c0.1,0.3-0.7,0.8-0.1,1.1c-0.1,0-0.1,0.1-0.2,0.1c0.2,0.2,0.3,0.8,0.6,0.9
				c-1.2,0.2,0.6,1.5-0.5,1.5l0.1,0.7l-0.1,0c-0.1,0.5,0.2,0.6,0.5,0.8c-0.1,0.1-0.2,0-0.2,0c-0.2,0.7-0.2,0.7,0.4,1.3l-0.4,0.1
				c0.2,0.2-0.6,1-0.1,1.6c0,0-0.1,0-0.2-0.1c0.4,0.7-1,1.8,0.3,2.1l0.3,0.5c0.1-0.6,0.6,0.1,0.8-0.2c0.1,0.3-0.4,0.6-0.5,0.3l0.1,0
				c-0.7-0.1-0.2,0.8-0.7,0.8c0,1.3-0.4,2.5-0.4,3.7l0.5-0.1l0,0.4c-0.1,0.1-0.4,0.1-0.4-0.1c-0.3,0.2,0.3,0.5,0.4,0.5
				c-0.2,0.6-0.6-0.2-0.6,0l0,0.2l0.1-0.1c0.2,0.2,0.5,0.2,0.4,0.6c-0.1,0.3-0.3,0.2-0.4,0.3c0,0-0.1,0.1,0,0.2l0,0.8
				c0,0,0.1-0.1,0.2-0.2c0.1-0.1,0.2-0.2,0.2-0.2c0.2,0.3,0,0.7,0.5,0.2c-0.3,0.3-0.4,0.9-0.4,1.5c0,0.6,0,1.1,0,1.5
				c0.1,0,0.2,0,0.2,0.1c0.7-0.3,1.1-0.3,1.6-0.3c-0.1-0.1,0.2-0.6,0.5-0.5c-0.3,0.5-0.2,0.6,0.1,0.7c0.3,0.1,0.6,0.1,0.7,0.5
				c-0.3-0.5,1.4-0.1,0.9-0.8c0.3,0.1,0,0.4,0.2,0.6c0.7-0.4,1.5,0.3,2.3,0.1c0-0.1-0.1-0.3,0.1-0.5l0.4,0.7
				c0.2-0.1,0.2-0.8,0.5-0.3c0-0.1-0.1-0.3,0-0.3c1.6,0.6,3.3-0.5,5,0.7c-0.2-0.3-0.1-0.3,0.1-0.3c-0.1-0.1,0-0.3,0-0.5l0.7,0.5
				c0.1-0.5,0.7,0,0.8-0.5l-0.2,0.1c0.3-0.6-0.4-1.2-0.4-1.9c-0.3,0.6-0.9-0.9-1.4,0c-0.1-0.1,0.1-0.2,0-0.4
				c-0.1,0.3-0.3,0.4-0.6,0.2l0-0.1c-0.9,0.1-1.2-0.2-2.2-0.4l0.1,0.4c-0.2,0-0.2-0.2-0.3-0.2c-0.2,0.5,0.6,0,0.4,0.6
				c-0.3-0.7-1.5,0-1.6-0.8c-0.3,0,0.1,0.4-0.2,0.4l-0.1-0.2l-0.1,0.3c-0.2,0-0.3-0.3-0.3-0.5c0.1,0,0.1-0.1,0.2-0.1
				c-0.3-0.3-0.8,0.1-0.9,0l0.3,0.1c-0.9,0.2-1.9-0.1-2.7,0.4c0,0,0,0.2,0,0.2c-0.4,0.3-0.3-0.2-0.7,0l0,0c-0.1,0.2-0.3,0.2-0.4,0.2
				c0.2-0.2,0-0.4,0.3-0.6c-0.3,0.2-0.4,0.2-0.5,0.3c-0.1,0.1-0.2,0.2-0.7,0.5l0.2-0.3c-0.2,0.1-0.3,0.2-0.4,0.3
				c-0.1,0-0.1,0-0.2-0.1c0.2,0,0.4-0.5,0.7-0.6c0.3-0.5,0.1-0.4,0-0.5c-0.1,0-0.2-0.1,0.2-0.4c-0.8,0.1-0.4,0.6-0.6,0.5
				c-0.2,0.3-0.6,0.1-0.5-0.1c0-0.2,1-0.6,1-0.9c0,0,0.1,0,0.1,0.1c0.1-0.1,0-0.1,0-0.2c-0.1-0.1-0.1-0.2,0.1-0.4
				c-0.5-0.2,0-0.4-0.6-0.4l0.1,0.5c-0.2-0.3-0.8-0.6-0.5-1.1c0.1,0,0.3,0.2,0.4,0.3c0.2-0.1-0.1-0.3,0.1-0.4c0.6,0,0.1,0.7,0.6,1
				c0.2-0.2-0.4-0.6,0.2-0.5c-0.8-0.2,0.1-0.6-0.5-1l0.4,0c-0.1-0.1-0.2-0.2-0.2-0.3l0.5,0.2c-0.4-0.3,0.3-0.6,0.1-0.9
				c0,0.6-0.4,0.1-0.7,0.4c-0.5-0.8,0.9-0.5,0.8-1.4c0,0.1-0.2,0.5-0.4,0.3c0.1-0.2,0.2-0.4,0.4-0.5c-0.1-0.6-0.4,0.1-0.6-0.2
				c0.4-0.2-0.2-0.3-0.3-0.6l0.4,0c0.2-0.7-0.7-0.2-0.5-0.8l0.5,0.3L57.6,96l0.4,0.1c-0.3-0.3-0.2-0.5-0.1-0.8
				c-0.3,0.1-0.7,0-0.7-0.3c0.2-0.2,0.3,0.1,0.3-0.3c0.2,0.1,0.5,0.2,0.2,0.4c0.1,0,0.2,0.1,0.3,0.1c0.2-0.2,0.1-0.6,0.1-0.7
				c0,0.1,0,0.1-0.1,0.2L57.5,94c0.1-0.1,0.2,0,0.3,0.1c0-0.1-0.2-0.2-0.2-0.4c0.3,0,0.6,0,0.7,0.3L58,93.4c0.1,0,0.3-0.3,0.5-0.2
				c0.2-0.3-0.6-0.8-0.3-1.2c-0.1,0-0.1-0.1-0.2-0.2c0.1-0.4,0.4-0.8,0-1.2l0.5-0.3c-0.1-0.4-0.7,0.4-0.9-0.3
				c-0.2-0.4,0.4-0.2,0.6-0.3c-0.3-0.2-0.8-0.6-0.4-1C58,88.8,57.9,88.9,57.9,89z M57.7,84.4c0.1,0.1,0.3,0.3,0.1,0.3
				C57.4,84.6,57.6,84.5,57.7,84.4z M59.1,81.1c-0.1,0.1-0.2,0.1-0.3-0.1C58.9,81,59,81,59.1,81.1z M71,89.8
				C71,89.8,71,89.8,71,89.8C71.1,89.6,71.1,89.7,71,89.8z M70.8,90.3c0,0,0.1,0,0.1,0c-0.1,0-0.1-0.1-0.1-0.2
				C70.8,90.1,70.8,90.1,70.8,90.3z M54.6,102.1l0.1-0.1C54.8,102.2,54.7,102.2,54.6,102.1z"/>
			<path class="st3" d="M58.6,81.6c0-0.1,0-0.1-0.1-0.2C58.5,81.5,58.5,81.5,58.6,81.6z"/>
			<path class="st3" d="M58.1,91.9L58.1,91.9C58.1,91.9,58.1,91.9,58.1,91.9L58.1,91.9z"/>
			<path class="st3" d="M67.8,83.8c0.1-0.1,0.1-0.1,0.2-0.2C67.9,83.6,67.8,83.7,67.8,83.8z"/>
			<path class="st3" d="M71.5,92.5l-0.1-0.3c0,0.1-0.1,0.2-0.1,0.2C71.3,92.4,71.5,92.4,71.5,92.5z"/>
			<path class="st3" d="M69.2,94.8c0,0,0,0.1,0,0.1l0.2,0C69.4,94.7,69.3,94.6,69.2,94.8z"/>
			<path class="st3" d="M70.3,92.7c-0.3,0-0.2,0.2-0.1,0.4c0,0,0,0,0,0C70.5,93.1,70.4,92.9,70.3,92.7z"/>
			<path class="st3" d="M70.1,93.1c0,0.1,0,0.1,0,0.2C70.3,93.3,70.2,93.2,70.1,93.1z"/>
			<path class="st3" d="M71,90.8c-0.1,0.1,0.4,0.1,0.3,0.1C71.7,91,70.8,90.3,71,90.8z"/>
			<polygon class="st3" points="69.3,92.9 69.6,92.8 69.3,92.7 			"/>
			<path class="st3" d="M69.5,91.4l-0.1,0.3c0.1,0,0.1,0,0.1,0.1C69.6,91.6,69.7,91.4,69.5,91.4z"/>
			<path class="st3" d="M69.6,91.8c0,0.1,0,0.2,0.1,0.2C69.6,91.9,69.6,91.8,69.6,91.8z"/>
			<polygon class="st3" points="69.2,92.4 69.2,92.4 69.3,92.1 			"/>
			<path class="st3" d="M69.6,88.2l-0.1-0.3c-0.1,0-0.2,0.1-0.2,0.2C69.4,88.1,69.5,88.2,69.6,88.2z"/>
			<path class="st3" d="M68.6,89.2c0.1-0.1,0.2-0.1,0.3-0.1l-0.5,0L68.6,89.2z"/>
			<path class="st3" d="M68.5,88.2c-0.1,0-0.4-0.5-0.3-0.1C68.3,88.2,68.4,88.5,68.5,88.2z"/>
			<polygon class="st3" points="69.1,83.3 69.1,83.4 69.8,83.4 			"/>
			<path class="st3" d="M66.8,82.4c0,0.2,0.3-0.5,0.3-0.2c0.2-0.2,0-0.2,0.1-0.3C67,82,67.1,81.9,66.8,82.4z"/>
			<path class="st3" d="M67.3,81.8c0,0,0.1-0.1,0.1-0.1C67.3,81.7,67.3,81.8,67.3,81.8z"/>
			<polygon class="st3" points="68.6,106.4 68.8,106.6 68.7,106.3 			"/>
			<path class="st3" d="M69.1,105.9l0.1,0.5l0.1-0.4C69.2,105.9,69.1,106,69.1,105.9z"/>
			<path class="st3" d="M58.7,83.7l-0.1,0c-0.1,0-0.1,0.1-0.2,0.2L58.7,83.7z"/>
			<polygon class="st3" points="58.3,87 58.3,87 57.9,87.1 			"/>
			<path class="st3" d="M58.9,89.9c0-0.1-0.1-0.3-0.1-0.4C58.9,89.8,58.3,89.9,58.9,89.9z"/>
		</g>
		<g>
			<path class="st3" d="M88.7,18.3c-0.1,0.1,0,0.2,0.3,0.2l0.2-0.2L88.7,18.3z"/>
			<path class="st3" d="M89.4,20.2c0.1,0.4,0.3,0.8,0.6,0.5c-0.2-0.4-0.1-0.4-0.4-0.8c0-0.3,0.1-0.5,0.2-0.5
				c-0.1-0.1,0.1-0.5-0.1-0.6c-0.2,0.4-0.2,0.9,0,1.4C89.5,20.4,89.4,20.3,89.4,20.2z"/>
			<path class="st3" d="M64.4,25.1l0.2,0C64.6,25.2,64.5,25.2,64.4,25.1z"/>
			<path class="st3" d="M45.7,25c0.1,0,0.2,0,0.2-0.1C45.8,25,45.7,25,45.7,25z"/>
			<path class="st3" d="M42.5,24.7c0.1,0,0.1,0,0.2,0C42.6,24.7,42.6,24.7,42.5,24.7z"/>
			<path class="st3" d="M64.4,25.1l-0.5-0.1C63.9,25.1,64.2,25.1,64.4,25.1z"/>
			<path class="st3" d="M90,24.5c0-0.2,0-0.3-0.1-0.3C89.9,24.2,89.9,24.3,90,24.5C90,24.5,90,24.5,90,24.5z"/>
			<path class="st3" d="M72.7,24.9l0.2,0c0,0,0.1-0.1,0.1-0.1L72.7,24.9z"/>
			<path class="st3" d="M79,24.9c-0.1,0-0.2,0.2-0.2,0.3c0.1-0.1,0.2-0.1,0.3-0.1C79.1,25,79,25,79,24.9z"/>
			<path class="st3" d="M88.9,25.3l0.1,0C89,25.3,88.9,25.3,88.9,25.3z"/>
			<path class="st3" d="M68.1,24.9C68.1,24.9,68.1,24.8,68.1,24.9C68.1,24.9,68.1,24.9,68.1,24.9z"/>
			<path class="st3" d="M89.7,11.5C89.7,11.5,89.7,11.5,89.7,11.5C89.7,11.5,89.7,11.5,89.7,11.5z"/>
			<path class="st3" d="M88.7,18.8l0-0.1c0,0-0.1,0-0.1,0L88.7,18.8z"/>
			<path class="st3" d="M36.7,24.5C36.7,24.5,36.7,24.5,36.7,24.5C36.9,24.5,36.8,24.5,36.7,24.5z"/>
			<path class="st3" d="M49.7,11.1c-0.6-0.2,1-0.2,0.1-0.4C49.9,10.7,49,10.9,49.7,11.1z"/>
			<path class="st3" d="M90,24.7c0,0.1,0,0.3,0,0.4C90,24.9,90,24.8,90,24.7z"/>
			<path class="st3" d="M49.8,10.6L49.8,10.6L49.8,10.6C49.7,10.6,49.8,10.6,49.8,10.6z"/>
			<path class="st3" d="M33.8,16.4c0,0-0.1,0.1-0.1,0.1C33.8,16.5,33.8,16.5,33.8,16.4z"/>
			<path class="st3" d="M33.5,24.9l-0.1,0C33.5,24.9,33.5,24.9,33.5,24.9z"/>
			<path class="st3" d="M33.5,11.3c0-0.1,0-0.1,0-0.2c0,0,0,0,0,0C33.6,11.2,33.6,11.2,33.5,11.3z"/>
			<path class="st3" d="M37.4,10.8C37.3,10.8,37.3,10.8,37.4,10.8c-0.2,0-0.2,0-0.3,0L37.4,10.8z"/>
			<path class="st3" d="M78.8,16.4c0.1-0.1,0.1-0.2,0.2-0.3C78.9,16.2,78.8,15.4,78.8,16.4z"/>
			<path class="st3" d="M89.9,24.5c0.1,0.1,0.1,0.1,0.1,0.3C90,24.6,90,24.5,89.9,24.5C89.9,24.4,89.9,24.4,89.9,24.5z"/>
			<path class="st3" d="M31.9,10.6l0-1.4l0.2,0c0,0-0.1,0-0.2,0C31.9,9.6,31.9,10.1,31.9,10.6z"/>
			<path class="st3" d="M67,13l0,0.2C67.1,13.2,67.1,13.1,67,13z"/>
			<path class="st3" d="M35.6,9.2c0.2,0.1,0.3,0.1,0.5,0.1c0,0,0.1,0,0.1-0.1L35.6,9.2z"/>
			<path class="st3" d="M79,16.1L79,16.1L79,16.1z"/>
			<path class="st3" d="M78.5,9.5c0,1.6,0.3,0.9,0.4,1.2c0,0.4,0,0.7,0,0.7c0,0.1,0,0.1-0.1,0.1c-0.1,0-0.2,0-0.3,0.2
				c0.1,0.6,0.3,1.1,0.3,1.5c0,0-0.1,0.1-0.1,0c0.2,0.6,0,1.9,0.3,2.7c0,0.1,0,0.1-0.1,0.1c0.1-0.1,0.3-0.1,0.4-0.1
				c0,0.4,0.2,0.7,0,0.8c0-0.2-0.1-0.2-0.1-0.3l0.1,0.4c-0.3,0.3-0.1-0.5-0.3-0.5c0,0.4,0.1,0.8,0.2,1.2c0.1,0.3,0.1,0.5,0.1,0.7
				c-0.3-0.2-0.1-0.8-0.3-0.5c0,0,0,0,0-0.2c0-0.2,0-0.4,0-0.4c-0.4,0.7,0-0.5-0.4,0.1c0,0.2,0,0.3,0,0.4c0,0,0,0,0,0.1
				c0,0,0,0.1,0.1,0.2c0.1,0,0.2,0,0.4,0c0,0,0.1,0,0.1,0c-0.2,0-0.4,0-0.6,0c0-0.1,0.1-0.1,0.2-0.1c0.2,0.1,0.1,0.2,0.1,0.2
				c0,0.1,0,0.1,0,0.2l0,0c0,0-0.1,0-0.2,0l-0.2,0l-0.1,0l0,0l0,0c0,0,0,0,0.1,0c0-0.3,0.2-0.5,0.3-0.5l0.1-0.1c0,0,0,0,0-0.1
				c0-0.2,0-0.3-0.1-0.6c-0.2-0.3-0.5-0.4-0.3-1.3l0.3,0.3c0-1.1-0.4-0.6-0.2-1.8c0.1,0.2,0.1,0.9,0.1,0.7c0.2-0.8-0.2-0.5-0.2-1.1
				l0.3-0.1c0-0.5-0.1-1.1-0.1-1.6l0-0.4l0-0.6c0-0.4,0-0.9-0.1-1.3c-0.3,0-0.6,0-0.9,0c0.1-0.1,0.6-0.2,0.1-0.2c-0.4,0-0.7,0-1.1,0
				c-0.2,0-0.4,0-0.7,0c-0.4,0-0.9,0-1.3,0c-0.9,0-1.8-0.1-2.6-0.2l-0.6,0.2c-0.1,0-0.3-0.1-0.1-0.1c-0.6-0.1,0,0.1-0.3,0.2
				c-0.4,0-0.5-0.1-0.2-0.2c-0.1,0-0.3,0-0.4,0.1c-0.2,0-0.3,0-0.6,0.1c-0.5,0-1.1,0.1-1.6,0.1c0,0.4,0,0.7,0,1.1c0,0.3,0,0.6,0,1
				c0,0.4,0,0.8-0.1,1.1l-0.1-0.2c-0.1,0.9,0.4,1,0.2,1.9l0-0.2c0,0.8,0,1.6,0,2.4c0,0.4,0,0.7,0,1.1c0,0.2,0,0.3,0,0.5
				c-0.2,0-0.4-0.1-0.5-0.1c0,0,0,0.1,0,0.1c0,0-0.1,0-0.2,0c-0.1,0-0.1,0-0.2,0c-0.1,0-0.1,0-0.1,0c-0.1,0-0.2,0-0.4,0
				c0-0.1-0.1-0.1-0.2,0c0.1-0.2,0.1-0.3,0.1-0.4c0,0,0-0.1,0.1-0.1l0.1-0.2c0.1-0.3,0.1-0.6,0.2-1.4c0-0.4-0.3-0.6-0.3-1.2l0.2,0
				l-0.2-0.7l0.3-0.4l-0.1-0.5c0,0.2-0.1,0.4-0.2,0.4c-0.1-0.8,0.2-1.9,0.3-1.9l0-0.2c0-0.1,0-0.1,0-0.2l0-0.7L67,9.4l-0.6,0
				c0.1-0.1,0.4-0.1,0.7-0.1c0,0.1,0,0.3,0.1,0.4c0-0.2,0-0.3-0.1-0.4c-1,0.1,0.2-0.3-1.4-0.1c0.2,0.1-0.2,0.1-0.2,0.2
				c-0.1,0-0.2,0-0.3,0c-0.1,0-0.2,0-0.3,0c-0.2,0-0.4,0-0.6,0c-0.4,0-0.8,0-1.2,0l0.1-0.2c-1.4,0-2.9,0.1-4.4,0.1
				c0.5,0.1,0.4,0.3,0,0.4l-0.2-0.2c-0.3,0.1,0.5,0.1-0.1,0.3c-0.1,0-0.3,0-0.4-0.1C58,9.5,58,9.5,58,9.5c0,0,0.1-0.1,0.1-0.1
				c0.1,0,0.3-0.1,0.3-0.1l-1.1,0.1c-0.1-0.1,0.2-0.1,0.2-0.2c-0.2,0.1-0.8,0-1.4,0c0,0.6-0.1,1.2,0,1.7l-0.1,0.1c0,0.5,0,0.9,0,1.3
				c0,0.3,0,0.6,0,0.8c0,0.5,0,1,0.1,1.6c0.2,0,0.2,0.5,0.3,0.9c0,0.5-0.1,0.9-0.1,1.4c0,0.2,0,0.5-0.1,0.7c0,0.1,0,0.1,0,0.2
				c0,0.1,0,0.1,0.1,0.1c0,0.1,0.1,0.1,0.1,0.2c-0.2-0.2-0.5-0.2-0.4-0.3c0,0-0.1,0-0.1,0c-0.1,0-0.2,0-0.3,0c-0.1,0-0.2,0-0.3,0
				l-0.1,0c0,0,0,0-0.1,0c-0.1,0-0.2,0-0.4,0.1c0,0-0.1-0.1-0.1-0.4c-0.1,0.1-0.1,0.2-0.2,0.2c0,0,0-0.1,0-0.1c0-0.1,0-0.1,0-0.2
				c0-0.1,0.1-0.2,0.1-0.2l0,0.1c-0.3-1.9,0.6-4.3,0.2-5.8l0,0.1c0-0.2-0.1-0.7-0.1-1l-0.1-1.1l-0.2,0c-0.5,0-0.4-0.1-0.1-0.1
				c0.2,0,0.6-0.1,0.2-0.2c-0.4,0-0.8,0.1-1.1,0.1c-0.3,0-0.6,0-0.8,0c-0.3,0-0.7,0-1,0c-0.6,0-1.2-0.1-1.9,0
				c-0.5-0.3-1.3-0.3-2.2-0.2c-0.4,0-0.9,0-1.3,0c-0.7,0-1.5,0-2.3,0c0,0.3,0,0.5-0.1,0.8l0.1-0.1c0.1,0.7-0.1,0.8-0.1,1.3
				c0.1-0.1,0.1-0.7,0.2-0.3c0,0.4,0,0.8,0,1.2c0,0.3,0,0.6,0,0.9c0,0.6,0,1.3,0,1.9c0,0.6-0.1,1.3-0.1,1.9l0,0.5l0,0.2c0,0,0,0,0,0
				c0,0,0,0.1-0.1,0.1c0,0-0.1,0-0.1-0.1c0.1,0-0.7,0-0.7,0c0,0-0.1,0.2-0.3,0.3c-0.1,0.1-0.2-0.1,0-0.3c0,0,0.2,0,0.2,0
				c0,0,0,0,0,0c0,0,0-0.1,0-0.2l0-0.2c0-0.3,0-0.6,0-0.9c0-0.6,0-1.2,0-1.8c0-0.6,0-1.2,0-1.8c0-0.3,0-0.6,0-0.9
				c0-0.4,0-0.8-0.1-1.2c0.1,0.2,0.1,0.2,0.1,0.6c0.1-0.4,0.1-1.3,0.1-2c-0.8,0-1.4,0.1-1.5,0.2c-0.6,0-0.1-0.1-0.5-0.2
				c-0.1,0-0.3,0-0.3,0c-0.1,0-0.1,0-0.2,0c-0.1,0-0.3,0-0.4,0.1c-0.3,0-0.5,0.1-0.7,0c0,0,0.1-0.1,0.2-0.1c-0.3,0.1-1.5,0-1.2,0.2
				c-0.9-0.1-1.7,0.1-2.4,0c-0.5,0.2-1.5-0.1-1.6,0.2c0-0.1,0-0.1-0.1-0.1c0,0-0.1,0-0.2,0c-0.1,0-0.2,0-0.3,0c-0.5,0-1.2,0-1.8,0
				c0,0.5,0.1,0.9,0.1,1.1C32,10,32,11.2,31.9,10.8c0,0.7,0,0.9,0.1,1.1c0,0.2,0.1,0.3,0.2,0.3c-0.4,1.2,0.3,2.3-0.2,3
				c0.1,1.3,0.2,2.5,0.3,3.6l0.7-0.7c-0.1,0-0.2,0-0.3,0l-0.7,0l0,0.6c0,0.5,0,0.9,0.1,1.4c-0.2,0-0.2-0.9-0.2-1.4L31.7,18l0.9-0.1
				c0.1,0,0.2,0,0.3-0.1l-0.9,0.9c0-0.1-0.1-0.1-0.1-0.1c0,0,0,0.1,0,0.1l1-1c-0.1,0-0.2,0-0.3,0l-1.1,0.1l0.1,0.8
				c0.1,1.4,0.4,2.3,0.3,3.7c0,0.4-0.1-0.2-0.2-0.4c0.1,0.6,0.1,1.2,0.1,1.7c0,0.8,0,1.6,0,2.4c0.7,0,1.3,0,1.9-0.1
				c0,0-0.3,0.1-0.5,0.1c0.2,0,0.5,0,0.7,0c0.1,0,0.2,0,0.2-0.1l-0.3,0c-0.2-0.1-0.1-0.1,0-0.2c0.1-0.1,0.2-0.1,0.4-0.2
				c0.3-0.1,0.7-0.2,0.8-0.3c-0.5,0.4,1.4,0.1,0.6,0.7c0.2,0,0.4-0.1,0.4-0.2c0.3,0,0.4,0.1,0.1,0.2c1-0.1,0.6-0.2,1.6-0.2
				c0,0.1-0.2,0.1-0.3,0.2c0.5-0.1,0.9-0.3,1.7-0.2c0,0,0,0.1-0.2,0.1c1.3,0,2.3-0.4,3.7-0.2c-0.4,0.3,0.5,0.1,0.6,0.4l0.8-0.1
				l-0.3-0.1c0.7,0,1.3-0.2,1.9-0.1L45,26.1l1.3-0.1l-0.7-0.1c0.7-0.1-0.1-0.4,0.8-0.3c-0.2,0,0.7,0,1,0.2l0,0
				c0.3-0.1,0.7-0.2,1.2-0.1c0.1,0.1-0.1,0.3,0,0.4c0.3-0.2,1.6-0.1,2-0.3c-0.1,0.1-0.1,0.2-0.1,0.2l0.3-0.2
				c0.3,0.1,0.4,0.1,0.3,0.2c1,0-0.3-0.4,0.8-0.2c-0.1,0,0,0-0.2,0.1c1.1,0.1,2.2-0.1,3.2,0c0.3,0.3-0.9,0.1-0.6,0.3
				c1.5-0.1,3.1-0.3,4.6-0.3l-0.3,0c0.2-0.4,1.1,0.2,1.8,0c-0.2,0-0.2,0.2-0.2,0.2c1,0.1,2-0.1,3.5-0.2l-0.2,0.1
				c0.6,0.1,1.5,0.1,2.2,0.1c0.2-0.1,0.6-0.1,0.3-0.2c2,0.6,3.7-0.3,5.5,0.2c-0.2,0-0.5,0.1-0.3,0.1l1.5-0.1
				c-0.1-0.2-0.2-0.1-0.5-0.2c0.2-0.1,0.6-0.2,1-0.2c-0.7,0.1,0,0.3,0.3,0.4c0-0.1,0.1-0.1,0-0.2c0.8,0.3,0.1-0.3,1.2-0.1l-0.1,0.1
				c0.4,0,0.8-0.2,1.2-0.1c0.2,0.2-0.4,0.1-0.4,0.3c0.6,0,1.2-0.4,1.7-0.2c-0.3,0.1-0.6,0.1-0.9,0.1c0.6,0.2,0.7,0.2,1.1,0.2l0,0
				l1,0.1L78.1,26c0.7-0.5,1.5-0.1,2.5-0.4c-1,0.3-0.2,0.2-0.2,0.4c0.3,0.1,0.6,0.1,0.5,0.2c0.5-0.2,0.8,0.1,1.5-0.1
				c0,0.1,0.5,0,0.4,0.2c0.6-0.1-0.1-0.1-0.1-0.2c1-0.2,2.2,0.3,3.6,0c1.2-0.1,1.4-0.4,2.5-0.5c0.2,0.1,0.2,0.1,0.1,0.2
				c-0.1,0.1-0.3,0.1-0.3,0.1c0.4,0.1,0.8,0.1,1.1,0.1c0-0.3,0-0.6-0.1-0.9c0.1,0.2,0.1,0.1,0.2-0.2c0-0.6-0.3-0.4-0.2-1
				c0.1,0.1,0.2,0.2,0.3,0.5c-0.1-0.5-0.2-1.1-0.3-1.6c0.1-0.1,0.2,0.3,0.3,0.5c-0.1-0.6-0.1-1.6-0.3-1.8l-0.1,0.4
				c0-0.2,0.2-0.1,0.2,0.1c0.2,0.5-0.1,0.8-0.1,0.8l0-0.4c-0.4,0.4,0.1,1.5,0,2.4c0,0-0.3-0.4-0.3-0.4c0,0,0.1,0.2,0.1,0.4
				c0.1,0.3,0.1,0.5,0.1,0.5c-0.1,0.2-0.3,0.1-0.3-0.3c-0.1,0.3,0,0.4,0,0.6c-0.1,0-0.2,0-0.4-0.1c-0.1,0-0.1,0,0-0.1l-0.4,0.1
				c0.1-0.1-0.1-0.2,0.1-0.2c-0.2,0-0.3-0.1-0.5,0c-0.2,0-0.4,0-0.5,0.1c-0.3,0.1-0.6,0.1-0.8,0l0.1,0c-1.4,0.1-0.1,0.2-1.2,0.5
				L85,25.1l-0.1,0.2c-0.1,0-0.4,0-0.4-0.1c-0.5,0.2,0.1,0.1-0.2,0.2c-0.7-0.2-1.9,0.1-2-0.3c-0.2,0.2,0.7,0.1-0.1,0.3
				c-0.2-0.4-0.8,0.1-1.5-0.1c0.2-0.2,0.8-0.1,0.2-0.3c-0.4,0.3-1.2-0.1-1.7,0c0,0.3-1.1,0.1-2,0.2c0.1-0.1-1.7-0.1-2.5-0.2l0,0
				c-0.2,0.3-1,0.2-1.6,0.3c0-0.2,0.1-0.2,0.5-0.3l-0.6,0c-0.1,0.1-0.3,0.1-0.7,0.2l0.1-0.2c-0.8,0-1.6,0.2-2.6,0.1
				c-0.1,0.2,0.8,0.5-0.3,0.7c0-0.1-0.1-0.3,0.2-0.3c-0.1,0-0.3,0.1-0.5,0l0.4-0.2c-0.5-0.1-0.2,0.1-0.6,0.1c0-0.1-0.3-0.1-0.2-0.2
				c0.1,0,0.3,0.1,0.5,0c-0.4,0-0.9-0.1-1.1-0.2c0,0.1,0,0.2-0.3,0.2c-0.8,0-0.3-0.2-0.7-0.3c-0.2,0.1-0.7,0-0.7,0.2
				c-0.2,0-0.3-0.1-0.4-0.2c-0.4,0.1-1.9,0-1.4,0.3l0.1,0c0,0,0,0-0.1,0h0h0c-1.3,0.2-2.7-0.1-4,0l0-0.1c-0.8,0.1-1.7,0-2.3,0.2
				c-0.2,0-0.5-0.1-0.4-0.2c-0.6,0.1-0.7,0.1-1.5,0C57,25,56.2,25,57,25c-0.8-0.1-0.9-0.2-1.8,0c0.3-0.2-0.6-0.2-0.9-0.2l0.5,0.1
				c-0.4,0-0.8,0-1.1,0l0.2-0.2c-1.6-0.3-2.9,0.5-4.1,0c-0.4,0.2,0.9,0.1,0.5,0.3c-0.7,0-1.5-0.4-1.7-0.4c-1-0.1-0.9,0.4-2,0.3
				c0.1,0.1,0.3,0.3-0.5,0.4c-0.7,0-0.9-0.4-0.4-0.4c0.2,0,0.3,0,0.3,0.1c0.2,0,0.5-0.1,0.3-0.2l-0.1,0.1c-0.4-0.1-1.4-0.1-1.1-0.2
				c-0.5,0.1-0.2,0.1,0.2,0.2c-0.9-0.1-1.5,0-2.4-0.1c0.2,0,0.3,0.2,0.1,0.2c-1.4-0.1-0.6,0.2-1.6,0.2c-0.5-0.1,0.2-0.3-0.8-0.2
				c-0.6-0.1-0.1-0.2,0.1-0.3c-0.9,0.2-1.6-0.1-2.1-0.1l0.5-0.1c-0.3,0-0.5,0-0.7,0l0.3,0.2c-0.3,0-0.5,0-0.5-0.1
				c-0.3,0.1,0.2,0.3-0.3,0.5c-0.4-0.1-1.1,0.1-1.2-0.1c1.1,0.1-0.1-0.2,0.8-0.3c-0.2,0-0.4,0-0.7,0c0,0,0,0,0.1-0.1
				c-1.1-0.2-0.5,0.3-1.6,0.3c0.1-0.1-0.3-0.3-0.4-0.2c0.5,0,0.2,0.2-0.2,0.3c-0.8-0.1-0.6,0.1-0.9,0.1l0.2,0
				c-0.1,0.1-0.3,0.1-0.7,0.2c0.1-0.1,0.3-0.1,0.3-0.1c-0.1,0-0.2,0.1-0.3,0.1c0-0.2,0.1-0.4,0.1-0.5c0-0.1,0.1-0.1,0.1-0.3
				c0-0.2,0-0.3,0-0.5c0.1-0.4,0.2,0,0.3-0.4c-0.2-0.9,0.2-0.9,0-1.9c-0.2,0.3-0.1,0.3-0.3-0.3l0.1,1.5l-0.3-1c0,0.5,0.1,1,0.1,1.2
				c-0.1-0.5-0.1-0.4-0.2-0.2c0.3-0.6-0.2-1.2,0-2l0.4,0c0.1-0.7,0-1.3-0.1-2.1l-0.7,0.7c0.1,0,0.2,0,0.3,0l0.7-0.1l0-0.6
				c0-0.3,0-0.6,0-0.9l-0.1,0.5c-0.2-0.2,0-0.9-0.1-1.3c0.1,0,0.2-0.2,0.3-0.4c-0.1,0,0-1-0.3-1.2l0.2-0.6c0.1-1.1-0.4-1.3-0.4-2.4
				c0.2,0.3,0.3-0.2,0.4,0.6c0-0.4,0-0.7-0.1-0.7c0-0.1,0-0.4,0-0.6c0-0.1,0-0.2,0-0.3c0-0.1,0-0.1,0-0.2c-0.1-0.1-0.2-0.2-0.2-0.5
				c0,0,0.1,0.1,0.1,0.1c0,0,0,0,0-0.1c0,0,0.3-0.1,0-0.2c0.3,0.1,0.6,0.2,0.8,0.2c0.3,0,0.7,0,1.1,0c0.8,0,1.5,0,2,0.2
				c0.8,0,1.8-0.1,2.5-0.1c0,0,0,0.1-0.1,0.1c0.5,0.1,0.7,0,0.8-0.1c0.2-0.1,0.4-0.2,0.8-0.1c0.3,0.2-0.5,0.1-0.3,0.2
				c0,0.2,0.1,0.2,0.4,0.2c0,0.2,0.1,0.4,0,0.6c0,0,0-0.1,0-0.1c0,0,0,0,0,0c0,0,0,0,0,0l0,0.1c0,0.1,0,0.2,0,0.3
				c0,0.2,0,0.4,0.1,0.6c0.1,0.4,0.1,0.8,0.1,1.3c0,0,0,0-0.1,0c0.2,0.7,0.3,1.9,0.4,2.8c-0.2-0.3-0.1-0.4-0.3-0.2
				c0,0.4,0.3-0.1,0.4,0.7c-0.1,0.1-0.1,0.3-0.2,0.5c-0.1,0.2-0.1,0.5-0.2,0.5l0-0.9c-0.1,0.1-0.1,0.2-0.1,0.3c0,0.1,0,0.1,0,0.2
				l0,0.3c0,0.4,0.1,0.7,0.1,1.1l-0.1,0c0,0.2,0,0.4,0,0.5c0.7,0,1.1-0.1,1.5-0.2c0.5-0.1,0.6-0.1,1.3-0.1L44,19.1
				c0.4-0.1,0.5-0.1,0.7-0.1c0.2,0,0.4,0.1,0.7,0.1c0-0.1,0-0.2,0-0.2c0,0,0.3,0,0.3-0.1c0-0.2,0-0.4-0.1-0.7c0-0.3-0.1-0.6-0.1-0.8
				c-0.1-0.4-0.1-0.9-0.2-1.4c0.1,0.2,0.2,0.6,0.3,1c0,0.2,0.1,0.4,0.1,0.6c0,0.2,0.1,0.5,0.1,0.7c0-0.2,0-0.4,0-0.7
				c0-0.2,0-0.4,0-0.5c0-0.4-0.1-0.7-0.1-0.8c0,0.2,0.1,0.4,0.1,0.6c-0.2-0.6-0.3-1.3-0.3-2.2c0.6,0.2,0.1-2.4,0.6-3l0-0.2
				c0,0,0,0,0-0.1c0,0,0-0.1,0-0.1c0-0.1,0-0.2,0-0.3c0.1,0,0.2,0,0.3,0l0.1,0l0,0l0.1,0c0.1,0,0.3,0,0.4,0c0.6,0,1.2,0.1,1.9,0.1
				c-0.7-0.4,0.5,0,0.4-0.5c0.4,0,0.6,0,0.6,0l1.3,0.3c0.3,0.1-0.4,0.1-0.4,0.2c1,0,0.4,0.2,1,0.3c-0.1-0.2,0.3-0.2,0.9-0.2L51.9,11
				c0.3-0.1,0.5-0.1,0.7-0.1c0.1,0,0.2,0,0.2,0c0.1,0,0.1,0,0.1,0.1c0.1,0.1,0,0.2,0.1,0.1c0,0,0,0,0,0c0,0-0.1,0-0.1,0l-0.1,0
				c0,0,0,0,0,0c0,0,0,0,0,0l0,0c0,0.1,0,0.3,0,0.4c0,0.6,0.1,1.2,0.3,1.5c-0.1,0.1-0.2,0.3-0.2,0c0,0.8,0.1,1.7,0.1,2.6
				c0,0.4,0.1,0.9,0.1,1.3c0,0.1,0,0.2,0,0.3c0,0.1,0,0.2,0,0.3c0,0.3,0,0.6-0.1,0.9l-0.1-0.2c0,0.4,0.1,0.7,0.1,1.1
				c0.1,0,0.2,0,0.3,0c-0.1,0-0.3,0.1-0.1,0.1c0.2,0,0.5-0.1,1-0.1c0.2,0,0.4,0,0.6,0c0.1,0,0.2,0,0.2,0c0.1,0,0.1,0,0.2,0
				c0,0-0.1,0-0.2,0.1c-0.1,0-0.2,0.1-0.2,0.1c0.6,0,0.6,0,1.4,0c0.6,0,1.1-0.1,1.5-0.1c-0.1-1.1-0.2-2.1-0.3-2.6
				c0.3,0,0.4-1.3,0.5-1.9l0,0c0-0.9,0-1.7-0.1-2.5c0-0.4-0.1-0.8-0.1-1.2c0-0.2-0.1-0.3-0.1-0.6l0,0c0.2,0.1,0.4,0.1,0.5,0.2
				c0,0,0,0,0.1,0l0.2,0c0.1,0,0.2,0,0.3,0c0.2,0,0.5,0,0.7,0c1,0,2.1,0,2.9,0.1c-0.3-0.1,0-0.3,0.4-0.3C63.3,11,64,10.7,64,11
				l-0.1,0c0.2,0.1,0.4,0.2,0.8,0.2c0.1,0,0.2,0,0.3,0l0.2,0c0,0,0.1,0,0.1,0c0,0,0.2-0.4,0.3-0.4c0,0,0.1,0.1,0.1,0.1
				c0,0.1-0.1,0.2-0.1,0.3c0,0,0,0.1,0,0.1l0,0.1l0,0.2c0,0.5,0,1,0.1,1.4c0.1,0.9,0.1,1.7-0.1,2.1c0.1,0.4,0.1,0.9,0.2,1.3l-0.2,0
				c0,0.4,0,0.8,0,1.2c0,0.7,0,1.3,0,2.2c0.3,0,0.8,0,1.4,0L66,19.9c0.4,0,0.7,0,1-0.1c0.1,0,0.3-0.1,0.4-0.1c0.1,0,0.1-0.1,0.2-0.1
				c0.2-0.2,0.6-0.3,1.1-0.3c0,0,0.5,0.3,0.5,0.3l0.7,0l0-1.6l0.1-1.1c0-0.6,0-1.3-0.1-1.9c0,0,0.1,0.1,0.1,0.3
				c0-0.7,0.2-2.5-0.2-2.3c0.1,0,0.1-0.4,0.1-0.8c0-0.2-0.1-0.5-0.1-0.7c0-0.2,0-0.1-0.1-0.2c0-0.1,0-0.1-0.1-0.2
				c0,0,0.2,0.1,0.2,0.1c-0.2-0.2-0.2-0.3-0.3-0.5c0,0,0.1-0.1,0.4-0.1c0.1,0,0.2,0.2,0,0.1c0.4,0.1,0.3-0.2,1.1-0.1l-0.3,0.1
				c0.7,0,0.7-0.1,1.1-0.2c0.5-0.1,1.4,0.1,1.5,0.2c0.1-0.1,0.5-0.3,0.9-0.2c0.1,0.1-0.1,0.1-0.2,0.1c1.2,0.1,1.8-0.2,2.6,0
				c0,0.1,0.1,0.1,0.1,0.1c-1,0-1.7,0-1.6,0c0,0.2,0.8,0.2,0.2,0.5c0.3-0.1,0.7-0.2,1.2-0.3l0.3-0.1l0.1,0l0,0l0.1,0
				c0.1,0,0.2,0,0.2,0c0,0,0,0,0,0.1l0,0c0,0,0.1,0,0.1,0c0,0,0,0,0,0c0,0.1-0.1,0.2-0.1,0.2c0,0-0.1,0-0.1,0.1c0,0,0,0,0,0
				c0,0,0,0,0,0.1c0,0.3,0,0.6,0,0.7c0.2,0,0.2,0.5,0.3,0c0,0.1,0-0.1,0-0.3c0-0.1,0-0.1,0-0.2l0,0c0-0.2,0-0.4,0-0.6
				c0.1,0,0.1,0.1,0.1,0.2c0,0,0,0.1,0,0.2c0,0.1,0,0.2-0.1,0.3c0.1,0.2,0.3,0.4,0.3,0.5c-0.3,0.5-0.4,1.5-0.6,1.7
				c0.1,1.2,0.1,2.8,0.5,3.5c0.1,0.4-0.1,0.5-0.2,0.7c0-0.3,0-0.6-0.1-0.7c0.1,0.5,0.1,1.2,0.1,1.8c0.2,0,0.5,0,0.7,0
				c0.2,0,0.5,0,0.3,0l0,0l0,0c0,0,0.1,0,0.1,0c0.1,0,0.1,0,0.2,0c0.1,0,0.2-0.1,0.2-0.1c0.2,0,0.3,0,0.4,0c0,0,0,0,0,0
				c0,0,0,0.1,0.1,0.1c0,0-0.1,0.1,0,0c0,0,0,0-0.1,0c0,0,0,0-0.1,0l0,0l0.1,0c0.2,0,0.4,0,0.7,0l-0.3,0.1c0.2,0,0.5,0,0.7,0
				c0-0.4,0.1-0.8,0.1-1.2c0-0.2,0-0.4,0-0.6l0-0.2l0-0.2c0-0.5-0.1-0.9-0.2-1.4c-0.2-0.9-0.3-1.9,0-3.1c0,0.2-0.1,0.3-0.1,0.3
				c0-0.5,0.1-1,0.1-1.5l0-0.6l0-0.5l1,0c0.5,0,1,0,1.4,0c1,0,1.9,0,2.8,0.2c0.8,0.1,0.9-0.1,1.4-0.2l0.2,0.2c0,0,0.2-0.1,0.4-0.1
				c0.2-0.1,0.3-0.1,0.3-0.1c0.2,0,0.5,0,0.7,0c-0.1,0.4-0.2,0.7-0.2,0.9c-0.1,0.4-0.1,0.9,0,1.5l0.2-0.2c0,0.5,0.1,1.7-0.1,1.6
				c0,0.1,0.2,0.2,0.1,0.4l-0.1,0l0.2,1.3c-0.1,1-0.5-0.2-0.5,1.3c0,0.6,0.3,1.6,0.4,1.4c0-0.2,0.1-0.6,0.2-0.6l0.1,0.5
				c0.3,0.1,0.7,0.5,0.9-0.8l-0.2-0.9l0.2-0.3l0,0.7c0.2-0.4,0-0.7-0.1-1c0.1-0.1,0.2-0.2,0.2-0.4l-0.3-0.9c0.1-0.1,0.3,0.4,0.3-0.2
				c-0.2-0.4-0.3,0.4-0.4-0.3c0.2-0.4,0.3-0.3,0.2-0.8c0.1-0.1,0.1,0,0.2,0.2c-0.1-0.4,0-1.2-0.2-1.4c0.2-0.4-0.1-1.5,0.3-1.4
				c0,0,0-0.1-0.1-0.3c0-0.1-0.1-0.3-0.1-0.5c-0.1-0.4-0.1-0.7-0.1-1c0.1,0.3,0.2,0.1,0.2-0.3c-0.7,0-2.3,0-2.1-0.2
				c-0.5,0.4-2,0.2-2.9,0.4c0.1,0,0.2-0.1,0.2-0.1c-0.5,0-0.7-0.1-1-0.2c-0.1,0.3-0.9,0.4-1.4,0.5c-0.7-0.3,0.4-0.3,0.2-0.6
				c0,0.2-1.2,0.2-0.9,0.4c-0.5-0.2-0.4-0.1-0.7-0.3c0,0.4-0.8,0.1-1.4,0.3c-0.4-0.1-0.6-0.1-0.8-0.2c-0.1,0.1-0.1,0-0.1,1
				c-0.1,0.3-0.1,0.2-0.2-0.1C78.6,9.9,78.5,9.5,78.5,9.5z M77.8,9.6L77.8,9.6c0.2,0,0.5,0,0.6,0C78.2,9.6,78.1,9.6,77.8,9.6z
				 M75.9,9.6c0.2,0,0.4,0,0.7,0c0.1,0.1,0,0.1-0.2,0.1C76.5,9.8,76.1,9.7,75.9,9.6z M77.1,11.4c0-0.1,0-0.1,0.1-0.1
				C77.2,11.3,77.2,11.3,77.1,11.4C77.2,11.4,77.2,11.4,77.1,11.4c0.1,0.1,0.1,0.1,0.1,0.1C77.2,11.5,77.2,11.5,77.1,11.4z"/>
			<path class="st3" d="M77.4,11.9c0,0,0,0.1,0,0.1C77.4,12,77.5,11.9,77.4,11.9c0-0.1,0-0.1,0-0.1C77.4,11.8,77.4,11.9,77.4,11.9z"
				/>
			<path class="st3" d="M64.6,25.2L64.6,25.2C64.6,25.2,64.7,25.2,64.6,25.2C64.7,25.2,64.7,25.2,64.6,25.2z"/>
			<polygon class="st3" points="67.1,14.8 67.1,14.8 67.1,15 			"/>
			<path class="st3" d="M73.5,25.9c0,0,0.1,0,0.1,0.1C73.6,25.9,73.6,25.9,73.5,25.9z"/>
			<path class="st3" d="M77.3,25.9l0.5,0.1C77.7,26,77.5,26,77.3,25.9z"/>
			<path class="st3" d="M80.3,26C80.3,26,80.3,26,80.3,26L80.3,26L80.3,26z"/>
			<path class="st3" d="M33.2,26.3c-0.1,0-0.1,0-0.2,0C32.6,26.3,32.9,26.3,33.2,26.3z"/>
			<path class="st3" d="M47.4,25.8c-0.1,0-0.3,0.1-0.4,0.1C47.2,25.9,47.4,25.9,47.4,25.8z"/>
			<path class="st3" d="M31.9,10.8C31.9,10.8,31.9,10.8,31.9,10.8c0-0.1,0-0.1,0-0.2L31.9,10.8z"/>
			<path class="st3" d="M46.3,25.9c0.2,0,0.5,0,0.6,0C46.7,25.9,46.5,25.9,46.3,25.9z"/>
			<path class="st3" d="M90,21.8l0-0.1c0,0,0,0,0,0L90,21.8z"/>
			<path class="st3" d="M90,21.6l0-0.2C90,21.5,90,21.6,90,21.6z"/>
			<path class="st3" d="M89.9,21.1l0.1,0.3C90,21.4,90,21.2,89.9,21.1z"/>
			<path class="st3" d="M89.6,26L89.6,26C89.6,26.1,89.7,26.1,89.6,26z"/>
			<path class="st3" d="M88,26.1c0.2,0,0.4,0.1,0.7,0.1c0.3,0,0.7,0.1,0.9,0l0-0.1C89.4,26.2,88.2,25.9,88,26.1z"/>
			<path class="st3" d="M83,25.1l1,0.1c-0.2-0.1-0.4-0.2,0-0.2C82.8,24.7,84.3,25.2,83,25.1z"/>
			<path class="st3" d="M80,25c0.5,0,0-0.1,0-0.2C79.6,24.9,79.6,24.9,80,25z"/>
			<path class="st3" d="M57.7,25l0.1-0.2C57.3,24.9,57.8,24.9,57.7,25z"/>
			<polygon class="st3" points="53.4,26 53.9,26.1 54,25.9 			"/>
			<polygon class="st3" points="50.9,24.6 51.1,24.6 50.4,24.7 			"/>
			<path class="st3" d="M36.4,11l-0.1-0.2C36,10.8,35.9,11.1,36.4,11z"/>
			<path class="st3" d="M44,19.3c0.2,0.1,1,0.2,1.4,0.1C44.8,19.4,44.2,19.3,44,19.3z"/>
			<path class="st3" d="M65.3,11.2C65.3,11.2,65.2,11.2,65.3,11.2C65.2,11.2,65.2,11.3,65.3,11.2L65.3,11.2z"/>
		</g>
	</g>
</g>
</svg>
