<svg xmlns="http://www.w3.org/2000/svg" width="36.81" height="36.82" viewBox="0 0 36.81 36.82">
  <metadata><?xpacket begin="﻿" id="W5M0MpCehiHzreSzNTczkc9d"?>
<x:xmpmeta xmlns:x="adobe:ns:meta/" x:xmptk="Adobe XMP Core 5.6-c138 79.159824, 2016/09/14-01:09:01        ">
   <rdf:RDF xmlns:rdf="http://www.w3.org/1999/02/22-rdf-syntax-ns#">
      <rdf:Description rdf:about=""/>
   </rdf:RDF>
</x:xmpmeta>
                                                                                                    
                                                                                                    
                                                                                                    
                                                                                                    
                                                                                                    
                                                                                                    
                                                                                                    
                                                                                                    
                                                                                                    
                                                                                                    
                                                                                                    
                                                                                                    
                                                                                                    
                                                                                                    
                                                                                                    
                                                                                                    
                                                                                                    
                                                                                                    
                                                                                                    
                                                                                                    
                           
<?xpacket end="w"?></metadata>
<defs>
    <style>
      .cls-1 {
        fill: #8a8894;
        fill-rule: evenodd;
      }
    </style>
  </defs>
  <path class="cls-1" d="M4169,4046.2v33.6h-33.6v-33.6H4169m1.6-1.6h-36.8v36.8h36.8v-36.8h0Zm-10.63,29.4h-14.94a4.037,4.037,0,0,1-4.03-4.03v-9.37h5.83l-0.15.76a6.288,6.288,0,0,0-.11,1.14,5.93,5.93,0,1,0,11.86,0,6.2,6.2,0,0,0-.11-1.14l-0.15-.76H4164v9.37A4.037,4.037,0,0,1,4159.97,4074Zm-17.69-12.12v8.09a2.748,2.748,0,0,0,2.75,2.75h14.94a2.748,2.748,0,0,0,2.75-2.75v-8.09h-3.04c0.02,0.2.03,0.41,0.03,0.62a7.21,7.21,0,0,1-14.42,0c0-.21.01-0.42,0.03-0.62h-3.04Zm10.22,5.3a4.68,4.68,0,1,1,4.68-4.68A4.686,4.686,0,0,1,4152.5,4067.18Zm0-8.08a3.4,3.4,0,1,0,3.4,3.4A3.4,3.4,0,0,0,4152.5,4059.1Zm11.5,0.25h-6.47l-0.19-.27a5.921,5.921,0,0,0-9.68,0l-0.19.27H4141v-4.32a4.037,4.037,0,0,1,4.03-4.03h14.94a4.037,4.037,0,0,1,4.03,4.03v4.32Zm-5.82-1.28h4.54v-3.04a2.748,2.748,0,0,0-2.75-2.75h-14.94a2.748,2.748,0,0,0-2.75,2.75v3.04h4.54A7.193,7.193,0,0,1,4158.18,4058.07Zm2.21-.99h-1.34a1.093,1.093,0,0,1-1.09-1.09v-1.35a1.084,1.084,0,0,1,1.09-1.08h1.34a1.084,1.084,0,0,1,1.09,1.08v1.35A1.093,1.093,0,0,1,4160.39,4057.08Zm-1.15-1.28h0.96v-0.97h-0.96v0.97Z" transform="translate(-4133.78 -4044.59)"/>
</svg>
