<?xml version="1.0" encoding="utf-8"?>
<!-- Generator: Adobe Illustrator 17.0.0, SVG Export Plug-In . SVG Version: 6.00 Build 0)  -->
<!DOCTYPE svg PUBLIC "-//W3C//DTD SVG 1.1//EN" "http://www.w3.org/Graphics/SVG/1.1/DTD/svg11.dtd">
<svg version="1.1" id="Layer_1" xmlns="http://www.w3.org/2000/svg" xmlns:xlink="http://www.w3.org/1999/xlink" x="0px" y="0px"
	 width="240.074px" height="909.408px" viewBox="0 0 240.074 909.408" enable-background="new 0 0 240.074 909.408"
	 xml:space="preserve">
<path fill="#FFB486" d="M45.161,502.6c0,0-1.337,2.134-4.931,2.817c-2.826,0.531-7.037,0.18-13.087-2.817
	c0,0-20.152-8.905-24.183-24.315c0,0-1.783-20.124,0.18-31.57c0.104,0.114,0.228,0.228,0.351,0.341
	c0.152,0.142,0.313,0.284,0.484,0.417c0.133,0.123,0.275,0.228,0.417,0.341c0.237,0.18,0.493,0.36,0.759,0.55
	c0.18,0.123,0.37,0.247,0.569,0.36c0.038,0.019,0.066,0.038,0.104,0.066c0.389,0.237,0.806,0.465,1.252,0.683
	c0.038,0.009,0.076,0.028,0.104,0.047c0.237,0.123,0.493,0.237,0.749,0.341c0.275,0.123,0.55,0.237,0.844,0.341
	c0.256,0.104,0.512,0.19,0.787,0.284c0.038,0.009,0.076,0.019,0.123,0.038c0.313,0.104,0.635,0.199,0.967,0.294
	c0.664,0.19,1.366,0.36,2.124,0.503c0.531,0.114,1.091,0.209,1.679,0.294c0.066,0.009,0.123,0.019,0.19,0.028
	c0.484,0.066,0.986,0.123,1.508,0.171c0.038,0,0.085,0.009,0.133,0.009c0.313,0.028,0.635,0.057,0.967,0.076
	c0.332,0.028,0.664,0.047,1.005,0.057c0.256,0.009,0.522,0.019,0.787,0.028c0.797,0.028,1.631,0.028,2.494,0.009
	c0.247-0.009,0.503-0.019,0.759-0.028c0.702-0.019,1.423-0.057,2.162-0.114c0.237-0.019,0.484-0.028,0.73-0.057
	c1.28-0.095,2.627-0.247,4.04-0.436c0.275-0.038,0.559-0.076,0.844-0.123c0.332-0.038,0.664-0.095,1.005-0.152
	c0.341-0.047,0.683-0.104,1.034-0.161c0.645-0.104,1.299-0.228,1.973-0.351c0.417-0.076,0.844-0.161,1.271-0.247
	c1.622-0.322,3.319-0.702,5.102-1.138C40.457,449.189,49.903,481.737,45.161,502.6z"/>
<path fill="#FCA779" d="M40.229,505.417c-2.826,0.531-7.037,0.18-13.087-2.817c0,0-20.152-8.905-24.183-24.315
	c0,0-1.783-20.124,0.18-31.57c0.104,0.114,0.228,0.228,0.351,0.341c0.152,0.142,0.313,0.284,0.484,0.417
	c0.133,0.123,0.275,0.228,0.417,0.341c0.237,0.18,0.493,0.36,0.759,0.55c0.18,0.123,0.37,0.247,0.569,0.36
	c0.038,0.019,0.066,0.038,0.104,0.066c0.389,0.237,0.806,0.465,1.252,0.683c0.038,0.009,0.076,0.028,0.104,0.047
	c0.237,0.123,0.493,0.237,0.749,0.341c0.275,0.123,0.55,0.237,0.844,0.341c0.256,0.104,0.512,0.19,0.787,0.284
	c0.038,0.009,0.076,0.019,0.123,0.038c0.313,0.104,0.635,0.199,0.967,0.294c0.664,0.19,1.366,0.36,2.124,0.503
	c0.531,0.114,1.091,0.209,1.679,0.294c0.066,0.009,0.123,0.019,0.19,0.028c0.484,0.066,0.986,0.123,1.508,0.171
	c0.038,0,0.085,0.009,0.133,0.009c0.313,0.028,0.635,0.057,0.967,0.076c0.332,0.028,0.664,0.047,1.005,0.057
	c0.256,0.009,0.522,0.019,0.787,0.028c0.797,0.028,1.631,0.028,2.494,0.009c0.247-0.009,0.503-0.019,0.759-0.028
	C22.296,451.968,19.081,501.424,40.229,505.417z"/>
<path fill="#FFB486" d="M190.154,129.168c-1.53,3.45-6.78,5.31-9.89,6.95c-0.34,0.19-0.66,0.37-0.95,0.55
	c-1.49,0.94-3.15,1.36-4.7,1.49c-0.09,0.01-0.18,0.01-0.27,0.02c-2.95,0.2-5.44-0.59-5.44-0.59v0.01c-0.06,3.25,0.07,6.73,0.3,10.19
	c0.03,0.54,0.07,1.08,0.11,1.62c0.84,11.18,2.62,21.52,2.62,21.52c-13.59,14.34-34.72,7.04-34.72,7.04
	c-13.84-4-21.04-11.76-24.75-19.31c-4.91-10.03-3.68-19.68-3.68-19.68c8.05-9.57,4.45-36.96,4.45-36.96l-0.34-0.34
	c-0.01,0-0.01,0-0.01,0l-6.58-6.51c-1.23-1.19-2.4-2.37-3.49-3.55c-0.74-0.79-1.44-1.58-2.12-2.37c-0.06-0.06-0.11-0.12-0.16-0.18
	c-0.28-0.33-0.56-0.66-0.83-1c-0.32-0.39-0.64-0.78-0.939-1.17c-0.311-0.4-0.61-0.79-0.91-1.18c-4.57-6.1-7.49-12.11-9.25-17.79
	c-1.97-6.35-2.48-12.3-2.23-17.53c0.01-0.45,0.04-0.91,0.08-1.35c0.061-0.81,0.14-1.61,0.23-2.39c0-0.04,0-0.07,0.01-0.1
	c0.05-0.35,0.1-0.7,0.15-1.04c0.21-1.52,0.49-2.95,0.79-4.28c0.23-0.98,0.47-1.91,0.71-2.78c0.01-0.02,0.01-0.04,0.02-0.06
	c0.09-0.29,0.18-0.58,0.26-0.87c0-0.04,0.01-0.07,0.03-0.11c0.17-0.53,0.34-1.03,0.5-1.51c1.39-4.04,2.77-6.38,2.77-6.38l2.06-2.94
	l26.21-2.74l40.79-4.26l24.74,19.88c0,0,4.84,12.99,4.43,22.37c0,0-0.61,3-0.98,4.31c0,0-1.75,7.31-0.25,9.75c0,0,2.87,7,2.18,12.19
	c0,0-0.19,8.03-0.18,15.24c0.01,4.03,0.08,7.79,0.29,9.76C191.674,117.488,192.634,123.568,190.154,129.168z"/>
<g>
	<path fill="#FFB486" d="M240.074,459.919c0,0-1.145,1.907-4.814,3.003c-2.886,0.857-34.698,4.351-40.71-7.323
		c0,0-5.574-24.381-4.868-33.813c0.122,0.075,0.264,0.147,0.406,0.219c0.175,0.09,0.36,0.179,0.554,0.259
		c0.153,0.078,0.314,0.139,0.475,0.208c0.268,0.107,0.557,0.212,0.856,0.322c0.202,0.071,0.415,0.14,0.636,0.2
		c0.042,0.009,0.074,0.02,0.117,0.037c0.433,0.129,0.895,0.247,1.386,0.353c0.041,0.002,0.082,0.011,0.114,0.022
		c0.262,0.062,0.542,0.113,0.822,0.157c0.301,0.056,0.602,0.105,0.921,0.143c0.279,0.044,0.556,0.073,0.855,0.106
		c0.041,0.002,0.081,0.004,0.133,0.011c0.339,0.035,0.686,0.061,1.044,0.086c0.715,0.049,1.467,0.078,2.275,0.075
		c0.567,0.009,1.162-0.001,1.786-0.023c0.07-0.003,0.131-0.004,0.201-0.006c0.512-0.021,1.043-0.053,1.593-0.095
		c0.04-0.006,0.09-0.006,0.14-0.013c0.33-0.025,0.67-0.052,1.018-0.088c0.35-0.028,0.698-0.064,1.055-0.109
		c0.268-0.032,0.546-0.065,0.825-0.098c0.834-0.099,1.705-0.227,2.603-0.375c0.256-0.045,0.522-0.092,0.788-0.139
		c0.73-0.123,1.477-0.264,2.242-0.422c0.245-0.052,0.501-0.097,0.755-0.157c1.324-0.272,2.712-0.6,4.164-0.968
		c0.282-0.072,0.575-0.146,0.866-0.228c0.342-0.081,0.681-0.177,1.031-0.275c0.351-0.09,0.7-0.188,1.059-0.287
		c0.661-0.182,1.329-0.381,2.017-0.582c0.426-0.125,0.862-0.258,1.297-0.392c1.654-0.506,3.38-1.069,5.189-1.69
		C228.904,418.037,242.575,442.55,240.074,459.919z"/>
	<path fill="#FCA779" d="M235.26,462.922c-2.886,0.857-34.698,4.351-40.71-7.323c0,0-5.574-24.381-4.868-33.813
		c0.122,0.075,0.264,0.147,0.406,0.219c0.175,0.09,0.36,0.179,0.554,0.259c0.153,0.078,0.314,0.139,0.475,0.208
		c0.268,0.107,0.557,0.212,0.856,0.322c0.202,0.071,0.415,0.14,0.636,0.2c0.042,0.009,0.074,0.02,0.117,0.037
		c0.433,0.129,0.895,0.247,1.386,0.353c0.041,0.002,0.082,0.011,0.114,0.022c0.262,0.062,0.542,0.113,0.822,0.157
		c0.301,0.056,0.602,0.105,0.921,0.143c0.279,0.044,0.556,0.073,0.855,0.106c0.041,0.002,0.081,0.004,0.133,0.011
		c0.339,0.035,0.686,0.061,1.044,0.086c0.715,0.049,1.467,0.078,2.275,0.075c0.567,0.009,1.162-0.001,1.786-0.023
		c0.07-0.003,0.131-0.004,0.201-0.006c0.512-0.021,1.043-0.053,1.593-0.095c0.04-0.006,0.09-0.006,0.14-0.013
		c0.33-0.025,0.67-0.052,1.018-0.088c0.35-0.028,0.698-0.064,1.055-0.109c0.268-0.032,0.546-0.065,0.825-0.098
		c0.834-0.099,1.705-0.227,2.603-0.375c0.256-0.045,0.522-0.092,0.788-0.139C210.283,423.039,212.729,462.981,235.26,462.922z"/>
</g>
<g>
	<path fill="#FCA779" d="M228.519,446.208c0,0-2.864,6.164-6.587-1.885c0,0-0.604-1.704-0.665-5.451
		c-0.012-0.906-0.024-1.402-0.036-1.656c-0.012,0.145-0.012,0.338-0.012,0.532c-0.073-1.148-0.375-3.638-1.68-4.87
		c0,0-9.257-5.148-10.901-13.475c-0.157-0.713-0.242-1.45-0.266-2.212c-0.012-0.012-0.012-0.024-0.012-0.036l1.897-20.763
		l1.958-0.423l2.888-0.628l0.012,0.012c0,0,7.814,15.267,13.651,22.458c0.012,0.085,0.235,0.36,0.247,0.396
		C229.22,419.596,230.911,432.334,228.519,446.208z"/>
</g>
<path fill="#000104" d="M68.38,817.838c-14.47-14.98-21.13-36.5-21.13-36.5c-2.25-7.75-1.75-28.75-1.75-28.75l-5,3
	c-10.41-11.25-12.143-24.322-12.143-24.322c2-2.67,9.813-11.098,9.813-11.098c3.5-6.66,11.83-12.83,11.83-12.83
	s-5.99,24.75,17.63,45.25C67.29,771.108,67.44,792.768,68.38,817.838z"/>
<path fill="#000104" d="M162.167,908.838c-17.918,2.548-31.763-3.294-49.927-20.67c0,0-11.3-11.79-16.89-26.42
	c-0.58-1.5-1.09-3.03-1.52-4.58c0,0-3.58-6.58-5.83-6.58c0,0-10.93-5.73-15.21-16.5c-0.1-0.25-0.2-0.5-0.29-0.75
	c0,0-0.18-2.35,0.41-5.36l34.21-10.89l19.24,10.56c0,0,4.47,10.19,7.81,13.86c0,0,26.66,33.33,35.33,50.33
	c0,0,3.367,8.119,0.917,11.75C168.977,905.723,162.91,908.733,162.167,908.838z"/>
<path fill="#000104" d="M95.35,861.748c-2.39,1.54-7.1,2.47-7.1,2.47c-12.25-8.1-15.25-15.5-15.25-15.5
	c-0.75-5.88-0.52-14.63-0.52-14.63h0.31c4.28,10.77,15.21,16.5,15.21,16.5c2.25,0,5.83,6.58,5.83,6.58
	C94.26,858.718,94.77,860.248,95.35,861.748z"/>
<path fill="#001A37" d="M77,712.088l-7.78,33.63l-1.59,6.87c-23.62-20.5-17.63-45.25-17.63-45.25l6.5-5.53l15.35-16.43L77,712.088z"
	/>
<path fill="#012B59" d="M223.781,483.463c0,0,8.588,97.375,7.153,116.375c0,0-0.268,16.167-23.101,33
	c-20.801,15.335-71,60.608-77,68.971l-10.667-40.304l5.333-16l28.333-25l31.667-63l-11.667-37l8.667-24.538l30.667-15.462
	L223.781,483.463z"/>
<path fill="#001A37" d="M223.78,447.668v36.26l-0.8,0.57c0,0-28.81,20.34-34.81,31.01c0,0,5.39,44,11.69,60.66
	c0,0,8.64,23.67-6.36,33.67c0,0-51.42,45.5-57.21,55l-4.77-20v-27.5l7.65-6c0,0,15.33-13,28.33-22c0,0-12.87-30.77-19.69-52.38
	v-0.01l-0.67-25.02l-0.64-23.99c0,0,36.5-23.76,38.5-22.93s19.56-18.67,19.56-18.67L223.78,447.668z"/>
<path fill="#012B59" d="M164.77,488.658l-5.27,8.31c-1.58,4.4-3.03,8.74-4.37,13.01c-2.95,9.36-5.35,18.4-7.32,26.98
	c-8.56,37.37-8.79,66.01-8.64,74.38c0.04,1.64,0.08,2.5,0.08,2.5c0.26,7.26,0.28,13.72,0.15,19.4c-0.49,21.31-3.11,31.6-3.11,31.6
	c-2.44,9.43-4.2,22.41-5.45,36.96c-0.01,0-0.01,0.01-0.01,0.01c-4.52,52.3-2.58,124.78-2.58,124.78
	c-8.03,4.68-15.45,7.18-22.14,8.23c-3.51,0.55-6.82,0.7-9.9,0.56h-0.04c-17.38-0.79-27.73-10.79-27.73-10.79v-5.08
	c-0.02-0.56-0.04-1.12-0.06-1.67c-0.94-25.07-1.09-46.73-0.75-65.25c1.17-64.8,8.26-91.25,8.26-91.25c2.89-9.5,0-23.83,0-23.83
	c-8.46-50.53-12.57-94.87-14.52-122.63v-0.01c-1.35-19.11-1.66-30.37-1.66-30.37l10.06,0.4l13.42,0.53l10.5,0.42l52.81,2.09
	L164.77,488.658z"/>
<path fill="#001A37" d="M97.5,625.338c0,0,2.17,30-0.17,51.5c0,0-5.04,73.58-4,123.15c0.01,0.57,0.02,1.13,0.04,1.7
	c0.03,1.43,0.07,2.84,0.12,4.23c0.01,0.53,0.03,1.06,0.05,1.58c0.03,0.83,0.06,1.65,0.1,2.46c0.03,0.72,0.06,1.43,0.09,2.14
	c0.03,0.5,0.05,1,0.08,1.49c0.02,0.49,0.05,0.98,0.08,1.46c0.16,2.9,0.36,5.64,0.6,8.2c0.07,0.86,0.15,1.69,0.24,2.49
	c0.13,1.22,0.27,2.39,0.42,3.5c0.04,0.37,0.1,0.74,0.15,1.1c0.1,0.72,0.21,1.42,0.32,2.09c0.01,0.06,0.04,0.2,0.07,0.39
	c0.05,0.31,0.1,0.62,0.16,0.92c0.1,0.57,0.21,1.12,0.32,1.64c-17.38-0.79-27.73-10.79-27.73-10.79v-5.08
	c-0.02-0.56-0.04-1.12-0.06-1.67c-0.94-25.07-1.09-46.73-0.75-65.25c1.17-64.8,8.26-91.25,8.26-91.25c2.89-9.5,0-23.83,0-23.83
	c-8.46-50.53-12.57-94.87-14.52-122.63v-0.01c-1.35-19.11-1.66-30.37-1.66-30.37l10.06,0.4l13.42,0.53
	c7.2,6.72,12.36,11.54,12.36,11.54l2.95,1.23c0,0-0.51,7.23-1.06,19.25C96.38,541.088,95.18,583.238,97.5,625.338z"/>
<path fill="#002246" d="M107.55,625.338c0,0,2.17,30-0.17,51.5c0,0-8.41,122.76-1.27,157.98c-3.51,0.55-6.82,0.7-9.9,0.56
	c-0.19-0.96-0.41-2-0.52-2.56c-0.03-0.19-0.06-0.33-0.07-0.39c-0.11-0.67-0.22-1.37-0.32-2.09c-0.05-0.36-0.1-0.73-0.15-1.1
	c-0.15-1.11-0.29-2.28-0.42-3.5c-0.08-0.81-0.17-1.64-0.24-2.49c-0.24-2.56-0.44-5.3-0.6-8.2c-0.03-0.49-0.06-0.97-0.08-1.46
	c-0.03-0.49-0.05-0.99-0.08-1.49c-0.03-0.71-0.06-1.42-0.09-2.14c-0.04-0.81-0.07-1.63-0.1-2.46c-0.02-0.52-0.04-1.05-0.05-1.58
	c-0.05-1.39-0.09-2.8-0.12-4.23c-0.02-0.57-0.03-1.13-0.04-1.7c-1.04-49.57,4-123.15,4-123.15c2.34-21.5,0.17-51.5,0.17-51.5
	c-2.32-42.1-1.12-84.25-0.06-107.89c0.55-12.02,1.06-19.25,1.06-19.25l-2.95-1.23c0,0-5.16-4.82-12.36-11.54l-13.42-0.53
	c-0.01-0.26-0.01-0.4-0.01-0.4l23.48,0.93c0.15,0.14,0.3,0.28,0.45,0.42c6.96,6.5,11.91,11.12,11.91,11.12l2.95,1.23
	c0,0-0.5,7.13-1.05,19.01C106.43,540.798,105.22,583.098,107.55,625.338z"/>
<path opacity="0.7" fill="#011323" d="M223.78,439.869v29.42c-0.52,0.16-0.8,0.25-0.8,0.25s-1.91,1.67-5.64,4.33
	c-6.66,4.75-19.12,12.65-36.79,19.83c-7.54,3.06-16.03,5.99-25.42,8.48c-2.59,0.69-5.26,1.34-7.99,1.95
	c-11.94,2.7-25.18,4.64-39.64,5.28c-3.29,0.15-6.64,0.23-10.06,0.24c-11.34,0.02-23.38-0.76-36.07-2.57v-0.01
	c-1.35-19.11-1.66-30.37-1.66-30.37l10.06,0.4c-0.01-0.26-0.01-0.4-0.01-0.4l23.48,0.93c0.15,0.14,0.3,0.28,0.45,0.42l52.81,2.09
	c0,0,36.5-23.76,38.5-22.93s19.56-18.67,19.56-18.67L223.78,439.869z"/>
<path fill="#1D2028" d="M107.5,850.338c0,0,22.04,52,57.27,49c0,0,4.105-2,2.355-6.875c0,0-3.458-11.958-26.625-35.625
	c0,0-6-7.667-10.5-16C130,840.838,120.5,836.338,107.5,850.338z"/>
<polygon fill="#001A37" points="190.167,312.658 181.483,458.605 206.833,457.505 206.833,381.505 204.56,315.084 "/>
<path fill="#31313E" d="M116.833,853.338c0,0,22.5,42,43.167,40.5c0,0,3.667-0.667,2.833-3.833c0,0-9.333-16.792-27.833-34.167
	c0,0-3.452-4.742-5.375-9.188C129.625,846.651,117.917,846.213,116.833,853.338z"/>
<polygon fill="#FAFBFC" points="108.5,138.178 95.31,154.838 111.833,203.838 191.782,293.593 205.604,297.168 204.944,211.172 
	186.567,167.172 174.901,169.842 162.784,177.293 159.167,173.172 131.525,171.898 106.11,146.172 "/>
<path fill="#042D54" d="M190.271,123.338c0,0,22.51-4,30.67,55.17c8.17,59.16-1.83,164.83,3.17,189.33c0,0,1.75,38,2.75,43.5
	l0.58,3.62l-3.801,0.56l-0.229,18.26l1.464,20.06c-3,8.34-25.014,24.919-25.014,16.654c0-31.953,2.07-141.654,2.07-141.654l-0.99-46
	l-16.03-112l-12.63-32.66l17.67-12.71L190.271,123.338z"/>
<path fill="#FFB486" d="M168.899,137.588c-0.07,3.76,0.11,7.84,0.41,11.82c-14.24,3.58-36.16,1.26-36.16,1.26
	c-12.67-1.16-16.67,0-16.67,0c-5.83,1.67-4,8-4,8l-0.02-0.01c-4.91-10.03-3.68-19.68-3.68-19.68c8.05-9.57,4.45-36.96,4.45-36.96
	l-0.34-0.34c0,0,1.42-1.51-3.99-6.59c0,0-9.59-10.08-3.75-16.33c0,0,7.25-7.42,18.58,6.33c0,0,1.83,10.42,0,24.5
	c0,0-1.5,7.56,3.63,10.69C127.359,120.278,147.899,133.508,168.899,137.588z"/>
<path fill="#002246" d="M219.859,363.463c0,0-9.026,8.625-10.745,8.625c0,0-0.6,16.851,0.411,19.101c0,0,6.621-2.359,9.69-5.101
	c0,0-2.857,8.375-12.42,13.25c0,0-0.151-16.25-0.474-31.25C206.32,368.088,215.561,365.838,219.859,363.463z"/>
<path fill="#032647" d="M191.782,280.562c-3.33-6.66-19.502-56.724-19.502-56.724c-4.22-9.67-5.95-26.67-5.95-26.67
	s5-4.83,12.34-5.83c6.16,8.33,9.49,19.17,9.49,19.17c0.188,0.782,14.216,66.455,14.672,75.026
	C203.932,306.215,191.782,280.562,191.782,280.562z"/>
<path fill="#012B59" d="M199.5,429.508c-1.95,51.33-9.23,48.33-9.23,48.33c-25.07,12.43-46.82,18.08-65.12,19.78
	c-11.16,1.04-21.03,0.6-29.6-0.65c-0.68-0.1-1.36-0.21-2.03-0.32c-0.56-0.09-1.12-0.18-1.67-0.29c-0.19-0.03-0.39-0.06-0.58-0.1
	c-0.39-0.07-0.77-0.15-1.15-0.22c-0.42-0.09-0.83-0.17-1.24-0.26c-1.01-0.21-2-0.43-2.96-0.66c-0.71-0.17-1.41-0.35-2.1-0.53
	c-1.05-0.28-2.07-0.56-3.07-0.86c-17.35-5.14-26.25-12.89-26.25-12.89c2.5-14,9.5-47.27,9.5-47.27c5.5-13.27,13.5-44.23,13.5-44.23
	l-0.5-20.5l-2.5-32.38c-6.5-17.37-8-29.12-8-29.12s-0.01,0-0.02,0.01c-11.49,7.52-22.48,29.11-22.48,29.11v130.7
	c-0.49,0.12-0.98,0.25-1.46,0.36c-1.88,0.46-3.67,0.86-5.38,1.2c-0.45,0.09-0.9,0.18-1.34,0.26c-0.71,0.13-1.4,0.25-2.08,0.37
	c-0.37,0.06-0.73,0.12-1.09,0.17c-0.36,0.06-0.71,0.11-1.06,0.16c-0.3,0.05-0.6,0.09-0.89,0.13c-1.49,0.2-2.91,0.36-4.26,0.46
	c-0.26,0.02-0.51,0.04-0.77,0.06c-0.78,0.06-1.54,0.1-2.28,0.12c-0.27,0.01-0.53,0.02-0.8,0.03c-0.91,0.02-1.79,0.02-2.63-0.01
	c-0.28-0.01-0.56-0.02-0.83-0.03c-0.36-0.01-0.71-0.03-1.06-0.06c-0.35-0.02-0.69-0.05-1.02-0.08c-0.05,0-0.1-0.01-0.14-0.01
	c-0.55-0.05-1.08-0.11-1.59-0.18c-0.07-0.01-0.13-0.02-0.2-0.03c-0.61-0.09-1.2-0.2-1.77-0.31c-0.8-0.15-1.54-0.33-2.24-0.53
	c-0.35-0.1-0.69-0.21-1.02-0.31c-0.05-0.02-0.09-0.03-0.13-0.04c-0.28-0.1-0.56-0.2-0.83-0.3c-0.31-0.12-0.6-0.24-0.89-0.36
	c-0.27-0.12-0.53-0.24-0.79-0.36c-0.03-0.02-0.07-0.04-0.11-0.05c-0.47-0.24-0.91-0.48-1.32-0.72c-0.04-0.03-0.07-0.05-0.11-0.07
	c-0.21-0.13-0.41-0.26-0.6-0.38c-0.28-0.2-0.55-0.39-0.8-0.58c-0.15-0.12-0.3-0.24-0.44-0.36c-0.18-0.15-0.35-0.29-0.51-0.44
	c-0.13-0.12-0.26-0.24-0.37-0.36c-0.04-0.03-0.08-0.07-0.11-0.11c-0.15-0.15-0.29-0.3-0.43-0.46c-0.41-0.46-0.76-0.91-1.04-1.34
	c-0.26-0.39-0.48-0.76-0.66-1.12c-0.07-0.13-0.13-0.26-0.19-0.38c-0.01-0.03-0.02-0.06-0.03-0.08c-0.04-0.07-0.07-0.15-0.1-0.22
	c-0.19-0.44-0.32-0.84-0.42-1.18c-0.02-0.09-0.05-0.18-0.07-0.26c-0.12-0.49-0.14-0.78-0.14-0.78v-104.58
	c1-42.94,17-100.06,17-100.06c11-67,49-84.5,49-84.5c7.57-4.23,16.71-8.84,22.75-11.81c3.94-1.94,6.56-3.19,6.56-3.19
	c0.64-0.31,5.03,4.41,10.8,11.09c12.98,15,32.94,39.91,32.94,39.91c14.29,19.6,58.98,83.67,58.98,83.67
	c0.38,2.01,0.72,4.26,1.02,6.71C203.99,336.038,199.5,429.508,199.5,429.508z"/>
<path fill="#001A37" d="M106.11,165.928l-7.07,3.32l-32.54,15.29c0,0-46,85.3-51,135.3c0,0-12,78.5-6,131.5c0,0,1.26,4.91,5.55,9.51
	c3.45,3.71,8.84,7.23,17.12,7.84c0.43,0.04,0.88,0.06,1.33,0.08c1.16,0.04,2.38,0.03,3.66-0.05c-0.45,0.09-0.9,0.18-1.34,0.26
	c-0.71,0.13-1.4,0.25-2.08,0.37c-0.37,0.06-0.73,0.12-1.09,0.17c-0.36,0.06-0.71,0.11-1.06,0.16c-0.3,0.05-0.6,0.09-0.89,0.13
	c-1.49,0.2-2.91,0.36-4.26,0.46c-0.26,0.02-0.51,0.04-0.77,0.06c-0.78,0.06-1.54,0.1-2.28,0.12c-0.27,0.01-0.53,0.02-0.8,0.03
	c-0.91,0.02-1.79,0.02-2.63-0.01c-0.28-0.01-0.56-0.02-0.83-0.03c-0.36-0.01-0.71-0.03-1.06-0.06c-0.35-0.02-0.69-0.05-1.02-0.08
	c-0.05,0-0.1-0.01-0.14-0.01c-0.55-0.05-1.08-0.11-1.59-0.18c-0.07-0.01-0.13-0.02-0.2-0.03c-0.61-0.09-1.2-0.2-1.77-0.31
	c-0.79-0.16-1.54-0.34-2.24-0.53c-0.35-0.1-0.69-0.21-1.02-0.31c-0.05-0.02-0.09-0.03-0.13-0.04c-0.28-0.1-0.56-0.2-0.83-0.3
	c-0.31-0.12-0.6-0.24-0.89-0.36c-0.27-0.12-0.53-0.24-0.79-0.36c-0.03-0.02-0.07-0.04-0.11-0.05c-0.47-0.24-0.91-0.48-1.32-0.72
	c-0.04-0.03-0.07-0.05-0.11-0.07c-0.21-0.13-0.41-0.26-0.6-0.38c-0.28-0.2-0.55-0.39-0.8-0.58c-0.15-0.12-0.3-0.24-0.44-0.36
	c-0.18-0.15-0.35-0.29-0.51-0.44c-0.13-0.12-0.26-0.24-0.37-0.36v-0.01c-0.04-0.03-0.07-0.06-0.11-0.1
	c-0.15-0.15-0.29-0.3-0.43-0.46c-0.41-0.45-0.75-0.91-1.04-1.34c-0.26-0.39-0.48-0.76-0.66-1.12c-0.07-0.13-0.13-0.26-0.19-0.38
	c-0.01-0.03-0.02-0.06-0.03-0.08c-0.04-0.07-0.07-0.15-0.1-0.22c-0.19-0.44-0.32-0.84-0.42-1.18c-0.02-0.09-0.05-0.18-0.07-0.26
	c-0.12-0.49-0.14-0.78-0.14-0.78v-104.58c1-42.94,17-100.06,17-100.06c11-67,49-84.5,49-84.5c7.57-4.23,16.71-8.84,22.75-11.81
	c3.94-1.94,6.56-3.19,6.56-3.19C95.95,154.528,100.34,159.248,106.11,165.928z"/>
<path fill="#001A37" d="M115,330.338c5.5,13-4.5,77.5-4.5,77.5c-12.5,46.5-14,85-14,85l-0.95,4.13c-5.47-0.8-10.41-1.93-14.8-3.24
	c-17.35-5.14-26.25-12.89-26.25-12.89c2.5-14,9.5-47.27,9.5-47.27c5.5-13.27,13.5-44.23,13.5-44.23l-0.5-20.5l-2.5-32.38
	c-6.5-17.37-8-29.12-8-29.12c3-17.5,19.81-44.5,19.81-44.5c4.65-22.62-3.26-46.06-10.42-61.33c-4.87-10.37-9.39-16.97-9.39-16.97
	l22.95-22.88l9.59,7.59l7.07,5.59l25.39,26.67l3.93,30.02l0.86,6.56C121.74,270.668,115,330.338,115,330.338z"/>
<path fill="#002246" d="M32.17,468.688c-18.57-1.39-22.67-17.35-22.67-17.35c-6-53,6-131.5,6-131.5c5-50,51-135.3,51-135.3
	s4.52,6.6,9.39,16.97c0,0-44.39,67.83-47.72,113.58C28.17,315.088,3.59,464.798,32.17,468.688z"/>
<path fill="#002246" d="M66.48,307.348c-11.49,7.52-22.48,29.11-22.48,29.11v130.7c-0.49,0.12-0.98,0.25-1.46,0.36l-0.68-2.51
	c-3.15-5.33-1.86-128.55-1.86-128.55C48.82,315.508,65.82,307.648,66.48,307.348z"/>
<path fill="#002246" d="M130.17,412.168c0,0,20.99-5,33.32-13.32c-0.16,0.43-5.72,14.11-30.66,21.66c0,0-2.66,20.33-2.66,27.33h7.66
	c0,0-8.71,32.56-12.68,49.78c-11.16,1.04-21.03,0.6-29.6-0.65l0.95-4.13c0,0,1.5-38.5,14-85c0,0,10-64.5,4.5-77.5
	c0,0,6.74-59.67,21.29-92.25c3.67,3.6,7.86,7.7,12.35,12.08c0,0-16.71,62-9.59,95.34c0,0-0.64,30.85-2.76,41.93
	c0,0,22.89-7.25,31.21-8.59c-1.07,0.57-35.36,18.76-37.33,25.32V412.168z"/>
<path fill="#001A37" d="M225.26,415.168l-1.62,0.35c-6.85-15.31-8.64-211.68-8.64-211.68
	C218.74,245.808,217.83,369.008,225.26,415.168z"/>
<path fill="none" stroke="#000000" stroke-miterlimit="10" d="M106.11,498.2"/>
<path fill="#001A37" d="M199.05,299.885l-1.02,0.95c-13.89-12.63-33.53-31.54-49.39-47c-4.49-4.38-8.68-8.48-12.35-12.08
	c-6.4-6.28-11.21-11.04-13.31-13.12c-0.75-0.73-1.15-1.13-1.15-1.13v-8H110.5c-13.77-24.42-19.29-45.9-21.05-54.18
	c-0.5-2.34-0.7-3.63-0.7-3.63c3.94-1.94,6.56-3.19,6.56-3.19c2.07-1,43.74,51,43.74,51c14.29,19.6,58.98,83.67,58.98,83.67
	C198.41,295.185,198.75,297.435,199.05,299.885z"/>
<path fill="#00386F" d="M199.05,296.218l-1.02,0.95c-13.89-12.63-33.53-31.54-49.39-47c-4.49-4.38-8.68-8.48-12.35-12.08
	c-6.4-6.28-11.21-11.04-13.31-13.12c-0.75-0.73-1.15-1.13-1.15-1.13v-8H110.5c-13.77-24.42-19.29-45.9-21.05-54.18
	c-0.5-2.34-0.7-3.63-0.7-3.63c3.94-1.94,6.56-3.19,6.56-3.19c2.07-1,43.74,51,43.74,51c14.29,19.6,58.98,83.67,58.98,83.67
	C198.41,291.518,198.75,293.768,199.05,296.218z"/>
<path fill="#001A37" d="M173.506,140.383c0,0,2.56,26.104,15.549,63.226c0,0,6.829,19.571,10.337,87.64
	c0,0,0.864,18.801,0.653,27.56c0,0,9.403-64.127,7.488-103.904c0,0,0.113-31.214,0.175-40.394c0,0-4.867-4.124-9.955-6.562
	c0,0,2.281-2.762,7.11-4.524c0,0-12.738-15.843-24.282-23.106L173.506,140.383z"/>
<path fill="#00386F" d="M167.531,137.588c0,0,3.33,26,17.83,62.75c0,0,7.625,19.375,13,87.25c0,0,1.375,18.75,1.375,27.5
	c0,0,8.208-64.25,5.208-103.917c0,0-0.667-31.167-0.833-40.333c0,0-5.188-4-10.563-6.312c0,0,2.313-2.813,7.313-4.688
	c0,0-11.896-15.552-24.135-22.526L167.531,137.588z"/>
<path fill="#00386F" d="M181.18,134.995c0,0,18.597,15.51,20.764,25.677c0,0-3.07,1.332-7.16,4.416c0,0,12.66,6.751,13.952,10.126
	c0,0,3.875,101.125-6.625,155.125l-2.5-20.991l-9.197-136.259L181.18,134.995z"/>
<path fill="#A05A35" d="M152.605,118.558c-1-0.49-14.47-7.33-20.13-25.97c0,0-3-10.63-8.25-20.87c0,0-0.92-3.05,0.67-8.05
	c0,0,1.09-3.69-1.2-9.21l-0.01-0.01l-8.82-9.36l-5.89-6.25l-15-3.75l-4.82,0.82h-0.01c-0.09,0.26-0.18,0.52-0.26,0.79
	c-0.08,0.24-0.16,0.48-0.23,0.72c-0.02,0.04-0.03,0.07-0.03,0.11c-0.02,0.04-0.03,0.07-0.04,0.11c-0.07,0.25-0.15,0.5-0.22,0.76
	c-0.01,0.02-0.01,0.04-0.02,0.06c-0.08,0.28-0.16,0.56-0.24,0.85c-0.08,0.31-0.17,0.63-0.24,0.95c-0.07,0.28-0.14,0.57-0.21,0.87
	c-0.01,0.04-0.02,0.07-0.02,0.11c-0.32,1.34-0.59,2.76-0.79,4.28c-0.02,0.08-0.03,0.16-0.04,0.24c-0.04,0.26-0.08,0.53-0.11,0.8
	c-0.01,0.03-0.01,0.06-0.01,0.1c-0.03,0.23-0.06,0.47-0.08,0.71c-0.02,0.16-0.04,0.32-0.05,0.47c-0.03,0.26-0.05,0.51-0.07,0.77
	c-0.01,0.15-0.02,0.29-0.03,0.44c-0.04,0.44-0.07,0.9-0.08,1.35c-0.26,5.24,0.26,11.19,2.22,17.53c1.76,5.68,4.68,11.69,9.25,17.79
	c0.3,0.39,0.6,0.78,0.92,1.18c0.15,0.2,0.31,0.4,0.47,0.6c0.15,0.19,0.31,0.38,0.47,0.57c0.271,0.34,0.55,0.67,0.83,1
	c0.05,0.06,0.1,0.12,0.16,0.18c0.67,0.79,1.38,1.58,2.12,2.37c1.09,1.18,2.25,2.36,3.49,3.55l6.58,6.51c0,0,0,0,0.01,0
	c0.1-0.14,1.18-1.73-4-6.59c0,0-9.59-10.08-3.75-16.33c0,0,7.25-7.42,18.58,6.33c0,0,1.83,10.42,0,24.5c0,0-1.5,7.56,3.63,10.69
	c0,0,20.54,13.23,41.54,17.31h0.01c0,0,2.49,0.79,5.44,0.59c0.09-0.01,0.18-0.01,0.27-0.02
	C163.484,131.138,155.444,122.598,152.605,118.558z"/>
<path fill="#FFB486" d="M186.279,40.668v0.4c0,0-10.89,26.44-45.43,11.77c0,0-4.37-0.89-2.29,4.43c0,0,1.17,3.19,1.04,8.57
	c0,0,0,4.38,3.13,7.5c0,0,3.13,5.84,1,13.3c0,0-1.37,4.7,5.13,7.32c0,0,3.37,2.13,1.12,10.63c0,0-2.51,10.63,4.02,14.75
	c-0.42-0.21-0.86-0.45-1.33-0.75c0,0-14.31-6.63-20.19-26c0,0-3-10.63-8.25-20.87c0,0-0.92-3.05,0.67-8.05c0,0,1.09-3.69-1.2-9.21
	l-0.01-0.01c-0.78-5.26,0.29-13.2,0.29-13.2c0.98-3.88,17.45-0.16,18.14-0.01c0.01,0.01,0.02,0.01,0.02,0.01
	c4.49,2,7.34,3.42,7.34,3.42c16.83,8.5,28.5,1.67,28.5,1.67c3.46-2.16,6-4.53,7.83-7L186.279,40.668z"/>
<path fill="#773A17" d="M142.729,29.638l-0.27,5.4l-0.32,6.21c0,0-0.01,0-0.02-0.01c-0.69-0.15-17.16-3.87-18.14,0.01
	c0,0-1.07,7.94-0.29,13.2l0.01,0.01c0.07,0.52,0.16,1.01,0.28,1.46c0.61,2.42-4.92-2.58-6.5-7.58c0,0-0.99-0.99-1.95,0.36
	c-0.26,0.37-0.52,0.92-0.76,1.72c-1.04,3.56-1.33,6.59-0.21,14.17c0.32,2.13-3.16,2.5-4.41-7.42c0,0-1.11-10.33-2.73-8.83
	c0,0-2.26,0.5-2.5,10.19c-0.15,5.81-0.46,6.15-1.13,5.75c-1.46-0.88-1.86-5-1.96-7.04c0,0-0.16-7.65-0.41-9.71c0,0-1.86-2.39-3,2.5
	c-2.25,9.59,0.09,13.47-1.85,13.28c0,0-2.22,0.24-2.71-6.22c-0.22-2.87,0.84-11.18-0.5-11.69c-1.07-0.4-2.13,0.6-2.82,3.16
	c-0.68,2.53-2.06,9.97-0.56,18.03c0.22,1.15-0.43,1.69-1.38,1.34c-2.19-7.08-2.58-13.67-2.11-19.32c0.02-0.26,0.04-0.51,0.07-0.77
	c0.01-0.15,0.03-0.31,0.05-0.47c0.05-0.55,0.12-1.08,0.2-1.61c0.22-1.65,0.51-3.19,0.85-4.63c0.07-0.3,0.14-0.59,0.21-0.87
	c0.07-0.32,0.16-0.64,0.24-0.95c0.16-0.58,0.32-1.13,0.48-1.67c0.02-0.07,0.04-0.15,0.07-0.22c0.07-0.24,0.15-0.48,0.23-0.72
	c0.08-0.27,0.17-0.53,0.26-0.79c1.27-3.7,2.54-5.97,2.74-6.33c0.02-0.03,0.03-0.05,0.03-0.05l2.06-2.94l6.95-0.73l17.08-1.78
	l2.18-0.23c2.42,0.63,5.03,1.3,7.58,1.96c2.57,0.66,5.09,1.31,7.3,1.87c1.72,0.45,3.26,0.84,4.5,1.16
	C141.519,29.328,142.729,29.638,142.729,29.638z"/>
<path fill="#3A1702" d="M177.979,46.338c0,0-11.67,6.83-28.5-1.67c0,0-43-21.402-57.75-15.032c0,0,1.82-11.748,12.94-20.738
	c6.72-5.44,17.21-9.56,33.56-8.81c0,0,9.75,0.25,25.5,6c0,0,8.84,4.08,15.88,4.72c1.98,0.18,3.81,0.09,5.27-0.44
	c0.03-0.01,0.07-0.02,0.1-0.03C184.979,10.338,199.979,32.588,177.979,46.338z"/>
<path fill="#522707" d="M179.609,10.808c-21.64,9.54-42.38,1.53-42.38,1.53c-15.12-6.33-26.9-4.87-32.56-3.44
	c6.72-5.44,17.21-9.56,33.56-8.81c0,0,9.75,0.25,25.5,6C163.729,6.088,172.569,10.168,179.609,10.808z"/>
<path fill="#220C00" d="M185.809,39.338c-1.83,2.47-4.37,4.84-7.83,7c0,0-11.67,6.83-28.5-1.67c0,0-2.85-1.42-7.34-3.42
	c0,0-0.01,0-0.02-0.01c-6.18-2.75-15.43-6.59-24.62-9.34c-9.98-2.99-19.87-4.7-25.61-2.32c-0.06,0.02-0.11,0.04-0.16,0.06
	c0,0,0.06-0.04,0.19-0.11c0.83-0.43,4.28-2.2,9.01-3.67c4.84-1.5,11.01-2.68,17.08-1.78c0.7,0.1,1.4,0.23,2.09,0.39
	c0,0-4.24,0.37-5,1.87c0,0,8.43,0.43,12.67-0.53c0.05-0.01,0.1-0.02,0.15-0.03c0,0,4.56-1.25,12.18-0.19c0,0-3.54,0.6-5.03,2.09
	c-0.23,0.24-0.42,0.5-0.53,0.78c0,0,1.87,0.32,5.03,0.38c3.91,0.08,9.79-0.26,16.53-2.12c0,0-1.79,2.94-3.09,3.66
	c-0.05,0.03-0.11,0.06-0.15,0.08c-1.32,0.57,11.35-0.79,15.69-4.19c-0.07,0.22-1.37,3.69-3.06,5.39
	c0.46-0.16,13.68-5.06,19.39-21.29c0.03-0.01,0.07-0.02,0.1-0.03C184.979,10.338,195.639,26.148,185.809,39.338z"/>
<g>
	<path fill="#CB8A58" d="M167.828,80.892c-0.395-1.15-0.767-2.301-1.174-3.436c-0.207-0.566-0.411-1.132-0.642-1.687
		c-0.226-0.556-0.463-1.106-0.734-1.637c-0.262-0.536-0.556-1.055-0.888-1.543c-0.327-0.493-0.708-0.945-1.13-1.358
		c-0.425-0.407-0.9-0.767-1.41-1.084c-0.506-0.324-1.042-0.608-1.564-0.92c0.569,0.212,1.133,0.438,1.684,0.709
		c0.546,0.274,1.076,0.605,1.548,1.011c0.478,0.401,0.888,0.874,1.254,1.375c0.362,0.505,0.67,1.042,0.947,1.59
		c0.27,0.552,0.511,1.116,0.726,1.688c0.209,0.575,0.407,1.152,0.573,1.739C167.359,78.506,167.631,79.692,167.828,80.892z"/>
	<path fill="#CB8A58" d="M166.478,76.026c-0.271-0.778-0.577-1.528-0.953-2.238c-0.376-0.71-0.821-1.375-1.338-1.977
		c-0.517-0.602-1.106-1.143-1.765-1.593c-0.659-0.449-1.384-0.807-2.16-1.084c0.822,0.077,1.631,0.347,2.362,0.757
		c0.733,0.41,1.391,0.959,1.938,1.599c0.548,0.638,0.985,1.365,1.31,2.134C166.195,74.393,166.407,75.205,166.478,76.026z"/>
	<path fill="#AD6C3A" d="M167.869,80.933c-0.395-1.15-0.767-2.301-1.174-3.436c-0.207-0.566-0.411-1.132-0.642-1.687
		c-0.226-0.556-0.463-1.106-0.734-1.637c-0.262-0.536-0.556-1.055-0.888-1.543c-0.327-0.493-0.708-0.945-1.13-1.358
		c-0.425-0.407-0.9-0.767-1.41-1.084c-0.506-0.324-1.042-0.608-1.565-0.92c0.569,0.212,1.133,0.438,1.684,0.709
		c0.546,0.274,1.076,0.605,1.548,1.011c0.478,0.401,0.888,0.874,1.254,1.375c0.362,0.505,0.67,1.042,0.947,1.59
		c0.27,0.552,0.511,1.116,0.726,1.688c0.209,0.575,0.407,1.152,0.573,1.739C167.4,78.547,167.672,79.733,167.869,80.933z"/>
	<path fill="#AD6C3A" d="M166.519,76.068c-0.271-0.778-0.577-1.528-0.953-2.238c-0.376-0.71-0.821-1.375-1.338-1.977
		c-0.517-0.602-1.106-1.143-1.765-1.593c-0.659-0.449-1.384-0.807-2.16-1.084c0.822,0.077,1.631,0.347,2.362,0.757
		c0.733,0.41,1.391,0.959,1.938,1.599c0.548,0.638,0.985,1.365,1.31,2.134C166.236,74.434,166.448,75.246,166.519,76.068z"/>
	<path fill="#AD6C3A" d="M182.312,91.283c-0.471-1.131-0.894-2.274-1.32-3.419c-0.418-1.146-0.836-2.291-1.239-3.439l-2.411-6.889
		l-1.223-3.434l-0.31-0.857l-0.157-0.438c-0.055-0.158-0.101-0.314-0.14-0.475c-0.158-0.638-0.186-1.303-0.113-1.941
		c0.074-0.641,0.247-1.257,0.475-1.842c0.226-0.587,0.514-1.141,0.832-1.67c0.628-1.068,1.403-2.016,2.131-2.994
		c-0.289,0.538-0.61,1.059-0.915,1.586c-0.305,0.527-0.599,1.056-0.861,1.598c-0.261,0.543-0.489,1.098-0.667,1.662
		c-0.174,0.565-0.291,1.142-0.32,1.717c-0.034,0.574,0.03,1.144,0.187,1.684c0.04,0.133,0.087,0.269,0.137,0.396
		c0.052,0.131,0.116,0.272,0.177,0.413l0.356,0.845c0.47,1.13,0.912,2.271,1.331,3.419c0.838,2.297,1.591,4.622,2.268,6.97
		c0.343,1.172,0.653,2.353,0.956,3.535C181.781,88.897,182.069,90.083,182.312,91.283z"/>
	<path fill="#AD6C3A" d="M170.287,93.243c-0.324,0.433-0.601,0.9-0.797,1.399c-0.197,0.496-0.316,1.025-0.314,1.555
		c0,0.528,0.122,1.054,0.361,1.518c0.238,0.465,0.593,0.865,1.02,1.153c0.428,0.286,0.927,0.463,1.435,0.491
		c0.505,0.028,1.021-0.092,1.456-0.341c0.438-0.248,0.835-0.648,1.378-0.887c0.134-0.059,0.276-0.108,0.421-0.143
		c0.138-0.033,0.282-0.058,0.423-0.075c0.284-0.034,0.572-0.04,0.865-0.003c0.146,0.019,0.293,0.048,0.443,0.101l0.095,0.035
		l0.088,0.027c0.06,0.019,0.121,0.036,0.183,0.05c0.246,0.063,0.499,0.1,0.755,0.117c0.512,0.035,1.033-0.014,1.54-0.118
		c1.011-0.215,1.988-0.667,2.741-1.353c0.375-0.342,0.687-0.747,0.883-1.198c0.2-0.449,0.277-0.942,0.225-1.43
		c-0.051-0.489-0.227-0.967-0.475-1.411c-0.25-0.444-0.568-0.855-0.923-1.237l-0.012-0.014l-0.009-0.012
		c-0.066-0.091-0.104-0.163-0.144-0.238c-0.039-0.073-0.075-0.146-0.11-0.218c-0.068-0.145-0.133-0.289-0.196-0.432
		c-0.125-0.287-0.241-0.576-0.357-0.864c-0.229-0.578-0.449-1.156-0.668-1.735c-0.434-1.159-0.86-2.32-1.278-3.483
		c-0.83-2.328-1.654-4.658-2.461-6.993l-1.21-3.504c-0.212-0.583-0.384-1.199-0.466-1.824c-0.082-0.626-0.079-1.263,0.014-1.886
		c0.091-0.623,0.272-1.229,0.516-1.804c0.245-0.575,0.551-1.12,0.891-1.64c0.34-0.519,0.711-1.016,1.094-1.501
		c0.382-0.485,0.775-0.964,1.142-1.459c-0.697,1.02-1.479,1.983-2.119,3.034c-0.641,1.044-1.136,2.194-1.273,3.403
		c-0.071,0.603-0.053,1.212,0.043,1.809c0.093,0.599,0.263,1.177,0.49,1.748c0.44,1.155,0.877,2.311,1.308,3.468l2.58,6.948
		c0.429,1.159,0.855,2.317,1.294,3.471c0.219,0.575,0.442,1.149,0.671,1.72c0.115,0.285,0.232,0.569,0.351,0.849
		c0.061,0.14,0.121,0.278,0.186,0.413c0.031,0.067,0.064,0.133,0.097,0.196c0.031,0.061,0.068,0.125,0.094,0.161l-0.023-0.026
		c0.378,0.41,0.726,0.858,1.004,1.358c0.275,0.498,0.481,1.055,0.539,1.642c0.064,0.586-0.035,1.196-0.279,1.732
		c-0.244,0.538-0.614,1.001-1.04,1.38c-0.427,0.381-0.91,0.685-1.419,0.926c-0.511,0.239-1.047,0.413-1.599,0.522
		c-0.551,0.108-1.117,0.148-1.683,0.098c-0.282-0.025-0.564-0.071-0.839-0.147c-0.07-0.019-0.138-0.041-0.208-0.063l-0.104-0.036
		l-0.095-0.035c-0.103-0.04-0.223-0.067-0.344-0.085c-0.244-0.037-0.499-0.038-0.75-0.013c-0.129,0.014-0.25,0.032-0.375,0.06
		c-0.119,0.024-0.235,0.062-0.349,0.11c-0.457,0.186-0.855,0.555-1.361,0.831c-0.513,0.272-1.095,0.388-1.667,0.341
		c-0.57-0.049-1.122-0.26-1.575-0.595c-0.457-0.333-0.821-0.783-1.056-1.291c-0.236-0.506-0.339-1.067-0.317-1.618
		c0.022-0.552,0.165-1.092,0.39-1.587C169.636,94.111,169.941,93.657,170.287,93.243z"/>
	<path fill="#AD6C3A" d="M165.829,73.622c-0.19-0.408-0.399-0.791-0.635-1.157c-0.236-0.364-0.497-0.711-0.782-1.034
		c-0.285-0.324-0.593-0.626-0.926-0.901c-0.336-0.273-0.697-0.515-1.096-0.725c0.448,0.062,0.879,0.246,1.264,0.49
		c0.388,0.243,0.735,0.549,1.036,0.892c0.301,0.344,0.559,0.726,0.756,1.138C165.643,72.733,165.787,73.173,165.829,73.622z"/>
</g>
<path fill="#3A1702" d="M163.17,66.908c1.604-1.251,0.395-5.812-0.309-7.672c-0.015-0.041-0.029-0.079-0.044-0.118
	c-0.004-0.011-0.009-0.023-0.013-0.034c-0.082-0.217-0.158-0.399-0.216-0.518c0.005,0.021,0.012,0.046,0.018,0.067
	c-0.015-0.029-0.032-0.068-0.045-0.091c0,0-0.314,0.977-1.148,1.56c0.064-0.307,0.097-0.573,0.063-0.7c0,0-1.117,1.153-2.158,1.03
	c-8.269,3.563-17.159-3.011-23.887,5.228c-0.045,0.033-0.089,0.061-0.135,0.095c-1.071,1.245-2.162,2.783-3.281,4.673
	c0.068-0.065,0.132-0.119,0.199-0.183c-0.057,0.094-0.112,0.177-0.168,0.273c10.338-6.56,27.702-2.67,29.921-3.248
	c0.031-0.008,0.062-0.014,0.093-0.022C162.419,67.15,162.788,67.041,163.17,66.908z"/>
<g>
	<defs>
		<path id="SVGID_1_" d="M190.15,129.168c-1.53,3.45-6.78,5.31-9.89,6.95c-0.34,0.19-0.66,0.37-0.95,0.55
			c-1.58,1-3.35,1.41-4.97,1.51c-2.95,0.2-5.44-0.59-5.44-0.59c-0.06,3.25,0.07,6.74,0.3,10.2c0.03,0.54,0.07,1.08,0.11,1.62
			c0.84,11.18,2.62,21.52,2.62,21.52c-13.59,14.34-34.72,7.04-34.72,7.04c-13.84-4-21.04-11.76-24.75-19.31
			c-4.91-10.03-3.68-19.68-3.68-19.68c8.05-9.57,4.45-36.96,4.45-36.96l-0.34-0.34l-6.58-6.51c-3.3-3.16-6.1-6.32-8.46-9.45
			c-4.57-6.1-7.49-12.11-9.25-17.79c-4.18-13.5-1.8-25.19,0.55-32.02c1.39-4.04,2.77-6.38,2.77-6.38l2.06-2.94l26.21-2.74
			l40.79-4.26l24.74,19.88c0,0,4.84,12.99,4.43,22.37c0,0-0.61,3-0.98,4.31c0,0-1.75,7.31-0.25,9.75c0,0,2.87,7,2.18,12.19
			c0,0-0.19,8.03-0.18,15.24c0.01,4.03,0.08,7.79,0.29,9.76C191.67,117.488,192.63,123.568,190.15,129.168z"/>
	</defs>
	<clipPath id="SVGID_2_">
		<use xlink:href="#SVGID_1_"  overflow="visible"/>
	</clipPath>
	<path clip-path="url(#SVGID_2_)" fill="#3A1702" d="M206.529,56.363c0.581,1.483-0.171-0.104-0.258-0.16
		c0.084,0.025,0.162,0.043,0.247,0.069c-1.828-1.179-2.73-1.972-2.786-1.982c-12.401-5.402-17.324,2.627-26.321,2.979
		c-0.885,0.542-2.391,0.004-2.391,0.004c0.024,0.126,0.169,0.344,0.361,0.584c-1.004-0.159-1.711-0.879-1.711-0.879
		c-0.002,0.025-0.001,0.067-0.001,0.098c-0.004-0.021-0.01-0.046-0.014-0.066c-0.001,0.129,0.01,0.319,0.03,0.542
		c0.001,0.012,0.002,0.024,0.003,0.037c0.003,0.039,0.007,0.077,0.011,0.119c0.173,1.914,1.063,6.395,3.051,6.815
		c0.402-0.044,0.781-0.103,1.149-0.17c0.031-0.006,0.061-0.013,0.092-0.019c1.915-0.361,3.392-1.013,4.657-1.824
		C184.535,61.394,195.387,55.086,206.529,56.363z"/>
	<g clip-path="url(#SVGID_2_)">
		
			<radialGradient id="SVGID_3_" cx="203.221" cy="-585.6119" r="20.939" gradientTransform="matrix(0.972 -0.2352 0.2352 0.972 124.5605 688.1626)" gradientUnits="userSpaceOnUse">
			<stop  offset="0.1532" style="stop-color:#FFFFFF"/>
			<stop  offset="1" style="stop-color:#C8C8C8"/>
		</radialGradient>
		<path fill="url(#SVGID_3_)" d="M192.164,70.48c-0.271-0.277-10.324-7.786-15.211,3.018c1.748,0.686,8.876,4.229,14.708-3.392"/>
		<g>
			<g>
				<path fill="#473421" d="M186.88,69.785c0.353,1.607-0.664,3.197-2.271,3.55c-1.607,0.353-3.196-0.664-3.549-2.271
					c-0.353-1.607,0.567-2.953,2.175-3.307C184.842,67.404,186.527,68.178,186.88,69.785z"/>
				<path fill="#473421" d="M186.897,69.781c0.163,0.751,0.078,1.574-0.31,2.275c-0.192,0.349-0.457,0.663-0.782,0.903
					c-0.162,0.122-0.337,0.226-0.521,0.308c-0.183,0.086-0.376,0.148-0.572,0.191c-0.394,0.085-0.803,0.086-1.192,0.013
					c-0.391-0.075-0.762-0.227-1.094-0.432c-0.666-0.409-1.185-1.057-1.417-1.816c-0.114-0.377-0.171-0.778-0.135-1.181
					c0.038-0.4,0.162-0.8,0.379-1.147c0.215-0.347,0.512-0.644,0.853-0.867c0.341-0.227,0.728-0.371,1.123-0.457
					c0.394-0.076,0.804-0.095,1.202-0.039c0.399,0.055,0.788,0.188,1.131,0.392c0.345,0.202,0.643,0.477,0.871,0.796
					C186.659,69.04,186.818,69.402,186.897,69.781z M186.864,69.788c-0.085-0.372-0.256-0.726-0.506-1.009
					c-0.248-0.286-0.564-0.503-0.901-0.652c-0.34-0.148-0.701-0.233-1.064-0.267c-0.365-0.033-0.734-0.013-1.091,0.068
					c-0.71,0.149-1.383,0.528-1.782,1.136c-0.403,0.601-0.507,1.382-0.341,2.112c0.084,0.363,0.239,0.714,0.463,1.017
					c0.113,0.152,0.242,0.291,0.381,0.419c0.143,0.124,0.296,0.235,0.46,0.327c0.66,0.375,1.459,0.44,2.161,0.24
					c0.708-0.191,1.334-0.63,1.766-1.235c0.212-0.304,0.374-0.65,0.455-1.021c0.043-0.184,0.059-0.375,0.062-0.566
					C186.925,70.166,186.902,69.975,186.864,69.788z"/>
			</g>
			<g>
				<circle fill="#201600" cx="184.371" cy="70.336" r="2.02"/>
				<path fill="#201600" d="M184.817,72.364c-1.119,0.246-2.227-0.464-2.473-1.582c-0.246-1.119,0.463-2.228,1.582-2.474
					c1.118-0.246,2.229,0.464,2.475,1.583C186.646,71.008,185.935,72.118,184.817,72.364z M183.95,68.418
					c-1.057,0.232-1.728,1.282-1.496,2.339c0.232,1.057,1.281,1.728,2.338,1.495c1.057-0.232,1.729-1.281,1.496-2.338
					C186.056,68.857,185.006,68.186,183.95,68.418z"/>
			</g>
		</g>
		<g>
			<path fill="#FFB486" d="M192.462,70.783c-0.099-0.182-0.259-0.313-0.416-0.441c-0.157-0.127-0.323-0.246-0.494-0.355
				c-0.341-0.22-0.69-0.425-1.052-0.607c-0.72-0.37-1.463-0.682-2.222-0.93c-1.513-0.496-3.101-0.738-4.621-0.52
				c-0.38,0.052-0.754,0.136-1.117,0.25c-0.366,0.111-0.719,0.257-1.061,0.427c-0.685,0.34-1.316,0.8-1.889,1.34
				c-0.573,0.538-1.083,1.157-1.548,1.82c-0.471,0.66-0.879,1.373-1.286,2.098c0.186-0.812,0.473-1.6,0.833-2.363
				c0.367-0.76,0.827-1.485,1.395-2.136c0.566-0.652,1.248-1.221,2.02-1.653c0.386-0.215,0.792-0.392,1.212-0.536
				c0.421-0.139,0.852-0.239,1.288-0.303c0.437-0.06,0.876-0.086,1.315-0.077c0.436,0.012,0.871,0.053,1.298,0.126
				c0.854,0.146,1.679,0.404,2.459,0.745c0.78,0.343,1.519,0.767,2.198,1.269c0.337,0.255,0.664,0.522,0.962,0.821
				c0.149,0.149,0.293,0.304,0.424,0.471c0.064,0.084,0.124,0.171,0.18,0.261C192.395,70.582,192.446,70.68,192.462,70.783z"/>
			<path fill="#AD6C3A" d="M192.164,70.48c-0.3-0.238-0.628-0.439-0.955-0.637c-0.328-0.198-0.662-0.383-1.004-0.557
				c-0.682-0.346-1.387-0.646-2.111-0.884c-1.44-0.484-2.981-0.728-4.477-0.515c-0.746,0.107-1.472,0.327-2.145,0.659
				c-0.673,0.331-1.288,0.775-1.833,1.294c-1.094,1.037-1.9,2.352-2.524,3.731l-0.098-0.238c0.646,0.265,1.269,0.529,1.919,0.74
				c0.647,0.215,1.308,0.384,1.977,0.506c1.337,0.244,2.718,0.251,4.05-0.02c1.333-0.271,2.6-0.842,3.72-1.625
				c1.13-0.774,2.108-1.76,2.976-2.829c-0.805,1.117-1.763,2.136-2.876,2.968c-1.116,0.826-2.4,1.438-3.763,1.749
				c-1.363,0.318-2.79,0.315-4.164,0.086c-0.689-0.114-1.366-0.291-2.028-0.506c-0.662-0.212-1.309-0.483-1.94-0.739l-0.173-0.07
				l0.076-0.168c0.639-1.407,1.472-2.757,2.615-3.832c0.572-0.532,1.22-0.99,1.928-1.328c0.706-0.341,1.47-0.559,2.246-0.652
				c0.776-0.094,1.56-0.068,2.326,0.045c0.768,0.115,1.519,0.315,2.245,0.577c0.724,0.267,1.424,0.594,2.097,0.967
				C190.92,69.578,191.577,69.985,192.164,70.48z"/>
			<path fill="#AD6C3A" d="M192.462,70.783c-0.023-0.044-0.062-0.075-0.097-0.108c-0.037-0.033-0.076-0.063-0.114-0.093
				c-0.077-0.06-0.157-0.116-0.239-0.17c-0.161-0.111-0.327-0.214-0.495-0.314c-0.336-0.198-0.677-0.385-1.029-0.55
				c-0.348-0.17-0.701-0.326-1.062-0.463c-0.36-0.136-0.722-0.267-1.09-0.372c-1.467-0.424-3.004-0.57-4.472-0.285
				c-0.733,0.139-1.444,0.385-2.115,0.72c-0.673,0.333-1.301,0.761-1.893,1.244c-1.179,0.978-2.174,2.191-3.1,3.472
				c0.625-1.452,1.5-2.823,2.666-3.954c0.579-0.567,1.239-1.064,1.962-1.46c0.361-0.197,0.738-0.366,1.127-0.509
				c0.39-0.138,0.791-0.249,1.196-0.328c0.814-0.154,1.648-0.182,2.464-0.092c0.815,0.09,1.613,0.288,2.369,0.579
				c0.759,0.284,1.476,0.659,2.147,1.094c0.333,0.223,0.658,0.457,0.963,0.716c0.151,0.129,0.299,0.263,0.441,0.404
				c0.07,0.071,0.139,0.144,0.204,0.22C192.358,70.612,192.429,70.687,192.462,70.783z"/>
		</g>
	</g>
	<path clip-path="url(#SVGID_2_)" fill="#AD6C3A" d="M190.561,66.555c0,0-6.364-3.504-12.881,2.022
		C177.681,68.577,181.427,60.939,190.561,66.555z"/>
</g>
<g>
	<g>
		
			<radialGradient id="SVGID_4_" cx="161.7937" cy="-524.5494" r="20.2113" gradientTransform="matrix(0.9767 -0.2146 0.2146 0.9767 106.8381 624.2538)" gradientUnits="userSpaceOnUse">
			<stop  offset="0.1532" style="stop-color:#FFFFFF"/>
			<stop  offset="1" style="stop-color:#C8C8C8"/>
		</radialGradient>
		<path fill="url(#SVGID_4_)" d="M160.89,75.879c-0.389-0.216-10.222-6.889-17.19,2.826c1.991,0.83,9.592,6.317,16.88-3.018"/>
		<g>
			<g>
				<path fill="#473421" d="M155.72,75.228c0.393,1.787-0.738,3.555-2.526,3.948c-1.787,0.393-3.555-0.739-3.948-2.526
					c-0.393-1.788,0.63-3.284,2.419-3.678C153.453,72.581,155.327,73.441,155.72,75.228z"/>
				<path fill="#473421" d="M155.739,75.224c0.181,0.835,0.087,1.75-0.344,2.53c-0.213,0.388-0.508,0.737-0.87,1.004
					c-0.18,0.136-0.374,0.251-0.58,0.342c-0.204,0.096-0.419,0.165-0.637,0.213c-0.438,0.095-0.894,0.096-1.326,0.014
					c-0.434-0.083-0.847-0.252-1.217-0.48c-0.74-0.455-1.318-1.175-1.576-2.02c-0.126-0.419-0.19-0.866-0.15-1.314
					c0.042-0.445,0.18-0.889,0.421-1.275c0.239-0.386,0.57-0.716,0.948-0.964c0.379-0.253,0.81-0.413,1.249-0.508
					c0.438-0.085,0.894-0.106,1.337-0.043c0.443,0.061,0.876,0.209,1.258,0.437c0.384,0.225,0.715,0.531,0.969,0.886
					C155.474,74.4,155.651,74.803,155.739,75.224z M155.702,75.232c-0.094-0.414-0.285-0.807-0.563-1.122
					c-0.275-0.318-0.627-0.559-1.002-0.725c-0.379-0.165-0.78-0.259-1.184-0.297c-0.406-0.036-0.816-0.015-1.213,0.076
					c-0.79,0.165-1.538,0.588-1.982,1.263c-0.448,0.668-0.564,1.538-0.379,2.349c0.093,0.404,0.266,0.795,0.515,1.131
					c0.125,0.17,0.269,0.324,0.424,0.466c0.159,0.137,0.329,0.261,0.512,0.364c0.734,0.417,1.622,0.489,2.404,0.267
					c0.787-0.213,1.483-0.7,1.964-1.374c0.236-0.338,0.416-0.723,0.506-1.136c0.048-0.205,0.066-0.418,0.069-0.63
					C155.77,75.652,155.745,75.441,155.702,75.232z"/>
			</g>
			<g>
				<circle fill="#201600" cx="152.93" cy="75.842" r="2.247"/>
				<path fill="#201600" d="M153.425,78.097c-1.245,0.273-2.477-0.516-2.751-1.76c-0.273-1.244,0.515-2.478,1.759-2.752
					c1.244-0.273,2.479,0.516,2.752,1.76C155.459,76.589,154.669,77.823,153.425,78.097z M152.461,73.708
					c-1.176,0.258-1.922,1.426-1.664,2.602c0.258,1.176,1.425,1.922,2.601,1.663c1.176-0.258,1.923-1.425,1.664-2.6
					C154.804,74.197,153.636,73.45,152.461,73.708z"/>
			</g>
		</g>
		<g>
			<path fill="#FFB486" d="M161.675,76.146c-0.807-0.49-1.628-0.932-2.472-1.316c-0.841-0.387-1.699-0.724-2.571-0.988
				c-1.739-0.533-3.552-0.777-5.305-0.541c-0.438,0.057-0.872,0.145-1.296,0.263c-0.426,0.113-0.843,0.262-1.251,0.436
				c-0.817,0.346-1.589,0.807-2.312,1.347c-1.452,1.083-2.687,2.483-3.841,3.976c0.748-1.732,1.826-3.358,3.273-4.665
				c0.722-0.652,1.542-1.212,2.435-1.639c0.446-0.214,0.911-0.39,1.387-0.534c0.476-0.14,0.963-0.242,1.454-0.31
				c0.493-0.063,0.988-0.092,1.483-0.084c0.492,0.01,0.985,0.05,1.468,0.127c0.969,0.15,1.91,0.422,2.804,0.785
				c0.895,0.365,1.746,0.817,2.542,1.342C160.263,74.878,161.023,75.458,161.675,76.146z"/>
			<path fill="#AD6C3A" d="M160.89,75.879c-1.398-0.824-2.9-1.475-4.466-1.871c-1.559-0.406-3.193-0.555-4.781-0.327
				c-0.793,0.114-1.57,0.317-2.314,0.608c-0.744,0.292-1.451,0.675-2.108,1.128c-1.32,0.906-2.435,2.092-3.369,3.396l-0.08-0.284
				c0.383,0.166,0.729,0.356,1.085,0.537c0.354,0.182,0.708,0.358,1.068,0.523c0.719,0.333,1.455,0.617,2.211,0.84
				c1.508,0.448,3.108,0.598,4.664,0.348c1.556-0.247,3.034-0.906,4.328-1.816c1.308-0.903,2.437-2.047,3.452-3.277
				c-0.475,0.641-0.988,1.257-1.545,1.831c-0.557,0.576-1.155,1.114-1.8,1.594c-1.29,0.954-2.789,1.662-4.386,1.95
				c-1.598,0.301-3.259,0.152-4.812-0.29c-0.778-0.217-1.533-0.513-2.266-0.846c-0.365-0.167-0.726-0.346-1.083-0.526
				c-0.356-0.18-0.711-0.372-1.061-0.522l-0.217-0.093l0.138-0.191c0.955-1.331,2.105-2.545,3.471-3.473
				c1.365-0.924,2.948-1.543,4.587-1.731c1.638-0.199,3.299-0.009,4.868,0.438c0.785,0.227,1.549,0.519,2.288,0.862
				c0.37,0.171,0.733,0.355,1.089,0.553C160.206,75.441,160.552,75.656,160.89,75.879z"/>
		</g>
	</g>
	<path fill="#AD6C3A" d="M160.738,75.66c0,0-1.036-0.68-2.774-1.264c-0.434-0.143-0.904-0.291-1.415-0.397
		c-0.502-0.139-1.048-0.197-1.604-0.291c-0.562-0.029-1.143-0.108-1.729-0.061c-0.293,0.018-0.588,0.036-0.884,0.054
		c-0.294,0.029-0.583,0.106-0.875,0.156c-0.59,0.08-1.138,0.317-1.685,0.503c-0.549,0.183-1.03,0.508-1.528,0.734
		c-0.495,0.242-0.909,0.589-1.354,0.837c-0.226,0.121-0.421,0.274-0.601,0.435c-0.189,0.15-0.372,0.295-0.548,0.435
		c-0.348,0.283-0.707,0.508-0.952,0.786c-0.261,0.26-0.496,0.484-0.699,0.662c-0.396,0.365-0.64,0.566-0.64,0.566l-0.004,0.004
		c-0.021,0.018-0.053,0.015-0.071-0.007c-0.014-0.016-0.015-0.039-0.005-0.056c0,0,0.151-0.27,0.448-0.73
		c0.143-0.234,0.328-0.512,0.549-0.826c0.203-0.329,0.501-0.643,0.831-0.987c0.342-0.328,0.657-0.753,1.116-1.059
		c0.444-0.321,0.905-0.682,1.431-0.974c0.559-0.23,1.098-0.559,1.716-0.708c0.613-0.16,1.223-0.363,1.865-0.404
		c0.317-0.035,0.631-0.096,0.947-0.108c0.316,0,0.632,0,0.944-0.001c0.624-0.01,1.23,0.108,1.814,0.176
		c0.575,0.135,1.139,0.221,1.645,0.41c0.517,0.152,0.986,0.343,1.417,0.525c0.857,0.371,1.537,0.746,1.996,1.035
		c0.463,0.281,0.708,0.472,0.708,0.472c0.022,0.016,0.028,0.047,0.012,0.07C160.792,75.669,160.76,75.673,160.738,75.66z"/>
</g>
<path fill="#AD6C3A" d="M157.344,71.702c0,0-6.286-3.641-12.921,1.742C144.422,73.444,148.334,65.889,157.344,71.702z"/>
<path fill="#F1F1FC" d="M108.779,138.978c0,0,19.14,34.277,50.387,34.193c0,0,2.514,0.665,0,3.333c0,0-15.167,17.333-16.667,21.667
	l-1.667,3.333c0,0-44.5-40.833-45.5-49.333c-0.721-6.127,13.167-13.993,13.167-13.993L108.779,138.978z"/>
<path fill="#041B38" d="M178.67,191.338c-7.34,1-12.34,5.83-12.34,5.83c-10-7.33-12.07-14.92-12.07-14.92l5.587-8.709l12.088-2.611
	c3.83,0.07,3.55,0.597,3.55,0.597C178.814,183.516,178.67,191.338,178.67,191.338z"/>
<path fill="#F1F1FC" d="M181.75,192.588c-3.079-15.375-9.82-21.66-9.82-21.66s-1.78-10.34-2.62-21.52
	c-0.04-0.54-0.08-1.08-0.11-1.62l0.11-0.23C187.62,161.528,181.75,192.588,181.75,192.588z"/>
<path fill="#2D2D2D" d="M131.773,69.582l-23.86,6.856c-0.5,0.154-4.874,1.528-5.326,2.653c-0.057,0.142-0.056,0.282,0.001,0.41
	c0.009,0.02,0.02,0.041,0.032,0.06c0.043,0.07,0.1,0.128,0.169,0.176c0.002,0.008,0.005,0.015,0.007,0.023
	c-0.012,0.093-0.008,0.184,0.03,0.269c0.009,0.02,0.02,0.041,0.032,0.06c0.085,0.139,0.225,0.234,0.416,0.282
	c1.296,0.327,5.298-1.499,5.691-1.718l23.919-2.493L131.773,69.582z"/>
<g>
	<path fill="#2D2D2D" d="M176.266,66.8c0,0-0.521,0.307-1.363,0.678l-0.001-0.016c-0.034,0.021-0.068,0.041-0.102,0.061
		c-0.913,0.395-2.178,0.853-3.564,1.089c-1.41,0.148-2.782,0.049-3.805-0.088c-0.04-0.011-0.08-0.021-0.12-0.032l0.003,0.016
		c-0.957-0.134-1.575-0.295-1.575-0.295c-14.668-2.957-31.582,1.165-31.582,1.165c-1.456,2.111,0.96,9.426,0.96,9.426
		c4.807,10.943,7.37,13.179,7.37,13.179c9.51,5.05,18.552,0.195,18.552,0.195c7.215-3.277,7.872-16.016,7.872-16.016
		s1.338-1.228,3.131-1.61c1.8-0.178,3.363,0.578,3.363,0.578s3.838,11.618,10.766,11.989c0,0,5.811,1.651,11.41-5.466
		c0,0,1.78-2.398,2.187-12.391c0,0-0.516-6.012-1.256-7.681C198.511,61.581,187.864,60.822,176.266,66.8z M166.535,76.817
		c-0.271,7.008-2.056,9.395-2.056,9.395c-1.88,3.523-5.692,5.101-5.692,5.101c-2.797,1.603-9.591,1.181-9.591,1.181
		c-5.792-0.03-7.451-3.593-7.451-3.593c-1.707-2.944-3.796-9.998-3.796-9.998c-1.874-6.553,1.622-7.478,1.622-7.478
		c13.33-5.069,23.853-0.922,23.853-0.922C167.105,72.287,166.535,76.817,166.535,76.817z M197.938,69.978
		c0,0,0.047,6.164-0.492,8.985c0,0-0.385,3.344-4.42,5.118c0,0-2.691,1.948-5.247,1.505c0,0-3.474-0.087-5.914-2.608
		c0,0-2.138-1.577-4.137-7.948c0,0-1.665-4.056,1.177-6.694c0,0,5.509-5.573,16.411-4.051
		C195.317,64.285,197.851,64.326,197.938,69.978z"/>
	<path fill="#2D2D2D" d="M131.205,69.751c0,0,0.438,4.045,1.68,6.409c0,0,1.544,0.213,1.531,0.159
		c-0.013-0.054-0.013-0.054-0.013-0.054l-0.246-6.887C134.157,69.379,132.252,69.386,131.205,69.751z"/>
	<path opacity="0.2" fill="#F2F6F5" d="M163.423,70.503c0,0-10.523-4.147-23.853,0.922c0,0-3.496,0.925-1.622,7.478
		c0,0,2.089,7.054,3.796,9.998c0,0,1.659,3.563,7.451,3.593c0,0,6.794,0.422,9.591-1.181c0,0,3.812-1.579,5.692-5.101
		c0,0,1.786-2.387,2.056-9.395C166.535,76.817,167.105,72.287,163.423,70.503z"/>
	<path opacity="0.2" fill="#F2F6F5" d="M197.938,69.979c0,0,0.044,6.163-0.494,8.982c0,0-0.264,2.335-2.7,4.125
		c-0.485,0.368-1.052,0.7-1.719,0.999c0,0-2.685,1.944-5.248,1.496c0,0-3.469-0.081-5.913-2.601c0,0-2.137-1.58-4.139-7.953
		c0,0-1.658-4.058,1.176-6.69c0,0,4.589-4.844,14.484-4.246c0.631,0.037,1.278,0.092,1.935,0.189
		C195.32,64.279,197.852,64.328,197.938,69.979z"/>
	<path opacity="0.3" d="M186.929,62.92l0.182,1.593c2.45-0.467,5.211-0.646,8.206-0.228c0,0,2.534,0.041,2.621,5.693
		c0,0,0.047,6.164-0.492,8.985c0,0-0.385,3.344-4.42,5.118c0,0-1.635,0.839-3.511,1.471l0.175,1.529
		c2.517-0.757,5.43-2.3,7.89-5.427c0,0,1.655-1.69,2.187-12.391c0,0-0.549-6.143-1.256-7.681
		C198.511,61.581,193.505,61.522,186.929,62.92z"/>
	<path opacity="0.3" d="M167.31,68.492l0.003,0.016c-0.957-0.134-1.575-0.295-1.575-0.295c-4.395-0.886-8.99-1.135-13.297-1.049
		l0.274,1.749c6.466-0.068,10.707,1.589,10.707,1.589c3.681,1.784,3.111,6.314,3.111,6.314c-0.271,7.008-2.056,9.395-2.056,9.395
		c-1.88,3.523-5.692,5.101-5.692,5.101c-0.645,0.369-1.499,0.627-2.43,0.811l0.251,1.6c2.709-0.623,4.432-1.546,4.432-1.546
		c7.215-3.277,7.872-16.016,7.872-16.016s1.338-1.228,3.131-1.61l-0.805-5.94c-1.41,0.148-2.782,0.049-3.805-0.088
		C167.39,68.514,167.35,68.503,167.31,68.492z"/>
	<path opacity="0.2" fill="#F2F6F5" d="M163.423,70.503c0,0-4.216-1.649-10.65-1.59l3.636,23.201c0.91-0.183,1.744-0.438,2.376-0.8
		c0,0,3.812-1.579,5.692-5.101c0,0,1.786-2.387,2.056-9.395C166.535,76.817,167.105,72.287,163.423,70.503z"/>
	<path opacity="0.2" fill="#F2F6F5" d="M195.317,64.285c-2.994-0.418-5.755-0.238-8.206,0.228l2.404,21.039
		c1.876-0.632,3.511-1.471,3.511-1.471c4.034-1.774,4.42-5.118,4.42-5.118c0.539-2.821,0.492-8.985,0.492-8.985
		C197.851,64.326,195.317,64.285,195.317,64.285z"/>
</g>
<path fill="#B56C43" d="M191.204,113.088c-0.21-1.97-0.272-7.741-0.282-11.771c-1.639-1.874-5.449-3.551-12.086-1.61
	c-6.101,1.784-14.779,0-20.303,13.131c-0.768,1.827-0.258,8.59-4.508,6.52c-0.01-0.01-0.02-0.01-0.03-0.02
	c-0.42-0.21-0.86-0.45-1.33-0.75c0,0-0.02-0.01-0.06-0.03c2.84,4.04,9.63,12.5,20.78,19.52l0.95,0.1c1.62-0.1,3.39-0.51,4.97-1.51
	c0.29-0.18,0.61-0.36,0.95-0.55c3.11-1.64,8.36-3.5,9.89-6.95C192.625,123.568,191.665,117.488,191.204,113.088z M188.075,119.338
	c-1.007,0.461-3.63,1.201-4.885-0.88c-0.392-0.643-0.153-2.296-2.04-2.316c-0.918-0.012-2.294,0.284-3.098,1.583
	c-0.237,0.38-0.246,1.278,0.028,2.389c0.193,0.765-0.395,2.225-1.549,3.444c-5.79,6.114-13.185-1.203-12.956-5.844
	c0.417-8.459,4.569-10.633,9.445-11.375c3.841-0.585,16.639-5.417,16.472,4C189.457,112.271,191.234,117.896,188.075,119.338z"/>
<g>
	<path fill="#E09563" d="M187.798,107.752c-0.053,0.124-0.108,0.236-0.16,0.36c-3.211,6.27-10.927,10.554-21.076,3.377
		c-0.044-0.03-0.087-0.06-0.146-0.099c0.068,0.025,0.139,0.062,0.216,0.073l0.395-0.125c0,0,5.309-2.601,6.382-2.956
		c1.386-0.44,3.054,0.208,4.833-0.166c2.726-0.591,3.883-1.59,4.801-1.68C184.67,106.375,185.93,107.04,187.798,107.752z"/>
	<path fill="#C95240" d="M187.984,107.73c-0.102,0.133-0.217,0.256-0.346,0.382c-0.098,0.082-0.199,0.152-0.315,0.212
		c-0.263,0.151-0.579,0.223-0.867,0.24c-0.603,0.025-1.178-0.069-1.747-0.062c-0.281-0.01-0.557,0.004-0.841,0.045
		c-0.063-0.001-0.137,0.013-0.21,0.027c-0.061,0.012-0.122,0.023-0.193,0.049c-0.12,0.035-0.25,0.085-0.378,0.147
		c-0.27,0.114-0.525,0.239-0.782,0.351c-0.267,0.127-0.535,0.253-0.805,0.368c-0.542,0.216-1.088,0.408-1.652,0.578
		c-0.289,0.08-0.568,0.145-0.859,0.213c-0.291,0.068-0.587,0.111-0.888,0.13c-0.586,0.048-1.177,0.007-1.755-0.036
		c-0.578-0.043-1.144-0.088-1.692-0.035c-0.134,0.025-0.271,0.039-0.403,0.076c-0.12,0.035-0.264,0.075-0.395,0.125l-0.823,0.27
		c-0.549,0.18-1.095,0.372-1.658,0.542c-0.551,0.168-1.119,0.313-1.711,0.4c-0.296,0.043-0.596,0.062-0.889,0.054
		c-0.293-0.008-0.586-0.016-0.886-0.061c-0.427-0.046-0.851-0.143-1.257-0.282l0.395-0.125c0.304,0.069,0.604,0.114,0.899,0.134
		c0.283,0.022,0.564,0.033,0.854,0.029c0.276-0.014,0.552-0.028,0.833-0.082c0.553-0.092,1.104-0.259,1.655-0.427
		c0.549-0.18,1.083-0.369,1.63-0.561c0.272-0.102,0.546-0.192,0.821-0.282c0.142-0.052,0.274-0.09,0.431-0.132
		c0.157-0.042,0.303-0.07,0.452-0.086c0.607-0.077,1.199-0.024,1.777,0.019c0.566,0.045,1.132,0.09,1.694,0.047
		c0.276-0.014,0.56-0.055,0.827-0.118c0.279-0.065,0.558-0.131,0.835-0.208c0.556-0.143,1.092-0.321,1.622-0.535
		c0.532-0.202,1.054-0.453,1.594-0.681c0.142-0.052,0.284-0.104,0.429-0.144l0.232-0.044c0.073-0.014,0.147-0.028,0.222-0.029
		c0.298-0.031,0.589-0.035,0.884-0.015c0.588,0.028,1.165,0.134,1.722,0.13c0.278-0.002,0.562-0.043,0.805-0.165
		c0.209-0.103,0.396-0.252,0.551-0.434c0.034-0.019,0.064-0.063,0.096-0.094C188.067,107.435,188.323,107.248,187.984,107.73z"/>
	<defs>
		<filter id="Adobe_OpacityMaskFilter" filterUnits="userSpaceOnUse" x="173.639" y="110.274" width="9.846" height="4.341">
			<feFlood  style="flood-color:white;flood-opacity:1" result="back"/>
			<feBlend  in="SourceGraphic" in2="back" mode="normal"/>
		</filter>
	</defs>
	<mask maskUnits="userSpaceOnUse" x="173.639" y="110.274" width="9.846" height="4.341" id="SVGID_5_">
		<g filter="url(#Adobe_OpacityMaskFilter)">
			<defs>
				<filter id="Adobe_OpacityMaskFilter_1_" filterUnits="userSpaceOnUse" x="173.639" y="110.274" width="9.846" height="4.341">
					<feFlood  style="flood-color:white;flood-opacity:1" result="back"/>
					<feBlend  in="SourceGraphic" in2="back" mode="normal"/>
				</filter>
			</defs>
			<mask maskUnits="userSpaceOnUse" x="173.639" y="110.274" width="9.846" height="4.341" id="SVGID_5_">
				<g filter="url(#Adobe_OpacityMaskFilter_1_)">
				</g>
			</mask>
			
				<linearGradient id="SVGID_6_" gradientUnits="userSpaceOnUse" x1="86.407" y1="-53.9987" x2="98.7654" y2="-53.589" gradientTransform="matrix(0.9826 -0.1858 0.1858 0.9826 98.3735 182.6471)">
				<stop  offset="0" style="stop-color:#FFFFFF"/>
				<stop  offset="1" style="stop-color:#000000"/>
			</linearGradient>
			<path mask="url(#SVGID_5_)" fill="url(#SVGID_6_)" d="M183.466,110.882c0.231,1.224-1.692,3.086-4.401,3.598
				c-2.71,0.512-5.18-0.519-5.411-1.743c-0.232-1.225,2.241-1.135,4.952-1.648C181.315,110.577,183.235,109.657,183.466,110.882z"/>
		</g>
	</mask>
	<path fill="#E09563" d="M183.466,110.882c0.231,1.224-1.692,3.086-4.401,3.598c-2.71,0.512-5.18-0.519-5.411-1.743
		c-0.232-1.225,2.241-1.135,4.952-1.648C181.315,110.577,183.235,109.657,183.466,110.882z"/>
</g>
</svg>
