<?xml version="1.0" encoding="utf-8"?>
<!-- Generator: Adobe Illustrator 17.0.0, SVG Export Plug-In . SVG Version: 6.00 Build 0)  -->
<!DOCTYPE svg PUBLIC "-//W3C//DTD SVG 1.1//EN" "http://www.w3.org/Graphics/SVG/1.1/DTD/svg11.dtd">
<svg version="1.1" id="Layer_1" xmlns="http://www.w3.org/2000/svg" xmlns:xlink="http://www.w3.org/1999/xlink" x="0px" y="0px"
	 width="265.547px" height="922.818px" viewBox="0 0 265.547 922.818" enable-background="new 0 0 265.547 922.818"
	 xml:space="preserve">
<g>
	<path fill="#FFB486" d="M111.525,129.168c1.53,3.45,6.78,5.31,9.89,6.95c0.34,0.19,0.66,0.37,0.95,0.55
		c1.49,0.94,3.15,1.36,4.7,1.49c0.09,0.01,0.18,0.01,0.27,0.02c2.95,0.2,5.44-0.59,5.44-0.59v0.01c0.06,3.25-0.07,6.73-0.3,10.19
		c-0.03,0.54-0.07,1.08-0.11,1.62c-0.84,11.18-2.62,21.52-2.62,21.52c13.59,14.34,34.72,7.04,34.72,7.04
		c13.84-4,21.04-11.76,24.75-19.31c4.91-10.03,3.68-19.68,3.68-19.68c-8.05-9.57-4.45-36.96-4.45-36.96l0.34-0.34
		c0.01,0,0.01,0,0.01,0l6.58-6.51c1.23-1.19,2.4-2.37,3.49-3.55c0.74-0.79,1.44-1.58,2.12-2.37c0.06-0.06,0.11-0.12,0.16-0.18
		c0.28-0.33,0.56-0.66,0.83-1c0.32-0.39,0.64-0.78,0.939-1.17c0.311-0.4,0.61-0.79,0.91-1.18c4.57-6.1,7.49-12.11,9.25-17.79
		c1.97-6.35,2.48-12.3,2.23-17.53c-0.01-0.45-0.04-0.91-0.08-1.35c-0.061-0.81-0.14-1.61-0.23-2.39c0-0.04,0-0.07-0.01-0.1
		c-0.05-0.35-0.1-0.7-0.15-1.04c-0.21-1.52-0.49-2.95-0.79-4.28c-0.23-0.98-0.47-1.91-0.71-2.78c-0.01-0.02-0.01-0.04-0.02-0.06
		c-0.09-0.29-0.18-0.58-0.26-0.87c0-0.04-0.01-0.07-0.03-0.11c-0.17-0.53-0.34-1.03-0.5-1.51c-1.39-4.04-2.77-6.38-2.77-6.38
		l-2.06-2.94l-26.21-2.74l-40.79-4.26l-24.74,19.88c0,0-4.84,12.99-4.43,22.37c0,0,0.61,3,0.98,4.31c0,0,1.75,7.31,0.25,9.75
		c0,0-2.87,7-2.18,12.19c0,0,0.19,8.03,0.18,15.24c-0.01,4.03-0.08,7.79-0.29,9.76C110.005,117.488,109.045,123.568,111.525,129.168
		z"/>
	<g>
		<path fill="#FFB486" d="M45.762,471.915c0,0,1.145,1.907,4.814,3.003c2.886,0.857,34.698,4.351,40.71-7.323
			c0,0,5.574-24.381,4.868-33.813c-0.122,0.075-0.264,0.147-0.406,0.218c-0.175,0.09-10.058-43.659-10.252-43.579
			c-0.153,0.078-26.755,40.233-28.564,39.611C56.933,430.033,43.262,454.545,45.762,471.915z"/>
		<path fill="#FCA779" d="M50.577,474.918c2.886,0.857,34.698,4.351,40.71-7.323c0,0,5.574-24.381,4.868-33.813
			c-0.122,0.075-0.264,0.147-0.406,0.218c-0.175,0.09-0.36,0.179-0.554,0.259C95.042,434.337,73.108,474.977,50.577,474.918z"/>
	</g>
	<path fill="#000104" d="M235.191,852.581v4.308c0,0,2.389,7.2,1.889,14.95l-0.91,3.625c0,0,1.59,29,0,31.5
		c0,0-10.465,10-28.715,15.5c0,0-13.625,2-25.125-3.5c0,0-1.25-14.25,1.375-22.25l8.625-32.375c0,0,1.5-7.595,4-8.86l0.235-4.849
		L235.191,852.581z"/>
	<path fill="#1D2028" d="M217.58,874.463c0,0,2.5,0.25,2.75,6.5l0.625,12.25c0,0-0.227,7.5-8.926,14.875c0,0-11.907,9-26.866,5
		c0,0-3.958,0,1.292-17.125l7.125-30.875c0,0,1.277-3.625,8.764,4.375C202.344,869.463,209.705,875.213,217.58,874.463z"/>
	<path fill="#31313E" d="M211.997,877.338c0,0-8,28.5-14.167,32.5c0,0-10.667,4-12.667,0l7.167-37.833c0,0,0.833-7.25,2.75-5.333
		c0,0,11,12,15.917,9.833C210.997,876.505,212.244,876.478,211.997,877.338z"/>
	<path fill="#000104" d="M51.16,850.588c0.24,1.51,0.67,2.5,0.67,2.5c21,6.75,50.5-2.46,50.5-2.46c15.5-4.21,28.5-18.79,28.5-18.79
		c19.5,5,30.33-9.33,30.33-9.33v-13.17c3-10.5,1.17-19.83,1.17-19.83l-1-1.17H146.6l-33.95,3.26l-5.99,0.57
		c-1.22,2.08-2.5,4.06-3.82,5.95c-8.68,12.46-19.03,20.84-26.13,27.53c-3.37,3.18-16.93,12.51-22.2,16.1
		c-1.31,0.88-2.1,1.42-2.1,1.42C50.81,845.808,50.83,848.638,51.16,850.588z"/>
	<path fill="#1D2028" d="M51.16,850.588c13.37,3.86,30.17-8.08,30.17-8.08c7-7.34,22.67-14,22.67-14
		c20.99-3.67,30.66-25.67,30.66-25.67l-22.01-11.24l-5.99,0.57c-1.22,2.08-2.5,4.06-3.82,5.95c-8.68,12.46-19.03,20.84-26.13,27.53
		c-3.37,3.18-16.93,12.51-22.2,16.1c-1.31,0.88-2.1,1.42-2.1,1.42C50.81,845.808,50.83,848.638,51.16,850.588z"/>
	<path fill="#31313E" d="M54.16,847.338c19.67-2.5,28.84-15.17,28.84-15.17c3-4.83,7.5-6.66,7.5-6.66
		c16.83-6.34,27.33-19.84,27.33-19.84c-3.5-1.16-14.99-7.55-14.99-7.55c-8.68,12.46-19.03,20.84-26.13,27.53
		c-3.37,3.18-16.93,12.51-22.2,16.1l-1.06,2.28C51.21,846.398,54.16,847.338,54.16,847.338z"/>
	<path fill="#012B59" d="M87.66,423.508c0,0,2,116,11.34,183.33l7.66,185.33c0,0,6.85,5.72,17.06,8.4
		c10.56,2.79,24.72,2.33,38.61-11.06c0,0,12-155-6-172.67l9.92-86.33l-21.88-80.82l-1.04-3.85l-10.75-4.31l-7.3-2.93L87.66,423.508z
		"/>
	<path fill="#002246" d="M123.72,800.568c4.02,1.06,8.57,1.65,13.43,1.23h0.01c7.88-0.67,16.58-4,25.17-12.29c0,0,12-155-6-172.67
		l9.92-86.33l-14.71-54.34l-7.17-26.48l-11.79-8.16l-7.25-5.02c0,0-0.02,0.72-0.05,2.09c-0.51,19.43-4.41,168.61-6.28,192.91
		C119,631.508,125.44,745.638,123.72,800.568z"/>
	<path fill="#001A37" d="M137.15,801.798h0.01c7.88-0.67,16.58-4,25.17-12.29c0,0,12-155-6-172.67l9.92-86.33l-14.71-54.34h-10.21
		l-14.38,150C126.95,626.168,141.98,652.098,137.15,801.798z"/>
	<path fill="#012B59" d="M139.66,445.838l1.67,30.33l6.67,7.67c0,0,20,117.33,26,160.67c0,0,3.58,24.83,4.58,32.58
		c0,0,8.25,114.75,12.25,167.75c0,0-2.07,5.57,24.14,12.05c0.6,0.15,1.22,0.3,1.86,0.45c0,0,1.67-0.07,4.22-0.45
		c0.2-0.03,0.41-0.06,0.63-0.1c0.22-0.03,0.44-0.07,0.66-0.11c0.45-0.08,0.92-0.17,1.4-0.26c0.27-0.05,0.55-0.11,0.83-0.17
		c0.99-0.21,2.03-0.46,3.1-0.77c1.65-0.46,3.38-1.04,5.09-1.77c0.26-0.11,0.52-0.22,0.78-0.34c0.03-0.01,0.05-0.02,0.08-0.03
		c3.18-1.43,6.27-3.37,8.71-6c0,0,2.67-119.5,0-143.83c0,0-2-21-11.67-46c0,0,11.67-113.17,9.67-175.67l-1.64,0.02l-56.36,0.65
		l-23-31.67L139.66,445.838z"/>
	<path fill="#001A37" d="M205.66,499.838l4.34,123l1.66,32.33c0,0,17.27,131.44,9.39,201.72c3.27-0.49,8.01-1.49,12.57-3.55
		c3.18-1.43,6.27-3.37,8.71-6c0,0,2.67-119.5,0-143.83c0,0-2-21-11.67-46c0,0,11.67-113.17,9.67-175.67l-1.64,0.02l-25.08,13.65
		L205.66,499.838z"/>
	<path fill="none" stroke="#001A37" stroke-miterlimit="10" d="M227.67,855.478c-1.08,0.3-2.12,0.56-3.1,0.77
		C225.56,856.038,226.6,855.788,227.67,855.478z"/>
	<path fill="#002246" d="M197.83,500.508l7.83,137.33v18l9.31,201.05c0.6,0.15,1.22,0.3,1.86,0.45c0,0,1.67-0.07,4.22-0.45
		c7.88-70.28-9.39-201.72-9.39-201.72l-1.66-32.33l-4.34-123l7.95-4.33l-6.28-3.92L197.83,500.508z"/>
	<path fill="#5F1E01" d="M0,501.168l0,32.34l7.66,4.66v56.09c8.34,28.09,28,18.47,28,18.47l2.4-1.48l0.02-0.02l57.38-35.43
		l-6.74-113.93l-7.39-1.78c-9.75,11.25-23.75,9-23.75,9c2-12.25,19.897-24.457,19.897-24.457l0.792-10.853
		c-29.189,4.761-32.939,38.39-32.939,38.39l-37.69,23.39l-0.55,0.41l-7.07,5.18C0.01,501.158,0,501.168,0,501.168z"/>
	<g>
		<path fill="#FCA779" d="M57.318,458.203c0,0,2.864,6.164,6.587-1.885c0,0,0.604-1.704,0.665-5.451
			c0.012-0.906,0.024-1.402,0.036-1.656c0.012,0.145,0.012,0.338,0.012,0.532c0.073-1.148,0.375-3.638,1.68-4.87
			c0,0,9.257-5.148,10.901-13.475c0.157-0.713,0.242-1.45,0.266-2.212c0.012-0.012,0.012-0.024,0.012-0.036l-1.897-20.763
			l-1.958-0.423l-2.888-0.628l-0.012,0.012c0,0-7.814,15.267-13.651,22.458c-0.012,0.085-0.235,0.36-0.247,0.396
			C56.617,431.591,54.925,444.329,57.318,458.203z"/>
	</g>
	<path fill="#471702" d="M0,501.168l0,32.34l7.66,4.66v56.09c8.34,28.09,28,18.47,28,18.47l2.4-1.48l0.02-0.02v-94.64
		c-11.23-24.53-23.5-24.18-30.99-20.62c-4.15,1.96-6.83,4.91-7.07,5.18C0.01,501.158,0,501.168,0,501.168z"/>
	<path fill="#5F1E01" d="M34.33,527.338l-29.25-17c0,0,1.75-11.5,14.625-4.5C19.705,505.838,32.83,512.922,34.33,527.338z"/>
	<path opacity="0.7" fill="#011323" d="M77.9,439.869v29.42c0.52,0.16,0.8,0.25,0.8,0.25s1.91,1.67,5.64,4.33
		c6.66,4.75,19.12,12.65,36.79,19.83c7.54,3.06,16.03,5.99,25.42,8.48c2.59,0.69,5.26,1.34,7.99,1.95
		c11.94,2.7,25.18,4.64,39.64,5.28c3.29,0.15,6.64,0.23,10.06,0.24c11.34,0.02,23.38-0.76,36.07-2.57v-0.01
		c1.35-19.11,1.66-30.37,1.66-30.37l-10.06,0.4c0.01-0.26,0.01-0.4,0.01-0.4l-23.48,0.93c-0.15,0.14-0.3,0.28-0.45,0.42l-52.81,2.09
		c0,0-36.5-23.76-38.5-22.93s-19.56-18.67-19.56-18.67L77.9,439.869z"/>
	<polygon fill="#001A37" points="111.513,312.658 120.196,458.605 94.846,457.505 94.846,381.505 97.119,315.084 	"/>
	<path fill="#042D54" d="M112.033,130.042c0,0-29.703-4.574-37.794,45.129c-9.596,58.946-0.134,168.472-5.134,192.972
		c0,0-1.75,38-2.75,43.5l-0.58,3.62l12.265,0.254l0.229,18.26l-1.464,20.06c3,8.34,25.014,24.919,25.014,16.654
		c0-31.953-2.07-141.654-2.07-141.654l0.99-46l16.03-112l14.894-32.974l-19.934-12.396L112.033,130.042z"/>
	<polygon fill="#FAFBFC" points="193.18,138.178 206.37,154.838 189.846,203.838 109.897,293.593 96.076,297.168 96.735,211.172 
		115.112,167.172 126.779,169.842 138.896,177.293 142.513,173.172 170.155,171.898 195.57,146.172 	"/>
	<path fill="#FFB486" d="M132.78,137.588c0.07,3.76-0.11,7.84-0.41,11.82c14.24,3.58,36.16,1.26,36.16,1.26
		c12.67-1.16,16.67,0,16.67,0c5.83,1.67,4,8,4,8l0.02-0.01c4.91-10.03,3.68-19.68,3.68-19.68c-8.05-9.57-4.45-36.96-4.45-36.96
		l0.34-0.34c0,0-1.42-1.51,3.99-6.59c0,0,9.59-10.08,3.75-16.33c0,0-7.25-7.42-18.58,6.33c0,0-1.83,10.42,0,24.5
		c0,0,1.5,7.56-3.63,10.69C174.32,120.278,153.78,133.508,132.78,137.588z"/>
	<path fill="#002246" d="M81.821,363.463c0,0,9.026,8.625,10.745,8.625c0,0,0.6,16.851-0.411,19.101c0,0-6.621-2.359-9.69-5.101
		c0,0,2.857,8.375,12.42,13.25c0,0,0.151-16.25,0.474-31.25C95.36,368.088,86.119,365.838,81.821,363.463z"/>
	<path fill="#032647" d="M109.897,280.562c3.33-6.66,19.502-56.724,19.502-56.724c4.22-9.67,5.95-26.67,5.95-26.67
		s-5-4.83-12.34-5.83c-6.16,8.33-9.49,19.17-9.49,19.17c-0.188,0.782-14.216,66.455-14.672,75.026
		C97.748,306.215,109.897,280.562,109.897,280.562z"/>
	<path fill="#012B59" d="M102.18,429.508c1.95,51.33,9.23,48.33,9.23,48.33c25.07,12.43,46.82,18.08,65.12,19.78
		c11.16,1.04,21.03,0.6,29.6-0.65c3.42-0.5,6.63-1.13,9.63-1.85c0.71-0.17,1.41-0.35,2.1-0.53c1.05-0.28,2.07-0.56,3.07-0.86
		c17.35-5.14,26.25-12.89,26.25-12.89c-2.5-14-9.5-47.27-9.5-47.27c-5.5-13.27-13.5-44.23-13.5-44.23l0.5-20.5l2.5-32.38
		c6.5-17.37,8-29.12,8-29.12s0.01,0,0.02,0.01c11.49,7.52,17.13-40.51,17.13-40.51c1.03-26.75,12.11-29.4,13.18-52.98
		c0.54-11.82-4.85-21.58-11.19-28.89c-8.47-9.76-18.64-15.13-18.64-15.13c-7.57-4.23-16.71-8.84-22.75-11.81
		c-1.89-0.93-3.47-1.7-4.61-2.25c-1.24-0.6-1.95-0.94-1.95-0.94c-0.64-0.31-5.03,4.41-10.8,11.09c-12.98,15-32.94,39.91-32.94,39.91
		c-14.29,19.6-58.98,83.67-58.98,83.67c-0.38,2.01-0.72,4.26-1.02,6.71C97.69,336.038,102.18,429.508,102.18,429.508z"/>
	<path fill="#001A37" d="M186.68,330.338c-5.5,13,4.5,77.5,4.5,77.5c12.5,46.5,14,85,14,85l0.95,4.13c3.42-0.5,6.63-1.13,9.63-1.85
		c0.71-0.17,1.41-0.35,2.1-0.53c1.05-0.28,2.07-0.56,3.07-0.86c17.35-5.14,26.25-12.89,26.25-12.89c-2.5-14-9.5-47.27-9.5-47.27
		c-5.5-13.27-13.5-44.23-13.5-44.23l0.5-20.5l2.5-32.38c6.5-17.37,8-29.12,8-29.12c-3-17.5-19.81-44.5-19.81-44.5
		c-4.65-22.62,3.26-46.06,10.42-61.33c3.05-6.49,17.87-12.76,28.53-16.54c-8.47-9.76-18.64-15.13-18.64-15.13
		c-7.57-4.23-16.71-8.84-22.75-11.81c-1.89-0.93-3.47-1.7-4.61-2.25l-5.68,13.47l-7.07,5.59l-25.39,26.67l-3.93,30.02l-0.86,6.56
		C179.94,270.668,186.68,330.338,186.68,330.338z"/>
	<path fill="#002246" d="M171.51,412.168c0,0-20.99-5-33.32-13.32c0.16,0.43,5.72,14.11,30.66,21.66c0,0,2.66,20.33,2.66,27.33
		h-7.66c0,0,8.71,32.56,12.68,49.78c11.16,1.04,21.03,0.6,29.6-0.65l-0.95-4.13c0,0-1.5-38.5-14-85c0,0-10-64.5-4.5-77.5
		c0,0-6.74-59.67-21.29-92.25c-3.67,3.6-7.86,7.7-12.35,12.08c0,0,16.71,62,9.59,95.34c0,0,0.64,30.85,2.76,41.93
		c0,0-22.89-7.25-31.21-8.59c1.07,0.57,35.36,18.76,37.33,25.32V412.168z"/>
	<path fill="#001A37" d="M67.956,415.474l10.084,0.044c6.85-15.31,8.64-211.68,8.64-211.68
		C82.94,245.808,75.386,369.314,67.956,415.474z"/>
	<path fill="#00386F" d="M102.63,296.218l1.02,0.95c13.89-12.63,33.53-31.54,49.39-47c4.49-4.38,8.68-8.48,12.35-12.08
		c6.4-6.28,11.21-11.04,13.31-13.12c0.75-0.73,1.15-1.13,1.15-1.13v-8h11.33c13.77-24.42,19.29-45.9,21.05-54.18
		c0.5-2.34,0.7-3.63,0.7-3.63c-3.94-1.94-6.56-3.19-6.56-3.19c-2.07-1-43.74,51-43.74,51c-14.29,19.6-58.98,83.67-58.98,83.67
		C103.27,291.518,102.93,293.768,102.63,296.218z"/>
	<path fill="#001A37" d="M128.174,140.383c0,0-2.56,26.104-15.549,63.226c0,0-6.829,19.571-10.337,87.64
		c0,0-0.864,18.801-0.653,27.56c0,0-9.403-64.127-7.488-103.904c0,0-0.113-31.214-0.175-40.394c0,0,4.867-4.124,9.955-6.562
		c0,0-2.281-2.762-7.11-4.524c0,0,12.738-15.843,24.282-23.106L128.174,140.383z"/>
	<path fill="#00386F" d="M134.149,137.588c0,0-3.33,26-17.83,62.75c0,0-7.625,19.375-13,87.25c0,0-1.375,18.75-1.375,27.5
		c0,0-8.208-64.25-5.208-103.917c0,0,0.667-31.167,0.833-40.333c0,0,5.188-4,10.563-6.312c0,0-2.313-2.813-7.313-4.688
		c0,0,11.896-15.552,24.135-22.526L134.149,137.588z"/>
	<path fill="#00386F" d="M120.499,134.995c0,0-18.597,15.51-20.764,25.677c0,0,3.07,1.332,7.16,4.416c0,0-12.66,6.751-13.952,10.126
		c0,0-3.875,101.125,6.625,155.125l2.5-20.991l9.197-136.259L120.499,134.995z"/>
	<path fill="#A05A35" d="M127.065,138.158c0.09,0.01,0.18,0.01,0.27,0.02c2.95,0.2,5.44-0.59,5.44-0.59h0.01
		c21-4.08,41.54-17.31,41.54-17.31c5.13-3.13,3.63-10.69,3.63-10.69c-1.83-14.08,0-24.5,0-24.5c11.33-13.75,18.58-6.33,18.58-6.33
		c5.84,6.25-3.75,16.33-3.75,16.33c-5.18,4.86-4.1,6.45-4,6.59c0.01,0,0.01,0,0.01,0l6.58-6.51c1.24-1.19,2.4-2.37,3.49-3.55
		c0.74-0.79,1.45-1.58,2.12-2.37c0.06-0.06,0.11-0.12,0.16-0.18c0.28-0.33,0.56-0.66,0.83-1c0.16-0.19,0.32-0.38,0.47-0.57
		c0.16-0.2,0.32-0.4,0.47-0.6c0.32-0.4,0.62-0.79,0.92-1.18c4.57-6.1,7.49-12.11,9.25-17.79c1.96-6.34,2.48-12.29,2.22-17.53
		c-0.01-0.45-0.04-0.91-0.08-1.35c-0.01-0.15-0.021-0.29-0.03-0.44c-0.02-0.26-0.04-0.51-0.07-0.77c-0.01-0.15-0.03-0.31-0.05-0.47
		c-0.02-0.24-0.05-0.48-0.08-0.71c0-0.04,0-0.07-0.01-0.1c-0.03-0.27-0.07-0.54-0.11-0.8c-0.01-0.08-0.02-0.16-0.04-0.24
		c-0.2-1.52-0.47-2.94-0.79-4.28c0-0.04-0.01-0.07-0.02-0.11c-0.07-0.3-0.14-0.59-0.21-0.87c-0.07-0.32-0.16-0.64-0.24-0.95
		c-0.08-0.29-0.16-0.57-0.24-0.85c-0.01-0.02-0.01-0.04-0.02-0.06c-0.07-0.26-0.15-0.51-0.22-0.76c-0.01-0.04-0.02-0.07-0.04-0.11
		c0-0.04-0.01-0.07-0.03-0.11c-0.07-0.24-0.15-0.48-0.23-0.72c-0.08-0.27-0.17-0.53-0.26-0.79h-0.01l-4.82-0.82l-15,3.75l-5.89,6.25
		l-8.82,9.36l-0.01,0.01c-2.29,5.52-1.2,9.21-1.2,9.21c1.59,5,0.67,8.05,0.67,8.05c-5.25,10.24-8.25,20.87-8.25,20.87
		c-5.66,18.64-19.13,25.48-20.13,25.97C146.235,122.598,138.195,131.138,127.065,138.158z"/>
	<path fill="#FFB486" d="M115.4,40.668v0.4c0,0,10.89,26.44,45.43,11.77c0,0,4.37-0.89,2.29,4.43c0,0-1.17,3.19-1.04,8.57
		c0,0,0,4.38-3.13,7.5c0,0-3.13,5.84-1,13.3c0,0,1.37,4.7-5.13,7.32c0,0-3.37,2.13-1.12,10.63c0,0,2.51,10.63-4.02,14.75
		c0.42-0.21,0.86-0.45,1.33-0.75c0,0,14.31-6.63,20.19-26c0,0,3-10.63,8.25-20.87c0,0,0.92-3.05-0.67-8.05c0,0-1.09-3.69,1.2-9.21
		l0.01-0.01c0.78-5.26-0.29-13.2-0.29-13.2c-0.98-3.88-17.45-0.16-18.14-0.01c-0.01,0.01-0.02,0.01-0.02,0.01
		c-4.49,2-7.34,3.42-7.34,3.42c-16.83,8.5-28.5,1.67-28.5,1.67c-3.46-2.16-6-4.53-7.83-7L115.4,40.668z"/>
	<path fill="#773A17" d="M158.95,29.638l0.27,5.4l0.32,6.21c0,0,0.01,0,0.02-0.01c0.69-0.15,17.16-3.87,18.14,0.01
		c0,0,1.07,7.94,0.29,13.2l-0.01,0.01c-0.07,0.52-0.16,1.01-0.28,1.46c-0.61,2.42,4.92-2.58,6.5-7.58c0,0,0.99-0.99,1.95,0.36
		c0.26,0.37,0.52,0.92,0.76,1.72c1.04,3.56,1.33,6.59,0.21,14.17c-0.32,2.13,3.16,2.5,4.41-7.42c0,0,1.11-10.33,2.73-8.83
		c0,0,2.26,0.5,2.5,10.19c0.15,5.81,0.46,6.15,1.13,5.75c1.46-0.88,1.86-5,1.96-7.04c0,0,0.16-7.65,0.41-9.71c0,0,1.86-2.39,3,2.5
		c2.25,9.59-0.09,13.47,1.85,13.28c0,0,2.22,0.24,2.71-6.22c0.22-2.87-0.84-11.18,0.5-11.69c1.07-0.4,2.13,0.6,2.82,3.16
		c0.68,2.53,2.06,9.97,0.56,18.03c-0.22,1.15,0.43,1.69,1.38,1.34c2.19-7.08,2.58-13.67,2.11-19.32c-0.02-0.26-0.04-0.51-0.07-0.77
		c-0.01-0.15-0.03-0.31-0.05-0.47c-0.05-0.55-0.12-1.08-0.2-1.61c-0.22-1.65-0.51-3.19-0.85-4.63c-0.07-0.3-0.14-0.59-0.21-0.87
		c-0.07-0.32-0.16-0.64-0.24-0.95c-0.16-0.58-0.32-1.13-0.48-1.67c-0.02-0.07-0.04-0.15-0.07-0.22c-0.07-0.24-0.15-0.48-0.23-0.72
		c-0.08-0.27-0.17-0.53-0.26-0.79c-1.27-3.7-2.54-5.97-2.74-6.33c-0.02-0.03-0.03-0.05-0.03-0.05l-2.06-2.94l-6.95-0.73l-17.08-1.78
		l-2.18-0.23c-2.42,0.63-5.03,1.3-7.58,1.96c-2.57,0.66-5.09,1.31-7.3,1.87c-1.72,0.45-3.26,0.84-4.5,1.16
		C160.16,29.328,158.95,29.638,158.95,29.638z"/>
	<path fill="#3A1702" d="M123.7,46.338c0,0,11.67,6.83,28.5-1.67c0,0,43-21.402,57.75-15.032c0,0-1.82-11.748-12.94-20.738
		c-6.72-5.44-17.21-9.56-33.56-8.81c0,0-9.75,0.25-25.5,6c0,0-8.84,4.08-15.88,4.72c-1.98,0.18-3.81,0.09-5.27-0.44
		c-0.03-0.01-0.07-0.02-0.1-0.03C116.7,10.338,101.7,32.588,123.7,46.338z"/>
	<path fill="#522707" d="M122.07,10.808c21.64,9.54,42.38,1.53,42.38,1.53c15.12-6.33,26.9-4.87,32.56-3.44
		c-6.72-5.44-17.21-9.56-33.56-8.81c0,0-9.75,0.25-25.5,6C137.95,6.088,129.11,10.168,122.07,10.808z"/>
	<path fill="#220C00" d="M115.87,39.338c1.83,2.47,4.37,4.84,7.83,7c0,0,11.67,6.83,28.5-1.67c0,0,2.85-1.42,7.34-3.42
		c0,0,0.01,0,0.02-0.01c6.18-2.75,15.43-6.59,24.62-9.34c9.98-2.99,19.87-4.7,25.61-2.32c0.06,0.02,0.11,0.04,0.16,0.06
		c0,0-0.06-0.04-0.19-0.11c-0.83-0.43-4.28-2.2-9.01-3.67c-4.84-1.5-11.01-2.68-17.08-1.78c-0.7,0.1-1.4,0.23-2.09,0.39
		c0,0,4.24,0.37,5,1.87c0,0-8.43,0.43-12.67-0.53c-0.05-0.01-0.1-0.02-0.15-0.03c0,0-4.56-1.25-12.18-0.19c0,0,3.54,0.6,5.03,2.09
		c0.23,0.24,0.42,0.5,0.53,0.78c0,0-1.87,0.32-5.03,0.38c-3.91,0.08-9.79-0.26-16.53-2.12c0,0,1.79,2.94,3.09,3.66
		c0.05,0.03,0.11,0.06,0.15,0.08c1.32,0.57-11.35-0.79-15.69-4.19c0.07,0.22,1.37,3.69,3.06,5.39c-0.46-0.16-13.68-5.06-19.39-21.29
		c-0.03-0.01-0.07-0.02-0.1-0.03C116.7,10.338,106.04,26.148,115.87,39.338z"/>
	<g>
		<path fill="#CB8A58" d="M133.852,80.892c0.395-1.15,0.767-2.301,1.174-3.436c0.207-0.566,0.411-1.132,0.642-1.687
			c0.226-0.556,0.463-1.106,0.734-1.637c0.262-0.536,0.556-1.055,0.888-1.543c0.327-0.493,0.708-0.945,1.13-1.358
			c0.425-0.407,0.9-0.767,1.41-1.084c0.506-0.324,1.042-0.608,1.564-0.92c-0.569,0.212-1.133,0.438-1.684,0.709
			c-0.546,0.274-1.076,0.605-1.548,1.011c-0.478,0.401-0.888,0.874-1.254,1.375c-0.362,0.505-0.67,1.042-0.947,1.59
			c-0.27,0.552-0.511,1.116-0.726,1.688c-0.209,0.575-0.407,1.152-0.573,1.739C134.321,78.506,134.049,79.692,133.852,80.892z"/>
		<path fill="#CB8A58" d="M135.202,76.026c0.271-0.778,0.577-1.528,0.953-2.238c0.376-0.71,0.821-1.375,1.338-1.977
			s1.106-1.143,1.765-1.593c0.659-0.449,1.384-0.807,2.16-1.084c-0.822,0.077-1.631,0.347-2.362,0.757
			c-0.733,0.41-1.391,0.959-1.938,1.599c-0.548,0.638-0.985,1.365-1.31,2.134C135.485,74.393,135.273,75.205,135.202,76.026z"/>
		<path fill="#AD6C3A" d="M133.811,80.933c0.395-1.15,0.767-2.301,1.174-3.436c0.207-0.566,0.411-1.132,0.642-1.687
			c0.226-0.556,0.463-1.106,0.734-1.637c0.262-0.536,0.556-1.055,0.888-1.543c0.327-0.493,0.708-0.945,1.13-1.358
			c0.425-0.407,0.9-0.767,1.41-1.084c0.506-0.324,1.042-0.608,1.564-0.92c-0.569,0.212-1.133,0.438-1.684,0.709
			c-0.546,0.274-1.076,0.605-1.548,1.011c-0.478,0.401-0.888,0.874-1.254,1.375c-0.362,0.505-0.67,1.042-0.947,1.59
			c-0.27,0.552-0.511,1.116-0.726,1.688c-0.209,0.575-0.407,1.152-0.573,1.739C134.279,78.547,134.008,79.733,133.811,80.933z"/>
		<path fill="#AD6C3A" d="M135.16,76.068c0.271-0.778,0.577-1.528,0.953-2.238c0.376-0.71,0.821-1.375,1.338-1.977
			s1.106-1.143,1.765-1.593c0.659-0.449,1.384-0.807,2.16-1.084c-0.822,0.077-1.631,0.347-2.362,0.757
			c-0.733,0.41-1.391,0.959-1.938,1.599c-0.548,0.638-0.985,1.365-1.31,2.134C135.444,74.434,135.232,75.246,135.16,76.068z"/>
		<path fill="#AD6C3A" d="M119.368,91.283c0.471-1.131,0.894-2.274,1.32-3.419c0.418-1.146,0.836-2.291,1.239-3.439l2.411-6.889
			l1.223-3.434l0.31-0.857l0.157-0.438c0.055-0.158,0.101-0.314,0.14-0.475c0.158-0.638,0.186-1.303,0.113-1.941
			c-0.074-0.641-0.247-1.257-0.475-1.842c-0.226-0.587-0.514-1.141-0.832-1.67c-0.628-1.068-1.403-2.016-2.131-2.994
			c0.289,0.538,0.61,1.059,0.915,1.586c0.305,0.527,0.599,1.056,0.861,1.598c0.261,0.543,0.489,1.098,0.667,1.662
			c0.174,0.565,0.292,1.142,0.32,1.717c0.034,0.574-0.03,1.144-0.187,1.684c-0.04,0.133-0.087,0.269-0.137,0.396
			c-0.052,0.131-0.116,0.272-0.177,0.413l-0.356,0.845c-0.47,1.13-0.912,2.271-1.331,3.419c-0.838,2.297-1.591,4.622-2.268,6.97
			c-0.343,1.172-0.653,2.353-0.956,3.535C119.899,88.897,119.611,90.083,119.368,91.283z"/>
		<path fill="#AD6C3A" d="M131.393,93.243c0.324,0.433,0.601,0.9,0.797,1.399c0.197,0.496,0.316,1.025,0.314,1.555
			c0,0.528-0.122,1.054-0.361,1.518c-0.238,0.465-0.593,0.865-1.02,1.153c-0.428,0.286-0.927,0.463-1.435,0.491
			c-0.505,0.028-1.021-0.092-1.456-0.341c-0.438-0.248-0.835-0.648-1.378-0.887c-0.134-0.059-0.276-0.108-0.421-0.143
			c-0.138-0.033-0.282-0.058-0.423-0.075c-0.284-0.034-0.572-0.04-0.865-0.003c-0.146,0.019-0.293,0.048-0.443,0.101l-0.095,0.035
			l-0.088,0.027c-0.06,0.019-0.121,0.036-0.183,0.05c-0.246,0.063-0.499,0.1-0.755,0.117c-0.512,0.035-1.033-0.014-1.54-0.118
			c-1.011-0.215-1.988-0.667-2.741-1.353c-0.375-0.342-0.687-0.747-0.883-1.198c-0.2-0.449-0.277-0.942-0.225-1.43
			c0.051-0.489,0.227-0.967,0.475-1.411c0.25-0.444,0.568-0.855,0.923-1.237l0.012-0.014l0.009-0.012
			c0.066-0.091,0.104-0.163,0.144-0.238c0.039-0.073,0.075-0.146,0.11-0.218c0.068-0.145,0.133-0.289,0.196-0.432
			c0.125-0.287,0.241-0.576,0.357-0.864c0.229-0.578,0.449-1.156,0.668-1.735c0.434-1.159,0.86-2.32,1.278-3.483
			c0.83-2.328,1.654-4.658,2.461-6.993l1.21-3.504c0.212-0.583,0.384-1.199,0.466-1.824c0.082-0.626,0.079-1.263-0.014-1.886
			c-0.091-0.623-0.272-1.229-0.516-1.804c-0.245-0.575-0.551-1.12-0.891-1.64c-0.34-0.519-0.711-1.016-1.094-1.501
			c-0.382-0.485-0.775-0.964-1.142-1.459c0.697,1.02,1.479,1.983,2.119,3.034c0.641,1.044,1.136,2.194,1.273,3.403
			c0.071,0.603,0.053,1.212-0.043,1.809c-0.093,0.599-0.263,1.177-0.49,1.748c-0.44,1.155-0.877,2.311-1.308,3.468l-2.58,6.948
			c-0.429,1.159-0.855,2.317-1.294,3.471c-0.219,0.575-0.442,1.149-0.671,1.72c-0.115,0.285-0.232,0.569-0.351,0.849
			c-0.061,0.14-0.121,0.278-0.186,0.413c-0.031,0.067-0.064,0.133-0.097,0.196c-0.031,0.061-0.068,0.125-0.095,0.161l0.023-0.026
			c-0.378,0.41-0.726,0.858-1.004,1.358c-0.275,0.498-0.481,1.055-0.539,1.642c-0.064,0.586,0.035,1.196,0.279,1.732
			c0.244,0.538,0.614,1.001,1.04,1.38c0.427,0.381,0.91,0.685,1.419,0.926c0.511,0.239,1.047,0.413,1.599,0.522
			c0.551,0.108,1.117,0.148,1.683,0.098c0.282-0.025,0.564-0.071,0.839-0.147c0.07-0.019,0.138-0.041,0.208-0.063l0.104-0.036
			l0.095-0.035c0.103-0.04,0.223-0.067,0.344-0.085c0.244-0.037,0.499-0.038,0.75-0.013c0.129,0.014,0.25,0.032,0.375,0.06
			c0.119,0.024,0.235,0.062,0.349,0.11c0.457,0.186,0.855,0.555,1.361,0.831c0.513,0.272,1.095,0.388,1.667,0.341
			c0.57-0.049,1.122-0.26,1.575-0.595c0.457-0.333,0.821-0.783,1.056-1.291c0.236-0.506,0.339-1.067,0.317-1.618
			c-0.022-0.552-0.165-1.092-0.39-1.587C132.044,94.111,131.739,93.657,131.393,93.243z"/>
		<path fill="#AD6C3A" d="M135.851,73.622c0.19-0.408,0.399-0.791,0.635-1.157c0.236-0.364,0.497-0.711,0.782-1.034
			c0.285-0.324,0.593-0.626,0.926-0.901c0.336-0.273,0.697-0.515,1.096-0.725c-0.448,0.062-0.879,0.246-1.264,0.49
			c-0.388,0.243-0.735,0.549-1.036,0.892c-0.301,0.344-0.559,0.726-0.756,1.138C136.037,72.733,135.893,73.173,135.851,73.622z"/>
	</g>
	<path fill="#3A1702" d="M138.51,66.908c-1.604-1.251-0.395-5.812,0.309-7.672c0.015-0.041,0.029-0.079,0.044-0.118
		c0.004-0.011,0.009-0.023,0.013-0.034c0.082-0.217,0.158-0.399,0.216-0.518c-0.005,0.021-0.012,0.046-0.018,0.067
		c0.015-0.029,0.032-0.068,0.045-0.091c0,0,0.314,0.977,1.148,1.56c-0.064-0.307-0.097-0.573-0.063-0.7c0,0,1.117,1.153,2.158,1.03
		c8.269,3.563,17.159-3.011,23.887,5.228c0.045,0.033,0.089,0.061,0.135,0.095c1.071,1.245,2.162,2.783,3.281,4.673
		c-0.068-0.065-0.132-0.119-0.199-0.183c0.057,0.094,0.112,0.177,0.168,0.273c-10.338-6.56-27.702-2.67-29.921-3.248
		c-0.031-0.008-0.062-0.014-0.093-0.022C139.26,67.15,138.892,67.041,138.51,66.908z"/>
	<g>
		<defs>
			<path id="SVGID_1_" d="M111.53,129.168c1.53,3.45,6.78,5.31,9.89,6.95c0.34,0.19,0.66,0.37,0.95,0.55c1.58,1,3.35,1.41,4.97,1.51
				c2.95,0.2,5.44-0.59,5.44-0.59c0.06,3.25-0.07,6.74-0.3,10.2c-0.03,0.54-0.07,1.08-0.11,1.62c-0.84,11.18-2.62,21.52-2.62,21.52
				c13.59,14.34,34.72,7.04,34.72,7.04c13.84-4,21.04-11.76,24.75-19.31c4.91-10.03,3.68-19.68,3.68-19.68
				c-8.05-9.57-4.45-36.96-4.45-36.96l0.34-0.34l6.58-6.51c3.3-3.16,6.1-6.32,8.46-9.45c4.57-6.1,7.49-12.11,9.25-17.79
				c4.18-13.5,1.8-25.19-0.55-32.02c-1.39-4.04-2.77-6.38-2.77-6.38l-2.06-2.94l-26.21-2.74l-40.79-4.26l-24.74,19.88
				c0,0-4.84,12.99-4.43,22.37c0,0,0.61,3,0.98,4.31c0,0,1.75,7.31,0.25,9.75c0,0-2.87,7-2.18,12.19c0,0,0.19,8.03,0.18,15.24
				c-0.01,4.03-0.08,7.79-0.29,9.76C110.01,117.488,109.05,123.568,111.53,129.168z"/>
		</defs>
		<clipPath id="SVGID_2_">
			<use xlink:href="#SVGID_1_"  overflow="visible"/>
		</clipPath>
		<path clip-path="url(#SVGID_2_)" fill="#3A1702" d="M95.15,56.363c-0.581,1.483,0.171-0.104,0.258-0.16
			c-0.084,0.025-0.162,0.043-0.247,0.069c1.828-1.179,2.73-1.972,2.786-1.982c12.401-5.402,17.324,2.627,26.321,2.979
			c0.885,0.542,2.391,0.004,2.391,0.004c-0.024,0.126-0.169,0.344-0.361,0.584c1.004-0.159,1.711-0.879,1.711-0.879
			c0.002,0.025,0.001,0.067,0.001,0.098c0.004-0.021,0.01-0.046,0.014-0.066c0.001,0.129-0.01,0.319-0.03,0.542
			c-0.001,0.012-0.002,0.024-0.003,0.037c-0.003,0.039-0.007,0.077-0.011,0.119c-0.173,1.914-1.063,6.395-3.051,6.815
			c-0.402-0.044-0.781-0.103-1.149-0.17c-0.031-0.006-0.061-0.013-0.092-0.019c-1.915-0.361-3.392-1.013-4.657-1.824
			C117.145,61.394,106.293,55.086,95.15,56.363z"/>
		<g clip-path="url(#SVGID_2_)">
			
				<radialGradient id="SVGID_3_" cx="168.102" cy="-594.1092" r="20.939" gradientTransform="matrix(-0.972 -0.2352 -0.2352 0.972 140.9869 688.1626)" gradientUnits="userSpaceOnUse">
				<stop  offset="0.1532" style="stop-color:#FFFFFF"/>
				<stop  offset="1" style="stop-color:#C8C8C8"/>
			</radialGradient>
			<path fill="url(#SVGID_3_)" d="M109.516,70.48c0.271-0.277,10.324-7.786,15.211,3.018c-1.748,0.686-8.876,4.229-14.708-3.392"/>
			<g>
				<g>
					<path fill="#473421" d="M114.8,69.785c-0.353,1.607,0.664,3.197,2.271,3.55c1.607,0.353,3.196-0.664,3.549-2.271
						c0.353-1.607-0.567-2.953-2.175-3.307C116.838,67.404,115.153,68.178,114.8,69.785z"/>
					<path fill="#473421" d="M115.248,68.721c0.228-0.319,0.526-0.594,0.871-0.796c0.344-0.205,0.733-0.338,1.131-0.392
						c0.398-0.057,0.808-0.037,1.202,0.039c0.395,0.086,0.782,0.229,1.123,0.457c0.341,0.223,0.638,0.519,0.853,0.867
						c0.217,0.347,0.341,0.746,0.379,1.147c0.036,0.403-0.021,0.804-0.135,1.181c-0.232,0.76-0.751,1.407-1.417,1.816
						c-0.333,0.205-0.704,0.357-1.094,0.432c-0.389,0.073-0.799,0.073-1.192-0.013c-0.196-0.043-0.389-0.105-0.572-0.191
						c-0.185-0.082-0.359-0.185-0.521-0.308c-0.326-0.24-0.591-0.554-0.782-0.903c-0.388-0.701-0.473-1.524-0.31-2.275
						C114.862,69.402,115.021,69.04,115.248,68.721z M114.753,70.356c0.003,0.191,0.019,0.382,0.062,0.566
						c0.08,0.371,0.243,0.718,0.455,1.021c0.432,0.605,1.058,1.044,1.766,1.235c0.703,0.2,1.502,0.135,2.161-0.24
						c0.164-0.092,0.317-0.204,0.46-0.327c0.139-0.127,0.268-0.266,0.381-0.419c0.224-0.302,0.379-0.653,0.463-1.017
						c0.166-0.729,0.062-1.511-0.341-2.112c-0.399-0.608-1.072-0.987-1.782-1.136c-0.357-0.082-0.726-0.101-1.091-0.068
						c-0.363,0.035-0.724,0.119-1.064,0.267c-0.337,0.149-0.654,0.365-0.901,0.652c-0.25,0.284-0.421,0.637-0.506,1.009
						C114.778,69.975,114.755,70.166,114.753,70.356z"/>
				</g>
				<g>
					<circle fill="#201600" cx="117.309" cy="70.336" r="2.02"/>
					<path fill="#201600" d="M115.28,69.89c0.246-1.119,1.356-1.828,2.475-1.583c1.119,0.246,1.828,1.355,1.582,2.474
						c-0.246,1.118-1.354,1.828-2.473,1.582C115.745,72.118,115.034,71.008,115.28,69.89z M115.391,69.915
						c-0.232,1.057,0.439,2.106,1.496,2.338c1.057,0.232,2.106-0.438,2.338-1.495c0.232-1.057-0.439-2.107-1.496-2.339
						C116.673,68.186,115.624,68.857,115.391,69.915z"/>
				</g>
			</g>
			<g>
				<path fill="#FFB486" d="M109.217,70.783c0.099-0.182,0.259-0.313,0.416-0.441c0.157-0.127,0.323-0.246,0.494-0.355
					c0.341-0.22,0.69-0.425,1.052-0.607c0.72-0.37,1.463-0.682,2.222-0.93c1.513-0.496,3.101-0.738,4.621-0.52
					c0.38,0.052,0.754,0.136,1.117,0.25c0.366,0.111,0.719,0.257,1.061,0.427c0.685,0.34,1.316,0.8,1.889,1.34
					c0.573,0.538,1.083,1.157,1.548,1.82c0.471,0.66,0.879,1.373,1.286,2.098c-0.186-0.812-0.473-1.6-0.833-2.363
					c-0.367-0.76-0.827-1.485-1.395-2.136c-0.566-0.652-1.248-1.221-2.02-1.653c-0.386-0.215-0.792-0.392-1.212-0.536
					c-0.421-0.139-0.852-0.239-1.288-0.303c-0.437-0.06-0.876-0.086-1.315-0.077c-0.436,0.012-0.871,0.053-1.298,0.126
					c-0.854,0.146-1.679,0.404-2.459,0.745c-0.78,0.343-1.519,0.767-2.198,1.269c-0.337,0.255-0.664,0.522-0.962,0.821
					c-0.149,0.149-0.293,0.304-0.424,0.471c-0.064,0.084-0.124,0.171-0.18,0.261C109.285,70.582,109.234,70.68,109.217,70.783z"/>
				<path fill="#AD6C3A" d="M109.516,70.48c0.3-0.238,0.628-0.439,0.955-0.637c0.328-0.198,0.662-0.383,1.004-0.557
					c0.682-0.346,1.387-0.646,2.111-0.884c1.44-0.484,2.981-0.728,4.477-0.515c0.746,0.107,1.472,0.327,2.145,0.659
					c0.673,0.331,1.288,0.775,1.833,1.294c1.094,1.037,1.9,2.352,2.524,3.731l0.098-0.238c-0.646,0.265-1.269,0.529-1.919,0.74
					c-0.647,0.215-1.308,0.384-1.977,0.506c-1.337,0.244-2.718,0.251-4.05-0.02c-1.333-0.271-2.6-0.842-3.72-1.625
					c-1.13-0.774-2.108-1.76-2.976-2.829c0.805,1.117,1.763,2.136,2.876,2.968c1.116,0.826,2.4,1.438,3.763,1.749
					c1.363,0.318,2.79,0.315,4.164,0.086c0.689-0.114,1.366-0.291,2.028-0.506c0.662-0.212,1.309-0.483,1.94-0.739l0.173-0.07
					l-0.076-0.168c-0.639-1.407-1.472-2.757-2.615-3.832c-0.572-0.532-1.22-0.99-1.928-1.328c-0.706-0.341-1.47-0.559-2.246-0.652
					c-0.776-0.094-1.56-0.068-2.326,0.045c-0.769,0.115-1.519,0.315-2.245,0.577c-0.724,0.267-1.424,0.594-2.097,0.967
					C110.76,69.578,110.103,69.985,109.516,70.48z"/>
				<path fill="#AD6C3A" d="M109.217,70.783c0.023-0.044,0.062-0.075,0.097-0.108c0.037-0.033,0.076-0.063,0.114-0.093
					c0.077-0.06,0.157-0.116,0.239-0.17c0.161-0.111,0.327-0.214,0.495-0.314c0.336-0.198,0.677-0.385,1.029-0.55
					c0.348-0.17,0.701-0.326,1.062-0.463c0.36-0.136,0.722-0.267,1.09-0.372c1.467-0.424,3.004-0.57,4.472-0.285
					c0.733,0.139,1.444,0.385,2.115,0.72c0.673,0.333,1.301,0.761,1.893,1.244c1.179,0.978,2.174,2.191,3.1,3.472
					c-0.625-1.452-1.5-2.823-2.666-3.954c-0.579-0.567-1.239-1.064-1.962-1.46c-0.361-0.197-0.738-0.366-1.127-0.509
					c-0.39-0.138-0.791-0.249-1.196-0.328c-0.814-0.154-1.648-0.182-2.464-0.092c-0.815,0.09-1.613,0.288-2.369,0.579
					c-0.759,0.284-1.476,0.659-2.147,1.094c-0.333,0.223-0.658,0.457-0.963,0.716c-0.151,0.129-0.299,0.263-0.441,0.404
					c-0.07,0.071-0.139,0.144-0.204,0.22C109.322,70.612,109.25,70.687,109.217,70.783z"/>
			</g>
		</g>
		<path clip-path="url(#SVGID_2_)" fill="#AD6C3A" d="M111.118,66.555c0,0,6.364-3.504,12.881,2.022
			C123.999,68.577,120.252,60.939,111.118,66.555z"/>
	</g>
	<g>
		<g>
			
				<radialGradient id="SVGID_4_" cx="126.5034" cy="-532.3046" r="20.2113" gradientTransform="matrix(-0.9767 -0.2146 -0.2146 0.9767 158.7092 624.2538)" gradientUnits="userSpaceOnUse">
				<stop  offset="0.1532" style="stop-color:#FFFFFF"/>
				<stop  offset="1" style="stop-color:#C8C8C8"/>
			</radialGradient>
			<path fill="url(#SVGID_4_)" d="M140.79,75.879c0.389-0.216,10.222-6.889,17.19,2.826c-1.991,0.83-9.592,6.317-16.88-3.018"/>
			<g>
				<g>
					<path fill="#473421" d="M145.96,75.228c-0.393,1.787,0.738,3.555,2.526,3.948c1.787,0.393,3.555-0.739,3.948-2.526
						c0.393-1.788-0.63-3.284-2.419-3.678C148.227,72.581,146.353,73.441,145.96,75.228z"/>
					<path fill="#473421" d="M146.458,74.045c0.254-0.355,0.585-0.661,0.969-0.886c0.382-0.228,0.815-0.375,1.258-0.437
						c0.443-0.063,0.898-0.042,1.337,0.043c0.439,0.095,0.87,0.255,1.249,0.508c0.379,0.248,0.71,0.578,0.948,0.964
						c0.241,0.386,0.379,0.83,0.421,1.275c0.04,0.448-0.024,0.894-0.15,1.314c-0.258,0.845-0.835,1.565-1.576,2.02
						c-0.37,0.228-0.783,0.397-1.217,0.48c-0.433,0.082-0.888,0.081-1.326-0.014c-0.218-0.048-0.433-0.117-0.637-0.213
						c-0.205-0.091-0.4-0.206-0.58-0.342c-0.362-0.267-0.657-0.616-0.87-1.004c-0.432-0.78-0.526-1.695-0.344-2.53
						C146.029,74.803,146.206,74.4,146.458,74.045z M145.908,75.864c0.004,0.212,0.021,0.425,0.069,0.63
						c0.089,0.413,0.27,0.798,0.506,1.136c0.481,0.673,1.177,1.161,1.964,1.374c0.782,0.222,1.67,0.15,2.404-0.267
						c0.182-0.103,0.353-0.226,0.512-0.364c0.155-0.142,0.299-0.296,0.424-0.466c0.249-0.336,0.422-0.727,0.515-1.131
						c0.185-0.811,0.069-1.681-0.379-2.349c-0.444-0.676-1.193-1.098-1.982-1.263c-0.397-0.091-0.808-0.113-1.213-0.076
						c-0.404,0.038-0.805,0.133-1.184,0.297c-0.375,0.165-0.727,0.406-1.002,0.725c-0.278,0.315-0.468,0.708-0.563,1.122
						C145.935,75.441,145.91,75.652,145.908,75.864z"/>
				</g>
				<g>
					<circle fill="#201600" cx="148.75" cy="75.842" r="2.247"/>
					<path fill="#201600" d="M146.493,75.346c0.273-1.244,1.509-2.034,2.752-1.76c1.245,0.273,2.033,1.507,1.759,2.752
						c-0.273,1.243-1.506,2.033-2.751,1.76C147.011,77.823,146.22,76.589,146.493,75.346z M146.617,75.373
						c-0.258,1.176,0.489,2.342,1.664,2.6c1.176,0.258,2.342-0.488,2.601-1.663c0.258-1.176-0.488-2.343-1.663-2.602
						C148.043,73.45,146.876,74.197,146.617,75.373z"/>
				</g>
			</g>
			<g>
				<path fill="#FFB486" d="M140.004,76.146c0.807-0.49,1.628-0.932,2.472-1.316c0.841-0.387,1.699-0.724,2.571-0.988
					c1.739-0.533,3.552-0.777,5.305-0.541c0.438,0.057,0.872,0.145,1.296,0.263c0.426,0.113,0.843,0.262,1.251,0.436
					c0.817,0.346,1.589,0.807,2.312,1.347c1.452,1.083,2.687,2.483,3.841,3.976c-0.748-1.732-1.826-3.358-3.273-4.665
					c-0.723-0.652-1.542-1.212-2.435-1.639c-0.446-0.214-0.911-0.39-1.387-0.534c-0.476-0.14-0.963-0.242-1.454-0.31
					c-0.493-0.063-0.988-0.092-1.483-0.084c-0.492,0.01-0.985,0.05-1.468,0.127c-0.969,0.15-1.91,0.422-2.804,0.785
					c-0.895,0.365-1.746,0.817-2.542,1.342C141.416,74.878,140.656,75.458,140.004,76.146z"/>
				<path fill="#AD6C3A" d="M140.79,75.879c1.398-0.824,2.9-1.475,4.466-1.871c1.559-0.406,3.192-0.555,4.781-0.327
					c0.793,0.114,1.57,0.317,2.314,0.608c0.744,0.292,1.451,0.675,2.108,1.128c1.32,0.906,2.435,2.092,3.369,3.396l0.08-0.284
					c-0.383,0.166-0.729,0.356-1.085,0.537c-0.354,0.182-0.708,0.358-1.068,0.523c-0.719,0.333-1.455,0.617-2.211,0.84
					c-1.508,0.448-3.108,0.598-4.664,0.348c-1.556-0.247-3.034-0.906-4.328-1.816c-1.308-0.903-2.437-2.047-3.452-3.277
					c0.475,0.641,0.988,1.257,1.545,1.831c0.557,0.576,1.155,1.114,1.8,1.594c1.29,0.954,2.789,1.662,4.386,1.95
					c1.598,0.301,3.259,0.152,4.812-0.29c0.778-0.217,1.533-0.513,2.266-0.846c0.365-0.167,0.726-0.346,1.083-0.526
					c0.356-0.18,0.711-0.372,1.061-0.522l0.217-0.093l-0.138-0.191c-0.955-1.331-2.105-2.545-3.471-3.473
					c-1.365-0.924-2.948-1.543-4.587-1.731c-1.638-0.199-3.299-0.009-4.868,0.438c-0.785,0.227-1.549,0.519-2.288,0.862
					c-0.37,0.171-0.733,0.355-1.089,0.553C141.474,75.441,141.128,75.656,140.79,75.879z"/>
			</g>
		</g>
		<path fill="#AD6C3A" d="M140.941,75.66c0,0,1.036-0.68,2.774-1.264c0.434-0.143,0.904-0.291,1.415-0.397
			c0.502-0.139,1.048-0.197,1.604-0.291c0.562-0.029,1.143-0.108,1.729-0.061c0.293,0.018,0.588,0.036,0.884,0.054
			c0.294,0.029,0.583,0.106,0.875,0.156c0.59,0.08,1.138,0.317,1.685,0.503c0.549,0.183,1.03,0.508,1.528,0.734
			c0.495,0.242,0.909,0.589,1.354,0.837c0.226,0.121,0.421,0.274,0.601,0.435c0.189,0.15,0.372,0.295,0.548,0.435
			c0.348,0.283,0.707,0.508,0.952,0.786c0.261,0.26,0.496,0.484,0.699,0.662c0.396,0.365,0.64,0.566,0.64,0.566l0.004,0.004
			c0.021,0.018,0.053,0.015,0.071-0.007c0.014-0.016,0.015-0.039,0.005-0.056c0,0-0.151-0.27-0.448-0.73
			c-0.143-0.234-0.328-0.512-0.549-0.826c-0.203-0.329-0.501-0.643-0.831-0.987c-0.342-0.328-0.657-0.753-1.116-1.059
			c-0.444-0.321-0.905-0.682-1.431-0.974c-0.559-0.23-1.098-0.559-1.716-0.708c-0.613-0.16-1.223-0.363-1.865-0.404
			c-0.317-0.035-0.631-0.096-0.947-0.108c-0.316,0-0.632,0-0.944-0.001c-0.624-0.01-1.23,0.108-1.814,0.176
			c-0.575,0.135-1.139,0.221-1.645,0.41c-0.517,0.152-0.986,0.343-1.417,0.525c-0.857,0.371-1.537,0.746-1.996,1.035
			c-0.463,0.281-0.708,0.472-0.708,0.472c-0.022,0.016-0.028,0.047-0.012,0.07C140.888,75.669,140.919,75.673,140.941,75.66z"/>
	</g>
	<path fill="#AD6C3A" d="M144.336,71.702c0,0,6.286-3.641,12.921,1.742C157.257,73.444,153.346,65.889,144.336,71.702z"/>
	<path fill="#F1F1FC" d="M192.9,138.978c0,0-19.14,34.277-50.387,34.193c0,0-2.514,0.665,0,3.333c0,0,15.167,17.333,16.667,21.667
		l1.667,3.333c0,0,44.5-40.833,45.5-49.333c0.721-6.127-13.167-13.993-13.167-13.993L192.9,138.978z"/>
	<path fill="#041B38" d="M123.01,191.338c7.34,1,12.34,5.83,12.34,5.83c10-7.33,12.07-14.92,12.07-14.92l-5.587-8.709l-12.088-2.611
		c-3.83,0.07-3.55,0.597-3.55,0.597C122.865,183.516,123.01,191.338,123.01,191.338z"/>
	<path fill="#F1F1FC" d="M119.93,192.588c3.079-15.375,9.82-21.66,9.82-21.66s1.78-10.34,2.62-21.52c0.04-0.54,0.08-1.08,0.11-1.62
		l-0.11-0.23C114.06,161.528,119.93,192.588,119.93,192.588z"/>
	<path fill="#2D2D2D" d="M169.907,69.582l23.86,6.856c0.5,0.154,4.874,1.528,5.326,2.653c0.057,0.142,0.056,0.282-0.001,0.41
		c-0.009,0.02-0.02,0.041-0.032,0.06c-0.043,0.07-0.1,0.128-0.169,0.176c-0.002,0.008-0.005,0.015-0.007,0.023
		c0.012,0.093,0.008,0.184-0.03,0.269c-0.009,0.02-0.02,0.041-0.032,0.06c-0.085,0.139-0.225,0.234-0.416,0.282
		c-1.296,0.327-5.298-1.499-5.691-1.718l-23.919-2.493L169.907,69.582z"/>
	<g>
		<path fill="#2D2D2D" d="M103.169,61.581c-0.74,1.668-1.256,7.681-1.256,7.681c0.407,9.993,2.187,12.391,2.187,12.391
			c5.599,7.118,11.41,5.466,11.41,5.466c6.928-0.371,10.766-11.989,10.766-11.989s1.563-0.756,3.363-0.578
			c1.792,0.382,3.131,1.61,3.131,1.61s0.656,12.739,7.872,16.016c0,0,9.042,4.855,18.552-0.195c0,0,2.563-2.236,7.37-13.179
			c0,0,2.416-7.315,0.96-9.426c0,0-16.914-4.122-31.582-1.165c0,0-0.618,0.161-1.575,0.295l0.003-0.016
			c-0.04,0.011-0.08,0.022-0.12,0.032c-1.023,0.137-2.396,0.236-3.805,0.088c-1.386-0.236-2.65-0.694-3.564-1.089
			c-0.034-0.02-0.068-0.04-0.102-0.061l-0.001,0.016c-0.842-0.371-1.363-0.678-1.363-0.678
			C113.816,60.822,103.169,61.581,103.169,61.581z M138.257,70.503c0,0,10.523-4.147,23.853,0.922c0,0,3.496,0.925,1.622,7.478
			c0,0-2.089,7.054-3.796,9.998c0,0-1.659,3.563-7.451,3.593c0,0-6.794,0.422-9.591-1.181c0,0-3.812-1.579-5.692-5.101
			c0,0-1.786-2.387-2.056-9.395C135.145,76.817,134.575,72.287,138.257,70.503z M106.363,64.285
			c10.903-1.523,16.411,4.051,16.411,4.051c2.842,2.637,1.177,6.694,1.177,6.694c-1.999,6.372-4.137,7.948-4.137,7.948
			c-2.44,2.52-5.914,2.608-5.914,2.608c-2.556,0.443-5.247-1.505-5.247-1.505c-4.034-1.774-4.42-5.118-4.42-5.118
			c-0.539-2.821-0.492-8.985-0.492-8.985C103.829,64.326,106.363,64.285,106.363,64.285z"/>
		<path fill="#2D2D2D" d="M170.475,69.751c0,0-0.438,4.045-1.68,6.409c0,0-1.544,0.213-1.531,0.159
			c0.013-0.054,0.013-0.054,0.013-0.054l0.246-6.887C167.523,69.379,169.428,69.386,170.475,69.751z"/>
		<path opacity="0.2" fill="#F2F6F5" d="M138.257,70.503c0,0,10.523-4.147,23.853,0.922c0,0,3.496,0.925,1.622,7.478
			c0,0-2.089,7.054-3.796,9.998c0,0-1.659,3.563-7.451,3.593c0,0-6.794,0.422-9.591-1.181c0,0-3.812-1.579-5.692-5.101
			c0,0-1.786-2.387-2.056-9.395C135.145,76.817,134.575,72.287,138.257,70.503z"/>
		<path opacity="0.2" fill="#F2F6F5" d="M103.742,69.979c0,0-0.044,6.163,0.494,8.982c0,0,0.264,2.335,2.7,4.125
			c0.485,0.368,1.052,0.7,1.719,0.999c0,0,2.685,1.944,5.248,1.496c0,0,3.469-0.081,5.913-2.601c0,0,2.137-1.58,4.139-7.953
			c0,0,1.658-4.058-1.176-6.69c0,0-4.589-4.844-14.484-4.246c-0.631,0.037-1.278,0.092-1.935,0.189
			C106.36,64.279,103.828,64.328,103.742,69.979z"/>
		<path opacity="0.3" d="M114.75,62.92l-0.182,1.593c-2.45-0.467-5.211-0.646-8.206-0.228c0,0-2.534,0.041-2.621,5.693
			c0,0-0.047,6.164,0.492,8.985c0,0,0.385,3.344,4.42,5.118c0,0,1.635,0.839,3.511,1.471l-0.175,1.529
			c-2.517-0.757-5.43-2.3-7.89-5.427c0,0-1.655-1.69-2.187-12.391c0,0,0.549-6.143,1.256-7.681
			C103.169,61.581,108.175,61.522,114.75,62.92z"/>
		<path opacity="0.3" d="M134.369,68.492l-0.003,0.016c0.957-0.134,1.575-0.295,1.575-0.295c4.395-0.886,8.99-1.135,13.297-1.049
			l-0.274,1.749c-6.466-0.068-10.707,1.589-10.707,1.589c-3.681,1.784-3.111,6.314-3.111,6.314c0.271,7.008,2.056,9.395,2.056,9.395
			c1.88,3.523,5.692,5.101,5.692,5.101c0.645,0.369,1.499,0.627,2.43,0.811l-0.251,1.6c-2.709-0.623-4.432-1.546-4.432-1.546
			c-7.215-3.277-7.872-16.016-7.872-16.016s-1.338-1.228-3.131-1.61l0.805-5.94c1.41,0.148,2.782,0.049,3.805-0.088
			C134.289,68.514,134.329,68.503,134.369,68.492z"/>
		<path opacity="0.2" fill="#F2F6F5" d="M138.257,70.503c0,0,4.216-1.649,10.65-1.59l-3.636,23.201
			c-0.91-0.183-1.744-0.438-2.376-0.8c0,0-3.812-1.579-5.692-5.101c0,0-1.786-2.387-2.056-9.395
			C135.145,76.817,134.575,72.287,138.257,70.503z"/>
		<path opacity="0.2" fill="#F2F6F5" d="M106.363,64.285c2.994-0.418,5.755-0.238,8.206,0.228l-2.404,21.039
			c-1.876-0.632-3.511-1.471-3.511-1.471c-4.034-1.774-4.42-5.118-4.42-5.118c-0.539-2.821-0.492-8.985-0.492-8.985
			C103.829,64.326,106.363,64.285,106.363,64.285z"/>
	</g>
	<path fill="#B56C43" d="M111.535,129.168c1.53,3.45,6.78,5.31,9.89,6.95c0.34,0.19,0.66,0.37,0.95,0.55c1.58,1,3.35,1.41,4.97,1.51
		l0.95-0.1c11.15-7.02,17.94-15.48,20.78-19.52c-0.04,0.02-0.06,0.03-0.06,0.03c-0.47,0.3-0.91,0.54-1.33,0.75
		c-0.01,0.01-0.021,0.01-0.03,0.02c-4.25,2.07-3.74-4.693-4.508-6.52c-5.524-13.131-14.202-11.347-20.303-13.131
		c-6.637-1.941-10.447-0.265-12.086,1.61c-0.01,4.03-0.072,9.801-0.282,11.771C110.015,117.488,109.055,123.568,111.535,129.168z
		 M112.188,110.338c-0.167-9.417,12.631-4.585,16.472-4c4.875,0.742,9.028,2.917,9.445,11.375
		c0.229,4.641-7.167,11.958-12.956,5.844c-1.154-1.218-1.742-2.678-1.549-3.444c0.274-1.111,0.265-2.009,0.028-2.389
		c-0.804-1.298-2.18-1.594-3.098-1.583c-1.887,0.02-1.648,1.673-2.04,2.316c-1.255,2.081-3.878,1.34-4.885,0.88
		C110.446,117.896,112.223,112.271,112.188,110.338z"/>
	<g>
		<path fill="#E09563" d="M113.882,107.752c0.053,0.124,0.108,0.236,0.16,0.36c3.211,6.27,10.927,10.554,21.076,3.377
			c0.044-0.03,0.087-0.06,0.146-0.099c-0.068,0.025-0.139,0.062-0.216,0.073l-0.395-0.125c0,0-5.309-2.601-6.382-2.956
			c-1.386-0.44-3.054,0.208-4.833-0.166c-2.726-0.591-3.883-1.59-4.801-1.68C117.009,106.375,115.75,107.04,113.882,107.752z"/>
		<path fill="#C95240" d="M113.696,107.73c0.102,0.133,0.218,0.256,0.346,0.382c0.098,0.082,0.199,0.152,0.315,0.212
			c0.263,0.151,0.579,0.223,0.867,0.24c0.603,0.025,1.178-0.069,1.747-0.062c0.281-0.01,0.557,0.004,0.841,0.045
			c0.063-0.001,0.137,0.013,0.21,0.027c0.061,0.012,0.122,0.023,0.193,0.049c0.12,0.035,0.25,0.085,0.378,0.147
			c0.27,0.114,0.525,0.239,0.782,0.351c0.267,0.127,0.535,0.253,0.805,0.368c0.542,0.216,1.088,0.408,1.652,0.578
			c0.289,0.08,0.568,0.145,0.859,0.213c0.291,0.068,0.587,0.111,0.888,0.13c0.586,0.048,1.177,0.007,1.755-0.036
			c0.578-0.043,1.144-0.088,1.692-0.035c0.134,0.025,0.271,0.039,0.403,0.076c0.12,0.035,0.264,0.075,0.394,0.125l0.823,0.27
			c0.549,0.18,1.095,0.372,1.658,0.542c0.551,0.168,1.119,0.313,1.711,0.4c0.296,0.043,0.596,0.062,0.889,0.054
			s0.586-0.016,0.886-0.061c0.427-0.046,0.851-0.143,1.257-0.282l-0.395-0.125c-0.304,0.069-0.604,0.114-0.899,0.134
			c-0.283,0.022-0.564,0.033-0.854,0.029c-0.276-0.014-0.552-0.028-0.833-0.082c-0.553-0.092-1.104-0.259-1.655-0.427
			c-0.549-0.18-1.083-0.369-1.63-0.561c-0.272-0.102-0.546-0.192-0.821-0.282c-0.142-0.052-0.274-0.09-0.431-0.132
			c-0.157-0.042-0.303-0.07-0.452-0.086c-0.607-0.077-1.199-0.024-1.777,0.019c-0.566,0.045-1.132,0.09-1.694,0.047
			c-0.276-0.014-0.56-0.055-0.827-0.118c-0.279-0.065-0.558-0.131-0.835-0.208c-0.556-0.143-1.092-0.321-1.622-0.535
			c-0.532-0.202-1.054-0.453-1.594-0.681c-0.142-0.052-0.284-0.104-0.429-0.144l-0.232-0.044c-0.073-0.014-0.147-0.028-0.222-0.029
			c-0.298-0.031-0.589-0.035-0.884-0.015c-0.588,0.028-1.165,0.134-1.722,0.13c-0.278-0.002-0.562-0.043-0.805-0.165
			c-0.209-0.103-0.396-0.252-0.551-0.434c-0.034-0.019-0.064-0.063-0.096-0.094C113.612,107.435,113.357,107.248,113.696,107.73z"/>
		<defs>
			<filter id="Adobe_OpacityMaskFilter" filterUnits="userSpaceOnUse" x="118.194" y="110.274" width="9.846" height="4.341">
				<feFlood  style="flood-color:white;flood-opacity:1" result="back"/>
				<feBlend  in="SourceGraphic" in2="back" mode="normal"/>
			</filter>
		</defs>
		<mask maskUnits="userSpaceOnUse" x="118.194" y="110.274" width="9.846" height="4.341" id="SVGID_5_">
			<g filter="url(#Adobe_OpacityMaskFilter)">
				<defs>
					<filter id="Adobe_OpacityMaskFilter_1_" filterUnits="userSpaceOnUse" x="118.194" y="110.274" width="9.846" height="4.341">
						<feFlood  style="flood-color:white;flood-opacity:1" result="back"/>
						<feBlend  in="SourceGraphic" in2="back" mode="normal"/>
					</filter>
				</defs>
				<mask maskUnits="userSpaceOnUse" x="118.194" y="110.274" width="9.846" height="4.341" id="SVGID_5_">
					<g filter="url(#Adobe_OpacityMaskFilter_1_)">
					</g>
				</mask>
				
					<linearGradient id="SVGID_6_" gradientUnits="userSpaceOnUse" x1="50.9037" y1="-60.7112" x2="63.2621" y2="-60.3016" gradientTransform="matrix(-0.9826 -0.1858 -0.1858 0.9826 167.1738 182.6471)">
					<stop  offset="0" style="stop-color:#FFFFFF"/>
					<stop  offset="1" style="stop-color:#000000"/>
				</linearGradient>
				<path mask="url(#SVGID_5_)" fill="url(#SVGID_6_)" d="M118.213,110.882c-0.231,1.224,1.692,3.086,4.401,3.598
					c2.71,0.512,5.18-0.519,5.411-1.743c0.232-1.225-2.241-1.135-4.952-1.648C120.365,110.577,118.445,109.657,118.213,110.882z"/>
			</g>
		</mask>
		<path fill="#E09563" d="M118.213,110.882c-0.231,1.224,1.692,3.086,4.401,3.598c2.71,0.512,5.18-0.519,5.411-1.743
			c0.232-1.225-2.241-1.135-4.952-1.648C120.365,110.577,118.445,109.657,118.213,110.882z"/>
	</g>
	<g>
		<path fill="#012B59" d="M109.33,361.508c0.4,0.28,0.79,0.57,1.17,0.87c0.23,0.18,0.45,0.36,0.67,0.54
			c3.57,2.93,6.02,6.46,7.7,10.13c0.5,1.08,0.93,2.19,1.3,3.29c0.73,2.18,1.22,4.38,1.53,6.5c0.01,0.09,0.03,0.19,0.03,0.29h0.01
			c0.81,5.75,0.37,10.9-0.02,13.74c-0.2,1.46-0.39,2.3-0.39,2.3l99-35c24.67-6.66,29.33-31.66,29.33-31.66l14.34-99.34
			c6-44-12-49.66-12-49.66c-3.64-0.75-7-0.86-10.1-0.42c-0.93,0.12-1.83,0.3-2.71,0.52c-0.1,0.02-0.19,0.05-0.29,0.07
			c-1.48,0.39-2.9,0.9-4.26,1.52c-25,11.5-29.64,60.97-29.64,60.97c-4.34,33-7.17,81-7.17,81
			C169.66,336.508,109.33,361.508,109.33,361.508z"/>
		<path fill="#001A37" d="M121.33,399.168l99-35c9.59-2.59,16.16-7.95,20.6-13.54c1.99-2.5,3.56-5.05,4.78-7.42
			c3.06-5.93,3.95-10.7,3.95-10.7l14.34-99.34c3.38-24.76-0.85-37.38-5.19-43.68c-1.45-2.11-2.91-3.51-4.11-4.42
			c-1.58-1.21-2.7-1.56-2.7-1.56c-4.84-1-9.19-0.86-13.1,0.17l-0.02,0.01c0,0,0.18,0.42,0.45,1.38c2,7,8.91,42.79-13.67,154.77
			l-105.49,36.5c0.76,2.28,1.26,4.58,1.57,6.79C122.97,391.828,121.33,399.168,121.33,399.168z"/>
		<path fill="none" stroke="#001A37" stroke-miterlimit="10" d="M121.74,383.128c-0.01-0.1-0.03-0.19-0.04-0.29
			c0.01,0.09,0.03,0.19,0.03,0.29H121.74z"/>
		<path fill="#002246" d="M118.87,373.048c0.5,1.08,0.93,2.19,1.3,3.29l105.49-36.5c19.58-97.09,16.99-136.9,14.65-150.34
			c-0.29-1.68-0.8-4.43-1.12-5.89c-0.1,0.02-0.19,0.05-0.29,0.07c-1.48,0.39-2.9,0.9-4.26,1.52c0.21,0.55,0.41,1.19,0.44,1.72
			c0.16,2.52,0.42,7.52,0.54,14.58c0,0,0,0,0,0.01c0.4,24.96-1.07,75.62-15.62,132.66L118.87,373.048z"/>
		<path fill="#002246" d="M109.33,361.508c0.4,0.28,0.79,0.57,1.17,0.87c17.5-10.8,94.16-34.54,94.16-34.54
			c-1.31-88,30.24-125.49,30.96-126.33c0-0.01,0-0.01,0-0.01c-0.12-7.06-0.38-12.06-0.54-14.58c-0.08-1.22-0.13-1.85-0.13-1.85
			s1.048-0.491-0.311,0.134C209.642,196.695,205,246.168,205,246.168c-4.34,33-7.17,81-7.17,81
			C169.66,336.508,109.33,361.508,109.33,361.508z"/>
		<path fill="#FFB486" d="M67.84,398.236c0,0-0.894,10.625,11.276,13.285c0,0,12.804,4.437,27.884-6.853c0,0,12.78-7.11,14.72-7.8
			c0.39-2.84,0.83-7.99,0.02-13.74h-0.01c0-0.1-0.02-0.2-0.03-0.29c-0.31-2.12-0.8-4.32-1.53-6.5c-0.37-1.1-0.8-2.21-1.3-3.29
			c-1.13-2.47-2.61-4.87-4.54-7.07h-0.01c-0.93-1.08-1.98-2.1-3.15-3.06c0,0-6.17,1.25-11.67-4.25c0,0-3.17-4.16-6.34-7.66
			c0,0-3.374-7.875-3.044-11.045c-0.61-6.705-6.27-2.04-7.375,1c-1.545,4.25-2.437,8.438,2.188,16.75c0,0,2.606,3.703,1,7.125
			l5.722,0.962c0,0-1.785-6.542-23.695,2.872C67.956,368.672,64.01,383.566,67.84,398.236z"/>
		<path fill="#FCA779" d="M67.84,398.236c0,0-0.894,10.625,11.276,13.285c0,0,12.804,4.437,27.884-6.853c0,0,12.78-7.11,14.72-7.8
			c0.39-2.84,0.83-7.99,0.02-13.74h-0.01c0-0.1-0.02-0.2-0.03-0.29c-0.31-2.12-0.8-4.32-1.53-6.5c-0.37-1.1-0.8-2.21-1.3-3.29
			c-1.13-2.47-2.61-4.87-4.54-7.07h-0.01c0,0-6.799,8.86-32.035,9.909c-4.007,0.167-8.825-0.549-14.329-7.216
			C67.956,368.672,64.01,383.566,67.84,398.236z"/>
	</g>
</g>
</svg>
