<?xml version="1.0" encoding="utf-8"?>
<!-- Generator: Adobe Illustrator 21.0.0, SVG Export Plug-In . SVG Version: 6.00 Build 0)  -->
<svg version="1.1" id="Layer_1" xmlns="http://www.w3.org/2000/svg" xmlns:xlink="http://www.w3.org/1999/xlink" x="0px" y="0px"
	 viewBox="0 0 120 120" style="enable-background:new 0 0 120 120;" xml:space="preserve">
<style type="text/css">
	.st0{fill:#3D8ECD;}
	.st1{fill:#FFFFFF;}
	.st2{fill:#F15922;}
	.st3{fill:#FBB034;}
	.st4{fill:#F36C3B;}
	.st5{fill:#EC6D3E;}
	.st6{fill:#EA5A26;}
	.st7{fill:#3E8ECC;}
	.st8{fill:#FBB94B;}
	.st9{fill:none;stroke:#FBB034;stroke-width:0.8747;stroke-miterlimit:10;}
	.st10{fill:#3EBEB8;stroke:#3EBEB8;stroke-width:0.224;stroke-miterlimit:10;}
	.st11{fill:#3EBEB8;}
</style>
<g>
	<g>
		<path class="st11" d="M106,114l0,0.2c0,0,0.1-0.4,0.2-0.8c0.1-0.4,0.1-0.8,0.1-0.8s-0.1,0.3-0.2,0.7C106.2,113.7,106,114,106,114z
			"/>
		<path class="st11" d="M107.2,104.6c-0.6,0.9,0.1,3.2-0.1,4.9l-0.1,0.3c0,0,0.1,0.2,0.2,0.4c0.1,0.2,0.2,0.4,0.2,0.4
			c0-0.3,0-0.6,0-0.9c0-0.3,0-0.6,0-0.9c0-0.5-0.1-1.1-0.1-1.6C107.2,106.3,107.1,105.3,107.2,104.6z"/>
		<path class="st11" d="M108.4,99.8c-0.2,0.3-0.2-1-0.1,1.1c0-0.1,0-0.1,0.1-0.2C108.4,100.5,108.4,100.3,108.4,99.8z"/>
		<path class="st11" d="M108.4,100.7C108.4,101.7,108.6,100.1,108.4,100.7L108.4,100.7z"/>
		<path class="st11" d="M108.3,96.3l0.2,1.3c0.1-0.3,0.2-1.4,0.2-1C108.6,95.3,108.5,95.6,108.3,96.3z"/>
		<path class="st11" d="M107.9,95.2l0.1,0.6C108,95.7,108,95.5,107.9,95.2z"/>
		<path class="st11" d="M108.1,97.2l-0.2-1.4c-0.1,0.2-0.3,0.2,0.1,0.6C107.8,96.3,108,96.6,108.1,97.2z"/>
		<path class="st11" d="M108,98c-0.1,0.7-0.2,1.6-0.4,0.4C107.7,100.7,108.1,100.4,108,98z"/>
		<path class="st11" d="M106.6,104.2l-0.2,0.9l0.2,0.8C106.6,105.5,106.8,104.1,106.6,104.2z"/>
		<path class="st11" d="M108.5,88.5c-0.1-0.1-0.3,0.4-0.5,0.5l0.1,0.9C108.3,89.5,108.4,88.6,108.5,88.5z"/>
		<path class="st11" d="M108.1,89.1l-0.2-1.4C107.9,88.9,107.9,89.1,108.1,89.1z"/>
		<polygon class="st11" points="107.2,94.9 107.7,97.2 107.2,94.5 		"/>
		<polygon class="st11" points="108.6,83.2 108.8,84 108.4,82.6 		"/>
		<path class="st11" d="M108.5,79.7c0.2,0.6,0.4-0.8,0.5-0.2c0-1-0.2-1.8-0.4-2.5C108.7,77.8,108.7,78.7,108.5,79.7z"/>
		<path class="st11" d="M108.4,75.8c0.1,0.4,0.1,0.8,0.3,1.2C108.6,76.6,108.5,76.2,108.4,75.8z"/>
		<path class="st11" d="M107.9,85.3c0.1-0.1,0.3-0.3,0.3-1.1l-0.3,0.5C107.9,84.9,107.9,85.1,107.9,85.3z"/>
		<path class="st11" d="M107.9,84.8L107.9,84.8c0-0.6,0-1,0-1.2C108,83.7,107.9,84.1,107.9,84.8z"/>
		<path class="st11" d="M107.9,85.4c0-0.1,0-0.1,0-0.1C107.9,85.4,107.9,85.4,107.9,85.4z"/>
		<path class="st11" d="M107.5,91.3c-0.2-0.8-0.4-2.5-0.7-0.9C107.1,91,107.3,90.1,107.5,91.3z"/>
		<path class="st11" d="M107.5,86.1l-0.1,1.5c0.1,0,0.2-0.3,0.3,0.1L107.5,86.1z"/>
		<polygon class="st11" points="107.4,85.4 107.5,86.1 107.6,85.6 		"/>
		<path class="st11" d="M108.1,78.3c-0.1-0.6-0.2-1.3-0.2-2.1c-0.1,0.8-0.1,1.7-0.1,2.5C107.9,78.9,108.1,79.3,108.1,78.3z"/>
		<path class="st11" d="M108,81.5c0,0,0-0.1,0-0.1C107.9,81.4,107.9,81.5,108,81.5z"/>
		<path class="st11" d="M107.9,68.5c0,0,0,0.1-0.1,0.1c0,0,0,0,0.1,0L107.9,68.5z"/>
		<path class="st11" d="M107.7,78.9c-0.1,0.6,0,1,0.1,1.4c0-0.5-0.1-1-0.1-1.5C107.7,78.7,107.7,78.7,107.7,78.9z"/>
		<path class="st11" d="M108.2,73.7c-0.1,0.3-0.1,0.7-0.2,1.1C108.1,74.4,108.3,73.8,108.2,73.7z"/>
		<path class="st11" d="M108,81.1C108,81.2,108,81.2,108,81.1C108.1,81,108.1,81,108,81.1z"/>
		<path class="st11" d="M108,81.1c0-0.3-0.1-0.6-0.2-0.8c0,0.4,0.1,0.7,0.1,1.1C108,81.3,108,81.2,108,81.1z"/>
		<path class="st11" d="M105.8,66.2c0.3,0.1,0.6,1.8,0.3,3.2c0.2,1.4,1.2,0.5,1.8-0.7c-0.1,0-0.3,0-0.4-1.5c-0.2,0.5-0.4,3.2-0.7,2
			c-0.2-1.9,0.1-1.6,0.3-2.5c-0.4,0.8-0.6-2.4-1.1-2l0.2,1.7C106,66.3,105.9,65.7,105.8,66.2z"/>
		<path class="st11" d="M107.8,71.4l0,0.6c0.1-0.7,0.2-1.2,0.4-2.1c-0.1-1-0.3-1.2-0.4-1.3l0,2.9L107.8,71.4z"/>
		<path class="st11" d="M107.8,74.7c-0.3-0.5-0.5-1.9-0.8-1c0,1.8,0.3,1.2,0.4,2.3C107.3,73.1,107.6,76.8,107.8,74.7
			c0,0.6,0,1.1,0,1.6c0-0.5,0.1-1,0.2-1.5c0,0,0,0,0,0.1l0,0l0,0c0,0.1-0.1,0.2,0,0c0,0,0,0,0-0.1C107.9,74.8,107.9,74.7,107.8,74.7
			c0.1-0.8,0.1-0.1,0.1,0.1c0,0,0,0,0,0c0,0,0,0,0,0l-0.2-2.8C107.8,72.6,107.8,73.3,107.8,74.7z"/>
		<path class="st11" d="M106.2,88.9C106.2,88.8,106.2,88.8,106.2,88.9C106.2,88.6,106.2,88.6,106.2,88.9z"/>
		<path class="st11" d="M106.4,87.8c0,0.2,0.2,0.4,0.1,1c-0.1,0.6-0.2,0-0.3,0c0.1,0.4,0.2,1.4,0.4,0.1l0-0.2
			c0.1-1.1,0.5-2.6,0.6-2.4C106.9,86.7,106.7,87,106.4,87.8z"/>
		<path class="st11" d="M107,81.1l-0.2-2.4l-0.3,1.2l0.2-0.1C106.7,81.3,106.9,81,107,81.1z"/>
		<polygon class="st11" points="108,68.2 108.4,68.5 107.9,67.2 		"/>
		<polygon class="st11" points="108,65.2 108.3,65.3 108.1,64.5 		"/>
		<path class="st11" d="M17.1,31.6l0.1,0.7C17.2,32,17.2,31.8,17.1,31.6z"/>
		<path class="st11" d="M17.2,26.6L17,26.5C17.1,26.7,17.2,26.8,17.2,26.6z"/>
		<path class="st11" d="M88.7,1.3c-1-0.3-2.1-0.7-2-0.4L87,1.2C87.7,1.2,88.2,1.2,88.7,1.3z"/>
		<path class="st11" d="M37,3.3c0.1,0,0.2,0.1,0.3,0.1C37.6,3.2,37.8,3.1,38,3C37.7,3.1,37.4,3.2,37,3.3z"/>
		<path class="st11" d="M36.3,4.6L35,4.4C35.3,4.5,35.7,4.6,36.3,4.6z"/>
		<path class="st11" d="M17.5,59.1l0.3,0.8C17.8,58.6,17.7,59.2,17.5,59.1z"/>
		<path class="st11" d="M107.9,33.7c0.1-0.9,0.2-1.6,0.2-2.2C107.9,32.6,107.6,33.4,107.9,33.7z"/>
		<path class="st11" d="M13.6,29.7c0.1,0.4,0.1,0.6,0.2,0.6C13.7,29.8,13.7,29.6,13.6,29.7z"/>
		<path class="st11" d="M108.1,29c0,0.2-0.1,0.3-0.1,0.5c0.1,0.6,0.1,1.3,0.1,2.1C108.2,30.8,108.3,29.9,108.1,29z"/>
		<path class="st11" d="M59.4,116.6c0.1,0,0.2,0,0.2,0C59.6,116.6,59.5,116.6,59.4,116.6z"/>
		<path class="st11" d="M88.4,120c-0.3,0-0.8,0-1.2,0C87.4,120,87.8,120,88.4,120z"/>
		<path class="st11" d="M108.2,52.8C108.2,53.5,108.2,52.9,108.2,52.8L108.2,52.8z"/>
		<path class="st11" d="M106.8,56c0-0.1-0.1-0.2-0.2-0.3C106.7,55.8,106.8,55.9,106.8,56z"/>
		<path class="st11" d="M106,22.5C106,22.5,106,22.5,106,22.5C105.9,22.7,106,22.6,106,22.5z"/>
		<path class="st11" d="M108,53.8c0-0.2,0.1-0.5,0.1-0.8C108.1,53.1,108,53.3,108,53.8z"/>
		<path class="st11" d="M108.2,53.7c0,0.2,0,0.4,0,0.6C108.2,54.3,108.2,54.2,108.2,53.7z"/>
		<path class="st11" d="M108.1,51.9c0,0.4,0,0.7,0,1.1c0-0.1,0-0.2,0.1-0.1C108.1,52.6,108.1,52.4,108.1,51.9z"/>
		<path class="st11" d="M16.3,105.3c0,0,0,0.1,0,0.1C16.4,106.1,16.4,105.8,16.3,105.3z"/>
		<path class="st11" d="M71.7,4.7C71.8,4.7,71.8,4.7,71.7,4.7C71.8,4.7,71.7,4.7,71.7,4.7L71.7,4.7z"/>
		<path class="st11" d="M69.4,5c1-0.4,1.6-0.4,2.3-0.3l-0.8-1L69.4,5z"/>
		<path class="st11" d="M17.2,43.7l0.3-1.6c0.5,2,0.3,3.4,0.7,1.9c-1-0.2-0.1-6.4-1.2-6.6l0.2-1.1c0,0.3,0.1,0.4,0,0.7
			c0.5-2.1-0.8-1.6-0.6-4.3c0.1-0.9,0.2-1.6,0.4-1l-0.3-2.1c0-0.6,0.2-0.5,0.2,0.1L17,26.5l0,0c-0.2-0.5-0.4-1.5-0.5-2
			c0.2-0.8,0.1,0.4,0.2,0.2l-0.3-1.8c0.3-0.7,0.5,0.7,0.5,2c1-1.7-0.3-1.5,0.3-5.1l0.1,1.7c0.6-1.1,0.4-2.4,0.7-4.3
			C18,17.7,17.3,21,17,19.1c0.1-0.5,0.1-1.3-0.1-2.3c0.4,0,0.3-1,0.3-2.3l0.5,0.1c-0.1-1.4-0.4-1.3-0.6-2.1c0-0.7,0.2-1,0.4-1.2
			c0.2-0.2,0.4-0.3,0.6-0.4c0.1-0.4,0.1-0.6,0.1-0.6c-0.1,0-0.2,0.1-0.3,0.2c-0.2,0.2-0.5,0.4-0.2-0.7c0.4-0.7,0.7-1.3,1.1-1.9
			c0.4-0.6,0.9-1.3,1.7-2c1.1-0.5,0,0.4,0.4,0.3c0,0,0-0.1,0.1-0.1c0.1-0.1,0.1-0.2,0.2-0.3c0.2-0.2,0.4-0.4,0.4-0.4
			c0.2-0.1,0.2,0.1,0.2,0.1c0.8-0.4-0.1-0.5,1.3-1c0.1-0.1,0.3-0.2,0.7-0.2c0.2,0,0.4,0,0.6,0.1c0.1,0,0.2,0,0.3,0
			c0.1,0,0.3,0,0.4,0.1c1.1,0.2,2.3,0.4,3.4,0.1c0.5,0.1-0.2,0.3-0.1,0.5c2.9-0.4,2.4-0.3,4.8-0.8l2,0.3c-1.5-0.4,0.4-0.8,2-1.2
			c-0.5-0.2-1-0.3-1.3-0.4l2.6-0.3C38.7,2.7,38.4,2.8,38,3c0.2,0,0.3-0.1,0.5-0.1c0.9,0.2,0.5,0.5-0.2,0.7c-0.3-0.1-0.6-0.2-0.9-0.3
			c-0.6,0.3-1.3,0.6-1.1,0.9c0.2-0.1,0.5-0.1,0.9-0.1c-0.2,0.1-0.3,0.2-0.2,0.2c0.1,0.1,0.4-0.1,0.8-0.2l0.6,0.5l0.1-0.2l3.4,0.3
			c2.4-0.6,4.6-1.4,8.5-1.6c-1,0.4-0.2,0.7-0.3,1.1c-1.1-0.5-3,0.2-5,0.1c1.1,0.1,0.8,0.3,0.6,0.4l3.6-0.5c-0.1,0.4,0.8,0.3,1.7,0.5
			c-0.7-0.8,2.7-0.5,4.1-0.7c0.1,0.3-0.3,0.5-2,0.5c2,0.6,2.5-0.9,4.5-0.4c-0.4,0-0.7,0-0.8,0.1c1-0.2,3.5,0,2.9,0.2l-0.4,0
			c2.9,0.1,8.8,0,9.2-0.6c0,0.1-0.4,0.8-0.6,0.9l5.2-2.2c-0.5,0.6,1.3,1.9-1.1,2.2c0.7,0.1,1.5,0.2,3,0c-0.5-0.1-1.2-0.8-0.5-0.9
			c1.8,0.6,1.2,0.3,3.4,0.9c-0.7-0.1,0.1-1,1.2-1c-0.2,0.1,0.1,0.9-0.3,1l2.8-0.9c-0.7,0.2-0.1,0.7,0.5,1c-0.3-0.2,2.4,0,3.1-0.1
			l-1.2-0.2c3.1,0.1,3.1-1.2,6.2-1.2c-0.4,0.2-0.9,1.1,0.7,1.2c0.7-0.4,3.2-2.1,5.9-2.5l0.5,0.3c0,0,0.1,0,0.4,0c0.2,0,0.5,0,0.8,0
			c0.6,0,1.2,0.1,1.2,0.1c-0.4,0.1-1,0.2-1.6,0.3c-0.6,0.2-1.3,0.4-1.9,0.7c-1.3,0.5-2.8,1-3.8,1.3c1.2,0.2,0.3,0.3,2.1,0.3
			c0.6,0.2-1,0.4-1.5,0.4l4.1,0.2c0-0.1,0.1-0.2,0.3-0.3c0.1,0,0.2-0.1,0.4-0.1c0.1,0,0.3,0,0.5,0c0.6,0,1.3,0.1,1.3-0.1
			c0,0-0.1,0-0.2,0c-0.1,0-0.3,0-0.4,0c-0.3-0.1-0.8-0.1-1.3,0c-0.2,0-0.5,0-0.7,0.1c-0.3,0-0.5,0.1-0.7,0.1
			c-0.4,0.1-0.7,0.1-0.7,0.1C95.3,4.8,96,4.4,97,4.1c0.9-0.3,2.3-0.3,3.5,0.4c0.3,0.2,0,0.4-0.2,0.5c-0.3,0.1-0.6,0.2-0.6,0.3
			c0.1,0,0.3,0,0.5,0.1c0.1,0,0.2,0.1,0.4,0.1c0.1,0.1,0.3,0.1,0.4,0.2c0.3,0.1,0.5,0.3,0.7,0.4c0.2,0.1,0.3,0.3,0.3,0.3
			c0,0-0.1,0-0.1-0.1c-0.1,0-0.2-0.1-0.3-0.1c-0.1,0-0.2-0.1-0.3-0.1c-0.1,0-0.2,0-0.2,0c0.5,0.4,1,0.7,1.5,1c0.5,0.3,1,0.8,1.2,1.6
			c0.3,0.5,0,1.7,0.3,1.7c0.3-1,1.8-2,2.6-1.4c0,0.1,0.1,0.3,0.1,0.7c0,0.2,0,0.4,0.1,0.7c0,0.2,0,0.5,0,0.8c-0.1,1.1-0.3,2-0.4,2.4
			c-0.5,1.1-1.1-1.6-1.5-0.7c0.1,0,0.3,0.6,0.4,0.9c-0.1,0.7-0.4-0.3-0.4,1.2c0.5,0.3,0,3.1,0.4,0.7c0.1,1.5-0.1,1.6-0.1,3.3
			c0.3-0.6,1.2,1.6,1.3,3.1c-0.1-0.1-0.3,0.2-0.4,0.4c0,3.1-0.3,4.7-0.3,7.5c-0.1,0.3-0.3,1.6-0.5,1.1c0.1,0.4,0.3,0.8,0.3,1.7
			c-0.5,1.7-0.1-2-0.6-0.7c0.3,0.1,0.4,2.3,0.6,3.5c0.5-0.4,0.1-2.9-0.1-4.1c0.6,0,1.3,2.2,1.6,5.2c0.2,2.4-0.4,1-0.3,1.4
			c-0.1,4.4,1.1,3.8,0.7,7.5c-0.4,1.5-0.8,0.1-1.1,0.4c-0.2-1.9,0.3-3,0.2-4.3l-0.2,1.6c-0.1-0.6-0.2-1.9-0.1-2.6
			c-0.4,1.2-0.1,7.5-0.4,10.9c0.1,0.6,0.3,1.7,0.4,1.2l-0.1-1.1c0.3-1,0.5,2,0.6,0.7c0.2,1.5,0.6,3.1,0.4,5.1l-0.5,0.4
			c0.1,0,0.3-1.3,0.1-1.9c0.2,0.9-0.6,3.1,0,4.1l0.3-1.4c0.2,1.5,0.7,3.3,0.6,5.1c0.5-0.8-0.1-0.4,0.5-1.7c-0.7,1.1,0-4.6-0.7-2.8
			c0.6-1.3,0.3-2.3,0.8-4c-0.2,0.1-0.3,0.6-0.2-0.9c0-0.1-0.1-0.2-0.1-0.3c0,0,0-0.1,0-0.1c0,0,0,0.1,0,0.1c0-0.1,0-0.1,0,0
			c-0.1,0.4-0.2,0.7-0.2,0.8c-0.4-0.8-0.3-3.2-0.5-4c0.1-0.9,0.2,0.4,0.3-0.1l-0.3-1.2c0.3-0.1,0.6-2.4,0.8-0.3l0-1.9
			c0.2-1.1,0.3-2.7,0.1-3.6c0.1-0.9-0.4-2.3-0.1-1.5l-0.2-3l0.1,0c0-3-0.6-6.1,0.1-9.5c-0.1-1-0.2-2-0.1-3.7l0.3-0.3
			c-0.1-1.3,0.3-3.9,0-4.4c0.8-1.4,0.2-6.2,0.3-8.5l-0.4-0.1c0-1.9-0.5-3.8-1.8-5.7l-0.2,0.3c-0.6-0.8-1.3-1.8-2.2-2.8
			c-1-1-2.3-1.9-3.8-2.4c0.2,0,1,0.2,1.5,0.6c-0.7-0.6-1.7-1-2.6-1.1c-0.5-0.1-1-0.1-1.5-0.1c-0.2,0-0.5,0-0.7,0l-0.6,0.1
			c-1.6,0.2-3.2,0.4-4.6,0.1c-0.7,0.1-1.2,0.1-1.7,0c0.1,0,0.1,0,0.2,0c-0.1,0-0.2,0-0.3,0c-0.3-0.1-0.6-0.1-1-0.2
			c0.3,0.1,0.6,0.2,0.8,0.2c-0.5,0-1.4,0-2.2,0.1L87,1.2c-0.1,0-0.1,0-0.2,0c-0.8-0.1-0.6,0.2-0.2,0.5c-0.4,0.1-0.8,0.1-1.1,0.2
			c-0.6-0.6-2.1,0.2-3-0.4c-0.5,0.3-4.1,0.2-4.5,0.9c0-0.1-0.3-0.1,0.2-0.1c-0.9-0.1-1.8-0.1-2.6,0l-0.4-0.5l-2,0.6
			c-1.2-0.3-1.7-0.5-0.5-0.8c-2.9,0.6-2.3,0.2-4.8,0.8l0.1-0.3c-0.9,0-2.3,0.4-2.8,0.2c-2-0.6-9.7-0.1-14.7-0.6
			c1,0.9-2.3-0.4-2.5,0.3c-0.3-0.2-1-0.3-0.2-0.5c-2.6,0.2-3.9-0.3-5.6,0.2c-0.3-0.2,0.5-0.3,0.3-0.4c-0.2,0-0.8,0.2-1.1,0.1
			C41,1.1,41.6,1.1,42,1c-2.6,0-2.9,0.7-3.1,1.3c-1.3-0.3-2-0.2-3,0.2C35.5,2.2,34.7,2,36.4,2c-0.9,0-5.6-0.3-5.7,0.2
			c-0.3-0.1-1.3,0-1.5,0c-2.1,0-2.2-0.1-4.3,0l0.6,0.1c-0.4,0.3-0.8,0.3-1.4,0.3c-0.3,0-0.6,0-0.9,0c-0.4,0-0.7,0.1-1.2,0.2l0-0.1
			c-1,0.2-1.6,0.4-2,0.6c-0.4,0.2-0.6,0.3-0.7,0.4c-0.2,0.1-0.4,0.2-0.7,0.5c-0.3,0.2-0.9,0.6-1.7,1.2l0.4,0.1
			c0.1,0.2,0,0.4-0.3,0.7c-0.2,0.3-0.6,0.6-0.9,1.1c-0.7,0.8-1.5,2.1-1.5,3.3c0,0,0.1-0.2,0.2-0.4c0.1-0.2,0.2-0.4,0.2-0.4
			c0,0.3-0.1,0.7-0.3,1.1c-0.2,0.4-0.3,0.8-0.5,1.3c-0.3,0.9-0.7,1.6-0.7,2.2c-0.1,0.3-0.1-0.4-0.2-0.8c-0.5,3.1,0.5,0.4,0.6,2.7
			c-0.3,0.4-0.7-0.5-0.7,1c-0.2,0.8,0.8,4.5,0.3,6.6c0.2-0.5,0.4-0.9,0.6,0.1c0.1,1.6-0.8,4.4-0.1,5.9c-0.1,0.2-0.1,0.3-0.2,0.3
			c0.2,1.2,0.3,4,0.6,4.8c-1.3,1.2,0.6,7.7-0.6,7.7l0.1,3.8l-0.1-0.1c-0.1,2.5,0.2,3.3,0.5,4.2c-0.1,0.6-0.2,0.2-0.3,0.1
			c-0.2,3.6-0.2,3.9,0.4,6.9L14.1,58c0.2,0.8-0.6,5.2-0.2,8.7c0,0-0.1-0.1-0.2-0.4c0.4,4-1.1,9.5,0.3,10.9l0.3,2.6
			c0.1-3.4,0.6,0.5,0.8-0.9c0.1,1.3-0.4,3.4-0.5,1.8l0.1-0.3c-0.7-0.6-0.3,4.2-0.7,4.1c0,6.6-0.4,13.1-0.4,19.3l0.6-0.7l0,2.2
			c-0.1,0.6-0.4,0.8-0.4-0.8c-0.3,0.8,0.3,2.6,0.4,2.6c-0.2,3-0.7-1.2-0.7-0.3l0,1.3l0.1-0.3c0.1,0.5,0.2,0.8,0.3,1.2
			c0,0.2,0.1,0.5,0.1,0.8c0,0.3,0.1,0.7,0.2,1.2c0.2,1.3-0.2,0.8-0.1,1.3c0,0,0,0.2,0.3,0.8c0,0,0,0,0,0.1c0,0.1,0.1,0.2,0.1,0.3
			c0.1,0.3,0.3,0.6,0.5,1c0.4,0.7,0.9,1.3,0.9,1.3s-0.1-0.3-0.2-0.6c-0.1-0.3-0.2-0.6-0.2-0.6c0.9,1.1,1.8,2.2,1.2,0.9
			c0.2,0.5,0.7,1.3,1.7,2.1c0.9,0.8,2.2,1.4,3.6,1.7c0.7,0.2,1.4,0.3,2,0.3c0.3,0,0.6,0,0.9,0c0.3,0,0.5,0,0.8,0c1,0,1.7,0,2,0.1
			c1.7-0.3,3.4-0.3,5.4-0.3c-0.5-0.1-0.8-0.6,1-0.5c-0.7,1,3.3,0.4,4.7,1.2c-1.3-0.5,5.1-0.1,3.1-0.8c1.5,0.1,0.1,0.4,1.2,0.6
			c3.6-0.4,7.8,0.3,12.2,0.1c0.1-0.1-0.7-0.3,0.3-0.5l2.3,0.7c0.9-0.1,0.8-0.8,2.4-0.3c-0.2-0.1-0.6-0.3,0-0.3
			c8.6,0.7,17.6-0.5,26.3,0.7c-1.2-0.3-0.4-0.3,0.5-0.3c-0.6-0.1,0-0.3-0.1-0.5l3.7,0.5c0.7-0.5,3.9,0,4.3-0.5l-1.2,0.1
			c1.5-0.6-2.2-1.3-1.9-2c-1.7,0.7-4.5-1-7.4,0c-0.6-0.2,0.5-0.2,0.2-0.4c-0.7,0.3-1.6,0.4-3.2,0.2l0.2-0.1
			c-4.5,0.1-6.4-0.2-11.5-0.4l0.4,0.4c-1.1,0-1.3-0.2-1.8-0.3c-1.2,0.6,3.1,0,1.9,0.6c-1.4-0.7-7.7,0-8.7-0.9
			c-1.7,0,0.5,0.4-1.2,0.4l-0.4-0.2l-0.4,0.3c-1.1,0-1.7-0.3-1.7-0.5c0.3,0,0.8-0.1,1-0.1c-1.4-0.3-4,0.1-4.5,0l1.6,0.1
			c-4.6,0.2-10.2-0.1-14.6,0.4l0.3,0.2c-3.4,0.3-2.7-0.2-6.4,0l0.1,0c-0.7,0.2-1.7,0.3-2.7,0.2c0.9-0.2-1.8-0.4-0.5-0.6
			c-3.7,0.3-1.8,0.3-4.2,0.9l-0.6-0.3c-0.8,0.3-0.9,0.4-2.7,0.5c1.5-0.2-1.2-0.4,0.5-0.8c-0.5-0.1-1-0.1-1.3-0.2
			c-0.4,0-0.7-0.1-1-0.1c-0.3,0-0.6-0.1-0.9-0.1c-0.3,0-0.5-0.1-0.8-0.2c-1-0.2-1.7-0.7-2-1.5c-0.8-0.2-0.4,0.4,0.3,0.9
			c0.7,0.5,1.5,0.8,1.1,0.7c0.3,0.3-0.1,0.3-0.6,0.1c-0.6-0.2-1.3-0.6-1.7-1c-0.2-0.2-0.4-0.4-0.5-0.7c-0.1-0.3-0.2-0.6-0.3-0.9
			c-0.2-0.7-0.5-1.5-0.8-2.8c0.1,0.3,0.1,0.2,0.2,0.5c-0.1-1-0.8-1.7-0.4-3.1c-0.5-0.8,0-1.9-0.6-2.1c0,0,0,0.7,0.1,1.4
			c0,0.7,0.1,1.4,0.1,1.4c-0.2-1.6-0.9-3.1-0.5-5.8c0.1,0.2,0.3,1,0.4,1.5c0.2-0.8-0.1-1.5,0.1-2.3c0.6,0.2,0.1,3.5,0.6,5.2
			c0.3-0.8-0.4-3.3,0.2-2.4c-0.8-1.3,0.1-3.1-0.5-5.2l0.4,0.1c-0.1-0.3-0.2-1-0.2-1.6l0.5,1.1c-0.4-1.7,0.4-3.3,0.1-4.9
			c0,3.4-0.4,0.8-0.7,2.2c-0.5-4.2,1-2.4,0.8-7.2c0.1,0.6-0.2,2.4-0.4,1.4c0.1-0.9,0.2-2.1,0.4-2.6c-0.1-3.1-0.4,0.5-0.6-0.9
			c0.4-1.1-0.2-1.5-0.3-2.9l0.4,0c0.2-3.6-0.8-0.9-0.5-4.2l0.5,1.4l-0.1-1.7l0.4,0.3C17,79.3,17,78.8,17.2,77
			c-0.3,0.4-0.7-0.2-0.7-1.8c0.2-1.1,0.4,0.6,0.3-1.6c0.2,0.5,0.5,1.1,0.2,2c0.1,0.1,0.2,0.5,0.4,0.6c0.3-1.2,0.1-2.9,0.1-3.7
			c0,0.3,0,0.7-0.1,0.9L16.8,70c0.1-0.5,0.3-0.1,0.4,0.3c0-0.7-0.2-1.1-0.2-2.1c0.3,0.3,0.6,0.2,0.8,1.6l-0.3-3.1
			c0.1-0.2,0.4-1.6,0.5-1.2c0.2-1.7-0.6-4.2-0.4-6.5c-0.1-0.1-0.1-0.4-0.2-0.8c0.1-2.1,0.4-4,0-6.6l0.5-1.4c-0.1-2-0.7,2-0.9-1.4
			c-0.2-2.3,0.5-0.9,0.6-1.7c-0.3-1.2-0.8-3.2-0.4-5.4C17.3,42.5,17.2,43,17.2,43.7z M17,19.1c0.1,0.5,0.3,1.4,0.1,1.8
			C16.7,20.4,16.9,19.9,17,19.1z M40.6,4c-0.4,0.1-0.9,0.1-1.5-0.1C39.6,3.9,40.1,3.9,40.6,4z M107.8,45.7
			C107.8,45.7,107.8,45.6,107.8,45.7C108,44.6,107.9,44.9,107.8,45.7z M107.7,47.9c0.1,0.2,0.1,0.2,0.2,0.1
			c-0.1-0.2-0.1-0.6-0.1-1.2C107.7,46.9,107.6,47.2,107.7,47.9z M14.4,112.7c0,0,0-0.1,0-0.2c0-0.1,0-0.3,0-0.3
			C14.8,113.2,14.6,112.9,14.4,112.7z"/>
		<path class="st11" d="M36.4,4.5c-0.1-0.1-0.2-0.1-0.2-0.2C36,4.3,36,4.4,36.4,4.5z"/>
		<path class="st11" d="M17.4,58.9L17.4,58.9c0,0.1,0,0.1,0.1,0.1L17.4,58.9z"/>
		<path class="st11" d="M104.5,13.8c0.1-0.5,0.1-0.7,0.2-0.9C104.6,12.9,104.6,13.1,104.5,13.8z"/>
		<path class="st11" d="M108.3,59.6l-0.1-1.4c0,0.7-0.1,0.9-0.1,1.3C108.2,59.4,108.3,59.1,108.3,59.6z"/>
		<path class="st11" d="M106,71.8c0,0.2,0,0.4,0.1,0.6l0.2-0.1C106.2,71.5,106.1,70.9,106,71.8z"/>
		<path class="st11" d="M107.1,60.9c-0.3,0.1-0.2,1-0.1,2c0-0.1,0-0.1,0-0.2C107.4,63,107.2,61.9,107.1,60.9z"/>
		<path class="st11" d="M106.9,63.1c0,0.3,0,0.6,0,0.9C107.1,64.1,107,63.6,106.9,63.1z"/>
		<path class="st11" d="M107.9,50.7c-0.1,0.5,0.4,0.3,0.3,0.6C108.6,51.8,107.7,48.1,107.9,50.7z"/>
		<polygon class="st11" points="106.1,61.7 106.4,61.3 106.1,60.8 		"/>
		<path class="st11" d="M106.3,53.9l-0.1,1.6c0.1,0,0.1,0.2,0.1,0.4C106.4,54.9,106.5,53.8,106.3,53.9z"/>
		<path class="st11" d="M106.4,55.9c0,0.5,0,1,0.1,1.3C106.4,56.9,106.4,56.3,106.4,55.9z"/>
		<polygon class="st11" points="105.9,59.5 106,59 106.1,57.9 		"/>
		<path class="st11" d="M106.4,36.9l-0.1-1.7c-0.1-0.2-0.2,0.3-0.2,0.9C106.2,36.5,106.3,37.1,106.4,36.9z"/>
		<path class="st11" d="M105.4,42.1c0.1-0.5,0.2-0.5,0.3-0.8l-0.5-0.1L105.4,42.1z"/>
		<path class="st11" d="M105.2,37.1c-0.1-0.2-0.4-2.5-0.4-0.3C105,36.9,105.1,38.6,105.2,37.1z"/>
		<path class="st11" d="M105.7,11.1c0,0,0.1,0.4,0.1,0.4l0.8-0.1c0,0-0.2-0.1-0.4-0.1C106,11.2,105.7,11.1,105.7,11.1z"/>
		<path class="st11" d="M87.1,5.3c2,0.2,0.5-0.5,2.3-0.2c0.5-0.2-1.5-0.2-1-0.4C87.2,4.8,86.5,4.7,87.1,5.3z"/>
		<path class="st11" d="M88.4,4.7c0.2,0,0.4-0.1,0.6-0.1C88.7,4.6,88.5,4.6,88.4,4.7z"/>
		<path class="st11" d="M95.7,119.8l0.3,0.5l0.8-0.5C96.5,119.9,96,119.9,95.7,119.8z"/>
		<path class="st11" d="M18,15.5l-0.1-0.1c-0.1,0.2-0.1,0.5-0.2,1.1L18,15.5z"/>
		<polygon class="st11" points="17.6,33.3 17.6,33 17.2,33.6 		"/>
		<path class="st11" d="M18.2,48.2c0-0.6-0.1-1.3-0.1-1.9C18.2,47.6,17.6,48.4,18.2,48.2z"/>
	</g>
	<g>
		<path class="st11" d="M68.7,107.6c0,0.1,0.3,0,0.4,0C69,107.5,68.6,107.6,68.7,107.6z"/>
		<polygon class="st11" points="67.9,106.7 68,106.7 67.7,106.6 		"/>
		<path class="st11" d="M67.7,105.9c-0.5,0.2,0.2,0.3,0,0.5l-0.1,0.1l0.4,0C67.9,106.2,67.6,106.1,67.7,105.9z"/>
		<path class="st11" d="M68.7,105.1c-0.2,0.1-0.2,0,0,0.1C68.7,105.2,68.7,105.2,68.7,105.1C68.7,105.1,68.7,105.1,68.7,105.1z"/>
		<path class="st11" d="M68.7,105.2C68.7,105.2,68.8,105,68.7,105.2L68.7,105.2z"/>
		<path class="st11" d="M68.4,104.8l0.2,0c0.1-0.1,0.1-0.2,0.2-0.2C68.6,104.5,68.5,104.6,68.4,104.8z"/>
		<path class="st11" d="M68,104.8l0.1,0C68.1,104.8,68.1,104.8,68,104.8z"/>
		<path class="st11" d="M68.3,104.9l-0.2-0.1c-0.1,0.1-0.2,0.1,0.1,0C68,104.9,68.1,104.9,68.3,104.9z"/>
		<path class="st11" d="M68.2,105c-0.1,0.1-0.1,0.2-0.3,0.2C68.1,105.4,68.4,105.2,68.2,105z"/>
		<path class="st11" d="M67.2,106.1l-0.1,0.1l0.2,0C67.1,106.2,67.3,106,67.2,106.1z"/>
		<path class="st11" d="M68.2,103.9c-0.1,0.1-0.2,0.2-0.4,0.3l0.2,0C68,104.1,68.1,104,68.2,103.9z"/>
		<path class="st11" d="M67.8,104.2l-0.2,0C67.6,104.3,67.7,104.3,67.8,104.2z"/>
		<path class="st11" d="M67.4,105.1c0,0,0.1,0,0.2,0c0.1,0,0.2,0,0.2,0s-0.1,0-0.3,0C67.5,105.1,67.4,105.1,67.4,105.1L67.4,105.1z"
			/>
		<polygon class="st11" points="67.9,103.4 68.1,103.3 67.7,103.4 		"/>
		<path class="st11" d="M67.6,103.1c0.2-0.1,0.2-0.3,0.4-0.4c-0.1-0.1-0.3,0-0.5,0.1C67.6,102.8,67.6,102.9,67.6,103.1z"/>
		<path class="st11" d="M67.2,102.9c0.1,0,0.2,0,0.3-0.1C67.4,102.8,67.3,102.8,67.2,102.9z"/>
		<path class="st11" d="M67.5,103.9c0.1-0.1,0.2-0.2,0.2-0.3L67.5,103.9C67.5,103.9,67.5,103.9,67.5,103.9z"/>
		<path class="st11" d="M67.5,103.9L67.5,103.9c0-0.1,0-0.1-0.1-0.1C67.4,103.8,67.4,103.8,67.5,103.9z"/>
		<path class="st11" d="M67.5,103.9L67.5,103.9C67.5,104,67.5,104,67.5,103.9z"/>
		<path class="st11" d="M67.5,104.6c-0.2,0-0.4,0-0.6,0.3C67.1,104.8,67.2,104.7,67.5,104.6z"/>
		<path class="st11" d="M67.2,104.2l0,0.2c0.1-0.1,0.2-0.1,0.3-0.2L67.2,104.2z"/>
		<polygon class="st11" points="67.1,104.2 67.2,104.2 67.2,104.2 		"/>
		<path class="st11" d="M67.1,103.3c-0.2,0-0.2,0-0.3,0c0,0.1,0,0.2,0.1,0.3C67,103.5,67.2,103.4,67.1,103.3z"/>
		<path class="st11" d="M67.3,103.6C67.3,103.6,67.3,103.6,67.3,103.6C67.2,103.6,67.2,103.6,67.3,103.6z"/>
		<path class="st11" d="M66.3,102.7C66.3,102.8,66.3,102.8,66.3,102.7L66.3,102.7L66.3,102.7z"/>
		<path class="st11" d="M66.9,103.6c0,0.1,0.1,0.1,0.2,0C67.1,103.6,67,103.6,66.9,103.6C66.9,103.5,66.9,103.6,66.9,103.6z"/>
		<path class="st11" d="M66.9,102.8c0,0.1,0,0.1,0,0.2C66.9,103,67,102.8,66.9,102.8z"/>
		<path class="st11" d="M67.3,103.5L67.3,103.5C67.4,103.5,67.4,103.5,67.3,103.5z"/>
		<path class="st11" d="M67.3,103.5c-0.1,0-0.1,0-0.2,0.1C67.2,103.6,67.2,103.6,67.3,103.5C67.3,103.6,67.3,103.6,67.3,103.5z"/>
		<path class="st11" d="M64.8,104.3c0.2-0.2,0.5-0.4,0.3-0.1c0.2-0.1,0.8-0.9,1.1-1.4c-0.1,0.1-0.2,0.2-0.4,0.3
			c-0.1,0.2,0,0.5-0.3,0.6c-0.2,0,0-0.2,0-0.3c-0.2,0.3-0.5,0.3-0.8,0.8l0.2-0.1C65,104.1,64.9,104.2,64.8,104.3z"/>
		<path class="st11" d="M66.5,103L66.5,103c0.1-0.1,0.1-0.2,0.2-0.4c-0.2,0-0.3,0.1-0.3,0.2L66.5,103L66.5,103z"/>
		<path class="st11" d="M66.7,103.2c-0.3,0.2-0.5,0.2-0.6,0.5c0.1,0.1,0.3-0.1,0.4-0.2C66.3,103.4,66.7,103.5,66.7,103.2
			c0.1,0,0.1,0.1,0.1,0.1c0-0.1,0-0.1,0-0.2l0,0l0,0l0,0c0,0,0,0.1,0,0L66.7,103.2C66.8,103.1,66.8,103.2,66.7,103.2
			C66.7,103.1,66.8,103.1,66.7,103.2l0.1-0.1l0,0l-0.3-0.1C66.5,103.1,66.6,103.1,66.7,103.2z"/>
		<path class="st11" d="M66.2,105.2C66.2,105.2,66.3,105.2,66.2,105.2C66.2,105.2,66.2,105.2,66.2,105.2z"/>
		<path class="st11" d="M66.3,105c0,0,0.2-0.1,0.2,0c-0.1,0.1-0.1,0.1-0.2,0.1c0.1,0,0.3,0,0.3-0.2l0,0c0-0.1,0.3-0.5,0.4-0.5
			C66.7,104.7,66.6,104.8,66.3,105z"/>
		<path class="st11" d="M66.5,104.2c0,0-0.3,0-0.3,0l-0.1,0.3l0.1-0.1C66.3,104.4,66.4,104.3,66.5,104.2z"/>
		<polygon class="st11" points="66.4,102.6 66.6,102.3 66.2,102.6 		"/>
		<polygon class="st11" points="66.1,102.4 66.3,102.2 66.1,102.3 		"/>
		<path class="st11" d="M59.8,109L59.8,109C59.9,109,59.9,109,59.8,109z"/>
		<path class="st11" d="M59.7,108.8l-0.1,0.1C59.7,108.8,59.7,108.8,59.7,108.8z"/>
		<path class="st11" d="M58.8,102.2c-0.2-0.2-0.6-0.5-0.4-0.2l0.2,0.3C58.7,102.1,58.8,102.1,58.8,102.2z"/>
		<path class="st11" d="M57.8,106.8c0,0,0.1,0,0.1,0c-0.1,0-0.2-0.1-0.3-0.1C57.6,106.7,57.7,106.7,57.8,106.8z"/>
		<path class="st11" d="M59.1,107.1l-0.2,0C59,107.1,59.1,107.1,59.1,107.1z"/>
		<path class="st11" d="M60.8,109.5l0.2-0.3C61,109.2,60.9,109.4,60.8,109.5z"/>
		<path class="st11" d="M63.1,101.4c-0.1-0.1-0.1-0.2-0.2-0.2C63,101.4,63.1,101.7,63.1,101.4z"/>
		<path class="st11" d="M56.7,110.7c0.1,0,0.1,0,0.2-0.1C56.8,110.6,56.8,110.6,56.7,110.7z"/>
		<path class="st11" d="M62.7,101.1C62.7,101.2,62.7,101.2,62.7,101.1c0.1,0,0.2,0,0.3,0C62.9,101,62.8,100.9,62.7,101.1z"/>
		<path class="st11" d="M64.5,109.1C64.5,109.1,64.5,109.1,64.5,109.1C64.5,109.1,64.5,109.1,64.5,109.1z"/>
		<path class="st11" d="M68.2,108.4c0,0,0,0.1,0,0.1C68.3,108.5,68.3,108.5,68.2,108.4z"/>
		<path class="st11" d="M65.1,101.7C65.1,101.7,65.1,101.6,65.1,101.7L65.1,101.7z"/>
		<path class="st11" d="M64.8,103c0,0-0.1,0.1-0.1,0.1C64.7,103.1,64.7,103,64.8,103z"/>
		<path class="st11" d="M62.1,103.2L62.1,103.2C62.1,103.3,62.1,103.3,62.1,103.2z"/>
		<path class="st11" d="M65.1,101.9c0,0,0-0.1,0-0.1C65.1,101.8,65.1,101.8,65.1,101.9z"/>
		<path class="st11" d="M65.1,101.7C65.2,101.7,65.2,101.7,65.1,101.7C65.2,101.7,65.2,101.7,65.1,101.7z"/>
		<path class="st11" d="M65,101.7C65,101.7,65,101.7,65,101.7C65,101.7,65.1,101.7,65,101.7C65,101.7,65,101.7,65,101.7z"/>
		<path class="st11" d="M62.7,111.1C62.7,111.1,62.7,111.1,62.7,111.1C62.7,111,62.7,111,62.7,111.1z"/>
		<polygon class="st11" points="60,105.6 60,105.6 60,105.6 		"/>
		<path class="st11" d="M60.1,105.9c-0.3-0.3-0.2-0.3-0.1-0.3l-0.7-0.6c0,0,0.2,0.2,0.4,0.5C59.9,105.7,60.1,105.9,60.1,105.9z"/>
		<path class="st11" d="M60.2,109.3l0.2-0.2c0.4-0.3,0.3-0.1,0.6-0.5c-0.8,0.7-0.2-0.1-1,0.6l0.1-0.2c0,0,0.1,0,0,0
			c0.4-0.4-0.7,0.4-0.6,0.2c0-0.1,0.2-0.2,0.3-0.2l-0.3,0.1c0,0,0.2-0.1,0.2-0.1c0,0-0.1-0.1-0.1-0.1l0,0c-0.2,0.1-0.4,0.1-0.5,0.1
			c0.1-0.1,0.1,0,0.2-0.1l-0.3,0c0.2-0.1,0.5-0.2,0.5-0.1c0.9-0.5-0.3,0,0.2-0.3l0.1,0c0.5-0.3,0.3-0.2,0.7-0.4
			c-0.2,0.1-0.8,0.4-1.1,0.4c0.1-0.1,0.1-0.1-0.1-0.1c0.4-0.1,0.3-0.1,0.2-0.2l0.5-0.1c-0.1,0-0.4,0.1-0.6,0.1
			c0-0.1,0.4-0.2,0.7-0.2c0.1-0.1-0.6,0.2-0.7,0.1c0.2-0.1,0-0.1-0.3-0.2c0.2-0.1,0.3,0,0.4,0l-0.4,0c0,0,0.1,0,0.2,0
			c-0.2,0-0.5,0-0.6-0.1c-0.5,0,0.8-0.2,0.2-0.3c0.1,0,0.3,0,0.5,0c-0.4-0.2-0.3-0.1-0.8-0.3l0.3-0.1c-0.4,0-0.8-0.1-1.1-0.3
			c-0.2,0-0.3,0-0.4,0c0,0-0.1-0.1-0.1-0.1c-0.1-0.1-0.1-0.1-0.1-0.1c0.1,0,0.2,0.1,0.4,0.1c0,0-0.1,0-0.1-0.1
			c0.2,0,0.5,0.1,0.7,0.2c-0.1,0-0.2,0-0.3,0c0.3,0.1,0.6,0.2,0.9,0.3c-0.1,0-0.1,0-0.1-0.1c0.1,0,0.1,0,0.2,0.1
			c0.1,0-0.1,0-0.2-0.1l0.5,0.1l-0.2-0.1c0,0,0.1,0,0.2,0c0.1,0,0.2,0,0.2,0c-0.5-0.3-1.2-0.7-1.3-1c0.3,0.2,0.6,0.3,1,0.5
			c-0.5-0.1,0.1,0.2,0,0.3c0.1,0,0.3,0.1,0.3,0.1c0,0-0.1-0.1-0.2-0.2c-0.1-0.1-0.2-0.2-0.2-0.2c0.4,0.2,0.3,0.1,0.5,0.1
			c-0.7-0.3-0.4-0.3-0.6-0.5c0.2,0.1,0.5,0.3,0.4,0.3c0.6,0.2-0.7-0.6-0.2-0.4c0,0,0,0,0.1,0.1c-0.2-0.2,0.1-0.2,0.2,0l0,0
			c0.1-0.1,0.3-0.4-0.2-0.8c0.1,0.1,0.6,0.5,0.7,0.6c0,0-0.4-0.4-0.7-0.8c-0.3-0.4-0.7-0.9-0.7-0.9c0.4,0.4,1.4,1.3,1.5,1.6
			c0.1,0,0.2,0.1,0.1-0.1c-0.1,0-0.6-0.5-0.6-0.6c0.5,0.4,0.3,0.2,0.7,0.5c-0.1-0.1-0.7-0.8-0.6-0.8c0.1,0.1,0.6,0.7,0.6,0.8
			c0,0-0.1-0.2-0.2-0.4c-0.1-0.2-0.2-0.4-0.2-0.4c0.1,0.1,0.4,0.6,0.6,0.8c-0.1-0.1,0.1-0.1,0.1-0.1l-0.2-0.1c0.2,0-0.5-1.1-0.3-1.2
			c0.1,0.2,0.5,1,0.6,1c-0.2-0.4-0.8-2-0.7-2.4l0.1,0.2c0,0,0-0.1,0-0.2c0-0.1,0-0.2,0-0.2c0.1,0.7,0.5,2.1,0.6,2.6
			c0.1,0.2,0.2,0.3,0.2,0.2c0.1,0.2,0.1,0.3,0.1,0.4l0.2,0.1c-0.2-0.5-0.1-0.5-0.2-0.9c0,0,0,0.1,0,0.3c0,0.1,0,0.3,0,0.3
			c-0.2-0.5-0.5-1.4-0.3-1.4c0.1,0.2,0.3,0.9,0.4,1c0-0.2,0-0.4,0.1-0.3l0,0.3c0.1,0.2-0.1-0.7,0.2-0.2c0,0,0.2,0.6,0.2,0.3
			c-0.2-0.6-0.6-2.3-0.7-2.8c0,0,0.4,0.5,0.5,0.8c0.1,0.4,0.1,1.1,0.2,1.5c0-0.1,0-0.3,0-0.4c0.1,0.1,0.1,0.4,0.1,0.4
			c-0.1-0.5,0.2,0,0-0.4c0.1-0.2,0.1,0.1,0.2,0.1c-0.1-0.3,0-1.2,0.1-1.3c0,0.1,0,0.3,0,0.4c0.2,0,0.3,0.3,0.5,0.3
			c0,0.1,0.1,0.3,0,0.5c0-0.1,0.1-0.3,0.1-0.3c0,0.5-0.1,0.1-0.1,0.6c0-0.3,0.2-0.4,0.3-0.6c0.1-0.5-0.2-0.1-0.3,0.1
			c0.1-0.6,0.3-1.3,0.6-1.6c0.2-0.1,0,0.4,0.1,0.3c0.3,0.2,0.6-1,0.8-0.5c0,0.4-0.3,0.8-0.3,1.1c-0.2,0.1-0.1-0.3-0.2-0.3l0.1,0.2
			c-0.1,0.1-0.2,0.2-0.2,0.1c0,0.4,0.5,0.2,0.6,0.6c0.1-0.1,0.2-0.2,0.3-0.4l-0.1,0c0.1-0.3,0.3-0.4,0.3-0.5
			c0.2-0.2,0.5-0.4,0.6-0.2l-0.2,0.4c0.1-0.1,0-0.3-0.1-0.2c0.2-0.1-0.1,0.7,0.3,0.2l0.1-0.3c0.2-0.1,0.7-0.5,0.7-0.2
			c0.2-0.4-0.1,0,0.1-0.5c-0.3,0.6-0.4-0.3-0.6,0.4c0.2-0.6-0.1-0.4,0-0.9c-0.1,0.1-0.1,0.3-0.2,0.2c0,0-0.1,0.1-0.1,0.1l0,0l0,0
			c0,0,0,0,0,0c0,0.1,0,0.2,0,0.2c-0.2,0.3-0.4,0.2-0.6,0.3c0-0.1,0.1-0.2,0.1-0.3l-0.2,0.2c0.1-0.3,0-0.6,0.3-0.7l-0.2-0.1
			c0-0.2-0.2-0.4-0.3-0.2c-0.1-0.1-0.3,0.3-0.2,0.1l-0.3,0.1l0-0.1c-0.3-0.1-0.7,0.5-0.9-0.2c-0.1,0.1-0.2,0.2-0.4,0.1l0-0.3
			c-0.1,0.1-0.4-0.3-0.5,0c-0.2-0.8-0.7-0.1-0.9-0.2l0.1,0.4c-0.2,0-0.3,0.2-0.4,0.4l0.1,0.3c-0.1,0.3-0.5-0.1-0.7,0
			c0-0.1,0-0.1,0.1-0.1c-0.3-0.3-0.4-0.1-0.5,0.1c-0.1,0.2-0.1,0.5-0.4,0.3c0,0.1-0.1,0.1-0.1,0.1c0,0,0,0,0,0c0,0,0,0,0,0
			c-0.1,0-0.1-0.1-0.2-0.1c0.1,0.1,0.1,0.1,0.2,0.1c0,0-0.1,0.1-0.1,0.2l-0.2-0.3c0,0,0,0,0,0c-0.1-0.1,0,0.2,0.2,0.4
			c0,0.1,0,0.2,0,0.2c-0.4-0.5,0,0.3-0.5-0.2c0.1,0.3-0.2,0.4,0.2,1c-0.1-0.1-0.1-0.1-0.1-0.1c-0.1,0-0.2,0-0.1,0.2l-0.3-0.3
			c0,0,0.1,0.1,0.1,0.3c0.1,0.1,0.2,0.3,0.2,0.3c-0.3-0.1-0.4-0.2-0.6-0.5c0.2,0.6,0,0.3,0.3,0.8l-0.2-0.2c0,0.1,0.2,0.4,0,0.3
			c-0.6-0.2-0.6,0.6-1.2,0.8c0.9,0.3-0.5,0,0.2,0.3c-0.2-0.1-0.3,0-0.5-0.2c0.1,0.3-0.5,0.3,0.1,0.6c-0.2,0-0.3-0.1-0.4-0.2
			c0,0,0.2,0.1,0,0.1c-0.1,0-0.2-0.1-0.2-0.2c0,0.3,0.6,0.5,1.2,0.6c-0.3,0-0.3,0.1,0.1,0.3c-0.2,0-0.4,0-0.5-0.1
			c0,0.1-0.4,0.5,0.1,0.5c-0.1,0,0,0.1,0,0.1c0,0.2-0.1,0.2,0,0.4l0.1,0c0.6,0.1,0.1,0.1,0.2,0.3l-0.1,0c-0.4,0.4,0.2,0.1-0.2,0.5
			l0.4-0.1c0.8-0.1-0.4,0.3-0.1,0.5l0.2-0.1c0.3,0-1,0.5-1,0.7c-0.1,0-0.1,0-0.2,0c-0.4,0.4,0.5-0.1,0.6,0.1
			c-0.2,0.1-0.7,0.1-0.6,0.3c-0.2,0.2,0.9,0.1,0.6,0.5c0.2-0.1,0.3-0.2,0.5-0.2c0.1,0.1-0.5,0.7,0.1,0.5c0,0-0.1,0.1-0.1,0.1
			c0.2,0,0.4,0.2,0.8,0c-0.5,0.4-0.2,0.5,0,0.5c0.2,0,0.5,0,0,0.4l0.3,0.2l-0.1,0.1c0.1,0.2,0.4,0.1,0.6-0.1c0,0.1-0.1,0.2-0.2,0.2
			c0.1,0.4,0.2,0.4,0.7,0.1l-0.2,0.3c0.2-0.1,0.1,0.8,0.6,0.5c0,0-0.1,0.1-0.1,0.1c0.3-0.1,0.4,0.2,0.5,0.4c0.1,0.2,0.3,0.3,0.6-0.3
			c0,0,0.1-0.1,0.2-0.1c0.1-0.1,0.2-0.1,0.2-0.1c-0.2-0.2,0.2-0.6,0.2-0.8c0.1-0.1,0.1,0.5,0,0.5l0-0.1c-0.2,0.7,0.3,0.3,0.2,0.8
			c0.6,0.1,1.2,0.5,1.8,0.5l-0.1-0.6c0,0,0.2,0,0.2,0c0.1,0.1,0.1,0.4,0,0.4c0.1,0.3,0.2-0.3,0.2-0.4c0.3,0.2,0,0.7,0.1,0.7l0.1-0.1
			l0-0.1c0.1-0.2,0-0.5,0.2-0.5c0.1,0.1,0.1,0.3,0.2,0.3c0,0,0,0.1,0.1,0l0.3,0l-0.2-0.4c0-0.2,0.2,0,0-0.5c0.2,0.4,0.4,0.3,0.6,0.3
			c0.2-0.1,0.4-0.2,0.5-0.1c0-0.4,0.1-0.4,0.3-0.5c-0.1-0.1-0.4-0.5-0.2-0.5c0.5,0.9,0.5,0.2,1,0.7c-0.4-0.3,0.3-0.4-0.3-0.8
			c0.2,0,0.2,0.3,0.5,0.4c0-0.5,0.7-0.3,0.9-0.8c-0.1-0.1-0.3-0.2-0.4-0.4c0,0,0.2,0.1,0.3,0.1c0.2,0.1,0.3,0.1,0.3,0.1
			c0-0.1-0.6-0.5-0.1-0.4c-0.1,0-0.3-0.1-0.3-0.2c0.5-0.1,0.6-0.6,0.7-1c0.1-0.4,0.2-0.7,0.9-1.1c-0.3,0.1-0.3,0-0.3-0.1
			c-0.1,0-0.3-0.1-0.5-0.1c0,0,0.1-0.1,0.3-0.1c0.1-0.1,0.3-0.1,0.3-0.1c-0.5-0.1,0-0.4-0.5-0.4l0.1,0.1c-0.6-0.1-1.3,0.1-2,0
			c0.3,0.1,0.1,0.1-0.1,0.2c-0.2,0-0.4,0.1,0.1,0.2c-0.2,0-0.2-0.1-0.4-0.1c0.3,0.1,0.4,0.2,0.2,0.2l-0.1,0c0,0.2-0.3,0.3-0.6,0.4
			l0.3,0.1c-0.1,0-0.2,0-0.3,0c0.5,0.3,0.1-0.1,0.6,0.2c-0.4-0.1-0.4,0-0.5,0c-0.1,0.1-0.1,0.1-0.5-0.1c0,0.1,0.4,0.2,0.3,0.3
			l-0.2-0.1l0.2,0.2c-0.1,0-0.3-0.1-0.5-0.2c0,0,0-0.1,0-0.1c-0.3-0.1,0,0.2-0.1,0.2l0.2,0c0,0.3-0.3,0.3-0.2,0.8l0.1,0.1
			c0.1,0.4-0.2-0.1-0.3,0.2l0,0c0.1,0.2,0.1,0.3,0,0.3c-0.1-0.2-0.3-0.3-0.3-0.5c0,0.4,0.1,0.3,0.2,0.9l-0.2-0.2
			c0.1,0.3,0.1,0.4,0.1,0.5c0-0.3-0.2-0.4-0.3-0.7c-0.4-0.5-0.1,0.7-0.4-0.1c0.2,0.8,0.3,0.4,0.3,0.5c0.1,0.2,0.1,0.6,0,0.5
			c-0.1,0-0.4-0.9-0.5-0.9c0,0,0-0.1,0-0.1c-0.1-0.2-0.1,0.3-0.2,0c0,0.5-0.1,0,0,0.6l0.1-0.2c0,0.2,0,0.9-0.3,0.6
			c0-0.1,0-0.3,0-0.4c-0.1-0.2-0.1,0.1-0.1,0c0-0.6,0.2-0.2,0.2-0.6c-0.1-0.2-0.1,0.5-0.1-0.2c0,0.8-0.1-0.1-0.2,0.6l0-0.4
			c0,0.1,0,0.2-0.1,0.2l0-0.5c-0.1,0.4-0.1-0.3-0.2-0.1c0.1,0,0,0.4,0.1,0.7c-0.2,0.5-0.1-1-0.3-0.8c0,0,0.1,0.2,0,0.4
			c0-0.1-0.1-0.2-0.1-0.4c-0.1,0.1,0,0.4-0.1,0.6c0-0.4-0.1,0.2-0.2,0.3l0.1-0.4c-0.1-0.3-0.2,0.7-0.3,0.4l0.2-0.5l-0.1,0.1l0.1-0.4
			c-0.2,0.3-0.2,0.2-0.2,0.1c-0.1,0.3-0.2,0.6-0.3,0.6c0-0.2,0.1-0.3,0-0.3c0.1-0.2,0.2-0.5,0.2-0.1c0-0.1,0.1-0.2,0.1-0.3
			c0-0.3-0.1-0.1-0.1-0.1c0,0,0,0,0,0.1c0,0-0.1,0.1-0.2,0.2c-0.1,0.1-0.2,0.2-0.2,0.2c0-0.1,0.1-0.2,0.2-0.3c0,0-0.1,0.2-0.2,0.2
			c0.1-0.3,0.3-0.6,0.4-0.7c0,0-0.1,0.1-0.1,0.1c-0.1,0.1-0.1,0.1-0.1,0.1c0-0.1,0.1-0.3,0.2-0.4c0-0.2-0.4,0.4-0.4,0.2
			c0,0-0.1,0.1-0.1,0.1c0-0.1,0.1-0.4-0.2-0.2l0.3-0.4c-0.1,0-0.4,0.6-0.6,0.6c-0.2,0.1,0.3-0.4,0.4-0.5c-0.2,0.2-0.7,0.5-0.4,0.1
			C60.2,109.3,60.2,109.3,60.2,109.3z M59.5,108.6c0.1,0,0.3-0.1,0.1,0C59.2,108.7,59.4,108.6,59.5,108.6z M58.5,106.7
			C58.6,106.7,58.6,106.8,58.5,106.7C58.4,106.7,58.4,106.7,58.5,106.7z M64.3,101.7C64.3,101.7,64.3,101.7,64.3,101.7
			C64.2,101.5,64.2,101.6,64.3,101.7z M64.4,101.9c0,0,0.1-0.1,0.1-0.1c0,0.1-0.1,0.1-0.1,0C64.3,101.9,64.3,102,64.4,101.9z
			 M63.7,113.4L63.7,113.4C63.7,113.2,63.7,113.3,63.7,113.4z"/>
		<path class="st11" d="M59,107c-0.1,0-0.1,0-0.2,0C58.8,107,58.9,107,59,107z"/>
		<polygon class="st11" points="60.8,109.6 60.8,109.6 60.8,109.5 		"/>
		<path class="st11" d="M61.7,104.7c0,0-0.1-0.1-0.1-0.2C61.6,104.6,61.6,104.7,61.7,104.7z"/>
		<path class="st11" d="M65.8,101.9l-0.2,0c0.1,0,0.1,0.1,0.1,0.2C65.7,102,65.7,101.8,65.8,101.9z"/>
		<path class="st11" d="M65.3,104.4C65.3,104.3,65.3,104.4,65.3,104.4l0.2-0.1C65.4,104.2,65.3,104.3,65.3,104.4z"/>
		<path class="st11" d="M65.2,103c-0.2,0.3,0,0.2,0.1,0.2c0,0,0,0,0,0C65.6,102.8,65.4,102.9,65.2,103z"/>
		<path class="st11" d="M65.3,103.2C65.4,103.2,65.4,103.2,65.3,103.2C65.5,103.1,65.4,103.2,65.3,103.2z"/>
		<path class="st11" d="M64.8,101.8c0,0.1,0.2-0.4,0.2-0.2C65.1,101.2,64.4,101.9,64.8,101.8z"/>
		<polygon class="st11" points="64.7,103.9 64.9,103.5 64.7,103.8 		"/>
		<path class="st11" d="M64.4,103.4l0.1,0.1c0-0.1,0.1-0.1,0.1-0.1C64.5,103.4,64.4,103.3,64.4,103.4z"/>
		<path class="st11" d="M64.5,103.4c0,0,0.1,0,0.1,0C64.6,103.4,64.6,103.4,64.5,103.4z"/>
		<polygon class="st11" points="64.6,103.9 64.6,103.8 64.5,103.8 		"/>
		<path class="st11" d="M63.2,102.9L63,103c0,0.1,0,0.2,0,0.2C63.1,103.1,63.2,103,63.2,102.9z"/>
		<path class="st11" d="M63.3,104c0-0.1,0-0.2,0-0.3l-0.1,0.5L63.3,104z"/>
		<path class="st11" d="M63,104c0,0.1-0.2,0.4-0.1,0.3C62.9,104.2,63,104.1,63,104z"/>
		<polygon class="st11" points="61.3,103.5 61.3,103.4 61.2,102.7 		"/>
		<path class="st11" d="M60.8,105.6c0.2,0.1-0.2-0.4,0-0.3c-0.1-0.2-0.2-0.1-0.2-0.3C60.6,105.3,60.5,105.2,60.8,105.6z"/>
		<path class="st11" d="M60.6,105.1c0,0,0-0.1,0-0.1C60.5,105,60.6,105.1,60.6,105.1z"/>
		<polygon class="st11" points="68.7,108 68.9,107.9 68.6,108 		"/>
		<path class="st11" d="M68.1,107.7l0.5,0l-0.4-0.1C68.2,107.7,68.2,107.7,68.1,107.7z"/>
		<path class="st11" d="M60.4,108.1l-0.1,0c-0.1,0-0.1,0.1-0.1,0.1L60.4,108.1z"/>
		<polygon class="st11" points="60.3,108.8 60.3,108.8 59.9,109 		"/>
		<path class="st11" d="M61,108.8C61,108.7,60.9,108.8,61,108.8C61,108.7,60.6,109.2,61,108.8z"/>
	</g>
	<g>
		<path class="st11" d="M88,94.6c-0.2,0.1-0.1,0.3,0.3,0.2l0.3-0.4L88,94.6z"/>
		<path class="st11" d="M90.9,94.8c0.4-0.3,0.8-0.9,0.4-1c-0.3,0.5-0.4,0.4-0.8,1c-0.4,0.1-0.7,0.1-0.7-0.1c-0.1,0.1-0.6,0-0.8,0.3
			c0.6,0.2,1.3,0.1,1.9-0.4C91,94.6,90.9,94.7,90.9,94.8z"/>
		<path class="st11" d="M97.2,55l0,0.3C97.2,55.2,97.2,55.1,97.2,55z"/>
		<path class="st11" d="M97.4,28.7c0,0.2,0,0.3,0.1,0.3C97.5,28.8,97.5,28.7,97.4,28.7z"/>
		<path class="st11" d="M97.8,24.2c0,0.1,0,0.2,0,0.3C97.9,24.4,97.9,24.3,97.8,24.2z"/>
		<path class="st11" d="M97.2,55l0.1-0.7C97.2,54.2,97.3,54.6,97.2,55z"/>
		<path class="st11" d="M94.6,90.8c-0.1,0.1-0.1,0.2-0.1,0.3C94.6,91,94.6,90.9,94.6,90.8C94.6,90.8,94.6,90.8,94.6,90.8z"/>
		<path class="st11" d="M97.5,66.6l0,0.2c0,0.1,0.1,0.1,0.1,0.2L97.5,66.6z"/>
		<path class="st11" d="M97.6,75.5c0-0.2-0.3-0.3-0.4-0.3c0.1,0.1,0.2,0.3,0.2,0.4C97.4,75.6,97.5,75.5,97.6,75.5z"/>
		<path class="st11" d="M96.6,89.6l-0.1,0.3C96.5,89.8,96.5,89.7,96.6,89.6z"/>
		<path class="st11" d="M97.6,60.2c0,0,0.1,0,0.1-0.1C97.7,60.1,97.6,60.2,97.6,60.2z"/>
		<path class="st11" d="M77.7,93.9C77.7,94,77.7,94,77.7,93.9C77.8,94,77.8,93.9,77.7,93.9z"/>
		<path class="st11" d="M88,95.5l-0.1,0c0,0.1,0,0.1,0,0.2L88,95.5z"/>
		<path class="st11" d="M97.4,15.5C97.4,15.5,97.4,15.5,97.4,15.5C97.5,15.8,97.5,15.6,97.4,15.5z"/>
		<path class="st11" d="M23.8,15.6c0.3-0.4,0.2,0,0.2,0.3c0,0.3,0,0.6,0.4,0C24.2,16.1,24.5,14.6,23.8,15.6z"/>
		<path class="st11" d="M94.8,90.6l0.2-0.3C94.8,90.5,94.8,90.6,94.8,90.6z"/>
		<path class="st11" d="M24.4,16L24.4,16l0.1-0.1C24.4,15.9,24.4,15.9,24.4,16z"/>
		<path class="st11" d="M79.3,9.5c0,0.1,0.1,0.1,0.2,0.1C79.5,9.6,79.4,9.6,79.3,9.5z"/>
		<path class="st11" d="M93.5,11.7c0,0-0.3-0.3-0.3-0.2C93.4,11.5,93.5,11.6,93.5,11.7z"/>
		<path class="st11" d="M72,9.9c-0.2,0-0.3-0.1-0.5,0c0,0,0,0,0.1,0C71.6,9.9,71.7,9.9,72,9.9z"/>
		<path class="st11" d="M64.3,9.9c0,0,0.1,0,0.1,0.1c0.1,0,0.2,0,0.2,0L64.3,9.9z"/>
		<path class="st11" d="M54.6,94.1c0.2,0.1,0.3,0.2,0.4,0.3C54.8,94.1,55.9,94.1,54.6,94.1z"/>
		<path class="st11" d="M94.8,90.9c0-0.1,0-0.1,0-0.2c0,0.1-0.1,0.1-0.1,0.2C94.7,90.9,94.7,90.9,94.8,90.9z"/>
		<path class="st11" d="M71.6,12.3l-1.2,0C70.8,12.3,71.2,12.3,71.6,12.3z"/>
		<path class="st11" d="M25.5,67.3l0,0.3C25.6,67.5,25.5,67.4,25.5,67.3z"/>
		<path class="st11" d="M66.8,12.3c-0.2-0.1-0.4-0.2-0.7-0.2c-0.1,0-0.1,0-0.1,0.1L66.8,12.3z"/>
		<path class="st11" d="M54.9,94.4L54.9,94.4L54.9,94.4z"/>
		<path class="st11" d="M62.9,93.6c-1.2,0-0.5,0.4-0.8,0.6c-1.4,0.1-0.6-0.3-1.1-0.5c-0.9,0.1-1.5,0.5-2.2,0.5c0-0.1-0.2-0.1,0-0.2
			c-0.9,0.3-2.7,0-3.8,0.4c-0.1,0-0.1-0.1-0.1-0.1c0.2,0.2,0.2,0.4,0.2,0.6c-0.5,0-1,0.3-1.2,0c0.3,0,0.3-0.1,0.5-0.2l-0.5,0.1
			c-0.5-0.4,0.7-0.1,0.7-0.4c-1.1,0.1-2.3,0.4-3.1,0.3c-0.2-0.4,1.9-0.1,0.8-0.5l1.3,0.1c-1-0.6,0.8,0-0.1-0.6
			c-1.6-0.1-1.8,0.2-3.5,0.1c-0.4,0.2,0.1,0.3-0.2,0.5c-2.3,0.4-1.8-0.9-3.6-0.4c-0.4,0.2-0.6,0.7-1.8,0.5l0.4-0.4
			c-1.6,0-0.9,0.6-2.6,0.3c0.3-0.2,1.3-0.1,1-0.2c-1.1-0.3-0.8,0.2-1.6,0.2l-0.2-0.4c-1.7,0.1-3.6,0.3-5.5,0.4
			c0.1-0.1,0.4-0.2,0-0.3c-0.6,0-1.2,0.1-1.8,0.1c-0.6,0-1.3,0-1.8-0.1c-1.1-0.1-2.1-0.6-2.8-1.1c0,0-0.2,0-0.4-0.1
			c-0.2,0-0.4-0.1-0.4-0.1c-0.1-0.1-0.2-0.3,0-0.2c-0.5-0.5-0.2,0.1-0.5,0c-0.4-0.3-0.3-0.5-0.1-0.4c-0.6-0.3-1.4-1-1.9-1.8
			c-0.6-0.8-0.8-1.9-0.8-2.6l0.1,0.3c0-0.3-0.1-0.5-0.1-0.7c-0.1-0.2-0.1-0.3-0.2-0.5c-0.2-0.3-0.3-0.7-0.1-1.3l0.1,0.2
			c0.1-2.8-0.2-5.9,0.3-8c-0.5-0.4,0.2-2.8-0.4-3c0.3-1.6,0.4-1.1,0.6-3.4c0-0.6-0.4-0.9-0.5-1.6l0.3,0l-0.4-1l0.4-0.5l-0.1-0.7
			c0,0.3-0.2,0.6-0.2,0.5c-0.2-1.1,0.2-2.7,0.4-2.7l-0.3-2.6c0.1,0.1,0.2,0.5,0.3,0.8c-0.3-1.4,0.4-0.3,0-1.5
			c-0.1,0.2-0.2-0.1-0.3-0.1c0.2-0.6,0.2-2.1,0.1-3.1l0.2,0.2c0.1-1.9-0.1-4-0.1-6.2c-0.1,0.8-0.5,0.6-0.5,0l0.4-0.3
			c-0.2-0.4-0.1,0.7-0.4-0.2c0-0.8,0.4-0.5,0.5-0.1l-0.1-1c0.1-0.1,0.2,0.2,0.3,0.2c-0.2-0.4,0.4-1.7,0-2.3l0.1-0.1
			c0-2.1-0.1-3.1-0.1-4.9c-0.3,0-0.2-0.7-0.5-1.2c0.1-1.3,0.3-2.7,0.3-4.3c-0.2-1.1-0.3-0.3-0.4-0.8c0.3-0.1,0.3-1.6,0.5-0.8
			c0-1.9-0.1-2.4-0.3-4.7c-0.1,0.3-0.2,0.5-0.3,0.4c0-0.4,0.1-1,0.3-0.9l0,0.1c-0.4-2.6,0.8-6.1,0.2-8.2l0,0.1L25.3,22
			c0-1,0.2,0.6,0.4-0.1c-0.1-0.6-0.2-1.1-0.2-1.6c0-0.2,0-0.5,0-0.7c0-0.2,0-0.4,0-0.6c0.1-0.7,0.3-1.4,0.5-2.2
			c0.6-0.4,1.1-1.4,1.9-2.3c0.8-0.9,1.8-1.6,2.7-1.6l-0.2-0.1c0.3-0.3,0.5-0.1,0.8-0.1c-0.1-0.1-0.5-0.1-0.3-0.2
			c0.4-0.2,0.9-0.3,1.4-0.3c0.3,0,0.5,0,0.7,0l0.8,0c1.1,0,2.3,0.1,3.4,0.1c2.3,0.1,4.6,0.3,6.9,0.4c1.7,0.1,0.9-1,3-0.5l-0.6,0.4
			c3.4-0.4,6.9,0,10.1-0.4c-0.2,0.1-0.2,0.2-0.5,0.2c0.7,0.3,2.6,0,2.6-0.2c0.5,0,0.1,0.2,0.4,0.3c0.7,0.2,1.7-0.3,2.1-0.1
			c0.1,0-0.2,0.1-0.3,0.1c0.5-0.1,2.1,0,1.7-0.3c1.2,0.1,2.4-0.1,3.3,0c0.6-0.3,2.1,0.2,2.3-0.3c-0.1,0.5,2.2,0.4,2.9,0.2
			c-0.3,0.1,0.7,0.2,0.4,0.4c0.9,0,1.7-0.1,1.5-0.4c1.6,0.6,3.3-0.5,4.2,0.3c2.6-0.3,5.1-0.4,7.5-0.6c-0.1,0.5-2.6,0-2.5,0.6
			c2.2-0.2,3.6-0.6,5.8-0.5c0.5,0.1-0.3,0.2-0.5,0.3c2.1-0.2,3.7,0.7,5.2,1.6c0,0-0.2,0-0.4-0.1c0.3,0.2,0.6,0.6,0.7,0.4L93,13.7
			c-0.1-0.3,0.3-0.2,0.7,0c0.4,0.2,0.9,0.5,1,0.5c-0.4,0-0.2,0.3,0,0.7c0.2,0.4,0.3,0.7-0.3,0.5c0.1,0.2,0.4,0.4,0.5,0.2
			c0.1,0.3,0.1,0.5-0.2,0.2c0.3,0.5,0.5,0.7,0.6,0.8c0.1,0.2,0.3,0.3,0.4,0.8c-0.1,0-0.2-0.2-0.4-0.3c0.3,0.5,0.7,1,0.7,2
			c-0.1-0.1-0.1,0.1-0.2-0.2c0,0.4,0.1,0.9,0.1,1.3c0.1,0.4,0.1,0.8,0.2,1.2c0.1,0.8,0.2,1.7,0.1,2.7c-0.5-0.6-0.2,0.7-0.6,0.8
			l0.1,1.1l0.2-0.4c0,1,0.3,1.8,0.2,2.6l-0.2-0.7l0.1,1.8l0.2-1c0.2,1,0.5-0.1,0.4,1.2c0-0.3,0,1-0.2,1.5l0,0c0.1,0.5,0.3,1,0.2,1.7
			c-0.1,0.2-0.4-0.1-0.5,0c0.3,0.5,0.1,2.2,0.5,2.8c-0.1-0.2-0.3-0.2-0.3-0.1l0.3,0.4c-0.1,0.4-0.1,0.5-0.3,0.4
			c-0.1,1.3,0.5-0.4,0.3,1.2c0-0.1-0.1-0.1-0.1-0.3c-0.1,1.6,0.2,3.1,0,4.5c-0.4,0.4-0.1-1.3-0.4-0.8c0.1,2.1,0.5,4.4,0.4,6.4l0-0.4
			c0.6,0.3-0.3,1.5,0,2.6c0-0.3-0.3-0.3-0.3-0.3c-0.1,1.4,0.1,2.9,0.3,5l-0.1-0.3C96,54.7,96.1,56.1,96,57c0.1,0.3,0.1,0.8,0.3,0.5
			c-0.8,2.7,0.5,5.2-0.3,7.7c0-0.3-0.1-0.7-0.1-0.5l0.1,2.1c0.3-0.2,0.2-0.3,0.3-0.7c0.1,0.3,0.3,0.8,0.3,1.4
			c-0.2-0.9-0.4,0-0.5,0.4c0.1-0.1,0.2,0.1,0.2,0c-0.4,1.1,0.5,0.2,0.2,1.7l-0.1-0.1c0.1,0.6,0.2,1.1,0.2,1.7
			c-0.3,0.2-0.1-0.6-0.4-0.6c0,0.8,0.6,1.7,0.3,2.4c-0.1-0.4-0.1-0.9-0.2-1.2c-0.3,0.8-0.3,0.9-0.3,1.5l0-0.1l-0.2,1.4l0.1-0.4
			c0.8,1.1,0.1,2.1,0.6,3.6c-0.5-1.4-0.3-0.2-0.6-0.3c-0.1,0.4-0.2,0.9-0.3,0.8c0.3,0.7-0.2,1.1,0.2,2.1c-0.1,0,0,0.7-0.3,0.6
			c0.1,0.9,0.2-0.2,0.3-0.1c0.4,1.3-0.4,3.2,0.1,5.1c0,0.4,0.1,0.8,0.2,1c0.1,0.3,0.1,0.5,0.2,0.7c0.1,0.5,0.2,0.9,0,1.7
			c-0.3,0.4-0.3-0.5-0.3-0.5c-0.3,0.7-0.6,1.3-0.8,2c0-0.2-0.2-0.1-0.4,0.1c-0.3,0.5,0.1,0.6-0.5,1.1c0-0.2-0.1-0.4,0-0.7
			c-0.3,0.6-0.6,1.3-1.1,1.8c-0.3,0,0.1-0.5,0.2-0.8c-0.3,0.3-0.6,0.7-0.9,1c-0.3,0.3-0.6,0.6-0.7,0.8l0.5-0.2
			c-0.3,0.2-0.3-0.1-0.1-0.3c0.4-0.6,0.9-0.5,1-0.5c0,0-0.4,0.4-0.4,0.4c0.4,0.1,0.8-0.3,1.2-0.8c0.4-0.5,0.6-1.1,0.9-1.6
			c0,0,0.1,0.6,0.1,0.6c0,0,0-0.1,0.1-0.2c0-0.1,0.1-0.3,0.1-0.4c0-0.1,0.1-0.3,0.1-0.4c0-0.1,0-0.2,0-0.2c0.2-0.2,0.5-0.2,0.3,0.3
			c0.6-0.6,0.2-0.7,0.6-1.3c0.1-0.1,0.1,0,0.1,0.1c0,0,0-0.2,0.1-0.4c0-0.2,0-0.4,0-0.4c0.1,0.2,0.3-0.1,0.2,0.4
			c0.7-1.4,0-2.4,0.4-2.9l0,0.1c-0.2-1.9-0.3-0.2-0.7-1.6l0.8-1L97,83.7c0-0.2,0-0.6,0.2-0.5c-0.2-0.7-0.1,0.1-0.4-0.3
			c0.3-1-0.1-2.7,0.4-2.9c-0.3-0.3-0.2,0.9-0.4-0.1c0.6-0.3-0.1-1.2,0.2-2.1c0.3,0.3,0.1,1.1,0.4,0.2c-0.5-0.5,0.1-1.7,0-2.5
			c-0.4,0-0.2-1.6-0.3-2.9c0.1,0.1,0.2-2.3,0.4-3.5l0.1,0c-0.4-0.2-0.3-1.4-0.4-2.3c0.2,0,0.3,0.2,0.4,0.7l0-0.8
			c-0.1-0.2-0.2-0.4-0.2-1l0.3,0.2c0-1.1-0.4-2.2-0.2-3.6c-0.3-0.1-0.8,1.1-1-0.4c0.2-0.1,0.4-0.1,0.5,0.3c0-0.1-0.1-0.5-0.1-0.7
			l0.3,0.6c0.1-0.6-0.2-0.3-0.2-0.8c0.2,0,0.2-0.4,0.3-0.3c0,0.1-0.1,0.4,0,0.6c0-0.6,0.2-1.3,0.3-1.5c-0.1,0.1-0.3,0-0.3-0.4
			c0-1.1,0.3-0.4,0.4-1c-0.1-0.3,0-1-0.3-1c0-0.3,0.2-0.4,0.2-0.5c-0.1-0.6,0-2.6-0.4-2l0,0.1c0,0,0-0.1,0-0.1c0,0,0,0,0,0v0
			c-0.3-1.8,0.2-3.8,0-5.7l0.1,0c-0.1-1.1-0.1-2.4-0.3-3.2c0-0.3,0.2-0.8,0.3-0.6c-0.1-0.8-0.2-0.9,0-2.1c0.2,0.8,0.2-0.3,0.1,0.9
			c0.1-1.1,0.3-1.3,0-2.5c0.3,0.4,0.3-0.8,0.3-1.3l-0.2,0.8c0-0.6,0-1.1,0-1.6l0.4,0.3c0.4-2.2-0.7-4,0-5.7
			c-0.3-0.6-0.2,1.2-0.5,0.7c0-1,0.6-2.1,0.6-2.4c0.2-1.4-0.5-1.3-0.4-2.8c-0.1,0.2-0.5,0.4-0.6-0.7c0-1,0.5-1.3,0.6-0.6
			c0,0.2,0,0.4-0.1,0.4c0,0.3,0.1,0.8,0.2,0.4l-0.1-0.1c0.1-0.5,0.1-1.9,0.3-1.6c-0.1-0.8-0.2-0.3-0.3,0.2c0.2-1.3,0-2,0.1-3.4
			c-0.1,0.2-0.2,0.4-0.2,0.2c0.2-2-0.2-0.9-0.3-2.2c0.2-0.8,0.5,0.3,0.3-1.1c0.1-0.8,0.3-0.2,0.4,0.2c-0.1-0.6-0.1-1.2,0-1.7
			c0-0.2,0.1-0.5,0.1-0.8c0-0.3,0.1-0.5,0-0.7c0,0,0.2,0.8,0.2,0.8c-0.1-0.5-0.1-0.8-0.2-1.2L98,18.4c0-0.4-0.1-0.8,0-0.8
			c-0.3-0.4-0.3,0.4-0.8-0.4c0-0.6-0.7-1.5-0.5-1.8c0.3,0.8,0.3,0.8,0.4,0.6c0.1-0.1,0.1-0.3,0.4,0.4c-0.1-0.3-0.2-0.6-0.4-1
			c0-0.1,0.1,0,0.2,0.1c-0.2-0.9-0.4-1-0.7-1.1c-0.2-0.1-0.5-0.2-1-0.9c0.3,0.1,0-0.6-0.2-0.8c0.5,0.6,0,0.5-0.6,0.1
			c-0.7-0.9-1-0.7-1.4-1.1l0.5,0.5c-0.3,0-0.7-0.4-1.4-0.7c0-0.2,0.6,0.3,0.4,0.1c-0.2,0-0.4-0.1-0.6-0.3c-0.2-0.1-0.4-0.3-0.6-0.4
			c-0.4-0.3-1-0.6-1.6-0.6c-0.5-0.3,0-0.4-0.5-0.6c-0.7,0-1.1-0.1-1.5-0.2c-0.4-0.1-0.7-0.2-1.4-0.1c0.4,0.3,0.4,0.2-0.5,0.4
			c0,0,0.5,0,1.1-0.1c0.3,0,0.5,0,0.8-0.1c0.2,0,0.4,0,0.4,0s-0.4,0.1-0.8,0.2c-0.3,0.1-0.7,0.2-0.7,0.2c0.3,0,0.6,0,1-0.1
			c0.3,0,0.6,0,0.8,0c-0.7,0.2-0.6,0.1-0.3,0.3c-0.2-0.1-0.5-0.2-0.7-0.2c-0.2,0-0.4,0-0.7,0.1c-0.5,0.1-0.9,0.2-1.4,0l0-0.6
			c-1.5-0.3-2.7,0.3-4.7,0.2l0.6,0.1c-0.3,0.3-1.2,0-1.9,0.1c0.1-0.2-0.3-0.3-0.6-0.4c0,0.2-1.4,0-1.6,0.4L77,9.8
			c-1.6-0.1-1.8,0.6-3.4,0.5c0.5-0.2-0.2-0.4,0.8-0.6c-0.5,0-1,0-1,0.1c-0.3-0.1-1.4,0.3-1.9,0.1c-0.2,0.1-0.3,0.3-0.9,0.3
			c-0.1,0,0-0.1,0-0.1c0,0.1-0.9,0.1-0.4,0.4c-1.6-0.7-4.4,0-5.8-0.5c-1.1,0.1-2.5,0.1-3.5,0.2c0.1-0.1,0-0.1,0.2-0.1
			c-1.4-0.2-0.9,0.6-2.5,0.4c-0.8-0.3,0.8-0.2,0.3-0.3c-0.2-0.7-1.9,0.1-3-0.3l0.3,0c-0.8-0.2-2,0.3-3.3,0.2c0,0,0.1-0.1,0-0.1
			c-0.9,0.4-2.6,0.5-3.9,0.6c0.4-0.3,0.6-0.1,0.3-0.4c-0.6,0,0.2,0.5-1,0.5c-0.4-0.2-1.2-0.3-1.3-0.6l1.1,0c-0.6-0.4-1.4,0-2-0.1
			l0.1-0.2c-1.7,0.1-1.7,0.5-3.5,0.5l0.2,0.1c-1,0.4-0.8-0.2-1.8,0.1L40.9,10c-0.6,0.1-2.3,0.4-3.4,0.5c0.7-0.3,2-0.5,2.8-0.7
			c-0.6,0-2.2,0-2.5,0.2c0.3,0,0.6-0.1,0.8-0.1c-0.8,0.3-1.8,0.5-3.1,0.5c0.1-0.4-0.7-0.5-1.7-0.5c-0.5,0-1,0-1.5,0
			c-0.5,0-1,0-1.2-0.1c-1.2,0.4-2.4,0.8-3.5,1.5c-1.1,0.7-2.2,1.6-3,2.9c1.1-0.5-0.4,0.7,0.2,0.9c-0.2,0.6-0.4,0.8-0.4,0.9
			c0,0-0.1,0.1-0.2,0.3c-0.1,0.2-0.2,0.4-0.4,0.6c-0.1,0.2-0.2,0.5-0.3,0.6c-0.1,0.2-0.1,0.3-0.1,0.3c-0.1,0.2-0.1,0.1-0.1-0.2
			c0-0.2,0.1-0.5,0-0.5c-0.2,0.7-0.3,0.9-0.4,1c-0.1,0.1-0.2,0.1-0.3,0.6c0.1-0.1,0.2,0,0.2,0.3c0,0.1,0,0.3,0,0.5
			c0,0.2,0,0.3,0,0.5l0.3-1.1c0.1,0.6,0.1,0.9,0,1.1c0,0.3-0.1,0.5-0.2,0.7c-0.1,0.4-0.3,0.8-0.1,1.8L22.6,22c0.1,1,0,3.6,0.5,4.5
			c-0.1,0.2-0.3,0.4-0.3,0c-0.1,2.3,0.6,5.2,0.2,7l-0.2-0.2c0,0.4,0.3,0.8,0.1,1.3c-0.1,0-0.2-0.2-0.2,0c0.1,0.2,0.3,1.1,0.2,1.7
			l-0.2-0.5c-0.2,2.3,0.4,3.5,0.6,5.4c-0.5,0-0.6,1.8-0.7,2.7l-0.1,0c-0.1,2.6,0.4,4.5,0.6,6.9c-0.5,1.5-0.2,5.1-0.5,7.6
			c0.1-0.4,0.4,0.1,0.4,0.5c-0.1,0.6,0.3,1.6-0.1,1.5l0-0.2c-0.4,0.4-0.3,1.6-0.3,2.5l0.6,0.2c-0.8,2.4,0.3,6.3-0.4,7.6
			c0.1,0.6,0.1,1.3,0.3,1.9l-0.3,0c-0.1,1.6-0.1,2.4,0,4.4l-0.2-0.4c0,1.1,0.9,1.4,0.9,2.4l-0.5,0.3c0,1.9-0.4,3.9,0,5.8
			c-0.1,0-0.2-0.1-0.2-0.4c0,0.5-0.1,1.3-0.1,2.1c0,0.3,0,0.8,0.1,1c0.1,0.2,0.2,0.3,0.3,0.2c-0.2,0-0.2,0.6,0.1,1.3
			c0.2,0.7,0.6,1.5,1,1.9l-0.4,0c0.4,0.4,0.6,0.5,0.8,0.8c0.2,0.2,0.4,0.5,0.9,1c0.2,0.3,0,0.4-0.2,0c0.3,0.5,0.5,0.6,0.7,0.7
			c0.2,0.1,0.4,0.2,0.9,0.7l-0.5-0.2c0.4,0.4,0.6,0.5,0.8,0.6c0.2,0.1,0.3,0.1,0.6,0.2c0.6,0.3,1.8,1,1.9,1.3
			c0.2-0.1,0.8-0.1,1.4,0.1c0.1,0.1-0.2,0.2-0.3,0.1c0.9,0.3,1.6,0.2,2.2,0.2c0.6-0.1,1.1-0.1,1.6,0c0,0.1,0.1,0.2,0.2,0.2
			c-0.7,0-1.3,0-1.7,0c-0.4,0-0.7,0-0.6,0c0,0.3,1.1,0.4,0.2,0.7c0.9-0.2,2.4-0.7,3.4-0.5c0.1,0,0.1,0.1,0.1,0.1l-0.1,0
			c0.2,0,0.5,0,0.7,0c0.3,0,0.5,0.1,0.9,0.1c0.1,0.2,1.2,0.1,1.8,0.1c0-0.3,0.7-0.3,0-0.5c0.1,0-0.1,0-0.5,0c-0.1,0-0.2,0-0.2,0
			c0,0,0,0,0,0c-0.4,0-0.8,0-1.3,0c0.4-0.2,0.9-0.3,1.5-0.1c0.3-0.2,0.6-0.4,0.8-0.5c0.7,0.4,2.2,0.7,2.4,0.9
			c1.6-0.2,3.9-0.1,4.9-0.7c0.5-0.1,0.5,0.2,0.7,0.3c-0.3,0.1-0.6,0-0.7,0.1c0.9-0.1,2.8-0.1,3-0.5c1.2,0.2-0.7,0.4,1,0.3l-0.2,0.1
			c3.2,0.6,5.2-1,8.7-0.2c-0.2-0.1-0.4-0.1-0.4-0.1c4,0.4,8.3-0.3,12.3,0.2c1.1,0.1,1.3-0.1,1.9-0.3l0.2,0.3l1.2-0.4
			c1.7-0.3,2.9,0.8,5,0.3l-0.3-0.2c0.8,0,2.4-0.1,2.3,0.1c0.1,0,0.2-0.2,0.5-0.1l0,0.2l1.9-0.3c1.4,0.1-0.2,0.7,1.9,0.7
			c0.8-0.1,2.2-0.5,1.9-0.6c-0.3,0-0.8-0.1-0.8-0.3l0.7-0.1c0.1-0.5,0.7-1-1.1-1.4l-1.2,0.3l-0.4-0.2l1,0c-0.6-0.2-1,0-1.4,0.1
			c-0.1-0.1-0.3-0.2-0.5-0.3l-1.2,0.5c-0.1-0.2,0.5-0.4-0.3-0.5c-0.6,0.2,0.5,0.4-0.4,0.6c-0.6-0.2-0.4-0.4-1.1-0.2
			c-0.1-0.1,0-0.2,0.3-0.3c-0.6,0.2-1.6,0.1-1.9,0.3c-0.6-0.3-2.1,0.1-2-0.4c-0.2,0.1-1.1,0.4-1.6,0.4c1-0.6-2.1,0-1.8-0.6
			c-0.8,0.5-2.8,0.2-4.1,0.5c0.1,0,0.2-0.1,0.3-0.1c-0.8,0-1-0.2-1.5-0.3c-0.1,0.4-1.3,0.5-1.9,0.8c-0.9-0.4,0.6-0.5,0.3-0.9
			c0,0.3-1.6,0.3-1.3,0.6c-0.7-0.3-0.6-0.1-1-0.5c-0.1,0.5-0.7,0.1-1.3,0.4c-1-0.3-0.3-0.5-1.4-0.3C61.9,93.8,62.9,93.6,62.9,93.6z
			 M36,94.6L36,94.6c0.2,0,0.4,0,0.6,0C36.4,94.5,36.3,94.5,36,94.6z M33.7,94.6c0.3,0,0.6,0,1,0c0.1,0.1,0,0.2-0.2,0.2
			C34.6,94.7,34.1,94.7,33.7,94.6z M38.5,96.7c-0.4,0-0.5,0-0.5-0.1c0.2,0,0.4,0,0.6,0c0,0,0,0,0,0C38.6,96.6,38.6,96.6,38.5,96.7z"
			/>
		<path class="st11" d="M39.2,96.3c0.1,0,0.1,0,0.1,0C39.2,96.2,39.2,96.2,39.2,96.3c-0.1-0.1-0.2,0-0.2,0
			C39,96.3,39.1,96.3,39.2,96.3z"/>
		<path class="st11" d="M97.2,55.3L97.2,55.3C97.2,55.3,97.2,55.3,97.2,55.3C97.2,55.3,97.2,55.3,97.2,55.3z"/>
		<polygon class="st11" points="25.7,69.8 25.6,69.8 25.7,70 		"/>
		<path class="st11" d="M96.1,67.8c0,0-0.1,0.1-0.1,0.2C96.1,67.9,96.1,67.9,96.1,67.8z"/>
		<path class="st11" d="M96.1,73.2L96,73.9C96,73.6,96.1,73.4,96.1,73.2z"/>
		<path class="st11" d="M95.9,77.3c0.1,0.1,0.1,0.1,0.1,0.1l0,0L95.9,77.3z"/>
		<path class="st11" d="M92.6,13.5c0,0-0.1-0.1-0.1-0.1C92.1,13.3,92.3,13.4,92.6,13.5z"/>
		<path class="st11" d="M96.3,31.1c-0.1-0.2-0.1-0.4-0.1-0.6C96.1,30.8,96.1,31.1,96.3,31.1z"/>
		<path class="st11" d="M71.8,12.4L71.8,12.4c0,0-0.1,0-0.1,0L71.8,12.4z"/>
		<path class="st11" d="M96.1,29.5c-0.1,0.3,0,0.6,0,0.9C96.2,30.1,96.2,29.8,96.1,29.5z"/>
		<path class="st11" d="M92.3,93.1l-0.2,0.1c0,0,0,0,0,0.1L92.3,93.1z"/>
		<path class="st11" d="M92.2,93.3L92,93.4C92.1,93.3,92.2,93.3,92.2,93.3z"/>
		<path class="st11" d="M91.7,93.7c0,0,0.3-0.3,0.3-0.3C91.9,93.5,91.7,93.6,91.7,93.7z"/>
		<path class="st11" d="M95.4,89.4L95.4,89.4C95.4,89.4,95.4,89.4,95.4,89.4z"/>
		<path class="st11" d="M95.8,88c0,0.2-0.1,0.4-0.2,0.6c-0.1,0.2-0.2,0.5-0.3,0.7l0.1,0.1c0-0.1,0.1-0.4,0.3-0.6
			C95.7,88.4,95.9,88.1,95.8,88z"/>
		<path class="st11" d="M97.3,81.1l-0.1,1.4c0.1-0.2,0.3-0.6,0.3,0.1C97.8,80.9,97.2,83,97.3,81.1z"/>
		<path class="st11" d="M97.4,76.8c0.1,0.7,0.2,0,0.2,0C97.6,76.4,97.5,76.3,97.4,76.8z"/>
		<path class="st11" d="M97.4,45.5l0.3,0.1C97.7,45,97.6,45.6,97.4,45.5z"/>
		<polygon class="st11" points="96,39.6 95.8,40.1 96.1,40.4 		"/>
		<polygon class="st11" points="98,36 98,36.3 97.9,35.3 		"/>
		<path class="st11" d="M65.7,9.7l0.2,0.3C66.3,10,66.3,9.6,65.7,9.7z"/>
		<path class="st11" d="M43,10c-0.2-0.2-0.9-0.3-1.3-0.1C42.3,9.9,42.8,10.1,43,10z"/>
		<polygon class="st11" points="22.9,63.8 22.8,63.4 22.9,64.2 		"/>
	</g>
	<g>
		<g>
			<path class="st11" d="M50.5,69.1c-0.1-1.9-0.1-5-0.1-9.4c0-4.4,0-8.4,0-12.1c0-3.6-0.1-5.9-0.2-6.8c0.1,0,0.3,0,0.6,0
				c0-1,0-2,0-2.9c-0.9,0-1.8,0-2.9,0c-0.4,0-0.9,0-1.3,0c0,1,0,2,0,2.9l0.3,0c0,1.8,0.1,5.4,0.2,10.8c0.1,5.5,0.2,9.6,0.2,12.5
				c0,2.2,0,3.8,0,4.9c-0.1,0-0.3,0-0.4,0c0,1,0,2,0,3.1c1.9,0,3.3,0,4.3,0c0-1,0-2,0-3C51,69.1,50.7,69.1,50.5,69.1z"/>
			<g>
				<path class="st11" d="M51.3,70.3c0,0,0-0.1,0-0.1C51.3,70.3,51.3,70.4,51.3,70.3z"/>
				<path class="st11" d="M50.5,69c0.2,0,0.5,0.1,0.9,0.1l0.1,0l0,0.1c0,0.3,0,0.7-0.1,1c0-0.2-0.1-0.6-0.1-1l0,0.1
					C50.9,69.2,50.5,69.1,50.5,69z"/>
				<path class="st11" d="M50.9,70.4l0.1-0.6C51,70.1,50.9,70.1,50.9,70.4z"/>
				<polygon class="st11" points="51.1,70.2 51.2,70.2 51.1,70.5 				"/>
				<path class="st11" d="M46.3,46.1c0,0.1-0.1,0.1-0.2,0.1L46.3,46.1z"/>
				<path class="st11" d="M46.7,44.6c0-0.1,0-0.2,0-0.3C46.8,44.4,46.8,44.5,46.7,44.6z"/>
				<path class="st11" d="M46.4,47.5l0-0.3C46.4,47.3,46.4,47.4,46.4,47.5z"/>
				<path class="st11" d="M47,63.9c-0.1,0.3-0.1,0.5-0.2,0.7C46.8,64.1,46.9,64.1,47,63.9z"/>
				<path class="st11" d="M47.8,39L47.8,39C47.7,39,47.8,39,47.8,39z"/>
				<path class="st11" d="M48.1,44.3c0,0-0.1,0-0.1,0c0,0,0,0,0-0.1L48.1,44.3z"/>
				<path class="st11" d="M46.6,48.5L46.6,48.5l0,0.2C46.5,48.6,46.5,48.6,46.6,48.5z"/>
				<path class="st11" d="M48.4,39.1c0.1,0,0.2,0.1,0.3,0.2C48.5,39.2,48.4,39.1,48.4,39.1z"/>
				<path class="st11" d="M46.7,44.3L46.7,44.3C46.8,44.3,46.8,44.3,46.7,44.3C46.7,44.3,46.7,44.3,46.7,44.3z"/>
				<path class="st11" d="M48,46.4c0-0.1,0-0.2,0-0.3C48.1,46.2,48.1,46.3,48,46.4z"/>
				<path class="st11" d="M47,63.9c0-0.1,0-0.1,0.1-0.2C47.1,63.8,47.1,63.9,47,63.9z"/>
				<path class="st11" d="M51.5,72.2c0,0.1,0,0.1,0,0.1c0,0-0.1,0-0.1,0c-0.1,0-0.1-0.1-0.2-0.1C51.2,72.2,51.3,72.2,51.5,72.2
					C51.5,72.3,51.4,72.2,51.5,72.2z"/>
				<path class="st11" d="M51,68.5L51,68.5C51,68.6,51,68.6,51,68.5z"/>
				<path class="st11" d="M51.1,60.6c0,0,0-0.1,0.1-0.1C51.2,60.6,51.2,60.6,51.1,60.6z"/>
				<path class="st11" d="M49.1,53.3c0.1,0.5-0.1,1.1-0.1,1.5l0.1-0.2L49,55.1l0.1,0c-0.1,0.8,0.1,1.7-0.1,2l0.2-0.1l-0.2,0.8
					l0.2-0.5c0.1,0.9-0.1,2.3-0.1,2.4l0.1-0.1c0,0.1,0,0.3,0,0.4l0.1-0.1c0,1.4,0.3,1.7,0.2,3.2c0,0.4,0-0.2,0.1-0.2
					c0.1,0.2,0,0.8,0,0.9c0.2-0.1,0.1-0.8,0.3-0.3c-0.1,0.3,0.2-0.2,0.2,0.4l-0.3,0.2c0,0.3,0.2,0.1,0.2,0.6
					c-0.1,0.6-0.3-0.7-0.3,0.2c0,0.5,0.6,1,0.5,2c0.1,0.8,0.4-0.4,0.3,0.7l0.2-0.7c0.1,0.2,0.2,0.1,0.2,0.6
					c-0.1,0.2-0.2,0.5-0.2,0.7c0.2-1.1,0.3,0.9,0.6-0.1l0,0.4c0,0,0-0.1,0.1,0l0,0.5c0.1-0.3,0.1-1,0.3-0.7l0.1,0.7
					c0.1-0.2,0.2,0.1,0.3,0l0.3-2.1c-0.1,0.1-0.1,0.4-0.2,0.3c-0.1-0.6,0.2-0.5,0-1l-0.1,0.2c0,0,0.1-0.1,0.1,0
					c0.1,0.2,0,0.3-0.1,0.3c-0.1-0.2-0.1-0.7,0-0.9c0-0.7-0.3-0.1-0.3-0.3c0.2-0.4,0-1.1,0.1-1.5l-0.2,0.3c-0.2-0.5,0-1,0-1.3
					l-0.1,0.1c0-0.7-0.4-1.1,0-1.6l-0.1,0.1c0-0.3-0.1-0.7,0-1c-0.1,0-0.1-0.1-0.1-0.2c0.2-0.2,0-0.5,0-0.9c0,0.3-0.3,0.2-0.3,0.5
					c-0.2-0.7,0.3-0.6,0.2-1.2c-0.1-0.3-0.1,0.3-0.2,0.4c0.1-0.9-0.5-1.8-0.1-2.3l0.1,0.4c0.1-0.3,0.1-0.5,0.1-0.5
					c0,0.1,0,0.1-0.1,0.2c-0.2-1,0.3-1.6,0.2-2.7c-0.1,0.1-0.1,0.2-0.2,0.2c-0.1-0.5,0.4-0.5,0.3-1.3L51,53.5
					c-0.1-0.3,0.1-0.5,0.1-0.4c-0.4,0,0-1.7-0.5-2.2c0.2-0.4,0.4-1.5,0.3-1.8c-0.2-0.5-0.3,0.4-0.5,0.2c0-0.4,0.2-0.6,0.1-1.1
					c0.2,0,0.4,1.1,0.6,0.1L51,48c0,0.1,0.1,0.3,0,0.4c-0.1,0.3-0.1-0.2-0.2-0.3c0,0,0-0.3,0-0.6c0-0.3,0-0.6,0-0.6
					c0.2-0.1,0.2,0.6,0.2,0.7c-0.1-0.9-0.4-2-0.3-2.8L50.7,45c0.2-1.1-0.4-0.6-0.1-1.5c-0.1-0.4-0.2,0.2-0.3-0.5
					c0-0.2,0.1-0.1,0.1-0.1c0.1-0.8-0.2-0.3,0-1.1L50.2,42c0.1-0.4,0.2-0.9,0.3-1.3l-0.2,0.3c0.2,0,0.4,0.1,0.6,0.1l0.3,0l0.1-0.5
					c0.1-0.3,0.1-0.5,0-0.8c-0.2,0-0.2,0.5-0.3,0.7c0.1-0.3,0.1-0.6,0.2-0.9c0-0.2,0-0.3,0-0.5l0-0.6c0-0.4,0-0.7,0-1.1
					c0,0,0-0.1,0-0.1l-0.1,0l-0.2,0c-0.2,0-0.3,0-0.4,0c0.2-0.1,0.1-0.2,0.1-0.3c-0.1-0.1-0.1-0.2,0.5-0.2c0,0.1,0.2,0.1,0.4,0.1
					c0.1,0,0.2,0,0.3,0c0,0.1,0,0.2,0,0.3c0.1-0.1,0.1-0.4,0.1-0.5c-0.1,0-0.3,0-0.5-0.1c-0.4,0-0.9,0-1.3,0.1c-0.2,0-0.4,0-0.6,0.1
					c-0.1,0-0.2,0-0.3,0c-0.2,0-0.3,0-0.4-0.2L48.4,37c-0.1,0-0.2-0.1-0.3-0.1c-0.1,0-0.2-0.1,0-0.1l-1.7,0.1
					c0.7,0.1,1.9,0.5,2.1,0.3c0.3,0.2-0.4,0.1-0.2,0.4c-0.4-0.2-0.6-0.1-0.7-0.1c-0.1,0.1-0.2,0.2-0.7,0.1c0.1-0.1-0.2-0.2-0.5-0.3
					c-0.1,0-0.2,0-0.3-0.1l-0.1,0c0,0,0,0,0,0.1c0,0.1-0.1,0.2-0.1,0.1c0.1,0.4-0.1,1.1-0.2,1.4c0,0.1,0,0.3,0,0.5
					c0,0.1,0,0.3,0,0.4c0,0.3,0.1,0.6,0.1,1l0,0.7l0.7,0c0.1,0,0.2,0,0.3,0l-0.7-0.7l0,0.1l0-0.1l0.7,0.7c-0.1,0-0.2-0.1-0.3-0.1
					L45.9,41l0.1-0.3c0.1-0.1,0.1-0.2,0.2-0.2c0,0.1,0,0.2,0,0.2l-0.1,0.3l0.5,0.1c0.1,0,0.3,0,0.3,0l-0.4-0.4
					c0,0.1,0.1,0.2,0.2,0.2c0-0.1,0-0.2,0.1-0.2L47,41c-0.2,0-0.3-0.1-0.3-0.1l-0.2,0l0-0.2c0-0.4-0.5-0.1-0.3-0.9
					c0.1-0.1,0.2-0.3,0.2-0.5c0.1-0.2,0.1-0.5,0.1-0.8c0.1,0.3,0.2,0.2,0.4,0.4c-0.3,0.4-0.2,1.1-0.2,1.8l0,0l0,0c0.1,0,0.2,0,0.3,0
					l0,0c0,0.2,0,0.4-0.1,0.5c-0.1,0.4-0.4,0.1-0.5,1l-0.2-0.7c0.2,0.8-0.1,0.2-0.2,0.9l0.2-0.3c0,0.4,0,0.6-0.1,0.8l0.2-0.4
					c0,0.2,0.1,0.6-0.1,0.6c0.1,0.1,0.1,0.1,0.2,0.1c0,0-0.1,0.2,0,0.4c0-0.2,0-0.3,0.1-0.3c0,1,0.3,0.2,0.3,0.8
					c0.1-0.1,0.1,0.1,0.2,0.3c-0.4,0-0.4,1.2-0.6,1.5l0,0L46.2,47c0-0.2,0.1,0,0.2,0.3l0,0c0.1,0.3,0.4-0.3,0.3,0.5l-0.1,0.4
					c0-0.1,0.1,0,0.1,0l-0.1,0.4c0.4,0.6-0.2,1.2,0,2c0-0.2,0-0.6,0.1-0.4c0,0.1,0,0.4,0,0.5l0,0l-0.2,1.5c0.1-0.1,0.1-0.9,0.3-0.6
					c0.2,0.2,0,0.6,0,0.9c-0.1,0-0.2-0.5-0.2,0c0.1,0.1,0.2,0.5,0.2,0.3c-0.1,0.5-0.1,1.2-0.3,1.7c0,0.1,0.1-0.1,0.1-0.2l0,0
					c0.1-0.3,0.3-0.1,0.1-0.6c0.3-0.1,0.1,0.9,0.2,1.4l0.2-0.8c0.5,1.4,0,3.3,0,4.7c-0.1-0.4,0-0.8-0.3-0.7
					c-0.1,0.9-0.1,0.8-0.1,1.6l0-0.1c0.1,0.4-0.1,1.1,0.1,1.3c0.1-0.2-0.1-0.6,0.1-0.6l0,1.1c0.2-0.3,0-1.1,0-1.5
					c0-0.3,0,0.6-0.2,0.5c0-1,0.2-1.2,0.4-1.8c0.2-0.3,0.2,0.4,0.2,0.6c-0.3,0.7-0.4,1.6-0.3,2.6l0.2,0.6c-0.2,0.5-0.6,0.3-0.5,1.2
					l0.2-0.3c0.1,0.2,0.1,0.3,0.1,0.4c0.1-0.4,0.2-0.8,0.4-1.2c0.3,0.5-0.1,1.5-0.2,2.2c0,0,0.1-0.3,0.1-0.4
					c0.1,1.1-0.3,2.3-0.4,3.2c0.1,0.4,0.1-0.7,0.3-0.5c-0.1,0.5,0.1,1-0.1,1.1c0.3-0.2,0,1.1,0.3,0.2c0,0.2,0,0.5,0,0.8l0,0.1
					l-0.1,0l-0.4,0l0.1-0.1c0,0.7-0.1,1.3-0.1,2l-0.1,1.1c0,0.1,0.1,0.1,0.1,0.1l0.2,0c0.2,0,0.3,0,0.5,0c-0.1-0.1,0-0.2,0.1-0.2
					c-0.1,0-0.3,0-0.4,0c-0.1,0-0.1,0-0.2,0c-0.1,0-0.2,0-0.1-0.1c0-0.3,0.1-0.6,0.2-0.8c0.1,0.1,0,0.3,0,0.5c0,0.1-0.1,0.2-0.1,0.3
					c0,0,0.1,0,0.1,0c0,0-0.1,0-0.1-0.1l0-0.2c0-0.1,0.1-0.2,0.1-0.3c0.1,0.3,0.2,0.3,0.4,0.4l-0.2,0.1c0.8,0.2,0.5,0.5,1.5,0.4
					c0.4-0.2,0-0.1,0-0.4c0.1,0,0.4,0,0.7,0c0.2,0,0.5,0,0.7,0.1l-0.6,0c0.5,0.1,0.9,0.1,1.3,0.1c-0.1,0-0.1-0.1-0.3-0.1
					c0.1,0,0.2,0,0.3,0c0.1,0,0-0.1,0.1-0.1l0-0.1c0-0.2,0.1-0.3,0.1-0.4l-0.2-0.2c0.1,0.1,0.1,0.4,0.1,0.6c0,0.1,0,0.2,0,0.2
					c-0.1,0-0.2,0-0.2-0.1c0.1,0,0.1-0.6,0.1-0.8c0,0.3-0.1,0.5-0.1,0.6c0,0,0,0,0,0l-0.1,0l-0.1,0c-0.1,0-0.2,0-0.2-0.1
					c-0.3-0.1-0.4-0.1-0.9-0.1c0,0,0.2,0.1,0.2,0.1c-0.6,0.2-1.5-0.1-1.8-0.1c0.1,0,0.2-0.1,0.1-0.2c-0.2,0-0.4,0.1-0.6,0.1
					c-0.1-0.1,0-0.4-0.1-0.6c0-0.3,0-0.5,0-0.8c0-0.4,0-0.7,0-1.1L47,69.6l0.1,0l0.3,0.1l0.3,0.1l0.4-0.8l0.1-0.1l-0.2,0
					c-0.1-0.8,0.2-0.2,0.2-0.6c0,0.2,0,0.2-0.1,0.2c0.2-0.9-0.2-0.5-0.1-1c-0.2,0.2-0.1,0.9-0.3,0.7c0.2-0.9,0.1-2.2,0.5-2.3
					c-0.1-1.6,0.1-3.6,0.1-5c-0.1-0.2-0.1,0.1-0.1,0c0.2-0.5-0.2-1.8,0-1.8c-0.1-0.3-0.2-0.4-0.3-0.4c0.1-0.3,0.1-0.8,0.2-1.2
					l-0.1,0.3l0,0l0.1-0.5l0,0c0-1.1,0-2.3,0.2-3.3c-0.1,0.6-0.3-0.1-0.3,0.1c0.3-0.5,0.3-1.7,0.3-2.7c-0.1,0-0.1-0.1-0.2,0l0.1-0.6
					L48.1,51c-0.1-1,0.3-2.1,0.1-2.8c0,0.4-0.1,0.4-0.2,0.5c0-0.7,0-1.4,0.1-2.3c0,0,0,0.1-0.1,0.1c0-0.2,0-0.5,0.1-0.7l-0.2,0
					c0.1-0.4,0-1,0.1-1.5C47.8,44,48.1,43,48,42.4c0-0.2-0.2,0.5-0.2-0.1c0.4-0.1,0-0.8,0.4-0.9l-0.2-0.6l0.1,0L47,39.6L47,39.5
					c-0.1,0.1-0.2,0.1-0.3,0.1l1.1,1.2c-0.1-0.3,0.3-0.6,0.2-1.2c0,0-0.1,0.1-0.1,0.1c0-0.1,0-0.1,0-0.2l0-0.1l0,0c0,0,0.1,0,0.1,0
					c0,0,0.1,0-0.1-0.2c0.1,0.1,0,0.1,0,0.1c-0.2-0.1-0.1-0.2-0.3-0.3c0,0,0,0,0.1,0l-0.1-0.1c0-0.1,0.2,0,0.2,0c0.1,0,0.1,0,0.2,0
					c0.1,0,0.1,0,0.1,0c0,0,0,0,0.1,0c0.1,0,0.1,0,0.2,0.1c0-0.1,0.2-0.1,0.4-0.1l0,0.2l0.5,0c0,0,0-0.3-0.1-0.3
					c0.4,0,0.3,0.3,0.2,0.4c0.2-0.1,0.1,0,0.1,0c0,0,0,0,0,0.1c0,0.1,0,0.2,0,0.3c0,0.2,0,0.4,0.1,0.5l0.1-0.5c0,0.4,0,0.7,0,1
					l1-1.1c-0.2,0-0.4,0.1-0.7,0.1l-1,0.1l0.1,1c0,0.2,0,0.4,0,0.8c0-0.4-0.1-0.5-0.1-0.7l-0.2-1.1l1.2-0.2c0.2,0,0.4-0.1,0.7-0.1
					l-1.2,1.3c0-0.2-0.1-0.5-0.2-0.8c0,0.3,0,0.6,0,0.8l1.3-1.4c-0.2,0-0.5,0-0.7,0l-1.2,0l-0.1,1.5c0,0.7-0.1,1.3,0,2
					c0.1-0.1,0.1-0.4,0.2-0.1c-0.2,0.2,0,1.1-0.2,0.9c0.1,0.4,0.3,0.4,0.3,0.6l-0.2,1.2l0,0c0.6,2.1-0.3,3.9-0.1,6l0.1,0l-0.2,0.5
					c0.1-0.4,0.1,0.2,0.2,0.2l-0.3,1.4C48.9,53.7,49.2,53.6,49.1,53.3z M48.8,39l-0.3,0c-0.1,0-0.1,0-0.2,0l0.2,0
					C48.7,38.9,48.8,38.8,48.8,39z M48.1,65.1c-0.1,0.2,0-0.2,0-0.3l0,0.5C48.1,65.3,48.1,65.1,48.1,65.1z M48.8,37.6l0.2-0.1
					l0.2,0.1L48.8,37.6z M51.1,40.5l0.1-0.5l0,0L51.1,40.5L51.1,40.5z M49.4,45C49.4,45,49.4,45,49.4,45C49.4,45,49.4,45,49.4,45
					c-0.1,0.4,0.2,0.5-0.1,0.8C49.1,45.5,49.3,45.2,49.4,45z M49.7,38.7c0,0-0.1,0-0.1,0c0,0.1,0,0.2-0.1,0.2c0-0.1-0.1-0.1-0.1-0.3
					C49.5,38.8,49.9,38.4,49.7,38.7z M47.9,44.5l0-0.1l-0.1,0.4L47.9,44.5z M47.8,46.4c-0.2,0.2-0.1,0.8-0.2,1.3
					c0.2,0.1,0.3-0.3,0.3-0.8C48,46.3,47.7,46.6,47.8,46.4z M50.4,40.1l0.1,0.1l-0.1,0l0.3,0l-0.4,0.4l0-0.2c0,0.1,0,0.1,0,0.2
					l0.3-0.3c-0.2,0.1-0.4,0-0.6,0l-0.2,0l-0.1,0.5c-0.1,0.2-0.2,0.4-0.2,0.6c0-0.1,0.1-0.4,0.1-0.6l0.1-0.5l0.3,0
					C50.3,40.3,50.5,40.3,50.4,40.1z M47.8,50.6c-0.1,0.4-0.2,1.2-0.4,1.1c0.2,0,0.3-0.6,0.3-0.8C47.7,50.8,47.7,50.7,47.8,50.6z
					 M47.3,50.6c0.1-0.6,0.2-0.7,0.4-1.1c0.1,0.6-0.2,0.8-0.3,0.7c-0.1,0.4,0.1,0.3,0.1,0.6L47.3,50.6z M48,49.9l0-0.2
					c-0.1-0.3-0.4-0.3-0.1-0.8l0.1,0.8C48,49.8,48,49.8,48,49.9z M48.1,55l0.1-0.3C48.1,55,48.1,55.1,48.1,55L48,55.2
					C47.9,54.7,48,55,48.1,55z M47.9,51.1l0-0.7C47.8,50.5,47.9,50.9,47.9,51.1z M47.8,54.9c0-0.3-0.1-1.1,0-1
					C47.9,54,47.9,54.7,47.8,54.9z M47.2,70.3l0-0.5l0.2,0.2L47.2,70.3z M47.5,65.4l0.1,0.1l0,0.3L47.5,65.4z M47.4,60.5
					c0,0,0.1,0,0.1,0c0-0.1,0-0.1,0.1-0.2c0,0.1,0,0.1-0.1,0.2c0,0.2,0,0.5,0,0.6c0.1-0.1,0.1-0.4,0.1-0.5c0.2,0.4-0.4,1.5,0.2,1.2
					c-0.1,0.2-0.2,0.8-0.3,0.6C47.6,61.9,47.6,60.9,47.4,60.5c0,0-0.1-0.1-0.1-0.2C47.4,60.4,47.4,60.4,47.4,60.5z M47.2,53.9
					c0-0.2,0-0.3,0-0.3c0-0.2,0.1-0.3,0.2-0.2c-0.1,0.4-0.1,0.1-0.2,0.2C47.2,53.7,47.2,53.8,47.2,53.9z M47.2,52.8L47,53.4l0.1-0.3
					L46.9,54C46.8,53.5,47,52.9,47.2,52.8z M47,52.6l0.1-0.1L47,52.6L47,52.6L47,52.6l0-1L47,52.6z M47.1,42.2
					c-0.5-0.4-0.3,0.9-0.6,1.1c0.2,0,0.4,0.4,0.4-0.6c0.2,0.9-0.3,0.5,0.1,1c0-0.4,0.1-0.9,0.1-1l0,0.5C47.5,43,47,42.5,47.1,42.2z
					 M47.2,37.8l0.6,0L47.2,37.8L47.2,37.8z M50.5,49.4c0.1,0,0.3,0.8,0.1,1C50.6,50,50.6,49.5,50.5,49.4z M50.5,56.2l0.1-0.7
					c0.3,0.1,0,0.6,0,1C50.5,56.6,50.6,56.3,50.5,56.2z M50.5,60.8l0,0.2l0.3-0.2L50.5,60.8z M50.8,60.5c0.1,0.1,0.2-0.3,0.2-0.5
					L50.8,60.5z M51.1,64.7l0-0.3l-0.2,0.3L51.1,64.7z M50.8,64.2c0.2-0.1,0.4,0,0.3-0.7c-0.2,0-0.2,0.2-0.4-0.1
					c0,0.2,0,0.4,0.1,0.5c0-0.2,0-0.3,0.1-0.4C50.9,63.8,50.9,64.1,50.8,64.2c-0.1,0-0.1,0.1-0.1,0.2C50.7,64.4,50.8,64.3,50.8,64.2
					z M50.6,61.8c0-0.1,0-0.2-0.1-0.2l0,0C50.7,61.6,50.6,61.7,50.6,61.8c0,0.1,0,0.2,0.1,0.3c0.1,0.1,0.2-0.4,0.3-0.5
					c0,0.2-0.2,0.4-0.1,0.7c0,0,0.1,0,0.1-0.2l0,0.4c-0.2,0.5-0.3,0-0.3-0.4c0,0-0.1,0-0.1-0.1C50.6,61.9,50.6,61.8,50.6,61.8z
					 M50.3,65.1l0-0.2c0.1-0.1,0.1,0,0.2-0.1C50.5,65,50.4,65.4,50.3,65.1z M50.2,51.6c0,0.1,0.2-0.2,0.2-0.5l0.2,0.2
					c-0.1,0-0.1,0.7-0.1,0.8C50.2,52.1,50.3,51.8,50.2,51.6z M49.4,38c-0.1-0.3-1-0.1-1.2-0.2C48.7,37.7,49.7,37.7,49.4,38z
					 M48,38.1c-0.2,0-0.2,0-0.3-0.1c-0.1-0.1-0.3,0-0.4,0C47.7,37.8,47.7,38,48,38.1c0.1,0,0.1,0,0.2,0C48.1,38.1,48,38.1,48,38.1z
					 M50,43.6l-0.2,0.3l0,0.5L50,43.6z M49.7,48.8c0.1,0,0.1,0.5,0.1,0.6c0.2,0,0.1-0.4,0.1-0.7c0,0,0-0.1,0-0.2c0,0.1,0,0.1,0,0.2
					C49.9,48.9,49.8,48.8,49.7,48.8l0-0.2l0,0.4L49.7,48.8z M49.5,58c0.1,0.3,0.1,0.4,0,0.6C49.5,58.6,49.5,58.3,49.5,58z
					 M49.5,46.1c0.1,0.6,0.2-0.3,0.3,0.1l0-0.3c0.2,0.5-0.2,0.3-0.1,0.7l0-0.2c-0.2-0.2-0.1,0.3-0.2,0.4
					C49.4,46.4,49.5,45.8,49.5,46.1z M49.5,58.6c0.2,0.6-0.2,0.5-0.2,0.8C49.1,58.9,49.4,59,49.5,58.6z M49.1,49.6L49.1,49.6L49,50
					l0,0L49.1,49.6z"/>
				<path class="st11" d="M51,59.2c0,0.1,0,0.2,0,0.3C51,59.5,51,59.4,51,59.2z"/>
				<path class="st11" d="M45.9,37.2c0,0.1,0.1,0.1,0.1,0.3C45.9,37.4,45.9,37.3,45.9,37.2z"/>
				<polygon class="st11" points="45.8,38.8 45.8,38.9 45.8,38.9 				"/>
				<path class="st11" d="M51.4,72.5c0.5,0.2-0.3,0-0.5,0C51.2,72.6,51.1,72.4,51.4,72.5z"/>
				<path class="st11" d="M49.6,72.2c0.1,0.1,0.3,0.1,0.5,0.1C50,72.3,49.8,72.3,49.6,72.2z"/>
				<path class="st11" d="M50.9,72.3c-0.3,0-0.6,0-0.8,0C50.3,72.3,50.5,72.2,50.9,72.3z"/>
				<path class="st11" d="M46.9,70.8c-0.1,0.3,0,0.8,0,0.8c-0.1-0.5-0.1-0.5-0.2-0.2c-0.1,0.2-0.1,0.7-0.1,0.8
					C46.6,71.3,46.7,71.3,46.9,70.8z"/>
				<path class="st11" d="M46.9,69.5c0,0.1,0,0.2,0,0.3C46.9,69.7,46.9,69.6,46.9,69.5z"/>
				<path class="st11" d="M46.8,69.2L46.8,69.2l0-0.2l0.1,0c0.2,0,0.3,0.1,0.4,0.1l0,0l0,0l0.1-0.1c0,0,0,0.1,0,0.1l0,0.1l-0.1,0
					c-0.2,0-0.3,0-0.4,0l0.1-0.1c0,0.2-0.1,0.3-0.1,0.4C46.9,69.3,46.9,69.1,46.8,69.2z"/>
				<path class="st11" d="M46.6,59.2c0,0.1,0,0.3-0.1,0.3l0-0.6C46.5,58.7,46.5,59.1,46.6,59.2z"/>
				<path class="st11" d="M46.9,57.1c0-0.5-0.2-0.2-0.1-0.4l0.2,0L46.9,57.1z"/>
				<path class="st11" d="M48.1,57.3l0,0.1C48.1,57.4,48.1,57.4,48.1,57.3L48.1,57.3z"/>
				<path class="st11" d="M46.6,54.9l-0.3,0.3C46.4,54.9,46.6,54.9,46.6,54.9z"/>
				<polygon class="st11" points="46.4,53.2 46.3,53.5 46.4,52.7 				"/>
				<polygon class="st11" points="46.5,51.2 46.4,51.1 46.5,50.5 				"/>
				<path class="st11" d="M50.7,42c-0.2,0.1-0.2-0.8-0.2-1.1C50.8,41.1,50.4,41.7,50.7,42z"/>
				<path class="st11" d="M50.9,58.5l0.1-0.9C51,58.3,50.9,57.8,50.9,58.5z"/>
			</g>
		</g>
		<g>
			<path class="st11" d="M57.6,39.7l-0.5-2.2l18.4-1.1c0.8,0,1.5,0.3,2,0.9c0.5,0.5,0.8,1.1,0.8,1.8c0,0.4-0.2,0.8-0.5,1.1
				c-0.3,0.3-0.8,0.5-1.4,0.6l-8.1-0.4c0.8,11.3,1.4,21.7,1.8,31c-0.3,1-0.8,1.4-1.6,1.4c-0.6,0-1.1-0.2-1.7-0.7
				c-0.5-0.5-0.9-1-1-1.7c0.1-1.7,0.1-4.4,0.1-7.9c0-1.3,0-3.3,0-5.9c0-2.6,0-4.6,0-5.9c0-3.8,0.1-7.3,0.2-10.4
				C62.4,40,59.5,39.8,57.6,39.7z"/>
			<g>
				<path class="st11" d="M57.6,39.7l-0.5-2.2l18.4-1.1c0.8,0,1.5,0.3,2,0.9c0.5,0.5,0.8,1.1,0.8,1.8c0,0.4-0.2,0.8-0.5,1.1
					c-0.3,0.3-0.8,0.5-1.4,0.6l-8.1-0.4c0.8,11.3,1.4,21.7,1.8,31c-0.3,1-0.8,1.4-1.6,1.4c-0.6,0-1.1-0.2-1.7-0.7
					c-0.5-0.5-0.9-1-1-1.7c0.1-1.7,0.1-4.4,0.1-7.9c0-1.3,0-3.3,0-5.9c0-2.6,0-4.6,0-5.9c0-3.8,0.1-7.3,0.2-10.4
					C62.4,40,59.5,39.8,57.6,39.7z"/>
				<g>
					<path class="st11" d="M60.4,39.9c-0.1,0-0.1,0-0.2,0C60.4,39.9,60.4,39.9,60.4,39.9z"/>
					<path class="st11" d="M57.6,39.6c0.7,0,1.9,0.1,2.6,0.3C59.5,39.8,57.8,39.9,57.6,39.6z"/>
					<path class="st11" d="M60.5,40.4l-0.9-0.1C60.1,40.2,60,40.3,60.5,40.4z"/>
					<polygon class="st11" points="60.1,40.1 60.2,40 60.7,40.1 					"/>
					<path class="st11" d="M69,67.4c0,0.1-0.1,0.2-0.1,0.1L69,67.4z"/>
					<path class="st11" d="M69.4,65.3c0-0.2,0-0.3,0-0.4C69.4,65,69.4,65.1,69.4,65.3z"/>
					<path class="st11" d="M69.2,69.3l0-0.4C69.2,69,69.2,69.1,69.2,69.3z"/>
					<path class="st11" d="M66.2,55.5c0.1-0.4,0.1-0.7,0.2-0.9C66.5,55.2,66.3,55.3,66.2,55.5z"/>
					<path class="st11" d="M70.3,55.6L70.3,55.6C70.3,55.4,70.3,55.3,70.3,55.6z"/>
					<path class="st11" d="M70.7,64.7c0,0-0.1,0-0.1,0c0,0,0-0.1,0-0.1L70.7,64.7z"/>
					<path class="st11" d="M69.4,70.7L69.4,70.7l0,0.3C69.4,70.9,69.4,70.8,69.4,70.7z"/>
					<path class="st11" d="M70.3,52.6c0-0.1,0.1-0.3,0.2-0.4C70.4,52.5,70.3,52.7,70.3,52.6z"/>
					<path class="st11" d="M69.4,64.8L69.4,64.8C69.4,64.8,69.4,64.8,69.4,64.8C69.4,64.8,69.4,64.8,69.4,64.8z"/>
					<path class="st11" d="M70.8,67.7c0-0.2,0-0.3,0-0.5C70.8,67.4,70.8,67.6,70.8,67.7z"/>
					<path class="st11" d="M66.2,55.5c0,0.1,0,0.2-0.1,0.3C66.1,55.6,66.2,55.6,66.2,55.5z"/>
					<path class="st11" d="M62.8,39.9c0.3,0,0.4,0.1,0.4,0.1C63,40,62.9,39.9,62.8,39.9z"/>
					<path class="st11" d="M58,39.1L58,39.1C58,39.1,58,39.1,58,39.1z"/>
					<path class="st11" d="M66.8,37.7c0.1,0,0.1,0,0.2,0.1C66.9,37.8,66.8,37.8,66.8,37.7z"/>
					<path class="st11" d="M77.6,35.9c-0.5-0.2-1-0.4-1.4-0.6c-0.3-0.1-0.4-0.1-0.8-0.1c-0.2,0-0.4,0-0.5,0l0.2,0.1l-0.6,0l0,0.1
						c-1.1,0-2.4,0.2-2.8,0l0.1,0.2l-1.1-0.1l0.7,0.1c-1.3,0.1-3.2,0.1-3.5,0.1l0.1,0.1c-0.2,0.1-0.4,0-0.6,0l0.2,0.1
						c-1.9,0.1-2.4,0.4-4.5,0.4c-0.6,0.1,0.3,0,0.3,0.1c-0.3,0.1-1.1,0.1-1.2,0c0.2,0.2,1.1,0.1,0.4,0.3c-0.5-0.1,0.3,0.2-0.5,0.2
						l-0.3-0.2c-0.5,0.1-0.1,0.2-0.8,0.2c-0.9-0.1,1-0.4-0.3-0.3c-0.3,0-0.7,0.2-1.1,0.4c-0.4,0.2-1,0.3-1.9,0.3
						c-0.6,0.1-0.4,0.2-0.2,0.2c0.2,0.1,0.3,0.1-0.3,0.1c0,0.1,0,0.2,0.1,0.3l0-0.2l0.9,0.1c-0.2,0.1,0.1,0.2-0.5,0.2c0,0,0,0,0,0
						c-0.1,0.1-0.1,0.4-0.1,0.8c-0.1-0.7,0.1-0.3,0.3,0c0.2,0.3,0.3,0.6,0.3,0.1l0.1,0.4c0,0,0,0,0.1,0l0.1,0.5
						c0-0.3-0.1-0.9,0.2-0.6l0.2,0.5c0.1-0.1,0.2,0,0.3,0c0-0.3,0-0.4,0.1-0.5c0,0,0.1,0,0.1,0.1c-0.1-0.1-0.2-0.1-0.2-0.2
						c0.1-0.1,0.2,0.1,0.2,0c0,0-0.1-0.1-0.1-0.1c0,0,0,0.1,0,0.1c0,0.1-0.1,0-0.1-0.1c0-0.1,0.1-0.1,0.1-0.1c0,0,0,0,0.1,0l0.2,0
						c0.1,0,0.2,0,0.3,0.1c1-0.1,0.2-0.3,0.4-0.3c0.5,0.2,1.6-0.1,2.2,0l-0.4-0.1c0.7-0.2,1.4-0.1,1.8-0.1L63.2,38
						c1,0,1.5-0.5,2.3-0.1l-0.1-0.1c0.4-0.1,1-0.2,1.4-0.1c0-0.1,0.1-0.1,0.2-0.2c0.2,0.2,0.7,0,1.3-0.1c-0.4,0-0.3-0.3-0.7-0.3
						c0.9-0.3,0.9,0.2,1.7,0.2c0.5-0.1-0.4-0.1-0.6-0.2c1.2,0.1,2.5-0.7,3.3-0.3l-0.5,0.2c0.5,0.1,0.8,0.1,0.7,0
						c-0.2,0-0.2,0-0.3-0.1c0.7-0.2,1.3-0.1,1.9,0c0.3,0,0.6,0.1,0.9,0.1c0.2,0,0.3,0,0.5,0c0.1,0,0.2,0,0.3,0c0.1,0,0.1,0,0.2,0
						c-0.1-0.1-0.2-0.1-0.3-0.2c0.3-0.1,0.4,0.1,0.6,0.2c0.2,0.1,0.3,0.3,0.7,0.4l-0.1-0.2c0.3,0.1,0.4,0.4,0.3,0.3
						c0.1-0.2,0.5,0.2,0.8,0.7c0.1,0.2,0.2,0.5,0.2,0.8c0,0.2,0,0.4,0.1,0.7c-0.2,0.2-0.5,0.4-1,0.4c-0.2,0-0.5,0.1-0.6,0.1
						c-0.1,0-0.4,0-0.5,0c-0.7,0.2,0.6,0.3,0.3,0.5c-0.5,0-0.8-0.3-1.6-0.2c0-0.2,1.6-0.4,0.1-0.6l-0.2,0.1c0.2,0,0.4,0,0.6,0
						c0.4,0.2-0.3,0.1-0.4,0.2l-1.6-0.2C73.1,39.9,74,40,74.1,40c-1.3,0-2.8,0.2-4,0l0.1,0.1c-0.2,0-0.4-0.1-0.5-0.1
						c-0.2,0-0.3,0-0.4,0c-0.2,0-0.3,0.1-0.4,0.1c-0.1,0-0.2,0.1-0.3,0.1c-0.1,0-0.2,0-0.3,0c-0.1,0-0.4-0.2-0.4,0
						c0.1,0.8,0.2,0,0.3,1c0,0.3-0.1,0.1-0.1,0c0,1.3,0.3,0.6,0.1,1.7l0.2-0.2c-0.1,1.3-0.4,2.7-0.3,3.8c0.2-0.1,0.1-0.8,0.3-1
						c-0.3,1.5,0.2,3.6,0.1,5c-0.2-0.4-0.3,0.7-0.5-0.2c0.2-0.2,0-0.7,0-1.1c-0.5,0.8,0.4,3.2,0,3.5l0.2,0.2c0,0.2-0.1,0.8-0.2,0.4
						l0.2,1.5c0.1-0.5,0.4-1.7,0.2-2c0.2-0.4,0.2,0.6,0.4,0.2c-0.3,1,0.2,0.6,0.2,1.7c-0.3-0.5-0.3,1.1-0.4,1c0.1,0.3,0,1.1-0.1,1.4
						c0,0.6,0.3,2,0.3,3c0.1-0.4,0.1-1,0.3-0.9c-0.1,0.5,0,1,0.2,1.1c0.3-1.7-0.5-0.5-0.3-2.1c0.2-0.4,0.2-0.8,0.3-1.6
						c0.2,0.4,0.2,0.2,0.4,0.3c-0.4,1,0.1,2.5-0.1,3.8c-0.1,0.5-0.4,0.2-0.4,1.4l-0.2-1c0.2,1.1-0.1,0.3-0.1,1.2l0.1-0.4
						c0.1,0.6,0,0.8,0,1.1l0.2-0.5c0,0.3,0.1,0.9,0,0.9c0.1,0.1,0.1,0.1,0.2,0.1c0,0.1-0.1,0.2,0,0.6c0-0.2,0-0.4,0.1-0.4
						c0,1.4,0.3,0.3,0.3,1.2c0-0.1,0.1,0.1,0.2,0.4c-0.4,0-0.3,1.7-0.5,2.2l0,0L69,68.5c0-0.2,0.1,0,0.2,0.4l0-0.1
						c0.1,0.4,0.4-0.5,0.3,0.7l-0.1,0.6c0-0.1,0.1,0,0.1,0l-0.1,0.6c0.1,0.2,0.2,0.4,0.1,0.6c0,0.1-0.1,0.3-0.3,0.4
						c-0.2,0.2-0.5,0.3-0.8,0.4c0.2,0,0.4-0.1,0.4,0c-0.1,0.1-0.3,0.1-0.5,0l0,0c0,0-0.4,0-0.7-0.3c-0.3-0.2-0.6-0.6-0.6-0.6
						c0,0.2,0.8,0.7,0.4,0.6c-0.3,0-0.7-0.5-0.8-0.7c0.1,0,0.5,0.3,0.2-0.1c-0.1,0-0.5-0.4-0.4-0.1c-0.1-0.3-0.2-0.7-0.1-0.9
						c0.1-0.4,0.1-0.8,0.2-1.2c0-0.2-0.1,0.1-0.1,0.2l0,0.1c-0.1,0.4-0.3,0.1-0.2,0.9c-0.3,0.1-0.1-1.2-0.1-2L66,69.4
						c-0.4-2,0.1-4.7,0.1-6.6c0.1,0.6,0,1.1,0.3,1c0.1-1.2,0.1-1.1,0.1-2.3l0,0.1c-0.1-0.6,0.1-1.5-0.1-1.9
						c-0.1,0.3,0.1,0.9-0.2,0.9l0-1.5c-0.2,0.5,0,1.5-0.1,2.1c0,0.4,0-0.9,0.2-0.7c0,1.4-0.2,1.8-0.5,2.5c-0.2,0.4-0.2-0.6-0.2-0.9
						c0.3-0.9,0.4-2.2,0.3-3.7l-0.2-0.8c0.2-0.7,0.6-0.4,0.5-1.7l-0.2,0.4c-0.1-0.3-0.1-0.5-0.1-0.6c-0.1,0.5-0.3,1.1-0.4,1.6
						c-0.3-0.7,0.2-2.1,0.2-3.1c0,0.1-0.1,0.4-0.1,0.5c-0.1-1.6,0.3-3.3,0.4-4.5c-0.1-0.5-0.1,1-0.3,0.8c0.1-0.6-0.1-1.4,0.1-1.5
						c-0.3,0.3,0-1.5-0.3-0.2c-0.1-2.3,0.2-4.9,0.4-7.2c-0.1,0.1-0.2,0.1-0.2,0c0,0.8-0.1,2-0.3,2.4c-0.1-0.5,0.2-1.2,0.1-1.4
						c-0.1,0.3-0.1,0.8-0.2,0.8c-0.2-0.7,0.1-1.1,0.1-1.5l0.1,0.3c0.1-0.7,0.2-0.9,0.3-1.2c0.1-0.2,0.2-0.6,0.1-1.4
						c-0.8,0.1-0.1,0.1-0.4,0.3c-0.1-0.1-0.5,0-0.9,0c-0.3,0-0.7,0-0.9-0.2l0.9,0c-0.6-0.1-1.3-0.1-1.7-0.2c0,0,0.1,0.1,0.2,0.1
						C62.9,40,62.2,40,62,39.8l-0.2,0.2c0.3-0.1,1.3,0,1.4,0.1c-0.1,0.2-1.1,0-1.5,0c0.9,0.1,1.4,0.2,1.8,0.3
						c0.4,0.1,0.9,0.2,1.4,0.1l-0.2-0.1c0.2,0,0.4,0,0.6,0c0.1,0,0.2,0,0.2,0.1l0,0.3c0,0.2-0.1,0.4-0.1,0.5c0,0.1,0,0.2,0,0.2
						c0,0.1,0,0.2,0,0.3c0-0.2-0.1-0.3-0.2-0.2c0.1,1.9,0,3.8,0,5.9l-0.2,0.7l0.2,0c0.1,1.1-0.3,0.2-0.2,0.9c0-0.3,0-0.2,0.1-0.3
						c-0.2,1.2,0.2,0.7,0.1,1.4c0.2-0.3,0.1-1.3,0.3-1c-0.2,1.2-0.1,3.1-0.5,3.3c0.2,2.3-0.1,5.1-0.1,7c0.1,0.3,0.1-0.2,0.1-0.1
						c-0.2,0.8,0.2,2.5,0,2.5c0.1,0.4,0.2,0.5,0.3,0.6c-0.1,0.5-0.2,1.1-0.2,1.7l0.1-0.4l0,0L65,64.8l0,0c-0.1,1.5,0,3.3-0.3,4.7
						c0.2-0.8,0.3,0.2,0.4-0.2c-0.1,0.2-0.2,0.4-0.2,0.7c0,0.1-0.1,0.4,0,0.6c0,0.3,0.1,0.5,0.2,0.7c0.2,0.4,0.4,0.9,0.8,1.2
						c0.3,0.4,0.7,0.6,1.1,0.8c0-0.1,0.2-0.1,0-0.2c0,0,0.2,0.2,0.4,0.3c0.2,0.1,0.5,0.2,0.5,0.2l-0.1-0.1c0.5,0.1,1,0.1,1.6,0
						c0.5-0.2,1-0.6,1.3-1c0.1-0.2,0.3-0.4,0.4-0.7c0-0.1,0.1-0.3,0.1-0.4c0-0.1,0-0.3,0-0.4c0-0.4,0-0.6-0.1-0.9
						c0,0.6-0.1,0.6-0.2,0.7c-0.1-1-0.1-2-0.1-3.2c0,0.1,0,0.1-0.1,0.1c0-0.3,0-0.7,0-1l-0.2,0c0-0.6-0.1-1.4,0-2.1
						c-0.2-0.3,0.1-1.8-0.1-2.6c0-0.3-0.2,0.7-0.2-0.2c0.4-0.1-0.1-1.2,0.3-1.3l-0.2-0.8l0.2-0.2c-0.4-0.6,0.1-1-0.1-2
						c0,0.1,0,0.2-0.1,0.1c0-0.3,0-1.1,0.1-0.5c0-0.5,0-2.3-0.2-1.5c0.1-0.1,0.1,0.7,0,1c-0.2,0-0.2-0.8-0.4-1c0,0,0-0.1,0.1-0.2
						l-0.1-0.1c0.1-1-0.1-2,0.1-2.8c-0.1,0-0.1-0.2-0.1-0.6l0.2,0L70.3,51L70,51.5c-0.1-1.2,0.2-2,0.2-3c-0.4-0.2,0-1.9-0.3-2.7
						l-0.1,0.8c0-1.6-0.3-1.8-0.2-3.3c0.2,1.3,0.1,1.3,0.5,3.1C70,45.4,70,44.6,70,43.9c0-0.4,0-0.8,0-1.2c0-0.2,0-0.4,0-0.6
						c0-0.1,0-0.1,0-0.1c0,0,0,0,0,0c-0.1,0-0.1,0-0.2,0c0.2,0,0-0.3,0.2,0c0-0.1-0.1-0.3-0.1-0.3c0,0,0,0,0.1,0c0,0,0,0,0.1,0l0,0
						c0,0,0.1,0,0.1,0c0.4,0.1,0.9,0.2,0.9,0.2l-0.1,0c1.5-0.2,2.9,0,4.3,0.2l1.1,0.2c0.2,0,0.3,0,0.5,0c0.1,0,0.2,0,0.4,0
						c0.3,0,0.5-0.1,0.8-0.2c0.3-0.1,0.6-0.3,0.8-0.5c0.3-0.2,0.5-0.5,0.7-0.8c0.4-0.6,0.5-1.5,0.3-2l-0.1,0.1c0,0,0-0.3,0-0.6
						c0-0.3-0.1-0.6-0.1-0.6c0.3,0.9-0.3-0.3-0.4-0.3c0,0-0.1-0.2-0.2-0.4c-0.1-0.2-0.3-0.5-0.6-0.7c-0.5-0.5-1.2-0.8-1.2-0.8
						C76.9,35.3,77,35.6,77.6,35.9z M70.1,52l0,0.5c0,0.1,0,0.2,0,0.3l0-0.3C70.1,52.2,70,52.1,70.1,52z M65.1,53.9
						c0.1-0.2,0,0.3,0,0.5l0-0.7C65.1,53.5,65.1,53.8,65.1,53.9z M68.7,52.1l-0.2-0.2l0.1-0.3L68.7,52.1z M68.3,45.7l0,0.6l0-0.1
						L68.3,45.7L68.3,45.7z M70.2,41.4c0,0-0.1,0-0.1,0C70.1,41.3,70.1,41.4,70.2,41.4c0.5,0.1,0.7-0.1,1.1,0.2
						C70.8,41.7,70.4,41.5,70.2,41.4z M69.7,49.8c0,0.2,0,0.3,0,0.5c0.1-0.1,0.2-0.6,0.2-0.2c-0.1,0.2-0.1,1-0.2,1
						C69.9,50.3,69.4,49.9,69.7,49.8z M70.5,65l0-0.2l-0.1,0.6L70.5,65z M70.5,67.8c-0.2,0.3-0.1,1.2-0.1,1.8
						c0.2,0.1,0.3-0.5,0.3-1.1C70.8,67.6,70.4,68.1,70.5,67.8z M69.2,44.8L69,45l0-0.2l0,0.6c-0.2-0.8,0.1-1.4,0.1-1.9
						C69.1,44,68.8,45,69.2,44.8z M68.5,73.3c-0.4,0-0.9-0.2-1.2-0.4c-0.3-0.2-0.5-0.4-0.4-0.5c-0.1,0.1,0,0.3,0.3,0.5
						c0.2,0.2,0.5,0.3,0.7,0.3C68.1,73.3,68.2,73.3,68.5,73.3z M68.5,72.9c0.5,0,0.7,0,1-0.1c0.2-0.1,0.5-0.2,0.8-0.5
						C70,72.8,69.6,73,69.4,73c-0.2,0-0.3-0.1-0.3-0.2c-0.7,0.1-0.5,0.2-0.9,0.2C68.3,73.1,68.5,72.9,68.5,72.9z M69.8,73.2
						c0,0,0.4-0.4,0.4-0.4c0.2-0.3,0.2-0.5,0.2-0.6c0-0.2,0.1-0.4,0.4-0.7c0,0,0,0.1-0.1,0.2c0,0.1-0.1,0.3-0.2,0.5
						c-0.1,0.3-0.4,0.6-0.4,0.6C70.1,72.9,70,73,69.8,73.2z M65,68l-0.1,0.3C64.9,68,65,68,65,68l0.1-0.3C65.2,68.5,65.1,68.1,65,68
						z M67.5,73.3c0,0,0.3,0.1,0.6,0.2c0.3,0.1,0.7,0,0.7,0C68.7,73.4,67.9,73.5,67.5,73.3z M65.2,68.2c0,0.4,0,1.5,0,1.4
						C65.1,69.5,65.1,68.5,65.2,68.2z M65.7,46l0,0.6l-0.2-0.3L65.7,46z M65.7,53.4l-0.1-0.2l0-0.4L65.7,53.4z M65.8,60.3
						c0,0-0.1,0-0.1,0c0,0.1,0,0.2-0.1,0.2c0-0.1,0-0.2,0.1-0.2c0-0.3,0-0.7,0-0.9c-0.1,0.1-0.1,0.5-0.1,0.7c-0.2-0.6,0.4-2-0.2-1.6
						c0.1-0.3,0.2-1.2,0.3-0.9C65.6,58.4,65.7,59.8,65.8,60.3c0,0,0.1,0.1,0.1,0.2C65.8,60.5,65.8,60.4,65.8,60.3z M65.8,69.6
						c0,0.3,0,0.4-0.1,0.4c0,0.2-0.1,0.4-0.2,0.3c0.1-0.6,0.1-0.2,0.2-0.3C65.8,69.9,65.8,69.7,65.8,69.6z M66.1,71.1
						c0,0-0.2-0.8-0.2-0.8c0,0,0,0.4,0,0.4c0,0,0-0.1,0-0.2c0-0.1,0-0.3,0-0.4c0.1-0.3,0.1-0.6,0.1-0.6c0,0.2,0,0.4,0,0.6
						c0,0.2,0,0.3,0,0.4C66.1,70.8,66.2,71.1,66.1,71.1z M66.4,71.3l0,0.2C66.3,71.5,66.3,71.3,66.4,71.3L66.4,71.3L66.4,71.3
						c0,0,0.2,0.2,0.4,0.5c0.2,0.3,0.5,0.4,0.5,0.4s-0.3-0.2-0.5-0.4C66.5,71.6,66.4,71.3,66.4,71.3z M69.6,61.8
						c-0.5-0.5-0.3,1.3-0.5,1.6c0.2,0.1,0.5,0.6,0.4-0.8c0.2,1.2-0.3,0.8,0.2,1.5c-0.1-0.6,0-1.3,0-1.4l0.1,0.7
						C70,62.9,69.5,62.3,69.6,61.8z M69.1,54.4l0-0.9L69.1,54.4L69.1,54.4z M76.4,40.7c0-0.1,0.2-0.2,0.5-0.3
						c0.3-0.1,0.5-0.3,0.7-0.2C77.2,40.5,76.5,40.6,76.4,40.7z M73,36.7l1,0c-0.2,0.3-0.9,0-1.4,0.1C72.5,36.8,72.9,36.8,73,36.7z
						 M66.4,37.1l-0.3,0l0.4,0.2L66.4,37.1z M66.9,37.4c-0.2,0.1,0.5,0.1,0.7,0.1L66.9,37.4z M61,38l0.4,0L61,37.7L61,38z
						 M61.7,37.7c0.1,0.2,0.1,0.4,1,0.2c0-0.2-0.2-0.2,0.1-0.4c-0.3,0-0.6,0.1-0.7,0.1c0.2,0,0.5-0.1,0.5,0
						C62.3,37.7,61.9,37.7,61.7,37.7c0-0.1-0.1-0.1-0.2-0.1C61.4,37.6,61.5,37.7,61.7,37.7z M65.2,37.3c0.1,0,0.2-0.1,0.3-0.1l0.1,0
						C65.4,37.3,65.3,37.3,65.2,37.3c-0.1,0-0.3,0.1-0.5,0.1c-0.1,0.2,0.6,0.2,0.8,0.3c-0.3,0-0.6-0.2-1,0c0.1,0,0,0.1,0.3,0.1
						l-0.6,0.1c-0.7-0.2,0-0.3,0.6-0.4c0,0,0.1-0.1,0.2-0.1C65,37.2,65.1,37.3,65.2,37.3z M60.5,37.2l0.3,0c0.2,0,0.1,0.1,0.1,0.2
						C60.6,37.4,60.1,37.4,60.5,37.2z M78.5,38.9c-0.1-0.2-0.1,0.3-0.2,0.8c0,0-0.1-0.3-0.2-0.3c0.1,0,0.1-0.2,0.1-0.4
						c0-0.2-0.1-0.5-0.1-0.5C78.2,38.1,78.3,38.5,78.5,38.9z M69.1,51.3c-0.3,0.2,0,1.4-0.1,1.7C68.9,52.3,68.8,50.9,69.1,51.3z
						 M69.3,53.4c0,0.3,0,0.4-0.1,0.4c0,0.2,0,0.4,0,0.6C69.1,53.7,69.3,53.7,69.3,53.4c0-0.1,0-0.2,0-0.3
						C69.3,53.2,69.3,53.3,69.3,53.4z M68.6,40.8c-0.1-0.1,0.5,0.2,0.4,0.1l0.5,0c0,0-0.2-0.1-0.5-0.1
						C68.9,40.8,68.8,40.7,68.6,40.8C68.6,40.7,68.6,40.7,68.6,40.8C68.6,40.8,68.6,40.8,68.6,40.8z M75.6,41.4
						c0-0.1,0.2-0.1,0.4-0.1c0.1,0,0.2,0,0.3,0c0.1,0,0.2,0,0.3,0c-0.1-0.1-0.7-0.2-1.1-0.2c-0.1,0-0.1,0-0.3,0c0.1,0,0.2,0,0.3,0
						C75.6,41.3,75.5,41.3,75.6,41.4l-0.3,0l0.6,0.1L75.6,41.4z M70.4,36c-0.5,0.1-0.5,0.1-0.8,0.1C69.6,36,70,35.9,70.4,36z
						 M71.6,41.3c0.8,0-0.4-0.3,0.2-0.3l-0.4,0c0.7-0.1,0.5,0.2,0.9,0.2l-0.3,0c-0.3,0.1,0.5,0.1,0.5,0.2
						C72.2,41.5,71.3,41.4,71.6,41.3z M69.6,35.9c-0.8,0.2-0.7-0.1-1.1-0.1C69.1,35.6,69,35.9,69.6,35.9z M76.9,42L76.9,42
						c-0.1,0.1,0.8-0.1,0.9-0.1l0.1-0.1c0,0-0.2,0.1-0.5,0.1C77.1,42,76.9,42,76.9,42z"/>
					<path class="st11" d="M68.7,37.5c-0.2,0-0.3,0-0.4,0C68.4,37.5,68.6,37.5,68.7,37.5z"/>
					<path class="st11" d="M68.4,55.4c0,0,0.1,0.1,0.1,0.2C68.5,55.5,68.4,55.5,68.4,55.4z"/>
					<polygon class="st11" points="68.4,56.9 68.4,57 68.4,57 					"/>
					<path class="st11" d="M63.3,39.7c-0.3-0.2,0.3,0,0.6,0C63.6,39.7,63.5,39.8,63.3,39.7z"/>
					<path class="st11" d="M65.4,40.1C65.2,40.1,65,40,64.7,40C64.9,40,65.1,40,65.4,40.1z"/>
					<path class="st11" d="M63.6,40c0.4,0,0.7,0,1.1,0C64.4,40,64.2,40,63.6,40z"/>
					<path class="st11" d="M66,45.2c0.1-0.3,0.1-1,0.1-1c0.1,1.4,0.2-0.3,0.3-0.4C66.3,44.7,66.2,44.7,66,45.2z"/>
					<path class="st11" d="M65.9,47c0-0.1,0-0.3,0-0.4C65.9,46.8,65.9,46.9,65.9,47z"/>
					<path class="st11" d="M66,47.5c0,0.5-0.2,0.6-0.3,0.9c-0.1-0.6,0.1-0.9,0.2-1.4C65.9,47.4,65.9,47.7,66,47.5z"/>
					<path class="st11" d="M66.6,62.2c0-0.1,0-0.4,0.1-0.4l0,0.8C66.7,62.9,66.6,62.3,66.6,62.2z"/>
					<path class="st11" d="M66.2,65.1c0,0.6,0.2,0.3,0.1,0.6l-0.2,0L66.2,65.1z"/>
					<path class="st11" d="M65,64.8l0-0.2C65,64.6,65,64.7,65,64.8L65,64.8z"/>
					<path class="st11" d="M66.5,68.2l0.3-0.4C66.7,68.3,66.4,68.3,66.5,68.2z"/>
					<path class="st11" d="M66.6,70.4c0,0,0.1-0.2,0.1-0.2C66.7,70.2,66.7,70.2,66.6,70.4C66.7,70.3,66.7,70.3,66.6,70.4
						c0.1,0,0.1,0.1,0.1,0.1c0,0.2,0.1,0.4,0.1,0.4C66.8,70.9,66.6,70.4,66.6,70.4z"/>
					<path class="st11" d="M68,72L68,72c0.1,0,0.6,0.1,0.6,0.1C68.6,72.1,68,72,68,72z"/>
					<path class="st11" d="M67.9,42.7c0.2-0.1,0.2,1.1,0.3,1.5C67.9,44,68.3,43.2,67.9,42.7z"/>
					<path class="st11" d="M69.8,37.3l1.2,0C70.1,37.4,70.8,37.3,69.8,37.3z"/>
				</g>
			</g>
		</g>
	</g>
</g>
</svg>
