<?xml version="1.0" encoding="utf-8"?>
<!-- Generator: Adobe Illustrator 21.0.0, SVG Export Plug-In . SVG Version: 6.00 Build 0)  -->
<svg version="1.1" id="Layer_1" xmlns="http://www.w3.org/2000/svg" xmlns:xlink="http://www.w3.org/1999/xlink" x="0px" y="0px"
	 viewBox="0 0 120 120" style="enable-background:new 0 0 120 120;" xml:space="preserve">
<style type="text/css">
	.st0{fill:#3D8ECD;}
	.st1{fill:#FFFFFF;}
	.st2{fill:#F15922;}
	.st3{fill:#FBB034;}
	.st4{fill:#F36C3B;}
	.st5{fill:#EC6D3E;}
	.st6{fill:#EA5A26;}
	.st7{fill:#3E8ECC;}
	.st8{fill:#FBB94B;}
	.st9{fill:none;stroke:#FBB034;stroke-width:0.8747;stroke-miterlimit:10;}
	.st10{fill:#3EBEB8;stroke:#3EBEB8;stroke-width:0.224;stroke-miterlimit:10;}
	.st11{fill:#3EBEB8;}
</style>
<g>
	<path class="st0" d="M106.9,11.7l0.1,0.7C107.1,12.3,107,12.1,106.9,11.7z"/>
	<path class="st0" d="M107,11C107,11,107,11,107,11C107,11,107,11,107,11z"/>
	<path class="st0" d="M58,22.8c0.2-0.2,0.4-0.3,0.4-0.4C58.2,22.6,58,22.7,58,22.8z"/>
	<path class="st0" d="M35.2,57C35.2,57,35.2,56.9,35.2,57C35.1,57,35.1,57,35.2,57z"/>
	<path class="st0" d="M108,19.5c0-0.1,0-0.2,0-0.3C108,19.2,108,19.5,108,19.5z"/>
	<path class="st0" d="M67.2,16.8C67.2,16.8,67.2,16.7,67.2,16.8C67.2,16.7,67.2,16.8,67.2,16.8z"/>
	<path class="st0" d="M103.8,43.7c0,0.1,0,0.2-0.1,0.3C103.8,43.9,103.8,43.8,103.8,43.7z"/>
	<path class="st0" d="M27.6,62.4c0,0.1-0.1,0.2-0.1,0.3C27.6,62.5,27.6,62.4,27.6,62.4z"/>
	<path class="st0" d="M28,62.8c0.7-2-0.5,0.3-0.5-0.1c-0.2,0.5-0.7,1.6-0.4,1.2c-0.8,0.9-1.2,3.1-1.9,4.1c0,0.1,0.4-0.5,0.1,0.3
		c-0.5,1.1-0.6,1-0.8,1.4c-0.1,0.4-0.7,2.1-0.7,2c-0.2,0.8,0.7-0.7,0.4,0.4c-0.1,0.8-0.7,1.7-0.9,2.6c-0.6,1,0.3-1.1,0.4-1.5
		c0,0-0.3,0.7-0.5,1.5c-0.3,0.7-0.5,1.5-0.5,1.5c-0.4,0.8-0.1-0.5,0.3-1.3c-0.6,1.1-1,2.7-1,3.1c-0.1,0.4-0.2,0.7-0.3,1
		c-0.1,0.2-0.1,0.4-0.2,0.7c-0.1,0.2-0.2,0.5-0.2,0.8c0.1-0.6,0-0.9,0.1-1.3c0-0.3,0-0.3,0-0.5c0-0.2,0.1-0.4,0.1-0.7
		c0.7-1.8,0,0.7,0.6-0.8l-0.1-0.2c0.4-0.6,0.4-1.2,0.7-1.9c0.2-0.4,0,0.1,0,0.4c0.5-1.3,1-2.2,1.1-3.2c-0.9,1.6-1.6,4.2-2.1,4.9
		c0,0-0.1,0.2-0.1,0.6c-0.1,0.4-0.2,0.8-0.3,1.3c-0.2,0.8-0.4,1.6-0.4,2.2c0,0.6,0,0.9,0,0.9c0,0,0.1-0.6,0.2-0.9
		c0.1-0.3,0.2-0.4,0.2,0.4c0,0.1-0.1,0.2-0.1,0.3c0,0.1-0.1,0.1,0,0.2c0,0.1,0.1,0.1,0.1,0.2c0.2,0.2,0.4,0.5,0.6,0.8
		c0.3,0.3,0.7,0.6,1.1,0.9c0.3,0.2,0.5,0.4,0.8,0.6c-0.3-0.5,1.9,1.1,1.5,0.5c-0.6-0.3-0.7-0.6-0.8-0.7c1.1,0.7,0.3-0.1,0.9,0.3
		c1.9,1.4-0.2,0.1,1.7,1.5c-0.5-0.2-1.7-0.7-2.8-1.4c0,0.1,1.1,0.7,1.5,1.2c-0.6-0.6,0.6,0.1,0.1-0.3c1.6,1,3.6,2.1,5.5,3.4
		c-0.5,0.1-3.4-2-3-1.2c1,0.6,1.1,0.4,1.8,1c0.5,0.6,2.2,1.6,3.4,2.5l-0.5-0.5c0.5,0.3,1.4,0.9,1.9,1.4L34.7,92l0.6,0.3
		c0.1,0.1,0.1,0.1,0.1,0.1c0.2,0.1,0.4,0.2,0.7,0.4l-0.3-2.7c0,0,0,0.1-0.1,0.1l-1.1,1.4l1.2,1.2c0.6,0.6,1.5,1.5,2.3,2.2
		c0.1-0.1-1-1-1.5-1.5c-0.1-0.2-1-1.1-0.4-0.8c1.3,1.2,2.3,2,3.7,3.4l-0.4-0.5c0.5,0.4,1.1,1,1.8,1.7c1.1,1.3-1.1-0.7-0.4,0.1
		C40.1,97,39.4,96,39.1,96l0.6,1c0.8,0.5,1.3,1.4,1.8,1.8l-0.4-0.6c0.2,0,0.6,0.5,0.8,0.8l-0.1-0.5c-0.7-0.7-1.3-1-1.7-1.7
		c1.3,1.2,1.2,0.7,2.7,2.2c0,0.2-0.3-0.3-0.5-0.4c0.5,0.6,1.2,0.9,1.9,1.8c-0.5-0.4-1.4-1.1-0.9-0.4l0.6,0.3
		c0.4,0.4,0.1,0.3,0.3,0.5c0.5,0.6,0-0.3,0.9,0.6c0.1,0.2,0.3,0.5,0.2,0.4c1,1,0.5,0.4,1.5,1.3c-0.8-0.8-0.6-1.1,0.3-0.3
		c0.3,0.3,0.6,0.6,0.9,0.8c0.3,0.3,0.6,0.6,0.9,0.9c0.3,0.4,0.7,0.6,1,0.9l0.2,0.2c0.1,0,0.2,0,0.3,0c0.2,0,0.4-0.1,0.6-0.1
		c0,0,0.3-0.1,0.5-0.3c0.2-0.2,0.5-0.3,0.5-0.3c-0.3,0.2,0.1,0.1,0.6-0.2c0.4-0.2,0.8-0.5,1.1-0.6c0.1,0.1-0.4,0.4-1.1,0.7
		c-0.9,0.5-1.9,0.9-1.9,1c0.8-0.2,1.1-0.3,1.1-0.3c0,0.1-0.4,0.3-0.6,0.4c1.9-0.8,0.7-0.6,1.4-1.1c0.2,0,2-1,1.4-0.5
		c0.9-0.5,1-0.8,1.7-1.2c-0.1,0.1-0.1,0.3,0,0.4c0-0.1,1-0.5,1.1-0.6c-0.2,0.1,0.2-0.4-0.5,0.2c0.1-0.3,1.8-1.1,1.7-1.2
		c0.2,0.1,1.7-1,2.5-1.5c-0.3-0.4-1.4,1.1-1.9,0.9c1-0.8,3.6-2.3,5.2-3.7c1.5-0.9,0.1,0.2,0.5,0.1c-1.3,1-1.7,1.1-2.9,1.9
		c1.4-0.8,3.5-2.2,4.3-3c1.4-1,1.9-0.7,3.5-2c-0.3,0-0.3,0-0.9,0.3c0.4-0.4,1-0.7,1.4-1.1c0.2-0.3-0.8,0.5-0.2-0.1
		c0.3-0.2,0.8-0.6,0.8-0.4l-0.1,0.1c1.5-1.3,1.4-0.6,2.5-1.9c-0.2,0-0.4,0.3-0.7,0.5c-0.3,0.1,0.4-0.7,1-1.2c0,0.2,0.6-0.4,1-0.7
		c0.4-0.1-1,0.9-1.2,1.2c0,0,0.3-0.2,0.6-0.5c0.3-0.2,0.6-0.5,0.6-0.5L73.6,91l1.2-1.2c-0.8,0.8-0.6,0.2-0.2-0.2
		c0.9-0.7,1.8-1.4,1.8-1.2c0-0.2,1-1.2,1.8-1.9c-0.9,0.7-0.2,0,0-0.3c0,0,0.3-0.2,0.7-0.5c0.3-0.2,0.7-0.5,0.7-0.5
		c-1.2,1.2,0.4-0.1,0.2,0.3c-0.2,0.5-1.1,1.1-1.8,1.7c1.6-0.9,1.7-1.9,3-2.8c0.1,0.1,0,0.2-0.5,0.7c0.2-0.1,0.9-1.1,1.7-1.8
		c-0.2,0.1-0.8,0.4-0.1-0.4l1.1-0.8c1.2-1.1,0.2-0.6,1.1-1.6l-0.7,0.5c-0.1-0.2,1.3-1.3,1.1-1.5c-0.6,0.6-0.8,1-1.4,1.6
		c-0.4,0.1,0.7-0.9,0.9-1.3c1.3-1.2,1-1,2.1-1.8c0.3,0.2-1.2,1.9-0.7,2c0.6-0.7,1.3-1.5,1.9-2.2c0.7-0.7,1.2-1.5,1.7-1.8
		c0.9-1.3,0.6-1.3,0.3-1.3c0.4-0.5,0.6-0.7,0.9-1c0,0-0.1,0.2-0.2,0.3c-0.1,0.2-0.2,0.3-0.2,0.3c1.1-1.6,1.7-2.5,3-4.1
		c0.6-1,0.2-0.7-0.1-0.6l0.7-1l-0.1,0.1c0-0.4,0.7-1.2,1.2-1.8c0.1,0.1-0.2,0.5-0.1,0.5c0.5-0.5,1.1-1.5,1.3-2
		c0.1,0.1,0,0.6-0.6,1.3c-0.1,0.1-0.1,0-0.1,0.1l-0.8,1.3c0.9-1.4,1.6-2.2,1.8-2c0.8-1.5-1,1,0.1-0.7c1.9-1.9,2.6-4.3,3.9-5.3
		c0.5-1.1,1-2.6,1.9-4.3c-0.2-0.1,0.5-1.2,0.2-1.1c-1,1.6-1.3,3.2-2.2,4.4c-0.3,0.8-0.1,0.6-0.1,1c-0.4,0.6-0.7,1.2-0.9,1.2
		c0.8-1.5-0.1-0.6,0.9-2.5c-0.2,0.2-1.1,1.7-1.5,2.3c0-0.2-0.2-0.1-0.5,0.3c0.2-0.5,0.7-1.7,0.9-2.3c0,0.2,0.2-0.1,0.2,0.1
		c0,0,0.2-0.5,0.4-1c0.2-0.5,0.4-1,0.4-1c0.4-0.5,0.6-0.6,0.6-0.3c0.3-0.5,0.7-1.3,0.9-1.9c0.3-0.6,0.5-1.1,0.6-1
		c0.6-1.5-0.4,0.4-0.5,0.5l0-0.1c0,0-0.2,0.4-0.3,0.8c-0.2,0.4-0.4,0.7-0.4,0.7c-0.2,0,0.1-0.4,0.3-0.9c0.2-0.5,0.5-1,0.4-1.2
		c-0.4-0.5,1.2-2,1.5-3.2c0,0,0,0.4-0.1,0.7c0,0.4-0.1,0.7-0.1,0.7s0.1-0.3,0.2-0.6c0.1-0.3,0.2-0.6,0.2-0.6
		c-0.1,0.7,0.1,0.8-0.1,1.8c0.2-0.4,0.4-0.8,0.6-1.2c0.2-0.4,0.4-0.9,0.6-1.3c0.4-0.9,0.7-1.6,0.8-2.1c0.3-0.3,0.5-0.5,0.6-0.2
		c0.3-1.6,0.9-2.4,1.4-3.8c0.3-1.5-0.7,1.4-0.5,0.3c0.3-0.4,0.4-1.2,0.5-1.6c0,0.5-0.7,2-1.1,3c0.3-0.8,0-0.8,0-1l-0.5,1.3
		c-0.2-0.2,0.5-1.6,0.6-2.3c0.1,0.5,0.2,0.2,0.3,0.7c0.3-1.1,0.7-2.9,1.1-3.8c0.2-0.6,0,0.5,0,0.8c0.2-0.2,0.2-1.2,0.5-1.3
		c0.1,0.2-0.2,0.7-0.2,1.1c0,0,0.2-0.8,0.5-1.7c0.2-0.9,0.4-1.7,0.4-1.7c0.1,0-0.1,0.9-0.2,1.4c0.3-1,0.4-1.8,0.4-3.1
		c0.3-1.2,0.7-2.5,0.7-2.1c0-0.6-0.1-0.2-0.2-0.2c0.3-1.6,0-1.8,0.1-2.8l-0.3,0.7c0.4-1.5-0.2-0.4,0-1.7c0.2,0.2,0.4,0.2,0.6,0
		c-0.2-0.2,0.1-1.1,0.1-1.7c-0.2,0.4-0.1-1.3-0.3-0.3c-0.1-1.4,0.3-2,0-3c-0.1,0.6-0.2-1.2-0.3-0.6c0-1.3,0.2-2.2,0.4-1.9
		c0,0.5-0.1,1.2,0.1,1.1c0,0,0-0.6,0-1.2c0-0.6,0-1.2,0-1.2c0.1-0.6,0.1-1.4,0.3-1.5c-0.3-0.8,0-2.3-0.3-2.9
		c0.3,0.8,0.1,1.5,0.1,1.8l-0.1-0.4c0,0.1,0,0.1,0,0.2c0,0-0.1-0.3-0.2-0.5c-0.1-0.3-0.2-0.5-0.2-0.5c0,1,0.3,0.2,0.3,1.6
		c-0.1,0.6-0.3-0.1-0.5-0.7c-0.2-0.7-0.3-1.3-0.4-0.7c0,1,0.3,0.8,0.5,1.7l0-0.2c0,0,0.1,0.5,0.1,1c0.1,0.5,0.1,1,0.1,1
		c-0.1,0.1-0.2-0.5-0.2-0.5c0,1.2,0,1.9-0.1,2.6c-0.1,0.7-0.1,1.4-0.2,2.7c0-0.2,0.4-0.7,0.4,0.5c0,0.8-0.2,0.9-0.3,1.6
		c0-0.4-0.2-0.8,0-1.3l-0.3,0c-0.2-1.9-0.5-0.9-0.5-3.5c-0.2-0.1-0.3-2-0.3-3.3l-0.1,0.7c-0.4-1.4,0.2-0.3-0.1-2.1
		c0.3-0.8,0.5-2.2,0.9-1.2c0-1.3-0.3-1.7-0.4-2.9c0.2-0.8,0.3,0.3,0.6,0.1c-0.1-0.9-0.5-1.9-0.5-1.3c0,0,0-0.4-0.1-0.8
		c-0.1-0.4-0.1-0.8-0.1-0.8c0-0.1,0.2,0.5,0.2,0.7c-0.1-0.6-0.5-1.8-0.7-2.1c0,0.1,0.2,0.5,0.2,0.7c-0.2-0.7-0.7-1.8-0.8-1.8
		c0.4,0.8,0.2,1,0.6,2c-0.1-0.1-0.3-0.2-0.4-0.7c0.1,0.9,0.3,1.7,0.2,2.1c0-0.7-0.3-1.1-0.4-1.3c0.1,0.6,0.4,1.9,0.5,2.3
		c-0.3,0.1,0.4,2.5,0,1.7c0.1,0.1,0.3,1,0.2,1.5c-0.1,0-0.3-1.3-0.6-1.8c-0.5-2.4,0.2,0,0.2-0.6c0,0-0.1-0.5-0.2-0.9
		c-0.1-0.5-0.2-0.9-0.2-0.9c0,0.2-0.4-0.7-0.1,0.5c-0.3-0.5-0.7-1.6-0.8-2.6c-0.1-0.2,0,0.5,0.1,0.7c-0.1-0.2-0.7-1.2-0.4,0.2
		c-0.1-0.4,0.3,0.7,0.2-0.1c0.2,0.6,0.4,2.2,0.1,1.6c0.2,0.7,0.5,2.1,0.6,2.7c-0.1,0.2-0.1-0.5-0.2-0.8c0,0,0.1,0.5,0.2,1.1
		c0.1,0.5,0.2,1.1,0.2,1.1L107,16c0,0.8,0.1,1.4,0.3,2c0.1,0.6,0.3,1.2,0.4,1.8c-0.3-0.2-0.3-1.2-0.5-2c-0.2,0.8,0.2,0.5,0.2,1.8
		c0,0.2-0.1,0.2-0.2,0.1c0,0,0.1,0.3,0.1,0.5c0.1,0.3,0.1,0.5,0.1,0.5c0,0.3-0.1,0.1-0.1,0c0.3,1.8,0.4-0.1,0.5,2.4
		c0.1-1.5-0.2-1.3-0.2-2.5c0.2-0.7,0.3,1.4,0.4,1.8c0,1.2-0.4,1.3-0.3,2.9c-0.1-1.1-0.2-0.1-0.2-1.6c-0.1-0.8-0.1,0.4-0.3,0.6
		c0,0.4,0.3-0.3,0.2,0.8l0,0c0,0,0.1,0.5,0.1,0.9c0,0.5,0.1,0.9,0.1,0.9c-0.2,1.7-0.1,3.9-0.5,5l0.3-0.2c-0.1,1.1-0.4,2.6-0.5,3.3
		c-0.1-0.2,0-0.9,0.1-1.7c-0.3,1.9-0.6,3.6-0.6,4.9c0.4-0.9,0.4-1,0.7-1.9c0.1,1.3-0.5,1.4-0.7,3c-0.3,0-0.1-0.5-0.4-0.2
		c0,0.7-0.3,1.8-0.4,2.5c-0.3,0.3-0.3-0.4,0.1-2c0.5-1.2,0.4-2.6,0.9-3.6l-0.3,0.6c0.2-1.2,0.4-2,0.4-3l0,0l-0.2-0.6l-0.1,0.6
		c-0.1-0.4-0.1-1.6-0.1-2c-0.2,1.8,0.1,1.9,0.2,2.8c-0.3,1.6-0.9,2.1-0.9,3.2c-0.1,0.1-0.4,0.9-0.4,0.2c0.1-0.9,0.4-1.5,0.3-1.6
		c-0.2,0.9-0.2,0.5-0.5,1.9c0.2,0.3,0.1,1.4,0,2.4c-0.2,1.1-0.5,2.4-0.9,3.2c0.3-1,0.4-2.1,0.2-1.9c0.1,0.7-0.8,1.9-0.4,1.7
		c-0.4,1.2-1,3.2-1.4,3.2c0.3-1.1,0.8-2.2,1.1-3.1c-0.1,0.3-0.2,0.5-0.2,0.3l0.5-1.4c-0.5,1-0.5,0.8-0.9,2.1c0-0.1,0.1-0.2,0.1-0.1
		c-0.1,0.3-0.2,0.8-0.4,1.1l-0.2,0c-0.2,1-1.3,2.8-1.8,4.7l0-0.2c-0.7,1.4-0.3,1.7-1,3.2c0.1-0.5-0.1-0.3-0.2-0.3
		c-0.2,0.8-0.6,1.1-1.1,1.8c0.6-0.8-0.1,0.7,0.3,0.1c0.2,0.1-0.6,1.6-1,2.4c-0.5,0.3,1.1-2.5,0.2-1.5c-0.4,0.8-0.4,1,0,0.5
		c-0.5,1-1.4,2.4-2,3c-0.5,1.3-0.8,1.7-1,2.5c0.4-0.6,0.2-0.8,0.8-1.5l-0.3,1c-0.7,1.1-1.4,1.8-1.9,2.6l0.4-0.8l0,0.1
		c0.1-0.4,0.8-1.3,0.6-1.3c-0.3,0.8-0.8,1.3-1.3,2.3l0-0.1c-0.9,1.7-2.3,2.5-2.6,3.8c0.2-0.3,0.8-0.8,0.7-0.5
		c-0.4,0.3-1,1.3-1.1,1.2l0.2-0.3c-0.7,0.9-1.2,1.4-1.4,1.7c-0.1,0.3,0.2,0.2-0.2,0.9c-1.3,1.5,0.2-0.9-0.7,0.1c0,0-0.3,0.4-0.5,0.8
		c-0.3,0.4-0.5,0.7-0.5,0.7l-0.4,0.2c-1.9,2-2.9,3.8-4.9,5.9c-0.2-0.1,1.2-1.7,1.6-2.3C82.6,77.1,82,78.3,81,79
		c-0.8,0.8-1.2,1.5-1,1.5c-0.9,1-0.8,0.6-1,0.7c-0.1,0.5-1.5,1.6-2.2,2.4l-0.1-0.1l-1.2,1.3c0.3-0.3,0.1,0.1,0.2,0.2l-0.3,0.3
		c1.6-0.8,2.6-2.8,4.2-3.7c-0.3,0.4,0.2,0-0.1,0.4c-0.3,0.3-0.4,0.3-0.5,0.3c-0.1,0.3-0.6,0.8,0.1,0.2c0.2,0.3-1.2,1.5-2.1,2.5
		c-0.9,0.5,0.6-0.9,0.9-1.4c-0.3,0.4-0.5,0.7-1.1,1.2l0-0.3c-1.2,1.3-0.2,0.5-0.4,0.9c-0.2,0.6-1.2,1.1-1.6,1.4l0.4-0.4
		c-1.1,0.8-1.2,1.2-2.2,2l-0.6,0.2c1.4-0.8,1.3-1.5,2-2c-1.9,1.3,0.1-0.7,0.4-1.3c-0.7,0.7-1.4,1.2-1.9,1.5c-0.4,0.6-1,1-1.6,1.5
		c-0.6,0.4-1.2,0.9-1.6,1.5c-0.6,0.4,0.4-0.5-0.2-0.1c-1.2,0.9-2.4,1.8-3.6,2.9c-0.7,0.5-0.6,0.3-0.9,0.3c-3.3,2.1-4.3,3.4-7.9,5.6
		l0.5-0.4c-0.8,0.5-1.4,0.8-1.7,1.2c-1.2,0.2-3.1,2.2-4.6,2.4c-0.1,0.1-0.3,0.1-0.4,0.2c0,0,0,0-0.1,0.1c0,0-0.1,0.1-0.1,0.2
		c-0.1,0.2-0.2,0.1-0.3,0.1c0.1-0.1,0.2-0.2,0.1-0.3c-0.9-0.8-1.7-1.6-2.5-2.4c-0.9-0.8-1.7-1.6-2.6-2.5c-1.7-1.7-3.5-3.4-5.4-5.3
		c0.1,0,0.3,0.2,0.4,0.3c-0.7-0.7-1.3-1.3-2-2l0.1,2.6l0.1-0.1l1.3-1.7l-1.7-1.1c-2.1-1.3-4.1-2.6-5.8-3.9c-0.5-0.3-1.9-1.1-1.5-0.7
		c0.5,0.4,0.5,0.6,0.4,0.7c-2.2-1.3-0.9-1-2.3-1.9c-0.3-0.6,1,0.5,1.2,0.2L28,82.9c-0.5-0.4-1.1-0.8-1.7-1.2
		c-0.3-0.2-0.6-0.4-0.8-0.6L25.2,81c-0.1,0-0.1-0.1-0.1-0.1c0,0-0.1-0.1-0.1-0.1c0.1,0.1,0.1,0,0.2,0c0,0,0,0,0.1,0
		c0.1,0.1,0.2,0.1,0.4,0.3c-0.1-0.1-0.1,0-0.2-0.1c1.7,1.2,1,0.5,2.6,1.5c-0.7-0.4-1.5-1-2.3-1.5c-0.2-0.2-0.5-0.3-0.7-0.5
		c0,0-0.1-0.1-0.1-0.1l-0.1,0c0,0,0-0.1,0-0.1c-0.3,0.2,0-0.3-0.1-0.5l0-0.1c-0.1,0,0.1-0.9,0.2-1.1l0.4-0.2c0.2-0.6-0.2,0.1,0-0.5
		c0.2-0.9,1.4-3.8,1.7-3.9c0.4-1,0.4-1.4,0.8-2.4c0,0.1,0,0.4,0,0.4c1-2.2,2.1-4.9,3.2-6.9c0.7-1.7,1.4-3.1,1.7-4.2
		c-0.2,0.5-0.9,1.7-0.6,0.8c0.1-0.5,0.5-1.2,0.8-1.9c0,0.2,1-1.6,0.4-0.3c0.5-0.2,1.5-2.9,1.8-2.8c0.1-0.4,1.2-2.2,1.5-3
		c0.2-0.1-0.5,1.1-0.4,1.1l0.5-0.9l0.1,0c1-1.6,0.9-2.1,1.4-3.1l0,0.1l0.4-0.7l-0.3,0.9c0.6-1,0.8-1.7,1.5-2.8l0.1-0.1l0.4-0.7
		c-0.1,0.1-0.1,0.2,0,0.1c0.2-0.8,1.3-2.2,1.6-2.9c0.3-0.4,0.9-0.6,1.1-1.3l0.2,0.3c-1,1.5-0.6,0.4-1.6,2c0.3-0.2,0.6-0.6,1-1.1
		c0.4-0.5,0.8-1,1.3-1.6c0.9-1.2,1.9-2.4,2.7-3.5c0.6-0.9,1.5-1.9,2.3-2.8c0.8-0.9,1.5-1.8,1.7-2.2l0,0.3l2.5-2.5
		c1.1-1.1,2.1-2.1,3.2-3.1c1.1-0.9,2.1-1.8,2.8-2.7l0.6-0.3c1.5-1.9,6.3-5,7.3-6.2c1.2-0.6-0.2,0.4-0.3,0.6c0.9-0.5,2.1-1.7,3-1.9
		c0,0.1-1.1,0.8-0.6,0.5c0.7-0.2,0.8-0.6,1.6-0.9c-0.4,0,1-1,2-1.6c-0.2,0.1-0.2,0.1-0.3,0.1c-0.2,0,0.6-0.5,1-0.7
		c0,0,0,0.1-0.1,0.1c5.5-2.9,12.3-5.5,18.9-6.5L91,10.6c0.9-0.3,2.6-0.5,3.1-0.6l-0.1,0c1.8,0,1.9-0.6,3.3-0.4L97,9.8
		c1-0.1,1.9-0.1,2.7-0.1c0.8,0,1.7,0,2.7-0.1c1.6,0.1,1.4,0.2,2.5,0.4c0.9,0,1.4-0.1,1.4-0.2l-0.4,0c-0.4-0.2,0.7-0.1,1.4-0.1
		l-0.6-1.5c-0.1,0.1-0.1,0.1-0.1,0.2c0.1,0,0.2-0.1,0.3-0.1l0.5,1.1c-0.2-0.3-0.3-0.6-1.8-0.9c-1.4,0.1-1.4-0.4-3-0.4
		c-0.9,0.4-2.3-0.2-3.7,0.3c0.8-0.3-1.7,0-0.5-0.4c-0.6-0.1-3.1,0.5-4.2,0.5c0.2-0.1,0.1-0.1,0.4-0.2c-1.6,0.4-1.1,0-2.3,0.2
		l0.1,0.2c-0.4,0.2-0.6,0-1,0.1c0.3,0,1-0.1,0.7,0.1c-0.5,0.2-1,0.3-1.5,0.4c0-0.1,0.4-0.2,0.6-0.3c0,0-1.3,0.2-1.4,0.1
		c0.4-0.2,1-0.3,1.4-0.5c-1.7,0.3-0.1-0.1-1-0.1c0.3,0.2-1.4,0.5-2.3,0.7c-0.1-0.1,0.6-0.2,0.8-0.3c-1.8-0.1-2.5,0.7-4.7,1.3
		c0,0,0.3-0.2,0.4-0.2c-1,0.4-1.8,0.4-2.4,0.7c-1,0.3-0.3-0.3-1.8,0.3c0.3,0.1-0.2,0.2-0.7,0.4c-0.5,0.2-1,0.4-1,0.6l-1.2,0.3
		c-0.9,0.6,0.5,0.4-1.4,1.2c-1.8,0.7,0-0.6-1.1-0.2l-0.4,0.4L73.4,14l0.1-0.1c-0.5,0.3-1.4,0.7-1.5,0.6c0.1-0.1,0.6-0.4,0.6-0.5
		c-0.8,0.5-3.5,1.3-4.1,2.2c-0.5,0.2-1.5,0.8-1.5,0.6c-0.3,0.4-2.2,1.2-2.7,1.7c0-0.1-0.6,0.2-1,0.5c0.7-0.4,0.3,0,0,0.4
		c-0.6,0.2-2.1,1.4-2.5,1.4c-0.8,0.7-0.3,0.6-0.4,0.9c-0.6,0.3-2.2,1.6-2.1,1.1c0.5-0.3,1.5-1,1.2-1.1c-0.9,0.6-0.3,0.4-1,0.9
		c0-0.1-0.6,0.2-0.5,0.1c-0.4,0.4-1,0.8-1.6,1.2c1-0.6-0.4,0.6,0.2,0.3c0,0,0.2-0.2,0.4-0.4c0.2-0.2,0.4-0.4,0.4-0.4
		c1.1-0.8,0.3,0,0.8-0.3c-1.8,1.5-1.3,1.5-2.9,3c-0.3,0.2-1,0.7-1.1,0.8c0.5-0.5,0.3-0.6-0.1-0.4c-0.8,1-1.7,1.4-2.5,2.1
		c0.7-0.6,0.5-0.1,0.3,0.2c-1.4,1.6-0.7,0.5-1.4,1.1c-1.1,1.2-2.1,2.1-3,3c-0.9,0.9-1.7,1.8-2.5,2.8l1-0.8l0.1-0.5
		c0.8-0.6,0.3,0.5,0,1c-0.2,0.1-1.2,1.3-0.9,0.7c0,0-0.2,0.3-0.5,0.6c-0.2,0.3-0.5,0.6-0.5,0.6c0.2-0.1,0.8-0.9,0.5-0.3
		c-0.4,0.4-1.4,1.6-0.9,0.7c-0.5,0.6-1.1,1.5-0.9,1.5c-0.8,1-0.1-0.3,0.2-0.8c-0.7,0.8-0.8,0.6-0.6,0.3c0,0-0.2,0.3-0.5,0.6
		c-0.2,0.3-0.4,0.6-0.4,0.6c0.1-0.3,0.1-0.4,0.2-0.7c-0.7,0.7-0.9,1.4-1.5,2l-0.1,0.4c-1.7,2.1-1.5,1.9-3,3.9l0.4-0.3
		c-0.8,1.7-1,1-2.3,3.2c-0.7,1.3-1.1,2.1-0.8,2.1c-0.4,0.8-0.6,0.8-0.8,1.1c-0.2,0.6-0.7,1.9-1.3,2.7c0.3-0.6,0.5-1.1,0.8-1.7
		c-0.3,0-1.1,1.9-1.8,2.8c-0.2,0.7-1.2,3-1.5,4.2c0.4-0.5,0.6-0.1,0.2,1c-0.1-0.2-0.9,1.4-1.3,2.1c0-0.4-1.1,1.5-0.4-0.1
		c0.3-0.4,0.6-0.6,0.8-1.2c-0.3,0.3-0.9,1.2-1.5,2.2c0-0.1,0.1-0.7,0.4-1.2C27.9,62.9,28,62.8,28,62.8z"/>
	<path class="st0" d="M108,19.5l0,0.2L108,19.5C108.1,19.6,108,19.6,108,19.5z"/>
	<path class="st0" d="M35.1,92.3c0.1,0,0.2,0.1,0.3,0.1C35.2,92.4,35.1,92.3,35.1,92.3z"/>
	<path class="st0" d="M55.6,103.9C55.5,103.9,55.5,103.9,55.6,103.9C55.5,103.9,55.5,103.9,55.6,103.9z"/>
	<path class="st0" d="M109.6,17.8l0.1,0.4C109.6,18.1,109.6,18,109.6,17.8z"/>
</g>
<g>
	<path class="st0" d="M88.9,45.1c0,0.1,0.3,0.1,0.4,0.1C89.2,45,88.9,45.1,88.9,45.1z"/>
	<polygon class="st0" points="88,43.3 88.2,43.3 87.8,43.1 	"/>
	<path class="st0" d="M87.6,41.6c-0.5,0.3,0.2,0.6,0.1,0.9l-0.1,0.1l0.5,0C88,42.3,87.6,41.9,87.6,41.6z"/>
	<path class="st0" d="M88.5,40.3c-0.2,0.1-0.3-0.1,0,0.2c0,0,0,0,0-0.1C88.5,40.5,88.5,40.4,88.5,40.3z"/>
	<path class="st0" d="M88.6,40.5C88.6,40.7,88.7,40.3,88.6,40.5L88.6,40.5z"/>
	<path class="st0" d="M88.1,39.7l0.3,0.2c0.1-0.1,0-0.3,0.2-0.3C88.3,39.4,88.2,39.5,88.1,39.7z"/>
	<path class="st0" d="M87.6,39.7l0.1,0.1C87.8,39.7,87.8,39.7,87.6,39.7z"/>
	<path class="st0" d="M88,39.9l-0.3-0.2c-0.1,0.1-0.2,0.2,0.1,0.1C87.7,39.9,87.9,39.9,88,39.9z"/>
	<path class="st0" d="M88,40.1c-0.1,0.2-0.1,0.4-0.3,0.2C87.9,40.8,88.3,40.5,88,40.1z"/>
	<path class="st0" d="M87,41.7L86.9,42l0.2,0.1C87,42,87.2,41.7,87,41.7z"/>
	<path class="st0" d="M87.6,38.2c-0.1,0.1-0.2,0.2-0.4,0.3l0.2,0.1C87.5,38.5,87.4,38.3,87.6,38.2z"/>
	<path class="st0" d="M87.2,38.5l-0.3-0.1C87,38.6,87.1,38.6,87.2,38.5z"/>
	<polygon class="st0" points="87,39.9 87.6,40.1 87,39.9 	"/>
	<polygon class="st0" points="87,37.2 87.3,37.2 86.8,37.2 	"/>
	<path class="st0" d="M86.5,36.7c0.3-0.1,0.2-0.4,0.4-0.4c-0.2-0.1-0.4-0.1-0.7-0.1C86.4,36.2,86.5,36.4,86.5,36.7z"/>
	<path class="st0" d="M85.8,36.2c0.1,0,0.2,0,0.4,0C86.1,36.2,86,36.1,85.8,36.2z"/>
	<path class="st0" d="M86.7,38c0-0.1,0.2-0.2,0.2-0.4L86.7,38C86.7,37.9,86.7,37.9,86.7,38z"/>
	<path class="st0" d="M86.6,37.9L86.6,37.9c-0.1-0.1-0.1-0.2-0.1-0.2C86.5,37.7,86.6,37.8,86.6,37.9z"/>
	<path class="st0" d="M86.7,38L86.7,38C86.7,38,86.7,38,86.7,38z"/>
	<path class="st0" d="M87,39.2c-0.3,0-0.6-0.2-0.7,0.2C86.5,39.4,86.6,39.1,87,39.2z"/>
	<path class="st0" d="M86.4,38.3l0.1,0.3c0.1-0.1,0.2-0.2,0.3-0.2L86.4,38.3z"/>
	<polygon class="st0" points="86.3,38.3 86.4,38.3 86.4,38.2 	"/>
	<path class="st0" d="M85.9,36.8c-0.2,0-0.3-0.1-0.4-0.2c0.1,0.2,0.1,0.3,0.3,0.4C85.9,37,86.1,36.9,85.9,36.8z"/>
	<path class="st0" d="M86.3,37.3L86.3,37.3C86.2,37.3,86.2,37.4,86.3,37.3z"/>
	<path class="st0" d="M84.4,35.5C84.4,35.5,84.4,35.6,84.4,35.5L84.4,35.5L84.4,35.5z"/>
	<path class="st0" d="M85.7,37.1c0,0.1,0.1,0.1,0.3,0.1C85.9,37.2,85.8,37.1,85.7,37.1C85.7,37.1,85.7,37.1,85.7,37.1z"/>
	<path class="st0" d="M85.4,36c0,0.1,0,0.2,0,0.3C85.5,36.1,85.5,35.9,85.4,36z"/>
	<path class="st0" d="M86.3,37.2C86.3,37.2,86.3,37.2,86.3,37.2C86.3,37.1,86.3,37.2,86.3,37.2z"/>
	<path class="st0" d="M86.3,37.2c-0.1,0-0.2,0-0.3,0C86.1,37.3,86.2,37.3,86.3,37.2C86.2,37.3,86.3,37.2,86.3,37.2z"/>
	<path class="st0" d="M82.7,37c0.2-0.2,0.6-0.3,0.6,0.1c0.3,0,0.9-0.9,1.1-1.5c-0.1,0.1-0.2,0.2-0.5,0.2c0,0.2,0.2,0.7-0.2,0.8
		c-0.4-0.1-0.1-0.3-0.2-0.5c-0.1,0.4-0.7,0.2-1,0.7l0.4,0C82.8,36.8,82.7,36.9,82.7,37z"/>
	<path class="st0" d="M84.8,36l0.1,0.1c-0.1-0.1,0-0.3,0-0.6c-0.3,0-0.4,0-0.4,0.1L84.8,36L84.8,36z"/>
	<path class="st0" d="M85.3,36.4c-0.3,0.2-0.6,0.1-0.8,0.5c0.2,0.2,0.4,0,0.6,0C84.7,36.5,85.4,36.9,85.3,36.4
		c0.1,0.1,0.2,0.1,0.2,0.2c0-0.1-0.1-0.2-0.1-0.3l0,0l0,0l0,0c0,0,0,0.1,0,0c0,0,0,0,0,0C85.4,36.4,85.3,36.4,85.3,36.4
		c-0.1-0.2,0-0.1,0.1-0.1l0,0l0,0c0,0-0.5-0.3-0.5-0.3C84.9,36.2,85.1,36.2,85.3,36.4z"/>
	<path class="st0" d="M85.5,39.5C85.5,39.5,85.5,39.5,85.5,39.5C85.5,39.5,85.5,39.5,85.5,39.5z"/>
	<path class="st0" d="M85.6,39.3c0.1,0,0.2,0,0.2,0.1c0,0.1-0.1,0.1-0.2,0.2c0.1,0,0.3,0.1,0.4-0.2l-0.1,0c0-0.2,0.2-0.7,0.3-0.7
		C85.9,38.8,85.8,39,85.6,39.3z"/>
	<path class="st0" d="M85.4,37.9c0,0-0.1-0.1-0.2-0.1c-0.1-0.1-0.2-0.1-0.2-0.1L84.9,38l0.1-0.1C85.2,38.1,85.3,38,85.4,37.9z"/>
	<path class="st0" d="M84.5,35.4l0.3-0.2c0,0-0.1,0.1-0.3,0.1c-0.1,0.1-0.3,0.1-0.3,0.1L84.5,35.4z"/>
	<polygon class="st0" points="84,35 84.2,34.8 83.9,34.8 	"/>
	<path class="st0" d="M69,49.6l0.1,0C69.1,49.6,69,49.6,69,49.6z"/>
	<path class="st0" d="M68.7,49L68.5,49C68.6,49,68.7,49,68.7,49z"/>
	<path class="st0" d="M69.7,34.4c-0.3-0.2-0.8-0.4-0.6-0.1l0.3,0.3C69.5,34.4,69.6,34.4,69.7,34.4z"/>
	<path class="st0" d="M66.1,43.1c0,0,0.1,0,0.1,0C66.1,43,66,43,65.9,42.9C66,43,66,43,66.1,43.1z"/>
	<path class="st0" d="M67.5,43.5l-0.3,0.2C67.4,43.6,67.4,43.6,67.5,43.5z"/>
	<path class="st0" d="M71.7,52l0.3-0.2C71.9,51.7,71.8,51.9,71.7,52z"/>
	<path class="st0" d="M78.2,32.7c-0.2-0.2-0.3-0.2-0.4-0.3C78,32.7,78.1,33,78.2,32.7z"/>
	<path class="st0" d="M65.5,51.2c0.1,0,0.2,0,0.2,0C65.7,51.1,65.6,51.1,65.5,51.2z"/>
	<path class="st0" d="M77.3,32.4C77.3,32.5,77.3,32.5,77.3,32.4c0.2,0,0.4,0,0.5,0C77.6,32.3,77.5,32.2,77.3,32.4z"/>
	<path class="st0" d="M83.5,50C83.5,50,83.5,50,83.5,50C83.5,50,83.5,50,83.5,50z"/>
	<path class="st0" d="M88.4,46.8c0,0.1,0,0.1,0,0.2C88.4,47,88.4,46.9,88.4,46.8z"/>
	<path class="st0" d="M81.9,33.6C82.1,33.6,82,33.6,81.9,33.6L81.9,33.6z"/>
	<path class="st0" d="M81.8,35.1c0,0-0.1,0.1-0.1,0.1C81.8,35.2,81.8,35.1,81.8,35.1z"/>
	<path class="st0" d="M76,34.6L76,34.6C76.1,34.7,76,34.7,76,34.6z"/>
	<path class="st0" d="M82,33.8c0-0.1-0.1-0.1-0.1-0.2C81.9,33.7,82,33.7,82,33.8z"/>
	<path class="st0" d="M82.1,33.7C82.1,33.7,82.1,33.7,82.1,33.7C82.2,33.7,82.2,33.6,82.1,33.7z"/>
	<path class="st0" d="M81.7,33.5c0.1,0,0.1,0.1,0.2,0.1c0,0,0-0.1,0-0.1C81.9,33.6,81.8,33.6,81.7,33.5z"/>
	<path class="st0" d="M77.6,54.6C77.6,54.7,77.7,54.7,77.6,54.6C77.7,54.5,77.7,54.5,77.6,54.6z"/>
	<path class="st0" d="M69.9,39.1C69.9,39.1,69.8,39.1,69.9,39.1L69.9,39.1L69.9,39.1z"/>
	<path class="st0" d="M69.8,39.5c-0.2-0.4-0.1-0.4,0-0.4L69,38.5c0,0,0.2,0.3,0.4,0.5C69.6,39.2,69.8,39.5,69.8,39.5z"/>
	<path class="st0" d="M70,50.9l0.1-0.4c0.6-0.1,0.5,0.1,0.8-0.3c-0.4,0.4-0.6,0.2-0.7,0.1c-0.1-0.1-0.3-0.3-0.7,0l0.1-0.3
		c0,0,0.1,0,0.1,0c0.3-0.5-0.8,0.3-0.9-0.1c0-0.2,0.1-0.3,0.3-0.3l-0.4-0.1c0-0.1,0.2-0.2,0.2-0.1c0,0-0.3-0.4-0.3-0.4l0,0
		c-0.2,0-0.5,0-0.6,0c0.1-0.2,0.1,0,0.2-0.1c0,0-0.4-0.1-0.4-0.1c0.2-0.2,0.6-0.1,0.6,0c0.9-0.6-0.4-0.1,0.1-0.8l0.2,0.2
		c0.5-0.4,0.3-0.4,0.6-0.8c-0.2,0.1-0.8,0.8-1.1,0.6c0.1-0.1,0.1-0.2-0.2-0.3c0.4-0.1,0.3-0.2,0.2-0.4l0.5-0.1
		c-0.2-0.1-0.4-0.1-0.7-0.1c0-0.2,0.4-0.3,0.7-0.5c0-0.3-0.6,0.3-0.8,0c0.2-0.3-0.1-0.5-0.4-0.8c0.2-0.2,0.3,0,0.5-0.1l-0.4-0.1
		c0,0,0.1,0,0.2,0c-0.2-0.1-0.5,0-0.7-0.2c-0.3,0-0.1-0.2,0.1-0.3c0.2-0.2,0.4-0.3,0.1-0.5c0.2-0.1,0.3,0.1,0.5,0
		c-0.4-0.4-0.3-0.4-0.8-0.8l0.4-0.2c-0.4,0.2-0.8-0.2-1.2-0.5c-0.2,0-0.4,0.1-0.5,0.1c0,0-0.1-0.1-0.1-0.3c-0.1-0.1-0.1-0.3-0.1-0.3
		c0.1,0,0.3,0,0.5,0.2c0,0-0.1-0.1-0.1-0.1c0.2-0.1,0.5,0,0.8,0.2c-0.1,0-0.2,0.1-0.4,0.1c0.3,0.2,0.6,0.3,0.9,0.4
		c-0.1,0-0.1-0.1-0.1-0.2c0.1,0,0.2,0.1,0.2,0.1c0.1,0-0.1-0.1-0.2-0.2l0.6,0l-0.2-0.1l0.5-0.4c-0.5-0.5-1.2-1.1-1.2-1.8
		c0.3,0.3,0.6,0.3,1.1,0.5c-0.6-0.1,0.1,0.5-0.1,0.7c0.1-0.1,0.3,0,0.4,0c0,0-0.1-0.2-0.1-0.3c-0.1-0.2-0.1-0.3-0.1-0.3
		c0.4,0.2,0.3,0,0.5,0c-0.8-0.2-0.3-0.6-0.5-0.9c0.2,0.1,0.5,0.3,0.3,0.5c0.7,0-0.7-0.8-0.1-0.8c0,0.1-0.1,0.1,0,0.2
		c-0.1-0.3,0.2-0.5,0.4-0.3l0,0.1c0.3-0.3,0.7-1,0.2-1.6c0.1,0.1,0.6,0.6,0.7,0.7c0,0-0.3-0.5-0.6-1c-0.3-0.5-0.6-1.1-0.6-1.1
		c0.4,0.5,1.6,1.3,1.6,1.7c0.1,0,0.3,0,0.3-0.3c-0.1,0-0.7-0.5-0.7-0.6c0.7,0.3,0.4,0.1,1,0.3c-0.2,0-0.7-0.8-0.6-0.9
		c0.1,0.1,0.6,0.7,0.6,0.8c0,0-0.1-0.2-0.2-0.5c-0.1-0.2-0.1-0.5-0.1-0.5c0,0.2,0.5,0.6,0.7,0.8c-0.1-0.1,0.3-0.2,0.3-0.3L71,37.8
		c0.4-0.2-0.4-1.3,0.1-1.6c0,0.2,0.5,1.1,0.7,1.1c-0.2-0.5-0.7-2.2-0.3-2.8l0.2,0.2c0,0,0.2-0.4,0.2-0.4c0,0.8,0.1,2.4,0.2,3
		c0.2,0.1,0.2,0.3,0.4,0.1c0.2,0.2,0.1,0.4,0,0.4l0.6-0.1c-0.3-0.5,0.2-0.7,0-1.1c0,0-0.1,0.2-0.2,0.4c-0.1,0.2-0.2,0.4-0.2,0.4
		c-0.3-0.5-0.3-1.6,0.2-1.7c0.2,0.2,0.3,0.9,0.3,1.1c0-0.2,0.2-0.5,0.3-0.4l-0.1,0.3c0.3,0.1,0.1-0.8,0.6-0.4c0.1,0,0.4,0.6,0.4,0.3
		c-0.3-0.6-0.8-2.4-0.8-2.9c0.1,0,0.8,0.4,0.9,0.7c0.3,0.5,0,1.2,0.2,1.6c0-0.1,0-0.3,0.1-0.4c0.1,0.1,0,0.5,0.2,0.4
		c0-0.6,0.5,0,0-0.5c0.2-0.2,0.3,0.1,0.5,0c-0.1-0.4,0.1-1.2,0.4-1.4c0,0.1,0.1,0.3,0.1,0.4c0.5,0,0.8,0.3,1.2,0.3
		c0,0.1,0.2,0.3,0.1,0.5c0.1-0.1,0.2-0.3,0.3-0.3c0.2,0.5-0.3,0-0.2,0.6c0.1-0.3,0.4-0.4,0.6-0.6c0-0.5-0.5-0.2-0.7,0
		c0.1-0.7,0.5-1.4,1.1-1.6c0.5-0.1,0.1,0.5,0.2,0.4c0.7,0.3,1-1,1.5-0.3c0.1,0.5-0.3,0.8-0.3,1.1c-0.4,0-0.4-0.4-0.6-0.5l0.2,0.3
		c-0.1,0.1-0.4,0.2-0.5,0c0.1,0.4,1.2,0.4,1.6,1c0.1-0.1,0.4-0.2,0.4-0.3l-0.2,0c0-0.4,0.5-0.3,0.4-0.5c0.3-0.1,0.8-0.3,1,0
		l-0.2,0.5c0.1-0.1-0.1-0.4-0.2-0.3c0.3-0.1,0.1,0.9,0.6,0.4l0-0.4c0.4-0.1,1-0.3,1.2,0c0.2-0.5-0.1,0,0-0.6
		c-0.2,0.7-0.8-0.5-0.9,0.3c0.1-0.7-0.2-0.5-0.3-1.2c-0.1,0.2,0,0.3-0.3,0.1c0,0-0.1,0.1-0.1,0.1c0,0,0,0,0,0l0,0c0,0,0,0,0,0
		c0,0.1,0,0.2,0,0.3c-0.3,0.3-0.7,0.1-0.9,0.2c-0.1-0.1,0.1-0.1,0.1-0.3c0,0-0.1,0-0.2,0.1c-0.1,0-0.2,0.1-0.2,0.1
		c0.1-0.3-0.2-0.7,0.3-0.8l-0.4-0.2c-0.1-0.3-0.4-0.5-0.7-0.4c-0.2-0.1-0.6,0.3-0.3,0l-0.6,0.1l0-0.1c-0.3-0.1-0.6,0-0.9,0
		c-0.3,0-0.6,0-0.9-0.4c-0.2,0.1-0.4,0.2-0.7,0.1l-0.1-0.3c-0.3,0.1-0.8-0.3-0.9,0c-0.3-0.9-1.3-0.1-1.8-0.1l0.1,0.4
		c-0.3,0-0.6,0.2-0.9,0.5l0.1,0.3c-0.2,0.4-0.9,0-1.3,0.2c0-0.1,0.1-0.2,0.2-0.1c-0.4-0.3-0.7,0-0.9,0.3c-0.2,0.3-0.4,0.6-0.8,0.5
		c-0.1,0.2-0.2,0.2-0.3,0.2c0,0,0,0,0,0c0,0,0,0-0.1,0c-0.1,0-0.2-0.1-0.3-0.1c0.1,0,0.2,0.1,0.2,0.1c-0.1,0.1-0.2,0.2-0.3,0.3
		l-0.3-0.3c0,0,0,0,0,0c-0.2,0,0,0.2,0.2,0.4c0,0.1,0,0.2,0,0.3c-0.5-0.4-0.2,0.4-0.7,0c0.1,0.2-0.1,0.3-0.1,0.5
		c-0.1,0.2-0.1,0.5,0.1,0.7c-0.1-0.1-0.1-0.1-0.1-0.1c-0.2,0.1-0.4,0.1-0.3,0.4L68,36.5c0,0,0.1,0.2,0.1,0.4
		c0.1,0.2,0.1,0.4,0.1,0.4c-0.4-0.1-0.6-0.1-0.7-0.5c0.1,0.8-0.1,0.5,0,1.2l-0.2-0.2c-0.1,0.1,0.1,0.6-0.2,0.5
		c-0.8-0.1-1.1,1.4-2,2.1c0.9,0.2-0.6,0.3,0.1,0.6c-0.2,0-0.4,0.1-0.5-0.2c0,0.5-0.6,0.6-0.1,1.1c-0.2,0-0.3-0.2-0.4-0.2
		c0,0.1,0.1,0.2,0,0.2c-0.1,0-0.2-0.1-0.2-0.2c-0.1,0.5,0.6,0.7,1.2,0.9c-0.4,0.2-0.3,0.3,0.1,0.6c-0.2,0-0.5,0.2-0.5-0.2
		c-0.1,0.2-0.5,1,0.1,1.1c-0.1,0-0.1,0.2,0,0.3c-0.1,0.4-0.1,0.4-0.1,0.8l0.1-0.1c0.6,0.2,0.1,0.3,0.2,0.6l-0.1,0
		c-0.4,0.7,0.2,0.3-0.2,1l0.4-0.1c0.8-0.1-0.4,0.6,0,1l0.2-0.2c0.3,0.1-1,0.8-1,1.1c-0.1,0.1-0.1,0-0.2-0.1
		c-0.3,0.7,0.5-0.1,0.7,0.3c-0.2,0.2-0.7,0.1-0.7,0.4c-0.1,0.2,1.1,0.5,0.8,1.1c0.2-0.2,0.3-0.3,0.6-0.2c0.2,0.2-0.4,1.1,0.4,1.1
		c0,0.1-0.1,0.1-0.1,0.1c0.3,0.1,0.7,0.5,1,0.4c-0.5,0.5-0.1,0.7,0.2,0.8c0.3,0.2,0.7,0.3,0.2,0.7l0.5,0.5l-0.1,0.1
		c0.3,0.4,0.6,0.3,0.9,0.2c0,0.1-0.1,0.2-0.2,0.2c0.3,0.7,0.5,0.7,1.3,0.5l-0.2,0.4c0.2-0.1,0.5,1.1,1.3,1c0,0-0.1,0.1-0.2,0.1
		c0.5,0,0.7,0.4,1.1,0.7c0.3,0.3,0.7,0.4,1-0.2c0,0,0.6-0.2,0.6-0.2c-0.6-0.3,0.3-0.6,0.1-0.9c0.2,0,0.5,0.6,0.2,0.6l0-0.1
		c-0.3,0.7,0.7,0.5,0.5,1c1.2,0.2,2.4,0.7,3.7,0.6l-0.2-0.6l0.4,0c0.1,0.1,0.2,0.4-0.1,0.5c0.2,0.3,0.5-0.4,0.4-0.5
		c0.6,0.1-0.1,0.7,0.1,0.7l0.2-0.1l-0.1-0.1c0.2-0.3,0.1-0.5,0.5-0.6c0.2,0.1,0.2,0.3,0.3,0.3c0,0,0,0.1,0.1,0l0.5-0.1l-0.3-0.4
		c0.2-0.3,0.5-0.1,0.1-0.6c0.3,0.3,0.8,0.2,1.2,0.1c0.4-0.2,0.8-0.4,1-0.4c0.1-0.4,0.4-0.6,0.7-0.8c-0.1,0-0.5-0.5-0.2-0.6
		c0.5,1,0.8,0.1,1.4,0.5c-0.3-0.1-0.1-0.3,0.1-0.5c0.1-0.2,0.2-0.4-0.2-0.5c0.3-0.1,0.3,0.3,0.6,0.4c0.2-0.8,1.3-0.8,1.7-1.6
		c-0.1-0.1-0.4-0.1-0.4-0.4c0,0,0.2,0,0.4,0c0.2,0,0.4,0,0.4,0c0-0.2-0.6-0.6,0-0.6c-0.1,0-0.3-0.1-0.3-0.2c0.7-0.5,1-1.3,1.2-2.1
		c0.1-0.4,0.3-0.8,0.4-1.2c0.2-0.4,0.4-0.7,0.8-1.1c-0.3,0.2-0.3,0-0.3-0.1C88.3,47.1,88,47,87.8,47c0,0,0.2-0.2,0.3-0.3
		c0.2-0.2,0.3-0.3,0.3-0.3c-0.5-0.2,0-0.8-0.5-0.8l0.1,0.2c-0.6-0.3-1.4,0.3-2.2,0.2c0.3,0.2,0.1,0.3-0.2,0.5
		c-0.2,0.2-0.5,0.3,0,0.6c-0.2,0.1-0.2-0.1-0.4-0.1c0.3,0.2,0.3,0.3,0.1,0.5l-0.1,0c-0.1,0.7-0.5,0.8-1,1.4l0.4,0.1
		C84.7,49,84.5,49,84.4,49c0.5,0.4,0.2-0.4,0.7,0c-0.4-0.1-0.5,0.2-0.7,0.4c-0.1,0.2-0.3,0.4-0.7,0.3c-0.1,0.2,0.4,0.2,0.3,0.4
		L83.8,50l0.2,0.2c-0.1,0.1-0.4,0-0.6-0.1c0,0,0-0.1,0-0.2c-0.3,0-0.2,0.5-0.4,0.5l0.3-0.1c-0.2,0.7-1,1-1.1,1.8l0.2,0.1
		c-0.2,0.6-0.4,0.1-0.8,0.5l0,0c0,0.2-0.1,0.4-0.2,0.4c0-0.3-0.4-0.2-0.4-0.5c-0.3,0.6-0.1,0.4-0.1,1.2l-0.2-0.2
		c0,0.3,0.1,0.4-0.2,0.6c0.1-0.3-0.4-0.3-0.3-0.8c-0.4-0.2-0.5,0.1-0.6,0.2c-0.1,0.2-0.2,0.3-0.5-0.1c0,0.9,0.6,0.3,0.5,0.5
		c0.2,0.2,0,0.7-0.2,0.7c-0.2,0.1-0.6-0.9-1.1-0.8c0,0,0-0.1,0.1-0.1c-0.2-0.2-0.2,0.4-0.5,0.1c0,0.5-0.3,0-0.2,0.7l0.4-0.2
		c-0.2,0.2-0.3,1-0.8,0.7c0-0.1,0.1-0.3,0.2-0.4c-0.1-0.2-0.2,0.2-0.4,0c0-0.6,0.5-0.2,0.7-0.7c-0.2-0.3-0.4,0.5-0.4-0.2
		c-0.1,0.9-0.4,0-0.7,0.6l0-0.4c0,0.1-0.1,0.3-0.2,0.2l0.1-0.5c-0.2,0.4-0.4-0.3-0.7-0.1c0.5,0,0.1,0.5,0.3,0.8
		c-0.6,0.5-0.3-1-0.9-0.9c0.1,0,0.3,0.2,0.1,0.4c-0.1-0.1-0.3-0.3-0.3-0.5c-0.4,0,0,0.4-0.2,0.6c-0.1-0.5-0.2,0.2-0.5,0.3l0.1-0.4
		c-0.4-0.3-0.3,0.8-0.7,0.4l0.3-0.5l-0.3,0.1l0.2-0.4c-0.3,0.3-0.4,0.2-0.6,0c0,0.3-0.3,0.7-0.5,0.6c-0.1-0.3,0.2-0.3-0.1-0.4
		c0.2-0.2,0.3-0.5,0.3-0.1c0.1-0.1,0.1-0.2,0.2-0.3c-0.1-0.3-0.3-0.2-0.4-0.2c0,0,0.1,0.1,0.1,0.1c0,0-0.2,0.1-0.3,0.2
		c-0.2,0.1-0.3,0.1-0.3,0.1c0-0.2,0.1-0.2,0.2-0.3c-0.1,0-0.2,0.1-0.4,0.1c0.2-0.3,0.3-0.6,0.5-0.6l-0.5,0.1c0-0.1,0-0.4,0.1-0.5
		c-0.1-0.3-0.8,0.3-0.9-0.1c0,0-0.1,0.1-0.2,0.1c-0.2-0.2-0.2-0.7-0.7-0.6l0.2-0.6c-0.3-0.1-0.3,0.7-0.8,0.6
		c-0.4-0.1,0.3-0.4,0.3-0.6c-0.3,0.1-0.9,0.3-0.8-0.3C69.9,50.7,69.9,50.8,70,50.9z M68.1,48.1c0.1,0,0.4,0.1,0.2,0.2
		C67.8,48.4,68,48.2,68.1,48.1z M67,42.7c0.1,0.1,0,0.1-0.1,0.2C66.8,42.8,66.9,42.8,67,42.7z M80.5,33.3L80.5,33.3
		C80.3,33.1,80.4,33.2,80.5,33.3z M80.8,33.6c0.1,0,0.1-0.1,0.1-0.1c-0.1,0.1-0.2,0.1-0.3,0C80.6,33.6,80.7,33.7,80.8,33.6z
		 M79.3,57l-0.1-0.1C79.4,56.8,79.3,56.9,79.3,57z"/>
	<path class="st0" d="M67.4,43.4c-0.1,0-0.1,0-0.2,0C67.2,43.5,67.3,43.5,67.4,43.4z"/>
	<path class="st0" d="M71.7,52.1C71.7,52.1,71.7,52.1,71.7,52.1C71.7,52.1,71.7,52,71.7,52.1L71.7,52.1z"/>
	<path class="st0" d="M74.8,36.3c-0.1,0-0.1-0.1-0.2-0.2C74.7,36.2,74.7,36.3,74.8,36.3z"/>
	<path class="st0" d="M83.2,34.1L82.9,34c0.1,0.1,0.1,0.2,0.2,0.2C83.1,34.2,83.1,34.1,83.2,34.1z"/>
	<path class="st0" d="M83.5,37.4c0.1,0,0.1,0,0.1,0l0.1-0.1C83.7,37.2,83.5,37.3,83.5,37.4z"/>
	<path class="st0" d="M82.7,35.3c-0.2,0.3,0,0.3,0.2,0.3c0,0,0,0,0,0C83.2,35.3,83,35.3,82.7,35.3z"/>
	<path class="st0" d="M83,35.7c0.1,0,0.1,0,0.1,0.1C83.2,35.6,83.1,35.7,83,35.7z"/>
	<path class="st0" d="M81.4,33.6c0,0.1,0.2-0.4,0.2-0.2C81.9,33.1,80.9,33.6,81.4,33.6z"/>
	<polygon class="st0" points="82.2,36.3 82.4,35.9 82.2,36.2 	"/>
	<path class="st0" d="M81.2,35.4l0.2,0.2c0-0.1,0.1-0.1,0.1-0.1C81.4,35.4,81.3,35.3,81.2,35.4z"/>
	<path class="st0" d="M81.6,35.5c0.1,0,0.1,0.1,0.2,0.1C81.7,35.6,81.7,35.5,81.6,35.5z"/>
	<polygon class="st0" points="81.9,36.2 81.8,36.1 81.7,36 	"/>
	<path class="st0" d="M78.5,34.4l-0.3,0.1c-0.1,0.1,0,0.2,0.1,0.2C78.4,34.5,78.5,34.5,78.5,34.4z"/>
	<path class="st0" d="M79.1,35.7c0-0.1,0-0.2,0-0.3l-0.1,0.5L79.1,35.7z"/>
	<path class="st0" d="M78.3,35.6c-0.1,0.1-0.4,0.3-0.1,0.4C78.2,35.8,78.5,35.7,78.3,35.6z"/>
	<polygon class="st0" points="74.2,35 74.2,35 74,34.2 	"/>
	<path class="st0" d="M71.8,38.1c0.3,0-0.2-0.5,0.1-0.4c0-0.2-0.3-0.1-0.3-0.2C71.6,37.8,71.4,37.7,71.8,38.1z"/>
	<path class="st0" d="M71.6,37.5c0,0,0-0.1,0-0.2C71.6,37.4,71.6,37.5,71.6,37.5z"/>
	<polygon class="st0" points="88.9,45.9 89.1,45.6 88.8,45.8 	"/>
	<path class="st0" d="M88.3,45.4l0.5-0.1l-0.5-0.2C88.4,45.2,88.5,45.3,88.3,45.4z"/>
	<path class="st0" d="M69,47.3l-0.1,0c-0.1,0.1-0.1,0.1-0.1,0.2L69,47.3z"/>
	<polygon class="st0" points="69.5,49.5 69.5,49.5 69.1,49.8 	"/>
	<path class="st0" d="M71.2,50.6c0-0.1-0.2-0.1-0.2-0.1C71.1,50.5,70.8,51,71.2,50.6z"/>
</g>
<g>
	<ellipse transform="matrix(0.6794 -0.7337 0.7337 0.6794 -48.979 59.2152)" class="st1" cx="43.3" cy="85.7" rx="21" ry="4.1"/>
	<g>
		<path class="st0" d="M41.8,84.2c-0.1,0.1,0.2,0.3,0.2,0.3C42.1,84.3,41.7,84.1,41.8,84.2z"/>
		<polygon class="st0" points="42.7,82.1 42.8,82.2 42.8,81.8 		"/>
		<path class="st0" d="M44.1,80.7c-0.5-0.3-0.4,0.6-0.8,0.7l-0.1-0.1l0.2,0.4C43.6,81.4,43.8,80.8,44.1,80.7z"/>
		<path class="st0" d="M45.7,80.8c-0.2-0.1,0-0.3-0.2,0.1c0,0,0,0,0.1,0C45.6,80.9,45.7,80.9,45.7,80.8z"/>
		<path class="st0" d="M45.6,81C45.5,81.1,45.8,81,45.6,81L45.6,81z"/>
		<path class="st0" d="M46.2,80.2l-0.1,0.3c0.1,0.1,0.3-0.1,0.3,0C46.6,80.3,46.4,80.3,46.2,80.2z"/>
		<path class="st0" d="M46.1,79.7l0,0.2C46.1,79.9,46.1,79.9,46.1,79.7z"/>
		<path class="st0" d="M45.9,80.2l0.1-0.3c-0.1,0-0.2-0.2-0.1,0.1C45.9,79.9,45.9,80.1,45.9,80.2z"/>
		<path class="st0" d="M45.8,80.3c-0.2,0-0.4,0.1-0.3-0.2C45.1,80.5,45.4,80.7,45.8,80.3z"/>
		<path class="st0" d="M43.7,80.2l-0.3,0l0,0.3C43.5,80.3,43.9,80.3,43.7,80.2z"/>
		<path class="st0" d="M47.6,79.3c-0.1-0.1-0.3-0.2-0.4-0.3l-0.1,0.2C47.3,79.2,47.5,79.2,47.6,79.3z"/>
		<path class="st0" d="M47.2,79l0.1-0.4C47.1,78.8,47.1,78.9,47.2,79z"/>
		<polygon class="st0" points="45.7,79.2 45.6,79.9 45.7,79.2 		"/>
		<polygon class="st0" points="48.5,78.5 48.5,78.8 48.5,78.3 		"/>
		<path class="st0" d="M49,78c0.1,0.3,0.4,0.2,0.4,0.4c0.1-0.2,0.1-0.4,0.1-0.7C49.5,77.9,49.3,78,49,78z"/>
		<path class="st0" d="M49.5,77.3c0,0.1,0,0.2,0,0.4C49.5,77.6,49.6,77.5,49.5,77.3z"/>
		<path class="st0" d="M47.7,78.3c0.1,0,0.2,0.2,0.4,0.1L47.7,78.3C47.8,78.3,47.7,78.3,47.7,78.3z"/>
		<path class="st0" d="M47.8,78.3L47.8,78.3c0.1-0.1,0.2-0.1,0.2-0.2C48,78.1,47.9,78.2,47.8,78.3z"/>
		<path class="st0" d="M47.7,78.4L47.7,78.4C47.7,78.3,47.7,78.3,47.7,78.4z"/>
		<path class="st0" d="M46.5,78.9c0-0.3,0.1-0.7-0.3-0.6C46.2,78.5,46.5,78.5,46.5,78.9z"/>
		<path class="st0" d="M47.3,78.1L47,78.3c0.1,0.1,0.2,0.1,0.2,0.3L47.3,78.1z"/>
		<polygon class="st0" points="47.3,77.9 47.3,78.1 47.4,78.1 		"/>
		<path class="st0" d="M48.9,77.4c0-0.2,0.1-0.3,0.2-0.4c-0.2,0.1-0.4,0.2-0.5,0.3C48.7,77.4,48.8,77.6,48.9,77.4z"/>
		<path class="st0" d="M48.3,77.8L48.3,77.8C48.3,77.8,48.3,77.8,48.3,77.8z"/>
		<path class="st0" d="M50.4,75.9C50.4,75.9,50.4,75.9,50.4,75.9L50.4,75.9L50.4,75.9z"/>
		<path class="st0" d="M48.6,77.2c-0.1,0-0.2,0.2-0.1,0.3C48.5,77.4,48.6,77.3,48.6,77.2C48.6,77.2,48.6,77.2,48.6,77.2z"/>
		<path class="st0" d="M49.8,76.9c-0.1,0-0.2,0-0.3,0C49.6,76.9,49.8,77,49.8,76.9z"/>
		<path class="st0" d="M48.4,77.8C48.4,77.8,48.4,77.8,48.4,77.8C48.5,77.9,48.5,77.8,48.4,77.8z"/>
		<path class="st0" d="M48.4,77.8c0-0.1,0-0.2,0-0.3C48.4,77.6,48.4,77.7,48.4,77.8C48.4,77.8,48.4,77.8,48.4,77.8z"/>
		<path class="st0" d="M49.4,73.8c0.2,0.3,0.1,0.7-0.4,0.7c-0.1,0.4,0.8,1.1,1.3,1.4c-0.1-0.1-0.2-0.2,0-0.6
			c-0.2-0.1-0.8,0.1-0.8-0.3c0.2-0.4,0.3-0.1,0.6-0.1c-0.4-0.2,0.1-0.8-0.4-1.2l-0.2,0.4C49.5,74,49.5,73.8,49.4,73.8z"/>
		<path class="st0" d="M49.9,76.2l-0.1,0.1c0.1-0.1,0.3,0,0.6,0.1c0.1-0.3,0-0.4,0-0.5L49.9,76.2L49.9,76.2z"/>
		<path class="st0" d="M49.4,76.7c-0.2-0.3,0-0.6-0.4-0.8c-0.3,0.3,0,0.4-0.1,0.7C49.3,76.1,48.9,76.8,49.4,76.7
			c-0.1,0.1-0.2,0.2-0.2,0.3c0.1,0,0.2-0.1,0.3-0.1l0,0l0,0l0,0c0,0-0.1,0,0,0c0,0,0,0,0,0C49.4,76.8,49.4,76.8,49.4,76.7
			c0.2-0.1,0.1,0.1,0.1,0.1l0,0l0,0l0.3-0.5C49.7,76.4,49.5,76.5,49.4,76.7z"/>
		<path class="st0" d="M45.8,77.5C45.9,77.5,45.9,77.5,45.8,77.5C45.9,77.5,45.9,77.4,45.8,77.5z"/>
		<path class="st0" d="M46.2,77.5c0,0.1,0.1,0.2-0.1,0.3c-0.2,0-0.1-0.1-0.2-0.2c0,0.1-0.1,0.4,0.3,0.3l0-0.1c0.3-0.1,0.8,0,0.8,0.1
			C46.7,77.7,46.5,77.6,46.2,77.5z"/>
		<path class="st0" d="M47.7,77l0.3-0.5l-0.4-0.1l0.1,0.1C47.5,76.7,47.7,76.9,47.7,77z"/>
		<polygon class="st0" points="50.6,76 50.8,76.3 50.6,75.7 		"/>
		<polygon class="st0" points="51.1,75.6 51.2,75.8 51.3,75.6 		"/>
		<path class="st0" d="M42.3,95.2l-0.1,0.2C42.3,95.3,42.3,95.2,42.3,95.2z"/>
		<path class="st0" d="M43.2,94.4l-0.1-0.1C43.1,94.4,43.1,94.4,43.2,94.4z"/>
		<path class="st0" d="M53.2,76.5c-0.3,0-0.8-0.3-0.4-0.1l0.3,0.2C53.1,76.5,53.1,76.5,53.2,76.5z"/>
		<path class="st0" d="M48.2,86.4c0,0,0.1,0,0.1,0c-0.1-0.1-0.1-0.2-0.2-0.3C48.2,86.2,48.2,86.3,48.2,86.4z"/>
		<path class="st0" d="M49.2,87.5l-0.4,0.1C48.9,87.6,49,87.6,49.2,87.5z"/>
		<path class="st0" d="M37.8,99.6c0,0,0,0.5,0,0.5c0.2-0.2,0.2-0.2,0.2-0.3C37.9,99.7,37.8,99.6,37.8,99.6z"/>
		<path class="st0" d="M53.5,73.8c-0.1,0.2-0.1,0.3-0.1,0.4C53.6,73.8,53.9,73.3,53.5,73.8z"/>
		<path class="st0" d="M40.1,92.1c0,0.1,0,0.2,0.1,0.2C40.1,92.3,40.1,92.2,40.1,92.1z"/>
		<path class="st0" d="M53.6,74.1c0-0.1,0.1-0.1,0.1-0.2c-0.1,0.1-0.2,0.2-0.3,0.2C53.3,74.4,53.2,74.6,53.6,74.1z"/>
		<path class="st0" d="M33.3,88C33.3,88,33.3,88,33.3,88C33.3,87.9,33.3,87.9,33.3,88z"/>
		<path class="st0" d="M40.2,85.3c0,0.1-0.1,0.1-0.2,0.2C40.1,85.5,40.1,85.4,40.2,85.3z"/>
		<path class="st0" d="M52.1,75C52.1,75,52.1,75,52.1,75L52.1,75z"/>
		<path class="st0" d="M51.6,73.6c0-0.1,0-0.1,0-0.2C51.6,73.5,51.6,73.5,51.6,73.6z"/>
		<path class="st0" d="M57.9,70.6L57.9,70.6C57.9,70.5,57.9,70.5,57.9,70.6z"/>
		<path class="st0" d="M52,74.8C52.1,74.8,52.1,74.9,52,74.8C52.1,74.9,52.1,74.8,52,74.8z"/>
		<path class="st0" d="M52.1,75C52,75,52,75,52.1,75C52,75.1,52,75.1,52.1,75z"/>
		<path class="st0" d="M52.2,74.9C52.1,74.9,52.1,74.9,52.2,74.9C52.1,74.9,52.1,74.9,52.2,74.9C52.1,74.9,52.1,74.9,52.2,74.9z"/>
		<path class="st0" d="M27.7,100.1C27.8,100.1,27.8,100.1,27.7,100.1C27.6,100,27.7,100.1,27.7,100.1z"/>
		<path class="st0" d="M54.3,81.4C54.3,81.3,54.3,81.3,54.3,81.4L54.3,81.4L54.3,81.4z"/>
		<path class="st0" d="M54.2,81.9c-0.2-0.4-0.1-0.5,0.1-0.6l-0.9-0.5L54.2,81.9z"/>
		<path class="st0" d="M40.3,97.1l0.5,0c0,0.7-0.4,0.8,0.2,0.9c-0.7-0.9,1-1.1,0.3-1.9l0.3,0c-0.1,0,0,0.1-0.1,0.1
			c0.7,0.1-0.3-0.8,0.3-1.1c0.2-0.1,0.4-0.1,0.4,0.1l0.2-0.5c0.1-0.1,0.2,0.1,0.1,0.2l0.5-0.6l0,0c0-0.2-0.1-0.6-0.1-0.7
			c0.2,0,0,0.1,0.1,0.2l0.1-0.5c0.3,0.1,0.3,0.5,0,0.7c1,0.5,0-0.4,1.1-0.5l-0.2,0.4c0.6,0.3,0.7-0.1,1.3-0.1
			c-0.2-0.1-1.3-0.1-1.2-0.6c0.1,0,0.3-0.1,0.3-0.4c0.3,0.3,0.4,0,0.6-0.2l0.4,0.4c0.1-0.3-0.1-0.5-0.1-0.8c0.3-0.2,0.6,0,0.9,0.2
			c0.4-0.3-0.7-0.2-0.3-0.7c0.5-0.2,0.5-0.6,0.7-1.2c0.4-0.1,0.2,0.3,0.4,0.3l-0.1-0.5c0.1,0,0.1,0.1,0.2,0.1c0-0.3-0.4-0.4-0.2-0.7
			c-0.4-0.5,1.1,0,1-0.8c0.2,0,0.2,0.3,0.4,0.4c0.1-0.8,0.1-0.6,0.1-1.4l0.6-0.1c-0.5,0-0.6-0.6-0.6-1.2c-0.2,0-0.4-0.1-0.5-0.1
			l0.2-0.6c0.1,0,0.2,0.2,0.3,0.4c0-0.1,0-0.1,0-0.2c0.3,0,0.4,0.3,0.6,0.6c-0.1,0-0.3,0-0.4-0.1c0.1,0.3,0.3,0.7,0.6,0.8
			c0-0.1,0-0.2,0-0.2c0,0.1,0.1,0.2,0.1,0.2c0.1,0,0-0.1,0-0.3l0.5,0.3l-0.2-0.2l0.8-0.3c-0.1-0.8-0.4-1.7-0.1-2.5
			c0.2,0.4,0.5,0.5,0.9,0.8c-0.6-0.2-0.3,0.7-0.6,0.9c0.2-0.1,0.3,0.1,0.4,0.2l0.1-0.9c0.3,0.3,0.3,0.1,0.6,0c-0.7-0.4,0-0.8,0-1.2
			c0.2,0.2,0.4,0.4,0.1,0.7c0.8,0-0.4-1.1,0.3-1.1c-0.1,0.1-0.1,0.1,0,0.2c0-0.3,0.5-0.6,0.6-0.4l-0.1,0.1c0.5-0.4,1.2-1.6,0.7-2.1
			c0.1,0,0.6,0.6,0.7,0.7c0,0-0.3-0.6-0.6-1.2c-0.3-0.6-0.6-1.2-0.6-1.2c0.4,0.4,1.8,1,1.8,1.6c0.2-0.1,0.4-0.2,0.4-0.6
			c-0.1,0-0.9-0.3-0.8-0.4c0.8,0.1,0.4,0,1.2-0.1c-0.2,0.1-0.9-0.6-0.7-0.8c0.1,0.1,0.8,0.5,0.8,0.6l-0.4-1c0,0.2,0.6,0.5,0.9,0.5
			c-0.2,0,0.3-0.4,0.3-0.6L55.7,79c0.1-0.1,0.2-0.3,0.1-0.4c0-0.2-0.1-0.4-0.2-0.5c-0.2-0.3-0.4-0.6-0.2-0.9c0.1,0.1,1,0.6,1.4,0.2
			c-0.2-0.2-0.6-0.5-1.1-0.8c-0.5-0.3-1-0.5-1.1-0.6l0.4-0.1c0,0-0.2-0.2-0.2-0.2c0.4,0,1.1,0.1,1.5,0.3c0.5,0.2,0.8,0.7,1,1
			c0.4-0.3,0.4,0,0.7-0.6c0.4-0.2,0.3,0.3,0.2,0.5c0,0,0.2-0.3,0.5-0.7c0.2-0.3,0.4-0.7,0.4-0.7c-0.7,0.1-0.2-0.9-0.8-0.7
			c0,0,0,0.3,0.1,0.6c0,0.3,0,0.6,0,0.6c-0.3,0-0.7-0.2-0.9-0.4c-0.2-0.2-0.4-0.5-0.1-0.8c0.4-0.2,1.2-0.2,1.4-0.2
			c-0.2-0.1-0.2-0.6,0-0.7c0,0,0.1,0.1,0.1,0.1c0.1,0.1,0.1,0.1,0.1,0.1c0.4-0.6-0.6-0.4,0.2-1.1c0.1-0.2,1-0.9,0.6-0.8
			c-0.4,0.3-1.2,0.8-1.9,1.2c-0.4,0.2-0.9,0.4-1.3,0.6c-0.4,0.2-0.7,0.3-0.9,0.4c0,0,0.3-0.3,0.7-0.6c0.4-0.3,0.8-0.7,1.1-1
			c0.1-0.1,0.2-0.2,0.3-0.3c0.1-0.1,0.1-0.1,0.2-0.1c0.1-0.1,0.3-0.1,0.4-0.2c0.3-0.1,0.6-0.2,0.8-0.4c-0.2,0.1-0.3,0.1-0.4,0.1
			c0.2-0.2,0.5-0.3,0.4-0.6c-0.6,0.3,0.1-0.7-0.5,0.2c-0.1-0.2,0.1-0.4,0.1-0.8c-0.2,0.2-0.4,0.3-0.7,0.4c-0.1,0-0.2,0-0.4,0.1
			c-0.2,0.1-0.4,0.1-0.5,0.1c0.1-0.1,0.3-0.3,0.4-0.4c0.1-0.1,0.3-0.3,0.3-0.3c0-0.2-0.1-0.3-0.2-0.5c-0.3-0.3-0.5-0.5-1-0.5
			c0-0.1-0.2-0.2,0.1-0.5c-0.2,0.1-0.4,0.3-0.6,0.3c-0.1-0.4,0.5-0.1,0.6-0.7c-0.2,0.3-0.8,0.5-1.2,0.8c-0.2,0.5,0.6-0.1,1-0.3
			c-0.3,0.4-1.8,2.2-2.5,2.9c-0.5,0.4,0.2-0.7,0.1-0.5c-0.3,0.1-0.7,0.7-0.9,1.1c-0.3,0.5-0.4,0.8-0.5,0.6c0-0.5,0.3-1.3,0.4-1.7
			c0.4-0.5,0.4,0.1,0.6,0c0,0-0.2-0.2-0.2-0.2c0.2-0.3,0.5-0.6,0.6-0.5c0-0.3-0.4,0-0.8,0.2c-0.4,0.2-0.9,0.5-1.2,0.5
			c-0.1,0.3-0.3,0.6-0.2,0.7l0.2-0.2c0.2,0.3-0.3,0.8-0.1,0.9c-0.2,0.5-0.3,1-0.6,1l-0.2-0.5c0.1,0.1,0.3,0.2,0.3,0
			c0,0.2-0.2,0.1-0.3,0c-0.2,0-0.3,0-0.2,0.4c0,0,0.3,0.2,0.3,0.2c0,0.2,0,0.4,0,0.6c0,0.1,0,0.2,0,0.2c0,0.1-0.1,0.1-0.2,0.2
			c0.2,0.1,0.2,0.1,0.3,0.1c0,0,0.1-0.1,0.3,0.1c-0.5-0.5,0.3-0.2-0.2-0.8c0.2,0.3,0.3,0.3,0.3,0.3c0.1,0,0.1,0,0.2,0.3
			c0-0.2-0.1-0.3,0-0.3c0-0.1,0-0.1,0-0.2l0,0l0,0c0,0,0,0,0,0c0-0.1-0.1-0.1-0.1-0.2c0-0.5,0.3-0.6,0.4-0.9c0.1,0-0.1,0.3,0,0.5
			c0,0,0-0.1,0.1-0.2c0-0.1,0.1-0.2,0.1-0.2c0,0.5,0.1,0.7-0.1,1.1l0.1-0.1c0,0.2,0,0.3,0.2,0.1c0,0.1,0.4-0.7,0.1-0.2
			c0,0,0.3-0.5,0.4-0.5L53,74.1c0.1,0,0.3-0.3,0.6-0.5c0.2-0.2,0.4-0.2,0.1,0.4c0.2-0.2,0.5-0.4,0.4-0.2l-0.5,0.6c0,0,0.1,0,0.1,0
			c0,0.1-0.4,0.6,0.1,0.2c-0.8,0.7-0.9,0.8-0.8,0.8c0.1,0,0.3-0.1,0.1,0l0.7-0.4c-0.1,0.1,0.1,0.1,0.3,0.1l0.6-0.3
			c0.2,0,0,0.1-0.2,0.3c-0.2,0.2-0.4,0.3-0.5,0.4c-0.2,0-0.1,0,0-0.1c-0.6,0.3-0.5,0.3-0.3,0.4c0.2,0.1,0.3,0.3-0.1,0.4
			c0.1,0.1,0,0.1-0.1,0.1c0,0,0,0,0,0c0,0,0,0,0,0c-0.1,0-0.2,0-0.2,0c0.1,0,0.2,0,0.2,0c0,0,0,0.1,0,0.2l-0.4-0.2c0,0,0,0,0,0
			c-0.2,0,0.1,0.1,0.4,0.3c0,0.1,0.1,0.1,0.1,0.3c-0.6-0.2-0.1,0.5-0.7,0.3c0.2,0.3-0.3,0.9,0.2,1.3c-0.1,0-0.1,0-0.1-0.1
			c-0.2,0.1-0.4,0.2-0.3,0.5l-0.5-0.2l0.3,0.7c-0.4,0-0.6,0-0.8-0.4c0.1,0.9-0.1,0.5,0,1.3l-0.2-0.2c-0.1,0.2,0.1,0.7-0.2,0.6
			c-0.7,0-1.4,1.6-2.5,2.1c0.9,0.4-0.7,0.1-0.1,0.6c-0.2-0.1-0.4-0.1-0.4-0.3c-0.2,0.6-0.8,0.4-0.6,1.1c-0.2-0.1-0.2-0.3-0.3-0.4
			c0,0.1,0,0.3-0.1,0.2c-0.1,0-0.1-0.2-0.1-0.3c-0.3,0.5,0.1,1,0.6,1.4c-0.4,0-0.5,0.2-0.3,0.6c-0.2-0.1-0.5-0.1-0.3-0.4
			c-0.2,0.1-1.1,0.7-0.7,1.1c-0.1,0-0.2,0.2-0.2,0.3c-0.3,0.3-0.4,0.3-0.7,0.7l0.1,0c0.3,0.6-0.1,0.4-0.3,0.7l0-0.1
			c-0.9,0.3-0.1,0.4-1,0.6l0.3,0.2c0.6,0.6-0.9,0.2-1,0.7l0.3,0c0,0.4-1.3-0.3-1.6-0.2c-0.1,0,0-0.1,0-0.2c-0.8,0.1,0.3,0.4,0,0.9
			c-0.3-0.1-0.4-0.6-0.7-0.4c-0.3,0-0.1,1.3-0.8,1.3c0.2,0.1,0.4,0.2,0.4,0.4c-0.2,0.3-1.3,0.1-1,0.8c-0.1,0-0.1,0-0.2-0.1
			c-0.1,0.3-0.5,0.8-0.3,1.2c-1.1-0.8-0.8,1.6-1.7,0.7l-0.6,0.6l-0.1-0.1c-0.5,0.3-0.4,0.6-0.4,1c-0.1,0-0.2-0.1-0.2-0.2
			c-0.8,0.3-0.8,0.4-0.9,1.3l-0.3-0.3c0,0.1-0.1,0.1-0.2,0.2c-0.1,0-0.2,0-0.3,0c-0.2,0-0.4,0-0.5,0.4c0-0.1,0-0.1,0-0.2
			c-0.1,0.4-0.4,0.2-0.5,0.1c-0.1-0.1-0.2-0.1-0.6,1.1c0,0-0.5,0.7-0.5,0.8c0.2,0,0.1,0.2,0,0.5c-0.1,0.3-0.4,0.7-0.3,0.8
			c-0.3,0.3-0.3-0.4,0-0.7l0,0.1c0.6-1.3-0.4-0.1,0-1.1c-0.4,0.2-0.7,0.2-0.9-0.1c-0.1-0.1-0.2-0.4-0.1-0.6c0-0.2,0.1-0.4,0.1-0.6
			l-1.1,0.9c0,0,0-0.1,0.1-0.2c0-0.1,0.1-0.2,0.1-0.2c0.3-0.3,0.8-0.7,0.8-0.5c0.6-0.5-0.4,0.1-0.6,0.2c0.3-0.3,0.6-0.5,0.8-0.6
			c0.2-0.1,0.4-0.2,0.4-0.2l0-0.1l-0.1,0.1c-0.4,0.2-0.8,0.4-0.7,0.2c0.3-0.2,0.6-0.4,0.7-0.5c0.1,0,0.1-0.1,0.1-0.1l0.2-0.3
			c0,0-0.2,0.1-0.4,0.2c-0.2,0.1-0.4,0.2-0.4,0.2c-0.3,0,0.2-0.3-0.7,0.2c0.7-0.4,0.9-0.7,1.1-1c0.2-0.3,0.2-0.6,0.4-0.6
			c-0.3-0.2-0.1-0.5,0.1-0.7c-0.1,0-0.7-0.1-0.4-0.4c0.5,0.3,0.6,0.3,0.8,0.2c0.2-0.2,0.4-0.4,0.8-0.3c-0.6-0.1,0.5-1-0.3-1
			c0.3-0.2,0.3,0.2,0.7,0.2c0.1-0.9,1.2-1.2,1.7-2.1c-0.1-0.1-0.4-0.1-0.4-0.4l0.9,0c0.1-0.2-0.5-0.6,0.1-0.6
			c-0.1,0-0.3-0.1-0.3-0.2c1.7-1,2-3.4,4.3-3.9c-0.4,0-0.3-0.1-0.2-0.3c-0.1,0.1-0.3-0.2-0.4-0.3l0.9-0.2c-0.3-0.5,0.6-0.7,0.2-1.1
			l-0.1,0.3c-0.2-0.7-1.3-0.6-1.9-1.1c0.3,0.8-1.5,0.1-1.1,1.2c-0.2,0-0.1-0.3-0.3-0.3c0.1,0.3,0.1,0.5-0.3,0.7l0-0.1
			c-0.6,0.8-1.1,0.9-2,1.7l0.4,0.2c-0.2,0.2-0.3,0.1-0.5,0.1c0.3,0.6,0.5-0.5,0.8,0.1c-0.8-0.3-1.1,1.3-1.9,0.9
			c-0.2,0.3,0.4,0.2,0.2,0.5L33.7,88l0.2,0.3c-0.2,0.2-0.5,0.1-0.7,0c0.1,0,0.1-0.2,0.1-0.2c-0.4,0.1-0.5,0.8-0.6,0.8l0.3-0.2
			c-0.5,1-1.5,1.8-1.6,2.9l0.2,0c-0.2,0.8-0.5,0.4-0.9,1.2l0,0c0.1,0.2-0.1,0.6-0.2,0.8c0-0.3-0.7,0.3-0.7-0.1
			c-0.2,0.6-0.2,0.7-0.1,0.8c0.1,0.1,0.2,0.2,0.4,0.5l-0.4,0.1c0.2,0.2,0.3,0.3,0.2,0.7c-0.1-0.4-0.7,0.3-0.9-0.1
			c-0.7,0.6-0.7,1-0.7,1.3c0,0.3,0,0.5-0.7,0.9c0.9,0.1,0.9-1.1,1.1-0.9c0.4-0.3,0.6,0.1,0.4,0.4c-0.1,0.3-1.6,1-1.7,1.8
			c0-0.1-0.1,0,0-0.1c-0.3,0.4,0.2,0.4-0.2,0.9c0.5-0.2-0.1,0.4,0.6,0c0,0,0-0.1,0-0.3c0-0.1,0-0.3,0-0.3c0.2,0.3,0.8,0,0.4,0.9
			c-0.1,0-0.3,0-0.4-0.1c-0.2,0.3,0.1,0.2-0.1,0.6c-0.3,0.2-0.4,0-0.4-0.2c0-0.2,0-0.5-0.3-0.5c-0.3,0.4,0.5,0.4-0.2,0.7
			c0.5-0.2,0.4,0,0.4,0.2c0,0.2,0,0.5,0.3,0.5l-0.3,0.2c0.1,0,0.3,0,0.4,0.2l-0.5,0.1c0.5,0,0.2,1,0.8,1.1c-0.4-0.2-0.4-0.4-0.2-0.5
			c0.1-0.1,0.3-0.2,0.3-0.4c0.6,0.2,0.6,0.4,0.5,0.7c0,0.3-0.1,0.7,0.5,0.7c-0.2,0-0.4-0.3,0-0.4c0.2,0.1,0.3,0.3,0.3,0.5
			c0.8,0,0.1-0.4,0.6-0.6c-0.1,0.5,0.5-0.2,0.9-0.5l-0.2,0.5c0.7,0.1,0.7-1,1.3-0.9c0,0-0.2,0.2-0.3,0.4c-0.2,0.2-0.3,0.4-0.3,0.4
			c0,0,0.5-0.3,0.5-0.3l-0.3,0.6c0.6-0.5,0.7-0.5,1.2-0.5c0-0.3,0.3-0.9,0.7-1.2c0.2,0.2-0.3,0.6,0.3,0.2c-0.2,0.4-0.4,0.9-0.6,0.5
			c-0.1,0.2-0.2,0.4-0.3,0.6c0.1,0.1,0.3,0,0.5-0.1c0.2-0.1,0.4-0.3,0.5-0.4c-0.1,0-0.2,0.1-0.2,0c0,0,0.3-0.3,0.5-0.6
			c0.2-0.3,0.5-0.6,0.5-0.6c0.1,0.1,0,0.3-0.1,0.5c0.2-0.2,0.3-0.5,0.6-0.7c0,0.4,0,0.8-0.4,1.2c0,0,0.2-0.3,0.5-0.5
			c0.2-0.3,0.5-0.5,0.5-0.5c0.1,0.1,0.6,0.1,0.5,0.3c0.3-0.1,0.6-0.5,0.9-0.9c0.3-0.4,0.6-0.8,1-0.9c0-0.1,0-0.1,0.1-0.3
			c0.4-0.2,1-0.2,1.2-0.9l0.6,0.2c0.3-0.4-0.8-0.3-0.4-0.9c0.3-0.5,0.5,0.2,0.7,0.2c0-0.4,0-1.1,0.7-1.1
			C40.6,96.9,40.4,97,40.3,97.1z M44.2,93.1c0,0.1,0,0.5-0.2,0.4C43.8,93,44,93.1,44.2,93.1z M49.3,86.3c0,0.1-0.1,0.2-0.3,0.2
			C49.1,86.4,49.1,86.3,49.3,86.3z M52.6,74.2C52.6,74.2,52.6,74.2,52.6,74.2C52.6,74.4,52.6,74.3,52.6,74.2z M52.5,74.1
			c0,0.1,0,0.2,0,0.2C52.5,74.2,52.5,74.1,52.5,74.1C52.6,74,52.6,73.9,52.5,74.1z M31.9,96.6l-0.2,0.1
			C31.5,96.7,31.7,96.6,31.9,96.6z"/>
		<path class="st0" d="M49.1,87.4c-0.1,0-0.1-0.1-0.2-0.1C48.9,87.4,49,87.4,49.1,87.4z"/>
		<path class="st0" d="M37.8,99.5L37.8,99.5C37.8,99.5,37.8,99.5,37.8,99.5L37.8,99.5z"/>
		<path class="st0" d="M59.3,71.4c-0.1,0.1-0.2,0.3-0.2,0.3C59.2,71.7,59.3,71.6,59.3,71.4z"/>
		<path class="st0" d="M51.8,75.4l0-0.1c0,0-0.1,0-0.1-0.1C51.8,75.2,51.8,75.4,51.8,75.4z"/>
		<path class="st0" d="M48.6,74.8c0,0.1-0.1,0.1-0.1,0.1l0.1,0.1C48.8,75,48.8,74.8,48.6,74.8z"/>
		<path class="st0" d="M51.1,74.3c-0.2-0.3-0.2-0.1-0.3,0.1c0,0,0,0,0,0C51,74.7,51.1,74.5,51.1,74.3z"/>
		<path class="st0" d="M50.7,74.4c0,0.1-0.1,0.1-0.2,0.1C50.7,74.7,50.6,74.5,50.7,74.4z"/>
		<path class="st0" d="M52.2,74.5c0-0.1,0,0.6,0,0.4c0,0.3,0,0.1,0.1-0.1C52.3,74.6,52.3,74.3,52.2,74.5z"/>
		<polygon class="st0" points="50.4,73.5 50.7,73.8 50.6,73.4 		"/>
		<path class="st0" d="M51.8,72.8l-0.3,0.1c0,0.1,0,0.1,0,0.2C51.7,72.9,51.8,72.9,51.8,72.8z"/>
		<path class="st0" d="M51.5,73c-0.1,0.1-0.2,0.1-0.2,0.2C51.3,73.2,51.4,73.1,51.5,73z"/>
		<polygon class="st0" points="50.7,73.1 50.8,73.1 51,73 		"/>
		<path class="st0" d="M54.7,71.2l0.4-0.3c0.2-0.3,0.2-0.4,0-0.2C54.9,70.8,54.7,70.9,54.7,71.2z"/>
		<path class="st0" d="M54.3,70.1c0.1,0.1,0,0.2,0,0.3l0.3-0.6L54.3,70.1z"/>
		<path class="st0" d="M55.5,69.5c0.1-0.2,0.8-0.6,0.3-0.5C55.6,69.2,55.2,69.5,55.5,69.5z"/>
		<path class="st0" d="M57.6,73L57.6,73l-1.3,0.7c0,0,0.3-0.2,0.7-0.4C57.4,73.1,57.6,73,57.6,73z"/>
		<path class="st0" d="M56.9,78.6c0.6-0.6-0.4-0.4,0.2-0.8c-0.1-0.2-0.5,0.4-0.5,0.2C56.6,78.4,56.3,78.5,56.9,78.6z"/>
		<path class="st0" d="M56.6,77.9c0-0.1,0-0.1,0-0.2C56.6,77.8,56.6,77.9,56.6,77.9z"/>
		<polygon class="st0" points="41.2,84.8 41.5,84.7 41.2,84.7 		"/>
		<path class="st0" d="M41.1,84l0.4,0.3l-0.2-0.5C41.3,83.9,41.3,84.1,41.1,84z"/>
		<path class="st0" d="M45.6,93.3l-0.1-0.1c-0.1-0.1-0.2,0-0.3,0.1L45.6,93.3z"/>
		<polygon class="st0" points="42.4,95.8 42.4,95.8 42,95.5 		"/>
		<path class="st0" d="M40.2,98.6c0.1-0.1,0.2-0.3,0.3-0.3C40.3,98.5,39.8,98.1,40.2,98.6z"/>
	</g>
</g>
<g>
	<path class="st0" d="M18.6,68.3C18.6,68.3,18.6,68.3,18.6,68.3C18.6,68.3,18.6,68.3,18.6,68.3z"/>
	<path class="st0" d="M15.2,67.8c0,0-0.1-0.1-0.1-0.1C15.1,67.8,15.1,67.8,15.2,67.8L15.2,67.8z"/>
	<path class="st0" d="M20.9,68.1c0,0.1,0.1,0.1,0.1,0.1C20.9,68.2,20.9,68.1,20.9,68.1z"/>
	<path class="st0" d="M18.6,57.3c0,0,0,0.1,0.1,0.1c0,0,0,0,0,0L18.6,57.3L18.6,57.3z"/>
	<path class="st0" d="M8.5,67.3c-0.1,0-0.2,0-0.4,0C8.3,67.4,8.4,67.4,8.5,67.3z"/>
	<path class="st0" d="M22.1,68.4C22,68.4,22,68.4,22.1,68.4C22,68.4,22,68.5,22.1,68.4L22.1,68.4L22.1,68.4z"/>
	<path class="st0" d="M16.2,68.6c0,0-0.1-0.1-0.1-0.1C16.1,68.5,16.1,68.5,16.2,68.6z"/>
	<path class="st0" d="M28.4,69.3c0-0.1-0.1-0.1-0.2-0.1C28.2,69.3,28.2,69.4,28.4,69.3z"/>
	<path class="st0" d="M27.2,68.7L27.2,68.7C27.2,68.6,27.2,68.6,27.2,68.7z"/>
	<path class="st0" d="M26.5,68.3L26.5,68.3C26.5,68.2,26.5,68.2,26.5,68.3z"/>
	<path class="st0" d="M28.2,69.3c0-0.2,0.2-0.6-0.2-0.2l0,0.1c0-0.2-0.2,0-0.3-0.1c0,0,0,0.1,0,0.1c0,0,0.1,0.1,0.2,0.2
		C27.8,69.5,28,69.3,28.2,69.3z"/>
	<path class="st0" d="M18.6,68.2C18.6,68.3,18.7,68.3,18.6,68.2L18.6,68.2z"/>
	<path class="st0" d="M19.8,68.1L19.8,68.1C19.7,68,19.7,68.1,19.8,68.1z"/>
	<path class="st0" d="M23.5,69.3C23.5,69.3,23.5,69.3,23.5,69.3C23.5,69.4,23.5,69.4,23.5,69.3z"/>
	<path class="st0" d="M19.6,68C19.6,68,19.6,68,19.6,68C19.6,68,19.6,68,19.6,68z"/>
	<path class="st0" d="M22.5,68.7C22.5,68.7,22.5,68.7,22.5,68.7C22.5,68.7,22.5,68.7,22.5,68.7z"/>
	<path class="st0" d="M33.8,53c-0.1,0.1-0.1-0.1-0.2-0.1c-0.1,0.4,0.3,0,0.1,0.3C33.7,53.2,33.8,53.2,33.8,53l0-0.2
		C33.6,52.9,33.8,52.9,33.8,53z"/>
	<path class="st0" d="M19.8,57.3L19.8,57.3c0.1,0.1,0.1,0.2,0.2,0.2c0-0.3-0.4-0.4-0.4-0.8c0,0-0.1,0.1-0.1,0.1
		C19.7,56.8,19.7,57.1,19.8,57.3z"/>
	<path class="st0" d="M19.5,56.7L19.5,56.7C19.4,56.7,19.4,56.7,19.5,56.7c-0.1,0-0.1,0-0.2-0.1C19.4,56.7,19.4,56.7,19.5,56.7z"/>
	<path class="st0" d="M31.3,53.3C31.2,53.3,31.2,53.2,31.3,53.3C31.2,53.3,31.2,53.3,31.3,53.3z"/>
	<path class="st0" d="M14.2,63.9c0.1,0,0.1-0.1,0.2-0.1C14.3,63.8,14.3,63.9,14.2,63.9z"/>
	<path class="st0" d="M18.1,58.1c0,0-0.1,0-0.1,0c0,0,0,0,0,0L18.1,58.1z"/>
	<path class="st0" d="M21.9,51.9c0.1,0.4,0-0.1,0.3,0.1l0-0.2C22,51.7,21.9,51.8,21.9,51.9z"/>
	<path class="st0" d="M33.9,53.2L33.9,53.2C33.9,53.1,33.8,53.1,33.9,53.2L33.9,53.2z"/>
	<path class="st0" d="M25.5,50.2C25.6,50.2,25.6,50.2,25.5,50.2C25.6,50.2,25.6,50.2,25.5,50.2z"/>
	<path class="st0" d="M18.8,57l-0.4,0.3l0.2,0C18.5,57.1,18.9,57.2,18.8,57z"/>
	<path class="st0" d="M39.7,49.7c-0.5,0.4-0.7-0.3-1.1,0c-0.1,0.5-0.1,0.1-0.5,0.2c0.2-0.1,0.1-0.4-0.1-0.5
		c-0.1,0.1-0.2,0.2-0.3,0.2c-0.1-0.2-0.5-0.6-0.7-0.3c-0.2-0.2,0.1-0.2,0.1-0.3c-0.1-0.3-0.2,0.2-0.3,0c0,0,0-0.1,0-0.1
		c-0.4,0-0.6-0.1-0.9-0.2c0,0.5-0.4,0.2-0.5,0.4c0-0.2-0.2-0.2-0.3-0.3l-0.2,0.4c-0.2,0.3-0.3-0.2-0.5,0l0.1,0.1
		c-0.2,0.2-0.7-0.1-0.9-0.4c-0.8,0.6-1.5,0.5-2.2,0.4c-0.7-0.1-1.5-0.3-2.3,0.1c-0.1,0.2,0.1,0.2,0.1,0.5c-0.2,0.1-0.2,0.1-0.4,0.1
		c0.2,0.1,0.1-0.1,0.1,0.1l0.2-0.2c0,0,0,0.1,0,0.1c0.1-0.1,0.1-0.2,0.3-0.2c-0.1,0.2-0.1,0.5-0.3,0.4c0-0.1,0-0.1,0.1-0.1
		c-0.2,0-0.1,0.2-0.3,0.1c-0.2,0-0.1,0.1-0.2-0.1c0,0-0.1,0-0.3,0c-0.1,0-0.3,0-0.3,0c-0.1,0.5-0.5,0.2-0.6,0.2
		c0-0.3,0.3-0.2,0.3-0.5l-0.2-0.2l0.1,0.3l-0.3,0l0-0.1c0,0.1,0,0.2-0.1,0.1c0,0-0.1-0.1,0-0.1l-0.1,0.2c0-0.3-0.2,0-0.3-0.3
		c-0.7,0-0.6,0.7-1.3,0.4c0.1,0.1,0,0.5-0.2,0.5c-0.1,0-0.2-0.1-0.2-0.2l-0.1,0.2c-0.4-0.4-0.6,0-1,0l0-0.1
		c-0.1,0.2-0.2,0.4-0.4,0.4l-0.1-0.3c-0.3-0.1,0,0.6-0.3,0.6c0.1,0.3,0.4,0.3,0.5,0.6c-0.2-0.2-0.5-0.2-0.3,0
		c-0.2,0.2-0.2,0.1-0.2,0l-0.1,0.2c-0.2,0.1-0.2-0.3-0.2-0.5c0,0.4-0.3,0.3-0.5,0.3l0-0.2l-0.3,0.1c-0.1,0.3-0.3,0.4-0.6,0.4l0-0.4
		c-0.3-0.1,0,0.2,0,0.2c-0.2,0.3-0.3,0.1-0.6,0c-0.2,0.6-1.1-0.1-1.1,0.6l-0.2-0.2c-0.2,0.7-1.1,0.4-1.1,1.2c-1-0.3,0.1,0.8-0.8,0.6
		l0.1,0.1c-1.6,1-3.5,1.9-4.5,3.5l-0.1-0.1c-0.5,0.4-1,0.9-1.5,1.4l-0.3,0.4c-0.1,0.1-0.2,0.2-0.4,0.5l-1.1,1.4
		c-0.3,0.5-0.6,1-1,1.5c-0.3,0.5-0.5,1-0.8,1.4l-0.7,1.4L7,66.5c-0.1,0.1-0.1,0.2-0.2,0.3l-0.2,0.3c0.2,0,0.4,0.1,0.7,0.1
		c0.7-0.1,1-0.4,1.6-0.5c0.1,0,0.5,0.1,0.3,0.2c-0.5,0-0.5,0.2-0.7,0.3c0.6,0.1,1.1,0.4,1.9,0.2c0,0-0.2-0.3-0.2-0.3
		c0.3-0.1,0.5,0,0.7,0.1c-0.2,0.1-0.2,0.4-0.4,0.4c0.8-0.2,0.9-0.1,1,0c0.1,0.1,0.2,0.3,0.7,0.3c0.5-0.5,1.7-0.7,2.3-1l0.2,0.2
		c-0.3-0.1,0,0.4-0.4,0.3c0.3,0.2,0.6,0,0.8,0.2c0-0.1,0-0.3,0.1-0.4c0.1,0.1,0.1,0.4,0.3,0.4l-0.2,0.1c0.1,0.2,0.2,0,0.4,0
		c0,0.2,0.2,0.3,0.2,0.6c0.3-0.3,0.4-0.1,0.7-0.2c-0.2-0.3,0.1-0.3,0.1-0.5l-0.3,0c0.4,0.2-0.1,0-0.2,0.4c-0.2-0.2,0.4-0.6,0.1-0.6
		c0.4-0.1,0.5,0.1,1-0.1c-0.3,0,0.1-0.2,0-0.4c0.3,0.1,0.1,0.2,0.1,0.4c0.2,0,0.2,0.3,0.4,0c0.3,0.2-0.1,0.3,0,0.5
		c-0.2,0.2-0.7-0.5-0.8,0.4c-0.1,0-0.4,0.3-0.6,0.2c0.2,0.2,0.4,0.5,0.6,0.3l0.1-0.5c0.2,0,0.3-0.3,0.4-0.2c-0.1,0.1,0,0.3,0.1,0.3
		c0-0.1-0.1-0.1,0-0.2c0.3,0,0.4-0.3,0.7-0.3c-0.2-0.2-0.2-0.3-0.4-0.6c0.1-0.3,0.2,0,0.3,0c0,0-0.1,0,0,0.1l0.2-0.1
		c0.3,0.2-0.2,0.5,0.1,0.7c0.1,0.3,0.3-0.1,0.4,0.1c0,0,0-0.1,0-0.1c0,0,0,0,0.1,0c0,0,0,0,0,0c0.2,0,0.3,0.1,0.5-0.2
		c0,0.1,0.2,0,0.2-0.1c0.1-0.1,0.4-0.3,0.5,0.1c0,0,0,0,0,0c0.2,0.1,0.3,0.3,0.2,0.4l0.3,0.2l-0.1,0.3c0.3,0,0.3-0.2,0.6-0.5
		c0.2,0.2,0.6,0.2,0.8,0.1c0,0,0.1,0,0.1,0l-0.1-0.2c0.2,0.1,0.3-0.1,0.4,0c0,0,0-0.1,0,0c0,0,0.1,0,0.1,0c0,0-0.1,0-0.1,0l0,0.1
		c0.1,0.4,0.3-0.1,0.5,0.1c0,0-0.1,0-0.1,0c0.1,0.1,0.1,0.6,0.2,0.4c0,0,0.1,0,0.1-0.1l0.1,0.1c0,0,0-0.1-0.1-0.1
		c0.1-0.1,0.2-0.2,0.2-0.1l0.3,0.1c0,0.1,0.1,0.1,0.2,0l0,0.1c0.1,0,0.1,0.1,0.1,0.1c0.2,0.6,0.6,0,0.8,0.5c0.2-0.2,0-0.3,0.1-0.5
		c0.1-0.1,0.4-0.2,0.6-0.3c0,0.4,0.4,0.8,0.2,1.2c0.3,0.2,0-0.3,0.2-0.4l0,0c-0.1-0.1-0.1-0.3-0.1-0.5c0.1-0.2,0.4-0.2,0.4-0.1
		l-0.2,0.3c0.3,0,0.5-0.5,0.8-0.7c0.2,0.2-0.1,0.5-0.2,0.8l0.3,0l-0.1,0.2c0.2,0,0.3-0.2,0.5,0c-0.3,0.1,0.2,0.4-0.2,0.6
		c0.1,0.1,0.4-0.3,0.2,0.1c0.2-0.2,0-0.2,0-0.3c0.2-0.4,0.3,0,0.5,0c-0.1,0.2-0.2,0.2-0.1,0.4c0.1-0.1,0.3-0.2,0.3,0.1
		c0.1-0.2,0.2,0.1,0.3,0.1c-0.1-0.1-0.1-0.4,0.1-0.5c0.1,0,0.2,0,0.4,0.1l0-0.2c0.4-0.2,0.1,0.4,0.4,0.4c-0.2,0.1-0.2,0-0.4,0.1
		c0.2,0,0.5-0.1,0.7,0l-0.1,0.4c0.1-0.1,0.2,0.2,0.3,0c0.1,0.3-0.4,0.1-0.5,0.3c0.1,0.3,0.5-0.2,0.4,0.3L28.7,72
		c0.1,0.1,0.3,0.1,0.2,0.2c0.1-0.1,0-0.1,0-0.1c0.4-0.4,0.6,0,0.9-0.4l-0.1-0.1c0.2,0.1,0.6-0.1,0.6,0.2c0,0.2-0.3,0.2-0.5,0.2
		c0.1,0.1,0.3,0,0.4-0.1c0.1-0.2,0.2-0.4,0.4-0.5c-0.1-0.1-0.1-0.1-0.2,0l0,0.1c-0.1,0.1-0.2,0.1-0.3,0.1c-0.1-0.1,0.1-0.2,0.1-0.3
		c-0.2-0.3-0.4,0.4-0.6,0.1l0-0.1c-0.2,0-0.4-0.1-0.6,0.1c0.1-0.4-0.3-0.1-0.3-0.4c0.5-0.6,0.4,0.4,0.8,0.2c0-0.2,0.3-0.2,0.5-0.3
		l-0.6-0.1c0-0.1,0.2-0.5-0.1-0.3l0,0c-0.2-0.1-0.4,0.2-0.4,0c0-0.1,0.1-0.1,0.2-0.2c-0.1-0.2-0.2,0.1-0.3,0
		C28.7,70.2,29,70.2,29,70c-0.3,0.1-0.2-0.2-0.4-0.3c-0.2,0.4-0.9,0.1-0.8,0.7l-0.5,0.1c0-0.3,0.5-0.4,0.7-0.8l0.3,0.2
		c0.3-0.5-0.7,0-0.6-0.7c-0.1-0.1-0.1,0-0.3-0.4l-0.2,0.5c-0.1-0.2,0-0.4,0-0.5c-0.1,0-0.2-0.1-0.2-0.1c0.1-0.1,0.1-0.1,0.2-0.1
		c0-0.3-0.1-0.2-0.2-0.1c-0.1,0.1-0.2,0-0.3,0l0.2-0.1c-0.1,0-0.2,0-0.2,0.1c0,0-0.1,0-0.1,0c0,0.1-0.1,0.4,0,0.6
		c-0.3-0.3-0.6-0.4-0.7-0.9c0.1-0.1,0.3-0.2,0.2-0.3c-0.1-0.1-0.4,0-0.5,0.2c0,0-0.1,0-0.1,0c0-0.1,0-0.3,0-0.3c0,0,0-0.1-0.1-0.1
		c-0.2,0.3-0.4,0-0.5,0.2c0.1,0.1,0.1,0.1,0.2,0.1c-0.2,0.2-0.4,0.4-0.5,0.2c0.3-0.1-0.1-0.5,0.3-0.4c-0.1-0.5-0.3,0.3-0.4,0
		l-0.1-0.2c0.1-0.3,0.3,0,0.3-0.1l-0.1,0c0.2-0.2,0.6,0.1,1,0c0,0-0.1-0.1-0.2-0.2c-0.1-0.1-0.2-0.2-0.2-0.2c-0.8,0-1.6-0.6-2.3-0.2
		l0,0c0,0,0,0.1-0.1,0.2l0-0.1l-0.2,0.2c-0.1-0.3-0.3-0.4-0.4-0.7c0.1,0.2,0.1,0.2,0,0.4c-0.1,0.3-0.2,0.4-0.3,0.2
		c0.1-0.2,0.2-0.2,0.1-0.3c0,0.1-0.1,0.2-0.1,0.2c-0.1-0.2-0.2-0.2-0.2-0.4c0.1,0,0.1,0,0.1,0.1c0.1,0-0.2-0.2,0-0.3l-0.2,0
		c-0.1-0.2,0.1-0.2,0.1-0.3c-0.4,0-0.7,0.4-1,0.5c0-0.1,0.2-0.5,0.1-0.4c-0.2-0.2-0.6,0.3-0.9,0.3c0.1-0.1,0.2,0,0.3-0.1
		c-0.8-0.4-1.4-0.5-2.1-1.1l-0.3,0.4l-0.1-0.3c-0.7-0.5-1.4-0.3-2.2-0.3c-0.2,0-0.1-0.3-0.2-0.5c-0.1-0.1-0.2,0.1-0.3,0.2
		c-0.1,0.1-0.3,0.3-0.4,0.3c0.1-0.1,0.4-0.5,0.3-0.5c-0.1,0.1-0.2,0.3-0.2,0.2l0.1-0.1c0.1-0.2-0.1,0-0.1-0.1
		c-0.1,0-0.6,0.2-1.4,0.6c-0.2-0.1,0.7-0.4,0.7-0.5c-0.1,0.2,0.2-0.1,0.4-0.2c-0.2,0.1-0.4,0.1,0-0.1c-0.1,0-0.1,0-0.5,0.2
		c0.2-0.1,0,0.1-0.3,0.2c0,0,0,0,0-0.1c0,0,0-0.1,0.4-0.3c0-0.2,0.3-0.5,0.4-0.7c-0.2-0.1-0.1,0-0.3,0c-0.2-0.2,0.2,0,0-0.1l0.2,0.1
		c0.1,0-0.2-0.3-0.3-0.6c0.2,0.2,0.2,0,0.3,0.2c0,0,0.2,0.1,0.5,0.2c0.2,0.1,0.5,0.2,0.4,0.1l-0.9-0.6c-0.1-0.1,0.1-0.2,0-0.2
		c0.2,0,0.5,0.1,0.6,0c0.2,0.1,0,0.3,0,0.3c0.3,0.3,0.5-0.1,0.7,0.3c0.1-0.2-0.2-0.1-0.2-0.3l0.2-0.1l-0.2,0c0-0.2-0.2-0.5,0.1-0.5
		l-0.1-0.5c0.3,0.2,0.2-0.1,0.3-0.1l0.1,0.2c0.1-0.1,0.2-0.1,0.4-0.1c0.2,0.3-0.2,0.1,0,0.3l0.2-0.1c-0.1-0.1-0.2-0.3-0.4-0.3
		c-0.1-0.4-0.3-0.7,0-1c0.4,0.1,0.1,0.4,0.4,0.5c0.4-0.2-0.2-1,0-1.2c0.3-0.1,0.1-0.4,0.4-0.6c0.1,0.2,0.4,0,0.5,0.2l0.1,0.3
		c0-0.1,0.2-0.1,0.3,0c-0.2-0.2,0.1-0.5,0.2-0.8l-0.2-0.2c0.1-0.2,0.2-0.5,0.4-0.6c0.2-0.2,0-0.4,0-0.8c0.3,0.1,0.4,0.4,0.6,0.6
		c-0.1-0.1-0.2,0.1-0.4,0.1c-0.2,0.4,0,1-0.4,1.2c0.3,0.6,0.1-0.2,0.4-0.2c0,0,0,0.1,0,0.1c0,0,0,0,0,0c0,0.1-0.1,0.4,0,0.6
		c0.1-0.2-0.3-0.6,0.1-0.6c0-0.3,0.5,0,0.6,0c0-0.3-0.4-0.7,0-0.8l0.1,0.4c0.3-0.2-0.2-0.5,0.1-0.7c-0.1,0-0.1-0.4-0.3-0.2
		c0-0.2,0.2-0.4,0.4-0.4c0-0.1-0.1-0.1-0.1-0.2c-0.3-0.1-0.1,0.4-0.5,0.2l0.1,0.4c-0.2,0-0.5-0.2-0.4-0.4c0,0,0,0.1-0.1,0.1
		c-0.4-0.5,0.3,0,0.1-0.4l-0.1,0.1c-0.3-0.3,0.1-0.5,0.2-0.6c0.3,0,0.5,0,0.6,0.2L18.9,57c0.2,0.1,0.2-0.3,0.4-0.4c0,0,0.1,0,0.1,0
		c0,0,0,0-0.1-0.1c0,0,0.1,0,0.1,0c0.1-0.1,0.2-0.3,0.4-0.3l-0.2-0.2l0.1,0.1c-0.1,0.1-0.3,0-0.4-0.2c0.2-0.3,0.5,0.1,0.6,0.2
		c0.2,0.4-0.2,0.2-0.3,0.3c0.3,0.3,0.3-0.1,0.7-0.1c0.1,0.4-0.3,0.2-0.1,0.5c0.2-0.1,0.1-0.4,0.4-0.4c0.1,0.2-0.1,0.3,0,0.5l0.2,0
		c-0.3,0.2,0.3,0.4,0.1,0.6c0.2,0.1,0-0.4,0.3-0.3c-0.1-0.1-0.5-0.3-0.4-0.5l0.2,0c0.2,0.1,0,0.5,0.3,0.6l0.1-0.2
		c-0.1-0.1-0.2-0.1-0.2-0.3c0.2,0-0.1-0.5,0-0.8c0.1-0.1,0.2-0.1,0.3,0c0.1-0.5,0.4-0.7,0.5-1.1c-0.1,0.3,0.2,0.4,0.4,0.5
		c-0.2,0.2,0,0.5,0.1,0.7c0.1-0.1,0-0.5-0.1-0.6c0.3,0,0-0.3,0.3-0.2c0.2,0.1,0.1,0.4,0.2,0.5c0.2-0.1-0.2-0.4,0.1-0.5
		c0,0.1,0,0.1,0,0.1c0.2,0,0.2-0.2,0.2-0.4c0.4,0.4,0.4-0.3,0.6,0.2c0.3-0.3-0.2-0.2-0.2-0.4c0-0.3,0.4-0.2,0.5-0.2
		c-0.1,0-0.1,0.2-0.2,0.2l0.2,0.3c0.5,0-0.1-0.8,0.4-0.7c-0.1,0.3,0,0.3,0,0.5c0-0.1,0.4-0.2,0.1-0.3c0.2,0,0.3,0,0.4,0
		c0.1-0.2,0.2-0.3,0.2-0.6c0.2-0.1,0.5,0.1,0.6,0.2c0.3-0.4,0.9-0.2,1.3-0.6l0,0c0.4-0.1-0.3-0.4,0.1-0.5c0.1,0.4,0.3,0.2,0.5,0.4
		c0.5,0.1,0.7-0.5,1.2-0.4c0,0.1,0,0.2-0.1,0.2c0.4,0,0.6-0.1,0.9-0.2l0,0.1c0.6,0.2,0.9-0.3,1.4-0.5c0,0.1,0,0.2,0,0.3
		c0.3,0,0.7,0,0.8-0.4c0.4,0.4,0.2-0.2,0.6,0.2c0,0.1,0,0.1-0.1,0.1c0.2,0.1,0.3,0.1,0.5,0.1c0.4-0.3,0.4-0.9,1-0.7
		c0.1,0.6-0.3,0.2-0.3,0.6c0.1-0.1,0.2-0.2,0.3-0.1c-0.1,0.2,0,0.1,0,0.4c0.1,0.1,0.4-0.6,0.4-0.6c0-0.1,0-0.2-0.1-0.1
		c0.1-0.4,0.5-0.1,0.7-0.2c-0.1,0-0.3-0.1-0.3-0.4c0.3,0.1,0.4-0.4,0.7-0.7c0.3,0.2-0.2,0.5-0.1,0.9c0.1,0.1,0.2,0.5,0.1,0.6
		c0.3,0.1,0.5-0.3,0.7-0.4l0,0.1c0.3,0,0.7-0.5,1-0.3l-0.1-0.1c0.1-0.1,0.2,0,0.3-0.3c0,0.2,0.2,0.4,0.1,0.5c0.2-0.6,0.8-0.3,1-0.9
		c0.1,0.2,0,0.4-0.1,0.5c-0.2-0.1-0.3-0.2-0.4,0c0.2,0,0.3,0.2,0.3,0.3c0.2-0.4,0.6-0.5,0.8-0.8c0.1,0.2,0.2,0.3,0.1,0.6
		c0.6-0.1-0.2-1,0.5-0.9c0.2,0.3-0.3,0.4,0,0.5l-0.1,0c0,0.2,0.1,0.3,0.1,0.3c0.1-0.1,0.1-0.3,0.2-0.4c0-0.1,0.1-0.2,0.2-0.3
		c0.2-0.4,0.5-0.8,0.8-1.1C40.5,50.1,40.1,49.9,39.7,49.7z M21.4,68.3c0.3-0.1,0.2,0.1,0.2,0.2c-0.2-0.2-0.4-0.1-0.6-0.3
		c0,0.1,0,0.2,0,0.3c-0.1,0-0.2-0.2-0.1-0.4C21,67.8,21.4,68.6,21.4,68.3z"/>
	<path class="st0" d="M23.5,69.1L23.5,69.1C23.6,69,23.6,69,23.5,69.1z"/>
	<polygon class="st0" points="26.9,68.4 26.8,68.4 26.8,68.4 	"/>
	<path class="st0" d="M25.5,68.1c0-0.1,0-0.1,0-0.2C25.4,68,25.4,68.1,25.5,68.1z"/>
	<path class="st0" d="M23,66.7c0-0.2-0.2-0.2-0.3-0.2C22.8,66.5,22.9,66.6,23,66.7z"/>
	<path class="st0" d="M18.2,59.2C18.2,59.2,18.2,59.1,18.2,59.2C18.2,59.1,18.2,59.2,18.2,59.2z"/>
	<path class="st0" d="M19.4,56.3c0,0-0.1,0-0.2,0C19.2,56.3,19.3,56.3,19.4,56.3z"/>
	<path class="st0" d="M28.4,68.3l0.2,0.3C28.7,68.5,28.5,68.1,28.4,68.3z"/>
	<path class="st0" d="M27.8,71.3l0.2-0.1c0-0.2-0.1-0.3-0.3-0.1C27.9,71.1,27.7,71.2,27.8,71.3z"/>
	<path class="st0" d="M27.7,67.9c-0.2,0.2-0.2-0.3-0.4,0C27.5,67.9,27.6,68.2,27.7,67.9z"/>
	<path class="st0" d="M26.4,70.7c-0.1,0.3,0.2,0.1,0.2,0.3C26.6,70.8,26.6,70.5,26.4,70.7z"/>
	<path class="st0" d="M26,68.1c0.1-0.2,0.2-0.1,0.3,0c-0.1,0-0.1,0.1-0.2,0.1c0.3-0.1,0.3,0,0.5-0.1c-0.1-0.2-0.3-0.4-0.1-0.7
		C26.2,67.6,26,67.8,26,68.1z"/>
	<path class="st0" d="M26.1,70.5c0.1,0.1,0,0.4,0.2,0.4c0.1-0.1,0.1-0.4,0-0.4l0.2-0.2C26.3,70,26.3,70.6,26.1,70.5z"/>
	<path class="st0" d="M25.6,67.2l0,0.1c0.3-0.1,0.5,0.1,0.7-0.2C26.1,67.1,25.7,67.1,25.6,67.2z"/>
	<path class="st0" d="M25.8,69.8l-0.2,0.3c0.1,0.1,0-0.1,0.1-0.2c0,0.1,0.1,0.1,0.1,0.1C25.7,70,26,69.8,25.8,69.8z"/>
	<path class="st0" d="M25.1,69.9L24.8,70l0,0.4C25.1,70.4,24.9,70.2,25.1,69.9z"/>
	<path class="st0" d="M24.9,69.6L24.9,69.6l-0.5,0.3C24.7,69.7,24.7,69.8,24.9,69.6z"/>
	<path class="st0" d="M21.6,65.9c-0.1,0.1,0.1,0.4,0,0.2C21.7,66,21.5,65.7,21.6,65.9z"/>
	<path class="st0" d="M21.6,69c-0.1-0.1-0.4,0-0.6,0C21.2,69,21.5,69.2,21.6,69z"/>
	<path class="st0" d="M20.9,69C20.9,69,21,69,20.9,69C21,69,20.9,69,20.9,69z"/>
	<path class="st0" d="M14.9,68.5C14.9,68.5,14.9,68.5,14.9,68.5C14.9,68.5,14.9,68.5,14.9,68.5z"/>
	<path class="st0" d="M15.1,68.4c0.1,0.1,0.3,0,0.4-0.1c-0.2,0-0.3,0.1-0.5,0.2C15,68.5,15.1,68.6,15.1,68.4z"/>
	<path class="st0" d="M13.3,68c0.2-0.1,0.3,0,0.3-0.1C13.6,67.8,13.3,67.9,13.3,68z"/>
	<path class="st0" d="M15.6,62.2c0.1,0,0.2-0.1,0-0.3C15.5,62,15.6,62.1,15.6,62.2z"/>
	<polygon class="st0" points="15.7,61.8 15.7,61.8 15.9,61.9 	"/>
	<path class="st0" d="M16.5,61.4c0,0,0,0.1,0,0.1C16.5,61.4,16.5,61.4,16.5,61.4z"/>
	<path class="st0" d="M16.5,61.5C16.5,61.5,16.5,61.5,16.5,61.5L16.5,61.5z"/>
	<path class="st0" d="M16.4,61.5L16.4,61.5C16.5,61.6,16.5,61.5,16.4,61.5C16.5,61.5,16.5,61.5,16.4,61.5z"/>
	<path class="st0" d="M16.7,61.2l-0.4-0.1c0,0.2,0.3,0,0.4,0.4L16.7,61.2z"/>
	<path class="st0" d="M17.1,60.8c0.2,0,0-0.6,0.3-0.3c0.2-0.5-0.5-0.4-0.3-0.9c-0.5,0.2,0.3,0.8-0.1,0.9
		C17.3,60.4,17,60.6,17.1,60.8z"/>
	<path class="st0" d="M16.5,60.3c0.1,0.2,0.3,0,0.2-0.1C16.7,60.2,16.4,60.1,16.5,60.3z"/>
	<polygon class="st0" points="17.6,60 17.8,60.1 17.7,59.9 	"/>
	<path class="st0" d="M18,59.8l0.1,0.3C18,59.9,18.2,59.8,18,59.8z"/>
	<path class="st0" d="M18.8,59.5c0.1,0-0.1-0.5-0.2-0.3l0.1,0C18.6,59.3,18.8,59.4,18.8,59.5z"/>
	<path class="st0" d="M19.6,57.8c-0.1,0-0.1,0.2,0,0.2L19.6,57.8L19.6,57.8z"/>
	<path class="st0" d="M18.7,56.7c-0.3-0.2-0.2,0.2-0.4,0.2C18.6,56.9,18.6,56.9,18.7,56.7z"/>
	<path class="st0" d="M20.1,58.1c0,0.1-0.1,0.1-0.2,0.1C20,58.3,20.1,58.2,20.1,58.1z"/>
	<path class="st0" d="M20.3,57.8c0.1,0.1,0.1,0.2,0.2,0.2c0.2,0,0.4-0.1,0.3-0.3c-0.1-0.1-0.4-0.4-0.4-0.6c-0.2,0.3,0.1,0.8-0.3,0.5
		l0.2,0.6C20.5,58.2,20.2,57.8,20.3,57.8z"/>
	<path class="st0" d="M19.2,57.1l0.2,0.1c-0.1-0.1-0.1-0.2,0-0.3C19.1,56.6,19.3,57.1,19.2,57.1z"/>
	<polygon class="st0" points="21.4,56.7 21.6,56.5 21.5,56.5 	"/>
	<polygon class="st0" points="21.6,56.7 21.7,56.8 21.8,56.5 	"/>
	<polygon class="st0" points="22,56.7 22,56.7 21.9,56.9 	"/>
	<path class="st0" d="M22.6,56.5l-0.1-0.1c0,0.1-0.3,0-0.1,0.2C22.3,56.4,22.5,56.4,22.6,56.5z"/>
	<path class="st0" d="M22.4,51.3c0,0.1,0.1,0.2,0.2,0.3l0-0.3C22.5,51.3,22.5,51.4,22.4,51.3z"/>
	<path class="st0" d="M23,51.6l0.1-0.4c-0.3,0.1-0.2,0.3-0.4,0.5c0.1,0.1,0.2-0.2,0.3-0.2L23,51.6z"/>
	<path class="st0" d="M27.9,50.1c0,0.2,0.1,0.2-0.1,0.4c0.2-0.2,0.4-0.2,0.7-0.3c-0.1-0.1,0.1-0.4,0-0.3L28.2,50l0-0.2
		C27.9,49.7,28.1,50.1,27.9,50.1z"/>
</g>
<g>
	<path class="st0" d="M58.1,94.6c-0.1,0.3,0,0.1,0.1,0.1L58.1,94.6z"/>
	<path class="st0" d="M58.2,94.7L58.2,94.7C58.3,94.7,58.3,94.7,58.2,94.7z"/>
	<path class="st0" d="M59,95.2c-0.3,0.1-0.4-0.3-0.6,0C58.5,95.5,58.8,95.5,59,95.2z"/>
	<polygon class="st0" points="58.8,94.9 58.7,95 59,94.8 	"/>
	<polygon class="st0" points="58.7,94.7 58.7,94.7 59.1,94.7 	"/>
	<path class="st0" d="M59.5,95.6l-0.2-0.1c0-0.3,0.3-0.2,0.3-0.5c-0.2-0.1-0.3,0.4-0.6,0.2c-0.1,0.2,0.5,0.2,0.2,0.5
		C59.4,96.1,59.3,95.7,59.5,95.6z"/>
	<path class="st0" d="M68.9,105C68.9,105,68.9,105,68.9,105C68.9,105,68.9,105,68.9,105z"/>
	<path class="st0" d="M70.4,108.4c0,0.1,0,0.1,0,0.2C70.4,108.5,70.4,108.5,70.4,108.4L70.4,108.4z"/>
	<path class="st0" d="M67.3,103.2c0-0.1,0-0.1,0-0.2C67.3,103,67.3,103.1,67.3,103.2z"/>
	<path class="st0" d="M77.7,104.6C77.7,104.6,77.7,104.6,77.7,104.6c0.1,0.1,0.1,0.1,0.1,0.1L77.7,104.6L77.7,104.6z"/>
	<path class="st0" d="M71.3,109C71.3,109,71.3,109,71.3,109C71.3,109,71.3,109,71.3,109z"/>
	<path class="st0" d="M66.7,102C66.7,102,66.7,102,66.7,102C66.7,102,66.7,102,66.7,102L66.7,102L66.7,102z"/>
	<path class="st0" d="M70.5,107c0,0.1,0,0.1,0,0.1C70.5,107.1,70.5,107.1,70.5,107z"/>
	<path class="st0" d="M61.7,97.9c0,0.1,0.1,0.1,0.1,0.1C61.9,97.9,61.8,97.9,61.7,97.9z"/>
	<path class="st0" d="M62.6,98.8L62.6,98.8C62.5,98.8,62.5,98.8,62.6,98.8z"/>
	<path class="st0" d="M63,99.4L63,99.4C63,99.4,63,99.4,63,99.4z"/>
	<path class="st0" d="M61.8,98c0,0.2-0.4,0.5,0.1,0.3l0-0.1c0,0.1,0.2,0.1,0.3,0.1c0,0,0.1-0.1,0.1-0.1c0,0-0.1-0.1-0.1-0.2
		C62.2,97.9,62,98,61.8,98z"/>
	<path class="st0" d="M68.8,105C68.9,105,68.8,104.9,68.8,105L68.8,105z"/>
	<path class="st0" d="M68,104.1l0,0.1C68,104.2,68,104.1,68,104.1z"/>
	<path class="st0" d="M66.2,100.2C66.2,100.2,66.2,100.2,66.2,100.2C66.2,100.2,66.2,100.2,66.2,100.2z"/>
	<path class="st0" d="M68,104.3C68,104.3,68,104.3,68,104.3C68,104.3,68,104.3,68,104.3z"/>
	<path class="st0" d="M66.5,101.5C66.5,101.5,66.5,101.5,66.5,101.5C66.5,101.5,66.5,101.5,66.5,101.5z"/>
	<path class="st0" d="M82.5,87.3c0.1,0.1-0.1,0.2-0.1,0.2c0.4,0.2,0-0.4,0.3-0.2c0-0.1-0.1-0.1-0.1-0.2l-0.3,0.2
		C82.4,87.5,82.3,87.3,82.5,87.3z"/>
	<path class="st0" d="M78.8,103.9L78.8,103.9c0.1,0.1,0.1,0.1,0.3,0c-0.2-0.2-0.6-0.2-0.7-0.5c0,0,0,0.1-0.1,0.1
		C78.5,103.6,78.7,103.7,78.8,103.9z"/>
	<path class="st0" d="M78.3,103.6L78.3,103.6c-0.1,0-0.1,0-0.1,0c0,0,0,0-0.1,0.1C78.2,103.6,78.2,103.6,78.3,103.6z"/>
	<path class="st0" d="M82.5,90.3c0,0,0,0.1,0,0.1C82.5,90.4,82.5,90.4,82.5,90.3z"/>
	<path class="st0" d="M68.7,115.5c0,0-0.1,0-0.1,0C68.6,115.5,68.7,115.5,68.7,115.5z"/>
	<path class="st0" d="M77.6,105.6C77.6,105.6,77.5,105.6,77.6,105.6c-0.1,0.1-0.1,0.1-0.1,0.1L77.6,105.6z"/>
	<path class="st0" d="M77,98.4c0.4,0.2,0-0.1,0.2-0.1L77,98.1C77,98.2,77,98.3,77,98.4z"/>
	<polygon class="st0" points="82.6,87.2 82.5,87.2 82.5,87.2 	"/>
	<path class="st0" d="M77.7,94.8C77.7,94.8,77.7,94.8,77.7,94.8C77.7,94.8,77.7,94.8,77.7,94.8z"/>
	<path class="st0" d="M77.8,104.2l-0.2,0.5l0.1-0.1C77.6,104.4,78,104.4,77.8,104.2z"/>
	<path class="st0" d="M76.2,100.2l-0.2,0c0.3,0.6-0.5,0.8,0,1.4c-1,0.2,0.5,0.6-0.3,0.8l0.1,0c-0.8,1.5-2.1,2.9-2.6,4.4l-0.1-0.1
		c-0.4,0.5-0.8,1-1.1,1.5l-0.3,0.3l0,0l0,0.1c0,0,0,0.1-0.1,0.2c0,0,0,0.1-0.1,0.1c0,0,0,0,0,0l0,0c-0.1,0.2-0.3,0.9-0.4,1.1
		c0-0.1,0-0.1,0.1-0.4c0.1-0.1,0.2-0.4,0.2-0.5c0,0,0.1-0.4-0.1-0.1c0,0,0,0.1-0.1,0.2c0,0.1-0.1,0.2-0.1,0.2c-0.1,0.1,0,0,0-0.1
		c0.1-0.2,0.3-0.4,0.3-0.6c-0.2,0.3-0.2,0.2-0.1,0.1c0.1-0.1,0.2-0.3,0.1-0.2c-0.4,0.5-0.8,0.6-1.3,0.6l0.1-0.2c0,0.1,0.4-0.2,0.4,0
		c0.1-0.1,0-0.1,0-0.2c0,0-0.1-0.1-0.1-0.1c0-0.1,0-0.1-0.1-0.2c-0.1,0.1-0.3,0.1-0.4,0.1c0-0.2,0.3-0.3,0.2-0.5l0.2,0.1
		c0.2-0.2-0.1-0.2-0.2-0.3c0.2-0.1,0.1-0.4,0.4-0.4c-0.4-0.1-0.3-0.3-0.5-0.5c-0.1,0.4-0.3,0-0.5,0.1l0.2,0.3c0-0.5,0.1,0.1,0.4,0
		c-0.1,0.3-0.7-0.1-0.5,0.3c-0.3-0.3-0.2-0.5-0.7-0.8c0.2,0.2-0.3,0-0.3,0.2c-0.1-0.3,0.1-0.1,0.3-0.3c-0.1-0.2,0.1-0.3-0.2-0.4
		c0-0.3,0.3-0.1,0.4-0.3c0.3,0,0,0.9,0.8,0.5c0.1,0.1,0.4,0.2,0.5,0.4c0-0.2,0.2-0.6-0.1-0.8l-0.5,0.2c-0.1-0.2-0.4-0.1-0.4-0.2
		c0.2,0,0.3-0.2,0.2-0.3c0,0.1,0,0.1-0.1,0.1c-0.1-0.3-0.5-0.2-0.7-0.4c0,0.3-0.1,0.4-0.2,0.7c-0.3,0.1-0.1-0.2-0.2-0.3
		c0.1,0,0.1,0,0.1,0l-0.2-0.1c0-0.4,0.5-0.1,0.5-0.5c0.2-0.3-0.2-0.2-0.2-0.4c0,0-0.1,0-0.1,0.1c0,0,0-0.1,0-0.1l0,0
		c-0.1-0.2-0.2-0.3-0.4-0.3c0.1-0.1-0.1-0.1-0.2-0.2c-0.1-0.1-0.5-0.2-0.2-0.5c0,0,0,0,0,0c0-0.2,0-0.4,0.1-0.5l-0.1-0.4l0.3-0.1
		c-0.2-0.3-0.4-0.2-0.8-0.2c0.1-0.3-0.2-0.6-0.4-0.7c0,0,0-0.1-0.1-0.1l-0.1,0.2c-0.1-0.2-0.2-0.1-0.3-0.3c0,0,0,0.1,0-0.1
		c0,0,0-0.1,0-0.1c0,0,0,0,0,0.1l0.1-0.1c0.2-0.3-0.3-0.2-0.3-0.5c0,0,0.1,0,0.1,0.1c0-0.2,0.3-0.5,0.1-0.4c0,0-0.1-0.1-0.1-0.1
		l0-0.1c0,0,0,0.1,0,0.1c-0.1,0-0.2,0-0.2,0l-0.1-0.3c0-0.1-0.1-0.1-0.1-0.2l0.1-0.1c-0.1-0.1,0-0.1,0-0.1c0.2-0.6-0.6-0.4-0.4-1
		c-0.2,0.1-0.2,0.3-0.3,0.4c-0.2,0-0.5-0.1-0.6-0.1c0.1-0.3,0-1,0.4-1.2c-0.2-0.3-0.2,0.3-0.4,0.2l0,0c0,0.1,0,0.3-0.1,0.5
		c-0.2,0.2-0.4,0-0.4-0.2l0.3-0.2c-0.3-0.2-0.7,0.2-1.1,0.2c-0.1-0.3,0.3-0.4,0.5-0.6L63.7,98l0.2-0.2c-0.2-0.1-0.4,0-0.5-0.2
		c0.3,0-0.1-0.5,0.3-0.5c0-0.2-0.4,0.1-0.2-0.1c-0.3,0.1,0,0.2,0,0.3c-0.3,0.3-0.3-0.1-0.5-0.2c0.1-0.2,0.3-0.1,0.2-0.3
		c-0.1,0.1-0.3,0.1-0.3-0.1c-0.2,0.2-0.2-0.1-0.3-0.2c0.1,0.1,0,0.4-0.2,0.5c-0.1,0-0.2,0-0.4-0.2l0,0.2c-0.4,0.2,0-0.4-0.3-0.5
		c0.2,0,0.2,0,0.4-0.1c-0.2,0-0.5,0-0.7,0l0.1-0.4c-0.1,0.1-0.2-0.2-0.3,0c-0.1-0.3,0.4-0.1,0.5-0.2c-0.2-0.4-0.5,0.2-0.5-0.4
		l0.2-0.1c-0.1-0.1-0.4-0.1-0.3-0.2c-0.1,0.1,0,0.1,0.1,0.1c-0.4,0.4-0.6,0-0.9,0.5l0.1,0.1c-0.3,0-0.6,0.2-0.6-0.1
		c0-0.2,0.3-0.3,0.4-0.3c-0.2-0.1-0.5,0.4-0.7,0.2c0.1,0.1-0.1,0.3-0.2,0.4c0.1,0.1,0.3,0.3,0.4,0.1l0-0.1c0.1-0.1,0.2-0.1,0.2-0.2
		c0.2,0.1-0.1,0.3-0.1,0.4c0.2,0.2,0.3-0.4,0.6-0.3l0,0.1c0.2,0,0.4,0.1,0.6-0.1c-0.1,0.4,0.4,0.1,0.4,0.4c-0.5,0.6-0.4-0.4-0.8-0.1
		c0,0.2-0.3,0.2-0.4,0.3l0.6,0c0,0.1-0.2,0.5,0.1,0.3l0,0c0.2,0.1,0.4-0.2,0.4,0c0,0.1-0.1,0.1-0.2,0.2c0.1,0.2,0.2,0,0.3,0
		c0.1,0.2-0.3,0.2-0.2,0.3c0.3-0.1,0.2,0.2,0.3,0.3c0.3-0.4,0.9,0,0.9-0.5l0.5,0.1c-0.1,0.2-0.6,0.2-0.8,0.6l-0.2-0.2
		c-0.4,0.4,0.7,0.2,0.4,0.8c0.1,0.1,0.1,0.1,0.1,0.5l0.3-0.4c0,0.2-0.1,0.4-0.2,0.5c0.1,0,0.1,0.1,0.2,0.2c-0.1,0-0.1,0-0.2,0
		c-0.1,0.3,0,0.2,0.1,0.2c0.1,0,0.2,0.1,0.2,0.1l-0.2,0c0.1,0,0.2,0,0.2,0c0,0,0.1,0.1,0.1,0.1c0.1-0.1,0.2-0.3,0.2-0.5
		c0.1,0.4,0.3,0.6,0.2,1.1c-0.1,0.1-0.3,0.1-0.3,0.1c0,0.2,0.3,0.2,0.5,0c0,0,0.1,0,0.1,0.1c-0.1,0.1-0.2,0.2-0.1,0.3
		c0,0,0,0.1,0,0.1c0.4-0.2,0.3,0.2,0.5,0.1c0-0.1-0.1-0.2-0.1-0.2c0.3,0,0.6-0.1,0.5,0.1c-0.3-0.1-0.2,0.4-0.5,0.2
		c-0.3,0.5,0.4-0.1,0.4,0.2l-0.1,0.2c-0.3,0.1-0.3-0.2-0.3-0.1l0.1,0.1c-0.2,0-0.4-0.4-0.8-0.5l0.1,0.5c0.3,0.2,0.5,0.5,0.7,0.8
		c0.2,0.3,0.4,0.6,0.8,0.7l0,0c0,0,0.1,0,0.2-0.1l-0.1,0.1l0.2,0c-0.2,0.2-0.1,0.5-0.2,0.8c0.1-0.2,0.1-0.2,0.3-0.3
		c0.3-0.1,0.4-0.1,0.4,0.1c-0.2,0.1-0.2,0-0.3,0.2c0.1-0.1,0.2-0.1,0.3,0c-0.1,0.2,0,0.3-0.2,0.4c-0.1,0,0-0.1,0-0.1
		c-0.1,0-0.1,0.3-0.3,0.2l0.1,0.2c-0.1,0.2-0.3,0-0.4,0.1c0.3,0.2,0.8,0.2,1,0.4c-0.1,0-0.5,0.2-0.4,0.2c0,0.3,0.6,0.3,0.8,0.5
		c-0.1,0-0.1-0.1-0.2-0.1c0.2,0.8,0.4,1.4,0.3,2.3l0.5,0l-0.2,0.3c0,0.4,0.1,0.8,0.3,1.1c0.1,0.2,0.2,0.3,0.3,0.5l0.1,0.2
		c0.1,0.1,0.1,0.1,0.2,0.3c0.1,0.4-0.2,0.3-0.3,0.6c0.2,0.9,0.7,0.8,1,1.5c-0.1,0-0.5,0.1-0.4,0.5c0.1,0,0.3-0.2,0.3,0.1l-0.1,0
		c-0.1,0.4,0.1,0.4,0.2,1c0.2,0.8,0.7,1.2,1.1,0.8c0.1,0.7-0.3,0.8-0.3,1c0-0.7-0.1-0.2-0.3-0.1c0.2,0.1,0.3,0.2,0.1,0.9
		c0.1,0.3,0.2,0.6,0.4,0.5c-0.1,0-0.1-0.5,0.1-0.6c0,0.1,0,0.3,0.1,0.4c0.2,0,0.3,0,0.2,0.5c1.2-1.2,2.4-2.1,3.7-3.5
		c0.1-0.4-0.2,0.1-0.1-0.2c0.2-0.6,0.3-0.1,0.4-0.6l0,0.3c0.4-0.4,0.5-1.2,0.6-1.7c0.1,0.3,0.4-0.2,0.2,0.3c0.1-0.2,1.1,0.3,1.1,0
		c0,0-0.3-0.1-0.5-0.2c-0.2-0.1-0.5-0.2-0.5-0.2c-0.1-0.1,0.2-0.3,0.1-0.3c0.3,0,0.6,0,0.6-0.1c0.2,0.1,0.1,0.3,0,0.4
		c0.4,0.3,0.5-0.2,0.7,0.2c0.1-0.3-0.2-0.1-0.2-0.3l0.2-0.1l-0.2,0.1c0-0.2-0.2-0.5,0.1-0.6l-0.2-0.5c0.3,0.2,0.2-0.1,0.3-0.2
		l0.1,0.2c0.1-0.2,0.2-0.2,0.4-0.2c0.2,0.3-0.2,0.1,0.1,0.3l0.2-0.1c-0.2-0.1-0.2-0.3-0.4-0.3c-0.2-0.4-0.4-0.6-0.1-1
		c0.4,0,0.1,0.4,0.5,0.5c0.4-0.4-0.4-1-0.2-1.2c0.3-0.3,0-0.4,0.2-0.7c0.1,0.2,0.4-0.1,0.6-0.1l0.1,0.3c0-0.1,0.1-0.2,0.3-0.1
		c-0.3-0.1,0-0.6,0-0.9l-0.3-0.1c0-0.2,0-0.6,0.2-0.7c0.1-0.3-0.2-0.4-0.3-0.7c0.3,0,0.5,0.1,0.8,0.3c-0.2,0-0.1,0.2-0.3,0.3
		c0,0.5,0.4,1,0,1.3c0.5,0.5,0.1-0.3,0.4-0.4c0,0,0,0,0,0.1c0,0,0,0,0,0c0,0.2,0,0.4,0.2,0.6c0.1-0.3-0.5-0.5-0.1-0.6
		c-0.1-0.3,0.5-0.2,0.6-0.3c-0.1-0.2-0.6-0.5-0.4-0.8l0.3,0.3c0.2-0.4-0.4-0.4-0.2-0.8c-0.1,0.1-0.3-0.3-0.4,0
		c-0.1-0.2,0-0.5,0.2-0.6c0-0.1-0.1-0.1-0.2-0.1c-0.3,0.1,0.1,0.4-0.3,0.5l0.3,0.3c-0.2,0.1-0.5,0-0.6-0.2c0,0.1,0,0.1-0.1,0.1
		c-0.5-0.2,0.3-0.1-0.1-0.4l0,0.2c-0.4-0.1-0.2-0.5,0-0.6c0.3-0.1,0.4-0.3,0.7-0.2l0,0.3c0.3,0,0-0.4,0.1-0.5c0,0,0.1,0,0.1,0
		c0,0-0.1,0-0.1,0c0,0,0.1,0,0.1,0c0.1-0.1,0-0.4,0.1-0.5l-0.2-0.1l0.1,0.1c-0.1,0.1-0.3,0.2-0.4,0.1c0-0.4,0.4-0.2,0.7-0.2
		c0.3,0.2-0.1,0.3-0.1,0.5c0.4,0.1,0.2-0.3,0.5-0.5c0.3,0.3-0.1,0.3,0.2,0.6c0.2-0.2-0.1-0.4,0.1-0.6c0.2,0.1,0.1,0.4,0.3,0.4
		l0.2-0.1c-0.1,0.4,0.5,0.1,0.5,0.5c0.2-0.1-0.2-0.3,0.1-0.5c-0.2,0-0.6,0-0.6-0.2l0.2-0.2c0.2,0,0.3,0.4,0.5,0.3l0-0.3
		c-0.1,0-0.2,0.1-0.4-0.1c0.2-0.1-0.3-0.4-0.5-0.6c0.1-0.1,0.1-0.2,0.3-0.2c-0.2-0.5-0.1-0.9-0.3-1.3c0.2,0.3,0.4,0.1,0.6,0.1
		c0,0.3,0.3,0.4,0.6,0.4c0-0.2-0.3-0.4-0.5-0.4c0.2-0.2-0.2-0.3,0.1-0.4c0.2-0.1,0.3,0.2,0.5,0.2c0.1-0.3-0.4-0.2-0.2-0.5
		c0,0,0.1,0.1,0.1,0.1c0.1-0.1,0-0.4-0.2-0.5c0.5,0,0.1-0.5,0.5-0.3c0-0.4-0.3,0-0.4-0.1c-0.2-0.2,0.1-0.5,0.2-0.5
		c0,0.1,0.1,0.2,0,0.3l0.4,0c0.4-0.4-0.7-0.5-0.3-0.9c0.1,0.3,0.2,0.1,0.4,0.3c-0.1-0.1,0.1-0.4-0.2-0.3c0.1-0.2,0.1-0.3,0.2-0.4
		c-0.1-0.2-0.2-0.4-0.4-0.5c0.1-0.2,0.4-0.4,0.5-0.5c-0.1-0.6,0.4-1,0.2-1.6l0,0c0.1-0.4-0.5,0.1-0.4-0.3c0.4,0.1,0.3-0.2,0.6-0.4
		c0.3-0.5-0.2-1,0.1-1.5c0.1,0,0.2,0.1,0.2,0.2c0.2-0.4,0.1-0.7,0.1-1.1l0.1,0c0.3-0.6,0-1.1-0.2-1.7c0.1,0,0.2,0.1,0.3,0.1
		c0.1-0.3,0.1-0.8-0.3-1c0.4-0.4-0.1-0.2,0.2-0.7c0.1,0,0.1,0,0.1,0.1c0.1-0.2,0.1-0.4,0.1-0.6c-0.3-0.5-0.8-0.6-0.8-1.2
		c0.6-0.1,0.2,0.3,0.6,0.3c-0.1-0.1-0.2-0.2-0.1-0.4c0.2,0.1,0.1,0,0.4,0c0.1-0.1-0.7-0.4-0.6-0.4c-0.1,0-0.2,0.1-0.1,0.2
		c-0.4-0.1-0.1-0.6-0.3-0.8c0,0.1-0.1,0.4-0.3,0.3c0.1-0.4-0.5-0.4-0.8-0.6c0.2-0.4,0.5,0.2,0.9,0c0.1-0.1,0.4-0.3,0.6-0.2
		c0-0.3-0.4-0.5-0.5-0.8l0.1,0c-0.1-0.4-0.7-0.7-0.6-1.1l-0.1,0.2c-0.1,0-0.1-0.2-0.3-0.3c0.2,0,0.3-0.3,0.5-0.3
		c-0.6,0-0.6-0.8-1.2-0.8c0.1-0.1,0.4-0.1,0.5-0.1c0,0.3-0.1,0.4,0.2,0.4c-0.1-0.2,0-0.4,0.2-0.4c-0.4-0.1-0.7-0.5-1.1-0.5
		c0.1-0.2,0.2-0.4,0.5-0.4c-0.4-0.5-0.8,0.6-1-0.1c0.2-0.4,0.5,0.2,0.4-0.3l0.1,0.1c0.6-0.6-0.6,0-0.7-0.4c0.4-0.2,0.4,0.1,0.6-0.2
		c-0.2-0.3-0.9-0.2-0.9-0.5l0.2,0c-0.1-0.2-0.2-0.6-0.3-0.8c0.1,0,0.1,0,0.1,0c0-0.4-0.3,0-0.2-0.5l-0.2,0c0,0.2-0.1,0.6,0.2,0.7
		c-0.3-0.1-0.4,0.5-0.7,0.6l0.2,0c-0.4,0.7-0.2,1.3-0.2,2c0.6,0.2,0,0.7,0.5,1c0.5-0.1,0.1,0,0.3,0.4c-0.1-0.2-0.4,0.1-0.4,0.2
		c0.1,0,0.2,0.1,0.3,0.2c-0.1,0.1-0.4,0.7-0.1,0.7c-0.1,0.2-0.2,0-0.3,0c-0.2,0.1,0.2,0.1,0.1,0.2c0,0-0.1,0-0.1,0
		c0.1,0.3,0,0.5,0,0.9c0.5-0.1,0.2,0.3,0.5,0.4c-0.2,0-0.1,0.2-0.2,0.3l0.4,0.1c0.3,0.1-0.2,0.3,0,0.5l0.1-0.1
		c0.2,0.2-0.1,0.6-0.3,0.8c0.6,0.7,0.5,1.4,0.3,2c-0.2,0.6-0.5,1.3-0.4,2.1c0.1,0.1,0.3-0.1,0.5,0c0.1,0.2,0,0.2,0,0.4
		C79,92,78.8,92,79,92l-0.1-0.2c0,0,0.1,0,0.1,0c0-0.1-0.1-0.2-0.1-0.3c0.1,0.2,0.5,0.2,0.4,0.4c-0.1,0-0.1,0-0.1-0.1
		c0,0.2,0.1,0.2,0,0.3c-0.1,0.2,0,0.1-0.1,0.1l-0.2,0.5c0.4,0.3,0,0.5-0.1,0.6c-0.3-0.1-0.1-0.3-0.4-0.5L78.1,93l0.3,0l-0.1,0.2l0,0
		c0.1,0,0.2,0.1,0.1,0.1c0,0-0.1,0-0.1,0l0.1,0.2c-0.3-0.1-0.1,0.1-0.4,0.1c-0.2,0.5,0.3,0.8-0.2,1.2c0.2-0.1,0.5,0.2,0.4,0.4
		c-0.1,0.1-0.2,0.1-0.3,0l0.1,0.2c-0.5,0.2-0.3,0.5-0.5,0.8l-0.1,0c0.1,0.2,0.2,0.3,0.1,0.5l-0.3-0.1c-0.2,0.2,0.5,0.3,0.3,0.5
		c0.3,0.1,0.5-0.1,0.8,0c-0.3,0-0.4,0.3-0.2,0.3c0.1,0.3-0.1,0.2-0.1,0.2l0.1,0.2c-0.1,0.2-0.4,0-0.5-0.1c0.3,0.3,0,0.4-0.1,0.6
		L77.3,98l-0.1,0.2c0.2,0.2,0.1,0.5,0,0.7l-0.3-0.3c-0.2,0.1,0.1,0.1,0.2,0.2c0.1,0.3-0.2,0.3-0.4,0.3
		C76.8,99.7,75.7,99.7,76.2,100.2z M66.1,100.4L66.1,100.4C65.9,100.4,65.8,100.4,66.1,100.4z M67.1,102.6c-0.3-0.2-0.1-0.2,0-0.3
		c0,0.3,0.2,0.4,0.2,0.7c0.1-0.1,0.1-0.1,0.2-0.2c0,0.1,0,0.2-0.2,0.3C66.9,103.2,67.2,102.4,67.1,102.6z M62.7,99.1L62.7,99.1
		L62.7,99.1L62.7,99.1z M63.8,100c-0.1,0.1-0.1,0.1-0.1,0.2C63.8,100.1,63.8,100,63.8,100z M64.7,102.5c-0.1,0.1,0,0.2,0.1,0.3
		C64.8,102.8,64.8,102.7,64.7,102.5z M74.2,111.1c0,0.1-0.1,0.4,0.2,0.4c0-0.2,0.3-0.2,0.2-0.4c0,0,0,0,0,0
		C74.4,111.1,74.3,111.1,74.2,111.1z M77.4,103.2c0.1,0.1,0.3,0.2,0.4,0.2l0,0c0.1,0,0.1,0,0.1,0c0.1,0,0.1-0.1,0.1-0.2
		C77.5,103,77.5,102.9,77.4,103.2z"/>
	<path class="st0" d="M78.1,106.6C78.1,106.6,78.1,106.6,78.1,106.6C78.1,106.6,78.1,106.6,78.1,106.6z"/>
	<path class="st0" d="M78,103.3c0,0-0.1,0-0.2,0.1C77.8,103.4,77.9,103.4,78,103.3z"/>
	<path class="st0" d="M60.6,94.8l0.1,0l-0.1-0.2c-0.3,0-0.5,0.2-0.7,0.4c0.3-0.1,0.4,0.1,0.7,0.2L60.6,94.8z"/>
	<path class="st0" d="M59.7,96.4c0,0.1-0.1,0.3,0,0.3l0.1-0.1L59.7,96.4z"/>
	<path class="st0" d="M61.4,98.8l-0.1-0.3C61.2,98.6,61.2,99,61.4,98.8z"/>
	<path class="st0" d="M62.6,96.1l-0.2,0c0,0.2,0.1,0.3,0.3,0.2C62.5,96.2,62.7,96.2,62.6,96.1z"/>
	<path class="st0" d="M61.8,99.3c0.3-0.2,0,0.3,0.3,0.1C62,99.4,62.1,99.1,61.8,99.3z"/>
	<path class="st0" d="M64,97.2c0.2-0.3-0.1-0.2-0.2-0.4C63.9,96.9,63.8,97.3,64,97.2z"/>
	<path class="st0" d="M63.3,99.7c-0.2,0.1-0.2,0-0.3-0.1c0.1,0,0.2-0.1,0.2,0c-0.3-0.1-0.2-0.1-0.4-0.1c0,0.2,0,0.5-0.2,0.6
		C62.9,100.1,63.2,100,63.3,99.7z"/>
	<path class="st0" d="M64.3,97.5c0-0.2,0.1-0.4-0.1-0.5c-0.1,0.1-0.2,0.3-0.1,0.4l-0.2,0.1C63.9,97.8,64.1,97.3,64.3,97.5z"/>
	<path class="st0" d="M63.2,100.7l0.1-0.1c-0.3,0-0.3-0.3-0.6-0.2C62.8,100.6,63,100.7,63.2,100.7z"/>
	<path class="st0" d="M64.3,98.4l0.3-0.2c-0.1-0.2-0.1,0.1-0.2,0.1c0-0.1,0-0.2-0.1-0.2C64.5,98.2,64.1,98.3,64.3,98.4z"/>
	<path class="st0" d="M65.1,98.6l0.3,0.1l0.2-0.4C65.2,98.2,65.3,98.5,65.1,98.6z"/>
	<path class="st0" d="M65,99L65,99l0.6,0.1C65.3,99,65.4,99,65,99z"/>
	<path class="st0" d="M65.1,104c0.2,0,0.3-0.3,0.1-0.1C65.1,103.9,65,104.2,65.1,104z"/>
	<path class="st0" d="M67.4,102c-0.1,0.2,0.3,0.4,0.5,0.5C67.7,102.3,67.6,101.9,67.4,102z"/>
	<path class="st0" d="M67.9,102.5C67.9,102.5,67.9,102.5,67.9,102.5C67.9,102.5,67.9,102.5,67.9,102.5z"/>
	<path class="st0" d="M71.1,108.2C71.1,108.3,71.1,108.3,71.1,108.2C71.1,108.3,71.1,108.3,71.1,108.2z"/>
	<path class="st0" d="M71,108.1c0-0.1-0.1-0.3-0.3-0.3c0.1,0.1,0.2,0.3,0.5,0.4C71.1,108.2,71.1,108.1,71,108.1z"/>
	<path class="st0" d="M71.1,108.8c-0.1,0.1-0.1,0-0.2,0.1C70.9,108.9,71,108.9,71.1,108.8z"/>
	<path class="st0" d="M76,110.8c0.2-0.1,0.2-0.2-0.1-0.3C75.9,110.6,76,110.6,76,110.8z"/>
	<polygon class="st0" points="76,110.3 76.1,110.3 76.3,110.4 	"/>
	<path class="st0" d="M76.9,109.6c0,0,0,0.1,0,0.1C76.9,109.7,76.9,109.6,76.9,109.6z"/>
	<path class="st0" d="M76.9,109.8C76.9,109.8,76.9,109.8,76.9,109.8L76.9,109.8z"/>
	<path class="st0" d="M76.8,109.8L76.8,109.8C76.9,109.8,76.9,109.8,76.8,109.8C76.9,109.8,76.9,109.8,76.8,109.8z"/>
	<path class="st0" d="M77.1,109.4l-0.4,0c0,0.3,0.3-0.1,0.5,0.3L77.1,109.4z"/>
	<path class="st0" d="M77.4,108.8c0.2-0.1-0.1-0.6,0.3-0.5c0.1-0.6-0.7-0.3-0.5-0.8c-0.5,0.4,0.5,0.7,0.1,1
		C77.6,108.3,77.3,108.7,77.4,108.8z"/>
	<path class="st0" d="M76.7,108.5c0.2,0.1,0.3-0.1,0.2-0.2C76.9,108.3,76.6,108.3,76.7,108.5z"/>
	<polygon class="st0" points="77.7,107.8 78,107.7 77.9,107.6 	"/>
	<path class="st0" d="M78.1,107.3l0.1,0.3C78.2,107.5,78.3,107.3,78.1,107.3z"/>
	<path class="st0" d="M78.8,106.7c0.1-0.1-0.3-0.5-0.3-0.1l0.1-0.1C78.6,106.6,78.8,106.5,78.8,106.7z"/>
	<path class="st0" d="M78.9,104.5c-0.1,0.1,0,0.2,0.1,0.3L78.9,104.5L78.9,104.5z"/>
	<path class="st0" d="M77.6,104c-0.3-0.1-0.1,0.2-0.3,0.3C77.5,104.2,77.5,104.3,77.6,104z"/>
	<path class="st0" d="M79.4,104.5c0.1,0.1,0,0.2-0.1,0.2C79.5,104.8,79.6,104.6,79.4,104.5z"/>
	<path class="st0" d="M79.5,104c0.2,0,0.2,0.1,0.3,0.1c0.2-0.1,0.3-0.3,0.1-0.5c-0.2,0-0.5-0.1-0.7-0.2c0,0.3,0.5,0.7,0,0.7l0.4,0.5
		C79.9,104.3,79.4,104.2,79.5,104z"/>
	<path class="st0" d="M78.2,104.1l0.2-0.1c-0.2,0-0.2-0.2-0.2-0.3C77.9,103.6,78.3,104,78.2,104.1z"/>
	<polygon class="st0" points="79.9,102.3 79.9,102 79.9,102.1 	"/>
	<polygon class="st0" points="80.1,102.2 80.3,102.2 80.1,101.9 	"/>
	<polygon class="st0" points="80.4,101.9 80.4,101.9 80.4,102.1 	"/>
	<path class="st0" d="M80.7,101.2l-0.2,0c0,0.1-0.2,0.2,0,0.3C80.5,101.4,80.6,101.2,80.7,101.2z"/>
	<path class="st0" d="M76.9,97.7c0.1,0.1,0.2,0.1,0.3,0.1L76.9,97.7C77,97.6,77,97.7,76.9,97.7z"/>
	<path class="st0" d="M77.5,97.4l-0.3-0.3c-0.1,0.2,0.1,0.3,0.1,0.6c0.1-0.1-0.1-0.3,0.1-0.4L77.5,97.4z"/>
	<path class="st0" d="M78.5,92.9c0.2,0,0.2,0,0.3,0.2c-0.1-0.3-0.1-0.5-0.1-0.7c-0.1,0-0.4-0.2-0.3-0.1l0.1,0.3l-0.2-0.1
		C78.2,92.7,78.7,92.7,78.5,92.9z"/>
	<path class="st0" d="M79,80.1c0.1,0,0.2-0.1,0.3-0.2C79,79.8,79,80.1,79,80.1z"/>
</g>
</svg>
